<?xml version="1.0" encoding="UTF-8" standalone="no"?>
<!-- Created with Inkscape (http://www.inkscape.org/) -->

<svg
   xmlns:dc="http://purl.org/dc/elements/1.1/"
   xmlns:cc="http://creativecommons.org/ns#"
   xmlns:rdf="http://www.w3.org/1999/02/22-rdf-syntax-ns#"
   xmlns:svg="http://www.w3.org/2000/svg"
   xmlns="http://www.w3.org/2000/svg"
   xmlns:sodipodi="http://sodipodi.sourceforge.net/DTD/sodipodi-0.dtd"
   xmlns:inkscape="http://www.inkscape.org/namespaces/inkscape"
   id="svg2"
   version="1.1"
   inkscape:version="0.91 r13725"
   xml:space="preserve"
   width="814.96063"
   height="230"
   viewBox="0 0 814.96063 230"
   sodipodi:docname="medical-solution-A.svg"><metadata
     id="metadata8"><rdf:RDF><cc:Work
         rdf:about=""><dc:format>image/svg+xml</dc:format><dc:type
           rdf:resource="http://purl.org/dc/dcmitype/StillImage" /><dc:title /></cc:Work></rdf:RDF></metadata><defs
     id="defs6" /><sodipodi:namedview
     pagecolor="#ffffff"
     bordercolor="#666666"
     borderopacity="1"
     objecttolerance="10"
     gridtolerance="10"
     guidetolerance="10"
     inkscape:pageopacity="0"
     inkscape:pageshadow="2"
     inkscape:window-width="1122"
     inkscape:window-height="658"
     id="namedview4"
     showgrid="false"
     inkscape:zoom="1.1774113"
     inkscape:cx="173.03063"
     inkscape:cy="148.5733"
     inkscape:window-x="79"
     inkscape:window-y="0"
     inkscape:window-maximized="0"
     inkscape:current-layer="g12" /><g
     id="g10"
     inkscape:groupmode="layer"
     inkscape:label="medical-solution-A"
     transform="matrix(1.25,0,0,-1.25,0,229.99999)"><g
       id="g12"
       transform="translate(30.4,-275.2)"><g
         id="g14"
         transform="matrix(1,0,0,-1,0,453.5433)"><path
           d="M 204.238,9.078 150.496,75.344"
           style="fill:#0000ff;fill-opacity:1;fill-rule:evenodd;stroke:#0000ff;stroke-width:1.60000002;stroke-linecap:butt;stroke-linejoin:miter;stroke-miterlimit:4;stroke-dasharray:none;stroke-opacity:1"
           id="path16"
           inkscape:connector-curvature="0" /></g><g
         id="g18"
         transform="matrix(0.810976,1,1,-0.810976,0,453.5433)"><path
           d="m 34.677,130.655 -8.147,-2.998 8.147,-2.994 c -1.302,1.767 -1.296,4.187 0,5.992 z"
           style="fill:#0000ff;fill-opacity:1;fill-rule:evenodd;stroke:#0000ff;stroke-width:0.46601599;stroke-linecap:butt;stroke-linejoin:round;stroke-miterlimit:4;stroke-dasharray:none;stroke-opacity:1"
           id="path20"
           inkscape:connector-curvature="0" /></g><g
         id="g22"
         transform="matrix(1,0,0,-1,0,453.5433)"><path
           d="m 204.141,9.562 53.738,66.266"
           style="fill:#0000ff;fill-opacity:1;fill-rule:evenodd;stroke:#0000ff;stroke-width:1.60000002;stroke-linecap:butt;stroke-linejoin:miter;stroke-miterlimit:4;stroke-dasharray:none;stroke-opacity:1"
           id="path24"
           inkscape:connector-curvature="0" /></g><g
         id="g26"
         transform="matrix(-0.810976,1,1,0.810976,0,453.5433)"><path
           d="m -165.403,121.479 -8.147,-2.998 8.147,-2.994 c -1.302,1.769 -1.295,4.188 0,5.992 z"
           style="fill:#0000ff;fill-opacity:1;fill-rule:evenodd;stroke:#0000ff;stroke-width:0.46601599;stroke-linecap:butt;stroke-linejoin:round;stroke-miterlimit:4;stroke-dasharray:none;stroke-opacity:1"
           id="path28"
           inkscape:connector-curvature="0" /></g><g
         id="g30"
         transform="matrix(1,0,0,-1,0,453.5433)"><path
           d="m 150.316,78.328 -35.218,66.723"
           style="fill:#0000ff;fill-opacity:1;fill-rule:evenodd;stroke:#0000ff;stroke-width:1.60000002;stroke-linecap:butt;stroke-linejoin:miter;stroke-miterlimit:4;stroke-dasharray:none;stroke-opacity:1"
           id="path32"
           inkscape:connector-curvature="0" /></g><g
         id="g34"
         transform="matrix(0.527862,1,1,-0.527862,0,453.5433)"><path
           d="m -58.524,153.322 -9.274,-3.413 9.273,-3.411 c -1.479,2.016 -1.471,4.769 10e-4,6.824 z"
           style="fill:#0000ff;fill-opacity:1;fill-rule:evenodd;stroke:#0000ff;stroke-width:0.53061199;stroke-linecap:butt;stroke-linejoin:round;stroke-miterlimit:4;stroke-dasharray:none;stroke-opacity:1"
           id="path36"
           inkscape:connector-curvature="0" /></g><g
         id="g38"
         transform="matrix(1,0,0,-1,0,453.5433)"><path
           d="m 150.254,78.82 35.219,66.719"
           style="fill:#0000ff;fill-opacity:1;fill-rule:evenodd;stroke:#0000ff;stroke-width:1.60000002;stroke-linecap:butt;stroke-linejoin:miter;stroke-miterlimit:4;stroke-dasharray:none;stroke-opacity:1"
           id="path40"
           inkscape:connector-curvature="0" /></g><g
         id="g42"
         transform="matrix(-0.527862,1,1,0.527862,0,453.5433)"><path
           d="m -182.989,88.396 -9.278,-3.41 9.277,-3.411 c -1.481,2.014 -1.474,4.768 0.001,6.821 z"
           style="fill:#0000ff;fill-opacity:1;fill-rule:evenodd;stroke:#0000ff;stroke-width:0.53061199;stroke-linecap:butt;stroke-linejoin:round;stroke-miterlimit:4;stroke-dasharray:none;stroke-opacity:1"
           id="path44"
           inkscape:connector-curvature="0" /></g><g
         id="g46"
         transform="matrix(1,0,0,-1,0,453.5433)"><path
           d="m 259.41,79.629 -35.219,66.723"
           style="fill:#0000ff;fill-opacity:1;fill-rule:evenodd;stroke:#0000ff;stroke-width:1.60000002;stroke-linecap:butt;stroke-linejoin:miter;stroke-miterlimit:4;stroke-dasharray:none;stroke-opacity:1"
           id="path48"
           inkscape:connector-curvature="0" /></g><g
         id="g50"
         transform="matrix(0.527862,1,1,-0.527862,0,453.5433)"><path
           d="m -14.506,239.177 -9.272,-3.41 9.273,-3.411 c -1.48,2.012 -1.471,4.768 -10e-4,6.821 z"
           style="fill:#0000ff;fill-opacity:1;fill-rule:evenodd;stroke:#0000ff;stroke-width:0.53061199;stroke-linecap:butt;stroke-linejoin:round;stroke-miterlimit:4;stroke-dasharray:none;stroke-opacity:1"
           id="path52"
           inkscape:connector-curvature="0" /></g><g
         id="g54"
         transform="matrix(1,0,0,-1,0,453.5433)"><path
           d="m 259.344,80.121 35.222,66.719"
           style="fill:#0000ff;fill-opacity:1;fill-rule:evenodd;stroke:#0000ff;stroke-width:1.60000002;stroke-linecap:butt;stroke-linejoin:miter;stroke-miterlimit:4;stroke-dasharray:none;stroke-opacity:1"
           id="path56"
           inkscape:connector-curvature="0" /></g><g
         id="g58"
         transform="matrix(-0.527862,1,1,0.527862,0,453.5433)"><path
           d="m -229.046,173.177 -9.274,-3.411 9.276,-3.408 c -1.483,2.01 -1.475,4.769 -0.002,6.819 z"
           style="fill:#0000ff;fill-opacity:1;fill-rule:evenodd;stroke:#0000ff;stroke-width:0.53061199;stroke-linecap:butt;stroke-linejoin:round;stroke-miterlimit:4;stroke-dasharray:none;stroke-opacity:1"
           id="path60"
           inkscape:connector-curvature="0" /></g><path
         d="m 126.258,420.864 c -0.309,0.636 -0.805,1.097 -1.578,1.097 -2.012,0 -4.141,-2.523 -4.141,-5.031 0,-1.617 0.945,-2.75 2.285,-2.75 0.344,0 1.203,0.07 2.235,1.289 0.136,-0.723 0.738,-1.289 1.562,-1.289 0.602,0 0.996,0.395 1.27,0.945 0.293,0.618 0.515,1.668 0.515,1.7 0,0.171 -0.152,0.171 -0.207,0.171 -0.168,0 -0.187,-0.066 -0.238,-0.308 -0.293,-1.117 -0.602,-2.129 -1.305,-2.129 -0.465,0 -0.515,0.445 -0.515,0.789 0,0.379 0.035,0.516 0.222,1.273 0.188,0.719 0.223,0.891 0.379,1.543 l 0.617,2.407 c 0.121,0.48 0.121,0.515 0.121,0.582 0,0.293 -0.207,0.465 -0.5,0.465 -0.41,0 -0.668,-0.379 -0.722,-0.754 z m -1.117,-4.45 c -0.086,-0.308 -0.086,-0.343 -0.34,-0.636 -0.758,-0.946 -1.461,-1.219 -1.942,-1.219 -0.859,0 -1.101,0.945 -1.101,1.613 0,0.86 0.551,2.973 0.945,3.762 0.535,1.016 1.305,1.652 1.996,1.652 1.113,0 1.356,-1.41 1.356,-1.515 0,-0.102 -0.035,-0.203 -0.051,-0.289 l -0.859,-3.368"
         style="fill:#000000;fill-opacity:1;fill-rule:nonzero;stroke:none"
         id="path62"
         inkscape:connector-curvature="0" /><path
         d="m 145.477,419.989 c 0.257,0 0.582,0 0.582,0.343 0,0.344 -0.325,0.344 -0.567,0.344 l -10.289,0 c -0.238,0 -0.566,0 -0.566,-0.344 0,-0.343 0.328,-0.343 0.586,-0.343 l 10.254,0 z m 0.015,-3.336 c 0.242,0 0.567,0 0.567,0.347 0,0.34 -0.325,0.34 -0.582,0.34 l -10.254,0 c -0.258,0 -0.586,0 -0.586,-0.34 0,-0.347 0.328,-0.347 0.566,-0.347 l 10.289,0"
         style="fill:#000000;fill-opacity:1;fill-rule:nonzero;stroke:none"
         id="path64"
         inkscape:connector-curvature="0" /><path
         d="m 159.703,419.868 c 0,1.371 -0.086,2.746 -0.687,4.019 -0.789,1.648 -2.2,1.922 -2.918,1.922 -1.032,0 -2.286,-0.445 -2.989,-2.043 -0.55,-1.184 -0.636,-2.523 -0.636,-3.898 0,-1.29 0.066,-2.836 0.773,-4.141 0.738,-1.391 1.992,-1.734 2.832,-1.734 0.93,0 2.234,0.359 2.992,1.992 0.547,1.183 0.633,2.523 0.633,3.883 z m -3.625,-5.497 c -0.668,0 -1.683,0.43 -1.992,2.079 -0.188,1.027 -0.188,2.609 -0.188,3.621 0,1.101 0,2.234 0.137,3.164 0.328,2.043 1.617,2.195 2.043,2.195 0.57,0 1.703,-0.309 2.027,-2.008 0.172,-0.961 0.172,-2.269 0.172,-3.351 0,-1.286 0,-2.453 -0.187,-3.555 -0.258,-1.629 -1.238,-2.145 -2.012,-2.145"
         style="fill:#000000;fill-opacity:1;fill-rule:nonzero;stroke:none"
         id="path66"
         inkscape:connector-curvature="0" /><path
         d="m 250.855,421.34 c -0.308,0.637 -0.808,1.098 -1.578,1.098 -2.011,0 -4.14,-2.524 -4.14,-5.031 0,-1.618 0.945,-2.75 2.285,-2.75 0.344,0 1.199,0.07 2.23,1.289 0.137,-0.723 0.739,-1.289 1.567,-1.289 0.601,0 0.996,0.394 1.269,0.945 0.293,0.617 0.516,1.668 0.516,1.699 0,0.172 -0.156,0.172 -0.207,0.172 -0.172,0 -0.188,-0.066 -0.238,-0.309 -0.293,-1.117 -0.602,-2.129 -1.309,-2.129 -0.461,0 -0.516,0.446 -0.516,0.79 0,0.378 0.036,0.515 0.227,1.273 0.187,0.719 0.223,0.891 0.375,1.543 l 0.621,2.406 c 0.117,0.481 0.117,0.516 0.117,0.582 0,0.293 -0.203,0.465 -0.496,0.465 -0.414,0 -0.672,-0.379 -0.723,-0.754 z m -1.117,-4.449 c -0.086,-0.309 -0.086,-0.344 -0.343,-0.637 -0.754,-0.945 -1.457,-1.219 -1.942,-1.219 -0.855,0 -1.098,0.946 -1.098,1.614 0,0.859 0.551,2.972 0.946,3.761 0.531,1.016 1.304,1.653 1.992,1.653 1.117,0 1.359,-1.41 1.359,-1.512 0,-0.105 -0.035,-0.207 -0.054,-0.293 l -0.86,-3.367"
         style="fill:#000000;fill-opacity:1;fill-rule:nonzero;stroke:none"
         id="path68"
         inkscape:connector-curvature="0" /><path
         d="m 270.07,420.465 c 0.258,0 0.586,0 0.586,0.344 0,0.344 -0.328,0.344 -0.566,0.344 l -10.289,0 c -0.242,0 -0.567,0 -0.567,-0.344 0,-0.344 0.325,-0.344 0.582,-0.344 l 10.258,0 -0.004,0 z m 0.02,-3.332 c 0.238,0 0.566,0 0.566,0.344 0,0.34 -0.328,0.34 -0.586,0.34 l -10.254,0 c -0.257,0 -0.582,0 -0.582,-0.34 0,-0.344 0.325,-0.344 0.567,-0.344 l 10.289,0"
         style="fill:#000000;fill-opacity:1;fill-rule:nonzero;stroke:none"
         id="path70"
         inkscape:connector-curvature="0" /><path
         d="m 281.449,425.84 c 0,0.414 0,0.445 -0.394,0.445 -1.067,-1.097 -2.578,-1.097 -3.129,-1.097 l 0,-0.535 c 0.344,0 1.359,0 2.25,0.449 l 0,-8.899 c 0,-0.617 -0.051,-0.824 -1.598,-0.824 l -0.547,0 0,-0.531 c 0.602,0.051 2.094,0.051 2.781,0.051 0.688,0 2.184,0 2.786,-0.051 l 0,0.531 -0.551,0 c -1.547,0 -1.598,0.188 -1.598,0.824 l 0,9.637"
         style="fill:#000000;fill-opacity:1;fill-rule:nonzero;stroke:none"
         id="path72"
         inkscape:connector-curvature="0" /><path
         d="m 97.926,303.106 c 0,0.015 0,0.187 -0.223,0.187 -0.394,0 -1.648,-0.136 -2.094,-0.172 -0.136,-0.015 -0.328,-0.031 -0.328,-0.343 0,-0.203 0.157,-0.203 0.414,-0.203 0.825,0 0.86,-0.122 0.86,-0.293 0,-0.122 -0.157,-0.704 -0.243,-1.067 l -1.406,-5.597 c -0.207,-0.86 -0.277,-1.133 -0.277,-1.735 0,-1.633 0.91,-2.699 2.183,-2.699 2.028,0 4.141,2.559 4.141,5.035 0,1.563 -0.91,2.746 -2.285,2.746 -0.793,0 -1.496,-0.496 -2.012,-1.031 l 1.27,5.172 0.004,0 -0.004,0 z m -1.614,-6.492 c 0.106,0.379 0.106,0.41 0.258,0.601 0.844,1.113 1.614,1.371 2.063,1.371 0.617,0 1.082,-0.515 1.082,-1.613 0,-1.012 -0.567,-2.988 -0.875,-3.641 -0.567,-1.152 -1.36,-1.769 -2.028,-1.769 -0.585,0 -1.152,0.465 -1.152,1.734 0,0.328 0,0.653 0.278,1.735 l 0.374,1.582"
         style="fill:#000000;fill-opacity:1;fill-rule:nonzero;stroke:none"
         id="path74"
         inkscape:connector-curvature="0" /><path
         d="m 117.773,296.993 c 0.258,0 0.582,0 0.582,0.343 0,0.344 -0.324,0.344 -0.566,0.344 l -10.289,0 c -0.238,0 -0.566,0 -0.566,-0.344 0,-0.343 0.328,-0.343 0.582,-0.343 l 10.257,0 z m 0.016,-3.336 c 0.242,0 0.566,0 0.566,0.343 0,0.344 -0.324,0.344 -0.582,0.344 l -10.257,0 c -0.258,0 -0.582,0 -0.582,-0.344 0,-0.343 0.324,-0.343 0.566,-0.343 l 10.289,0"
         style="fill:#000000;fill-opacity:1;fill-rule:nonzero;stroke:none"
         id="path76"
         inkscape:connector-curvature="0" /><path
         d="m 131.953,296.871 c 0,1.372 -0.086,2.747 -0.687,4.02 -0.789,1.648 -2.2,1.922 -2.922,1.922 -1.032,0 -2.285,-0.445 -2.989,-2.043 -0.55,-1.184 -0.636,-2.524 -0.636,-3.899 0,-1.289 0.07,-2.836 0.773,-4.14 0.738,-1.391 1.996,-1.735 2.836,-1.735 0.926,0 2.234,0.36 2.988,1.993 0.551,1.183 0.637,2.523 0.637,3.882 z m -3.625,-5.496 c -0.668,0 -1.683,0.426 -1.992,2.078 -0.191,1.028 -0.191,2.61 -0.191,3.622 0,1.101 0,2.234 0.14,3.164 0.324,2.043 1.613,2.195 2.043,2.195 0.567,0 1.699,-0.309 2.027,-2.008 0.172,-0.961 0.172,-2.269 0.172,-3.351 0,-1.286 0,-2.454 -0.187,-3.555 -0.258,-1.629 -1.238,-2.145 -2.012,-2.145"
         style="fill:#000000;fill-opacity:1;fill-rule:nonzero;stroke:none"
         id="path78"
         inkscape:connector-curvature="0" /><path
         d="m 283.051,301.516 c 0,0.016 0,0.187 -0.223,0.187 -0.394,0 -1.648,-0.136 -2.094,-0.171 -0.136,-0.016 -0.328,-0.036 -0.328,-0.344 0,-0.207 0.156,-0.207 0.414,-0.207 0.825,0 0.86,-0.121 0.86,-0.289 0,-0.121 -0.157,-0.707 -0.242,-1.067 l -1.407,-5.601 c -0.207,-0.856 -0.277,-1.133 -0.277,-1.735 0,-1.632 0.91,-2.695 2.184,-2.695 2.027,0 4.136,2.559 4.136,5.031 0,1.563 -0.91,2.75 -2.281,2.75 -0.793,0 -1.496,-0.5 -2.012,-1.031 l 1.27,5.172 z m -1.613,-6.496 c 0.105,0.379 0.105,0.414 0.257,0.601 0.84,1.118 1.614,1.375 2.063,1.375 0.617,0 1.082,-0.515 1.082,-1.613 0,-1.015 -0.567,-2.988 -0.875,-3.644 -0.57,-1.149 -1.36,-1.77 -2.027,-1.77 -0.586,0 -1.153,0.465 -1.153,1.738 0,0.325 0,0.653 0.274,1.735 l 0.379,1.578"
         style="fill:#000000;fill-opacity:1;fill-rule:nonzero;stroke:none"
         id="path80"
         inkscape:connector-curvature="0" /><path
         d="m 302.898,295.399 c 0.258,0 0.582,0 0.582,0.344 0,0.343 -0.324,0.343 -0.566,0.343 l -10.289,0 c -0.242,0 -0.566,0 -0.566,-0.343 0,-0.344 0.324,-0.344 0.582,-0.344 l 10.257,0 z m 0.016,-3.332 c 0.242,0 0.566,0 0.566,0.343 0,0.344 -0.324,0.344 -0.582,0.344 l -10.257,0 c -0.258,0 -0.582,0 -0.582,-0.344 0,-0.343 0.324,-0.343 0.566,-0.343 l 10.289,0"
         style="fill:#000000;fill-opacity:1;fill-rule:nonzero;stroke:none"
         id="path82"
         inkscape:connector-curvature="0" /><path
         d="m 314.227,300.774 c 0,0.414 0,0.449 -0.395,0.449 -1.066,-1.102 -2.578,-1.102 -3.129,-1.102 l 0,-0.531 c 0.344,0 1.359,0 2.25,0.445 l 0,-8.898 c 0,-0.617 -0.051,-0.82 -1.598,-0.82 l -0.546,0 0,-0.535 c 0.597,0.05 2.093,0.05 2.781,0.05 0.687,0 2.18,0 2.781,-0.05 l 0,0.535 -0.547,0 c -1.547,0 -1.597,0.187 -1.597,0.82 l 0,9.637"
         style="fill:#000000;fill-opacity:1;fill-rule:nonzero;stroke:none"
         id="path84"
         inkscape:connector-curvature="0" /><path
         d="m 215.84,301.719 c 0,0.016 0,0.188 -0.223,0.188 -0.394,0 -1.648,-0.137 -2.094,-0.172 -0.136,-0.016 -0.328,-0.035 -0.328,-0.344 0,-0.207 0.157,-0.207 0.414,-0.207 0.825,0 0.86,-0.121 0.86,-0.289 0,-0.121 -0.157,-0.707 -0.242,-1.067 l -1.411,-5.601 c -0.203,-0.859 -0.273,-1.133 -0.273,-1.734 0,-1.633 0.91,-2.696 2.18,-2.696 2.027,0 4.14,2.559 4.14,5.031 0,1.563 -0.91,2.75 -2.285,2.75 -0.789,0 -1.492,-0.5 -2.008,-1.031 l 1.27,5.168 0,0.004 z m -1.613,-6.496 c 0.101,0.379 0.101,0.414 0.257,0.602 0.84,1.117 1.614,1.375 2.063,1.375 0.617,0 1.082,-0.516 1.082,-1.618 0,-1.011 -0.57,-2.988 -0.879,-3.64 -0.566,-1.149 -1.355,-1.77 -2.027,-1.77 -0.582,0 -1.149,0.465 -1.149,1.735 0,0.328 0,0.656 0.274,1.738 l 0.379,1.578"
         style="fill:#000000;fill-opacity:1;fill-rule:nonzero;stroke:none"
         id="path86"
         inkscape:connector-curvature="0" /><path
         d="m 235.684,295.602 c 0.257,0 0.586,0 0.586,0.344 0,0.343 -0.329,0.343 -0.567,0.343 l -10.289,0 c -0.242,0 -0.566,0 -0.566,-0.343 0,-0.344 0.324,-0.344 0.582,-0.344 l 10.258,0 -0.004,0 z m 0.019,-3.332 c 0.238,0 0.567,0 0.567,0.344 0,0.343 -0.329,0.343 -0.586,0.343 l -10.254,0 c -0.258,0 -0.582,0 -0.582,-0.343 0,-0.344 0.324,-0.344 0.566,-0.344 l 10.289,0"
         style="fill:#000000;fill-opacity:1;fill-rule:nonzero;stroke:none"
         id="path88"
         inkscape:connector-curvature="0" /><path
         d="m 249.867,295.481 c 0,1.375 -0.09,2.75 -0.687,4.019 -0.793,1.649 -2.2,1.926 -2.922,1.926 -1.031,0 -2.285,-0.449 -2.988,-2.047 -0.551,-1.183 -0.637,-2.523 -0.637,-3.898 0,-1.289 0.07,-2.832 0.773,-4.141 0.739,-1.39 1.992,-1.734 2.836,-1.734 0.926,0 2.231,0.363 2.988,1.992 0.547,1.187 0.637,2.527 0.637,3.883 z m -3.625,-5.496 c -0.672,0 -1.683,0.429 -1.992,2.078 -0.191,1.031 -0.191,2.609 -0.191,3.625 0,1.097 0,2.234 0.136,3.16 0.328,2.043 1.617,2.199 2.047,2.199 0.567,0 1.699,-0.308 2.028,-2.012 0.171,-0.96 0.171,-2.265 0.171,-3.347 0,-1.289 0,-2.457 -0.191,-3.555 -0.258,-1.633 -1.234,-2.148 -2.008,-2.148"
         style="fill:#000000;fill-opacity:1;fill-rule:nonzero;stroke:none"
         id="path90"
         inkscape:connector-curvature="0" /><path
         d="m 165.23,302.446 c 0,0.019 0,0.191 -0.222,0.191 -0.395,0 -1.649,-0.137 -2.094,-0.172 -0.137,-0.019 -0.328,-0.035 -0.328,-0.344 0,-0.207 0.156,-0.207 0.414,-0.207 0.824,0 0.859,-0.121 0.859,-0.293 0,-0.117 -0.156,-0.703 -0.242,-1.062 l -1.406,-5.602 c -0.207,-0.859 -0.277,-1.132 -0.277,-1.734 0,-1.633 0.91,-2.699 2.183,-2.699 2.028,0 4.141,2.562 4.141,5.035 0,1.562 -0.91,2.746 -2.285,2.746 -0.793,0 -1.496,-0.496 -2.012,-1.027 l 1.269,5.168 0.004,0 -0.004,0 z m -1.613,-6.493 c 0.106,0.379 0.106,0.415 0.258,0.602 0.844,1.117 1.613,1.375 2.063,1.375 0.617,0 1.082,-0.516 1.082,-1.617 0,-1.012 -0.567,-2.988 -0.875,-3.641 -0.567,-1.152 -1.36,-1.769 -2.028,-1.769 -0.586,0 -1.152,0.465 -1.152,1.734 0,0.328 0,0.656 0.277,1.738 l 0.375,1.578"
         style="fill:#000000;fill-opacity:1;fill-rule:nonzero;stroke:none"
         id="path92"
         inkscape:connector-curvature="0" /><path
         d="m 185.078,296.332 c 0.258,0 0.582,0 0.582,0.344 0,0.344 -0.324,0.344 -0.566,0.344 l -10.289,0 c -0.239,0 -0.567,0 -0.567,-0.344 0,-0.344 0.328,-0.344 0.582,-0.344 l 10.258,0 z M 185.094,293 c 0.242,0 0.566,0 0.566,0.344 0,0.344 -0.324,0.344 -0.582,0.344 l -10.258,0 c -0.258,0 -0.582,0 -0.582,-0.344 0,-0.344 0.324,-0.344 0.567,-0.344 l 10.289,0"
         style="fill:#000000;fill-opacity:1;fill-rule:nonzero;stroke:none"
         id="path94"
         inkscape:connector-curvature="0" /><path
         d="m 196.406,301.707 c 0,0.414 0,0.446 -0.394,0.446 -1.067,-1.098 -2.578,-1.098 -3.129,-1.098 l 0,-0.531 c 0.344,0 1.359,0 2.25,0.445 l 0,-8.898 c 0,-0.618 -0.051,-0.825 -1.598,-0.825 l -0.547,0 0,-0.531 c 0.602,0.051 2.094,0.051 2.782,0.051 0.687,0 2.179,0 2.785,-0.051 l 0,0.531 -0.551,0 c -1.547,0 -1.598,0.188 -1.598,0.825 l 0,9.636"
         style="fill:#000000;fill-opacity:1;fill-rule:nonzero;stroke:none"
         id="path96"
         inkscape:connector-curvature="0" /><path
         d="m 171.82,388.141 c 0,0.5 -0.41,0.91 -0.91,0.91 -0.496,0 -0.91,-0.41 -0.91,-0.91 0,-0.496 0.414,-0.91 0.91,-0.91 0.5,0 0.91,0.414 0.91,0.91"
         style="fill:#000000;fill-opacity:1;fill-rule:nonzero;stroke:none"
         id="path106"
         inkscape:connector-curvature="0" /><path
         d="m 179.609,392.696 0,-0.551 c 0,-4.02 -1.785,-4.809 -2.781,-4.809 -0.293,0 -1.219,0.035 -1.683,0.617 0.753,0 0.894,0.5 0.894,0.79 0,0.535 -0.414,0.792 -0.793,0.792 -0.273,0 -0.789,-0.156 -0.789,-0.824 0,-1.152 0.926,-1.855 2.387,-1.855 2.215,0 4.312,2.336 4.312,6.027 0,4.621 -1.976,5.789 -3.504,5.789 -0.945,0 -1.785,-0.308 -2.527,-1.082 -0.703,-0.773 -1.098,-1.492 -1.098,-2.781 0,-2.149 1.512,-3.832 3.434,-3.832 1.051,0 1.754,0.723 2.148,1.719 z m -2.129,-1.325 c -0.273,0 -1.066,0 -1.597,1.082 -0.309,0.637 -0.309,1.497 -0.309,2.336 0,0.93 0,1.735 0.36,2.371 0.464,0.86 1.117,1.083 1.718,1.083 0.789,0 1.36,-0.583 1.649,-1.356 0.207,-0.551 0.277,-1.633 0.277,-2.422 0,-1.426 -0.586,-3.094 -2.098,-3.094"
         style="fill:#000000;fill-opacity:1;fill-rule:nonzero;stroke:none"
         id="path108"
         inkscape:connector-curvature="0" /><path
         d="m 189.582,390.684 c 0,2.047 -1.41,3.762 -3.266,3.762 -0.824,0 -1.562,-0.274 -2.179,-0.875 l 0,3.351 c 0.343,-0.105 0.91,-0.222 1.457,-0.222 2.113,0 3.316,1.562 3.316,1.785 0,0.101 -0.051,0.187 -0.172,0.187 -0.015,0 -0.05,0 -0.136,-0.051 -0.344,-0.156 -1.184,-0.5 -2.336,-0.5 -0.688,0 -1.477,0.122 -2.286,0.481 -0.136,0.055 -0.171,0.055 -0.207,0.055 -0.171,0 -0.171,-0.137 -0.171,-0.414 l 0,-5.083 c 0,-0.312 0,-0.449 0.242,-0.449 0.121,0 0.152,0.051 0.222,0.157 0.188,0.273 0.825,1.203 2.215,1.203 0.895,0 1.324,-0.793 1.461,-1.102 0.278,-0.633 0.309,-1.305 0.309,-2.164 0,-0.602 0,-1.633 -0.41,-2.352 -0.414,-0.671 -1.047,-1.117 -1.84,-1.117 -1.254,0 -2.231,0.91 -2.524,1.922 0.051,-0.015 0.102,-0.031 0.293,-0.031 0.567,0 0.86,0.43 0.86,0.84 0,0.414 -0.293,0.843 -0.86,0.843 -0.242,0 -0.843,-0.121 -0.843,-0.91 0,-1.48 1.187,-3.144 3.109,-3.144 1.992,0 3.746,1.648 3.746,3.828"
         style="fill:#000000;fill-opacity:1;fill-rule:nonzero;stroke:none"
         id="path110"
         inkscape:connector-curvature="0" /><path
         d="m 218.691,388.547 c 0,0.496 -0.41,0.91 -0.91,0.91 -0.496,0 -0.91,-0.414 -0.91,-0.91 0,-0.5 0.414,-0.91 0.91,-0.91 0.5,0 0.91,0.41 0.91,0.91"
         style="fill:#000000;fill-opacity:1;fill-rule:nonzero;stroke:none"
         id="path112"
         inkscape:connector-curvature="0" /><path
         d="m 228.078,393.133 c 0,1.375 -0.086,2.75 -0.687,4.02 -0.789,1.648 -2.2,1.925 -2.918,1.925 -1.032,0 -2.285,-0.449 -2.989,-2.046 -0.55,-1.184 -0.636,-2.524 -0.636,-3.899 0,-1.289 0.066,-2.832 0.773,-4.14 0.738,-1.391 1.992,-1.735 2.832,-1.735 0.93,0 2.235,0.36 2.992,1.992 0.547,1.188 0.633,2.528 0.633,3.883 z m -3.625,-5.496 c -0.668,0 -1.683,0.43 -1.992,2.078 -0.188,1.031 -0.188,2.61 -0.188,3.625 0,1.098 0,2.231 0.137,3.16 0.328,2.043 1.617,2.2 2.043,2.2 0.567,0 1.703,-0.309 2.027,-2.012 0.172,-0.961 0.172,-2.266 0.172,-3.348 0,-1.289 0,-2.457 -0.187,-3.558 -0.258,-1.629 -1.238,-2.145 -2.012,-2.145"
         style="fill:#000000;fill-opacity:1;fill-rule:nonzero;stroke:none"
         id="path114"
         inkscape:connector-curvature="0" /><path
         d="m 236.453,391.09 c 0,2.043 -1.41,3.762 -3.265,3.762 -0.825,0 -1.563,-0.277 -2.18,-0.879 l 0,3.352 c 0.344,-0.102 0.91,-0.223 1.457,-0.223 2.113,0 3.316,1.562 3.316,1.785 0,0.106 -0.051,0.191 -0.172,0.191 -0.015,0 -0.05,0 -0.136,-0.054 -0.344,-0.153 -1.184,-0.496 -2.336,-0.496 -0.688,0 -1.477,0.117 -2.285,0.48 -0.137,0.051 -0.172,0.051 -0.207,0.051 -0.172,0 -0.172,-0.137 -0.172,-0.41 l 0,-5.086 c 0,-0.309 0,-0.445 0.242,-0.445 0.121,0 0.152,0.05 0.223,0.152 0.187,0.277 0.824,1.203 2.214,1.203 0.895,0 1.325,-0.789 1.461,-1.098 0.278,-0.636 0.309,-1.308 0.309,-2.164 0,-0.601 0,-1.633 -0.41,-2.355 -0.414,-0.668 -1.047,-1.117 -1.84,-1.117 -1.254,0 -2.231,0.91 -2.524,1.925 0.051,-0.019 0.102,-0.035 0.293,-0.035 0.567,0 0.86,0.43 0.86,0.844 0,0.41 -0.293,0.84 -0.86,0.84 -0.242,0 -0.843,-0.121 -0.843,-0.91 0,-1.477 1.187,-3.145 3.109,-3.145 1.992,0 3.746,1.649 3.746,3.832"
         style="fill:#000000;fill-opacity:1;fill-rule:nonzero;stroke:none"
         id="path116"
         inkscape:connector-curvature="0" /><path
         d="m 101.918,327.114 c 0,0.496 -0.41,0.91 -0.91,0.91 -0.496,0 -0.91,-0.414 -0.91,-0.91 0,-0.5 0.414,-0.911 0.91,-0.911 0.5,0 0.91,0.411 0.91,0.911"
         style="fill:#000000;fill-opacity:1;fill-rule:nonzero;stroke:none"
         id="path118"
         inkscape:connector-curvature="0" /><path
         d="m 109.707,331.664 0,-0.546 c 0,-4.024 -1.785,-4.813 -2.781,-4.813 -0.293,0 -1.219,0.035 -1.684,0.617 0.754,0 0.895,0.5 0.895,0.793 0,0.531 -0.414,0.789 -0.793,0.789 -0.274,0 -0.789,-0.152 -0.789,-0.824 0,-1.148 0.925,-1.855 2.386,-1.855 2.215,0 4.313,2.335 4.313,6.031 0,4.621 -1.977,5.789 -3.504,5.789 -0.945,0 -1.785,-0.313 -2.527,-1.082 -0.703,-0.774 -1.098,-1.496 -1.098,-2.785 0,-2.149 1.512,-3.828 3.434,-3.828 1.05,0 1.753,0.718 2.148,1.714 z m -2.129,-1.32 c -0.273,0 -1.066,0 -1.598,1.082 -0.308,0.637 -0.308,1.492 -0.308,2.336 0,0.926 0,1.734 0.359,2.367 0.465,0.864 1.117,1.086 1.719,1.086 0.789,0 1.355,-0.586 1.648,-1.359 0.207,-0.547 0.278,-1.629 0.278,-2.422 0,-1.426 -0.586,-3.09 -2.098,-3.09"
         style="fill:#000000;fill-opacity:1;fill-rule:nonzero;stroke:none"
         id="path120"
         inkscape:connector-curvature="0" /><path
         d="m 119.676,329.657 c 0,2.043 -1.406,3.761 -3.262,3.761 -0.824,0 -1.562,-0.277 -2.18,-0.879 l 0,3.352 c 0.344,-0.102 0.911,-0.223 1.457,-0.223 2.114,0 3.317,1.563 3.317,1.785 0,0.106 -0.051,0.192 -0.172,0.192 -0.016,0 -0.051,0 -0.137,-0.055 -0.344,-0.152 -1.183,-0.496 -2.336,-0.496 -0.687,0 -1.476,0.117 -2.285,0.481 -0.137,0.05 -0.172,0.05 -0.207,0.05 -0.172,0 -0.172,-0.136 -0.172,-0.41 l 0,-5.086 c 0,-0.308 0,-0.445 0.242,-0.445 0.121,0 0.153,0.051 0.223,0.152 0.188,0.278 0.824,1.203 2.215,1.203 0.894,0 1.324,-0.789 1.461,-1.097 0.277,-0.637 0.308,-1.309 0.308,-2.164 0,-0.602 0,-1.633 -0.41,-2.356 -0.414,-0.668 -1.047,-1.117 -1.84,-1.117 -1.253,0 -2.23,0.91 -2.523,1.926 0.051,-0.02 0.102,-0.035 0.293,-0.035 0.566,0 0.859,0.429 0.859,0.843 0,0.411 -0.293,0.84 -0.859,0.84 -0.242,0 -0.844,-0.121 -0.844,-0.91 0,-1.476 1.188,-3.144 3.11,-3.144 1.992,0 3.746,1.648 3.746,3.832"
         style="fill:#000000;fill-opacity:1;fill-rule:nonzero;stroke:none"
         id="path122"
         inkscape:connector-curvature="0" /><path
         d="m 150.406,326.692 c 0,0.5 -0.414,0.91 -0.91,0.91 -0.5,0 -0.91,-0.41 -0.91,-0.91 0,-0.496 0.41,-0.91 0.91,-0.91 0.496,0 0.91,0.414 0.91,0.91"
         style="fill:#000000;fill-opacity:1;fill-rule:nonzero;stroke:none"
         id="path124"
         inkscape:connector-curvature="0" /><path
         d="m 159.793,331.278 c 0,1.375 -0.086,2.75 -0.688,4.019 -0.789,1.653 -2.199,1.926 -2.921,1.926 -1.028,0 -2.286,-0.445 -2.989,-2.043 -0.547,-1.187 -0.636,-2.527 -0.636,-3.902 0,-1.285 0.07,-2.832 0.773,-4.137 0.742,-1.391 1.996,-1.734 2.836,-1.734 0.926,0 2.234,0.359 2.988,1.992 0.551,1.183 0.637,2.523 0.637,3.879 z m -3.625,-5.496 c -0.668,0 -1.684,0.429 -1.992,2.078 -0.188,1.031 -0.188,2.613 -0.188,3.625 0,1.101 0,2.234 0.137,3.16 0.324,2.047 1.613,2.199 2.043,2.199 0.566,0 1.699,-0.309 2.027,-2.008 0.172,-0.965 0.172,-2.269 0.172,-3.351 0,-1.289 0,-2.457 -0.187,-3.555 -0.258,-1.633 -1.239,-2.148 -2.012,-2.148"
         style="fill:#000000;fill-opacity:1;fill-rule:nonzero;stroke:none"
         id="path126"
         inkscape:connector-curvature="0" /><path
         d="m 168.164,329.235 c 0,2.043 -1.406,3.761 -3.262,3.761 -0.824,0 -1.562,-0.273 -2.183,-0.875 l 0,3.352 c 0.343,-0.105 0.91,-0.227 1.461,-0.227 2.113,0 3.316,1.563 3.316,1.789 0,0.102 -0.051,0.188 -0.172,0.188 -0.019,0 -0.051,0 -0.136,-0.051 -0.344,-0.156 -1.188,-0.5 -2.336,-0.5 -0.688,0 -1.481,0.121 -2.286,0.481 -0.136,0.054 -0.171,0.054 -0.207,0.054 -0.171,0 -0.171,-0.14 -0.171,-0.414 l 0,-5.086 c 0,-0.308 0,-0.445 0.242,-0.445 0.117,0 0.152,0.051 0.222,0.156 0.188,0.274 0.825,1.2 2.215,1.2 0.895,0 1.324,-0.79 1.461,-1.098 0.274,-0.637 0.309,-1.305 0.309,-2.164 0,-0.602 0,-1.633 -0.41,-2.352 -0.415,-0.672 -1.051,-1.117 -1.84,-1.117 -1.254,0 -2.235,0.91 -2.524,1.922 0.051,-0.016 0.102,-0.035 0.289,-0.035 0.567,0 0.86,0.429 0.86,0.844 0,0.414 -0.293,0.839 -0.86,0.839 -0.238,0 -0.84,-0.117 -0.84,-0.91 0,-1.476 1.184,-3.14 3.11,-3.14 1.992,0 3.742,1.648 3.742,3.828"
         style="fill:#000000;fill-opacity:1;fill-rule:nonzero;stroke:none"
         id="path128"
         inkscape:connector-curvature="0" /><path
         d="m 294.25,326.918 c 0,0.5 -0.41,0.91 -0.91,0.91 -0.496,0 -0.91,-0.41 -0.91,-0.91 0,-0.496 0.414,-0.91 0.91,-0.91 0.5,0 0.91,0.414 0.91,0.91"
         style="fill:#000000;fill-opacity:1;fill-rule:nonzero;stroke:none"
         id="path130"
         inkscape:connector-curvature="0" /><path
         d="m 302.043,331.469 0,-0.547 c 0,-4.019 -1.789,-4.808 -2.785,-4.808 -0.293,0 -1.219,0.031 -1.684,0.617 0.758,0 0.895,0.496 0.895,0.789 0,0.531 -0.414,0.789 -0.793,0.789 -0.274,0 -0.789,-0.152 -0.789,-0.82 0,-1.153 0.929,-1.86 2.386,-1.86 2.219,0 4.313,2.336 4.313,6.031 0,4.622 -1.977,5.79 -3.504,5.79 -0.945,0 -1.785,-0.309 -2.527,-1.082 -0.703,-0.774 -1.098,-1.497 -1.098,-2.786 0,-2.144 1.512,-3.828 3.438,-3.828 1.046,0 1.75,0.723 2.148,1.719 l 0,-0.004 z m -2.133,-1.32 c -0.273,0 -1.066,0 -1.598,1.082 -0.308,0.637 -0.308,1.496 -0.308,2.336 0,0.929 0,1.734 0.363,2.371 0.461,0.859 1.113,1.082 1.715,1.082 0.793,0 1.359,-0.582 1.648,-1.356 0.208,-0.55 0.278,-1.632 0.278,-2.421 0,-1.426 -0.586,-3.094 -2.098,-3.094"
         style="fill:#000000;fill-opacity:1;fill-rule:nonzero;stroke:none"
         id="path132"
         inkscape:connector-curvature="0" /><path
         d="m 312.012,329.461 c 0,2.043 -1.41,3.762 -3.266,3.762 -0.824,0 -1.562,-0.273 -2.18,-0.875 l 0,3.352 c 0.344,-0.106 0.911,-0.227 1.461,-0.227 2.11,0 3.313,1.562 3.313,1.789 0,0.102 -0.051,0.188 -0.172,0.188 -0.016,0 -0.051,0 -0.137,-0.051 -0.343,-0.156 -1.183,-0.5 -2.336,-0.5 -0.687,0 -1.476,0.121 -2.285,0.48 -0.137,0.051 -0.172,0.051 -0.203,0.051 -0.172,0 -0.172,-0.137 -0.172,-0.41 l 0,-5.086 c 0,-0.309 0,-0.445 0.238,-0.445 0.122,0 0.157,0.05 0.223,0.156 0.192,0.273 0.824,1.199 2.219,1.199 0.89,0 1.32,-0.789 1.457,-1.098 0.277,-0.636 0.312,-1.304 0.312,-2.164 0,-0.601 0,-1.632 -0.414,-2.351 -0.41,-0.672 -1.047,-1.117 -1.836,-1.117 -1.254,0 -2.234,0.91 -2.527,1.921 0.051,-0.015 0.105,-0.035 0.293,-0.035 0.566,0 0.859,0.43 0.859,0.844 0,0.41 -0.293,0.84 -0.859,0.84 -0.242,0 -0.844,-0.117 -0.844,-0.91 0,-1.477 1.188,-3.141 3.11,-3.141 1.996,0 3.746,1.649 3.746,3.828"
         style="fill:#000000;fill-opacity:1;fill-rule:nonzero;stroke:none"
         id="path134"
         inkscape:connector-curvature="0" /><path
         d="m 240.914,326.5 c 0,0.496 -0.41,0.91 -0.91,0.91 -0.496,0 -0.91,-0.414 -0.91,-0.91 0,-0.5 0.414,-0.91 0.91,-0.91 0.5,0 0.91,0.41 0.91,0.91"
         style="fill:#000000;fill-opacity:1;fill-rule:nonzero;stroke:none"
         id="path136"
         inkscape:connector-curvature="0" /><path
         d="m 250.301,331.086 c 0,1.371 -0.086,2.746 -0.688,4.02 -0.789,1.648 -2.195,1.922 -2.918,1.922 -1.031,0 -2.285,-0.446 -2.988,-2.043 -0.551,-1.184 -0.637,-2.524 -0.637,-3.899 0,-1.289 0.071,-2.836 0.774,-4.14 0.738,-1.391 1.992,-1.735 2.832,-1.735 0.929,0 2.234,0.36 2.992,1.992 0.547,1.188 0.633,2.524 0.633,3.883 z m -3.625,-5.496 c -0.668,0 -1.68,0.43 -1.992,2.078 -0.188,1.028 -0.188,2.61 -0.188,3.621 0,1.102 0,2.235 0.137,3.164 0.328,2.043 1.617,2.196 2.043,2.196 0.57,0 1.703,-0.309 2.027,-2.008 0.172,-0.961 0.172,-2.27 0.172,-3.352 0,-1.285 0,-2.453 -0.187,-3.554 -0.258,-1.629 -1.239,-2.145 -2.012,-2.145"
         style="fill:#000000;fill-opacity:1;fill-rule:nonzero;stroke:none"
         id="path138"
         inkscape:connector-curvature="0" /><path
         d="m 258.676,329.043 c 0,2.043 -1.41,3.762 -3.266,3.762 -0.824,0 -1.562,-0.277 -2.18,-0.879 l 0,3.352 c 0.344,-0.106 0.911,-0.223 1.461,-0.223 2.11,0 3.313,1.563 3.313,1.785 0,0.102 -0.051,0.188 -0.172,0.188 -0.016,0 -0.051,0 -0.137,-0.051 -0.343,-0.152 -1.183,-0.496 -2.336,-0.496 -0.687,0 -1.476,0.117 -2.285,0.48 -0.136,0.051 -0.172,0.051 -0.207,0.051 -0.168,0 -0.168,-0.137 -0.168,-0.414 l 0,-5.082 c 0,-0.309 0,-0.449 0.239,-0.449 0.121,0 0.156,0.054 0.222,0.156 0.192,0.273 0.824,1.203 2.219,1.203 0.891,0 1.32,-0.789 1.457,-1.101 0.277,-0.633 0.312,-1.305 0.312,-2.165 0,-0.601 0,-1.628 -0.414,-2.351 -0.41,-0.668 -1.046,-1.117 -1.836,-1.117 -1.253,0 -2.234,0.91 -2.527,1.926 0.051,-0.02 0.106,-0.036 0.293,-0.036 0.566,0 0.859,0.43 0.859,0.84 0,0.414 -0.293,0.844 -0.859,0.844 -0.242,0 -0.844,-0.121 -0.844,-0.91 0,-1.477 1.188,-3.145 3.11,-3.145 1.996,0 3.746,1.649 3.746,3.832"
         style="fill:#000000;fill-opacity:1;fill-rule:nonzero;stroke:none"
         id="path140"
         inkscape:connector-curvature="0" /><g
         id="g142"
         transform="translate(0,453.5433)"><path
           d="m 441.484,-58.23 0,-103.711"
           style="fill:none;stroke:#000000;stroke-width:1.60000002;stroke-linecap:butt;stroke-linejoin:miter;stroke-miterlimit:4;stroke-dasharray:none;stroke-opacity:1"
           id="path144"
           inkscape:connector-curvature="0" /></g><g
         id="g146"
         transform="translate(0,453.5433)"><path
           d="m 401.941,-81.543 171.43,0"
           style="fill:none;stroke:#000000;stroke-width:1.60000002;stroke-linecap:butt;stroke-linejoin:miter;stroke-miterlimit:4;stroke-dasharray:none;stroke-opacity:1"
           id="path148"
           inkscape:connector-curvature="0" /></g><g
         id="g150"
         transform="translate(0,453.5433)"><path
           d="m 402.516,-120.973 170.57,0"
           style="fill:none;stroke:#000000;stroke-width:1.60000002;stroke-linecap:butt;stroke-linejoin:miter;stroke-miterlimit:4;stroke-dasharray:none;stroke-opacity:1"
           id="path152"
           inkscape:connector-curvature="0" /></g><g
         id="g154"
         transform="translate(0,453.5433)"><path
           d="m 506.516,-58.801 0,-102.855"
           style="fill:none;stroke:#000000;stroke-width:1.60000002;stroke-linecap:butt;stroke-linejoin:miter;stroke-miterlimit:4;stroke-dasharray:none;stroke-opacity:1"
           id="path156"
           inkscape:connector-curvature="0" /></g><path
         d="m 19.734,304.684 c -0.168,-0.723 -0.211,-0.871 -1.144,-0.871 -0.254,0 -0.488,0 -0.488,-0.403 0,-0.167 0.105,-0.253 0.273,-0.253 0.574,0 1.187,0.062 1.781,0.062 0.703,0 1.422,-0.062 2.102,-0.062 0.105,0 0.383,0 0.383,0.425 0,0.231 -0.215,0.231 -0.512,0.231 -1.059,0 -1.059,0.148 -1.059,0.34 0,0.254 0.891,3.711 1.039,4.242 0.274,-0.613 0.868,-1.356 1.95,-1.356 2.461,0 5.113,3.094 5.113,6.211 0,1.993 -1.211,3.395 -2.82,3.395 -1.063,0 -2.082,-0.766 -2.782,-1.59 -0.211,1.145 -1.125,1.59 -1.906,1.59 -0.976,0 -1.379,-0.828 -1.57,-1.211 -0.383,-0.719 -0.656,-1.992 -0.656,-2.055 0,-0.215 0.21,-0.215 0.253,-0.215 0.211,0 0.231,0.024 0.36,0.493 0.359,1.503 0.785,2.519 1.547,2.519 0.363,0 0.66,-0.168 0.66,-0.973 0,-0.488 -0.063,-0.722 -0.149,-1.082 l -2.375,-9.437 z m 3.735,9.203 c 0.148,0.57 0.719,1.168 1.101,1.484 0.742,0.657 1.356,0.805 1.719,0.805 0.848,0 1.356,-0.742 1.356,-1.992 0,-1.254 -0.7,-3.691 -1.083,-4.496 -0.722,-1.485 -1.738,-2.184 -2.523,-2.184 -1.398,0 -1.676,1.758 -1.676,1.887 0,0.043 0,0.086 0.063,0.34 l 1.043,4.156"
         style="fill:#000000;fill-opacity:1;fill-rule:nonzero;stroke:none"
         id="path158"
         inkscape:connector-curvature="0" /><path
         d="m 36.43,302.18 c 0,0.063 0,0.105 -0.364,0.465 -2.648,2.672 -3.328,6.683 -3.328,9.926 0,3.691 0.805,7.379 3.414,10.031 0.278,0.254 0.278,0.297 0.278,0.359 0,0.153 -0.086,0.215 -0.215,0.215 -0.211,0 -2.117,-1.441 -3.371,-4.137 -1.082,-2.332 -1.336,-4.687 -1.336,-6.468 0,-1.653 0.234,-4.219 1.402,-6.618 1.27,-2.605 3.094,-3.984 3.309,-3.984 0.125,0 0.211,0.063 0.211,0.211"
         style="fill:#000000;fill-opacity:1;fill-rule:nonzero;stroke:none"
         id="path160"
         inkscape:connector-curvature="0" /><path
         d="m 65.012,316.43 c -0.379,0.785 -0.996,1.355 -1.95,1.355 -2.48,0 -5.109,-3.117 -5.109,-6.214 0,-1.993 1.168,-3.391 2.82,-3.391 0.426,0 1.485,0.082 2.758,1.59 0.168,-0.891 0.91,-1.59 1.93,-1.59 0.742,0 1.23,0.488 1.57,1.164 0.36,0.766 0.637,2.059 0.637,2.102 0,0.211 -0.191,0.211 -0.258,0.211 -0.211,0 -0.23,-0.086 -0.297,-0.383 -0.359,-1.379 -0.742,-2.629 -1.609,-2.629 -0.574,0 -0.637,0.551 -0.637,0.976 0,0.465 0.043,0.637 0.274,1.571 0.234,0.89 0.277,1.101 0.468,1.906 l 0.762,2.969 c 0.149,0.593 0.149,0.636 0.149,0.722 0,0.36 -0.254,0.571 -0.614,0.571 -0.508,0 -0.828,-0.465 -0.89,-0.934 l -0.004,0.004 z m -1.375,-5.496 c -0.11,-0.379 -0.11,-0.422 -0.426,-0.781 -0.934,-1.168 -1.801,-1.508 -2.395,-1.508 -1.062,0 -1.359,1.168 -1.359,1.992 0,1.063 0.68,3.672 1.168,4.645 0.656,1.253 1.613,2.039 2.461,2.039 1.379,0 1.676,-1.739 1.676,-1.868 0,-0.128 -0.043,-0.253 -0.063,-0.359 l -1.062,-4.16"
         style="fill:#000000;fill-opacity:1;fill-rule:nonzero;stroke:none"
         id="path162"
         inkscape:connector-curvature="0" /><path
         d="m 54.262,322.41 c 0,0.383 0,0.766 -0.426,0.766 -0.422,0 -0.422,-0.383 -0.422,-0.766 l 0,-19.679 c 0,-0.383 0,-0.762 0.422,-0.762 0.426,0 0.426,0.379 0.426,0.762 l 0,19.679"
         style="fill:#000000;fill-opacity:1;fill-rule:nonzero;stroke:none"
         id="path164"
         inkscape:connector-curvature="0" /><path
         d="m 42.945,321.754 c 0,0.02 0,0.235 -0.273,0.235 -0.488,0 -2.035,-0.172 -2.59,-0.215 -0.168,-0.02 -0.402,-0.039 -0.402,-0.422 0,-0.254 0.191,-0.254 0.511,-0.254 1.016,0 1.059,-0.148 1.059,-0.359 0,-0.153 -0.191,-0.871 -0.297,-1.317 l -1.738,-6.914 c -0.254,-1.058 -0.34,-1.398 -0.34,-2.14 0,-2.016 1.125,-3.333 2.695,-3.333 2.5,0 5.11,3.161 5.11,6.215 0,1.93 -1.125,3.391 -2.821,3.391 -0.976,0 -1.843,-0.613 -2.48,-1.27 l 1.566,6.383 z m -1.992,-8.015 c 0.129,0.464 0.129,0.507 0.32,0.742 1.039,1.379 1.993,1.695 2.543,1.695 0.762,0 1.336,-0.637 1.336,-1.992 0,-1.254 -0.699,-3.691 -1.082,-4.496 -0.699,-1.422 -1.672,-2.184 -2.5,-2.184 -0.722,0 -1.422,0.571 -1.422,2.141 0,0.402 0,0.805 0.34,2.14 l 0.465,1.954"
         style="fill:#000000;fill-opacity:1;fill-rule:nonzero;stroke:none"
         id="path166"
         inkscape:connector-curvature="0" /><path
         d="m 74.012,312.571 c 0,1.656 -0.231,4.222 -1.399,6.617 -1.273,2.609 -3.097,3.988 -3.308,3.988 -0.129,0 -0.211,-0.086 -0.211,-0.215 0,-0.062 0,-0.105 0.402,-0.488 2.078,-2.098 3.289,-5.469 3.289,-9.902 0,-3.625 -0.785,-7.36 -3.418,-10.032 -0.273,-0.254 -0.273,-0.296 -0.273,-0.359 0,-0.125 0.086,-0.211 0.211,-0.211 0.211,0 2.121,1.441 3.371,4.137 1.082,2.332 1.336,4.687 1.336,6.465"
         style="fill:#000000;fill-opacity:1;fill-rule:nonzero;stroke:none"
         id="path168"
         inkscape:connector-curvature="0" /><path
         d="m 473.676,429.368 c -0.168,-0.719 -0.211,-0.868 -1.145,-0.868 -0.254,0 -0.488,0 -0.488,-0.402 0,-0.172 0.105,-0.258 0.277,-0.258 0.571,0 1.188,0.067 1.782,0.067 0.699,0 1.418,-0.067 2.097,-0.067 0.106,0 0.383,0 0.383,0.426 0,0.234 -0.211,0.234 -0.508,0.234 -1.062,0 -1.062,0.149 -1.062,0.34 0,0.254 0.89,3.711 1.039,4.238 0.277,-0.613 0.871,-1.355 1.953,-1.355 2.457,0 5.109,3.098 5.109,6.215 0,1.992 -1.207,3.39 -2.82,3.39 -1.063,0 -2.078,-0.761 -2.777,-1.589 -0.215,1.144 -1.125,1.589 -1.911,1.589 -0.976,0 -1.378,-0.824 -1.57,-1.207 -0.383,-0.722 -0.656,-1.992 -0.656,-2.058 0,-0.211 0.211,-0.211 0.254,-0.211 0.211,0 0.234,0.019 0.359,0.488 0.363,1.504 0.785,2.524 1.551,2.524 0.359,0 0.656,-0.168 0.656,-0.977 0,-0.488 -0.062,-0.719 -0.148,-1.082 l -2.375,-9.434 0,-0.003 z m 3.734,9.203 c 0.149,0.574 0.719,1.168 1.102,1.484 0.742,0.66 1.359,0.809 1.718,0.809 0.848,0 1.356,-0.743 1.356,-1.996 0,-1.25 -0.699,-3.688 -1.082,-4.497 -0.719,-1.484 -1.738,-2.183 -2.524,-2.183 -1.398,0 -1.675,1.762 -1.675,1.89 0,0.04 0,0.082 0.066,0.336 l 1.039,4.157"
         style="fill:#000000;fill-opacity:1;fill-rule:nonzero;stroke:none"
         id="path170"
         inkscape:connector-curvature="0" /><path
         d="m 490.371,426.868 c 0,0.062 0,0.105 -0.359,0.464 -2.653,2.672 -3.328,6.68 -3.328,9.926 0,3.688 0.804,7.379 3.41,10.031 0.277,0.254 0.277,0.297 0.277,0.36 0,0.148 -0.086,0.211 -0.211,0.211 -0.215,0 -2.121,-1.442 -3.371,-4.133 -1.082,-2.336 -1.336,-4.688 -1.336,-6.469 0,-1.656 0.231,-4.223 1.399,-6.617 1.273,-2.609 3.093,-3.988 3.308,-3.988 0.129,0 0.211,0.066 0.211,0.211"
         style="fill:#000000;fill-opacity:1;fill-rule:nonzero;stroke:none"
         id="path172"
         inkscape:connector-curvature="0" /><path
         d="m 518.957,441.114 c -0.383,0.785 -0.996,1.359 -1.949,1.359 -2.485,0 -5.113,-3.117 -5.113,-6.215 0,-1.996 1.167,-3.394 2.82,-3.394 0.426,0 1.484,0.086 2.758,1.589 0.172,-0.89 0.914,-1.589 1.929,-1.589 0.743,0 1.231,0.488 1.571,1.168 0.359,0.761 0.636,2.054 0.636,2.097 0,0.215 -0.191,0.215 -0.254,0.215 -0.214,0 -0.234,-0.086 -0.296,-0.383 -0.364,-1.379 -0.743,-2.629 -1.614,-2.629 -0.574,0 -0.636,0.551 -0.636,0.973 0,0.469 0.043,0.637 0.277,1.57 0.23,0.891 0.273,1.102 0.465,1.91 l 0.765,2.969 c 0.149,0.594 0.149,0.637 0.149,0.719 0,0.363 -0.254,0.574 -0.617,0.574 -0.508,0 -0.828,-0.469 -0.891,-0.933 z m -1.379,-5.493 c -0.105,-0.382 -0.105,-0.421 -0.422,-0.785 -0.933,-1.164 -1.804,-1.504 -2.398,-1.504 -1.059,0 -1.356,1.164 -1.356,1.993 0,1.062 0.68,3.668 1.168,4.644 0.657,1.25 1.61,2.035 2.457,2.035 1.379,0 1.676,-1.738 1.676,-1.867 0,-0.125 -0.043,-0.254 -0.062,-0.359 l -1.063,-4.157"
         style="fill:#000000;fill-opacity:1;fill-rule:nonzero;stroke:none"
         id="path174"
         inkscape:connector-curvature="0" /><path
         d="m 496.891,446.442 c 0,0.019 0,0.23 -0.278,0.23 -0.488,0 -2.035,-0.168 -2.586,-0.211 -0.168,-0.019 -0.402,-0.043 -0.402,-0.426 0,-0.253 0.191,-0.253 0.508,-0.253 1.019,0 1.062,-0.149 1.062,-0.36 0,-0.148 -0.191,-0.871 -0.297,-1.316 l -1.742,-6.914 c -0.254,-1.059 -0.34,-1.399 -0.34,-2.141 0,-2.016 1.125,-3.328 2.696,-3.328 2.504,0 5.109,3.16 5.109,6.215 0,1.926 -1.121,3.39 -2.82,3.39 -0.977,0 -1.844,-0.613 -2.481,-1.273 l 1.571,6.383 0,0.004 z m -1.993,-8.02 c 0.125,0.469 0.125,0.512 0.317,0.742 1.039,1.379 1.992,1.7 2.543,1.7 0.765,0 1.34,-0.637 1.34,-1.996 0,-1.25 -0.703,-3.688 -1.082,-4.497 -0.704,-1.418 -1.676,-2.183 -2.504,-2.183 -0.719,0 -1.422,0.574 -1.422,2.14 0,0.407 0,0.809 0.34,2.145 l 0.468,1.949"
         style="fill:#000000;fill-opacity:1;fill-rule:nonzero;stroke:none"
         id="path176"
         inkscape:connector-curvature="0" /><path
         d="m 527.957,437.258 c 0,1.652 -0.234,4.219 -1.402,6.617 -1.27,2.606 -3.094,3.985 -3.309,3.985 -0.125,0 -0.211,-0.082 -0.211,-0.211 0,-0.063 0,-0.106 0.403,-0.489 2.078,-2.097 3.289,-5.472 3.289,-9.902 0,-3.629 -0.786,-7.359 -3.415,-10.031 -0.277,-0.254 -0.277,-0.297 -0.277,-0.359 0,-0.129 0.086,-0.215 0.211,-0.215 0.215,0 2.121,1.445 3.375,4.136 1.082,2.332 1.336,4.688 1.336,6.469"
         style="fill:#000000;fill-opacity:1;fill-rule:nonzero;stroke:none"
         id="path178"
         inkscape:connector-curvature="0" /><path
         d="m 29.906,394.512 c -0.172,-0.723 -0.211,-0.871 -1.144,-0.871 -0.254,0 -0.489,0 -0.489,-0.402 0,-0.168 0.106,-0.254 0.274,-0.254 0.574,0 1.187,0.062 1.781,0.062 0.703,0 1.422,-0.062 2.102,-0.062 0.105,0 0.379,0 0.379,0.425 0,0.231 -0.211,0.231 -0.508,0.231 -1.059,0 -1.059,0.148 -1.059,0.34 0,0.254 0.891,3.711 1.039,4.242 0.274,-0.613 0.867,-1.355 1.949,-1.355 2.461,0 5.114,3.093 5.114,6.21 0,1.997 -1.211,3.395 -2.824,3.395 -1.059,0 -2.079,-0.762 -2.778,-1.59 -0.211,1.145 -1.125,1.59 -1.906,1.59 -0.977,0 -1.379,-0.828 -1.57,-1.211 -0.383,-0.719 -0.657,-1.992 -0.657,-2.055 0,-0.211 0.211,-0.211 0.254,-0.211 0.211,0 0.231,0.02 0.36,0.489 0.359,1.504 0.785,2.523 1.547,2.523 0.363,0 0.66,-0.172 0.66,-0.976 0,-0.489 -0.067,-0.723 -0.149,-1.082 l -2.379,-9.438 0.004,0 z m 3.731,9.203 c 0.152,0.574 0.722,1.168 1.105,1.485 0.742,0.656 1.356,0.804 1.715,0.804 0.852,0 1.359,-0.742 1.359,-1.992 0,-1.25 -0.699,-3.691 -1.082,-4.496 -0.722,-1.484 -1.738,-2.184 -2.523,-2.184 -1.399,0 -1.676,1.762 -1.676,1.887 0,0.043 0,0.086 0.063,0.34 l 1.039,4.156"
         style="fill:#000000;fill-opacity:1;fill-rule:nonzero;stroke:none"
         id="path180"
         inkscape:connector-curvature="0" /><path
         d="m 46.602,392.008 c 0,0.067 0,0.106 -0.364,0.465 -2.648,2.672 -3.328,6.684 -3.328,9.926 0,3.691 0.805,7.383 3.414,10.031 0.278,0.254 0.278,0.297 0.278,0.363 0,0.149 -0.086,0.211 -0.215,0.211 -0.211,0 -2.121,-1.441 -3.371,-4.136 -1.082,-2.333 -1.336,-4.688 -1.336,-6.469 0,-1.653 0.234,-4.219 1.402,-6.617 1.27,-2.606 3.094,-3.985 3.305,-3.985 0.129,0 0.215,0.063 0.215,0.211"
         style="fill:#000000;fill-opacity:1;fill-rule:nonzero;stroke:none"
         id="path182"
         inkscape:connector-curvature="0" /><path
         d="m 55.984,406.258 c -0.379,0.785 -0.996,1.356 -1.949,1.356 -2.48,0 -5.113,-3.118 -5.113,-6.211 0,-1.996 1.168,-3.395 2.824,-3.395 0.422,0 1.484,0.086 2.754,1.59 0.172,-0.891 0.914,-1.59 1.93,-1.59 0.746,0 1.23,0.488 1.57,1.164 0.363,0.766 0.637,2.059 0.637,2.102 0,0.211 -0.192,0.211 -0.254,0.211 -0.211,0 -0.235,-0.086 -0.297,-0.383 -0.359,-1.375 -0.742,-2.629 -1.613,-2.629 -0.571,0 -0.633,0.551 -0.633,0.977 0,0.468 0.039,0.636 0.273,1.57 0.235,0.89 0.278,1.101 0.469,1.906 l 0.762,2.973 c 0.148,0.59 0.148,0.633 0.148,0.719 0,0.359 -0.254,0.574 -0.613,0.574 -0.512,0 -0.828,-0.469 -0.895,-0.934 z m -1.379,-5.492 c -0.105,-0.383 -0.105,-0.426 -0.421,-0.785 -0.934,-1.168 -1.805,-1.508 -2.399,-1.508 -1.058,0 -1.355,1.168 -1.355,1.996 0,1.059 0.679,3.668 1.168,4.645 0.656,1.25 1.609,2.035 2.461,2.035 1.375,0 1.675,-1.739 1.675,-1.867 0,-0.129 -0.043,-0.254 -0.066,-0.36 l -1.059,-4.156"
         style="fill:#000000;fill-opacity:1;fill-rule:nonzero;stroke:none"
         id="path184"
         inkscape:connector-curvature="0" /><path
         d="m 68.184,402.399 c 0,1.656 -0.235,4.222 -1.399,6.617 -1.273,2.609 -3.097,3.988 -3.308,3.988 -0.129,0 -0.211,-0.086 -0.211,-0.211 0,-0.066 0,-0.109 0.402,-0.488 2.078,-2.102 3.285,-5.473 3.285,-9.906 0,-3.625 -0.785,-7.36 -3.414,-10.031 -0.273,-0.254 -0.273,-0.293 -0.273,-0.36 0,-0.125 0.082,-0.211 0.211,-0.211 0.211,0 2.121,1.442 3.371,4.137 1.082,2.332 1.336,4.687 1.336,6.465"
         style="fill:#000000;fill-opacity:1;fill-rule:nonzero;stroke:none"
         id="path186"
         inkscape:connector-curvature="0" /><path
         d="m 508.645,412.391 c -0.309,0.637 -0.809,1.102 -1.583,1.102 -2.007,0 -4.14,-2.528 -4.14,-5.036 0,-1.613 0.945,-2.75 2.285,-2.75 0.344,0 1.203,0.071 2.234,1.289 0.137,-0.718 0.739,-1.289 1.563,-1.289 0.601,0 0.996,0.399 1.273,0.946 0.289,0.621 0.516,1.668 0.516,1.703 0,0.172 -0.156,0.172 -0.207,0.172 -0.172,0 -0.191,-0.071 -0.242,-0.313 -0.293,-1.113 -0.602,-2.129 -1.305,-2.129 -0.465,0 -0.516,0.446 -0.516,0.793 0,0.375 0.036,0.512 0.223,1.27 0.192,0.722 0.223,0.894 0.379,1.547 l 0.617,2.402 c 0.121,0.484 0.121,0.516 0.121,0.586 0,0.293 -0.207,0.465 -0.496,0.465 -0.414,0 -0.672,-0.379 -0.722,-0.758 z m -1.118,-4.449 c -0.086,-0.309 -0.086,-0.344 -0.343,-0.633 -0.758,-0.945 -1.461,-1.223 -1.942,-1.223 -0.859,0 -1.097,0.946 -1.097,1.617 0,0.86 0.546,2.969 0.945,3.762 0.531,1.012 1.305,1.649 1.992,1.649 1.117,0 1.356,-1.411 1.356,-1.512 0,-0.106 -0.036,-0.207 -0.051,-0.293 l -0.86,-3.367"
         style="fill:#000000;fill-opacity:1;fill-rule:nonzero;stroke:none"
         id="path188"
         inkscape:connector-curvature="0" /><path
         d="m 473.902,384.653 c 0,1.371 -0.086,2.746 -0.687,4.019 -0.789,1.649 -2.199,1.922 -2.922,1.922 -1.031,0 -2.285,-0.445 -2.988,-2.043 -0.547,-1.183 -0.637,-2.527 -0.637,-3.898 0,-1.289 0.07,-2.836 0.773,-4.141 0.743,-1.391 1.997,-1.734 2.836,-1.734 0.926,0 2.235,0.359 2.989,1.992 0.55,1.183 0.636,2.523 0.636,3.883 z m -3.625,-5.5 c -0.668,0 -1.683,0.429 -1.992,2.078 -0.191,1.031 -0.191,2.613 -0.191,3.625 0,1.101 0,2.234 0.14,3.16 0.325,2.047 1.614,2.199 2.043,2.199 0.567,0 1.7,-0.308 2.028,-2.008 0.172,-0.961 0.172,-2.269 0.172,-3.351 0,-1.289 0,-2.457 -0.188,-3.555 -0.258,-1.633 -1.238,-2.148 -2.012,-2.148"
         style="fill:#000000;fill-opacity:1;fill-rule:nonzero;stroke:none"
         id="path190"
         inkscape:connector-curvature="0" /><path
         d="m 538.402,390.532 c 0,0.41 0,0.445 -0.394,0.445 -1.067,-1.098 -2.578,-1.098 -3.129,-1.098 l 0,-0.535 c 0.344,0 1.355,0 2.25,0.449 l 0,-8.898 c 0,-0.621 -0.051,-0.824 -1.598,-0.824 l -0.547,0 0,-0.536 c 0.598,0.055 2.094,0.055 2.782,0.055 0.687,0 2.179,0 2.781,-0.055 l 0,0.536 -0.547,0 c -1.547,0 -1.598,0.187 -1.598,0.824 l 0,9.637"
         style="fill:#000000;fill-opacity:1;fill-rule:nonzero;stroke:none"
         id="path192"
         inkscape:connector-curvature="0" /><path
         d="m 422.246,352.535 c 0,1.375 -0.086,2.75 -0.687,4.02 -0.793,1.652 -2.2,1.926 -2.922,1.926 -1.032,0 -2.285,-0.446 -2.989,-2.043 -0.55,-1.188 -0.636,-2.528 -0.636,-3.903 0,-1.285 0.07,-2.832 0.773,-4.136 0.738,-1.391 1.992,-1.739 2.836,-1.739 0.926,0 2.231,0.364 2.988,1.997 0.551,1.183 0.637,2.523 0.637,3.878 z m -3.625,-5.496 c -0.672,0 -1.683,0.43 -1.992,2.079 -0.191,1.031 -0.191,2.613 -0.191,3.625 0,1.097 0,2.234 0.14,3.16 0.324,2.047 1.613,2.199 2.043,2.199 0.567,0 1.699,-0.309 2.027,-2.008 0.172,-0.965 0.172,-2.269 0.172,-3.351 0,-1.29 0,-2.458 -0.191,-3.555 -0.258,-1.633 -1.234,-2.149 -2.008,-2.149"
         style="fill:#000000;fill-opacity:1;fill-rule:nonzero;stroke:none"
         id="path194"
         inkscape:connector-curvature="0" /><path
         d="m 419.543,317.844 c 0,0.414 0,0.449 -0.395,0.449 -1.066,-1.101 -2.578,-1.101 -3.125,-1.101 l 0,-0.532 c 0.344,0 1.356,0 2.25,0.446 l 0,-8.899 c 0,-0.617 -0.05,-0.824 -1.597,-0.824 l -0.551,0 0,-0.531 c 0.602,0.051 2.098,0.051 2.785,0.051 0.688,0 2.18,0 2.781,-0.051 l 0,0.531 -0.55,0 c -1.543,0 -1.598,0.192 -1.598,0.824 l 0,9.637"
         style="fill:#000000;fill-opacity:1;fill-rule:nonzero;stroke:none"
         id="path196"
         inkscape:connector-curvature="0" /><path
         d="m 375.598,347.243 c 0,0.019 0,0.234 -0.274,0.234 -0.488,0 -2.039,-0.172 -2.59,-0.215 -0.168,-0.019 -0.402,-0.039 -0.402,-0.422 0,-0.254 0.191,-0.254 0.508,-0.254 1.019,0 1.062,-0.152 1.062,-0.363 0,-0.148 -0.191,-0.867 -0.297,-1.313 l -1.738,-6.914 c -0.254,-1.058 -0.34,-1.398 -0.34,-2.14 0,-2.016 1.125,-3.332 2.692,-3.332 2.504,0 5.113,3.16 5.113,6.215 0,1.929 -1.125,3.39 -2.82,3.39 -0.977,0 -1.848,-0.613 -2.485,-1.269 l 1.571,6.383 z m -1.993,-8.016 c 0.125,0.465 0.125,0.508 0.317,0.742 1.039,1.379 1.996,1.695 2.547,1.695 0.761,0 1.336,-0.636 1.336,-1.992 0,-1.254 -0.703,-3.691 -1.082,-4.496 -0.7,-1.422 -1.676,-2.183 -2.504,-2.183 -0.719,0 -1.422,0.57 -1.422,2.14 0,0.402 0,0.805 0.34,2.141 l 0.468,1.953"
         style="fill:#000000;fill-opacity:1;fill-rule:nonzero;stroke:none"
         id="path198"
         inkscape:connector-curvature="0" /><text
         transform="matrix(1,0,0,-1,503.16742,431.54284)"
         style="font-variant:normal;font-weight:normal;font-size:15.99999905px;font-family:'Bitstream Vera Sans';-inkscape-font-specification:BitstreamVeraSans-Roman;writing-mode:lr-tb;fill:#000000;fill-opacity:1;fill-rule:nonzero;stroke:none"
         id="text200"><tspan
           x="0"
           y="0"
           id="tspan202">,</tspan></text>
<path
         d="m 451.109,347.27 c 0,0.449 -0.371,0.82 -0.816,0.82 -0.449,0 -0.82,-0.371 -0.82,-0.82 0,-0.449 0.371,-0.82 0.82,-0.82 0.445,0 0.816,0.371 0.816,0.82"
         style="fill:#000000;fill-opacity:1;fill-rule:nonzero;stroke:none"
         id="path204"
         inkscape:connector-curvature="0" /><path
         d="m 458.121,351.368 0,-0.497 c 0,-3.617 -1.609,-4.328 -2.504,-4.328 -0.262,0 -1.097,0.032 -1.515,0.555 0.679,0 0.804,0.449 0.804,0.715 0,0.476 -0.371,0.711 -0.711,0.711 -0.246,0 -0.711,-0.141 -0.711,-0.742 0,-1.036 0.832,-1.672 2.149,-1.672 1.992,0 3.879,2.101 3.879,5.425 0,4.161 -1.778,5.211 -3.153,5.211 -0.851,0 -1.609,-0.277 -2.273,-0.972 -0.633,-0.696 -0.988,-1.348 -0.988,-2.504 0,-1.934 1.359,-3.449 3.09,-3.449 0.945,0 1.578,0.648 1.933,1.547 z m -1.918,-1.192 c -0.246,0 -0.957,0 -1.437,0.973 -0.278,0.574 -0.278,1.347 -0.278,2.105 0,0.832 0,1.559 0.324,2.133 0.418,0.773 1.004,0.973 1.547,0.973 0.711,0 1.223,-0.524 1.485,-1.219 0.183,-0.496 0.246,-1.469 0.246,-2.18 0,-1.285 -0.524,-2.785 -1.887,-2.785"
         style="fill:#000000;fill-opacity:1;fill-rule:nonzero;stroke:none"
         id="path206"
         inkscape:connector-curvature="0" /><path
         d="m 467.094,349.559 c 0,1.84 -1.266,3.387 -2.938,3.387 -0.742,0 -1.406,-0.25 -1.961,-0.789 l 0,3.015 c 0.309,-0.094 0.817,-0.203 1.313,-0.203 1.902,0 2.984,1.406 2.984,1.609 0,0.09 -0.047,0.168 -0.156,0.168 -0.016,0 -0.047,0 -0.121,-0.046 -0.313,-0.137 -1.067,-0.45 -2.106,-0.45 -0.617,0 -1.328,0.11 -2.054,0.434 -0.125,0.047 -0.157,0.047 -0.184,0.047 -0.156,0 -0.156,-0.125 -0.156,-0.371 l 0,-4.575 c 0,-0.281 0,-0.402 0.215,-0.402 0.109,0 0.14,0.047 0.203,0.137 0.168,0.25 0.742,1.082 1.992,1.082 0.805,0 1.191,-0.711 1.316,-0.988 0.247,-0.571 0.278,-1.176 0.278,-1.946 0,-0.543 0,-1.468 -0.371,-2.121 -0.371,-0.601 -0.942,-1.004 -1.653,-1.004 -1.129,0 -2.011,0.821 -2.273,1.731 0.047,-0.016 0.094,-0.031 0.262,-0.031 0.511,0 0.773,0.386 0.773,0.757 0,0.371 -0.262,0.758 -0.773,0.758 -0.215,0 -0.758,-0.105 -0.758,-0.816 0,-1.332 1.066,-2.832 2.801,-2.832 1.793,0 3.367,1.484 3.367,3.449"
         style="fill:#000000;fill-opacity:1;fill-rule:nonzero;stroke:none"
         id="path208"
         inkscape:connector-curvature="0" /><path
         d="m 477.316,350.746 -3.093,3.079 c -0.184,0.187 -0.215,0.214 -0.34,0.214 -0.153,0 -0.309,-0.136 -0.309,-0.308 0,-0.11 0.031,-0.137 0.203,-0.309 l 3.09,-3.109 -3.09,-3.106 c -0.172,-0.172 -0.203,-0.203 -0.203,-0.308 0,-0.172 0.156,-0.309 0.309,-0.309 0.125,0 0.156,0.031 0.34,0.215 l 3.078,3.078 3.199,-3.203 c 0.031,-0.012 0.141,-0.09 0.23,-0.09 0.188,0 0.313,0.137 0.313,0.309 0,0.031 0,0.094 -0.047,0.168 -0.016,0.031 -2.476,2.461 -3.246,3.246 l 2.828,2.832 c 0.078,0.09 0.309,0.293 0.387,0.387 0.015,0.031 0.078,0.089 0.078,0.199 0,0.172 -0.125,0.308 -0.313,0.308 -0.121,0 -0.183,-0.062 -0.355,-0.23 l -3.059,-3.063"
         style="fill:#000000;fill-opacity:1;fill-rule:nonzero;stroke:none"
         id="path210"
         inkscape:connector-curvature="0" /><path
         d="m 448.824,309.668 c 0,0.45 -0.371,0.821 -0.816,0.821 -0.449,0 -0.82,-0.371 -0.82,-0.821 0,-0.445 0.371,-0.816 0.82,-0.816 0.445,0 0.816,0.371 0.816,0.816"
         style="fill:#000000;fill-opacity:1;fill-rule:nonzero;stroke:none"
         id="path212"
         inkscape:connector-curvature="0" /><path
         d="m 455.836,313.766 0,-0.492 c 0,-3.621 -1.609,-4.332 -2.504,-4.332 -0.266,0 -1.098,0.031 -1.516,0.558 0.68,0 0.805,0.45 0.805,0.711 0,0.481 -0.371,0.711 -0.711,0.711 -0.25,0 -0.711,-0.14 -0.711,-0.742 0,-1.035 0.832,-1.668 2.149,-1.668 1.992,0 3.879,2.102 3.879,5.426 0,4.156 -1.778,5.207 -3.153,5.207 -0.851,0 -1.609,-0.277 -2.273,-0.973 -0.633,-0.695 -0.992,-1.344 -0.992,-2.504 0,-1.933 1.363,-3.449 3.093,-3.449 0.946,0 1.578,0.652 1.934,1.547 z m -1.918,-1.191 c -0.246,0 -0.957,0 -1.438,0.976 -0.277,0.57 -0.277,1.344 -0.277,2.102 0,0.836 0,1.562 0.324,2.132 0.418,0.774 1.004,0.977 1.547,0.977 0.711,0 1.223,-0.527 1.485,-1.223 0.183,-0.496 0.246,-1.468 0.246,-2.179 0,-1.285 -0.528,-2.785 -1.887,-2.785"
         style="fill:#000000;fill-opacity:1;fill-rule:nonzero;stroke:none"
         id="path214"
         inkscape:connector-curvature="0" /><path
         d="m 464.809,311.957 c 0,1.84 -1.266,3.387 -2.938,3.387 -0.742,0 -1.406,-0.246 -1.965,-0.789 l 0,3.016 c 0.313,-0.094 0.821,-0.203 1.317,-0.203 1.902,0 2.984,1.406 2.984,1.609 0,0.094 -0.047,0.168 -0.156,0.168 -0.016,0 -0.047,0 -0.125,-0.043 -0.309,-0.141 -1.067,-0.449 -2.102,-0.449 -0.617,0 -1.328,0.105 -2.054,0.433 -0.125,0.043 -0.157,0.043 -0.188,0.043 -0.152,0 -0.152,-0.121 -0.152,-0.367 l 0,-4.578 c 0,-0.277 0,-0.402 0.215,-0.402 0.109,0 0.14,0.046 0.203,0.14 0.168,0.246 0.742,1.082 1.992,1.082 0.805,0 1.191,-0.711 1.316,-0.988 0.246,-0.574 0.278,-1.176 0.278,-1.949 0,-0.543 0,-1.469 -0.372,-2.117 -0.371,-0.606 -0.941,-1.004 -1.652,-1.004 -1.129,0 -2.012,0.816 -2.273,1.73 0.047,-0.016 0.093,-0.031 0.261,-0.031 0.512,0 0.774,0.387 0.774,0.758 0,0.371 -0.262,0.757 -0.774,0.757 -0.214,0 -0.757,-0.109 -0.757,-0.82 0,-1.328 1.066,-2.828 2.8,-2.828 1.793,0 3.368,1.484 3.368,3.445"
         style="fill:#000000;fill-opacity:1;fill-rule:nonzero;stroke:none"
         id="path216"
         inkscape:connector-curvature="0" /><path
         d="m 475.031,313.149 -3.093,3.074 c -0.184,0.187 -0.215,0.219 -0.34,0.219 -0.153,0 -0.309,-0.141 -0.309,-0.309 0,-0.109 0.031,-0.14 0.199,-0.312 l 3.094,-3.106 -3.094,-3.109 c -0.168,-0.168 -0.199,-0.199 -0.199,-0.309 0,-0.168 0.152,-0.308 0.309,-0.308 0.125,0 0.156,0.031 0.34,0.218 l 3.078,3.075 3.199,-3.2 c 0.031,-0.015 0.14,-0.093 0.23,-0.093 0.188,0 0.313,0.14 0.313,0.308 0,0.031 0,0.094 -0.047,0.172 -0.016,0.031 -2.477,2.457 -3.246,3.246 l 2.828,2.828 c 0.078,0.094 0.309,0.293 0.387,0.387 0.015,0.031 0.078,0.094 0.078,0.203 0,0.168 -0.125,0.309 -0.313,0.309 -0.121,0 -0.183,-0.063 -0.355,-0.235 l -3.059,-3.058"
         style="fill:#000000;fill-opacity:1;fill-rule:nonzero;stroke:none"
         id="path218"
         inkscape:connector-curvature="0" /><path
         d="m 513.281,346.7 c 0,0.445 -0.371,0.816 -0.816,0.816 -0.449,0 -0.82,-0.371 -0.82,-0.816 0,-0.45 0.371,-0.821 0.82,-0.821 0.445,0 0.816,0.371 0.816,0.821"
         style="fill:#000000;fill-opacity:1;fill-rule:nonzero;stroke:none"
         id="path220"
         inkscape:connector-curvature="0" /><path
         d="m 521.73,350.825 c 0,1.238 -0.078,2.476 -0.617,3.621 -0.711,1.48 -1.98,1.73 -2.629,1.73 -0.929,0 -2.058,-0.402 -2.691,-1.84 -0.492,-1.066 -0.57,-2.273 -0.57,-3.511 0,-1.157 0.062,-2.547 0.695,-3.723 0.664,-1.254 1.793,-1.563 2.551,-1.563 0.836,0 2.008,0.325 2.691,1.793 0.492,1.067 0.57,2.274 0.57,3.493 z m -3.261,-4.946 c -0.602,0 -1.516,0.387 -1.793,1.871 -0.172,0.926 -0.172,2.348 -0.172,3.262 0,0.988 0,2.008 0.125,2.844 0.293,1.84 1.453,1.98 1.84,1.98 0.511,0 1.531,-0.277 1.824,-1.808 0.152,-0.868 0.152,-2.043 0.152,-3.016 0,-1.16 0,-2.211 -0.168,-3.199 -0.23,-1.469 -1.113,-1.934 -1.808,-1.934"
         style="fill:#000000;fill-opacity:1;fill-rule:nonzero;stroke:none"
         id="path222"
         inkscape:connector-curvature="0" /><path
         d="m 529.266,348.985 c 0,1.84 -1.266,3.386 -2.938,3.386 -0.742,0 -1.406,-0.246 -1.965,-0.789 l 0,3.016 c 0.313,-0.094 0.821,-0.199 1.317,-0.199 1.902,0 2.984,1.406 2.984,1.605 0,0.094 -0.047,0.172 -0.156,0.172 -0.016,0 -0.047,0 -0.121,-0.047 -0.313,-0.14 -1.071,-0.449 -2.106,-0.449 -0.617,0 -1.328,0.109 -2.054,0.434 -0.125,0.046 -0.157,0.046 -0.188,0.046 -0.152,0 -0.152,-0.125 -0.152,-0.371 l 0,-4.578 c 0,-0.277 0,-0.402 0.215,-0.402 0.109,0 0.14,0.047 0.203,0.141 0.168,0.246 0.742,1.082 1.992,1.082 0.805,0 1.191,-0.711 1.316,-0.989 0.246,-0.57 0.278,-1.175 0.278,-1.949 0,-0.539 0,-1.469 -0.371,-2.117 -0.372,-0.602 -0.942,-1.004 -1.653,-1.004 -1.129,0 -2.012,0.82 -2.273,1.73 0.047,-0.015 0.094,-0.031 0.261,-0.031 0.512,0 0.774,0.387 0.774,0.758 0,0.371 -0.262,0.758 -0.774,0.758 -0.214,0 -0.757,-0.11 -0.757,-0.82 0,-1.329 1.066,-2.829 2.8,-2.829 1.793,0 3.368,1.485 3.368,3.45"
         style="fill:#000000;fill-opacity:1;fill-rule:nonzero;stroke:none"
         id="path224"
         inkscape:connector-curvature="0" /><path
         d="m 539.488,350.176 -3.093,3.078 c -0.184,0.184 -0.215,0.215 -0.34,0.215 -0.153,0 -0.309,-0.137 -0.309,-0.309 0,-0.109 0.031,-0.14 0.199,-0.308 l 3.094,-3.109 -3.094,-3.106 c -0.168,-0.172 -0.199,-0.203 -0.199,-0.309 0,-0.171 0.152,-0.312 0.309,-0.312 0.125,0 0.156,0.031 0.34,0.219 l 3.078,3.074 3.199,-3.199 c 0.031,-0.016 0.14,-0.094 0.23,-0.094 0.188,0 0.313,0.141 0.313,0.312 0,0.032 0,0.09 -0.047,0.168 -0.016,0.032 -2.477,2.457 -3.246,3.247 l 2.828,2.832 c 0.078,0.089 0.309,0.293 0.387,0.382 0.015,0.032 0.078,0.094 0.078,0.203 0,0.168 -0.125,0.309 -0.313,0.309 -0.121,0 -0.183,-0.062 -0.355,-0.23 l -3.059,-3.063"
         style="fill:#000000;fill-opacity:1;fill-rule:nonzero;stroke:none"
         id="path226"
         inkscape:connector-curvature="0" /><path
         d="m 512.141,308.985 c 0,0.449 -0.371,0.816 -0.821,0.816 -0.449,0 -0.82,-0.367 -0.82,-0.816 0,-0.45 0.371,-0.821 0.82,-0.821 0.45,0 0.821,0.371 0.821,0.821"
         style="fill:#000000;fill-opacity:1;fill-rule:nonzero;stroke:none"
         id="path228"
         inkscape:connector-curvature="0" /><path
         d="m 520.586,313.11 c 0,1.238 -0.074,2.476 -0.617,3.621 -0.711,1.484 -1.977,1.73 -2.629,1.73 -0.926,0 -2.055,-0.402 -2.688,-1.84 -0.496,-1.066 -0.574,-2.273 -0.574,-3.507 0,-1.161 0.063,-2.551 0.695,-3.727 0.665,-1.254 1.793,-1.562 2.551,-1.562 0.836,0 2.012,0.324 2.692,1.793 0.496,1.066 0.57,2.273 0.57,3.496 l 0,-0.004 z m -3.262,-4.946 c -0.601,0 -1.515,0.387 -1.793,1.871 -0.168,0.926 -0.168,2.348 -0.168,3.262 0,0.988 0,2.012 0.121,2.844 0.297,1.84 1.457,1.98 1.84,1.98 0.512,0 1.531,-0.277 1.824,-1.808 0.157,-0.867 0.157,-2.043 0.157,-3.016 0,-1.16 0,-2.211 -0.172,-3.199 -0.231,-1.469 -1.113,-1.934 -1.809,-1.934"
         style="fill:#000000;fill-opacity:1;fill-rule:nonzero;stroke:none"
         id="path230"
         inkscape:connector-curvature="0" /><path
         d="m 528.121,311.274 c 0,1.836 -1.266,3.383 -2.933,3.383 -0.743,0 -1.411,-0.247 -1.965,-0.789 l 0,3.015 c 0.308,-0.09 0.82,-0.199 1.312,-0.199 1.903,0 2.985,1.406 2.985,1.605 0,0.094 -0.047,0.172 -0.153,0.172 -0.015,0 -0.047,0 -0.125,-0.047 -0.308,-0.14 -1.066,-0.449 -2.101,-0.449 -0.621,0 -1.332,0.11 -2.059,0.434 -0.121,0.047 -0.152,0.047 -0.184,0.047 -0.156,0 -0.156,-0.125 -0.156,-0.371 l 0,-4.575 c 0,-0.281 0,-0.402 0.219,-0.402 0.105,0 0.137,0.047 0.199,0.137 0.172,0.25 0.742,1.082 1.996,1.082 0.801,0 1.192,-0.711 1.313,-0.989 0.25,-0.57 0.277,-1.175 0.277,-1.949 0,-0.539 0,-1.469 -0.371,-2.117 -0.371,-0.602 -0.941,-1.004 -1.652,-1.004 -1.129,0 -2.008,0.82 -2.274,1.731 0.047,-0.016 0.094,-0.032 0.266,-0.032 0.508,0 0.769,0.387 0.769,0.758 0,0.371 -0.261,0.758 -0.769,0.758 -0.219,0 -0.762,-0.109 -0.762,-0.82 0,-1.328 1.07,-2.828 2.801,-2.828 1.793,0 3.371,1.484 3.371,3.449"
         style="fill:#000000;fill-opacity:1;fill-rule:nonzero;stroke:none"
         id="path232"
         inkscape:connector-curvature="0" /><path
         d="m 538.344,312.461 -3.09,3.078 c -0.188,0.184 -0.219,0.215 -0.34,0.215 -0.156,0 -0.312,-0.136 -0.312,-0.308 0,-0.11 0.031,-0.137 0.203,-0.309 l 3.09,-3.109 -3.09,-3.106 c -0.172,-0.172 -0.203,-0.203 -0.203,-0.308 0,-0.172 0.156,-0.309 0.312,-0.309 0.121,0 0.152,0.027 0.34,0.215 l 3.074,3.078 3.199,-3.203 c 0.032,-0.016 0.141,-0.09 0.235,-0.09 0.183,0 0.308,0.137 0.308,0.309 0,0.031 0,0.089 -0.047,0.168 -0.015,0.031 -2.472,2.461 -3.246,3.246 l 2.828,2.832 c 0.079,0.09 0.309,0.293 0.387,0.383 0.016,0.031 0.078,0.093 0.078,0.203 0,0.172 -0.125,0.308 -0.308,0.308 -0.125,0 -0.188,-0.062 -0.356,-0.23 l -3.062,-3.063"
         style="fill:#000000;fill-opacity:1;fill-rule:nonzero;stroke:none"
         id="path234"
         inkscape:connector-curvature="0" /><path
         d="m 549.398,308.414 c 0,0.446 -0.371,0.817 -0.82,0.817 -0.449,0 -0.816,-0.371 -0.816,-0.817 0,-0.449 0.367,-0.82 0.816,-0.82 0.449,0 0.82,0.371 0.82,0.82"
         style="fill:#000000;fill-opacity:1;fill-rule:nonzero;stroke:none"
         id="path236"
         inkscape:connector-curvature="0" /><path
         d="m 556.41,312.508 0,-0.492 c 0,-3.617 -1.609,-4.328 -2.508,-4.328 -0.261,0 -1.097,0.031 -1.511,0.555 0.679,0 0.804,0.449 0.804,0.71 0,0.481 -0.371,0.711 -0.715,0.711 -0.246,0 -0.71,-0.136 -0.71,-0.742 0,-1.035 0.835,-1.668 2.148,-1.668 1.996,0 3.883,2.102 3.883,5.426 0,4.16 -1.778,5.211 -3.156,5.211 -0.848,0 -1.606,-0.281 -2.27,-0.977 -0.637,-0.695 -0.992,-1.343 -0.992,-2.504 0,-1.933 1.363,-3.445 3.094,-3.445 0.941,0 1.578,0.649 1.933,1.543 z m -1.918,-1.187 c -0.246,0 -0.961,0 -1.437,0.972 -0.278,0.575 -0.278,1.344 -0.278,2.102 0,0.836 0,1.562 0.325,2.133 0.418,0.773 1.003,0.976 1.546,0.976 0.711,0 1.219,-0.527 1.485,-1.222 0.183,-0.497 0.246,-1.469 0.246,-2.18 0,-1.281 -0.527,-2.781 -1.887,-2.781"
         style="fill:#000000;fill-opacity:1;fill-rule:nonzero;stroke:none"
         id="path238"
         inkscape:connector-curvature="0" /><path
         d="m 565.383,310.7 c 0,1.839 -1.27,3.386 -2.938,3.386 -0.742,0 -1.406,-0.246 -1.965,-0.789 l 0,3.016 c 0.309,-0.094 0.821,-0.199 1.317,-0.199 1.898,0 2.98,1.406 2.98,1.605 0,0.094 -0.043,0.172 -0.152,0.172 -0.016,0 -0.047,0 -0.125,-0.047 -0.309,-0.141 -1.066,-0.449 -2.102,-0.449 -0.617,0 -1.328,0.109 -2.054,0.433 -0.125,0.047 -0.156,0.047 -0.188,0.047 -0.152,0 -0.152,-0.125 -0.152,-0.371 l 0,-4.578 c 0,-0.277 0,-0.402 0.215,-0.402 0.109,0 0.14,0.047 0.199,0.14 0.172,0.246 0.742,1.082 1.996,1.082 0.805,0 1.191,-0.711 1.313,-0.988 0.25,-0.574 0.281,-1.176 0.281,-1.949 0,-0.543 0,-1.469 -0.371,-2.117 -0.371,-0.602 -0.946,-1.004 -1.657,-1.004 -1.128,0 -2.007,0.816 -2.269,1.73 0.043,-0.015 0.09,-0.031 0.262,-0.031 0.507,0 0.773,0.387 0.773,0.758 0,0.371 -0.266,0.758 -0.773,0.758 -0.219,0 -0.758,-0.11 -0.758,-0.821 0,-1.328 1.066,-2.828 2.797,-2.828 1.793,0 3.371,1.485 3.371,3.446"
         style="fill:#000000;fill-opacity:1;fill-rule:nonzero;stroke:none"
         id="path240"
         inkscape:connector-curvature="0" /><path
         d="m 484.941,309.098 c 0,0.449 -0.371,0.82 -0.82,0.82 -0.449,0 -0.816,-0.371 -0.816,-0.82 0,-0.449 0.367,-0.82 0.816,-0.82 0.449,0 0.82,0.371 0.82,0.82"
         style="fill:#000000;fill-opacity:1;fill-rule:nonzero;stroke:none"
         id="path242"
         inkscape:connector-curvature="0" /><path
         d="m 493.391,313.227 c 0,1.234 -0.079,2.473 -0.621,3.617 -0.711,1.484 -1.977,1.731 -2.625,1.731 -0.93,0 -2.059,-0.403 -2.692,-1.84 -0.496,-1.067 -0.574,-2.274 -0.574,-3.508 0,-1.16 0.062,-2.551 0.699,-3.727 0.664,-1.254 1.793,-1.562 2.551,-1.562 0.832,0 2.008,0.324 2.687,1.793 0.496,1.07 0.575,2.273 0.575,3.496 z m -3.262,-4.949 c -0.606,0 -1.516,0.386 -1.797,1.871 -0.168,0.929 -0.168,2.351 -0.168,3.261 0,0.989 0,2.012 0.125,2.844 0.293,1.844 1.453,1.981 1.84,1.981 0.508,0 1.527,-0.278 1.824,-1.809 0.152,-0.867 0.152,-2.039 0.152,-3.016 0,-1.16 0,-2.21 -0.167,-3.199 -0.235,-1.468 -1.114,-1.933 -1.809,-1.933"
         style="fill:#000000;fill-opacity:1;fill-rule:nonzero;stroke:none"
         id="path244"
         inkscape:connector-curvature="0" /><path
         d="m 500.926,311.387 c 0,1.84 -1.27,3.387 -2.938,3.387 -0.742,0 -1.406,-0.25 -1.965,-0.789 l 0,3.015 c 0.309,-0.093 0.821,-0.203 1.317,-0.203 1.898,0 2.98,1.406 2.98,1.61 0,0.089 -0.043,0.168 -0.152,0.168 -0.016,0 -0.047,0 -0.125,-0.047 -0.309,-0.137 -1.066,-0.446 -2.102,-0.446 -0.617,0 -1.328,0.106 -2.054,0.43 -0.125,0.047 -0.157,0.047 -0.188,0.047 -0.152,0 -0.152,-0.121 -0.152,-0.371 l 0,-4.574 c 0,-0.278 0,-0.403 0.215,-0.403 0.109,0 0.14,0.047 0.199,0.137 0.172,0.25 0.742,1.086 1.996,1.086 0.805,0 1.191,-0.715 1.313,-0.992 0.25,-0.571 0.281,-1.176 0.281,-1.946 0,-0.543 0,-1.468 -0.371,-2.121 -0.371,-0.601 -0.946,-1.004 -1.657,-1.004 -1.128,0 -2.007,0.821 -2.269,1.731 0.043,-0.012 0.09,-0.027 0.262,-0.027 0.507,0 0.773,0.382 0.773,0.757 0,0.368 -0.266,0.754 -0.773,0.754 -0.219,0 -0.758,-0.105 -0.758,-0.816 0,-1.332 1.066,-2.832 2.797,-2.832 1.793,0 3.371,1.484 3.371,3.449"
         style="fill:#000000;fill-opacity:1;fill-rule:nonzero;stroke:none"
         id="path246"
         inkscape:connector-curvature="0" /><path
         d="m 551.113,346.125 c 0,0.45 -0.371,0.821 -0.82,0.821 -0.449,0 -0.82,-0.371 -0.82,-0.821 0,-0.445 0.371,-0.816 0.82,-0.816 0.449,0 0.82,0.371 0.82,0.816"
         style="fill:#000000;fill-opacity:1;fill-rule:nonzero;stroke:none"
         id="path248"
         inkscape:connector-curvature="0" /><path
         d="m 559.562,350.254 c 0,1.239 -0.078,2.473 -0.621,3.617 -0.711,1.485 -1.976,1.735 -2.629,1.735 -0.925,0 -2.054,-0.403 -2.687,-1.84 -0.496,-1.066 -0.574,-2.273 -0.574,-3.512 0,-1.16 0.062,-2.551 0.699,-3.726 0.664,-1.25 1.793,-1.559 2.547,-1.559 0.836,0 2.012,0.324 2.691,1.793 0.496,1.066 0.574,2.27 0.574,3.492 z m -3.265,-4.945 c -0.602,0 -1.512,0.387 -1.793,1.867 -0.168,0.93 -0.168,2.352 -0.168,3.266 0,0.988 0,2.008 0.125,2.843 0.293,1.84 1.453,1.977 1.836,1.977 0.512,0 1.531,-0.277 1.828,-1.809 0.152,-0.863 0.152,-2.039 0.152,-3.011 0,-1.16 0,-2.211 -0.168,-3.203 -0.234,-1.469 -1.113,-1.93 -1.812,-1.93"
         style="fill:#000000;fill-opacity:1;fill-rule:nonzero;stroke:none"
         id="path250"
         inkscape:connector-curvature="0" /><path
         d="m 567.098,348.414 c 0,1.84 -1.27,3.387 -2.938,3.387 -0.742,0 -1.41,-0.246 -1.965,-0.789 l 0,3.016 c 0.309,-0.094 0.821,-0.203 1.317,-0.203 1.898,0 2.98,1.41 2.98,1.609 0,0.094 -0.047,0.172 -0.152,0.172 -0.016,0 -0.047,0 -0.125,-0.047 -0.309,-0.141 -1.067,-0.449 -2.102,-0.449 -0.617,0 -1.328,0.105 -2.058,0.433 -0.121,0.047 -0.153,0.047 -0.184,0.047 -0.156,0 -0.156,-0.125 -0.156,-0.371 l 0,-4.578 c 0,-0.277 0,-0.402 0.219,-0.402 0.109,0 0.136,0.046 0.199,0.14 0.172,0.246 0.742,1.082 1.996,1.082 0.805,0 1.191,-0.711 1.312,-0.988 0.25,-0.574 0.282,-1.176 0.282,-1.949 0,-0.543 0,-1.469 -0.371,-2.117 -0.372,-0.606 -0.946,-1.004 -1.657,-1.004 -1.129,0 -2.007,0.816 -2.273,1.73 0.047,-0.015 0.094,-0.031 0.266,-0.031 0.507,0 0.773,0.387 0.773,0.758 0,0.371 -0.266,0.758 -0.773,0.758 -0.219,0 -0.758,-0.11 -0.758,-0.821 0,-1.328 1.066,-2.828 2.797,-2.828 1.793,0 3.371,1.484 3.371,3.445"
         style="fill:#000000;fill-opacity:1;fill-rule:nonzero;stroke:none"
         id="path252"
         inkscape:connector-curvature="0" /><path
         d="m 487.113,347.27 c 0,0.449 -0.371,0.82 -0.82,0.82 -0.449,0 -0.82,-0.371 -0.82,-0.82 0,-0.449 0.371,-0.82 0.82,-0.82 0.449,0 0.82,0.371 0.82,0.82"
         style="fill:#000000;fill-opacity:1;fill-rule:nonzero;stroke:none"
         id="path254"
         inkscape:connector-curvature="0" /><path
         d="m 494.125,351.368 0,-0.497 c 0,-3.617 -1.609,-4.328 -2.508,-4.328 -0.262,0 -1.097,0.032 -1.515,0.555 0.683,0 0.804,0.449 0.804,0.715 0,0.476 -0.371,0.711 -0.711,0.711 -0.246,0 -0.711,-0.141 -0.711,-0.742 0,-1.036 0.836,-1.672 2.149,-1.672 1.996,0 3.883,2.101 3.883,5.425 0,4.161 -1.778,5.211 -3.157,5.211 -0.847,0 -1.605,-0.277 -2.273,-0.972 -0.633,-0.696 -0.988,-1.348 -0.988,-2.504 0,-1.934 1.359,-3.449 3.093,-3.449 0.942,0 1.575,0.648 1.934,1.547 z m -1.918,-1.192 c -0.246,0 -0.961,0 -1.437,0.973 -0.278,0.574 -0.278,1.347 -0.278,2.105 0,0.832 0,1.559 0.324,2.133 0.414,0.773 1.004,0.973 1.543,0.973 0.715,0 1.223,-0.524 1.485,-1.219 0.187,-0.496 0.25,-1.469 0.25,-2.18 0,-1.285 -0.528,-2.785 -1.887,-2.785"
         style="fill:#000000;fill-opacity:1;fill-rule:nonzero;stroke:none"
         id="path256"
         inkscape:connector-curvature="0" /><path
         d="m 503.098,349.559 c 0,1.84 -1.27,3.387 -2.938,3.387 -0.742,0 -1.41,-0.25 -1.965,-0.789 l 0,3.015 c 0.309,-0.094 0.821,-0.203 1.317,-0.203 1.898,0 2.98,1.406 2.98,1.609 0,0.09 -0.047,0.168 -0.152,0.168 -0.016,0 -0.047,0 -0.125,-0.046 -0.309,-0.137 -1.067,-0.45 -2.102,-0.45 -0.617,0 -1.328,0.11 -2.058,0.434 -0.121,0.047 -0.153,0.047 -0.184,0.047 -0.156,0 -0.156,-0.125 -0.156,-0.371 l 0,-4.575 c 0,-0.281 0,-0.402 0.219,-0.402 0.109,0 0.136,0.047 0.199,0.137 0.172,0.25 0.742,1.082 1.996,1.082 0.805,0 1.191,-0.711 1.312,-0.988 0.25,-0.571 0.282,-1.176 0.282,-1.946 0,-0.543 0,-1.468 -0.371,-2.121 -0.372,-0.601 -0.946,-1.004 -1.657,-1.004 -1.129,0 -2.007,0.821 -2.273,1.731 0.047,-0.016 0.094,-0.031 0.266,-0.031 0.507,0 0.773,0.386 0.773,0.757 0,0.371 -0.266,0.758 -0.773,0.758 -0.219,0 -0.758,-0.105 -0.758,-0.816 0,-1.332 1.066,-2.832 2.797,-2.832 1.793,0 3.371,1.484 3.371,3.449"
         style="fill:#000000;fill-opacity:1;fill-rule:nonzero;stroke:none"
         id="path258"
         inkscape:connector-curvature="0" /><text
         xml:space="preserve"
         style="font-style:normal;font-variant:normal;font-weight:normal;font-stretch:normal;font-size:16px;line-height:125%;font-family:Arial;-inkscape-font-specification:Arial;text-align:center;letter-spacing:0px;word-spacing:0px;text-anchor:middle;fill:#000000;fill-opacity:1;stroke:none;stroke-width:1px;stroke-linecap:butt;stroke-linejoin:miter;stroke-opacity:1;"
         x="46.378605"
         y="-423.32153"
         id="text4257"
         sodipodi:linespacing="125%"
         transform="scale(1,-1)"><tspan
           sodipodi:role="line"
           id="tspan4259"
           x="46.378605"
           y="-423.32153">disease</tspan></text>
<text
         xml:space="preserve"
         style="font-style:normal;font-variant:normal;font-weight:normal;font-stretch:normal;font-size:16px;line-height:125%;font-family:Arial;-inkscape-font-specification:Arial;text-align:center;letter-spacing:0px;word-spacing:0px;text-anchor:middle;fill:#000000;fill-opacity:1;stroke:none;stroke-width:1px;stroke-linecap:butt;stroke-linejoin:miter;stroke-opacity:1;"
         x="47.046345"
         y="-335.06064"
         id="text4257-6"
         sodipodi:linespacing="125%"
         transform="scale(1,-1)"><tspan
           sodipodi:role="line"
           id="tspan4259-2"
           x="47.046345"
           y="-335.06064">test result</tspan></text>
</g></g></svg>