<?xml version="1.0" encoding="utf-8" standalone="no"?>
<!DOCTYPE svg PUBLIC "-//W3C//DTD SVG 1.1//EN"
  "http://www.w3.org/Graphics/SVG/1.1/DTD/svg11.dtd">
<!-- Created with matplotlib (http://matplotlib.org/) -->
<svg height="288pt" version="1.1" viewBox="0 0 576 288" width="576pt" xmlns="http://www.w3.org/2000/svg" xmlns:xlink="http://www.w3.org/1999/xlink">
 <defs>
  <style type="text/css">
*{stroke-linecap:butt;stroke-linejoin:round;}
  </style>
 </defs>
 <g id="figure_1">
  <g id="patch_1">
   <path d="M 0 288 
L 576 288 
L 576 0 
L 0 0 
z
" style="fill:#ffffff;"/>
  </g>
  <g id="axes_1">
   <g id="patch_2">
    <path d="M 72.6125 237.6 
L 282.4875 237.6 
L 282.4875 30.8 
L 72.6125 30.8 
z
" style="fill:#ffffff;"/>
   </g>
   <g id="line2d_1">
    <path clip-path="url(#p360ed32d63)" d="M 82.152273 237.6 
L 93.0385 237.508656 
L 93.993432 237.269882 
L 94.757378 236.828749 
L 95.330337 236.261256 
L 95.903296 235.415381 
L 96.476256 234.221052 
L 97.240202 231.973697 
L 98.004147 228.861868 
L 98.768093 224.802878 
L 99.723025 218.360179 
L 100.868944 208.724766 
L 102.205849 195.287789 
L 104.115713 173.467497 
L 108.126429 127.021654 
L 109.845307 109.811333 
L 111.373198 96.582534 
L 112.710103 86.691253 
L 114.047008 78.345402 
L 115.383913 71.462109 
L 116.529832 66.63885 
L 117.675751 62.721895 
L 118.821669 59.624565 
L 119.776602 57.607313 
L 120.731534 56.051082 
L 121.686466 54.90985 
L 122.641398 54.140292 
L 123.59633 53.702029 
L 124.551263 53.557745 
L 125.506195 53.673183 
L 126.461127 54.017081 
L 127.607046 54.69154 
L 128.943951 55.784382 
L 130.471842 57.363026 
L 132.19072 59.467992 
L 134.482558 62.668004 
L 137.538341 67.374672 
L 143.45892 77.025767 
L 149.188514 86.19125 
L 153.581202 92.801319 
L 157.591917 98.442279 
L 161.411646 103.448792 
L 165.231375 108.103469 
L 169.051103 112.42156 
L 173.061819 116.615684 
L 177.072534 120.487426 
L 181.274236 124.226717 
L 185.475937 127.670891 
L 189.868625 130.98608 
L 194.4523 134.16507 
L 199.226961 137.203618 
L 204.192609 140.099977 
L 209.349242 142.854455 
L 214.887849 145.558182 
L 220.617442 148.109806 
L 226.729009 150.589569 
L 233.222548 152.984302 
L 240.098059 155.284472 
L 247.546531 157.538711 
L 255.567961 159.727227 
L 264.162351 161.835204 
L 272.756741 163.732499 
L 272.947727 237.6 
L 272.947727 237.6 
" style="fill:none;stroke:#000000;stroke-linecap:square;stroke-width:1.5;"/>
   </g>
   <g id="matplotlib.axis_1">
    <g id="xtick_1">
     <g id="line2d_2">
      <defs>
       <path d="M 0 0 
L 0 3.5 
" id="m9d7fbc8033" style="stroke:#000000;stroke-width:0.8;"/>
      </defs>
      <g>
       <use style="stroke:#000000;stroke-width:0.8;" x="81.961286" xlink:href="#m9d7fbc8033" y="237.6"/>
      </g>
     </g>
     <g id="text_1">
      <!-- 0 -->
      <defs>
       <path d="M 50.140625 45.609375 
Q 53.265625 41.84375 54.796875 36.78125 
Q 56.34375 31.734375 56.34375 26.21875 
Q 56.34375 19.578125 54.4375 14.328125 
Q 52.546875 9.078125 49.21875 5.609375 
Q 45.796875 2.046875 41.109375 0.234375 
Q 36.421875 -1.5625 30.671875 -1.5625 
Q 24.359375 -1.5625 19.421875 0.53125 
Q 14.5 2.640625 11.421875 6.296875 
Q 8.203125 10.109375 6.609375 15.203125 
Q 5.03125 20.3125 5.03125 26.21875 
Q 5.03125 32.03125 6.5625 36.90625 
Q 8.109375 41.796875 11.375 45.75 
Q 14.5 49.5625 19.421875 51.75 
Q 24.359375 53.953125 30.71875 53.953125 
Q 37.40625 53.953125 42.1875 51.703125 
Q 46.96875 49.46875 50.140625 45.609375 
z
M 45.5625 26.21875 
Q 45.5625 37.84375 41.578125 44.234375 
Q 37.59375 50.640625 30.765625 50.640625 
Q 23.828125 50.640625 19.828125 44.234375 
Q 15.828125 37.84375 15.828125 26.21875 
Q 15.828125 15.1875 19.65625 8.46875 
Q 23.484375 1.765625 30.671875 1.765625 
Q 37.84375 1.765625 41.703125 8.46875 
Q 45.5625 15.1875 45.5625 26.21875 
z
" id="Georgia-30"/>
      </defs>
      <g transform="translate(78.278786 253.67125)scale(0.12 -0.12)">
       <use xlink:href="#Georgia-30"/>
      </g>
     </g>
    </g>
    <g id="xtick_2">
     <g id="line2d_3">
      <g>
       <use style="stroke:#000000;stroke-width:0.8;" x="129.707897" xlink:href="#m9d7fbc8033" y="237.6"/>
      </g>
     </g>
     <g id="text_2">
      <!-- 25 -->
      <defs>
       <path d="M 51.125 0 
L 5.375 0 
L 5.375 6.640625 
Q 6.6875 8.15625 9.03125 10.03125 
Q 11.375 11.921875 14.59375 14.109375 
Q 16.546875 15.4375 19.28125 17 
Q 22.015625 18.5625 25.484375 20.40625 
Q 29.34375 22.46875 31.421875 24.03125 
Q 33.5 25.59375 35.203125 27.875 
Q 36.328125 29.390625 37.015625 31.65625 
Q 37.703125 33.9375 37.703125 38.140625 
Q 37.703125 44.234375 34.421875 47.09375 
Q 31.15625 49.953125 26.03125 49.953125 
Q 22.859375 49.953125 20.015625 48.703125 
Q 17.1875 47.46875 15.765625 45.265625 
Q 16.109375 43.703125 16.625 41.546875 
Q 17.140625 39.40625 17.140625 37.359375 
Q 17.140625 35.5 15.59375 34.0625 
Q 14.0625 32.625 11.03125 32.625 
Q 8.59375 32.625 7.265625 34.296875 
Q 5.953125 35.984375 5.953125 38.8125 
Q 5.953125 41.453125 7.421875 44.109375 
Q 8.890625 46.78125 11.625 49.03125 
Q 14.3125 51.21875 18.265625 52.578125 
Q 22.21875 53.953125 26.8125 53.953125 
Q 36.8125 53.953125 42.6875 49.484375 
Q 48.578125 45.015625 48.578125 37.546875 
Q 48.578125 33.984375 47.53125 31.046875 
Q 46.484375 28.125 44.140625 25.875 
Q 41.546875 23.390625 38.078125 21.609375 
Q 34.625 19.828125 27.484375 16.65625 
Q 23.25 14.75 19.578125 12.671875 
Q 15.921875 10.59375 13.578125 8.640625 
L 51.125 8.640625 
z
" id="Georgia-32"/>
       <path d="M 41.15625 22.90625 
Q 44.390625 20.359375 46.515625 16.359375 
Q 48.640625 12.359375 48.640625 6.34375 
Q 48.640625 -4.15625 41.453125 -10.984375 
Q 34.28125 -17.828125 23.25 -17.828125 
Q 14.703125 -17.828125 8.78125 -13.765625 
Q 2.875 -9.71875 2.875 -4.34375 
Q 2.875 -1.859375 4.09375 0 
Q 5.328125 1.859375 7.859375 1.859375 
Q 10.796875 1.859375 12.328125 0.3125 
Q 13.875 -1.21875 13.875 -3.03125 
Q 13.875 -4.59375 13.328125 -6.9375 
Q 12.796875 -9.28125 12.5 -10.40625 
Q 12.890625 -10.75 13.765625 -11.328125 
Q 14.65625 -11.921875 15.875 -12.453125 
Q 17.140625 -12.984375 18.96875 -13.390625 
Q 20.796875 -13.8125 23.25 -13.8125 
Q 26.375 -13.8125 29.15625 -12.546875 
Q 31.9375 -11.28125 33.84375 -8.796875 
Q 35.9375 -6.0625 36.984375 -2.5625 
Q 38.03125 0.921875 38.03125 6.296875 
Q 38.03125 13.1875 34.203125 17.703125 
Q 30.375 22.21875 24.125 22.21875 
Q 20.21875 22.21875 16.8125 20.75 
Q 13.421875 19.28125 10.75 15.875 
L 7.46875 17.140625 
L 11.625 52.390625 
L 46.578125 52.390625 
L 46.578125 43.703125 
L 15.578125 43.703125 
L 13.03125 23 
Q 15.234375 24.5625 18.8125 26.09375 
Q 22.40625 27.640625 26.703125 27.640625 
Q 30.28125 27.640625 34.109375 26.53125 
Q 37.9375 25.4375 41.15625 22.90625 
z
" id="Georgia-35"/>
      </defs>
      <g transform="translate(123.186647 253.67125)scale(0.12 -0.12)">
       <use xlink:href="#Georgia-32"/>
       <use x="55.859375" xlink:href="#Georgia-35"/>
      </g>
     </g>
    </g>
    <g id="xtick_3">
     <g id="line2d_4">
      <g>
       <use style="stroke:#000000;stroke-width:0.8;" x="177.454507" xlink:href="#m9d7fbc8033" y="237.6"/>
      </g>
     </g>
     <g id="text_3">
      <!-- 50 -->
      <g transform="translate(170.602319 253.67125)scale(0.12 -0.12)">
       <use xlink:href="#Georgia-35"/>
       <use x="52.832031" xlink:href="#Georgia-30"/>
      </g>
     </g>
    </g>
    <g id="xtick_4">
     <g id="line2d_5">
      <g>
       <use style="stroke:#000000;stroke-width:0.8;" x="225.201117" xlink:href="#m9d7fbc8033" y="237.6"/>
      </g>
     </g>
     <g id="text_4">
      <!-- 75 -->
      <defs>
       <path d="M 50.25 49.21875 
L 15.4375 -17.828125 
L 9.328125 -17.828125 
L 42.09375 44.1875 
L 22.90625 44.1875 
Q 18.65625 44.1875 16.265625 44.09375 
Q 13.875 44 11.859375 43.171875 
Q 10.359375 42.53125 9.15625 39.921875 
Q 7.953125 37.3125 7.328125 33.25 
L 4.34375 33.25 
L 4.34375 52.390625 
L 50.25 52.390625 
z
" id="Georgia-37"/>
      </defs>
      <g transform="translate(219.01643 253.67125)scale(0.12 -0.12)">
       <use xlink:href="#Georgia-37"/>
       <use x="50.244141" xlink:href="#Georgia-35"/>
      </g>
     </g>
    </g>
    <g id="xtick_5">
     <g id="line2d_6">
      <g>
       <use style="stroke:#000000;stroke-width:0.8;" x="272.947727" xlink:href="#m9d7fbc8033" y="237.6"/>
      </g>
     </g>
     <g id="text_5">
      <!-- 100 -->
      <defs>
       <path d="M 39.5 0 
L 6.59375 0 
L 6.59375 3.46875 
Q 8.0625 3.5625 11.15625 3.875 
Q 14.265625 4.203125 15.4375 4.546875 
Q 16.9375 5.03125 17.75 6.125 
Q 18.5625 7.234375 18.5625 9.421875 
L 18.5625 43.703125 
L 6.390625 43.703125 
L 6.390625 47.796875 
L 9.078125 47.796875 
Q 14.359375 47.796875 18.53125 49.75 
Q 22.703125 51.703125 24.515625 53.953125 
L 28.5625 53.953125 
Q 28.421875 50.78125 28.265625 46.53125 
Q 28.125 42.28125 28.125 38.921875 
L 28.125 9.96875 
Q 28.125 8.25 28.875 6.90625 
Q 29.640625 5.5625 31.0625 4.9375 
Q 32.328125 4.390625 35.203125 3.953125 
Q 38.09375 3.515625 39.5 3.46875 
z
" id="Georgia-31"/>
      </defs>
      <g transform="translate(263.004602 253.67125)scale(0.12 -0.12)">
       <use xlink:href="#Georgia-31"/>
       <use x="42.96875" xlink:href="#Georgia-30"/>
       <use x="104.345703" xlink:href="#Georgia-30"/>
      </g>
     </g>
    </g>
    <g id="text_6">
     <!-- $\lambda$ -->
     <defs>
      <path d="M 41.5 12.296875 
L 43.09375 12.296875 
Q 40 -1.59375 33 -1.59375 
Q 30.703125 -1.59375 29.203125 0.75 
Q 27.703125 3.09375 27.703125 7.796875 
Q 27.703125 10.5 27.953125 13.890625 
Q 28.203125 17.296875 28.640625 22.59375 
Q 29.09375 27.90625 29.296875 31.5 
L 8.40625 0 
L -1.203125 0 
L 29.796875 42.796875 
Q 30.203125 46.40625 30.203125 50.703125 
Q 30.203125 61.5 25.296875 61.5 
Q 23.90625 61.5 22 59.703125 
Q 20.09375 57.90625 18.796875 54.09375 
L 17.203125 54.09375 
Q 20.5 67.796875 27.296875 67.796875 
Q 30.09375 67.796875 31.890625 64.296875 
Q 33.703125 60.796875 33.703125 54.296875 
Q 33.703125 47.5 32.703125 34.25 
Q 31.703125 21 31.703125 14.703125 
Q 31.703125 9.40625 32.640625 7.046875 
Q 33.59375 4.703125 35.796875 4.703125 
Q 38.796875 4.703125 41.5 12.296875 
z
" id="STIXGeneral-Italic-3bb"/>
     </defs>
     <g transform="translate(173.87 272.36875)scale(0.16 -0.16)">
      <use transform="translate(0 0.203125)" xlink:href="#STIXGeneral-Italic-3bb"/>
     </g>
    </g>
   </g>
   <g id="matplotlib.axis_2">
    <g id="ytick_1">
     <g id="line2d_7">
      <defs>
       <path d="M 0 0 
L -3.5 0 
" id="m9bf66fd42c" style="stroke:#000000;stroke-width:0.8;"/>
      </defs>
      <g>
       <use style="stroke:#000000;stroke-width:0.8;" x="72.6125" xlink:href="#m9bf66fd42c" y="237.6"/>
      </g>
     </g>
     <g id="text_7">
      <!-- 0.000 -->
      <defs>
       <path d="M 20.265625 5.609375 
Q 20.265625 2.875 18.28125 0.9375 
Q 16.3125 -0.984375 13.578125 -0.984375 
Q 10.84375 -0.984375 8.859375 0.9375 
Q 6.890625 2.875 6.890625 5.609375 
Q 6.890625 8.34375 8.859375 10.328125 
Q 10.84375 12.3125 13.578125 12.3125 
Q 16.3125 12.3125 18.28125 10.328125 
Q 20.265625 8.34375 20.265625 5.609375 
z
" id="Georgia-2e"/>
      </defs>
      <g transform="translate(32.918125 242.135625)scale(0.12 -0.12)">
       <use xlink:href="#Georgia-30"/>
       <use x="61.376953" xlink:href="#Georgia-2e"/>
       <use x="88.330078" xlink:href="#Georgia-30"/>
       <use x="149.707031" xlink:href="#Georgia-30"/>
       <use x="211.083984" xlink:href="#Georgia-30"/>
      </g>
     </g>
    </g>
    <g id="ytick_2">
     <g id="line2d_8">
      <g>
       <use style="stroke:#000000;stroke-width:0.8;" x="72.6125" xlink:href="#m9bf66fd42c" y="185.9"/>
      </g>
     </g>
     <g id="text_8">
      <!-- 0.005 -->
      <g transform="translate(33.94375 190.435625)scale(0.12 -0.12)">
       <use xlink:href="#Georgia-30"/>
       <use x="61.376953" xlink:href="#Georgia-2e"/>
       <use x="88.330078" xlink:href="#Georgia-30"/>
       <use x="149.707031" xlink:href="#Georgia-30"/>
       <use x="211.083984" xlink:href="#Georgia-35"/>
      </g>
     </g>
    </g>
    <g id="ytick_3">
     <g id="line2d_9">
      <g>
       <use style="stroke:#000000;stroke-width:0.8;" x="72.6125" xlink:href="#m9bf66fd42c" y="134.2"/>
      </g>
     </g>
     <g id="text_9">
      <!-- 0.010 -->
      <g transform="translate(35.126875 138.735625)scale(0.12 -0.12)">
       <use xlink:href="#Georgia-30"/>
       <use x="61.376953" xlink:href="#Georgia-2e"/>
       <use x="88.330078" xlink:href="#Georgia-30"/>
       <use x="149.707031" xlink:href="#Georgia-31"/>
       <use x="192.675781" xlink:href="#Georgia-30"/>
      </g>
     </g>
    </g>
    <g id="ytick_4">
     <g id="line2d_10">
      <g>
       <use style="stroke:#000000;stroke-width:0.8;" x="72.6125" xlink:href="#m9bf66fd42c" y="82.5"/>
      </g>
     </g>
     <g id="text_10">
      <!-- 0.015 -->
      <g transform="translate(36.1525 87.035625)scale(0.12 -0.12)">
       <use xlink:href="#Georgia-30"/>
       <use x="61.376953" xlink:href="#Georgia-2e"/>
       <use x="88.330078" xlink:href="#Georgia-30"/>
       <use x="149.707031" xlink:href="#Georgia-31"/>
       <use x="192.675781" xlink:href="#Georgia-35"/>
      </g>
     </g>
    </g>
    <g id="ytick_5">
     <g id="line2d_11">
      <g>
       <use style="stroke:#000000;stroke-width:0.8;" x="72.6125" xlink:href="#m9bf66fd42c" y="30.8"/>
      </g>
     </g>
     <g id="text_11">
      <!-- 0.020 -->
      <g transform="translate(33.58 35.335625)scale(0.12 -0.12)">
       <use xlink:href="#Georgia-30"/>
       <use x="61.376953" xlink:href="#Georgia-2e"/>
       <use x="88.330078" xlink:href="#Georgia-30"/>
       <use x="149.707031" xlink:href="#Georgia-32"/>
       <use x="205.566406" xlink:href="#Georgia-30"/>
      </g>
     </g>
    </g>
    <g id="text_12">
     <!-- $p(\lambda \mid \{x\})$ -->
     <defs>
      <path d="M 21.5 42.796875 
L 18.59375 32.796875 
Q 26.09375 44.09375 35.703125 44.09375 
Q 41.203125 44.09375 44.203125 40.796875 
Q 47.203125 37.5 47.203125 31.59375 
Q 47.203125 19.296875 37.84375 9.09375 
Q 28.5 -1.09375 17.5 -1.09375 
Q 13.90625 -1.09375 10.59375 0.59375 
Q 6.59375 -15.90625 6.59375 -16 
Q 6.59375 -17.59375 7.9375 -18.25 
Q 9.296875 -18.90625 12.796875 -18.90625 
L 12.796875 -20.5 
L -7.5 -20.5 
L -7.5 -18.90625 
Q -4.296875 -18.796875 -2.9375 -17.5 
Q -1.59375 -16.203125 -0.703125 -12.59375 
L 10.796875 30.59375 
Q 12.40625 36.40625 12.40625 37.703125 
Q 12.40625 40.40625 8 40.40625 
L 5.796875 40.40625 
L 5.59375 41.90625 
L 21.203125 44.09375 
Q 21.703125 44.09375 21.703125 43.703125 
Q 21.59375 43.203125 21.5 42.796875 
z
M 38.203125 31.296875 
Q 38.203125 35.703125 36.75 37.75 
Q 35.296875 39.796875 32 39.796875 
Q 28.09375 39.796875 24.1875 36.390625 
Q 20.296875 33 18.5 28.40625 
Q 16.296875 22.703125 14.140625 14.890625 
Q 12 7.09375 12 4.59375 
Q 12 2.90625 13.34375 1.84375 
Q 14.703125 0.796875 16.796875 0.796875 
Q 24.59375 0.796875 31.296875 10.296875 
Q 38.203125 19.90625 38.203125 31.296875 
z
" id="STIXGeneral-Italic-70"/>
      <path d="M 30.40625 -16.09375 
L 29.203125 -17.703125 
Q 17.59375 -11.09375 11.1875 0.5 
Q 4.796875 12.09375 4.796875 25.203125 
Q 4.796875 52.90625 29.5 67.59375 
L 30.40625 66 
Q 20.203125 57.296875 16.796875 48.84375 
Q 13.40625 40.40625 13.40625 25.5 
Q 13.40625 10.703125 16.90625 1.5 
Q 20.40625 -7.703125 30.40625 -16.09375 
z
" id="STIXGeneral-Regular-28"/>
      <path d="M 16.59375 -18.90625 
L 10 -18.90625 
L 10 69 
L 16.59375 69 
z
" id="STIXGeneral-Regular-2223"/>
      <path d="M 35 -17 
L 35 -18.09375 
Q 26.59375 -18 22.90625 -15.59375 
Q 18.5 -12.796875 18.5 -4.09375 
L 18.5 13.59375 
Q 18.5 18.796875 16.75 21.09375 
Q 15 23.40625 10 25 
Q 15 26.5 16.75 28.796875 
Q 18.5 31.09375 18.5 36.296875 
L 18.5 54.09375 
Q 18.5 62.796875 22.90625 65.5 
Q 26.703125 67.90625 35 68 
L 35 66.90625 
Q 29.796875 65.59375 27.84375 62.890625 
Q 25.90625 60.203125 25.90625 54.59375 
L 25.90625 37.796875 
Q 25.90625 31.59375 24 29 
Q 22.09375 26.40625 16.5 24.90625 
Q 22.09375 23.5 24 20.890625 
Q 25.90625 18.296875 25.90625 12.09375 
L 25.90625 -4.703125 
Q 25.90625 -10.296875 27.84375 -13 
Q 29.796875 -15.703125 35 -17 
z
" id="STIXGeneral-Regular-7b"/>
      <path d="M 24.296875 35.5 
L 25.5 29.796875 
Q 30.796875 37.90625 34.046875 41 
Q 37.296875 44.09375 40.59375 44.09375 
Q 42.40625 44.09375 43.546875 43.046875 
Q 44.703125 42 44.703125 40.390625 
Q 44.703125 38.796875 43.75 37.796875 
Q 42.796875 36.796875 41.296875 36.796875 
Q 40.40625 36.796875 38.90625 37.640625 
Q 37.40625 38.5 36.09375 38.5 
Q 33.203125 38.5 26.296875 26.40625 
Q 26.296875 25.09375 27.09375 21.90625 
L 30.296875 8.5 
Q 31.296875 4.40625 33.296875 4.40625 
Q 34.90625 4.40625 38 8.40625 
Q 38.296875 8.796875 38.6875 9.34375 
Q 39.09375 9.90625 39.390625 10.34375 
Q 39.703125 10.796875 40.09375 11.203125 
L 41.59375 10.296875 
Q 37.296875 3.59375 34.796875 1.25 
Q 32.296875 -1.09375 29.40625 -1.09375 
Q 27 -1.09375 25.703125 0.40625 
Q 24.40625 1.90625 23.5 5.703125 
L 20.59375 17.59375 
L 11.796875 5.703125 
Q 8.703125 1.5 6.75 0.203125 
Q 4.796875 -1.09375 2.296875 -1.09375 
Q 0 -1.09375 -1.34375 0 
Q -2.703125 1.09375 -2.703125 3.09375 
Q -2.703125 4.59375 -1.75 5.640625 
Q -0.796875 6.703125 0.703125 6.703125 
Q 1.90625 6.703125 3.90625 5.59375 
Q 5.40625 4.703125 6.5 4.703125 
Q 8.203125 4.703125 11.59375 9.59375 
L 19.796875 21.203125 
L 17 33.59375 
Q 16 38 15.140625 39.203125 
Q 14.296875 40.40625 12.40625 40.40625 
Q 11.203125 40.40625 8.5 39.703125 
L 6.703125 39.203125 
L 6.40625 40.796875 
L 7.5 41.203125 
Q 15.5 44.09375 19.203125 44.09375 
Q 21.09375 44.09375 22.1875 42.296875 
Q 23.296875 40.5 24.296875 35.5 
z
" id="STIXGeneral-Italic-78"/>
      <path d="M 29.5 54 
L 29.5 36.296875 
Q 29.5 31.09375 31.25 28.796875 
Q 33 26.5 38 25 
Q 33 23.40625 31.25 21.09375 
Q 29.5 18.796875 29.5 13.59375 
L 29.5 -4.203125 
Q 29.5 -12.90625 25.09375 -15.59375 
Q 21.296875 -18 13 -18.09375 
L 13 -17 
Q 18.203125 -15.703125 20.140625 -13 
Q 22.09375 -10.296875 22.09375 -4.703125 
L 22.09375 12.09375 
Q 22.09375 18.296875 24 20.890625 
Q 25.90625 23.5 31.5 25 
Q 25.90625 26.40625 24 28.953125 
Q 22.09375 31.5 22.09375 37.796875 
L 22.09375 54.59375 
Q 22.09375 60.203125 20.140625 62.890625 
Q 18.203125 65.59375 13 66.90625 
L 13 68 
Q 21.40625 67.90625 25.09375 65.5 
Q 29.5 62.703125 29.5 54 
z
" id="STIXGeneral-Regular-7d"/>
      <path d="M 2.90625 66 
L 4.09375 67.59375 
Q 15.5 60.796875 22 49.1875 
Q 28.5 37.59375 28.5 24.703125 
Q 28.5 -2.59375 3.796875 -17.703125 
L 2.90625 -16.09375 
Q 13.203125 -7.59375 16.546875 0.84375 
Q 19.90625 9.296875 19.90625 24.40625 
Q 19.90625 39.59375 16.546875 48.75 
Q 13.203125 57.90625 2.90625 66 
z
" id="STIXGeneral-Regular-29"/>
     </defs>
     <g transform="translate(25.448125 162.92)rotate(-90)scale(0.16 -0.16)">
      <use xlink:href="#STIXGeneral-Italic-70"/>
      <use transform="translate(50.399994 0)" xlink:href="#STIXGeneral-Regular-28"/>
      <use transform="translate(83.699982 0)" xlink:href="#STIXGeneral-Italic-3bb"/>
      <use transform="translate(143.939966 0)" xlink:href="#STIXGeneral-Regular-2223"/>
      <use transform="translate(184.979953 0)" xlink:href="#STIXGeneral-Regular-7b"/>
      <use transform="translate(232.979938 0)" xlink:href="#STIXGeneral-Italic-78"/>
      <use transform="translate(277.379932 0)" xlink:href="#STIXGeneral-Regular-7d"/>
      <use transform="translate(325.379916 0)" xlink:href="#STIXGeneral-Regular-29"/>
     </g>
    </g>
   </g>
   <g id="patch_3">
    <path d="M 72.6125 237.6 
L 72.6125 30.8 
" style="fill:none;stroke:#000000;stroke-linecap:square;stroke-linejoin:miter;stroke-width:0.8;"/>
   </g>
   <g id="patch_4">
    <path d="M 282.4875 237.6 
L 282.4875 30.8 
" style="fill:none;stroke:#000000;stroke-linecap:square;stroke-linejoin:miter;stroke-width:0.8;"/>
   </g>
   <g id="patch_5">
    <path d="M 72.6125 237.6 
L 282.4875 237.6 
" style="fill:none;stroke:#000000;stroke-linecap:square;stroke-linejoin:miter;stroke-width:0.8;"/>
   </g>
   <g id="patch_6">
    <path d="M 72.6125 30.8 
L 282.4875 30.8 
" style="fill:none;stroke:#000000;stroke-linecap:square;stroke-linejoin:miter;stroke-width:0.8;"/>
   </g>
   <g id="PathCollection_1">
    <defs>
     <path d="M 0 3 
C 0.795609 3 1.55874 2.683901 2.12132 2.12132 
C 2.683901 1.55874 3 0.795609 3 0 
C 3 -0.795609 2.683901 -1.55874 2.12132 -2.12132 
C 1.55874 -2.683901 0.795609 -3 0 -3 
C -0.795609 -3 -1.55874 -2.683901 -2.12132 -2.12132 
C -2.683901 -1.55874 -3 -0.795609 -3 0 
C -3 0.795609 -2.683901 1.55874 -2.12132 2.12132 
C -1.55874 2.683901 -0.795609 3 0 3 
z
" id="mbabfcc25b2" style="stroke:#000000;stroke-width:1.5;"/>
    </defs>
    <g>
     <use style="fill:#ff0000;stroke:#000000;stroke-width:1.5;" x="107.553469" xlink:href="#mbabfcc25b2" y="237.6"/>
    </g>
   </g>
   <g id="PathCollection_2">
    <defs>
     <path d="M 0 3 
C 0.795609 3 1.55874 2.683901 2.12132 2.12132 
C 2.683901 1.55874 3 0.795609 3 0 
C 3 -0.795609 2.683901 -1.55874 2.12132 -2.12132 
C 1.55874 -2.683901 0.795609 -3 0 -3 
C -0.795609 -3 -1.55874 -2.683901 -2.12132 -2.12132 
C -2.683901 -1.55874 -3 -0.795609 -3 0 
C -3 0.795609 -2.683901 1.55874 -2.12132 2.12132 
C -1.55874 2.683901 -0.795609 3 0 3 
z
" id="m999dbae7b6" style="stroke:#000000;stroke-width:1.5;"/>
    </defs>
    <g>
     <use style="fill:#008000;stroke:#000000;stroke-width:1.5;" x="265.499256" xlink:href="#m999dbae7b6" y="237.6"/>
    </g>
   </g>
   <g id="PathCollection_3">
    <defs>
     <path d="M 0 3 
C 0.795609 3 1.55874 2.683901 2.12132 2.12132 
C 2.683901 1.55874 3 0.795609 3 0 
C 3 -0.795609 2.683901 -1.55874 2.12132 -2.12132 
C 1.55874 -2.683901 0.795609 -3 0 -3 
C -0.795609 -3 -1.55874 -2.683901 -2.12132 -2.12132 
C -2.683901 -1.55874 -3 -0.795609 -3 0 
C -3 0.795609 -2.683901 1.55874 -2.12132 2.12132 
C -1.55874 2.683901 -0.795609 3 0 3 
z
" id="mc5096f68be" style="stroke:#000000;stroke-width:1.5;"/>
    </defs>
    <g>
     <use style="fill:#0000ff;stroke:#000000;stroke-width:1.5;" x="143.649907" xlink:href="#mc5096f68be" y="237.6"/>
    </g>
   </g>
   <g id="text_13">
    <!-- Posterior and samples -->
    <defs>
     <path d="M 57.8125 52.203125 
Q 57.8125 46.78125 55.6875 42.59375 
Q 53.5625 38.421875 49.8125 35.6875 
Q 46.09375 32.953125 41.640625 31.6875 
Q 37.203125 30.421875 32.234375 30.421875 
L 24.46875 30.421875 
L 24.46875 9.421875 
Q 24.46875 7.71875 25.03125 6.421875 
Q 25.59375 5.125 27.34375 4.4375 
Q 28.21875 4.109375 30.4375 3.8125 
Q 32.671875 3.515625 34.515625 3.46875 
L 34.515625 0 
L 4.78125 0 
L 4.78125 3.46875 
Q 5.953125 3.5625 8.171875 3.796875 
Q 10.40625 4.046875 11.28125 4.4375 
Q 12.75 5.078125 13.40625 6.296875 
Q 14.0625 7.515625 14.0625 9.421875 
L 14.0625 59.421875 
Q 14.0625 61.140625 13.578125 62.5 
Q 13.09375 63.875 11.28125 64.546875 
Q 9.421875 65.1875 7.59375 65.453125 
Q 5.765625 65.71875 4.4375 65.828125 
L 4.4375 69.28125 
L 36.078125 69.28125 
Q 45.75 69.28125 51.78125 64.625 
Q 57.8125 59.96875 57.8125 52.203125 
z
M 42.96875 40.375 
Q 44.625 42.71875 45.15625 45.234375 
Q 45.703125 47.75 45.703125 49.75 
Q 45.703125 52.546875 45.046875 55.421875 
Q 44.390625 58.296875 42.78125 60.453125 
Q 41.0625 62.75 38.28125 64.015625 
Q 35.5 65.28125 31.34375 65.28125 
L 24.46875 65.28125 
L 24.46875 34.671875 
L 29.4375 34.671875 
Q 34.71875 34.671875 38.015625 36.296875 
Q 41.3125 37.9375 42.96875 40.375 
z
" id="Georgia-50"/>
     <path d="M 50.4375 24.5625 
Q 50.4375 19.484375 48.828125 14.578125 
Q 47.21875 9.671875 44.234375 6.25 
Q 40.875 2.34375 36.421875 0.4375 
Q 31.984375 -1.46875 26.46875 -1.46875 
Q 21.875 -1.46875 17.71875 0.265625 
Q 13.578125 2 10.359375 5.328125 
Q 7.171875 8.59375 5.296875 13.296875 
Q 3.421875 18.015625 3.421875 23.875 
Q 3.421875 35.15625 9.984375 42.328125 
Q 16.546875 49.515625 27.203125 49.515625 
Q 37.3125 49.515625 43.875 42.703125 
Q 50.4375 35.890625 50.4375 24.5625 
z
M 40.328125 24.46875 
Q 40.328125 28.125 39.59375 32.203125 
Q 38.875 36.28125 37.40625 39.109375 
Q 35.84375 42.140625 33.296875 43.96875 
Q 30.765625 45.796875 27.09375 45.796875 
Q 23.34375 45.796875 20.671875 43.9375 
Q 18.015625 42.09375 16.359375 38.875 
Q 14.796875 35.890625 14.15625 32.078125 
Q 13.53125 28.265625 13.53125 24.703125 
Q 13.53125 20.015625 14.28125 16.03125 
Q 15.046875 12.0625 16.703125 8.9375 
Q 18.359375 5.8125 20.875 4.03125 
Q 23.390625 2.25 27.09375 2.25 
Q 33.203125 2.25 36.765625 8.15625 
Q 40.328125 14.0625 40.328125 24.46875 
z
" id="Georgia-6f"/>
     <path d="M 35.296875 23.578125 
Q 37.3125 21.828125 38.375 19.53125 
Q 39.453125 17.234375 39.453125 13.921875 
Q 39.453125 7.234375 34.4375 2.984375 
Q 29.4375 -1.265625 21.484375 -1.265625 
Q 17.28125 -1.265625 13.734375 0.25 
Q 10.203125 1.765625 8.6875 3.03125 
L 7.71875 -0.140625 
L 4.046875 -0.140625 
L 3.5625 16.609375 
L 6.9375 16.609375 
Q 7.328125 14.703125 8.59375 12.15625 
Q 9.859375 9.625 11.671875 7.5625 
Q 13.578125 5.421875 16.234375 3.953125 
Q 18.890625 2.484375 22.21875 2.484375 
Q 26.90625 2.484375 29.4375 4.609375 
Q 31.984375 6.734375 31.984375 10.6875 
Q 31.984375 12.75 31.171875 14.234375 
Q 30.375 15.71875 28.8125 16.84375 
Q 27.203125 17.96875 24.859375 18.875 
Q 22.515625 19.78125 19.625 20.65625 
Q 17.328125 21.34375 14.515625 22.53125 
Q 11.71875 23.734375 9.71875 25.34375 
Q 7.5625 27.046875 6.1875 29.53125 
Q 4.828125 32.03125 4.828125 35.40625 
Q 4.828125 41.3125 9.21875 45.40625 
Q 13.625 49.515625 21 49.515625 
Q 23.828125 49.515625 26.78125 48.78125 
Q 29.734375 48.046875 31.59375 47.015625 
L 32.71875 49.5625 
L 36.234375 49.5625 
L 36.96875 34.078125 
L 33.59375 34.078125 
Q 32.5625 39.265625 29.171875 42.5 
Q 25.78125 45.75 20.90625 45.75 
Q 16.890625 45.75 14.59375 43.75 
Q 12.3125 41.75 12.3125 38.921875 
Q 12.3125 36.71875 13.0625 35.25 
Q 13.8125 33.796875 15.328125 32.765625 
Q 16.796875 31.78125 19.015625 30.921875 
Q 21.234375 30.078125 24.515625 29 
Q 27.734375 27.984375 30.59375 26.609375 
Q 33.453125 25.25 35.296875 23.578125 
z
" id="Georgia-73"/>
     <path d="M 33.25 2.09375 
Q 30.078125 0.78125 27.25 -0.125 
Q 24.421875 -1.03125 20.3125 -1.03125 
Q 14.265625 -1.03125 11.796875 2.015625 
Q 9.328125 5.078125 9.328125 10.640625 
L 9.328125 43.265625 
L 0.640625 43.265625 
L 0.640625 47.953125 
L 9.515625 47.953125 
L 9.515625 62.9375 
L 18.40625 62.9375 
L 18.40625 47.953125 
L 32.234375 47.953125 
L 32.234375 43.265625 
L 18.5 43.265625 
L 18.5 16.359375 
Q 18.5 13.328125 18.71875 11.296875 
Q 18.953125 9.28125 19.78125 7.765625 
Q 20.5625 6.34375 22.125 5.609375 
Q 23.6875 4.890625 26.3125 4.890625 
Q 27.546875 4.890625 29.90625 5.109375 
Q 32.28125 5.328125 33.25 5.671875 
z
" id="Georgia-74"/>
     <path d="M 46.296875 11.328125 
Q 43.265625 5.5625 38.1875 2.140625 
Q 33.109375 -1.265625 26.515625 -1.265625 
Q 20.703125 -1.265625 16.328125 0.78125 
Q 11.96875 2.828125 9.125 6.34375 
Q 6.296875 9.859375 4.90625 14.546875 
Q 3.515625 19.234375 3.515625 24.46875 
Q 3.515625 29.15625 5 33.671875 
Q 6.5 38.1875 9.375 41.796875 
Q 12.15625 45.265625 16.28125 47.390625 
Q 20.40625 49.515625 25.53125 49.515625 
Q 30.8125 49.515625 34.5625 47.84375 
Q 38.328125 46.1875 40.671875 43.3125 
Q 42.921875 40.578125 44.015625 36.859375 
Q 45.125 33.15625 45.125 28.8125 
L 45.125 25.59375 
L 13.234375 25.59375 
Q 13.234375 20.84375 14.140625 16.984375 
Q 15.046875 13.140625 17 10.203125 
Q 18.890625 7.375 21.96875 5.734375 
Q 25.046875 4.109375 29.296875 4.109375 
Q 33.640625 4.109375 36.78125 6.125 
Q 39.9375 8.15625 42.875 13.421875 
z
M 35.5 29.6875 
Q 35.5 32.421875 35.03125 35.546875 
Q 34.578125 38.671875 33.546875 40.765625 
Q 32.421875 43.015625 30.46875 44.421875 
Q 28.515625 45.84375 25.4375 45.84375 
Q 20.3125 45.84375 16.921875 41.578125 
Q 13.53125 37.3125 13.234375 29.6875 
z
" id="Georgia-65"/>
     <path d="M 40.375 41.9375 
Q 40.375 39.453125 39.15625 37.515625 
Q 37.9375 35.59375 35.40625 35.59375 
Q 32.671875 35.59375 31.21875 37 
Q 29.78125 38.421875 29.78125 40.140625 
Q 29.78125 41.21875 29.953125 42.09375 
Q 30.125 42.96875 30.28125 43.84375 
Q 27.984375 43.84375 24.90625 41.984375 
Q 21.828125 40.140625 19.671875 36.71875 
L 19.671875 8.6875 
Q 19.671875 6.984375 20.328125 5.90625 
Q 21 4.828125 22.40625 4.296875 
Q 23.640625 3.8125 25.5625 3.5625 
Q 27.484375 3.328125 28.90625 3.21875 
L 28.90625 0 
L 3.515625 0 
L 3.515625 3.21875 
Q 4.640625 3.328125 5.828125 3.421875 
Q 7.03125 3.515625 7.90625 3.8125 
Q 9.28125 4.25 9.9375 5.34375 
Q 10.59375 6.453125 10.59375 8.203125 
L 10.59375 37.9375 
Q 10.59375 39.453125 9.890625 40.921875 
Q 9.1875 42.390625 7.90625 43.265625 
Q 6.984375 43.84375 5.703125 44.109375 
Q 4.4375 44.390625 2.984375 44.484375 
L 2.984375 47.65625 
L 19 48.734375 
L 19.671875 48.046875 
L 19.671875 41.265625 
L 19.921875 41.265625 
Q 22.953125 45.21875 26.65625 47.265625 
Q 30.375 49.3125 33.453125 49.3125 
Q 36.53125 49.3125 38.453125 47.3125 
Q 40.375 45.3125 40.375 41.9375 
z
" id="Georgia-72"/>
     <path d="M 26.90625 0 
L 3.609375 0 
L 3.609375 3.21875 
Q 4.734375 3.328125 5.921875 3.421875 
Q 7.125 3.515625 8.015625 3.8125 
Q 9.375 4.25 10.03125 5.34375 
Q 10.6875 6.453125 10.6875 8.203125 
L 10.6875 37.9375 
Q 10.6875 39.5 9.984375 40.796875 
Q 9.28125 42.09375 8.015625 42.96875 
Q 7.078125 43.5625 5.3125 43.96875 
Q 3.5625 44.390625 2.09375 44.484375 
L 2.09375 47.65625 
L 19.09375 48.734375 
L 19.78125 48.046875 
L 19.78125 8.796875 
Q 19.78125 7.078125 20.4375 5.953125 
Q 21.09375 4.828125 22.515625 4.296875 
Q 23.578125 3.859375 24.609375 3.59375 
Q 25.640625 3.328125 26.90625 3.21875 
z
M 20.75 67.71875 
Q 20.75 64.9375 18.921875 62.859375 
Q 17.09375 60.796875 14.40625 60.796875 
Q 11.921875 60.796875 10.078125 62.765625 
Q 8.25 64.75 8.25 67.28125 
Q 8.25 69.96875 10.078125 71.96875 
Q 11.921875 73.96875 14.40625 73.96875 
Q 17.1875 73.96875 18.96875 72.09375 
Q 20.75 70.21875 20.75 67.71875 
z
" id="Georgia-69"/>
     <path id="Georgia-20"/>
     <path d="M 49.125 0.875 
Q 46.828125 0.046875 45.09375 -0.46875 
Q 43.359375 -0.984375 41.15625 -0.984375 
Q 37.359375 -0.984375 35.078125 0.796875 
Q 32.8125 2.59375 32.171875 6 
L 31.890625 6 
Q 28.71875 2.484375 25.078125 0.625 
Q 21.4375 -1.21875 16.3125 -1.21875 
Q 10.890625 -1.21875 7.390625 2.09375 
Q 3.90625 5.421875 3.90625 10.796875 
Q 3.90625 13.578125 4.6875 15.765625 
Q 5.46875 17.96875 7.03125 19.734375 
Q 8.25 21.1875 10.25 22.328125 
Q 12.25 23.484375 14.015625 24.171875 
Q 16.21875 25 22.921875 27.25 
Q 29.640625 29.5 31.984375 30.765625 
L 31.984375 35.59375 
Q 31.984375 36.234375 31.71875 38.03125 
Q 31.453125 39.84375 30.5625 41.453125 
Q 29.59375 43.265625 27.8125 44.609375 
Q 26.03125 45.953125 22.75 45.953125 
Q 20.515625 45.953125 18.578125 45.1875 
Q 16.65625 44.4375 15.875 43.609375 
Q 15.875 42.625 16.328125 40.71875 
Q 16.796875 38.8125 16.796875 37.203125 
Q 16.796875 35.5 15.25 34.078125 
Q 13.71875 32.671875 10.984375 32.671875 
Q 8.546875 32.671875 7.390625 34.40625 
Q 6.25 36.140625 6.25 38.28125 
Q 6.25 40.53125 7.828125 42.578125 
Q 9.421875 44.625 11.96875 46.234375 
Q 14.15625 47.609375 17.28125 48.5625 
Q 20.40625 49.515625 23.390625 49.515625 
Q 27.484375 49.515625 30.53125 48.953125 
Q 33.59375 48.390625 36.078125 46.53125 
Q 38.578125 44.734375 39.859375 41.625 
Q 41.15625 38.53125 41.15625 33.640625 
Q 41.15625 26.65625 41.015625 21.265625 
Q 40.875 15.875 40.875 9.46875 
Q 40.875 7.5625 41.53125 6.4375 
Q 42.1875 5.328125 43.5625 4.546875 
Q 44.28125 4.109375 45.875 4.046875 
Q 47.46875 4 49.125 4 
z
M 32.078125 26.65625 
Q 27.9375 25.4375 24.8125 24.265625 
Q 21.6875 23.09375 19 21.34375 
Q 16.546875 19.671875 15.125 17.40625 
Q 13.71875 15.140625 13.71875 12.015625 
Q 13.71875 7.953125 15.84375 6.046875 
Q 17.96875 4.15625 21.234375 4.15625 
Q 24.703125 4.15625 27.34375 5.828125 
Q 29.984375 7.515625 31.78125 9.8125 
z
" id="Georgia-61"/>
     <path d="M 56.6875 0 
L 33.109375 0 
L 33.109375 3.21875 
Q 34.234375 3.328125 35.578125 3.421875 
Q 36.921875 3.515625 37.796875 3.8125 
Q 39.15625 4.25 39.8125 5.34375 
Q 40.484375 6.453125 40.484375 8.203125 
L 40.484375 32.953125 
Q 40.484375 38.09375 38.0625 40.875 
Q 35.640625 43.65625 32.171875 43.65625 
Q 29.59375 43.65625 27.4375 42.84375 
Q 25.296875 42.046875 23.640625 40.875 
Q 22.015625 39.75 21.0625 38.453125 
Q 20.125 37.15625 19.671875 36.375 
L 19.671875 8.6875 
Q 19.671875 7.03125 20.359375 5.953125 
Q 21.046875 4.890625 22.40625 4.296875 
Q 23.4375 3.8125 24.625 3.5625 
Q 25.828125 3.328125 27.09375 3.21875 
L 27.09375 0 
L 3.515625 0 
L 3.515625 3.21875 
Q 4.640625 3.328125 5.828125 3.421875 
Q 7.03125 3.515625 7.90625 3.8125 
Q 9.28125 4.25 9.9375 5.34375 
Q 10.59375 6.453125 10.59375 8.203125 
L 10.59375 37.9375 
Q 10.59375 39.59375 9.890625 40.984375 
Q 9.1875 42.390625 7.90625 43.265625 
Q 6.984375 43.84375 5.703125 44.109375 
Q 4.4375 44.390625 2.984375 44.484375 
L 2.984375 47.65625 
L 19 48.734375 
L 19.671875 48.046875 
L 19.671875 41.265625 
L 19.921875 41.265625 
Q 21.09375 42.4375 22.84375 44.0625 
Q 24.609375 45.703125 26.171875 46.734375 
Q 27.984375 47.90625 30.46875 48.6875 
Q 32.953125 49.46875 36.078125 49.46875 
Q 43.015625 49.46875 46.359375 45.140625 
Q 49.703125 40.828125 49.703125 33.640625 
L 49.703125 8.59375 
Q 49.703125 6.890625 50.28125 5.828125 
Q 50.875 4.78125 52.296875 4.203125 
Q 53.46875 3.71875 54.3125 3.515625 
Q 55.171875 3.328125 56.6875 3.21875 
z
" id="Georgia-6e"/>
     <path d="M 56.25 0.875 
L 39.453125 -0.203125 
L 38.71875 0.484375 
L 38.71875 4.984375 
L 38.328125 5.078125 
Q 35.796875 2.25 32.0625 0.4375 
Q 28.328125 -1.375 24.359375 -1.375 
Q 20.265625 -1.375 16.421875 0.453125 
Q 12.59375 2.296875 9.765625 5.609375 
Q 6.890625 8.984375 5.203125 13.71875 
Q 3.515625 18.453125 3.515625 24.171875 
Q 3.515625 29.390625 5.3125 34.078125 
Q 7.125 38.765625 10.296875 42.28125 
Q 13.28125 45.5625 17.59375 47.515625 
Q 21.921875 49.46875 26.421875 49.46875 
Q 29.78125 49.46875 33.03125 48.609375 
Q 36.28125 47.75 38.625 46.4375 
L 38.625 63.1875 
Q 38.625 65.234375 37.9375 66.921875 
Q 37.25 68.609375 36.03125 69.484375 
Q 34.671875 70.40625 32.34375 70.8125 
Q 30.03125 71.234375 27.34375 71.4375 
L 27.34375 74.46875 
L 47.015625 75.59375 
L 47.75 74.859375 
L 47.75 9.90625 
Q 47.75 8.203125 48.40625 7 
Q 49.078125 5.8125 50.34375 4.984375 
Q 51.265625 4.390625 53.015625 4.25 
Q 54.78125 4.109375 56.25 4.046875 
z
M 38.625 9.328125 
L 38.625 37.5 
Q 38.234375 38.765625 37.34375 40.234375 
Q 36.46875 41.703125 35.15625 42.921875 
Q 33.734375 44.140625 31.828125 44.9375 
Q 29.9375 45.75 27.390625 45.75 
Q 24.46875 45.75 22 44.234375 
Q 19.53125 42.71875 17.625 39.890625 
Q 15.828125 37.15625 14.765625 32.9375 
Q 13.71875 28.71875 13.71875 23.578125 
Q 13.71875 19.484375 14.5 16.140625 
Q 15.28125 12.796875 17.140625 9.90625 
Q 18.84375 7.171875 21.5 5.515625 
Q 24.171875 3.859375 27.828125 3.859375 
Q 31.734375 3.859375 34.296875 5.5625 
Q 36.859375 7.28125 38.625 9.328125 
z
" id="Georgia-64"/>
     <path d="M 85.984375 0 
L 62.5 0 
L 62.5 3.21875 
Q 63.625 3.328125 64.765625 3.421875 
Q 65.921875 3.515625 66.796875 3.8125 
Q 68.171875 4.25 68.828125 5.34375 
Q 69.484375 6.453125 69.484375 8.203125 
L 69.484375 33.0625 
Q 69.484375 38.140625 67.15625 40.890625 
Q 64.84375 43.65625 61.375 43.65625 
Q 58.984375 43.65625 56.875 42.921875 
Q 54.78125 42.1875 53.03125 40.875 
Q 51.609375 39.796875 50.65625 38.546875 
Q 49.703125 37.3125 49.21875 36.46875 
L 49.21875 8.6875 
Q 49.21875 6.984375 49.796875 5.875 
Q 50.390625 4.78125 51.8125 4.203125 
Q 52.9375 3.765625 53.828125 3.546875 
Q 54.734375 3.328125 56.203125 3.21875 
L 56.203125 0 
L 33.203125 0 
L 33.203125 3.21875 
Q 34.328125 3.328125 35.375 3.421875 
Q 36.421875 3.515625 37.3125 3.8125 
Q 38.671875 4.25 39.328125 5.34375 
Q 39.984375 6.453125 39.984375 8.203125 
L 39.984375 33.0625 
Q 39.984375 38.140625 37.671875 40.890625 
Q 35.359375 43.65625 31.890625 43.65625 
Q 29.5 43.65625 27.390625 42.890625 
Q 25.296875 42.140625 23.53125 40.828125 
Q 22.125 39.75 21.140625 38.40625 
Q 20.171875 37.0625 19.671875 36.375 
L 19.671875 8.796875 
Q 19.671875 7.125 20.359375 6 
Q 21.046875 4.890625 22.40625 4.296875 
Q 23.4375 3.8125 24.515625 3.5625 
Q 25.59375 3.328125 26.90625 3.21875 
L 26.90625 0 
L 3.515625 0 
L 3.515625 3.21875 
Q 4.640625 3.328125 5.828125 3.421875 
Q 7.03125 3.515625 7.90625 3.8125 
Q 9.28125 4.25 9.9375 5.34375 
Q 10.59375 6.453125 10.59375 8.203125 
L 10.59375 38.140625 
Q 10.59375 39.703125 9.890625 40.9375 
Q 9.1875 42.1875 7.90625 43.0625 
Q 6.984375 43.65625 5.609375 44.015625 
Q 4.25 44.390625 2.78125 44.484375 
L 2.78125 47.65625 
L 18.890625 48.734375 
L 19.578125 48.046875 
L 19.578125 41.15625 
L 19.921875 41.15625 
Q 21.140625 42.390625 22.890625 44.046875 
Q 24.65625 45.703125 26.171875 46.734375 
Q 27.875 47.90625 30.4375 48.6875 
Q 33.015625 49.46875 35.984375 49.46875 
Q 40.671875 49.46875 44.03125 46.953125 
Q 47.40625 44.4375 48.875 40.875 
Q 50.640625 42.578125 51.984375 43.875 
Q 53.328125 45.171875 55.515625 46.625 
Q 57.375 47.90625 59.890625 48.6875 
Q 62.40625 49.46875 65.484375 49.46875 
Q 71.578125 49.46875 75.140625 45.453125 
Q 78.71875 41.453125 78.71875 33.15625 
L 78.71875 8.6875 
Q 78.71875 6.984375 79.296875 5.875 
Q 79.890625 4.78125 81.296875 4.203125 
Q 82.421875 3.765625 83.515625 3.546875 
Q 84.625 3.328125 85.984375 3.21875 
z
" id="Georgia-6d"/>
     <path d="M 47.515625 42.4375 
Q 50.390625 39.015625 51.96875 34.5 
Q 53.5625 29.984375 53.5625 24.171875 
Q 53.5625 18.453125 51.65625 13.734375 
Q 49.75 9.03125 46.625 5.71875 
Q 43.359375 2.34375 39.359375 0.53125 
Q 35.359375 -1.265625 30.859375 -1.265625 
Q 26.515625 -1.265625 23.734375 -0.28125 
Q 20.953125 0.6875 19.1875 2 
L 18.796875 2 
L 18.796875 -12.453125 
Q 18.796875 -14.203125 19.484375 -15.375 
Q 20.171875 -16.546875 21.578125 -17.09375 
Q 22.75 -17.53125 24.921875 -17.9375 
Q 27.09375 -18.359375 28.515625 -18.40625 
L 28.515625 -21.6875 
L 1.609375 -21.6875 
L 1.609375 -18.40625 
Q 3.125 -18.3125 4.53125 -18.15625 
Q 5.953125 -18.015625 7.078125 -17.671875 
Q 8.546875 -17.1875 9.125 -15.96875 
Q 9.71875 -14.75 9.71875 -13.09375 
L 9.71875 38.140625 
Q 9.71875 39.59375 8.984375 40.953125 
Q 8.25 42.328125 7.078125 43.171875 
Q 6.203125 43.75 4.640625 44.0625 
Q 3.078125 44.390625 1.609375 44.484375 
L 1.609375 47.65625 
L 18.015625 48.734375 
L 18.703125 48.140625 
L 18.703125 42.71875 
L 19.09375 42.625 
Q 21.625 45.5625 25.390625 47.515625 
Q 29.15625 49.46875 32.859375 49.46875 
Q 37.359375 49.46875 41.09375 47.5625 
Q 44.828125 45.65625 47.515625 42.4375 
z
M 39.546875 7.8125 
Q 41.5 10.84375 42.421875 14.84375 
Q 43.359375 18.84375 43.359375 23.78125 
Q 43.359375 27.390625 42.578125 31.140625 
Q 41.796875 34.90625 40.140625 37.703125 
Q 38.484375 40.53125 35.796875 42.28125 
Q 33.109375 44.046875 29.34375 44.046875 
Q 25.734375 44.046875 23.1875 42.453125 
Q 20.65625 40.875 18.796875 38.671875 
L 18.796875 10.203125 
Q 19.234375 8.890625 20.234375 7.46875 
Q 21.234375 6.0625 22.46875 5.03125 
Q 23.96875 3.8125 25.71875 3.046875 
Q 27.484375 2.296875 30.03125 2.296875 
Q 32.765625 2.296875 35.296875 3.734375 
Q 37.84375 5.171875 39.546875 7.8125 
z
" id="Georgia-70"/>
     <path d="M 26.078125 0 
L 2.59375 0 
L 2.59375 3.21875 
Q 3.71875 3.328125 4.984375 3.4375 
Q 6.25 3.5625 7.078125 3.8125 
Q 8.453125 4.25 9.125 5.34375 
Q 9.8125 6.453125 9.8125 8.203125 
L 9.8125 63.96875 
Q 9.8125 65.71875 9.046875 67.25 
Q 8.296875 68.796875 7.078125 69.671875 
Q 6.203125 70.265625 3.859375 70.75 
Q 1.515625 71.234375 0.09375 71.34375 
L 0.09375 74.46875 
L 18.21875 75.59375 
L 18.890625 74.859375 
L 18.890625 8.796875 
Q 18.890625 7.078125 19.53125 5.984375 
Q 20.171875 4.890625 21.578125 4.296875 
Q 22.65625 3.8125 23.703125 3.5625 
Q 24.75 3.328125 26.078125 3.21875 
z
" id="Georgia-6c"/>
    </defs>
    <g transform="translate(89.3275 24.8)scale(0.18 -0.18)">
     <use xlink:href="#Georgia-50"/>
     <use x="60.986328" xlink:href="#Georgia-6f"/>
     <use x="114.892578" xlink:href="#Georgia-73"/>
     <use x="158.105469" xlink:href="#Georgia-74"/>
     <use x="192.626953" xlink:href="#Georgia-65"/>
     <use x="240.966797" xlink:href="#Georgia-72"/>
     <use x="281.933594" xlink:href="#Georgia-69"/>
     <use x="311.230469" xlink:href="#Georgia-6f"/>
     <use x="365.136719" xlink:href="#Georgia-72"/>
     <use x="406.103516" xlink:href="#Georgia-20"/>
     <use x="430.224609" xlink:href="#Georgia-61"/>
     <use x="480.615234" xlink:href="#Georgia-6e"/>
     <use x="539.697266" xlink:href="#Georgia-64"/>
     <use x="597.119141" xlink:href="#Georgia-20"/>
     <use x="621.240234" xlink:href="#Georgia-73"/>
     <use x="664.453125" xlink:href="#Georgia-61"/>
     <use x="714.84375" xlink:href="#Georgia-6d"/>
     <use x="802.929688" xlink:href="#Georgia-70"/>
     <use x="860.058594" xlink:href="#Georgia-6c"/>
     <use x="888.671875" xlink:href="#Georgia-65"/>
     <use x="937.011719" xlink:href="#Georgia-73"/>
    </g>
   </g>
  </g>
  <g id="axes_2">
   <g id="patch_7">
    <path d="M 351.825 237.6 
L 561.7 237.6 
L 561.7 30.8 
L 351.825 30.8 
z
" style="fill:#ffffff;"/>
   </g>
   <g id="matplotlib.axis_3">
    <g id="xtick_6">
     <g id="line2d_12">
      <g>
       <use style="stroke:#000000;stroke-width:0.8;" x="361.173786" xlink:href="#m9d7fbc8033" y="237.6"/>
      </g>
     </g>
     <g id="text_14">
      <!-- 0 -->
      <g transform="translate(357.491286 253.67125)scale(0.12 -0.12)">
       <use xlink:href="#Georgia-30"/>
      </g>
     </g>
    </g>
    <g id="xtick_7">
     <g id="line2d_13">
      <g>
       <use style="stroke:#000000;stroke-width:0.8;" x="408.920397" xlink:href="#m9d7fbc8033" y="237.6"/>
      </g>
     </g>
     <g id="text_15">
      <!-- 25 -->
      <g transform="translate(402.399147 253.67125)scale(0.12 -0.12)">
       <use xlink:href="#Georgia-32"/>
       <use x="55.859375" xlink:href="#Georgia-35"/>
      </g>
     </g>
    </g>
    <g id="xtick_8">
     <g id="line2d_14">
      <g>
       <use style="stroke:#000000;stroke-width:0.8;" x="456.667007" xlink:href="#m9d7fbc8033" y="237.6"/>
      </g>
     </g>
     <g id="text_16">
      <!-- 50 -->
      <g transform="translate(449.814819 253.67125)scale(0.12 -0.12)">
       <use xlink:href="#Georgia-35"/>
       <use x="52.832031" xlink:href="#Georgia-30"/>
      </g>
     </g>
    </g>
    <g id="xtick_9">
     <g id="line2d_15">
      <g>
       <use style="stroke:#000000;stroke-width:0.8;" x="504.413617" xlink:href="#m9d7fbc8033" y="237.6"/>
      </g>
     </g>
     <g id="text_17">
      <!-- 75 -->
      <g transform="translate(498.22893 253.67125)scale(0.12 -0.12)">
       <use xlink:href="#Georgia-37"/>
       <use x="50.244141" xlink:href="#Georgia-35"/>
      </g>
     </g>
    </g>
    <g id="xtick_10">
     <g id="line2d_16">
      <g>
       <use style="stroke:#000000;stroke-width:0.8;" x="552.160227" xlink:href="#m9d7fbc8033" y="237.6"/>
      </g>
     </g>
     <g id="text_18">
      <!-- 100 -->
      <g transform="translate(542.217102 253.67125)scale(0.12 -0.12)">
       <use xlink:href="#Georgia-31"/>
       <use x="42.96875" xlink:href="#Georgia-30"/>
       <use x="104.345703" xlink:href="#Georgia-30"/>
      </g>
     </g>
    </g>
    <g id="text_19">
     <!-- $x^\star$ -->
     <defs>
      <path d="M 66.5 36.5 
L 43.90625 22.796875 
L 54.59375 -1.296875 
L 35 16.59375 
L 15.40625 -1.296875 
L 26.09375 22.796875 
L 3.5 36.5 
L 29.703125 33.5 
L 35 59.703125 
L 40.296875 33.5 
z
" id="STIXGeneral-Regular-22c6"/>
     </defs>
     <g transform="translate(446.7625 272.36875)scale(0.16 -0.16)">
      <use transform="translate(0 0.932813)" xlink:href="#STIXGeneral-Italic-78"/>
      <use transform="translate(60.681116 36.207813)scale(0.7)" xlink:href="#STIXGeneral-Regular-22c6"/>
     </g>
    </g>
   </g>
   <g id="matplotlib.axis_4">
    <g id="ytick_6">
     <g id="line2d_17">
      <g>
       <use style="stroke:#000000;stroke-width:0.8;" x="351.825" xlink:href="#m9bf66fd42c" y="228.308804"/>
      </g>
     </g>
     <g id="text_20">
      <!-- 0.00 -->
      <g transform="translate(319.495625 232.844429)scale(0.12 -0.12)">
       <use xlink:href="#Georgia-30"/>
       <use x="61.376953" xlink:href="#Georgia-2e"/>
       <use x="88.330078" xlink:href="#Georgia-30"/>
       <use x="149.707031" xlink:href="#Georgia-30"/>
      </g>
     </g>
    </g>
    <g id="ytick_7">
     <g id="line2d_18">
      <g>
       <use style="stroke:#000000;stroke-width:0.8;" x="351.825" xlink:href="#m9bf66fd42c" y="177.51802"/>
      </g>
     </g>
     <g id="text_21">
      <!-- 0.02 -->
      <g transform="translate(320.1575 182.053645)scale(0.12 -0.12)">
       <use xlink:href="#Georgia-30"/>
       <use x="61.376953" xlink:href="#Georgia-2e"/>
       <use x="88.330078" xlink:href="#Georgia-30"/>
       <use x="149.707031" xlink:href="#Georgia-32"/>
      </g>
     </g>
    </g>
    <g id="ytick_8">
     <g id="line2d_19">
      <g>
       <use style="stroke:#000000;stroke-width:0.8;" x="351.825" xlink:href="#m9bf66fd42c" y="126.727235"/>
      </g>
     </g>
     <g id="text_22">
      <!-- 0.04 -->
      <defs>
       <path d="M 52.9375 4.390625 
L 43.015625 4.390625 
L 43.015625 -17.828125 
L 33.640625 -17.828125 
L 33.640625 4.390625 
L 2.390625 4.390625 
L 2.390625 11.921875 
L 36.625 53.65625 
L 43.015625 53.65625 
L 43.015625 10.796875 
L 52.9375 10.796875 
z
M 33.640625 10.796875 
L 33.640625 42.78125 
L 7.28125 10.796875 
z
" id="Georgia-34"/>
      </defs>
      <g transform="translate(320.080625 131.26286)scale(0.12 -0.12)">
       <use xlink:href="#Georgia-30"/>
       <use x="61.376953" xlink:href="#Georgia-2e"/>
       <use x="88.330078" xlink:href="#Georgia-30"/>
       <use x="149.707031" xlink:href="#Georgia-34"/>
      </g>
     </g>
    </g>
    <g id="ytick_9">
     <g id="line2d_20">
      <g>
       <use style="stroke:#000000;stroke-width:0.8;" x="351.825" xlink:href="#m9bf66fd42c" y="75.936451"/>
      </g>
     </g>
     <g id="text_23">
      <!-- 0.06 -->
      <defs>
       <path d="M 52.484375 22.515625 
Q 52.484375 17.4375 50.65625 12.984375 
Q 48.828125 8.546875 45.75 5.421875 
Q 42.1875 1.859375 37.859375 0.140625 
Q 33.546875 -1.5625 28.859375 -1.5625 
Q 23.4375 -1.5625 19.046875 0.4375 
Q 14.65625 2.4375 11.578125 6.109375 
Q 8.453125 9.8125 6.734375 15.1875 
Q 5.03125 20.5625 5.03125 27.25 
Q 5.03125 44.671875 15.40625 56.640625 
Q 25.78125 68.609375 43.21875 71 
L 44.09375 66.609375 
L 39.703125 65.828125 
Q 29.109375 62.40625 23.3125 55.171875 
Q 17.53125 47.953125 15.828125 37.640625 
Q 20.015625 41.3125 24.109375 42.828125 
Q 28.21875 44.34375 32.765625 44.34375 
Q 40.921875 44.34375 46.703125 38.09375 
Q 52.484375 31.84375 52.484375 22.515625 
z
M 41.890625 21.1875 
Q 41.890625 29.109375 38.25 33.890625 
Q 34.625 38.671875 28.515625 38.671875 
Q 24.859375 38.671875 21.703125 37.296875 
Q 18.5625 35.9375 15.625 32.71875 
Q 15.578125 32.125 15.46875 30 
Q 15.375 27.875 15.375 26.65625 
Q 15.375 15.234375 19.109375 8.765625 
Q 22.859375 2.296875 28.953125 2.296875 
Q 34.765625 2.296875 38.328125 7.34375 
Q 41.890625 12.40625 41.890625 21.1875 
z
" id="Georgia-36"/>
      </defs>
      <g transform="translate(320.069375 80.472076)scale(0.12 -0.12)">
       <use xlink:href="#Georgia-30"/>
       <use x="61.376953" xlink:href="#Georgia-2e"/>
       <use x="88.330078" xlink:href="#Georgia-30"/>
       <use x="149.707031" xlink:href="#Georgia-36"/>
      </g>
     </g>
    </g>
    <g id="text_24">
     <!-- $p(x^\star \mid \lambda)$ -->
     <g transform="translate(312.025625 161.64)rotate(-90)scale(0.16 -0.16)">
      <use transform="translate(0 0.932813)" xlink:href="#STIXGeneral-Italic-70"/>
      <use transform="translate(50.399994 0.932813)" xlink:href="#STIXGeneral-Regular-28"/>
      <use transform="translate(83.699982 0.932813)" xlink:href="#STIXGeneral-Italic-78"/>
      <use transform="translate(144.381098 36.207813)scale(0.7)" xlink:href="#STIXGeneral-Regular-22c6"/>
      <use transform="translate(222.338456 0.932813)" xlink:href="#STIXGeneral-Regular-2223"/>
      <use transform="translate(263.378443 0.932813)" xlink:href="#STIXGeneral-Italic-3bb"/>
      <use transform="translate(309.178431 0.932813)" xlink:href="#STIXGeneral-Regular-29"/>
     </g>
    </g>
   </g>
   <g id="line2d_21">
    <path clip-path="url(#p6ecb911dd0)" d="M 361.364773 40.2 
L 364.241086 60.196837 
L 367.117399 78.067917 
L 369.993713 94.039219 
L 372.870026 108.312697 
L 375.74634 121.068839 
L 378.622653 132.468943 
L 381.498966 142.657164 
L 384.37528 151.76233 
L 387.251593 159.899575 
L 390.127907 167.171792 
L 393.00422 173.67094 
L 395.880533 179.479198 
L 398.756847 184.670011 
L 401.63316 189.309017 
L 404.509474 193.454875 
L 407.385787 197.160009 
L 410.2621 200.47127 
L 413.138414 203.430529 
L 416.014727 206.075204 
L 418.89104 208.438739 
L 421.767354 210.551019 
L 424.643667 212.438754 
L 428.478752 214.647327 
L 432.313836 216.548542 
L 436.148921 218.185172 
L 439.984005 219.594039 
L 444.777861 221.082689 
L 449.571717 222.317049 
L 454.365572 223.340557 
L 460.118199 224.340708 
L 466.829597 225.256055 
L 474.499766 226.046611 
L 483.128706 226.69408 
L 493.675188 227.239438 
L 506.139213 227.65173 
L 522.438322 227.961251 
L 546.407601 228.172576 
L 552.160227 228.2 
L 552.160227 228.2 
" style="fill:none;stroke:#ff0000;stroke-linecap:square;stroke-width:1.5;"/>
   </g>
   <g id="line2d_22">
    <path clip-path="url(#p6ecb911dd0)" d="M 361.364773 201.910282 
L 378.622653 204.27938 
L 396.839304 206.549829 
L 416.014727 208.708409 
L 436.148921 210.74484 
L 457.241886 212.651696 
L 479.293622 214.424251 
L 503.2629 216.124103 
L 529.14972 217.72698 
L 552.160227 218.97385 
L 552.160227 218.97385 
" style="fill:none;stroke:#008000;stroke-linecap:square;stroke-width:1.5;"/>
   </g>
   <g id="line2d_23">
    <path clip-path="url(#p6ecb911dd0)" d="M 361.364773 149.928339 
L 365.199857 154.652753 
L 369.034942 159.092401 
L 373.828797 164.267559 
L 378.622653 169.055781 
L 383.416509 173.485999 
L 388.210364 177.584978 
L 393.00422 181.377487 
L 397.798076 184.886438 
L 402.591931 188.133032 
L 407.385787 191.136886 
L 412.179643 193.916148 
L 417.932269 196.978356 
L 423.684896 199.767915 
L 429.437523 202.309101 
L 435.19015 204.624028 
L 441.901548 207.065585 
L 448.612945 209.255453 
L 455.324343 211.219577 
L 462.994512 213.21761 
L 470.664681 214.982038 
L 479.293622 216.721668 
L 487.922562 218.234212 
L 497.510273 219.684403 
L 508.056755 221.039705 
L 519.562009 222.276512 
L 532.026034 223.380082 
L 545.448829 224.343866 
L 552.160227 224.752594 
L 552.160227 224.752594 
" style="fill:none;stroke:#0000ff;stroke-linecap:square;stroke-width:1.5;"/>
   </g>
   <g id="patch_8">
    <path d="M 351.825 237.6 
L 351.825 30.8 
" style="fill:none;stroke:#000000;stroke-linecap:square;stroke-linejoin:miter;stroke-width:0.8;"/>
   </g>
   <g id="patch_9">
    <path d="M 561.7 237.6 
L 561.7 30.8 
" style="fill:none;stroke:#000000;stroke-linecap:square;stroke-linejoin:miter;stroke-width:0.8;"/>
   </g>
   <g id="patch_10">
    <path d="M 351.825 237.6 
L 561.7 237.6 
" style="fill:none;stroke:#000000;stroke-linecap:square;stroke-linejoin:miter;stroke-width:0.8;"/>
   </g>
   <g id="patch_11">
    <path d="M 351.825 30.8 
L 561.7 30.8 
" style="fill:none;stroke:#000000;stroke-linecap:square;stroke-linejoin:miter;stroke-width:0.8;"/>
   </g>
   <g id="text_25">
    <!-- Likelihoods -->
    <defs>
     <path d="M 60.40625 20.609375 
L 58.9375 0 
L 4.78125 0 
L 4.78125 3.46875 
Q 5.953125 3.5625 8.171875 3.796875 
Q 10.40625 4.046875 11.28125 4.4375 
Q 12.75 5.078125 13.40625 6.296875 
Q 14.0625 7.515625 14.0625 9.421875 
L 14.0625 59.03125 
Q 14.0625 60.6875 13.5 61.953125 
Q 12.9375 63.234375 11.28125 64.015625 
Q 10.15625 64.59375 8.125 65.15625 
Q 6.109375 65.71875 4.78125 65.828125 
L 4.78125 69.28125 
L 34.03125 69.28125 
L 34.03125 65.828125 
Q 32.671875 65.765625 30.5 65.328125 
Q 28.328125 64.890625 27.34375 64.546875 
Q 25.6875 63.96875 25.078125 62.546875 
Q 24.46875 61.140625 24.46875 59.515625 
L 24.46875 12.984375 
Q 24.46875 9.765625 24.78125 7.984375 
Q 25.09375 6.203125 26.265625 5.21875 
Q 27.390625 4.34375 29.609375 4.078125 
Q 31.84375 3.8125 35.84375 3.8125 
Q 37.640625 3.8125 39.59375 3.90625 
Q 41.546875 4 43.3125 4.296875 
Q 45.015625 4.59375 46.453125 5.09375 
Q 47.90625 5.609375 48.578125 6.390625 
Q 50.59375 8.640625 53.25 13.203125 
Q 55.90625 17.78125 56.9375 20.609375 
z
" id="Georgia-4c"/>
     <path d="M 54.546875 0 
L 39.984375 0 
Q 36.1875 5.515625 31.828125 11.8125 
Q 27.484375 18.109375 22.796875 24.078125 
L 18.796875 20.3125 
L 18.796875 8.890625 
Q 18.796875 7.125 19.421875 5.96875 
Q 20.0625 4.828125 21.484375 4.296875 
Q 22.65625 3.8125 23.734375 3.5625 
Q 24.8125 3.328125 26.21875 3.21875 
L 26.21875 0 
L 2.59375 0 
L 2.59375 3.21875 
Q 3.71875 3.328125 4.9375 3.4375 
Q 6.15625 3.5625 6.984375 3.8125 
Q 8.34375 4.25 9.03125 5.34375 
Q 9.71875 6.453125 9.71875 8.203125 
L 9.71875 64.15625 
Q 9.71875 65.96875 8.953125 67.546875 
Q 8.203125 69.140625 6.984375 69.96875 
Q 5.953125 70.75 3.78125 70.984375 
Q 1.609375 71.234375 0.296875 71.34375 
L 0.296875 74.46875 
L 18.109375 75.59375 
L 18.796875 74.859375 
L 18.796875 23.921875 
Q 22.609375 27.734375 27.03125 32.09375 
Q 31.453125 36.46875 34.46875 39.890625 
Q 34.859375 40.328125 35.328125 41.03125 
Q 35.796875 41.75 35.796875 42.1875 
Q 35.796875 43.5 33.671875 44.140625 
Q 31.546875 44.78125 29.59375 45.015625 
L 29.59375 48.140625 
L 50.78125 48.140625 
L 50.78125 45.125 
Q 46.6875 43.890625 43.53125 42.0625 
Q 40.375 40.234375 38.71875 38.765625 
Q 37.546875 37.796875 35.390625 35.59375 
Q 33.25 33.40625 29.390625 29.828125 
Q 33.40625 24.90625 38.40625 18.015625 
Q 43.40625 11.140625 45.703125 8.0625 
Q 47.859375 5.171875 49.5625 4.296875 
Q 51.265625 3.421875 54.546875 3.21875 
z
" id="Georgia-6b"/>
     <path d="M 55.8125 0 
L 32.171875 0 
L 32.171875 3.21875 
Q 33.296875 3.328125 34.65625 3.421875 
Q 36.03125 3.515625 36.921875 3.8125 
Q 38.28125 4.25 38.9375 5.34375 
Q 39.59375 6.453125 39.59375 8.203125 
L 39.59375 32.953125 
Q 39.59375 38.09375 37.171875 40.875 
Q 34.765625 43.65625 31.296875 43.65625 
Q 28.765625 43.65625 26.59375 42.84375 
Q 24.421875 42.046875 22.703125 40.875 
Q 21.046875 39.65625 20.15625 38.421875 
Q 19.28125 37.203125 18.796875 36.375 
L 18.796875 8.6875 
Q 18.796875 7.03125 19.453125 5.953125 
Q 20.125 4.890625 21.484375 4.296875 
Q 22.5625 3.8125 23.703125 3.5625 
Q 24.859375 3.328125 26.21875 3.21875 
L 26.21875 0 
L 2.59375 0 
L 2.59375 3.21875 
Q 3.71875 3.328125 4.9375 3.4375 
Q 6.15625 3.5625 6.984375 3.8125 
Q 8.34375 4.25 9.03125 5.34375 
Q 9.71875 6.453125 9.71875 8.203125 
L 9.71875 64.265625 
Q 9.71875 65.921875 8.953125 67.578125 
Q 8.203125 69.234375 6.984375 70.0625 
Q 6.109375 70.703125 3.875 70.96875 
Q 1.65625 71.234375 0.296875 71.34375 
L 0.296875 74.46875 
L 18.109375 75.59375 
L 18.796875 74.859375 
L 18.796875 41.265625 
L 19 41.265625 
Q 20.609375 42.875 21.921875 44.109375 
Q 23.25 45.359375 25.390625 46.734375 
Q 27.25 47.90625 29.765625 48.6875 
Q 32.28125 49.46875 35.40625 49.46875 
Q 41.84375 49.46875 45.3125 45.390625 
Q 48.78125 41.3125 48.78125 33.640625 
L 48.78125 8.59375 
Q 48.78125 6.890625 49.390625 5.828125 
Q 50 4.78125 51.421875 4.203125 
Q 52.546875 3.765625 53.4375 3.546875 
Q 54.34375 3.328125 55.8125 3.21875 
z
" id="Georgia-68"/>
    </defs>
    <g transform="translate(410.31125 24.8)scale(0.18 -0.18)">
     <use xlink:href="#Georgia-4c"/>
     <use x="60.351562" xlink:href="#Georgia-69"/>
     <use x="89.648438" xlink:href="#Georgia-6b"/>
     <use x="143.212891" xlink:href="#Georgia-65"/>
     <use x="191.552734" xlink:href="#Georgia-6c"/>
     <use x="220.166016" xlink:href="#Georgia-69"/>
     <use x="249.462891" xlink:href="#Georgia-68"/>
     <use x="307.666016" xlink:href="#Georgia-6f"/>
     <use x="361.572266" xlink:href="#Georgia-6f"/>
     <use x="415.478516" xlink:href="#Georgia-64"/>
     <use x="472.900391" xlink:href="#Georgia-73"/>
    </g>
   </g>
  </g>
 </g>
 <defs>
  <clipPath id="p360ed32d63">
   <rect height="206.8" width="209.875" x="72.6125" y="30.8"/>
  </clipPath>
  <clipPath id="p6ecb911dd0">
   <rect height="206.8" width="209.875" x="351.825" y="30.8"/>
  </clipPath>
 </defs>
</svg>
