<?xml version="1.0" encoding="utf-8" standalone="no"?>
<!DOCTYPE svg PUBLIC "-//W3C//DTD SVG 1.1//EN"
  "http://www.w3.org/Graphics/SVG/1.1/DTD/svg11.dtd">
<!-- Created with matplotlib (http://matplotlib.org/) -->
<svg height="288pt" version="1.1" viewBox="0 0 432 288" width="432pt" xmlns="http://www.w3.org/2000/svg" xmlns:xlink="http://www.w3.org/1999/xlink">
 <defs>
  <style type="text/css">
*{stroke-linecap:butt;stroke-linejoin:round;}
  </style>
 </defs>
 <g id="figure_1">
  <g id="patch_1">
   <path d="M 0 288 
L 432 288 
L 432 0 
L 0 0 
z
" style="fill:#ffffff;"/>
  </g>
  <g id="axes_1">
   <g id="patch_2">
    <path d="M 54 252 
L 388.8 252 
L 388.8 34.56 
L 54 34.56 
z
" style="fill:#ffffff;"/>
   </g>
   <g id="matplotlib.axis_1">
    <g id="xtick_1">
     <g id="line2d_1">
      <defs>
       <path d="M 0 0 
L 0 3.5 
" id="m09586868d4" style="stroke:#000000;stroke-width:0.8;"/>
      </defs>
      <g>
       <use style="stroke:#000000;stroke-width:0.8;" x="69.218182" xlink:href="#m09586868d4" y="252"/>
      </g>
     </g>
     <g id="text_1">
      <!-- 0 -->
      <defs>
       <path d="M 50.140625 45.609375 
Q 53.265625 41.84375 54.796875 36.78125 
Q 56.34375 31.734375 56.34375 26.21875 
Q 56.34375 19.578125 54.4375 14.328125 
Q 52.546875 9.078125 49.21875 5.609375 
Q 45.796875 2.046875 41.109375 0.234375 
Q 36.421875 -1.5625 30.671875 -1.5625 
Q 24.359375 -1.5625 19.421875 0.53125 
Q 14.5 2.640625 11.421875 6.296875 
Q 8.203125 10.109375 6.609375 15.203125 
Q 5.03125 20.3125 5.03125 26.21875 
Q 5.03125 32.03125 6.5625 36.90625 
Q 8.109375 41.796875 11.375 45.75 
Q 14.5 49.5625 19.421875 51.75 
Q 24.359375 53.953125 30.71875 53.953125 
Q 37.40625 53.953125 42.1875 51.703125 
Q 46.96875 49.46875 50.140625 45.609375 
z
M 45.5625 26.21875 
Q 45.5625 37.84375 41.578125 44.234375 
Q 37.59375 50.640625 30.765625 50.640625 
Q 23.828125 50.640625 19.828125 44.234375 
Q 15.828125 37.84375 15.828125 26.21875 
Q 15.828125 15.1875 19.65625 8.46875 
Q 23.484375 1.765625 30.671875 1.765625 
Q 37.84375 1.765625 41.703125 8.46875 
Q 45.5625 15.1875 45.5625 26.21875 
z
" id="Georgia-30"/>
      </defs>
      <g transform="translate(65.535682 268.07125)scale(0.12 -0.12)">
       <use xlink:href="#Georgia-30"/>
      </g>
     </g>
    </g>
    <g id="xtick_2">
     <g id="line2d_2">
      <g>
       <use style="stroke:#000000;stroke-width:0.8;" x="130.090909" xlink:href="#m09586868d4" y="252"/>
      </g>
     </g>
     <g id="text_2">
      <!-- 10 -->
      <defs>
       <path d="M 39.5 0 
L 6.59375 0 
L 6.59375 3.46875 
Q 8.0625 3.5625 11.15625 3.875 
Q 14.265625 4.203125 15.4375 4.546875 
Q 16.9375 5.03125 17.75 6.125 
Q 18.5625 7.234375 18.5625 9.421875 
L 18.5625 43.703125 
L 6.390625 43.703125 
L 6.390625 47.796875 
L 9.078125 47.796875 
Q 14.359375 47.796875 18.53125 49.75 
Q 22.703125 51.703125 24.515625 53.953125 
L 28.5625 53.953125 
Q 28.421875 50.78125 28.265625 46.53125 
Q 28.125 42.28125 28.125 38.921875 
L 28.125 9.96875 
Q 28.125 8.25 28.875 6.90625 
Q 29.640625 5.5625 31.0625 4.9375 
Q 32.328125 4.390625 35.203125 3.953125 
Q 38.09375 3.515625 39.5 3.46875 
z
" id="Georgia-31"/>
      </defs>
      <g transform="translate(123.830284 268.07125)scale(0.12 -0.12)">
       <use xlink:href="#Georgia-31"/>
       <use x="42.96875" xlink:href="#Georgia-30"/>
      </g>
     </g>
    </g>
    <g id="xtick_3">
     <g id="line2d_3">
      <g>
       <use style="stroke:#000000;stroke-width:0.8;" x="190.963636" xlink:href="#m09586868d4" y="252"/>
      </g>
     </g>
     <g id="text_3">
      <!-- 20 -->
      <defs>
       <path d="M 51.125 0 
L 5.375 0 
L 5.375 6.640625 
Q 6.6875 8.15625 9.03125 10.03125 
Q 11.375 11.921875 14.59375 14.109375 
Q 16.546875 15.4375 19.28125 17 
Q 22.015625 18.5625 25.484375 20.40625 
Q 29.34375 22.46875 31.421875 24.03125 
Q 33.5 25.59375 35.203125 27.875 
Q 36.328125 29.390625 37.015625 31.65625 
Q 37.703125 33.9375 37.703125 38.140625 
Q 37.703125 44.234375 34.421875 47.09375 
Q 31.15625 49.953125 26.03125 49.953125 
Q 22.859375 49.953125 20.015625 48.703125 
Q 17.1875 47.46875 15.765625 45.265625 
Q 16.109375 43.703125 16.625 41.546875 
Q 17.140625 39.40625 17.140625 37.359375 
Q 17.140625 35.5 15.59375 34.0625 
Q 14.0625 32.625 11.03125 32.625 
Q 8.59375 32.625 7.265625 34.296875 
Q 5.953125 35.984375 5.953125 38.8125 
Q 5.953125 41.453125 7.421875 44.109375 
Q 8.890625 46.78125 11.625 49.03125 
Q 14.3125 51.21875 18.265625 52.578125 
Q 22.21875 53.953125 26.8125 53.953125 
Q 36.8125 53.953125 42.6875 49.484375 
Q 48.578125 45.015625 48.578125 37.546875 
Q 48.578125 33.984375 47.53125 31.046875 
Q 46.484375 28.125 44.140625 25.875 
Q 41.546875 23.390625 38.078125 21.609375 
Q 34.625 19.828125 27.484375 16.65625 
Q 23.25 14.75 19.578125 12.671875 
Q 15.921875 10.59375 13.578125 8.640625 
L 51.125 8.640625 
z
" id="Georgia-32"/>
      </defs>
      <g transform="translate(183.929574 268.07125)scale(0.12 -0.12)">
       <use xlink:href="#Georgia-32"/>
       <use x="55.859375" xlink:href="#Georgia-30"/>
      </g>
     </g>
    </g>
    <g id="xtick_4">
     <g id="line2d_4">
      <g>
       <use style="stroke:#000000;stroke-width:0.8;" x="251.836364" xlink:href="#m09586868d4" y="252"/>
      </g>
     </g>
     <g id="text_4">
      <!-- 30 -->
      <defs>
       <path d="M 23.78125 -17.828125 
Q 19.1875 -17.828125 15.375 -16.671875 
Q 11.578125 -15.53125 8.84375 -13.578125 
Q 6.109375 -11.625 4.609375 -9.078125 
Q 3.125 -6.546875 3.125 -3.859375 
Q 3.125 -1.46875 4.296875 0.453125 
Q 5.46875 2.390625 8.0625 2.390625 
Q 10.984375 2.390625 12.515625 0.953125 
Q 14.0625 -0.484375 14.0625 -2.34375 
Q 14.0625 -3.90625 13.546875 -6.296875 
Q 13.03125 -8.6875 12.75 -9.71875 
Q 13.09375 -10.15625 13.984375 -10.890625 
Q 14.890625 -11.625 16.21875 -12.203125 
Q 17.78125 -12.9375 19.484375 -13.375 
Q 21.1875 -13.8125 24.3125 -13.8125 
Q 27.25 -13.8125 29.953125 -12.828125 
Q 32.671875 -11.859375 34.71875 -9.71875 
Q 36.859375 -7.46875 38.0625 -4.46875 
Q 39.265625 -1.46875 39.265625 3.421875 
Q 39.265625 6.0625 38.703125 8.640625 
Q 38.140625 11.234375 36.625 13.140625 
Q 35.109375 15.046875 32.5 16.09375 
Q 29.890625 17.140625 25.875 17.140625 
L 19.484375 17.140625 
L 19.484375 22.75 
L 23.734375 22.75 
Q 30.46875 22.75 33.4375 26.453125 
Q 36.421875 30.171875 36.421875 37.640625 
Q 36.421875 43.75 33.546875 46.84375 
Q 30.671875 49.953125 25.390625 49.953125 
Q 22.859375 49.953125 21.21875 49.34375 
Q 19.578125 48.734375 18.5625 48.140625 
Q 17.328125 47.46875 16.546875 46.625 
Q 15.765625 45.796875 15.375 45.40625 
Q 15.71875 43.84375 16.203125 41.578125 
Q 16.703125 39.3125 16.703125 37.25 
Q 16.703125 35.453125 15.15625 34 
Q 13.625 32.5625 10.640625 32.5625 
Q 8.0625 32.5625 6.859375 34.421875 
Q 5.671875 36.28125 5.671875 38.71875 
Q 5.671875 41.265625 7.078125 43.890625 
Q 8.5 46.53125 11.28125 48.828125 
Q 14.0625 51.125 18.0625 52.53125 
Q 22.078125 53.953125 27.296875 53.953125 
Q 33.296875 53.953125 37.21875 52.171875 
Q 41.15625 50.390625 43.40625 47.859375 
Q 45.609375 45.359375 46.4375 42.625 
Q 47.265625 39.890625 47.265625 37.9375 
Q 47.265625 35.5 46.578125 33.03125 
Q 45.90625 30.5625 44.34375 28.46875 
Q 42.625 26.171875 39.8125 24.28125 
Q 37.015625 22.40625 32.765625 21.234375 
L 32.765625 20.453125 
Q 35.5 20.21875 38.59375 19.234375 
Q 41.703125 18.265625 44.1875 16.359375 
Q 46.78125 14.359375 48.4375 11.203125 
Q 50.09375 8.0625 50.09375 3.21875 
Q 50.09375 -6.15625 42.578125 -11.984375 
Q 35.0625 -17.828125 23.78125 -17.828125 
z
" id="Georgia-33"/>
      </defs>
      <g transform="translate(244.843551 268.07125)scale(0.12 -0.12)">
       <use xlink:href="#Georgia-33"/>
       <use x="55.175781" xlink:href="#Georgia-30"/>
      </g>
     </g>
    </g>
    <g id="xtick_5">
     <g id="line2d_5">
      <g>
       <use style="stroke:#000000;stroke-width:0.8;" x="312.709091" xlink:href="#m09586868d4" y="252"/>
      </g>
     </g>
     <g id="text_5">
      <!-- 40 -->
      <defs>
       <path d="M 52.9375 4.390625 
L 43.015625 4.390625 
L 43.015625 -17.828125 
L 33.640625 -17.828125 
L 33.640625 4.390625 
L 2.390625 4.390625 
L 2.390625 11.921875 
L 36.625 53.65625 
L 43.015625 53.65625 
L 43.015625 10.796875 
L 52.9375 10.796875 
z
M 33.640625 10.796875 
L 33.640625 42.78125 
L 7.28125 10.796875 
z
" id="Georgia-34"/>
      </defs>
      <g transform="translate(305.636591 268.07125)scale(0.12 -0.12)">
       <use xlink:href="#Georgia-34"/>
       <use x="56.494141" xlink:href="#Georgia-30"/>
      </g>
     </g>
    </g>
    <g id="xtick_6">
     <g id="line2d_6">
      <g>
       <use style="stroke:#000000;stroke-width:0.8;" x="373.581818" xlink:href="#m09586868d4" y="252"/>
      </g>
     </g>
     <g id="text_6">
      <!-- 50 -->
      <defs>
       <path d="M 41.15625 22.90625 
Q 44.390625 20.359375 46.515625 16.359375 
Q 48.640625 12.359375 48.640625 6.34375 
Q 48.640625 -4.15625 41.453125 -10.984375 
Q 34.28125 -17.828125 23.25 -17.828125 
Q 14.703125 -17.828125 8.78125 -13.765625 
Q 2.875 -9.71875 2.875 -4.34375 
Q 2.875 -1.859375 4.09375 0 
Q 5.328125 1.859375 7.859375 1.859375 
Q 10.796875 1.859375 12.328125 0.3125 
Q 13.875 -1.21875 13.875 -3.03125 
Q 13.875 -4.59375 13.328125 -6.9375 
Q 12.796875 -9.28125 12.5 -10.40625 
Q 12.890625 -10.75 13.765625 -11.328125 
Q 14.65625 -11.921875 15.875 -12.453125 
Q 17.140625 -12.984375 18.96875 -13.390625 
Q 20.796875 -13.8125 23.25 -13.8125 
Q 26.375 -13.8125 29.15625 -12.546875 
Q 31.9375 -11.28125 33.84375 -8.796875 
Q 35.9375 -6.0625 36.984375 -2.5625 
Q 38.03125 0.921875 38.03125 6.296875 
Q 38.03125 13.1875 34.203125 17.703125 
Q 30.375 22.21875 24.125 22.21875 
Q 20.21875 22.21875 16.8125 20.75 
Q 13.421875 19.28125 10.75 15.875 
L 7.46875 17.140625 
L 11.625 52.390625 
L 46.578125 52.390625 
L 46.578125 43.703125 
L 15.578125 43.703125 
L 13.03125 23 
Q 15.234375 24.5625 18.8125 26.09375 
Q 22.40625 27.640625 26.703125 27.640625 
Q 30.28125 27.640625 34.109375 26.53125 
Q 37.9375 25.4375 41.15625 22.90625 
z
" id="Georgia-35"/>
      </defs>
      <g transform="translate(366.729631 268.07125)scale(0.12 -0.12)">
       <use xlink:href="#Georgia-35"/>
       <use x="52.832031" xlink:href="#Georgia-30"/>
      </g>
     </g>
    </g>
    <g id="text_7">
     <!-- $x$ -->
     <defs>
      <path d="M 24.296875 35.5 
L 25.5 29.796875 
Q 30.796875 37.90625 34.046875 41 
Q 37.296875 44.09375 40.59375 44.09375 
Q 42.40625 44.09375 43.546875 43.046875 
Q 44.703125 42 44.703125 40.390625 
Q 44.703125 38.796875 43.75 37.796875 
Q 42.796875 36.796875 41.296875 36.796875 
Q 40.40625 36.796875 38.90625 37.640625 
Q 37.40625 38.5 36.09375 38.5 
Q 33.203125 38.5 26.296875 26.40625 
Q 26.296875 25.09375 27.09375 21.90625 
L 30.296875 8.5 
Q 31.296875 4.40625 33.296875 4.40625 
Q 34.90625 4.40625 38 8.40625 
Q 38.296875 8.796875 38.6875 9.34375 
Q 39.09375 9.90625 39.390625 10.34375 
Q 39.703125 10.796875 40.09375 11.203125 
L 41.59375 10.296875 
Q 37.296875 3.59375 34.796875 1.25 
Q 32.296875 -1.09375 29.40625 -1.09375 
Q 27 -1.09375 25.703125 0.40625 
Q 24.40625 1.90625 23.5 5.703125 
L 20.59375 17.59375 
L 11.796875 5.703125 
Q 8.703125 1.5 6.75 0.203125 
Q 4.796875 -1.09375 2.296875 -1.09375 
Q 0 -1.09375 -1.34375 0 
Q -2.703125 1.09375 -2.703125 3.09375 
Q -2.703125 4.59375 -1.75 5.640625 
Q -0.796875 6.703125 0.703125 6.703125 
Q 1.90625 6.703125 3.90625 5.59375 
Q 5.40625 4.703125 6.5 4.703125 
Q 8.203125 4.703125 11.59375 9.59375 
L 19.796875 21.203125 
L 17 33.59375 
Q 16 38 15.140625 39.203125 
Q 14.296875 40.40625 12.40625 40.40625 
Q 11.203125 40.40625 8.5 39.703125 
L 6.703125 39.203125 
L 6.40625 40.796875 
L 7.5 41.203125 
Q 15.5 44.09375 19.203125 44.09375 
Q 21.09375 44.09375 22.1875 42.296875 
Q 23.296875 40.5 24.296875 35.5 
z
" id="STIXGeneral-Italic-78"/>
     </defs>
     <g transform="translate(217.8 286.76875)scale(0.16 -0.16)">
      <use transform="translate(0 0.90625)" xlink:href="#STIXGeneral-Italic-78"/>
     </g>
    </g>
   </g>
   <g id="matplotlib.axis_2">
    <g id="ytick_1">
     <g id="line2d_7">
      <defs>
       <path d="M 0 0 
L -3.5 0 
" id="m32c6331808" style="stroke:#000000;stroke-width:0.8;"/>
      </defs>
      <g>
       <use style="stroke:#000000;stroke-width:0.8;" x="54" xlink:href="#m32c6331808" y="242.125338"/>
      </g>
     </g>
     <g id="text_8">
      <!-- 0.0 -->
      <defs>
       <path d="M 20.265625 5.609375 
Q 20.265625 2.875 18.28125 0.9375 
Q 16.3125 -0.984375 13.578125 -0.984375 
Q 10.84375 -0.984375 8.859375 0.9375 
Q 6.890625 2.875 6.890625 5.609375 
Q 6.890625 8.34375 8.859375 10.328125 
Q 10.84375 12.3125 13.578125 12.3125 
Q 16.3125 12.3125 18.28125 10.328125 
Q 20.265625 8.34375 20.265625 5.609375 
z
" id="Georgia-2e"/>
      </defs>
      <g transform="translate(29.035625 246.660963)scale(0.12 -0.12)">
       <use xlink:href="#Georgia-30"/>
       <use x="61.376953" xlink:href="#Georgia-2e"/>
       <use x="88.330078" xlink:href="#Georgia-30"/>
      </g>
     </g>
    </g>
    <g id="ytick_2">
     <g id="line2d_8">
      <g>
       <use style="stroke:#000000;stroke-width:0.8;" x="54" xlink:href="#m32c6331808" y="205.768309"/>
      </g>
     </g>
     <g id="text_9">
      <!-- 0.1 -->
      <g transform="translate(31.244375 210.303934)scale(0.12 -0.12)">
       <use xlink:href="#Georgia-30"/>
       <use x="61.376953" xlink:href="#Georgia-2e"/>
       <use x="88.330078" xlink:href="#Georgia-31"/>
      </g>
     </g>
    </g>
    <g id="ytick_3">
     <g id="line2d_9">
      <g>
       <use style="stroke:#000000;stroke-width:0.8;" x="54" xlink:href="#m32c6331808" y="169.411279"/>
      </g>
     </g>
     <g id="text_10">
      <!-- 0.2 -->
      <g transform="translate(29.6975 173.946904)scale(0.12 -0.12)">
       <use xlink:href="#Georgia-30"/>
       <use x="61.376953" xlink:href="#Georgia-2e"/>
       <use x="88.330078" xlink:href="#Georgia-32"/>
      </g>
     </g>
    </g>
    <g id="ytick_4">
     <g id="line2d_10">
      <g>
       <use style="stroke:#000000;stroke-width:0.8;" x="54" xlink:href="#m32c6331808" y="133.054249"/>
      </g>
     </g>
     <g id="text_11">
      <!-- 0.3 -->
      <g transform="translate(29.78 137.589874)scale(0.12 -0.12)">
       <use xlink:href="#Georgia-30"/>
       <use x="61.376953" xlink:href="#Georgia-2e"/>
       <use x="88.330078" xlink:href="#Georgia-33"/>
      </g>
     </g>
    </g>
    <g id="ytick_5">
     <g id="line2d_11">
      <g>
       <use style="stroke:#000000;stroke-width:0.8;" x="54" xlink:href="#m32c6331808" y="96.69722"/>
      </g>
     </g>
     <g id="text_12">
      <!-- 0.4 -->
      <g transform="translate(29.620625 101.232845)scale(0.12 -0.12)">
       <use xlink:href="#Georgia-30"/>
       <use x="61.376953" xlink:href="#Georgia-2e"/>
       <use x="88.330078" xlink:href="#Georgia-34"/>
      </g>
     </g>
    </g>
    <g id="ytick_6">
     <g id="line2d_12">
      <g>
       <use style="stroke:#000000;stroke-width:0.8;" x="54" xlink:href="#m32c6331808" y="60.34019"/>
      </g>
     </g>
     <g id="text_13">
      <!-- 0.5 -->
      <g transform="translate(30.06125 64.875815)scale(0.12 -0.12)">
       <use xlink:href="#Georgia-30"/>
       <use x="61.376953" xlink:href="#Georgia-2e"/>
       <use x="88.330078" xlink:href="#Georgia-35"/>
      </g>
     </g>
    </g>
    <g id="text_14">
     <!-- $p(x|\lambda)$ -->
     <defs>
      <path d="M 21.5 42.796875 
L 18.59375 32.796875 
Q 26.09375 44.09375 35.703125 44.09375 
Q 41.203125 44.09375 44.203125 40.796875 
Q 47.203125 37.5 47.203125 31.59375 
Q 47.203125 19.296875 37.84375 9.09375 
Q 28.5 -1.09375 17.5 -1.09375 
Q 13.90625 -1.09375 10.59375 0.59375 
Q 6.59375 -15.90625 6.59375 -16 
Q 6.59375 -17.59375 7.9375 -18.25 
Q 9.296875 -18.90625 12.796875 -18.90625 
L 12.796875 -20.5 
L -7.5 -20.5 
L -7.5 -18.90625 
Q -4.296875 -18.796875 -2.9375 -17.5 
Q -1.59375 -16.203125 -0.703125 -12.59375 
L 10.796875 30.59375 
Q 12.40625 36.40625 12.40625 37.703125 
Q 12.40625 40.40625 8 40.40625 
L 5.796875 40.40625 
L 5.59375 41.90625 
L 21.203125 44.09375 
Q 21.703125 44.09375 21.703125 43.703125 
Q 21.59375 43.203125 21.5 42.796875 
z
M 38.203125 31.296875 
Q 38.203125 35.703125 36.75 37.75 
Q 35.296875 39.796875 32 39.796875 
Q 28.09375 39.796875 24.1875 36.390625 
Q 20.296875 33 18.5 28.40625 
Q 16.296875 22.703125 14.140625 14.890625 
Q 12 7.09375 12 4.59375 
Q 12 2.90625 13.34375 1.84375 
Q 14.703125 0.796875 16.796875 0.796875 
Q 24.59375 0.796875 31.296875 10.296875 
Q 38.203125 19.90625 38.203125 31.296875 
z
" id="STIXGeneral-Italic-70"/>
      <path d="M 30.40625 -16.09375 
L 29.203125 -17.703125 
Q 17.59375 -11.09375 11.1875 0.5 
Q 4.796875 12.09375 4.796875 25.203125 
Q 4.796875 52.90625 29.5 67.59375 
L 30.40625 66 
Q 20.203125 57.296875 16.796875 48.84375 
Q 13.40625 40.40625 13.40625 25.5 
Q 13.40625 10.703125 16.90625 1.5 
Q 20.40625 -7.703125 30.40625 -16.09375 
z
" id="STIXGeneral-Regular-28"/>
      <path d="M 13.296875 -1.40625 
L 6.703125 -1.40625 
L 6.703125 67.59375 
L 13.296875 67.59375 
z
" id="STIXGeneral-Regular-7c"/>
      <path d="M 41.5 12.296875 
L 43.09375 12.296875 
Q 40 -1.59375 33 -1.59375 
Q 30.703125 -1.59375 29.203125 0.75 
Q 27.703125 3.09375 27.703125 7.796875 
Q 27.703125 10.5 27.953125 13.890625 
Q 28.203125 17.296875 28.640625 22.59375 
Q 29.09375 27.90625 29.296875 31.5 
L 8.40625 0 
L -1.203125 0 
L 29.796875 42.796875 
Q 30.203125 46.40625 30.203125 50.703125 
Q 30.203125 61.5 25.296875 61.5 
Q 23.90625 61.5 22 59.703125 
Q 20.09375 57.90625 18.796875 54.09375 
L 17.203125 54.09375 
Q 20.5 67.796875 27.296875 67.796875 
Q 30.09375 67.796875 31.890625 64.296875 
Q 33.703125 60.796875 33.703125 54.296875 
Q 33.703125 47.5 32.703125 34.25 
Q 31.703125 21 31.703125 14.703125 
Q 31.703125 9.40625 32.640625 7.046875 
Q 33.59375 4.703125 35.796875 4.703125 
Q 38.796875 4.703125 41.5 12.296875 
z
" id="STIXGeneral-Italic-3bb"/>
      <path d="M 2.90625 66 
L 4.09375 67.59375 
Q 15.5 60.796875 22 49.1875 
Q 28.5 37.59375 28.5 24.703125 
Q 28.5 -2.59375 3.796875 -17.703125 
L 2.90625 -16.09375 
Q 13.203125 -7.59375 16.546875 0.84375 
Q 19.90625 9.296875 19.90625 24.40625 
Q 19.90625 39.59375 16.546875 48.75 
Q 13.203125 57.90625 2.90625 66 
z
" id="STIXGeneral-Regular-29"/>
     </defs>
     <g transform="translate(21.565625 161.52)rotate(-90)scale(0.16 -0.16)">
      <use transform="translate(0 0.203125)" xlink:href="#STIXGeneral-Italic-70"/>
      <use transform="translate(50.399994 0.203125)" xlink:href="#STIXGeneral-Regular-28"/>
      <use transform="translate(83.699982 0.203125)" xlink:href="#STIXGeneral-Italic-78"/>
      <use transform="translate(128.099976 0.203125)" xlink:href="#STIXGeneral-Regular-7c"/>
      <use transform="translate(148.09996 0.203125)" xlink:href="#STIXGeneral-Italic-3bb"/>
      <use transform="translate(193.899948 0.203125)" xlink:href="#STIXGeneral-Regular-29"/>
     </g>
    </g>
   </g>
   <g id="line2d_13">
    <path clip-path="url(#p843edb90de)" d="M 69.218182 44.443636 
L 70.747647 54.131927 
L 72.277113 63.345399 
L 75.336044 80.439829 
L 78.394975 95.899738 
L 81.453906 109.881415 
L 84.512837 122.526203 
L 87.571768 133.961933 
L 90.630699 144.304211 
L 93.68963 153.657589 
L 96.748561 162.116624 
L 99.807492 169.76683 
L 102.866423 176.685545 
L 105.925354 182.942712 
L 108.984285 188.601587 
L 112.043216 193.719376 
L 115.102147 198.347817 
L 118.161078 202.533699 
L 121.220009 206.319339 
L 124.27894 209.743007 
L 127.337871 212.839314 
L 130.396802 215.63956 
L 133.455733 218.172055 
L 136.514664 220.4624 
L 139.573595 222.533749 
L 142.632526 224.407041 
L 147.220923 226.886549 
L 151.809319 229.019074 
L 156.397716 230.853172 
L 160.986112 232.430605 
L 165.574509 233.787291 
L 170.162905 234.954122 
L 176.280767 236.259941 
L 182.39863 237.327981 
L 190.045957 238.393843 
L 197.693285 239.222896 
L 206.870078 239.978395 
L 217.576336 240.615072 
L 229.81206 241.115009 
L 245.106715 241.51408 
L 266.519233 241.822863 
L 297.108543 242.014621 
L 353.698767 242.108091 
L 373.581818 242.116364 
L 373.581818 242.116364 
" style="fill:none;stroke:#ff0000;stroke-linecap:square;stroke-width:1.5;"/>
   </g>
   <g id="line2d_14">
    <path clip-path="url(#p843edb90de)" d="M 69.218182 181.509347 
L 73.806578 185.910438 
L 78.394975 189.991983 
L 82.983371 193.777182 
L 87.571768 197.287553 
L 92.160164 200.54305 
L 96.748561 203.562178 
L 101.336958 206.362099 
L 105.925354 208.958728 
L 112.043216 212.130025 
L 118.161078 214.998092 
L 124.27894 217.591922 
L 130.396802 219.937738 
L 136.514664 222.059253 
L 142.632526 223.977915 
L 150.279854 226.12035 
L 157.927181 228.009855 
L 165.574509 229.67629 
L 174.751302 231.418417 
L 183.928095 232.916749 
L 193.104888 234.205404 
L 203.811147 235.482738 
L 216.046871 236.692301 
L 228.282595 237.681612 
L 242.047784 238.58096 
L 257.342439 239.368439 
L 275.696026 240.086054 
L 297.108543 240.690804 
L 323.109456 241.189484 
L 355.228232 241.573187 
L 373.581818 241.716911 
L 373.581818 241.716911 
" style="fill:none;stroke:#008000;stroke-linecap:square;stroke-width:1.5;"/>
   </g>
   <g id="line2d_15">
    <path clip-path="url(#p843edb90de)" d="M 69.218182 216.033616 
L 81.453906 218.528432 
L 93.68963 220.784702 
L 105.925354 222.825233 
L 119.690544 224.888562 
L 133.455733 226.731306 
L 148.750388 228.548683 
L 164.045043 230.151506 
L 180.869164 231.69694 
L 199.22275 233.156296 
L 219.105802 234.507731 
L 240.518319 235.736305 
L 263.460302 236.833632 
L 289.461215 237.851241 
L 318.52106 238.758819 
L 350.639836 239.539473 
L 373.581818 239.983599 
L 373.581818 239.983599 
" style="fill:none;stroke:#0000ff;stroke-linecap:square;stroke-width:1.5;"/>
   </g>
   <g id="patch_3">
    <path d="M 54 252 
L 54 34.56 
" style="fill:none;stroke:#000000;stroke-linecap:square;stroke-linejoin:miter;stroke-width:0.8;"/>
   </g>
   <g id="patch_4">
    <path d="M 388.8 252 
L 388.8 34.56 
" style="fill:none;stroke:#000000;stroke-linecap:square;stroke-linejoin:miter;stroke-width:0.8;"/>
   </g>
   <g id="patch_5">
    <path d="M 54 252 
L 388.8 252 
" style="fill:none;stroke:#000000;stroke-linecap:square;stroke-linejoin:miter;stroke-width:0.8;"/>
   </g>
   <g id="patch_6">
    <path d="M 54 34.56 
L 388.8 34.56 
" style="fill:none;stroke:#000000;stroke-linecap:square;stroke-linejoin:miter;stroke-width:0.8;"/>
   </g>
   <g id="text_15">
    <!-- Likelihoods for different $\lambda$ -->
    <defs>
     <path d="M 60.40625 20.609375 
L 58.9375 0 
L 4.78125 0 
L 4.78125 3.46875 
Q 5.953125 3.5625 8.171875 3.796875 
Q 10.40625 4.046875 11.28125 4.4375 
Q 12.75 5.078125 13.40625 6.296875 
Q 14.0625 7.515625 14.0625 9.421875 
L 14.0625 59.03125 
Q 14.0625 60.6875 13.5 61.953125 
Q 12.9375 63.234375 11.28125 64.015625 
Q 10.15625 64.59375 8.125 65.15625 
Q 6.109375 65.71875 4.78125 65.828125 
L 4.78125 69.28125 
L 34.03125 69.28125 
L 34.03125 65.828125 
Q 32.671875 65.765625 30.5 65.328125 
Q 28.328125 64.890625 27.34375 64.546875 
Q 25.6875 63.96875 25.078125 62.546875 
Q 24.46875 61.140625 24.46875 59.515625 
L 24.46875 12.984375 
Q 24.46875 9.765625 24.78125 7.984375 
Q 25.09375 6.203125 26.265625 5.21875 
Q 27.390625 4.34375 29.609375 4.078125 
Q 31.84375 3.8125 35.84375 3.8125 
Q 37.640625 3.8125 39.59375 3.90625 
Q 41.546875 4 43.3125 4.296875 
Q 45.015625 4.59375 46.453125 5.09375 
Q 47.90625 5.609375 48.578125 6.390625 
Q 50.59375 8.640625 53.25 13.203125 
Q 55.90625 17.78125 56.9375 20.609375 
z
" id="Georgia-4c"/>
     <path d="M 26.90625 0 
L 3.609375 0 
L 3.609375 3.21875 
Q 4.734375 3.328125 5.921875 3.421875 
Q 7.125 3.515625 8.015625 3.8125 
Q 9.375 4.25 10.03125 5.34375 
Q 10.6875 6.453125 10.6875 8.203125 
L 10.6875 37.9375 
Q 10.6875 39.5 9.984375 40.796875 
Q 9.28125 42.09375 8.015625 42.96875 
Q 7.078125 43.5625 5.3125 43.96875 
Q 3.5625 44.390625 2.09375 44.484375 
L 2.09375 47.65625 
L 19.09375 48.734375 
L 19.78125 48.046875 
L 19.78125 8.796875 
Q 19.78125 7.078125 20.4375 5.953125 
Q 21.09375 4.828125 22.515625 4.296875 
Q 23.578125 3.859375 24.609375 3.59375 
Q 25.640625 3.328125 26.90625 3.21875 
z
M 20.75 67.71875 
Q 20.75 64.9375 18.921875 62.859375 
Q 17.09375 60.796875 14.40625 60.796875 
Q 11.921875 60.796875 10.078125 62.765625 
Q 8.25 64.75 8.25 67.28125 
Q 8.25 69.96875 10.078125 71.96875 
Q 11.921875 73.96875 14.40625 73.96875 
Q 17.1875 73.96875 18.96875 72.09375 
Q 20.75 70.21875 20.75 67.71875 
z
" id="Georgia-69"/>
     <path d="M 54.546875 0 
L 39.984375 0 
Q 36.1875 5.515625 31.828125 11.8125 
Q 27.484375 18.109375 22.796875 24.078125 
L 18.796875 20.3125 
L 18.796875 8.890625 
Q 18.796875 7.125 19.421875 5.96875 
Q 20.0625 4.828125 21.484375 4.296875 
Q 22.65625 3.8125 23.734375 3.5625 
Q 24.8125 3.328125 26.21875 3.21875 
L 26.21875 0 
L 2.59375 0 
L 2.59375 3.21875 
Q 3.71875 3.328125 4.9375 3.4375 
Q 6.15625 3.5625 6.984375 3.8125 
Q 8.34375 4.25 9.03125 5.34375 
Q 9.71875 6.453125 9.71875 8.203125 
L 9.71875 64.15625 
Q 9.71875 65.96875 8.953125 67.546875 
Q 8.203125 69.140625 6.984375 69.96875 
Q 5.953125 70.75 3.78125 70.984375 
Q 1.609375 71.234375 0.296875 71.34375 
L 0.296875 74.46875 
L 18.109375 75.59375 
L 18.796875 74.859375 
L 18.796875 23.921875 
Q 22.609375 27.734375 27.03125 32.09375 
Q 31.453125 36.46875 34.46875 39.890625 
Q 34.859375 40.328125 35.328125 41.03125 
Q 35.796875 41.75 35.796875 42.1875 
Q 35.796875 43.5 33.671875 44.140625 
Q 31.546875 44.78125 29.59375 45.015625 
L 29.59375 48.140625 
L 50.78125 48.140625 
L 50.78125 45.125 
Q 46.6875 43.890625 43.53125 42.0625 
Q 40.375 40.234375 38.71875 38.765625 
Q 37.546875 37.796875 35.390625 35.59375 
Q 33.25 33.40625 29.390625 29.828125 
Q 33.40625 24.90625 38.40625 18.015625 
Q 43.40625 11.140625 45.703125 8.0625 
Q 47.859375 5.171875 49.5625 4.296875 
Q 51.265625 3.421875 54.546875 3.21875 
z
" id="Georgia-6b"/>
     <path d="M 46.296875 11.328125 
Q 43.265625 5.5625 38.1875 2.140625 
Q 33.109375 -1.265625 26.515625 -1.265625 
Q 20.703125 -1.265625 16.328125 0.78125 
Q 11.96875 2.828125 9.125 6.34375 
Q 6.296875 9.859375 4.90625 14.546875 
Q 3.515625 19.234375 3.515625 24.46875 
Q 3.515625 29.15625 5 33.671875 
Q 6.5 38.1875 9.375 41.796875 
Q 12.15625 45.265625 16.28125 47.390625 
Q 20.40625 49.515625 25.53125 49.515625 
Q 30.8125 49.515625 34.5625 47.84375 
Q 38.328125 46.1875 40.671875 43.3125 
Q 42.921875 40.578125 44.015625 36.859375 
Q 45.125 33.15625 45.125 28.8125 
L 45.125 25.59375 
L 13.234375 25.59375 
Q 13.234375 20.84375 14.140625 16.984375 
Q 15.046875 13.140625 17 10.203125 
Q 18.890625 7.375 21.96875 5.734375 
Q 25.046875 4.109375 29.296875 4.109375 
Q 33.640625 4.109375 36.78125 6.125 
Q 39.9375 8.15625 42.875 13.421875 
z
M 35.5 29.6875 
Q 35.5 32.421875 35.03125 35.546875 
Q 34.578125 38.671875 33.546875 40.765625 
Q 32.421875 43.015625 30.46875 44.421875 
Q 28.515625 45.84375 25.4375 45.84375 
Q 20.3125 45.84375 16.921875 41.578125 
Q 13.53125 37.3125 13.234375 29.6875 
z
" id="Georgia-65"/>
     <path d="M 26.078125 0 
L 2.59375 0 
L 2.59375 3.21875 
Q 3.71875 3.328125 4.984375 3.4375 
Q 6.25 3.5625 7.078125 3.8125 
Q 8.453125 4.25 9.125 5.34375 
Q 9.8125 6.453125 9.8125 8.203125 
L 9.8125 63.96875 
Q 9.8125 65.71875 9.046875 67.25 
Q 8.296875 68.796875 7.078125 69.671875 
Q 6.203125 70.265625 3.859375 70.75 
Q 1.515625 71.234375 0.09375 71.34375 
L 0.09375 74.46875 
L 18.21875 75.59375 
L 18.890625 74.859375 
L 18.890625 8.796875 
Q 18.890625 7.078125 19.53125 5.984375 
Q 20.171875 4.890625 21.578125 4.296875 
Q 22.65625 3.8125 23.703125 3.5625 
Q 24.75 3.328125 26.078125 3.21875 
z
" id="Georgia-6c"/>
     <path d="M 55.8125 0 
L 32.171875 0 
L 32.171875 3.21875 
Q 33.296875 3.328125 34.65625 3.421875 
Q 36.03125 3.515625 36.921875 3.8125 
Q 38.28125 4.25 38.9375 5.34375 
Q 39.59375 6.453125 39.59375 8.203125 
L 39.59375 32.953125 
Q 39.59375 38.09375 37.171875 40.875 
Q 34.765625 43.65625 31.296875 43.65625 
Q 28.765625 43.65625 26.59375 42.84375 
Q 24.421875 42.046875 22.703125 40.875 
Q 21.046875 39.65625 20.15625 38.421875 
Q 19.28125 37.203125 18.796875 36.375 
L 18.796875 8.6875 
Q 18.796875 7.03125 19.453125 5.953125 
Q 20.125 4.890625 21.484375 4.296875 
Q 22.5625 3.8125 23.703125 3.5625 
Q 24.859375 3.328125 26.21875 3.21875 
L 26.21875 0 
L 2.59375 0 
L 2.59375 3.21875 
Q 3.71875 3.328125 4.9375 3.4375 
Q 6.15625 3.5625 6.984375 3.8125 
Q 8.34375 4.25 9.03125 5.34375 
Q 9.71875 6.453125 9.71875 8.203125 
L 9.71875 64.265625 
Q 9.71875 65.921875 8.953125 67.578125 
Q 8.203125 69.234375 6.984375 70.0625 
Q 6.109375 70.703125 3.875 70.96875 
Q 1.65625 71.234375 0.296875 71.34375 
L 0.296875 74.46875 
L 18.109375 75.59375 
L 18.796875 74.859375 
L 18.796875 41.265625 
L 19 41.265625 
Q 20.609375 42.875 21.921875 44.109375 
Q 23.25 45.359375 25.390625 46.734375 
Q 27.25 47.90625 29.765625 48.6875 
Q 32.28125 49.46875 35.40625 49.46875 
Q 41.84375 49.46875 45.3125 45.390625 
Q 48.78125 41.3125 48.78125 33.640625 
L 48.78125 8.59375 
Q 48.78125 6.890625 49.390625 5.828125 
Q 50 4.78125 51.421875 4.203125 
Q 52.546875 3.765625 53.4375 3.546875 
Q 54.34375 3.328125 55.8125 3.21875 
z
" id="Georgia-68"/>
     <path d="M 50.4375 24.5625 
Q 50.4375 19.484375 48.828125 14.578125 
Q 47.21875 9.671875 44.234375 6.25 
Q 40.875 2.34375 36.421875 0.4375 
Q 31.984375 -1.46875 26.46875 -1.46875 
Q 21.875 -1.46875 17.71875 0.265625 
Q 13.578125 2 10.359375 5.328125 
Q 7.171875 8.59375 5.296875 13.296875 
Q 3.421875 18.015625 3.421875 23.875 
Q 3.421875 35.15625 9.984375 42.328125 
Q 16.546875 49.515625 27.203125 49.515625 
Q 37.3125 49.515625 43.875 42.703125 
Q 50.4375 35.890625 50.4375 24.5625 
z
M 40.328125 24.46875 
Q 40.328125 28.125 39.59375 32.203125 
Q 38.875 36.28125 37.40625 39.109375 
Q 35.84375 42.140625 33.296875 43.96875 
Q 30.765625 45.796875 27.09375 45.796875 
Q 23.34375 45.796875 20.671875 43.9375 
Q 18.015625 42.09375 16.359375 38.875 
Q 14.796875 35.890625 14.15625 32.078125 
Q 13.53125 28.265625 13.53125 24.703125 
Q 13.53125 20.015625 14.28125 16.03125 
Q 15.046875 12.0625 16.703125 8.9375 
Q 18.359375 5.8125 20.875 4.03125 
Q 23.390625 2.25 27.09375 2.25 
Q 33.203125 2.25 36.765625 8.15625 
Q 40.328125 14.0625 40.328125 24.46875 
z
" id="Georgia-6f"/>
     <path d="M 56.25 0.875 
L 39.453125 -0.203125 
L 38.71875 0.484375 
L 38.71875 4.984375 
L 38.328125 5.078125 
Q 35.796875 2.25 32.0625 0.4375 
Q 28.328125 -1.375 24.359375 -1.375 
Q 20.265625 -1.375 16.421875 0.453125 
Q 12.59375 2.296875 9.765625 5.609375 
Q 6.890625 8.984375 5.203125 13.71875 
Q 3.515625 18.453125 3.515625 24.171875 
Q 3.515625 29.390625 5.3125 34.078125 
Q 7.125 38.765625 10.296875 42.28125 
Q 13.28125 45.5625 17.59375 47.515625 
Q 21.921875 49.46875 26.421875 49.46875 
Q 29.78125 49.46875 33.03125 48.609375 
Q 36.28125 47.75 38.625 46.4375 
L 38.625 63.1875 
Q 38.625 65.234375 37.9375 66.921875 
Q 37.25 68.609375 36.03125 69.484375 
Q 34.671875 70.40625 32.34375 70.8125 
Q 30.03125 71.234375 27.34375 71.4375 
L 27.34375 74.46875 
L 47.015625 75.59375 
L 47.75 74.859375 
L 47.75 9.90625 
Q 47.75 8.203125 48.40625 7 
Q 49.078125 5.8125 50.34375 4.984375 
Q 51.265625 4.390625 53.015625 4.25 
Q 54.78125 4.109375 56.25 4.046875 
z
M 38.625 9.328125 
L 38.625 37.5 
Q 38.234375 38.765625 37.34375 40.234375 
Q 36.46875 41.703125 35.15625 42.921875 
Q 33.734375 44.140625 31.828125 44.9375 
Q 29.9375 45.75 27.390625 45.75 
Q 24.46875 45.75 22 44.234375 
Q 19.53125 42.71875 17.625 39.890625 
Q 15.828125 37.15625 14.765625 32.9375 
Q 13.71875 28.71875 13.71875 23.578125 
Q 13.71875 19.484375 14.5 16.140625 
Q 15.28125 12.796875 17.140625 9.90625 
Q 18.84375 7.171875 21.5 5.515625 
Q 24.171875 3.859375 27.828125 3.859375 
Q 31.734375 3.859375 34.296875 5.5625 
Q 36.859375 7.28125 38.625 9.328125 
z
" id="Georgia-64"/>
     <path d="M 35.296875 23.578125 
Q 37.3125 21.828125 38.375 19.53125 
Q 39.453125 17.234375 39.453125 13.921875 
Q 39.453125 7.234375 34.4375 2.984375 
Q 29.4375 -1.265625 21.484375 -1.265625 
Q 17.28125 -1.265625 13.734375 0.25 
Q 10.203125 1.765625 8.6875 3.03125 
L 7.71875 -0.140625 
L 4.046875 -0.140625 
L 3.5625 16.609375 
L 6.9375 16.609375 
Q 7.328125 14.703125 8.59375 12.15625 
Q 9.859375 9.625 11.671875 7.5625 
Q 13.578125 5.421875 16.234375 3.953125 
Q 18.890625 2.484375 22.21875 2.484375 
Q 26.90625 2.484375 29.4375 4.609375 
Q 31.984375 6.734375 31.984375 10.6875 
Q 31.984375 12.75 31.171875 14.234375 
Q 30.375 15.71875 28.8125 16.84375 
Q 27.203125 17.96875 24.859375 18.875 
Q 22.515625 19.78125 19.625 20.65625 
Q 17.328125 21.34375 14.515625 22.53125 
Q 11.71875 23.734375 9.71875 25.34375 
Q 7.5625 27.046875 6.1875 29.53125 
Q 4.828125 32.03125 4.828125 35.40625 
Q 4.828125 41.3125 9.21875 45.40625 
Q 13.625 49.515625 21 49.515625 
Q 23.828125 49.515625 26.78125 48.78125 
Q 29.734375 48.046875 31.59375 47.015625 
L 32.71875 49.5625 
L 36.234375 49.5625 
L 36.96875 34.078125 
L 33.59375 34.078125 
Q 32.5625 39.265625 29.171875 42.5 
Q 25.78125 45.75 20.90625 45.75 
Q 16.890625 45.75 14.59375 43.75 
Q 12.3125 41.75 12.3125 38.921875 
Q 12.3125 36.71875 13.0625 35.25 
Q 13.8125 33.796875 15.328125 32.765625 
Q 16.796875 31.78125 19.015625 30.921875 
Q 21.234375 30.078125 24.515625 29 
Q 27.734375 27.984375 30.59375 26.609375 
Q 33.453125 25.25 35.296875 23.578125 
z
" id="Georgia-73"/>
     <path id="Georgia-20"/>
     <path d="M 39.359375 69.78125 
Q 39.359375 67.578125 38.1875 66.0625 
Q 37.015625 64.546875 34.625 64.546875 
Q 33.109375 64.546875 31.953125 65.1875 
Q 30.8125 65.828125 29.828125 66.890625 
Q 28.859375 67.96875 28.03125 69.328125 
Q 27.203125 70.703125 26.609375 71.53125 
Q 23.34375 71.390625 21.5625 66.96875 
Q 19.78125 62.546875 19.78125 52.875 
L 19.78125 47.953125 
L 32.171875 47.953125 
L 32.171875 43.265625 
L 19.78125 43.265625 
L 19.78125 8.6875 
Q 19.78125 6.984375 20.4375 5.90625 
Q 21.09375 4.828125 22.515625 4.296875 
Q 23.6875 3.859375 25.640625 3.59375 
Q 27.59375 3.328125 29 3.21875 
L 29 0 
L 3.609375 0 
L 3.609375 3.21875 
Q 4.734375 3.328125 5.921875 3.421875 
Q 7.125 3.515625 8.015625 3.8125 
Q 9.375 4.25 10.03125 5.34375 
Q 10.6875 6.453125 10.6875 8.203125 
L 10.6875 43.265625 
L 1.171875 43.265625 
L 1.171875 47.953125 
L 10.6875 47.953125 
L 10.6875 51.03125 
Q 10.6875 62.015625 16.375 68.828125 
Q 22.078125 75.640625 30.609375 75.640625 
Q 34.96875 75.640625 37.15625 73.921875 
Q 39.359375 72.21875 39.359375 69.78125 
z
" id="Georgia-66"/>
     <path d="M 40.375 41.9375 
Q 40.375 39.453125 39.15625 37.515625 
Q 37.9375 35.59375 35.40625 35.59375 
Q 32.671875 35.59375 31.21875 37 
Q 29.78125 38.421875 29.78125 40.140625 
Q 29.78125 41.21875 29.953125 42.09375 
Q 30.125 42.96875 30.28125 43.84375 
Q 27.984375 43.84375 24.90625 41.984375 
Q 21.828125 40.140625 19.671875 36.71875 
L 19.671875 8.6875 
Q 19.671875 6.984375 20.328125 5.90625 
Q 21 4.828125 22.40625 4.296875 
Q 23.640625 3.8125 25.5625 3.5625 
Q 27.484375 3.328125 28.90625 3.21875 
L 28.90625 0 
L 3.515625 0 
L 3.515625 3.21875 
Q 4.640625 3.328125 5.828125 3.421875 
Q 7.03125 3.515625 7.90625 3.8125 
Q 9.28125 4.25 9.9375 5.34375 
Q 10.59375 6.453125 10.59375 8.203125 
L 10.59375 37.9375 
Q 10.59375 39.453125 9.890625 40.921875 
Q 9.1875 42.390625 7.90625 43.265625 
Q 6.984375 43.84375 5.703125 44.109375 
Q 4.4375 44.390625 2.984375 44.484375 
L 2.984375 47.65625 
L 19 48.734375 
L 19.671875 48.046875 
L 19.671875 41.265625 
L 19.921875 41.265625 
Q 22.953125 45.21875 26.65625 47.265625 
Q 30.375 49.3125 33.453125 49.3125 
Q 36.53125 49.3125 38.453125 47.3125 
Q 40.375 45.3125 40.375 41.9375 
z
" id="Georgia-72"/>
     <path d="M 56.6875 0 
L 33.109375 0 
L 33.109375 3.21875 
Q 34.234375 3.328125 35.578125 3.421875 
Q 36.921875 3.515625 37.796875 3.8125 
Q 39.15625 4.25 39.8125 5.34375 
Q 40.484375 6.453125 40.484375 8.203125 
L 40.484375 32.953125 
Q 40.484375 38.09375 38.0625 40.875 
Q 35.640625 43.65625 32.171875 43.65625 
Q 29.59375 43.65625 27.4375 42.84375 
Q 25.296875 42.046875 23.640625 40.875 
Q 22.015625 39.75 21.0625 38.453125 
Q 20.125 37.15625 19.671875 36.375 
L 19.671875 8.6875 
Q 19.671875 7.03125 20.359375 5.953125 
Q 21.046875 4.890625 22.40625 4.296875 
Q 23.4375 3.8125 24.625 3.5625 
Q 25.828125 3.328125 27.09375 3.21875 
L 27.09375 0 
L 3.515625 0 
L 3.515625 3.21875 
Q 4.640625 3.328125 5.828125 3.421875 
Q 7.03125 3.515625 7.90625 3.8125 
Q 9.28125 4.25 9.9375 5.34375 
Q 10.59375 6.453125 10.59375 8.203125 
L 10.59375 37.9375 
Q 10.59375 39.59375 9.890625 40.984375 
Q 9.1875 42.390625 7.90625 43.265625 
Q 6.984375 43.84375 5.703125 44.109375 
Q 4.4375 44.390625 2.984375 44.484375 
L 2.984375 47.65625 
L 19 48.734375 
L 19.671875 48.046875 
L 19.671875 41.265625 
L 19.921875 41.265625 
Q 21.09375 42.4375 22.84375 44.0625 
Q 24.609375 45.703125 26.171875 46.734375 
Q 27.984375 47.90625 30.46875 48.6875 
Q 32.953125 49.46875 36.078125 49.46875 
Q 43.015625 49.46875 46.359375 45.140625 
Q 49.703125 40.828125 49.703125 33.640625 
L 49.703125 8.59375 
Q 49.703125 6.890625 50.28125 5.828125 
Q 50.875 4.78125 52.296875 4.203125 
Q 53.46875 3.71875 54.3125 3.515625 
Q 55.171875 3.328125 56.6875 3.21875 
z
" id="Georgia-6e"/>
     <path d="M 33.25 2.09375 
Q 30.078125 0.78125 27.25 -0.125 
Q 24.421875 -1.03125 20.3125 -1.03125 
Q 14.265625 -1.03125 11.796875 2.015625 
Q 9.328125 5.078125 9.328125 10.640625 
L 9.328125 43.265625 
L 0.640625 43.265625 
L 0.640625 47.953125 
L 9.515625 47.953125 
L 9.515625 62.9375 
L 18.40625 62.9375 
L 18.40625 47.953125 
L 32.234375 47.953125 
L 32.234375 43.265625 
L 18.5 43.265625 
L 18.5 16.359375 
Q 18.5 13.328125 18.71875 11.296875 
Q 18.953125 9.28125 19.78125 7.765625 
Q 20.5625 6.34375 22.125 5.609375 
Q 23.6875 4.890625 26.3125 4.890625 
Q 27.546875 4.890625 29.90625 5.109375 
Q 32.28125 5.328125 33.25 5.671875 
z
" id="Georgia-74"/>
    </defs>
    <g transform="translate(118.35 28.56)scale(0.18 -0.18)">
     <use transform="translate(0 0.359375)" xlink:href="#Georgia-4c"/>
     <use transform="translate(60.351562 0.359375)" xlink:href="#Georgia-69"/>
     <use transform="translate(89.648438 0.359375)" xlink:href="#Georgia-6b"/>
     <use transform="translate(143.212891 0.359375)" xlink:href="#Georgia-65"/>
     <use transform="translate(191.552734 0.359375)" xlink:href="#Georgia-6c"/>
     <use transform="translate(220.166016 0.359375)" xlink:href="#Georgia-69"/>
     <use transform="translate(249.462891 0.359375)" xlink:href="#Georgia-68"/>
     <use transform="translate(307.666016 0.359375)" xlink:href="#Georgia-6f"/>
     <use transform="translate(361.572266 0.359375)" xlink:href="#Georgia-6f"/>
     <use transform="translate(415.478516 0.359375)" xlink:href="#Georgia-64"/>
     <use transform="translate(472.900391 0.359375)" xlink:href="#Georgia-73"/>
     <use transform="translate(516.113281 0.359375)" xlink:href="#Georgia-20"/>
     <use transform="translate(540.234375 0.359375)" xlink:href="#Georgia-66"/>
     <use transform="translate(572.753906 0.359375)" xlink:href="#Georgia-6f"/>
     <use transform="translate(626.660156 0.359375)" xlink:href="#Georgia-72"/>
     <use transform="translate(667.626953 0.359375)" xlink:href="#Georgia-20"/>
     <use transform="translate(691.748047 0.359375)" xlink:href="#Georgia-64"/>
     <use transform="translate(749.169922 0.359375)" xlink:href="#Georgia-69"/>
     <use transform="translate(778.466797 0.359375)" xlink:href="#Georgia-66"/>
     <use transform="translate(810.986328 0.359375)" xlink:href="#Georgia-66"/>
     <use transform="translate(843.505859 0.359375)" xlink:href="#Georgia-65"/>
     <use transform="translate(891.845703 0.359375)" xlink:href="#Georgia-72"/>
     <use transform="translate(932.8125 0.359375)" xlink:href="#Georgia-65"/>
     <use transform="translate(981.152344 0.359375)" xlink:href="#Georgia-6e"/>
     <use transform="translate(1040.234375 0.359375)" xlink:href="#Georgia-74"/>
     <use transform="translate(1074.755859 0.359375)" xlink:href="#Georgia-20"/>
     <use transform="translate(1098.876953 0.359375)" xlink:href="#STIXGeneral-Italic-3bb"/>
    </g>
   </g>
   <g id="legend_1">
    <g id="patch_7">
     <path d="M 295.56 107.618125 
L 379 107.618125 
Q 381.8 107.618125 381.8 104.818125 
L 381.8 44.36 
Q 381.8 41.56 379 41.56 
L 295.56 41.56 
Q 292.76 41.56 292.76 44.36 
L 292.76 104.818125 
Q 292.76 107.618125 295.56 107.618125 
z
" style="fill:#ffffff;opacity:0.8;stroke:#cccccc;stroke-linejoin:miter;"/>
    </g>
    <g id="line2d_16">
     <path d="M 298.36 52.843125 
L 326.36 52.843125 
" style="fill:none;stroke:#ff0000;stroke-linecap:square;stroke-width:1.5;"/>
    </g>
    <g id="line2d_17"/>
    <g id="text_16">
     <!-- $\lambda$ = 5 -->
     <defs>
      <path d="M 56.78125 33.34375 
L 7.515625 33.34375 
L 7.515625 39.453125 
L 56.78125 39.453125 
z
M 56.78125 15.1875 
L 7.515625 15.1875 
L 7.515625 21.296875 
L 56.78125 21.296875 
z
" id="Georgia-3d"/>
     </defs>
     <g transform="translate(337.56 57.743125)scale(0.14 -0.14)">
      <use transform="translate(0 0.203125)" xlink:href="#STIXGeneral-Italic-3bb"/>
      <use transform="translate(45.799988 0.203125)" xlink:href="#Georgia-20"/>
      <use transform="translate(69.921082 0.203125)" xlink:href="#Georgia-3d"/>
      <use transform="translate(134.227722 0.203125)" xlink:href="#Georgia-20"/>
      <use transform="translate(158.348816 0.203125)" xlink:href="#Georgia-35"/>
     </g>
    </g>
    <g id="line2d_18">
     <path d="M 298.36 73.4625 
L 326.36 73.4625 
" style="fill:none;stroke:#008000;stroke-linecap:square;stroke-width:1.5;"/>
    </g>
    <g id="line2d_19"/>
    <g id="text_17">
     <!-- $\lambda$ = 10 -->
     <g transform="translate(337.56 78.3625)scale(0.14 -0.14)">
      <use transform="translate(0 0.203125)" xlink:href="#STIXGeneral-Italic-3bb"/>
      <use transform="translate(45.799988 0.203125)" xlink:href="#Georgia-20"/>
      <use transform="translate(69.921082 0.203125)" xlink:href="#Georgia-3d"/>
      <use transform="translate(134.227722 0.203125)" xlink:href="#Georgia-20"/>
      <use transform="translate(158.348816 0.203125)" xlink:href="#Georgia-31"/>
      <use transform="translate(201.317566 0.203125)" xlink:href="#Georgia-30"/>
     </g>
    </g>
    <g id="line2d_20">
     <path d="M 298.36 94.081875 
L 326.36 94.081875 
" style="fill:none;stroke:#0000ff;stroke-linecap:square;stroke-width:1.5;"/>
    </g>
    <g id="line2d_21"/>
    <g id="text_18">
     <!-- $\lambda$ = 20 -->
     <g transform="translate(337.56 98.981875)scale(0.14 -0.14)">
      <use transform="translate(0 0.203125)" xlink:href="#STIXGeneral-Italic-3bb"/>
      <use transform="translate(45.799988 0.203125)" xlink:href="#Georgia-20"/>
      <use transform="translate(69.921082 0.203125)" xlink:href="#Georgia-3d"/>
      <use transform="translate(134.227722 0.203125)" xlink:href="#Georgia-20"/>
      <use transform="translate(158.348816 0.203125)" xlink:href="#Georgia-32"/>
      <use transform="translate(214.208191 0.203125)" xlink:href="#Georgia-30"/>
     </g>
    </g>
   </g>
  </g>
 </g>
 <defs>
  <clipPath id="p843edb90de">
   <rect height="217.44" width="334.8" x="54" y="34.56"/>
  </clipPath>
 </defs>
</svg>
