<?xml version="1.0" encoding="utf-8" standalone="no"?>
<!DOCTYPE svg PUBLIC "-//W3C//DTD SVG 1.1//EN"
  "http://www.w3.org/Graphics/SVG/1.1/DTD/svg11.dtd">
<!-- Created with matplotlib (http://matplotlib.org/) -->
<svg height="288pt" version="1.1" viewBox="0 0 432 288" width="432pt" xmlns="http://www.w3.org/2000/svg" xmlns:xlink="http://www.w3.org/1999/xlink">
 <defs>
  <style type="text/css">
*{stroke-linecap:butt;stroke-linejoin:round;}
  </style>
 </defs>
 <g id="figure_1">
  <g id="patch_1">
   <path d="M 0 288 
L 432 288 
L 432 0 
L 0 0 
z
" style="fill:#ffffff;"/>
  </g>
  <g id="axes_1">
   <g id="patch_2">
    <path d="M 81.525 237.6 
L 411.2 237.6 
L 411.2 30.8 
L 81.525 30.8 
z
" style="fill:#ffffff;"/>
   </g>
   <g id="matplotlib.axis_1">
    <g id="xtick_1">
     <g id="line2d_1">
      <defs>
       <path d="M 0 0 
L 0 3.5 
" id="m2821aafa24" style="stroke:#000000;stroke-width:0.8;"/>
      </defs>
      <g>
       <use style="stroke:#000000;stroke-width:0.8;" x="81.525" xlink:href="#m2821aafa24" y="237.6"/>
      </g>
     </g>
     <g id="text_1">
      <!-- 0 -->
      <defs>
       <path d="M 50.140625 45.609375 
Q 53.265625 41.84375 54.796875 36.78125 
Q 56.34375 31.734375 56.34375 26.21875 
Q 56.34375 19.578125 54.4375 14.328125 
Q 52.546875 9.078125 49.21875 5.609375 
Q 45.796875 2.046875 41.109375 0.234375 
Q 36.421875 -1.5625 30.671875 -1.5625 
Q 24.359375 -1.5625 19.421875 0.53125 
Q 14.5 2.640625 11.421875 6.296875 
Q 8.203125 10.109375 6.609375 15.203125 
Q 5.03125 20.3125 5.03125 26.21875 
Q 5.03125 32.03125 6.5625 36.90625 
Q 8.109375 41.796875 11.375 45.75 
Q 14.5 49.5625 19.421875 51.75 
Q 24.359375 53.953125 30.71875 53.953125 
Q 37.40625 53.953125 42.1875 51.703125 
Q 46.96875 49.46875 50.140625 45.609375 
z
M 45.5625 26.21875 
Q 45.5625 37.84375 41.578125 44.234375 
Q 37.59375 50.640625 30.765625 50.640625 
Q 23.828125 50.640625 19.828125 44.234375 
Q 15.828125 37.84375 15.828125 26.21875 
Q 15.828125 15.1875 19.65625 8.46875 
Q 23.484375 1.765625 30.671875 1.765625 
Q 37.84375 1.765625 41.703125 8.46875 
Q 45.5625 15.1875 45.5625 26.21875 
z
" id="Georgia-30"/>
      </defs>
      <g transform="translate(77.8425 253.67125)scale(0.12 -0.12)">
       <use xlink:href="#Georgia-30"/>
      </g>
     </g>
    </g>
    <g id="xtick_2">
     <g id="line2d_2">
      <g>
       <use style="stroke:#000000;stroke-width:0.8;" x="147.46" xlink:href="#m2821aafa24" y="237.6"/>
      </g>
     </g>
     <g id="text_2">
      <!-- 20 -->
      <defs>
       <path d="M 51.125 0 
L 5.375 0 
L 5.375 6.640625 
Q 6.6875 8.15625 9.03125 10.03125 
Q 11.375 11.921875 14.59375 14.109375 
Q 16.546875 15.4375 19.28125 17 
Q 22.015625 18.5625 25.484375 20.40625 
Q 29.34375 22.46875 31.421875 24.03125 
Q 33.5 25.59375 35.203125 27.875 
Q 36.328125 29.390625 37.015625 31.65625 
Q 37.703125 33.9375 37.703125 38.140625 
Q 37.703125 44.234375 34.421875 47.09375 
Q 31.15625 49.953125 26.03125 49.953125 
Q 22.859375 49.953125 20.015625 48.703125 
Q 17.1875 47.46875 15.765625 45.265625 
Q 16.109375 43.703125 16.625 41.546875 
Q 17.140625 39.40625 17.140625 37.359375 
Q 17.140625 35.5 15.59375 34.0625 
Q 14.0625 32.625 11.03125 32.625 
Q 8.59375 32.625 7.265625 34.296875 
Q 5.953125 35.984375 5.953125 38.8125 
Q 5.953125 41.453125 7.421875 44.109375 
Q 8.890625 46.78125 11.625 49.03125 
Q 14.3125 51.21875 18.265625 52.578125 
Q 22.21875 53.953125 26.8125 53.953125 
Q 36.8125 53.953125 42.6875 49.484375 
Q 48.578125 45.015625 48.578125 37.546875 
Q 48.578125 33.984375 47.53125 31.046875 
Q 46.484375 28.125 44.140625 25.875 
Q 41.546875 23.390625 38.078125 21.609375 
Q 34.625 19.828125 27.484375 16.65625 
Q 23.25 14.75 19.578125 12.671875 
Q 15.921875 10.59375 13.578125 8.640625 
L 51.125 8.640625 
z
" id="Georgia-32"/>
      </defs>
      <g transform="translate(140.425937 253.67125)scale(0.12 -0.12)">
       <use xlink:href="#Georgia-32"/>
       <use x="55.859375" xlink:href="#Georgia-30"/>
      </g>
     </g>
    </g>
    <g id="xtick_3">
     <g id="line2d_3">
      <g>
       <use style="stroke:#000000;stroke-width:0.8;" x="213.395" xlink:href="#m2821aafa24" y="237.6"/>
      </g>
     </g>
     <g id="text_3">
      <!-- 40 -->
      <defs>
       <path d="M 52.9375 4.390625 
L 43.015625 4.390625 
L 43.015625 -17.828125 
L 33.640625 -17.828125 
L 33.640625 4.390625 
L 2.390625 4.390625 
L 2.390625 11.921875 
L 36.625 53.65625 
L 43.015625 53.65625 
L 43.015625 10.796875 
L 52.9375 10.796875 
z
M 33.640625 10.796875 
L 33.640625 42.78125 
L 7.28125 10.796875 
z
" id="Georgia-34"/>
      </defs>
      <g transform="translate(206.3225 253.67125)scale(0.12 -0.12)">
       <use xlink:href="#Georgia-34"/>
       <use x="56.494141" xlink:href="#Georgia-30"/>
      </g>
     </g>
    </g>
    <g id="xtick_4">
     <g id="line2d_4">
      <g>
       <use style="stroke:#000000;stroke-width:0.8;" x="279.33" xlink:href="#m2821aafa24" y="237.6"/>
      </g>
     </g>
     <g id="text_4">
      <!-- 60 -->
      <defs>
       <path d="M 52.484375 22.515625 
Q 52.484375 17.4375 50.65625 12.984375 
Q 48.828125 8.546875 45.75 5.421875 
Q 42.1875 1.859375 37.859375 0.140625 
Q 33.546875 -1.5625 28.859375 -1.5625 
Q 23.4375 -1.5625 19.046875 0.4375 
Q 14.65625 2.4375 11.578125 6.109375 
Q 8.453125 9.8125 6.734375 15.1875 
Q 5.03125 20.5625 5.03125 27.25 
Q 5.03125 44.671875 15.40625 56.640625 
Q 25.78125 68.609375 43.21875 71 
L 44.09375 66.609375 
L 39.703125 65.828125 
Q 29.109375 62.40625 23.3125 55.171875 
Q 17.53125 47.953125 15.828125 37.640625 
Q 20.015625 41.3125 24.109375 42.828125 
Q 28.21875 44.34375 32.765625 44.34375 
Q 40.921875 44.34375 46.703125 38.09375 
Q 52.484375 31.84375 52.484375 22.515625 
z
M 41.890625 21.1875 
Q 41.890625 29.109375 38.25 33.890625 
Q 34.625 38.671875 28.515625 38.671875 
Q 24.859375 38.671875 21.703125 37.296875 
Q 18.5625 35.9375 15.625 32.71875 
Q 15.578125 32.125 15.46875 30 
Q 15.375 27.875 15.375 26.65625 
Q 15.375 15.234375 19.109375 8.765625 
Q 22.859375 2.296875 28.953125 2.296875 
Q 34.765625 2.296875 38.328125 7.34375 
Q 41.890625 12.40625 41.890625 21.1875 
z
" id="Georgia-36"/>
      </defs>
      <g transform="translate(272.251875 253.67125)scale(0.12 -0.12)">
       <use xlink:href="#Georgia-36"/>
       <use x="56.591797" xlink:href="#Georgia-30"/>
      </g>
     </g>
    </g>
    <g id="xtick_5">
     <g id="line2d_5">
      <g>
       <use style="stroke:#000000;stroke-width:0.8;" x="345.265" xlink:href="#m2821aafa24" y="237.6"/>
      </g>
     </g>
     <g id="text_5">
      <!-- 80 -->
      <defs>
       <path d="M 54.546875 18.359375 
Q 54.546875 10.15625 47.453125 4.25 
Q 40.375 -1.65625 28.859375 -1.65625 
Q 18.0625 -1.65625 11.5625 3.765625 
Q 5.078125 9.1875 5.078125 17.71875 
Q 5.078125 24.03125 8.90625 28.25 
Q 12.75 32.46875 20.265625 35.40625 
Q 14.0625 38.875 10.984375 43.015625 
Q 7.90625 47.171875 7.90625 52.390625 
Q 7.90625 60.359375 14.671875 65.71875 
Q 21.4375 71.09375 30.859375 71.09375 
Q 40.28125 71.09375 46.109375 66.015625 
Q 51.953125 60.9375 51.953125 53.265625 
Q 51.953125 48.34375 48.734375 43.921875 
Q 45.515625 39.5 39.265625 36.671875 
Q 47.359375 33.203125 50.953125 29 
Q 54.546875 24.8125 54.546875 18.359375 
z
M 42.71875 53.8125 
Q 42.71875 59.765625 39.171875 63.5 
Q 35.640625 67.234375 30.125 67.234375 
Q 24.609375 67.234375 21.09375 63.640625 
Q 17.578125 60.0625 17.578125 54.734375 
Q 17.578125 49.609375 21.578125 46.046875 
Q 25.59375 42.484375 35.84375 38.421875 
Q 39.5 40.765625 41.109375 44.625 
Q 42.71875 48.484375 42.71875 53.8125 
z
M 44.78125 16.0625 
Q 44.78125 19.140625 43.453125 21.453125 
Q 42.140625 23.78125 39.65625 25.6875 
Q 37.25 27.546875 32.984375 29.5625 
Q 28.71875 31.59375 23.734375 33.6875 
Q 19.046875 31.15625 16.84375 27.21875 
Q 14.65625 23.296875 14.65625 18.265625 
Q 14.65625 11.078125 18.875 6.65625 
Q 23.09375 2.25 30.125 2.25 
Q 36.859375 2.25 40.8125 6.15625 
Q 44.78125 10.0625 44.78125 16.0625 
z
" id="Georgia-38"/>
      </defs>
      <g transform="translate(338.005 253.67125)scale(0.12 -0.12)">
       <use xlink:href="#Georgia-38"/>
       <use x="59.619141" xlink:href="#Georgia-30"/>
      </g>
     </g>
    </g>
    <g id="xtick_6">
     <g id="line2d_6">
      <g>
       <use style="stroke:#000000;stroke-width:0.8;" x="411.2" xlink:href="#m2821aafa24" y="237.6"/>
      </g>
     </g>
     <g id="text_6">
      <!-- 100 -->
      <defs>
       <path d="M 39.5 0 
L 6.59375 0 
L 6.59375 3.46875 
Q 8.0625 3.5625 11.15625 3.875 
Q 14.265625 4.203125 15.4375 4.546875 
Q 16.9375 5.03125 17.75 6.125 
Q 18.5625 7.234375 18.5625 9.421875 
L 18.5625 43.703125 
L 6.390625 43.703125 
L 6.390625 47.796875 
L 9.078125 47.796875 
Q 14.359375 47.796875 18.53125 49.75 
Q 22.703125 51.703125 24.515625 53.953125 
L 28.5625 53.953125 
Q 28.421875 50.78125 28.265625 46.53125 
Q 28.125 42.28125 28.125 38.921875 
L 28.125 9.96875 
Q 28.125 8.25 28.875 6.90625 
Q 29.640625 5.5625 31.0625 4.9375 
Q 32.328125 4.390625 35.203125 3.953125 
Q 38.09375 3.515625 39.5 3.46875 
z
" id="Georgia-31"/>
      </defs>
      <g transform="translate(401.256875 253.67125)scale(0.12 -0.12)">
       <use xlink:href="#Georgia-31"/>
       <use x="42.96875" xlink:href="#Georgia-30"/>
       <use x="104.345703" xlink:href="#Georgia-30"/>
      </g>
     </g>
    </g>
    <g id="text_7">
     <!-- $x^\star$ -->
     <defs>
      <path d="M 24.296875 35.5 
L 25.5 29.796875 
Q 30.796875 37.90625 34.046875 41 
Q 37.296875 44.09375 40.59375 44.09375 
Q 42.40625 44.09375 43.546875 43.046875 
Q 44.703125 42 44.703125 40.390625 
Q 44.703125 38.796875 43.75 37.796875 
Q 42.796875 36.796875 41.296875 36.796875 
Q 40.40625 36.796875 38.90625 37.640625 
Q 37.40625 38.5 36.09375 38.5 
Q 33.203125 38.5 26.296875 26.40625 
Q 26.296875 25.09375 27.09375 21.90625 
L 30.296875 8.5 
Q 31.296875 4.40625 33.296875 4.40625 
Q 34.90625 4.40625 38 8.40625 
Q 38.296875 8.796875 38.6875 9.34375 
Q 39.09375 9.90625 39.390625 10.34375 
Q 39.703125 10.796875 40.09375 11.203125 
L 41.59375 10.296875 
Q 37.296875 3.59375 34.796875 1.25 
Q 32.296875 -1.09375 29.40625 -1.09375 
Q 27 -1.09375 25.703125 0.40625 
Q 24.40625 1.90625 23.5 5.703125 
L 20.59375 17.59375 
L 11.796875 5.703125 
Q 8.703125 1.5 6.75 0.203125 
Q 4.796875 -1.09375 2.296875 -1.09375 
Q 0 -1.09375 -1.34375 0 
Q -2.703125 1.09375 -2.703125 3.09375 
Q -2.703125 4.59375 -1.75 5.640625 
Q -0.796875 6.703125 0.703125 6.703125 
Q 1.90625 6.703125 3.90625 5.59375 
Q 5.40625 4.703125 6.5 4.703125 
Q 8.203125 4.703125 11.59375 9.59375 
L 19.796875 21.203125 
L 17 33.59375 
Q 16 38 15.140625 39.203125 
Q 14.296875 40.40625 12.40625 40.40625 
Q 11.203125 40.40625 8.5 39.703125 
L 6.703125 39.203125 
L 6.40625 40.796875 
L 7.5 41.203125 
Q 15.5 44.09375 19.203125 44.09375 
Q 21.09375 44.09375 22.1875 42.296875 
Q 23.296875 40.5 24.296875 35.5 
z
" id="STIXGeneral-Italic-78"/>
      <path d="M 66.5 36.5 
L 43.90625 22.796875 
L 54.59375 -1.296875 
L 35 16.59375 
L 15.40625 -1.296875 
L 26.09375 22.796875 
L 3.5 36.5 
L 29.703125 33.5 
L 35 59.703125 
L 40.296875 33.5 
z
" id="STIXGeneral-Regular-22c6"/>
     </defs>
     <g transform="translate(236.3625 272.36875)scale(0.16 -0.16)">
      <use transform="translate(0 0.932813)" xlink:href="#STIXGeneral-Italic-78"/>
      <use transform="translate(60.681116 36.207813)scale(0.7)" xlink:href="#STIXGeneral-Regular-22c6"/>
     </g>
    </g>
   </g>
   <g id="matplotlib.axis_2">
    <g id="ytick_1">
     <g id="line2d_7">
      <defs>
       <path d="M 0 0 
L -3.5 0 
" id="m1d48e6f7b3" style="stroke:#000000;stroke-width:0.8;"/>
      </defs>
      <g>
       <use style="stroke:#000000;stroke-width:0.8;" x="81.525" xlink:href="#m1d48e6f7b3" y="237.6"/>
      </g>
     </g>
     <g id="text_8">
      <!-- 0.0000 -->
      <defs>
       <path d="M 20.265625 5.609375 
Q 20.265625 2.875 18.28125 0.9375 
Q 16.3125 -0.984375 13.578125 -0.984375 
Q 10.84375 -0.984375 8.859375 0.9375 
Q 6.890625 2.875 6.890625 5.609375 
Q 6.890625 8.34375 8.859375 10.328125 
Q 10.84375 12.3125 13.578125 12.3125 
Q 16.3125 12.3125 18.28125 10.328125 
Q 20.265625 8.34375 20.265625 5.609375 
z
" id="Georgia-2e"/>
      </defs>
      <g transform="translate(34.465625 242.135625)scale(0.12 -0.12)">
       <use xlink:href="#Georgia-30"/>
       <use x="61.376953" xlink:href="#Georgia-2e"/>
       <use x="88.330078" xlink:href="#Georgia-30"/>
       <use x="149.707031" xlink:href="#Georgia-30"/>
       <use x="211.083984" xlink:href="#Georgia-30"/>
       <use x="272.460938" xlink:href="#Georgia-30"/>
      </g>
     </g>
    </g>
    <g id="ytick_2">
     <g id="line2d_8">
      <g>
       <use style="stroke:#000000;stroke-width:0.8;" x="81.525" xlink:href="#m1d48e6f7b3" y="185.9"/>
      </g>
     </g>
     <g id="text_9">
      <!-- 0.0075 -->
      <defs>
       <path d="M 50.25 49.21875 
L 15.4375 -17.828125 
L 9.328125 -17.828125 
L 42.09375 44.1875 
L 22.90625 44.1875 
Q 18.65625 44.1875 16.265625 44.09375 
Q 13.875 44 11.859375 43.171875 
Q 10.359375 42.53125 9.15625 39.921875 
Q 7.953125 37.3125 7.328125 33.25 
L 4.34375 33.25 
L 4.34375 52.390625 
L 50.25 52.390625 
z
" id="Georgia-37"/>
       <path d="M 41.15625 22.90625 
Q 44.390625 20.359375 46.515625 16.359375 
Q 48.640625 12.359375 48.640625 6.34375 
Q 48.640625 -4.15625 41.453125 -10.984375 
Q 34.28125 -17.828125 23.25 -17.828125 
Q 14.703125 -17.828125 8.78125 -13.765625 
Q 2.875 -9.71875 2.875 -4.34375 
Q 2.875 -1.859375 4.09375 0 
Q 5.328125 1.859375 7.859375 1.859375 
Q 10.796875 1.859375 12.328125 0.3125 
Q 13.875 -1.21875 13.875 -3.03125 
Q 13.875 -4.59375 13.328125 -6.9375 
Q 12.796875 -9.28125 12.5 -10.40625 
Q 12.890625 -10.75 13.765625 -11.328125 
Q 14.65625 -11.921875 15.875 -12.453125 
Q 17.140625 -12.984375 18.96875 -13.390625 
Q 20.796875 -13.8125 23.25 -13.8125 
Q 26.375 -13.8125 29.15625 -12.546875 
Q 31.9375 -11.28125 33.84375 -8.796875 
Q 35.9375 -6.0625 36.984375 -2.5625 
Q 38.03125 0.921875 38.03125 6.296875 
Q 38.03125 13.1875 34.203125 17.703125 
Q 30.375 22.21875 24.125 22.21875 
Q 20.21875 22.21875 16.8125 20.75 
Q 13.421875 19.28125 10.75 15.875 
L 7.46875 17.140625 
L 11.625 52.390625 
L 46.578125 52.390625 
L 46.578125 43.703125 
L 15.578125 43.703125 
L 13.03125 23 
Q 15.234375 24.5625 18.8125 26.09375 
Q 22.40625 27.640625 26.703125 27.640625 
Q 30.28125 27.640625 34.109375 26.53125 
Q 37.9375 25.4375 41.15625 22.90625 
z
" id="Georgia-35"/>
      </defs>
      <g transform="translate(36.82625 190.435625)scale(0.12 -0.12)">
       <use xlink:href="#Georgia-30"/>
       <use x="61.376953" xlink:href="#Georgia-2e"/>
       <use x="88.330078" xlink:href="#Georgia-30"/>
       <use x="149.707031" xlink:href="#Georgia-30"/>
       <use x="211.083984" xlink:href="#Georgia-37"/>
       <use x="261.328125" xlink:href="#Georgia-35"/>
      </g>
     </g>
    </g>
    <g id="ytick_3">
     <g id="line2d_9">
      <g>
       <use style="stroke:#000000;stroke-width:0.8;" x="81.525" xlink:href="#m1d48e6f7b3" y="134.2"/>
      </g>
     </g>
     <g id="text_10">
      <!-- 0.0150 -->
      <g transform="translate(37.7 138.735625)scale(0.12 -0.12)">
       <use xlink:href="#Georgia-30"/>
       <use x="61.376953" xlink:href="#Georgia-2e"/>
       <use x="88.330078" xlink:href="#Georgia-30"/>
       <use x="149.707031" xlink:href="#Georgia-31"/>
       <use x="192.675781" xlink:href="#Georgia-35"/>
       <use x="245.507812" xlink:href="#Georgia-30"/>
      </g>
     </g>
    </g>
    <g id="ytick_4">
     <g id="line2d_10">
      <g>
       <use style="stroke:#000000;stroke-width:0.8;" x="81.525" xlink:href="#m1d48e6f7b3" y="82.5"/>
      </g>
     </g>
     <g id="text_11">
      <!-- 0.0225 -->
      <g transform="translate(36.815 87.035625)scale(0.12 -0.12)">
       <use xlink:href="#Georgia-30"/>
       <use x="61.376953" xlink:href="#Georgia-2e"/>
       <use x="88.330078" xlink:href="#Georgia-30"/>
       <use x="149.707031" xlink:href="#Georgia-32"/>
       <use x="205.566406" xlink:href="#Georgia-32"/>
       <use x="261.425781" xlink:href="#Georgia-35"/>
      </g>
     </g>
    </g>
    <g id="ytick_5">
     <g id="line2d_11">
      <g>
       <use style="stroke:#000000;stroke-width:0.8;" x="81.525" xlink:href="#m1d48e6f7b3" y="30.8"/>
      </g>
     </g>
     <g id="text_12">
      <!-- 0.0300 -->
      <defs>
       <path d="M 23.78125 -17.828125 
Q 19.1875 -17.828125 15.375 -16.671875 
Q 11.578125 -15.53125 8.84375 -13.578125 
Q 6.109375 -11.625 4.609375 -9.078125 
Q 3.125 -6.546875 3.125 -3.859375 
Q 3.125 -1.46875 4.296875 0.453125 
Q 5.46875 2.390625 8.0625 2.390625 
Q 10.984375 2.390625 12.515625 0.953125 
Q 14.0625 -0.484375 14.0625 -2.34375 
Q 14.0625 -3.90625 13.546875 -6.296875 
Q 13.03125 -8.6875 12.75 -9.71875 
Q 13.09375 -10.15625 13.984375 -10.890625 
Q 14.890625 -11.625 16.21875 -12.203125 
Q 17.78125 -12.9375 19.484375 -13.375 
Q 21.1875 -13.8125 24.3125 -13.8125 
Q 27.25 -13.8125 29.953125 -12.828125 
Q 32.671875 -11.859375 34.71875 -9.71875 
Q 36.859375 -7.46875 38.0625 -4.46875 
Q 39.265625 -1.46875 39.265625 3.421875 
Q 39.265625 6.0625 38.703125 8.640625 
Q 38.140625 11.234375 36.625 13.140625 
Q 35.109375 15.046875 32.5 16.09375 
Q 29.890625 17.140625 25.875 17.140625 
L 19.484375 17.140625 
L 19.484375 22.75 
L 23.734375 22.75 
Q 30.46875 22.75 33.4375 26.453125 
Q 36.421875 30.171875 36.421875 37.640625 
Q 36.421875 43.75 33.546875 46.84375 
Q 30.671875 49.953125 25.390625 49.953125 
Q 22.859375 49.953125 21.21875 49.34375 
Q 19.578125 48.734375 18.5625 48.140625 
Q 17.328125 47.46875 16.546875 46.625 
Q 15.765625 45.796875 15.375 45.40625 
Q 15.71875 43.84375 16.203125 41.578125 
Q 16.703125 39.3125 16.703125 37.25 
Q 16.703125 35.453125 15.15625 34 
Q 13.625 32.5625 10.640625 32.5625 
Q 8.0625 32.5625 6.859375 34.421875 
Q 5.671875 36.28125 5.671875 38.71875 
Q 5.671875 41.265625 7.078125 43.890625 
Q 8.5 46.53125 11.28125 48.828125 
Q 14.0625 51.125 18.0625 52.53125 
Q 22.078125 53.953125 27.296875 53.953125 
Q 33.296875 53.953125 37.21875 52.171875 
Q 41.15625 50.390625 43.40625 47.859375 
Q 45.609375 45.359375 46.4375 42.625 
Q 47.265625 39.890625 47.265625 37.9375 
Q 47.265625 35.5 46.578125 33.03125 
Q 45.90625 30.5625 44.34375 28.46875 
Q 42.625 26.171875 39.8125 24.28125 
Q 37.015625 22.40625 32.765625 21.234375 
L 32.765625 20.453125 
Q 35.5 20.21875 38.59375 19.234375 
Q 41.703125 18.265625 44.1875 16.359375 
Q 46.78125 14.359375 48.4375 11.203125 
Q 50.09375 8.0625 50.09375 3.21875 
Q 50.09375 -6.15625 42.578125 -11.984375 
Q 35.0625 -17.828125 23.78125 -17.828125 
z
" id="Georgia-33"/>
      </defs>
      <g transform="translate(35.21 35.335625)scale(0.12 -0.12)">
       <use xlink:href="#Georgia-30"/>
       <use x="61.376953" xlink:href="#Georgia-2e"/>
       <use x="88.330078" xlink:href="#Georgia-30"/>
       <use x="149.707031" xlink:href="#Georgia-33"/>
       <use x="204.882812" xlink:href="#Georgia-30"/>
       <use x="266.259766" xlink:href="#Georgia-30"/>
      </g>
     </g>
    </g>
    <g id="text_13">
     <!-- $p(x^\star|\{x\})$ -->
     <defs>
      <path d="M 21.5 42.796875 
L 18.59375 32.796875 
Q 26.09375 44.09375 35.703125 44.09375 
Q 41.203125 44.09375 44.203125 40.796875 
Q 47.203125 37.5 47.203125 31.59375 
Q 47.203125 19.296875 37.84375 9.09375 
Q 28.5 -1.09375 17.5 -1.09375 
Q 13.90625 -1.09375 10.59375 0.59375 
Q 6.59375 -15.90625 6.59375 -16 
Q 6.59375 -17.59375 7.9375 -18.25 
Q 9.296875 -18.90625 12.796875 -18.90625 
L 12.796875 -20.5 
L -7.5 -20.5 
L -7.5 -18.90625 
Q -4.296875 -18.796875 -2.9375 -17.5 
Q -1.59375 -16.203125 -0.703125 -12.59375 
L 10.796875 30.59375 
Q 12.40625 36.40625 12.40625 37.703125 
Q 12.40625 40.40625 8 40.40625 
L 5.796875 40.40625 
L 5.59375 41.90625 
L 21.203125 44.09375 
Q 21.703125 44.09375 21.703125 43.703125 
Q 21.59375 43.203125 21.5 42.796875 
z
M 38.203125 31.296875 
Q 38.203125 35.703125 36.75 37.75 
Q 35.296875 39.796875 32 39.796875 
Q 28.09375 39.796875 24.1875 36.390625 
Q 20.296875 33 18.5 28.40625 
Q 16.296875 22.703125 14.140625 14.890625 
Q 12 7.09375 12 4.59375 
Q 12 2.90625 13.34375 1.84375 
Q 14.703125 0.796875 16.796875 0.796875 
Q 24.59375 0.796875 31.296875 10.296875 
Q 38.203125 19.90625 38.203125 31.296875 
z
" id="STIXGeneral-Italic-70"/>
      <path d="M 30.40625 -16.09375 
L 29.203125 -17.703125 
Q 17.59375 -11.09375 11.1875 0.5 
Q 4.796875 12.09375 4.796875 25.203125 
Q 4.796875 52.90625 29.5 67.59375 
L 30.40625 66 
Q 20.203125 57.296875 16.796875 48.84375 
Q 13.40625 40.40625 13.40625 25.5 
Q 13.40625 10.703125 16.90625 1.5 
Q 20.40625 -7.703125 30.40625 -16.09375 
z
" id="STIXGeneral-Regular-28"/>
      <path d="M 13.296875 -1.40625 
L 6.703125 -1.40625 
L 6.703125 67.59375 
L 13.296875 67.59375 
z
" id="STIXGeneral-Regular-7c"/>
      <path d="M 35 -17 
L 35 -18.09375 
Q 26.59375 -18 22.90625 -15.59375 
Q 18.5 -12.796875 18.5 -4.09375 
L 18.5 13.59375 
Q 18.5 18.796875 16.75 21.09375 
Q 15 23.40625 10 25 
Q 15 26.5 16.75 28.796875 
Q 18.5 31.09375 18.5 36.296875 
L 18.5 54.09375 
Q 18.5 62.796875 22.90625 65.5 
Q 26.703125 67.90625 35 68 
L 35 66.90625 
Q 29.796875 65.59375 27.84375 62.890625 
Q 25.90625 60.203125 25.90625 54.59375 
L 25.90625 37.796875 
Q 25.90625 31.59375 24 29 
Q 22.09375 26.40625 16.5 24.90625 
Q 22.09375 23.5 24 20.890625 
Q 25.90625 18.296875 25.90625 12.09375 
L 25.90625 -4.703125 
Q 25.90625 -10.296875 27.84375 -13 
Q 29.796875 -15.703125 35 -17 
z
" id="STIXGeneral-Regular-7b"/>
      <path d="M 29.5 54 
L 29.5 36.296875 
Q 29.5 31.09375 31.25 28.796875 
Q 33 26.5 38 25 
Q 33 23.40625 31.25 21.09375 
Q 29.5 18.796875 29.5 13.59375 
L 29.5 -4.203125 
Q 29.5 -12.90625 25.09375 -15.59375 
Q 21.296875 -18 13 -18.09375 
L 13 -17 
Q 18.203125 -15.703125 20.140625 -13 
Q 22.09375 -10.296875 22.09375 -4.703125 
L 22.09375 12.09375 
Q 22.09375 18.296875 24 20.890625 
Q 25.90625 23.5 31.5 25 
Q 25.90625 26.40625 24 28.953125 
Q 22.09375 31.5 22.09375 37.796875 
L 22.09375 54.59375 
Q 22.09375 60.203125 20.140625 62.890625 
Q 18.203125 65.59375 13 66.90625 
L 13 68 
Q 21.40625 67.90625 25.09375 65.5 
Q 29.5 62.703125 29.5 54 
z
" id="STIXGeneral-Regular-7d"/>
      <path d="M 2.90625 66 
L 4.09375 67.59375 
Q 15.5 60.796875 22 49.1875 
Q 28.5 37.59375 28.5 24.703125 
Q 28.5 -2.59375 3.796875 -17.703125 
L 2.90625 -16.09375 
Q 13.203125 -7.59375 16.546875 0.84375 
Q 19.90625 9.296875 19.90625 24.40625 
Q 19.90625 39.59375 16.546875 48.75 
Q 13.203125 57.90625 2.90625 66 
z
" id="STIXGeneral-Regular-29"/>
     </defs>
     <g transform="translate(26.995625 166.36)rotate(-90)scale(0.16 -0.16)">
      <use transform="translate(0 0.932813)" xlink:href="#STIXGeneral-Italic-70"/>
      <use transform="translate(50.399994 0.932813)" xlink:href="#STIXGeneral-Regular-28"/>
      <use transform="translate(83.699982 0.932813)" xlink:href="#STIXGeneral-Italic-78"/>
      <use transform="translate(144.381098 36.207813)scale(0.7)" xlink:href="#STIXGeneral-Regular-22c6"/>
      <use transform="translate(207.89846 0.932813)" xlink:href="#STIXGeneral-Regular-7c"/>
      <use transform="translate(227.898445 0.932813)" xlink:href="#STIXGeneral-Regular-7b"/>
      <use transform="translate(275.898429 0.932813)" xlink:href="#STIXGeneral-Italic-78"/>
      <use transform="translate(320.298423 0.932813)" xlink:href="#STIXGeneral-Regular-7d"/>
      <use transform="translate(368.298408 0.932813)" xlink:href="#STIXGeneral-Regular-29"/>
     </g>
    </g>
   </g>
   <g id="line2d_12">
    <path clip-path="url(#p29e4ff3990)" d="M 81.854675 43.643513 
L 83.509677 47.436575 
L 85.164678 51.132495 
L 88.474682 58.244906 
L 93.439686 68.257166 
L 98.404691 77.544095 
L 103.369696 86.169224 
L 108.334701 94.189693 
L 113.299706 101.656966 
L 118.264711 108.617458 
L 123.229716 115.11309 
L 128.194721 121.181772 
L 133.159726 126.857835 
L 138.124731 132.172406 
L 143.089735 137.153746 
L 148.05474 141.827546 
L 153.019745 146.217186 
L 157.98475 150.343975 
L 162.949755 154.22735 
L 167.91476 157.885067 
L 174.534766 162.438863 
L 181.154773 166.654952 
L 187.77478 170.564289 
L 194.394786 174.194499 
L 201.014793 177.570281 
L 207.634799 180.713761 
L 214.254806 183.644793 
L 222.529814 187.036847 
L 230.804822 190.155725 
L 239.07983 193.028706 
L 247.354838 195.679843 
L 257.284848 198.59814 
L 267.214858 201.259676 
L 277.144868 203.692399 
L 288.729879 206.273667 
L 300.314891 208.609898 
L 311.899902 210.729739 
L 325.139915 212.918928 
L 338.379928 214.889108 
L 353.274943 216.876996 
L 369.824959 218.839468 
L 386.374976 220.578303 
L 404.579993 222.269323 
L 411.2 222.833205 
L 411.2 222.833205 
" style="fill:none;stroke:#000000;stroke-linecap:square;stroke-width:1.5;"/>
   </g>
   <g id="patch_3">
    <path d="M 81.525 237.6 
L 81.525 30.8 
" style="fill:none;stroke:#000000;stroke-linecap:square;stroke-linejoin:miter;stroke-width:0.8;"/>
   </g>
   <g id="patch_4">
    <path d="M 411.2 237.6 
L 411.2 30.8 
" style="fill:none;stroke:#000000;stroke-linecap:square;stroke-linejoin:miter;stroke-width:0.8;"/>
   </g>
   <g id="patch_5">
    <path d="M 81.525 237.6 
L 411.2 237.6 
" style="fill:none;stroke:#000000;stroke-linecap:square;stroke-linejoin:miter;stroke-width:0.8;"/>
   </g>
   <g id="patch_6">
    <path d="M 81.525 30.8 
L 411.2 30.8 
" style="fill:none;stroke:#000000;stroke-linecap:square;stroke-linejoin:miter;stroke-width:0.8;"/>
   </g>
   <g id="text_14">
    <!-- Predictive distribution -->
    <defs>
     <path d="M 57.8125 52.203125 
Q 57.8125 46.78125 55.6875 42.59375 
Q 53.5625 38.421875 49.8125 35.6875 
Q 46.09375 32.953125 41.640625 31.6875 
Q 37.203125 30.421875 32.234375 30.421875 
L 24.46875 30.421875 
L 24.46875 9.421875 
Q 24.46875 7.71875 25.03125 6.421875 
Q 25.59375 5.125 27.34375 4.4375 
Q 28.21875 4.109375 30.4375 3.8125 
Q 32.671875 3.515625 34.515625 3.46875 
L 34.515625 0 
L 4.78125 0 
L 4.78125 3.46875 
Q 5.953125 3.5625 8.171875 3.796875 
Q 10.40625 4.046875 11.28125 4.4375 
Q 12.75 5.078125 13.40625 6.296875 
Q 14.0625 7.515625 14.0625 9.421875 
L 14.0625 59.421875 
Q 14.0625 61.140625 13.578125 62.5 
Q 13.09375 63.875 11.28125 64.546875 
Q 9.421875 65.1875 7.59375 65.453125 
Q 5.765625 65.71875 4.4375 65.828125 
L 4.4375 69.28125 
L 36.078125 69.28125 
Q 45.75 69.28125 51.78125 64.625 
Q 57.8125 59.96875 57.8125 52.203125 
z
M 42.96875 40.375 
Q 44.625 42.71875 45.15625 45.234375 
Q 45.703125 47.75 45.703125 49.75 
Q 45.703125 52.546875 45.046875 55.421875 
Q 44.390625 58.296875 42.78125 60.453125 
Q 41.0625 62.75 38.28125 64.015625 
Q 35.5 65.28125 31.34375 65.28125 
L 24.46875 65.28125 
L 24.46875 34.671875 
L 29.4375 34.671875 
Q 34.71875 34.671875 38.015625 36.296875 
Q 41.3125 37.9375 42.96875 40.375 
z
" id="Georgia-50"/>
     <path d="M 40.375 41.9375 
Q 40.375 39.453125 39.15625 37.515625 
Q 37.9375 35.59375 35.40625 35.59375 
Q 32.671875 35.59375 31.21875 37 
Q 29.78125 38.421875 29.78125 40.140625 
Q 29.78125 41.21875 29.953125 42.09375 
Q 30.125 42.96875 30.28125 43.84375 
Q 27.984375 43.84375 24.90625 41.984375 
Q 21.828125 40.140625 19.671875 36.71875 
L 19.671875 8.6875 
Q 19.671875 6.984375 20.328125 5.90625 
Q 21 4.828125 22.40625 4.296875 
Q 23.640625 3.8125 25.5625 3.5625 
Q 27.484375 3.328125 28.90625 3.21875 
L 28.90625 0 
L 3.515625 0 
L 3.515625 3.21875 
Q 4.640625 3.328125 5.828125 3.421875 
Q 7.03125 3.515625 7.90625 3.8125 
Q 9.28125 4.25 9.9375 5.34375 
Q 10.59375 6.453125 10.59375 8.203125 
L 10.59375 37.9375 
Q 10.59375 39.453125 9.890625 40.921875 
Q 9.1875 42.390625 7.90625 43.265625 
Q 6.984375 43.84375 5.703125 44.109375 
Q 4.4375 44.390625 2.984375 44.484375 
L 2.984375 47.65625 
L 19 48.734375 
L 19.671875 48.046875 
L 19.671875 41.265625 
L 19.921875 41.265625 
Q 22.953125 45.21875 26.65625 47.265625 
Q 30.375 49.3125 33.453125 49.3125 
Q 36.53125 49.3125 38.453125 47.3125 
Q 40.375 45.3125 40.375 41.9375 
z
" id="Georgia-72"/>
     <path d="M 46.296875 11.328125 
Q 43.265625 5.5625 38.1875 2.140625 
Q 33.109375 -1.265625 26.515625 -1.265625 
Q 20.703125 -1.265625 16.328125 0.78125 
Q 11.96875 2.828125 9.125 6.34375 
Q 6.296875 9.859375 4.90625 14.546875 
Q 3.515625 19.234375 3.515625 24.46875 
Q 3.515625 29.15625 5 33.671875 
Q 6.5 38.1875 9.375 41.796875 
Q 12.15625 45.265625 16.28125 47.390625 
Q 20.40625 49.515625 25.53125 49.515625 
Q 30.8125 49.515625 34.5625 47.84375 
Q 38.328125 46.1875 40.671875 43.3125 
Q 42.921875 40.578125 44.015625 36.859375 
Q 45.125 33.15625 45.125 28.8125 
L 45.125 25.59375 
L 13.234375 25.59375 
Q 13.234375 20.84375 14.140625 16.984375 
Q 15.046875 13.140625 17 10.203125 
Q 18.890625 7.375 21.96875 5.734375 
Q 25.046875 4.109375 29.296875 4.109375 
Q 33.640625 4.109375 36.78125 6.125 
Q 39.9375 8.15625 42.875 13.421875 
z
M 35.5 29.6875 
Q 35.5 32.421875 35.03125 35.546875 
Q 34.578125 38.671875 33.546875 40.765625 
Q 32.421875 43.015625 30.46875 44.421875 
Q 28.515625 45.84375 25.4375 45.84375 
Q 20.3125 45.84375 16.921875 41.578125 
Q 13.53125 37.3125 13.234375 29.6875 
z
" id="Georgia-65"/>
     <path d="M 56.25 0.875 
L 39.453125 -0.203125 
L 38.71875 0.484375 
L 38.71875 4.984375 
L 38.328125 5.078125 
Q 35.796875 2.25 32.0625 0.4375 
Q 28.328125 -1.375 24.359375 -1.375 
Q 20.265625 -1.375 16.421875 0.453125 
Q 12.59375 2.296875 9.765625 5.609375 
Q 6.890625 8.984375 5.203125 13.71875 
Q 3.515625 18.453125 3.515625 24.171875 
Q 3.515625 29.390625 5.3125 34.078125 
Q 7.125 38.765625 10.296875 42.28125 
Q 13.28125 45.5625 17.59375 47.515625 
Q 21.921875 49.46875 26.421875 49.46875 
Q 29.78125 49.46875 33.03125 48.609375 
Q 36.28125 47.75 38.625 46.4375 
L 38.625 63.1875 
Q 38.625 65.234375 37.9375 66.921875 
Q 37.25 68.609375 36.03125 69.484375 
Q 34.671875 70.40625 32.34375 70.8125 
Q 30.03125 71.234375 27.34375 71.4375 
L 27.34375 74.46875 
L 47.015625 75.59375 
L 47.75 74.859375 
L 47.75 9.90625 
Q 47.75 8.203125 48.40625 7 
Q 49.078125 5.8125 50.34375 4.984375 
Q 51.265625 4.390625 53.015625 4.25 
Q 54.78125 4.109375 56.25 4.046875 
z
M 38.625 9.328125 
L 38.625 37.5 
Q 38.234375 38.765625 37.34375 40.234375 
Q 36.46875 41.703125 35.15625 42.921875 
Q 33.734375 44.140625 31.828125 44.9375 
Q 29.9375 45.75 27.390625 45.75 
Q 24.46875 45.75 22 44.234375 
Q 19.53125 42.71875 17.625 39.890625 
Q 15.828125 37.15625 14.765625 32.9375 
Q 13.71875 28.71875 13.71875 23.578125 
Q 13.71875 19.484375 14.5 16.140625 
Q 15.28125 12.796875 17.140625 9.90625 
Q 18.84375 7.171875 21.5 5.515625 
Q 24.171875 3.859375 27.828125 3.859375 
Q 31.734375 3.859375 34.296875 5.5625 
Q 36.859375 7.28125 38.625 9.328125 
z
" id="Georgia-64"/>
     <path d="M 26.90625 0 
L 3.609375 0 
L 3.609375 3.21875 
Q 4.734375 3.328125 5.921875 3.421875 
Q 7.125 3.515625 8.015625 3.8125 
Q 9.375 4.25 10.03125 5.34375 
Q 10.6875 6.453125 10.6875 8.203125 
L 10.6875 37.9375 
Q 10.6875 39.5 9.984375 40.796875 
Q 9.28125 42.09375 8.015625 42.96875 
Q 7.078125 43.5625 5.3125 43.96875 
Q 3.5625 44.390625 2.09375 44.484375 
L 2.09375 47.65625 
L 19.09375 48.734375 
L 19.78125 48.046875 
L 19.78125 8.796875 
Q 19.78125 7.078125 20.4375 5.953125 
Q 21.09375 4.828125 22.515625 4.296875 
Q 23.578125 3.859375 24.609375 3.59375 
Q 25.640625 3.328125 26.90625 3.21875 
z
M 20.75 67.71875 
Q 20.75 64.9375 18.921875 62.859375 
Q 17.09375 60.796875 14.40625 60.796875 
Q 11.921875 60.796875 10.078125 62.765625 
Q 8.25 64.75 8.25 67.28125 
Q 8.25 69.96875 10.078125 71.96875 
Q 11.921875 73.96875 14.40625 73.96875 
Q 17.1875 73.96875 18.96875 72.09375 
Q 20.75 70.21875 20.75 67.71875 
z
" id="Georgia-69"/>
     <path d="M 25.78125 -1.265625 
Q 15.328125 -1.265625 9.421875 5.65625 
Q 3.515625 12.59375 3.515625 24.265625 
Q 3.515625 29.34375 5.09375 33.765625 
Q 6.6875 38.1875 9.71875 41.796875 
Q 12.59375 45.265625 16.9375 47.390625 
Q 21.296875 49.515625 26.421875 49.515625 
Q 33.5 49.515625 37.9375 46.109375 
Q 42.390625 42.71875 42.390625 36.859375 
Q 42.390625 34.421875 41.21875 32.546875 
Q 40.046875 30.671875 37.359375 30.671875 
Q 34.46875 30.671875 32.875 32.125 
Q 31.296875 33.59375 31.296875 35.40625 
Q 31.296875 37.59375 31.875 39.90625 
Q 32.46875 42.234375 32.5625 43.3125 
Q 31.6875 44.828125 29.953125 45.328125 
Q 28.21875 45.84375 26.21875 45.84375 
Q 23.875 45.84375 21.75 44.84375 
Q 19.625 43.84375 17.625 41.15625 
Q 15.828125 38.71875 14.703125 34.5625 
Q 13.578125 30.421875 13.578125 24.65625 
Q 13.578125 15.578125 17.59375 9.84375 
Q 21.625 4.109375 28.171875 4.109375 
Q 32.90625 4.109375 36.109375 6.390625 
Q 39.3125 8.6875 42.046875 13.28125 
L 45.171875 11.234375 
Q 41.9375 5.46875 36.65625 2.09375 
Q 31.390625 -1.265625 25.78125 -1.265625 
z
" id="Georgia-63"/>
     <path d="M 33.25 2.09375 
Q 30.078125 0.78125 27.25 -0.125 
Q 24.421875 -1.03125 20.3125 -1.03125 
Q 14.265625 -1.03125 11.796875 2.015625 
Q 9.328125 5.078125 9.328125 10.640625 
L 9.328125 43.265625 
L 0.640625 43.265625 
L 0.640625 47.953125 
L 9.515625 47.953125 
L 9.515625 62.9375 
L 18.40625 62.9375 
L 18.40625 47.953125 
L 32.234375 47.953125 
L 32.234375 43.265625 
L 18.5 43.265625 
L 18.5 16.359375 
Q 18.5 13.328125 18.71875 11.296875 
Q 18.953125 9.28125 19.78125 7.765625 
Q 20.5625 6.34375 22.125 5.609375 
Q 23.6875 4.890625 26.3125 4.890625 
Q 27.546875 4.890625 29.90625 5.109375 
Q 32.28125 5.328125 33.25 5.671875 
z
" id="Georgia-74"/>
     <path d="M 51.078125 45.171875 
Q 48.875 44.78125 46.890625 43.578125 
Q 44.921875 42.390625 43.5 39.359375 
Q 40.625 32.8125 37.546875 25.703125 
Q 34.46875 18.609375 31.15625 10.796875 
Q 30.171875 8.546875 29.078125 5.46875 
Q 27.984375 2.390625 27.046875 -0.4375 
L 23.25 -0.4375 
Q 18.609375 11.03125 14.703125 20.484375 
Q 10.796875 29.9375 6.59375 39.84375 
Q 5.609375 42.09375 3.4375 43.328125 
Q 1.265625 44.578125 -0.921875 44.921875 
L -0.921875 48.140625 
L 21.34375 48.140625 
L 21.34375 44.734375 
Q 19.875 44.671875 17.671875 44.109375 
Q 15.484375 43.5625 15.484375 42.578125 
Q 15.484375 42.4375 15.71875 41.828125 
Q 15.96875 41.21875 16.21875 40.4375 
Q 18.21875 35.453125 21.875 26.515625 
Q 25.53125 17.578125 27.828125 12.109375 
Q 29.59375 16.3125 32.25 22.5625 
Q 34.90625 28.8125 37.984375 36.53125 
Q 38.484375 37.84375 38.921875 38.984375 
Q 39.359375 40.140625 39.359375 41.3125 
Q 39.359375 42.140625 38.546875 42.796875 
Q 37.75 43.453125 36.625 43.953125 
Q 35.5 44.4375 34.421875 44.671875 
Q 33.34375 44.921875 32.671875 45.015625 
L 32.671875 48.140625 
L 51.078125 48.140625 
z
" id="Georgia-76"/>
     <path id="Georgia-20"/>
     <path d="M 35.296875 23.578125 
Q 37.3125 21.828125 38.375 19.53125 
Q 39.453125 17.234375 39.453125 13.921875 
Q 39.453125 7.234375 34.4375 2.984375 
Q 29.4375 -1.265625 21.484375 -1.265625 
Q 17.28125 -1.265625 13.734375 0.25 
Q 10.203125 1.765625 8.6875 3.03125 
L 7.71875 -0.140625 
L 4.046875 -0.140625 
L 3.5625 16.609375 
L 6.9375 16.609375 
Q 7.328125 14.703125 8.59375 12.15625 
Q 9.859375 9.625 11.671875 7.5625 
Q 13.578125 5.421875 16.234375 3.953125 
Q 18.890625 2.484375 22.21875 2.484375 
Q 26.90625 2.484375 29.4375 4.609375 
Q 31.984375 6.734375 31.984375 10.6875 
Q 31.984375 12.75 31.171875 14.234375 
Q 30.375 15.71875 28.8125 16.84375 
Q 27.203125 17.96875 24.859375 18.875 
Q 22.515625 19.78125 19.625 20.65625 
Q 17.328125 21.34375 14.515625 22.53125 
Q 11.71875 23.734375 9.71875 25.34375 
Q 7.5625 27.046875 6.1875 29.53125 
Q 4.828125 32.03125 4.828125 35.40625 
Q 4.828125 41.3125 9.21875 45.40625 
Q 13.625 49.515625 21 49.515625 
Q 23.828125 49.515625 26.78125 48.78125 
Q 29.734375 48.046875 31.59375 47.015625 
L 32.71875 49.5625 
L 36.234375 49.5625 
L 36.96875 34.078125 
L 33.59375 34.078125 
Q 32.5625 39.265625 29.171875 42.5 
Q 25.78125 45.75 20.90625 45.75 
Q 16.890625 45.75 14.59375 43.75 
Q 12.3125 41.75 12.3125 38.921875 
Q 12.3125 36.71875 13.0625 35.25 
Q 13.8125 33.796875 15.328125 32.765625 
Q 16.796875 31.78125 19.015625 30.921875 
Q 21.234375 30.078125 24.515625 29 
Q 27.734375 27.984375 30.59375 26.609375 
Q 33.453125 25.25 35.296875 23.578125 
z
" id="Georgia-73"/>
     <path d="M 52.390625 24.125 
Q 52.390625 13.28125 45.546875 5.90625 
Q 38.71875 -1.46875 29.6875 -1.46875 
Q 25.734375 -1.46875 21.890625 -0.234375 
Q 18.0625 0.984375 14.703125 3.03125 
L 11.078125 -2.59375 
L 8.0625 -1.90625 
Q 8.296875 1.703125 8.390625 6.78125 
Q 8.5 11.859375 8.5 16.609375 
L 8.5 64.265625 
Q 8.5 65.921875 7.734375 67.578125 
Q 6.984375 69.234375 5.8125 69.96875 
Q 4.890625 70.609375 2.703125 70.921875 
Q 0.53125 71.234375 -0.78125 71.34375 
L -0.78125 74.46875 
L 16.890625 75.59375 
L 17.578125 74.859375 
L 17.578125 43.109375 
L 17.921875 43.015625 
Q 20.953125 46.234375 24.53125 47.84375 
Q 28.125 49.46875 31.59375 49.46875 
Q 40.484375 49.46875 46.4375 42.4375 
Q 52.390625 35.40625 52.390625 24.125 
z
M 42.1875 23.78125 
Q 42.1875 27.390625 41.40625 31.140625 
Q 40.625 34.90625 38.96875 37.703125 
Q 37.3125 40.53125 34.625 42.28125 
Q 31.9375 44.046875 28.171875 44.046875 
Q 24.75 44.046875 22.1875 42.703125 
Q 19.625 41.359375 17.578125 39.0625 
L 17.578125 11.03125 
Q 17.875 9.859375 18.71875 8.296875 
Q 19.578125 6.734375 21.046875 5.328125 
Q 22.515625 3.953125 24.359375 3.09375 
Q 26.21875 2.25 28.90625 2.25 
Q 34.859375 2.25 38.515625 8 
Q 42.1875 13.765625 42.1875 23.78125 
z
" id="Georgia-62"/>
     <path d="M 55.125 0.875 
L 39.453125 -0.203125 
L 38.71875 0.484375 
L 38.71875 6.59375 
L 38.421875 6.59375 
Q 37.25 5.375 35.78125 3.984375 
Q 34.328125 2.59375 32.421875 1.46875 
Q 30.21875 0.140625 28.171875 -0.53125 
Q 26.125 -1.21875 22.359375 -1.21875 
Q 15.96875 -1.21875 12.625 2.953125 
Q 9.28125 7.125 9.28125 15.09375 
L 9.28125 38.140625 
Q 9.28125 39.890625 8.609375 41.078125 
Q 7.953125 42.28125 6.6875 43.171875 
Q 5.8125 43.75 4.484375 44.015625 
Q 3.171875 44.28125 1.703125 44.390625 
L 1.703125 47.5625 
L 17.78125 48.734375 
L 18.5 48.046875 
L 18.5 14.59375 
Q 18.5 9.375 20.84375 6.734375 
Q 23.1875 4.109375 26.46875 4.109375 
Q 29.15625 4.109375 31.25 4.9375 
Q 33.34375 5.765625 34.765625 6.890625 
Q 36.078125 7.90625 37.078125 9.046875 
Q 38.09375 10.203125 38.625 11.1875 
L 38.625 38.484375 
Q 38.625 40.09375 37.9375 41.328125 
Q 37.25 42.578125 36.03125 43.453125 
Q 35.15625 44.046875 33.421875 44.15625 
Q 31.6875 44.28125 29.546875 44.390625 
L 29.546875 47.5625 
L 47.015625 48.734375 
L 47.75 48.046875 
L 47.75 9.8125 
Q 47.75 8.15625 48.4375 6.984375 
Q 49.125 5.8125 50.34375 4.984375 
Q 51.21875 4.4375 52.4375 4.265625 
Q 53.65625 4.109375 55.125 4.046875 
z
" id="Georgia-75"/>
     <path d="M 50.4375 24.5625 
Q 50.4375 19.484375 48.828125 14.578125 
Q 47.21875 9.671875 44.234375 6.25 
Q 40.875 2.34375 36.421875 0.4375 
Q 31.984375 -1.46875 26.46875 -1.46875 
Q 21.875 -1.46875 17.71875 0.265625 
Q 13.578125 2 10.359375 5.328125 
Q 7.171875 8.59375 5.296875 13.296875 
Q 3.421875 18.015625 3.421875 23.875 
Q 3.421875 35.15625 9.984375 42.328125 
Q 16.546875 49.515625 27.203125 49.515625 
Q 37.3125 49.515625 43.875 42.703125 
Q 50.4375 35.890625 50.4375 24.5625 
z
M 40.328125 24.46875 
Q 40.328125 28.125 39.59375 32.203125 
Q 38.875 36.28125 37.40625 39.109375 
Q 35.84375 42.140625 33.296875 43.96875 
Q 30.765625 45.796875 27.09375 45.796875 
Q 23.34375 45.796875 20.671875 43.9375 
Q 18.015625 42.09375 16.359375 38.875 
Q 14.796875 35.890625 14.15625 32.078125 
Q 13.53125 28.265625 13.53125 24.703125 
Q 13.53125 20.015625 14.28125 16.03125 
Q 15.046875 12.0625 16.703125 8.9375 
Q 18.359375 5.8125 20.875 4.03125 
Q 23.390625 2.25 27.09375 2.25 
Q 33.203125 2.25 36.765625 8.15625 
Q 40.328125 14.0625 40.328125 24.46875 
z
" id="Georgia-6f"/>
     <path d="M 56.6875 0 
L 33.109375 0 
L 33.109375 3.21875 
Q 34.234375 3.328125 35.578125 3.421875 
Q 36.921875 3.515625 37.796875 3.8125 
Q 39.15625 4.25 39.8125 5.34375 
Q 40.484375 6.453125 40.484375 8.203125 
L 40.484375 32.953125 
Q 40.484375 38.09375 38.0625 40.875 
Q 35.640625 43.65625 32.171875 43.65625 
Q 29.59375 43.65625 27.4375 42.84375 
Q 25.296875 42.046875 23.640625 40.875 
Q 22.015625 39.75 21.0625 38.453125 
Q 20.125 37.15625 19.671875 36.375 
L 19.671875 8.6875 
Q 19.671875 7.03125 20.359375 5.953125 
Q 21.046875 4.890625 22.40625 4.296875 
Q 23.4375 3.8125 24.625 3.5625 
Q 25.828125 3.328125 27.09375 3.21875 
L 27.09375 0 
L 3.515625 0 
L 3.515625 3.21875 
Q 4.640625 3.328125 5.828125 3.421875 
Q 7.03125 3.515625 7.90625 3.8125 
Q 9.28125 4.25 9.9375 5.34375 
Q 10.59375 6.453125 10.59375 8.203125 
L 10.59375 37.9375 
Q 10.59375 39.59375 9.890625 40.984375 
Q 9.1875 42.390625 7.90625 43.265625 
Q 6.984375 43.84375 5.703125 44.109375 
Q 4.4375 44.390625 2.984375 44.484375 
L 2.984375 47.65625 
L 19 48.734375 
L 19.671875 48.046875 
L 19.671875 41.265625 
L 19.921875 41.265625 
Q 21.09375 42.4375 22.84375 44.0625 
Q 24.609375 45.703125 26.171875 46.734375 
Q 27.984375 47.90625 30.46875 48.6875 
Q 32.953125 49.46875 36.078125 49.46875 
Q 43.015625 49.46875 46.359375 45.140625 
Q 49.703125 40.828125 49.703125 33.640625 
L 49.703125 8.59375 
Q 49.703125 6.890625 50.28125 5.828125 
Q 50.875 4.78125 52.296875 4.203125 
Q 53.46875 3.71875 54.3125 3.515625 
Q 55.171875 3.328125 56.6875 3.21875 
z
" id="Georgia-6e"/>
    </defs>
    <g transform="translate(156.957344 24.8)scale(0.18 -0.18)">
     <use xlink:href="#Georgia-50"/>
     <use x="60.986328" xlink:href="#Georgia-72"/>
     <use x="101.953125" xlink:href="#Georgia-65"/>
     <use x="150.292969" xlink:href="#Georgia-64"/>
     <use x="207.714844" xlink:href="#Georgia-69"/>
     <use x="237.011719" xlink:href="#Georgia-63"/>
     <use x="282.421875" xlink:href="#Georgia-74"/>
     <use x="316.943359" xlink:href="#Georgia-69"/>
     <use x="346.240234" xlink:href="#Georgia-76"/>
     <use x="395.898438" xlink:href="#Georgia-65"/>
     <use x="444.238281" xlink:href="#Georgia-20"/>
     <use x="468.359375" xlink:href="#Georgia-64"/>
     <use x="525.78125" xlink:href="#Georgia-69"/>
     <use x="555.078125" xlink:href="#Georgia-73"/>
     <use x="598.291016" xlink:href="#Georgia-74"/>
     <use x="632.8125" xlink:href="#Georgia-72"/>
     <use x="673.779297" xlink:href="#Georgia-69"/>
     <use x="703.076172" xlink:href="#Georgia-62"/>
     <use x="759.082031" xlink:href="#Georgia-75"/>
     <use x="816.601562" xlink:href="#Georgia-74"/>
     <use x="851.123047" xlink:href="#Georgia-69"/>
     <use x="880.419922" xlink:href="#Georgia-6f"/>
     <use x="934.326172" xlink:href="#Georgia-6e"/>
    </g>
   </g>
  </g>
 </g>
 <defs>
  <clipPath id="p29e4ff3990">
   <rect height="206.8" width="329.675" x="81.525" y="30.8"/>
  </clipPath>
 </defs>
</svg>
