<?xml version="1.0" encoding="utf-8" standalone="no"?>
<!DOCTYPE svg PUBLIC "-//W3C//DTD SVG 1.1//EN"
  "http://www.w3.org/Graphics/SVG/1.1/DTD/svg11.dtd">
<!-- Created with matplotlib (http://matplotlib.org/) -->
<svg height="288pt" version="1.1" viewBox="0 0 864 288" width="864pt" xmlns="http://www.w3.org/2000/svg" xmlns:xlink="http://www.w3.org/1999/xlink">
 <defs>
  <style type="text/css">
*{stroke-linecap:butt;stroke-linejoin:round;}
  </style>
 </defs>
 <g id="figure_1">
  <g id="patch_1">
   <path d="M 0 288 
L 864 288 
L 864 0 
L 0 0 
z
" style="fill:#ffffff;"/>
  </g>
  <g id="axes_1">
   <g id="patch_2">
    <path d="M 52.13 237.4 
L 281.88 237.4 
L 281.88 31.2 
L 52.13 31.2 
z
" style="fill:#ffffff;"/>
   </g>
   <g id="PathCollection_1">
    <defs>
     <path d="M 0 3 
C 0.795609 3 1.55874 2.683901 2.12132 2.12132 
C 2.683901 1.55874 3 0.795609 3 0 
C 3 -0.795609 2.683901 -1.55874 2.12132 -2.12132 
C 1.55874 -2.683901 0.795609 -3 0 -3 
C -0.795609 -3 -1.55874 -2.683901 -2.12132 -2.12132 
C -2.683901 -1.55874 -3 -0.795609 -3 0 
C -3 0.795609 -2.683901 1.55874 -2.12132 2.12132 
C -1.55874 2.683901 -0.795609 3 0 3 
z
" id="m9fad36179a" style="stroke:#000000;"/>
    </defs>
    <g clip-path="url(#p42ecf6629a)">
     <use style="fill:#ffffff;stroke:#000000;" x="205.601122" xlink:href="#m9fad36179a" y="121.642556"/>
     <use style="fill:#ffffff;stroke:#000000;" x="266.472734" xlink:href="#m9fad36179a" y="142.265568"/>
     <use style="fill:#ffffff;stroke:#000000;" x="233.957915" xlink:href="#m9fad36179a" y="138.423284"/>
     <use style="fill:#ffffff;stroke:#000000;" x="206.652405" xlink:href="#m9fad36179a" y="133.308255"/>
     <use style="fill:#ffffff;stroke:#000000;" x="100.829033" xlink:href="#m9fad36179a" y="192.061788"/>
     <use style="fill:#ffffff;stroke:#000000;" x="245.31558" xlink:href="#m9fad36179a" y="72.227345"/>
     <use style="fill:#ffffff;stroke:#000000;" x="89.780812" xlink:href="#m9fad36179a" y="194.392689"/>
     <use style="fill:#ffffff;stroke:#000000;" x="214.373819" xlink:href="#m9fad36179a" y="62.328284"/>
     <use style="fill:#ffffff;stroke:#000000;" x="152.41843" xlink:href="#m9fad36179a" y="121.956544"/>
     <use style="fill:#ffffff;stroke:#000000;" x="167.983218" xlink:href="#m9fad36179a" y="135.825693"/>
     <use style="fill:#ffffff;stroke:#000000;" x="196.132129" xlink:href="#m9fad36179a" y="133.083374"/>
     <use style="fill:#ffffff;stroke:#000000;" x="117.51426" xlink:href="#m9fad36179a" y="150.445018"/>
     <use style="fill:#ffffff;stroke:#000000;" x="174.991125" xlink:href="#m9fad36179a" y="138.069777"/>
     <use style="fill:#ffffff;stroke:#000000;" x="144.569904" xlink:href="#m9fad36179a" y="136.764"/>
     <use style="fill:#ffffff;stroke:#000000;" x="219.339252" xlink:href="#m9fad36179a" y="150.057109"/>
     <use style="fill:#ffffff;stroke:#000000;" x="137.95679" xlink:href="#m9fad36179a" y="137.870643"/>
     <use style="fill:#ffffff;stroke:#000000;" x="153.294762" xlink:href="#m9fad36179a" y="147.786027"/>
     <use style="fill:#ffffff;stroke:#000000;" x="90.27997" xlink:href="#m9fad36179a" y="194.277702"/>
     <use style="fill:#ffffff;stroke:#000000;" x="105.686966" xlink:href="#m9fad36179a" y="204.01594"/>
     <use style="fill:#ffffff;stroke:#000000;" x="96.91077" xlink:href="#m9fad36179a" y="193.800148"/>
     <use style="fill:#ffffff;stroke:#000000;" x="245.177279" xlink:href="#m9fad36179a" y="62.407111"/>
     <use style="fill:#ffffff;stroke:#000000;" x="92.276543" xlink:href="#m9fad36179a" y="202.918792"/>
     <use style="fill:#ffffff;stroke:#000000;" x="146.391726" xlink:href="#m9fad36179a" y="140.337663"/>
     <use style="fill:#ffffff;stroke:#000000;" x="175.10139" xlink:href="#m9fad36179a" y="137.574824"/>
     <use style="fill:#ffffff;stroke:#000000;" x="174.754005" xlink:href="#m9fad36179a" y="148.365551"/>
     <use style="fill:#ffffff;stroke:#000000;" x="102.70048" xlink:href="#m9fad36179a" y="197.250723"/>
     <use style="fill:#ffffff;stroke:#000000;" x="120.187868" xlink:href="#m9fad36179a" y="131.193222"/>
     <use style="fill:#ffffff;stroke:#000000;" x="118.432692" xlink:href="#m9fad36179a" y="139.018071"/>
     <use style="fill:#ffffff;stroke:#000000;" x="215.530034" xlink:href="#m9fad36179a" y="141.674704"/>
     <use style="fill:#ffffff;stroke:#000000;" x="237.452847" xlink:href="#m9fad36179a" y="87.570674"/>
     <use style="fill:#ffffff;stroke:#000000;" x="87.361374" xlink:href="#m9fad36179a" y="131.22585"/>
     <use style="fill:#ffffff;stroke:#000000;" x="242.904966" xlink:href="#m9fad36179a" y="71.936481"/>
     <use style="fill:#ffffff;stroke:#000000;" x="214.57146" xlink:href="#m9fad36179a" y="139.074908"/>
     <use style="fill:#ffffff;stroke:#000000;" x="176.769129" xlink:href="#m9fad36179a" y="126.339639"/>
     <use style="fill:#ffffff;stroke:#000000;" x="242.299921" xlink:href="#m9fad36179a" y="59.028373"/>
     <use style="fill:#ffffff;stroke:#000000;" x="172.370516" xlink:href="#m9fad36179a" y="131.023477"/>
     <use style="fill:#ffffff;stroke:#000000;" x="152.476597" xlink:href="#m9fad36179a" y="133.865198"/>
     <use style="fill:#ffffff;stroke:#000000;" x="96.8249" xlink:href="#m9fad36179a" y="126.39867"/>
     <use style="fill:#ffffff;stroke:#000000;" x="107.65183" xlink:href="#m9fad36179a" y="136.004559"/>
     <use style="fill:#ffffff;stroke:#000000;" x="269.466887" xlink:href="#m9fad36179a" y="122.232663"/>
     <use style="fill:#ffffff;stroke:#000000;" x="235.323479" xlink:href="#m9fad36179a" y="123.698323"/>
     <use style="fill:#ffffff;stroke:#000000;" x="151.020728" xlink:href="#m9fad36179a" y="127.759362"/>
     <use style="fill:#ffffff;stroke:#000000;" x="170.360429" xlink:href="#m9fad36179a" y="133.363852"/>
     <use style="fill:#ffffff;stroke:#000000;" x="185.859628" xlink:href="#m9fad36179a" y="143.260964"/>
     <use style="fill:#ffffff;stroke:#000000;" x="99.881874" xlink:href="#m9fad36179a" y="194.032805"/>
     <use style="fill:#ffffff;stroke:#000000;" x="127.959941" xlink:href="#m9fad36179a" y="135.519637"/>
     <use style="fill:#ffffff;stroke:#000000;" x="259.590439" xlink:href="#m9fad36179a" y="137.267588"/>
     <use style="fill:#ffffff;stroke:#000000;" x="228.006263" xlink:href="#m9fad36179a" y="63.646612"/>
     <use style="fill:#ffffff;stroke:#000000;" x="129.76904" xlink:href="#m9fad36179a" y="143.919466"/>
     <use style="fill:#ffffff;stroke:#000000;" x="236.920296" xlink:href="#m9fad36179a" y="82.462144"/>
     <use style="fill:#ffffff;stroke:#000000;" x="204.121567" xlink:href="#m9fad36179a" y="115.680923"/>
     <use style="fill:#ffffff;stroke:#000000;" x="116.160746" xlink:href="#m9fad36179a" y="125.195456"/>
     <use style="fill:#ffffff;stroke:#000000;" x="134.063225" xlink:href="#m9fad36179a" y="138.683761"/>
     <use style="fill:#ffffff;stroke:#000000;" x="233.370898" xlink:href="#m9fad36179a" y="50.112918"/>
     <use style="fill:#ffffff;stroke:#000000;" x="83.278151" xlink:href="#m9fad36179a" y="206.013013"/>
     <use style="fill:#ffffff;stroke:#000000;" x="103.475369" xlink:href="#m9fad36179a" y="137.868571"/>
     <use style="fill:#ffffff;stroke:#000000;" x="98.620922" xlink:href="#m9fad36179a" y="204.17365"/>
     <use style="fill:#ffffff;stroke:#000000;" x="216.836708" xlink:href="#m9fad36179a" y="133.58639"/>
     <use style="fill:#ffffff;stroke:#000000;" x="238.871441" xlink:href="#m9fad36179a" y="82.893654"/>
     <use style="fill:#ffffff;stroke:#000000;" x="111.436128" xlink:href="#m9fad36179a" y="146.891075"/>
     <use style="fill:#ffffff;stroke:#000000;" x="188.453882" xlink:href="#m9fad36179a" y="125.421292"/>
     <use style="fill:#ffffff;stroke:#000000;" x="240.443513" xlink:href="#m9fad36179a" y="77.366827"/>
     <use style="fill:#ffffff;stroke:#000000;" x="97.95462" xlink:href="#m9fad36179a" y="195.721266"/>
     <use style="fill:#ffffff;stroke:#000000;" x="90.983789" xlink:href="#m9fad36179a" y="206.685892"/>
     <use style="fill:#ffffff;stroke:#000000;" x="62.760684" xlink:href="#m9fad36179a" y="143.572147"/>
     <use style="fill:#ffffff;stroke:#000000;" x="199.310491" xlink:href="#m9fad36179a" y="147.358005"/>
     <use style="fill:#ffffff;stroke:#000000;" x="234.251244" xlink:href="#m9fad36179a" y="81.761094"/>
     <use style="fill:#ffffff;stroke:#000000;" x="91.471927" xlink:href="#m9fad36179a" y="180.951278"/>
     <use style="fill:#ffffff;stroke:#000000;" x="147.55932" xlink:href="#m9fad36179a" y="136.713446"/>
     <use style="fill:#ffffff;stroke:#000000;" x="193.798645" xlink:href="#m9fad36179a" y="135.698235"/>
     <use style="fill:#ffffff;stroke:#000000;" x="236.892018" xlink:href="#m9fad36179a" y="67.077192"/>
     <use style="fill:#ffffff;stroke:#000000;" x="113.665201" xlink:href="#m9fad36179a" y="183.331435"/>
     <use style="fill:#ffffff;stroke:#000000;" x="226.26576" xlink:href="#m9fad36179a" y="79.084485"/>
     <use style="fill:#ffffff;stroke:#000000;" x="105.533656" xlink:href="#m9fad36179a" y="191.184321"/>
     <use style="fill:#ffffff;stroke:#000000;" x="129.13757" xlink:href="#m9fad36179a" y="133.213303"/>
     <use style="fill:#ffffff;stroke:#000000;" x="180.642627" xlink:href="#m9fad36179a" y="135.100001"/>
     <use style="fill:#ffffff;stroke:#000000;" x="101.11708" xlink:href="#m9fad36179a" y="184.936769"/>
     <use style="fill:#ffffff;stroke:#000000;" x="239.904487" xlink:href="#m9fad36179a" y="75.23888"/>
     <use style="fill:#ffffff;stroke:#000000;" x="142.5929" xlink:href="#m9fad36179a" y="162.948069"/>
     <use style="fill:#ffffff;stroke:#000000;" x="113.829457" xlink:href="#m9fad36179a" y="137.120018"/>
     <use style="fill:#ffffff;stroke:#000000;" x="234.277745" xlink:href="#m9fad36179a" y="85.772095"/>
     <use style="fill:#ffffff;stroke:#000000;" x="98.322803" xlink:href="#m9fad36179a" y="196.061165"/>
     <use style="fill:#ffffff;stroke:#000000;" x="156.364514" xlink:href="#m9fad36179a" y="140.526485"/>
     <use style="fill:#ffffff;stroke:#000000;" x="92.975803" xlink:href="#m9fad36179a" y="193.94172"/>
     <use style="fill:#ffffff;stroke:#000000;" x="99.144338" xlink:href="#m9fad36179a" y="205.995338"/>
     <use style="fill:#ffffff;stroke:#000000;" x="108.55228" xlink:href="#m9fad36179a" y="222.598073"/>
     <use style="fill:#ffffff;stroke:#000000;" x="226.703188" xlink:href="#m9fad36179a" y="59.147131"/>
     <use style="fill:#ffffff;stroke:#000000;" x="96.110302" xlink:href="#m9fad36179a" y="202.170115"/>
     <use style="fill:#ffffff;stroke:#000000;" x="269.380655" xlink:href="#m9fad36179a" y="138.047566"/>
     <use style="fill:#ffffff;stroke:#000000;" x="121.537609" xlink:href="#m9fad36179a" y="146.252488"/>
     <use style="fill:#ffffff;stroke:#000000;" x="104.84239" xlink:href="#m9fad36179a" y="190.514308"/>
     <use style="fill:#ffffff;stroke:#000000;" x="228.345101" xlink:href="#m9fad36179a" y="85.80844"/>
     <use style="fill:#ffffff;stroke:#000000;" x="122.466303" xlink:href="#m9fad36179a" y="145.715491"/>
     <use style="fill:#ffffff;stroke:#000000;" x="92.567133" xlink:href="#m9fad36179a" y="199.34344"/>
     <use style="fill:#ffffff;stroke:#000000;" x="234.16986" xlink:href="#m9fad36179a" y="79.250096"/>
     <use style="fill:#ffffff;stroke:#000000;" x="193.831859" xlink:href="#m9fad36179a" y="133.579292"/>
     <use style="fill:#ffffff;stroke:#000000;" x="161.513011" xlink:href="#m9fad36179a" y="138.322549"/>
     <use style="fill:#ffffff;stroke:#000000;" x="271.249316" xlink:href="#m9fad36179a" y="131.120439"/>
     <use style="fill:#ffffff;stroke:#000000;" x="150.256741" xlink:href="#m9fad36179a" y="142.252337"/>
     <use style="fill:#ffffff;stroke:#000000;" x="218.367091" xlink:href="#m9fad36179a" y="46.065234"/>
    </g>
   </g>
   <g id="matplotlib.axis_1">
    <g id="xtick_1">
     <g id="line2d_1">
      <defs>
       <path d="M 0 0 
L 0 3.5 
" id="m1d726b3be4" style="stroke:#000000;stroke-width:0.8;"/>
      </defs>
      <g>
       <use style="stroke:#000000;stroke-width:0.8;" x="62.934636" xlink:href="#m1d726b3be4" y="237.4"/>
      </g>
     </g>
     <g id="text_1">
      <!-- −6 -->
      <defs>
       <path d="M 57.03125 24.265625 
L 7.28125 24.265625 
L 7.28125 30.375 
L 57.03125 30.375 
z
" id="Georgia-2212"/>
       <path d="M 52.484375 22.515625 
Q 52.484375 17.4375 50.65625 12.984375 
Q 48.828125 8.546875 45.75 5.421875 
Q 42.1875 1.859375 37.859375 0.140625 
Q 33.546875 -1.5625 28.859375 -1.5625 
Q 23.4375 -1.5625 19.046875 0.4375 
Q 14.65625 2.4375 11.578125 6.109375 
Q 8.453125 9.8125 6.734375 15.1875 
Q 5.03125 20.5625 5.03125 27.25 
Q 5.03125 44.671875 15.40625 56.640625 
Q 25.78125 68.609375 43.21875 71 
L 44.09375 66.609375 
L 39.703125 65.828125 
Q 29.109375 62.40625 23.3125 55.171875 
Q 17.53125 47.953125 15.828125 37.640625 
Q 20.015625 41.3125 24.109375 42.828125 
Q 28.21875 44.34375 32.765625 44.34375 
Q 40.921875 44.34375 46.703125 38.09375 
Q 52.484375 31.84375 52.484375 22.515625 
z
M 41.890625 21.1875 
Q 41.890625 29.109375 38.25 33.890625 
Q 34.625 38.671875 28.515625 38.671875 
Q 24.859375 38.671875 21.703125 37.296875 
Q 18.5625 35.9375 15.625 32.71875 
Q 15.578125 32.125 15.46875 30 
Q 15.375 27.875 15.375 26.65625 
Q 15.375 15.234375 19.109375 8.765625 
Q 22.859375 2.296875 28.953125 2.296875 
Q 34.765625 2.296875 38.328125 7.34375 
Q 41.890625 12.40625 41.890625 21.1875 
z
" id="Georgia-36"/>
      </defs>
      <g transform="translate(55.680261 253.47125)scale(0.12 -0.12)">
       <use xlink:href="#Georgia-2212"/>
       <use x="64.306641" xlink:href="#Georgia-36"/>
      </g>
     </g>
    </g>
    <g id="xtick_2">
     <g id="line2d_2">
      <g>
       <use style="stroke:#000000;stroke-width:0.8;" x="114.222037" xlink:href="#m1d726b3be4" y="237.4"/>
      </g>
     </g>
     <g id="text_2">
      <!-- −3 -->
      <defs>
       <path d="M 23.78125 -17.828125 
Q 19.1875 -17.828125 15.375 -16.671875 
Q 11.578125 -15.53125 8.84375 -13.578125 
Q 6.109375 -11.625 4.609375 -9.078125 
Q 3.125 -6.546875 3.125 -3.859375 
Q 3.125 -1.46875 4.296875 0.453125 
Q 5.46875 2.390625 8.0625 2.390625 
Q 10.984375 2.390625 12.515625 0.953125 
Q 14.0625 -0.484375 14.0625 -2.34375 
Q 14.0625 -3.90625 13.546875 -6.296875 
Q 13.03125 -8.6875 12.75 -9.71875 
Q 13.09375 -10.15625 13.984375 -10.890625 
Q 14.890625 -11.625 16.21875 -12.203125 
Q 17.78125 -12.9375 19.484375 -13.375 
Q 21.1875 -13.8125 24.3125 -13.8125 
Q 27.25 -13.8125 29.953125 -12.828125 
Q 32.671875 -11.859375 34.71875 -9.71875 
Q 36.859375 -7.46875 38.0625 -4.46875 
Q 39.265625 -1.46875 39.265625 3.421875 
Q 39.265625 6.0625 38.703125 8.640625 
Q 38.140625 11.234375 36.625 13.140625 
Q 35.109375 15.046875 32.5 16.09375 
Q 29.890625 17.140625 25.875 17.140625 
L 19.484375 17.140625 
L 19.484375 22.75 
L 23.734375 22.75 
Q 30.46875 22.75 33.4375 26.453125 
Q 36.421875 30.171875 36.421875 37.640625 
Q 36.421875 43.75 33.546875 46.84375 
Q 30.671875 49.953125 25.390625 49.953125 
Q 22.859375 49.953125 21.21875 49.34375 
Q 19.578125 48.734375 18.5625 48.140625 
Q 17.328125 47.46875 16.546875 46.625 
Q 15.765625 45.796875 15.375 45.40625 
Q 15.71875 43.84375 16.203125 41.578125 
Q 16.703125 39.3125 16.703125 37.25 
Q 16.703125 35.453125 15.15625 34 
Q 13.625 32.5625 10.640625 32.5625 
Q 8.0625 32.5625 6.859375 34.421875 
Q 5.671875 36.28125 5.671875 38.71875 
Q 5.671875 41.265625 7.078125 43.890625 
Q 8.5 46.53125 11.28125 48.828125 
Q 14.0625 51.125 18.0625 52.53125 
Q 22.078125 53.953125 27.296875 53.953125 
Q 33.296875 53.953125 37.21875 52.171875 
Q 41.15625 50.390625 43.40625 47.859375 
Q 45.609375 45.359375 46.4375 42.625 
Q 47.265625 39.890625 47.265625 37.9375 
Q 47.265625 35.5 46.578125 33.03125 
Q 45.90625 30.5625 44.34375 28.46875 
Q 42.625 26.171875 39.8125 24.28125 
Q 37.015625 22.40625 32.765625 21.234375 
L 32.765625 20.453125 
Q 35.5 20.21875 38.59375 19.234375 
Q 41.703125 18.265625 44.1875 16.359375 
Q 46.78125 14.359375 48.4375 11.203125 
Q 50.09375 8.0625 50.09375 3.21875 
Q 50.09375 -6.15625 42.578125 -11.984375 
Q 35.0625 -17.828125 23.78125 -17.828125 
z
" id="Georgia-33"/>
      </defs>
      <g transform="translate(107.052974 253.47125)scale(0.12 -0.12)">
       <use xlink:href="#Georgia-2212"/>
       <use x="64.306641" xlink:href="#Georgia-33"/>
      </g>
     </g>
    </g>
    <g id="xtick_3">
     <g id="line2d_3">
      <g>
       <use style="stroke:#000000;stroke-width:0.8;" x="165.509437" xlink:href="#m1d726b3be4" y="237.4"/>
      </g>
     </g>
     <g id="text_3">
      <!-- 0 -->
      <defs>
       <path d="M 50.140625 45.609375 
Q 53.265625 41.84375 54.796875 36.78125 
Q 56.34375 31.734375 56.34375 26.21875 
Q 56.34375 19.578125 54.4375 14.328125 
Q 52.546875 9.078125 49.21875 5.609375 
Q 45.796875 2.046875 41.109375 0.234375 
Q 36.421875 -1.5625 30.671875 -1.5625 
Q 24.359375 -1.5625 19.421875 0.53125 
Q 14.5 2.640625 11.421875 6.296875 
Q 8.203125 10.109375 6.609375 15.203125 
Q 5.03125 20.3125 5.03125 26.21875 
Q 5.03125 32.03125 6.5625 36.90625 
Q 8.109375 41.796875 11.375 45.75 
Q 14.5 49.5625 19.421875 51.75 
Q 24.359375 53.953125 30.71875 53.953125 
Q 37.40625 53.953125 42.1875 51.703125 
Q 46.96875 49.46875 50.140625 45.609375 
z
M 45.5625 26.21875 
Q 45.5625 37.84375 41.578125 44.234375 
Q 37.59375 50.640625 30.765625 50.640625 
Q 23.828125 50.640625 19.828125 44.234375 
Q 15.828125 37.84375 15.828125 26.21875 
Q 15.828125 15.1875 19.65625 8.46875 
Q 23.484375 1.765625 30.671875 1.765625 
Q 37.84375 1.765625 41.703125 8.46875 
Q 45.5625 15.1875 45.5625 26.21875 
z
" id="Georgia-30"/>
      </defs>
      <g transform="translate(161.826937 253.47125)scale(0.12 -0.12)">
       <use xlink:href="#Georgia-30"/>
      </g>
     </g>
    </g>
    <g id="xtick_4">
     <g id="line2d_4">
      <g>
       <use style="stroke:#000000;stroke-width:0.8;" x="216.796837" xlink:href="#m1d726b3be4" y="237.4"/>
      </g>
     </g>
     <g id="text_4">
      <!-- 3 -->
      <g transform="translate(213.486524 253.47125)scale(0.12 -0.12)">
       <use xlink:href="#Georgia-33"/>
      </g>
     </g>
    </g>
    <g id="xtick_5">
     <g id="line2d_5">
      <g>
       <use style="stroke:#000000;stroke-width:0.8;" x="268.084237" xlink:href="#m1d726b3be4" y="237.4"/>
      </g>
     </g>
     <g id="text_5">
      <!-- 6 -->
      <g transform="translate(264.688612 253.47125)scale(0.12 -0.12)">
       <use xlink:href="#Georgia-36"/>
      </g>
     </g>
    </g>
    <g id="text_6">
     <!-- $x_1$ -->
     <defs>
      <path d="M 24.296875 35.5 
L 25.5 29.796875 
Q 30.796875 37.90625 34.046875 41 
Q 37.296875 44.09375 40.59375 44.09375 
Q 42.40625 44.09375 43.546875 43.046875 
Q 44.703125 42 44.703125 40.390625 
Q 44.703125 38.796875 43.75 37.796875 
Q 42.796875 36.796875 41.296875 36.796875 
Q 40.40625 36.796875 38.90625 37.640625 
Q 37.40625 38.5 36.09375 38.5 
Q 33.203125 38.5 26.296875 26.40625 
Q 26.296875 25.09375 27.09375 21.90625 
L 30.296875 8.5 
Q 31.296875 4.40625 33.296875 4.40625 
Q 34.90625 4.40625 38 8.40625 
Q 38.296875 8.796875 38.6875 9.34375 
Q 39.09375 9.90625 39.390625 10.34375 
Q 39.703125 10.796875 40.09375 11.203125 
L 41.59375 10.296875 
Q 37.296875 3.59375 34.796875 1.25 
Q 32.296875 -1.09375 29.40625 -1.09375 
Q 27 -1.09375 25.703125 0.40625 
Q 24.40625 1.90625 23.5 5.703125 
L 20.59375 17.59375 
L 11.796875 5.703125 
Q 8.703125 1.5 6.75 0.203125 
Q 4.796875 -1.09375 2.296875 -1.09375 
Q 0 -1.09375 -1.34375 0 
Q -2.703125 1.09375 -2.703125 3.09375 
Q -2.703125 4.59375 -1.75 5.640625 
Q -0.796875 6.703125 0.703125 6.703125 
Q 1.90625 6.703125 3.90625 5.59375 
Q 5.40625 4.703125 6.5 4.703125 
Q 8.203125 4.703125 11.59375 9.59375 
L 19.796875 21.203125 
L 17 33.59375 
Q 16 38 15.140625 39.203125 
Q 14.296875 40.40625 12.40625 40.40625 
Q 11.203125 40.40625 8.5 39.703125 
L 6.703125 39.203125 
L 6.40625 40.796875 
L 7.5 41.203125 
Q 15.5 44.09375 19.203125 44.09375 
Q 21.09375 44.09375 22.1875 42.296875 
Q 23.296875 40.5 24.296875 35.5 
z
" id="STIXGeneral-Italic-78"/>
      <path d="M 39.40625 0 
L 11.796875 0 
L 11.796875 1.5 
Q 17.296875 1.796875 19.296875 3.546875 
Q 21.296875 5.296875 21.296875 9.5 
L 21.296875 54.40625 
Q 21.296875 59.296875 18.296875 59.296875 
Q 16.90625 59.296875 13.796875 58.09375 
L 11.09375 57.09375 
L 11.09375 58.5 
L 29 67.59375 
L 29.90625 67.296875 
L 29.90625 7.59375 
Q 29.90625 4.296875 31.90625 2.890625 
Q 33.90625 1.5 39.40625 1.5 
z
" id="STIXGeneral-Regular-31"/>
     </defs>
     <g transform="translate(160.285 272.16875)scale(0.16 -0.16)">
      <use transform="translate(0 0.90625)" xlink:href="#STIXGeneral-Italic-78"/>
      <use transform="translate(44.399994 -12.321875)scale(0.7)" xlink:href="#STIXGeneral-Regular-31"/>
     </g>
    </g>
   </g>
   <g id="matplotlib.axis_2">
    <g id="ytick_1">
     <g id="line2d_6">
      <defs>
       <path d="M 0 0 
L -3.5 0 
" id="m085a54932b" style="stroke:#000000;stroke-width:0.8;"/>
      </defs>
      <g>
       <use style="stroke:#000000;stroke-width:0.8;" x="52.13" xlink:href="#m085a54932b" y="237.4"/>
      </g>
     </g>
     <g id="text_7">
      <!-- −4 -->
      <defs>
       <path d="M 52.9375 4.390625 
L 43.015625 4.390625 
L 43.015625 -17.828125 
L 33.640625 -17.828125 
L 33.640625 4.390625 
L 2.390625 4.390625 
L 2.390625 11.921875 
L 36.625 53.65625 
L 43.015625 53.65625 
L 43.015625 10.796875 
L 52.9375 10.796875 
z
M 33.640625 10.796875 
L 33.640625 42.78125 
L 7.28125 10.796875 
z
" id="Georgia-34"/>
      </defs>
      <g transform="translate(30.6325 241.935625)scale(0.12 -0.12)">
       <use xlink:href="#Georgia-2212"/>
       <use x="64.306641" xlink:href="#Georgia-34"/>
      </g>
     </g>
    </g>
    <g id="ytick_2">
     <g id="line2d_7">
      <g>
       <use style="stroke:#000000;stroke-width:0.8;" x="52.13" xlink:href="#m085a54932b" y="185.85"/>
      </g>
     </g>
     <g id="text_8">
      <!-- −2 -->
      <defs>
       <path d="M 51.125 0 
L 5.375 0 
L 5.375 6.640625 
Q 6.6875 8.15625 9.03125 10.03125 
Q 11.375 11.921875 14.59375 14.109375 
Q 16.546875 15.4375 19.28125 17 
Q 22.015625 18.5625 25.484375 20.40625 
Q 29.34375 22.46875 31.421875 24.03125 
Q 33.5 25.59375 35.203125 27.875 
Q 36.328125 29.390625 37.015625 31.65625 
Q 37.703125 33.9375 37.703125 38.140625 
Q 37.703125 44.234375 34.421875 47.09375 
Q 31.15625 49.953125 26.03125 49.953125 
Q 22.859375 49.953125 20.015625 48.703125 
Q 17.1875 47.46875 15.765625 45.265625 
Q 16.109375 43.703125 16.625 41.546875 
Q 17.140625 39.40625 17.140625 37.359375 
Q 17.140625 35.5 15.59375 34.0625 
Q 14.0625 32.625 11.03125 32.625 
Q 8.59375 32.625 7.265625 34.296875 
Q 5.953125 35.984375 5.953125 38.8125 
Q 5.953125 41.453125 7.421875 44.109375 
Q 8.890625 46.78125 11.625 49.03125 
Q 14.3125 51.21875 18.265625 52.578125 
Q 22.21875 53.953125 26.8125 53.953125 
Q 36.8125 53.953125 42.6875 49.484375 
Q 48.578125 45.015625 48.578125 37.546875 
Q 48.578125 33.984375 47.53125 31.046875 
Q 46.484375 28.125 44.140625 25.875 
Q 41.546875 23.390625 38.078125 21.609375 
Q 34.625 19.828125 27.484375 16.65625 
Q 23.25 14.75 19.578125 12.671875 
Q 15.921875 10.59375 13.578125 8.640625 
L 51.125 8.640625 
z
" id="Georgia-32"/>
      </defs>
      <g transform="translate(30.709375 190.385625)scale(0.12 -0.12)">
       <use xlink:href="#Georgia-2212"/>
       <use x="64.306641" xlink:href="#Georgia-32"/>
      </g>
     </g>
    </g>
    <g id="ytick_3">
     <g id="line2d_8">
      <g>
       <use style="stroke:#000000;stroke-width:0.8;" x="52.13" xlink:href="#m085a54932b" y="134.3"/>
      </g>
     </g>
     <g id="text_9">
      <!-- 0 -->
      <g transform="translate(37.765 138.835625)scale(0.12 -0.12)">
       <use xlink:href="#Georgia-30"/>
      </g>
     </g>
    </g>
    <g id="ytick_4">
     <g id="line2d_9">
      <g>
       <use style="stroke:#000000;stroke-width:0.8;" x="52.13" xlink:href="#m085a54932b" y="82.75"/>
      </g>
     </g>
     <g id="text_10">
      <!-- 2 -->
      <g transform="translate(38.426875 87.285625)scale(0.12 -0.12)">
       <use xlink:href="#Georgia-32"/>
      </g>
     </g>
    </g>
    <g id="ytick_5">
     <g id="line2d_10">
      <g>
       <use style="stroke:#000000;stroke-width:0.8;" x="52.13" xlink:href="#m085a54932b" y="31.2"/>
      </g>
     </g>
     <g id="text_11">
      <!-- 4 -->
      <g transform="translate(38.35 35.735625)scale(0.12 -0.12)">
       <use xlink:href="#Georgia-34"/>
      </g>
     </g>
    </g>
    <g id="text_12">
     <!-- $x_2$ -->
     <defs>
      <path d="M 47.40625 13.703125 
L 42 0 
L 2.90625 0 
L 2.90625 1.203125 
L 20.703125 20.09375 
Q 27.703125 27.40625 30.703125 33.5 
Q 33.703125 39.59375 33.703125 46.09375 
Q 33.703125 52.796875 30 56.5 
Q 26.296875 60.203125 19.796875 60.203125 
Q 14.40625 60.203125 11.25 57.390625 
Q 8.09375 54.59375 5.09375 47.203125 
L 3 47.703125 
Q 4.703125 57 9.84375 62.296875 
Q 15 67.59375 23.796875 67.59375 
Q 32.09375 67.59375 37.1875 62.59375 
Q 42.296875 57.59375 42.296875 50 
Q 42.296875 38.703125 29.5 25.203125 
L 13 7.59375 
L 36.40625 7.59375 
Q 39.703125 7.59375 41.640625 8.890625 
Q 43.59375 10.203125 46 14.296875 
z
" id="STIXGeneral-Regular-32"/>
     </defs>
     <g transform="translate(23.1625 141.02)rotate(-90)scale(0.16 -0.16)">
      <use transform="translate(0 0.90625)" xlink:href="#STIXGeneral-Italic-78"/>
      <use transform="translate(44.399994 -12.321875)scale(0.7)" xlink:href="#STIXGeneral-Regular-32"/>
     </g>
    </g>
   </g>
   <g id="patch_3">
    <path d="M 52.13 237.4 
L 52.13 31.2 
" style="fill:none;stroke:#000000;stroke-linecap:square;stroke-linejoin:miter;stroke-width:0.8;"/>
   </g>
   <g id="patch_4">
    <path d="M 281.88 237.4 
L 281.88 31.2 
" style="fill:none;stroke:#000000;stroke-linecap:square;stroke-linejoin:miter;stroke-width:0.8;"/>
   </g>
   <g id="patch_5">
    <path d="M 52.13 237.4 
L 281.88 237.4 
" style="fill:none;stroke:#000000;stroke-linecap:square;stroke-linejoin:miter;stroke-width:0.8;"/>
   </g>
   <g id="patch_6">
    <path d="M 52.13 31.2 
L 281.88 31.2 
" style="fill:none;stroke:#000000;stroke-linecap:square;stroke-linejoin:miter;stroke-width:0.8;"/>
   </g>
   <g id="text_13">
    <!-- Pathological dataset -->
    <defs>
     <path d="M 57.8125 52.203125 
Q 57.8125 46.78125 55.6875 42.59375 
Q 53.5625 38.421875 49.8125 35.6875 
Q 46.09375 32.953125 41.640625 31.6875 
Q 37.203125 30.421875 32.234375 30.421875 
L 24.46875 30.421875 
L 24.46875 9.421875 
Q 24.46875 7.71875 25.03125 6.421875 
Q 25.59375 5.125 27.34375 4.4375 
Q 28.21875 4.109375 30.4375 3.8125 
Q 32.671875 3.515625 34.515625 3.46875 
L 34.515625 0 
L 4.78125 0 
L 4.78125 3.46875 
Q 5.953125 3.5625 8.171875 3.796875 
Q 10.40625 4.046875 11.28125 4.4375 
Q 12.75 5.078125 13.40625 6.296875 
Q 14.0625 7.515625 14.0625 9.421875 
L 14.0625 59.421875 
Q 14.0625 61.140625 13.578125 62.5 
Q 13.09375 63.875 11.28125 64.546875 
Q 9.421875 65.1875 7.59375 65.453125 
Q 5.765625 65.71875 4.4375 65.828125 
L 4.4375 69.28125 
L 36.078125 69.28125 
Q 45.75 69.28125 51.78125 64.625 
Q 57.8125 59.96875 57.8125 52.203125 
z
M 42.96875 40.375 
Q 44.625 42.71875 45.15625 45.234375 
Q 45.703125 47.75 45.703125 49.75 
Q 45.703125 52.546875 45.046875 55.421875 
Q 44.390625 58.296875 42.78125 60.453125 
Q 41.0625 62.75 38.28125 64.015625 
Q 35.5 65.28125 31.34375 65.28125 
L 24.46875 65.28125 
L 24.46875 34.671875 
L 29.4375 34.671875 
Q 34.71875 34.671875 38.015625 36.296875 
Q 41.3125 37.9375 42.96875 40.375 
z
" id="Georgia-50"/>
     <path d="M 49.125 0.875 
Q 46.828125 0.046875 45.09375 -0.46875 
Q 43.359375 -0.984375 41.15625 -0.984375 
Q 37.359375 -0.984375 35.078125 0.796875 
Q 32.8125 2.59375 32.171875 6 
L 31.890625 6 
Q 28.71875 2.484375 25.078125 0.625 
Q 21.4375 -1.21875 16.3125 -1.21875 
Q 10.890625 -1.21875 7.390625 2.09375 
Q 3.90625 5.421875 3.90625 10.796875 
Q 3.90625 13.578125 4.6875 15.765625 
Q 5.46875 17.96875 7.03125 19.734375 
Q 8.25 21.1875 10.25 22.328125 
Q 12.25 23.484375 14.015625 24.171875 
Q 16.21875 25 22.921875 27.25 
Q 29.640625 29.5 31.984375 30.765625 
L 31.984375 35.59375 
Q 31.984375 36.234375 31.71875 38.03125 
Q 31.453125 39.84375 30.5625 41.453125 
Q 29.59375 43.265625 27.8125 44.609375 
Q 26.03125 45.953125 22.75 45.953125 
Q 20.515625 45.953125 18.578125 45.1875 
Q 16.65625 44.4375 15.875 43.609375 
Q 15.875 42.625 16.328125 40.71875 
Q 16.796875 38.8125 16.796875 37.203125 
Q 16.796875 35.5 15.25 34.078125 
Q 13.71875 32.671875 10.984375 32.671875 
Q 8.546875 32.671875 7.390625 34.40625 
Q 6.25 36.140625 6.25 38.28125 
Q 6.25 40.53125 7.828125 42.578125 
Q 9.421875 44.625 11.96875 46.234375 
Q 14.15625 47.609375 17.28125 48.5625 
Q 20.40625 49.515625 23.390625 49.515625 
Q 27.484375 49.515625 30.53125 48.953125 
Q 33.59375 48.390625 36.078125 46.53125 
Q 38.578125 44.734375 39.859375 41.625 
Q 41.15625 38.53125 41.15625 33.640625 
Q 41.15625 26.65625 41.015625 21.265625 
Q 40.875 15.875 40.875 9.46875 
Q 40.875 7.5625 41.53125 6.4375 
Q 42.1875 5.328125 43.5625 4.546875 
Q 44.28125 4.109375 45.875 4.046875 
Q 47.46875 4 49.125 4 
z
M 32.078125 26.65625 
Q 27.9375 25.4375 24.8125 24.265625 
Q 21.6875 23.09375 19 21.34375 
Q 16.546875 19.671875 15.125 17.40625 
Q 13.71875 15.140625 13.71875 12.015625 
Q 13.71875 7.953125 15.84375 6.046875 
Q 17.96875 4.15625 21.234375 4.15625 
Q 24.703125 4.15625 27.34375 5.828125 
Q 29.984375 7.515625 31.78125 9.8125 
z
" id="Georgia-61"/>
     <path d="M 33.25 2.09375 
Q 30.078125 0.78125 27.25 -0.125 
Q 24.421875 -1.03125 20.3125 -1.03125 
Q 14.265625 -1.03125 11.796875 2.015625 
Q 9.328125 5.078125 9.328125 10.640625 
L 9.328125 43.265625 
L 0.640625 43.265625 
L 0.640625 47.953125 
L 9.515625 47.953125 
L 9.515625 62.9375 
L 18.40625 62.9375 
L 18.40625 47.953125 
L 32.234375 47.953125 
L 32.234375 43.265625 
L 18.5 43.265625 
L 18.5 16.359375 
Q 18.5 13.328125 18.71875 11.296875 
Q 18.953125 9.28125 19.78125 7.765625 
Q 20.5625 6.34375 22.125 5.609375 
Q 23.6875 4.890625 26.3125 4.890625 
Q 27.546875 4.890625 29.90625 5.109375 
Q 32.28125 5.328125 33.25 5.671875 
z
" id="Georgia-74"/>
     <path d="M 55.8125 0 
L 32.171875 0 
L 32.171875 3.21875 
Q 33.296875 3.328125 34.65625 3.421875 
Q 36.03125 3.515625 36.921875 3.8125 
Q 38.28125 4.25 38.9375 5.34375 
Q 39.59375 6.453125 39.59375 8.203125 
L 39.59375 32.953125 
Q 39.59375 38.09375 37.171875 40.875 
Q 34.765625 43.65625 31.296875 43.65625 
Q 28.765625 43.65625 26.59375 42.84375 
Q 24.421875 42.046875 22.703125 40.875 
Q 21.046875 39.65625 20.15625 38.421875 
Q 19.28125 37.203125 18.796875 36.375 
L 18.796875 8.6875 
Q 18.796875 7.03125 19.453125 5.953125 
Q 20.125 4.890625 21.484375 4.296875 
Q 22.5625 3.8125 23.703125 3.5625 
Q 24.859375 3.328125 26.21875 3.21875 
L 26.21875 0 
L 2.59375 0 
L 2.59375 3.21875 
Q 3.71875 3.328125 4.9375 3.4375 
Q 6.15625 3.5625 6.984375 3.8125 
Q 8.34375 4.25 9.03125 5.34375 
Q 9.71875 6.453125 9.71875 8.203125 
L 9.71875 64.265625 
Q 9.71875 65.921875 8.953125 67.578125 
Q 8.203125 69.234375 6.984375 70.0625 
Q 6.109375 70.703125 3.875 70.96875 
Q 1.65625 71.234375 0.296875 71.34375 
L 0.296875 74.46875 
L 18.109375 75.59375 
L 18.796875 74.859375 
L 18.796875 41.265625 
L 19 41.265625 
Q 20.609375 42.875 21.921875 44.109375 
Q 23.25 45.359375 25.390625 46.734375 
Q 27.25 47.90625 29.765625 48.6875 
Q 32.28125 49.46875 35.40625 49.46875 
Q 41.84375 49.46875 45.3125 45.390625 
Q 48.78125 41.3125 48.78125 33.640625 
L 48.78125 8.59375 
Q 48.78125 6.890625 49.390625 5.828125 
Q 50 4.78125 51.421875 4.203125 
Q 52.546875 3.765625 53.4375 3.546875 
Q 54.34375 3.328125 55.8125 3.21875 
z
" id="Georgia-68"/>
     <path d="M 50.4375 24.5625 
Q 50.4375 19.484375 48.828125 14.578125 
Q 47.21875 9.671875 44.234375 6.25 
Q 40.875 2.34375 36.421875 0.4375 
Q 31.984375 -1.46875 26.46875 -1.46875 
Q 21.875 -1.46875 17.71875 0.265625 
Q 13.578125 2 10.359375 5.328125 
Q 7.171875 8.59375 5.296875 13.296875 
Q 3.421875 18.015625 3.421875 23.875 
Q 3.421875 35.15625 9.984375 42.328125 
Q 16.546875 49.515625 27.203125 49.515625 
Q 37.3125 49.515625 43.875 42.703125 
Q 50.4375 35.890625 50.4375 24.5625 
z
M 40.328125 24.46875 
Q 40.328125 28.125 39.59375 32.203125 
Q 38.875 36.28125 37.40625 39.109375 
Q 35.84375 42.140625 33.296875 43.96875 
Q 30.765625 45.796875 27.09375 45.796875 
Q 23.34375 45.796875 20.671875 43.9375 
Q 18.015625 42.09375 16.359375 38.875 
Q 14.796875 35.890625 14.15625 32.078125 
Q 13.53125 28.265625 13.53125 24.703125 
Q 13.53125 20.015625 14.28125 16.03125 
Q 15.046875 12.0625 16.703125 8.9375 
Q 18.359375 5.8125 20.875 4.03125 
Q 23.390625 2.25 27.09375 2.25 
Q 33.203125 2.25 36.765625 8.15625 
Q 40.328125 14.0625 40.328125 24.46875 
z
" id="Georgia-6f"/>
     <path d="M 26.078125 0 
L 2.59375 0 
L 2.59375 3.21875 
Q 3.71875 3.328125 4.984375 3.4375 
Q 6.25 3.5625 7.078125 3.8125 
Q 8.453125 4.25 9.125 5.34375 
Q 9.8125 6.453125 9.8125 8.203125 
L 9.8125 63.96875 
Q 9.8125 65.71875 9.046875 67.25 
Q 8.296875 68.796875 7.078125 69.671875 
Q 6.203125 70.265625 3.859375 70.75 
Q 1.515625 71.234375 0.09375 71.34375 
L 0.09375 74.46875 
L 18.21875 75.59375 
L 18.890625 74.859375 
L 18.890625 8.796875 
Q 18.890625 7.078125 19.53125 5.984375 
Q 20.171875 4.890625 21.578125 4.296875 
Q 22.65625 3.8125 23.703125 3.5625 
Q 24.75 3.328125 26.078125 3.21875 
z
" id="Georgia-6c"/>
     <path d="M 44.78125 4.984375 
Q 46.734375 3.125 47.84375 0.78125 
Q 48.96875 -1.5625 48.96875 -5.03125 
Q 48.96875 -8.5 47.453125 -11.546875 
Q 45.953125 -14.59375 42.875 -16.84375 
Q 39.59375 -19.140625 35.046875 -20.40625 
Q 30.515625 -21.6875 23.828125 -21.6875 
Q 12.890625 -21.6875 7.46875 -18.484375 
Q 2.046875 -15.28125 2.046875 -9.125 
Q 2.046875 -4.15625 5.953125 -1.265625 
Q 9.859375 1.609375 15.921875 1.859375 
L 15.921875 2.546875 
Q 14.453125 2.984375 12.890625 3.640625 
Q 11.328125 4.296875 10.203125 5.171875 
Q 8.9375 6.203125 8.15625 7.59375 
Q 7.375 8.984375 7.375 11.03125 
Q 7.375 13.625 9.203125 15.796875 
Q 11.03125 17.96875 14.75 19.53125 
L 14.75 20.265625 
Q 10.0625 22.46875 7.46875 25.90625 
Q 4.890625 29.34375 4.890625 33.890625 
Q 4.890625 40.71875 9.984375 45.109375 
Q 15.09375 49.515625 23.046875 49.515625 
Q 25.25 49.515625 27.421875 49.078125 
Q 29.59375 48.640625 31.84375 47.953125 
L 48.640625 47.953125 
L 48.640625 43.265625 
L 37.3125 43.265625 
L 37.3125 42.96875 
Q 39.109375 40.875 39.984375 38.328125 
Q 40.875 35.796875 40.875 33.34375 
Q 40.875 27 35.71875 22.609375 
Q 30.5625 18.21875 23.734375 18.21875 
L 17.828125 18.21875 
Q 16.703125 17.828125 15.484375 16.796875 
Q 14.265625 15.765625 14.265625 14.015625 
Q 14.265625 12.203125 15.28125 11.25 
Q 16.3125 10.296875 17.78125 9.96875 
Q 19.1875 9.578125 21.0625 9.46875 
Q 22.953125 9.375 24.953125 9.328125 
Q 27.09375 9.28125 30.828125 9.03125 
Q 34.578125 8.796875 36.140625 8.734375 
Q 38.375 8.640625 40.640625 7.65625 
Q 42.921875 6.6875 44.78125 4.984375 
z
M 31.59375 33.546875 
Q 31.59375 39.265625 29.265625 42.65625 
Q 26.953125 46.046875 22.75 46.046875 
Q 20.453125 46.046875 18.8125 45.09375 
Q 17.1875 44.140625 16.15625 42.390625 
Q 15.1875 40.765625 14.765625 38.5 
Q 14.359375 36.234375 14.359375 33.84375 
Q 14.359375 28.421875 16.71875 25 
Q 19.09375 21.578125 22.859375 21.578125 
Q 27.046875 21.578125 29.3125 24.96875 
Q 31.59375 28.375 31.59375 33.546875 
z
M 40.96875 -6.84375 
Q 40.96875 -4.109375 39.6875 -2.34375 
Q 38.421875 -0.59375 35.84375 0.046875 
Q 34.46875 0.25 30.21875 0.484375 
Q 25.984375 0.734375 20.359375 0.734375 
Q 15.09375 -0.296875 12.859375 -2.703125 
Q 10.640625 -5.125 10.640625 -8.9375 
Q 10.640625 -10.640625 11.375 -12.203125 
Q 12.109375 -13.765625 13.921875 -15.09375 
Q 15.625 -16.359375 18.5 -17.15625 
Q 21.390625 -17.96875 25.53125 -17.96875 
Q 32.71875 -17.96875 36.84375 -15.203125 
Q 40.96875 -12.453125 40.96875 -6.84375 
z
" id="Georgia-67"/>
     <path d="M 26.90625 0 
L 3.609375 0 
L 3.609375 3.21875 
Q 4.734375 3.328125 5.921875 3.421875 
Q 7.125 3.515625 8.015625 3.8125 
Q 9.375 4.25 10.03125 5.34375 
Q 10.6875 6.453125 10.6875 8.203125 
L 10.6875 37.9375 
Q 10.6875 39.5 9.984375 40.796875 
Q 9.28125 42.09375 8.015625 42.96875 
Q 7.078125 43.5625 5.3125 43.96875 
Q 3.5625 44.390625 2.09375 44.484375 
L 2.09375 47.65625 
L 19.09375 48.734375 
L 19.78125 48.046875 
L 19.78125 8.796875 
Q 19.78125 7.078125 20.4375 5.953125 
Q 21.09375 4.828125 22.515625 4.296875 
Q 23.578125 3.859375 24.609375 3.59375 
Q 25.640625 3.328125 26.90625 3.21875 
z
M 20.75 67.71875 
Q 20.75 64.9375 18.921875 62.859375 
Q 17.09375 60.796875 14.40625 60.796875 
Q 11.921875 60.796875 10.078125 62.765625 
Q 8.25 64.75 8.25 67.28125 
Q 8.25 69.96875 10.078125 71.96875 
Q 11.921875 73.96875 14.40625 73.96875 
Q 17.1875 73.96875 18.96875 72.09375 
Q 20.75 70.21875 20.75 67.71875 
z
" id="Georgia-69"/>
     <path d="M 25.78125 -1.265625 
Q 15.328125 -1.265625 9.421875 5.65625 
Q 3.515625 12.59375 3.515625 24.265625 
Q 3.515625 29.34375 5.09375 33.765625 
Q 6.6875 38.1875 9.71875 41.796875 
Q 12.59375 45.265625 16.9375 47.390625 
Q 21.296875 49.515625 26.421875 49.515625 
Q 33.5 49.515625 37.9375 46.109375 
Q 42.390625 42.71875 42.390625 36.859375 
Q 42.390625 34.421875 41.21875 32.546875 
Q 40.046875 30.671875 37.359375 30.671875 
Q 34.46875 30.671875 32.875 32.125 
Q 31.296875 33.59375 31.296875 35.40625 
Q 31.296875 37.59375 31.875 39.90625 
Q 32.46875 42.234375 32.5625 43.3125 
Q 31.6875 44.828125 29.953125 45.328125 
Q 28.21875 45.84375 26.21875 45.84375 
Q 23.875 45.84375 21.75 44.84375 
Q 19.625 43.84375 17.625 41.15625 
Q 15.828125 38.71875 14.703125 34.5625 
Q 13.578125 30.421875 13.578125 24.65625 
Q 13.578125 15.578125 17.59375 9.84375 
Q 21.625 4.109375 28.171875 4.109375 
Q 32.90625 4.109375 36.109375 6.390625 
Q 39.3125 8.6875 42.046875 13.28125 
L 45.171875 11.234375 
Q 41.9375 5.46875 36.65625 2.09375 
Q 31.390625 -1.265625 25.78125 -1.265625 
z
" id="Georgia-63"/>
     <path id="Georgia-20"/>
     <path d="M 56.25 0.875 
L 39.453125 -0.203125 
L 38.71875 0.484375 
L 38.71875 4.984375 
L 38.328125 5.078125 
Q 35.796875 2.25 32.0625 0.4375 
Q 28.328125 -1.375 24.359375 -1.375 
Q 20.265625 -1.375 16.421875 0.453125 
Q 12.59375 2.296875 9.765625 5.609375 
Q 6.890625 8.984375 5.203125 13.71875 
Q 3.515625 18.453125 3.515625 24.171875 
Q 3.515625 29.390625 5.3125 34.078125 
Q 7.125 38.765625 10.296875 42.28125 
Q 13.28125 45.5625 17.59375 47.515625 
Q 21.921875 49.46875 26.421875 49.46875 
Q 29.78125 49.46875 33.03125 48.609375 
Q 36.28125 47.75 38.625 46.4375 
L 38.625 63.1875 
Q 38.625 65.234375 37.9375 66.921875 
Q 37.25 68.609375 36.03125 69.484375 
Q 34.671875 70.40625 32.34375 70.8125 
Q 30.03125 71.234375 27.34375 71.4375 
L 27.34375 74.46875 
L 47.015625 75.59375 
L 47.75 74.859375 
L 47.75 9.90625 
Q 47.75 8.203125 48.40625 7 
Q 49.078125 5.8125 50.34375 4.984375 
Q 51.265625 4.390625 53.015625 4.25 
Q 54.78125 4.109375 56.25 4.046875 
z
M 38.625 9.328125 
L 38.625 37.5 
Q 38.234375 38.765625 37.34375 40.234375 
Q 36.46875 41.703125 35.15625 42.921875 
Q 33.734375 44.140625 31.828125 44.9375 
Q 29.9375 45.75 27.390625 45.75 
Q 24.46875 45.75 22 44.234375 
Q 19.53125 42.71875 17.625 39.890625 
Q 15.828125 37.15625 14.765625 32.9375 
Q 13.71875 28.71875 13.71875 23.578125 
Q 13.71875 19.484375 14.5 16.140625 
Q 15.28125 12.796875 17.140625 9.90625 
Q 18.84375 7.171875 21.5 5.515625 
Q 24.171875 3.859375 27.828125 3.859375 
Q 31.734375 3.859375 34.296875 5.5625 
Q 36.859375 7.28125 38.625 9.328125 
z
" id="Georgia-64"/>
     <path d="M 35.296875 23.578125 
Q 37.3125 21.828125 38.375 19.53125 
Q 39.453125 17.234375 39.453125 13.921875 
Q 39.453125 7.234375 34.4375 2.984375 
Q 29.4375 -1.265625 21.484375 -1.265625 
Q 17.28125 -1.265625 13.734375 0.25 
Q 10.203125 1.765625 8.6875 3.03125 
L 7.71875 -0.140625 
L 4.046875 -0.140625 
L 3.5625 16.609375 
L 6.9375 16.609375 
Q 7.328125 14.703125 8.59375 12.15625 
Q 9.859375 9.625 11.671875 7.5625 
Q 13.578125 5.421875 16.234375 3.953125 
Q 18.890625 2.484375 22.21875 2.484375 
Q 26.90625 2.484375 29.4375 4.609375 
Q 31.984375 6.734375 31.984375 10.6875 
Q 31.984375 12.75 31.171875 14.234375 
Q 30.375 15.71875 28.8125 16.84375 
Q 27.203125 17.96875 24.859375 18.875 
Q 22.515625 19.78125 19.625 20.65625 
Q 17.328125 21.34375 14.515625 22.53125 
Q 11.71875 23.734375 9.71875 25.34375 
Q 7.5625 27.046875 6.1875 29.53125 
Q 4.828125 32.03125 4.828125 35.40625 
Q 4.828125 41.3125 9.21875 45.40625 
Q 13.625 49.515625 21 49.515625 
Q 23.828125 49.515625 26.78125 48.78125 
Q 29.734375 48.046875 31.59375 47.015625 
L 32.71875 49.5625 
L 36.234375 49.5625 
L 36.96875 34.078125 
L 33.59375 34.078125 
Q 32.5625 39.265625 29.171875 42.5 
Q 25.78125 45.75 20.90625 45.75 
Q 16.890625 45.75 14.59375 43.75 
Q 12.3125 41.75 12.3125 38.921875 
Q 12.3125 36.71875 13.0625 35.25 
Q 13.8125 33.796875 15.328125 32.765625 
Q 16.796875 31.78125 19.015625 30.921875 
Q 21.234375 30.078125 24.515625 29 
Q 27.734375 27.984375 30.59375 26.609375 
Q 33.453125 25.25 35.296875 23.578125 
z
" id="Georgia-73"/>
     <path d="M 46.296875 11.328125 
Q 43.265625 5.5625 38.1875 2.140625 
Q 33.109375 -1.265625 26.515625 -1.265625 
Q 20.703125 -1.265625 16.328125 0.78125 
Q 11.96875 2.828125 9.125 6.34375 
Q 6.296875 9.859375 4.90625 14.546875 
Q 3.515625 19.234375 3.515625 24.46875 
Q 3.515625 29.15625 5 33.671875 
Q 6.5 38.1875 9.375 41.796875 
Q 12.15625 45.265625 16.28125 47.390625 
Q 20.40625 49.515625 25.53125 49.515625 
Q 30.8125 49.515625 34.5625 47.84375 
Q 38.328125 46.1875 40.671875 43.3125 
Q 42.921875 40.578125 44.015625 36.859375 
Q 45.125 33.15625 45.125 28.8125 
L 45.125 25.59375 
L 13.234375 25.59375 
Q 13.234375 20.84375 14.140625 16.984375 
Q 15.046875 13.140625 17 10.203125 
Q 18.890625 7.375 21.96875 5.734375 
Q 25.046875 4.109375 29.296875 4.109375 
Q 33.640625 4.109375 36.78125 6.125 
Q 39.9375 8.15625 42.875 13.421875 
z
M 35.5 29.6875 
Q 35.5 32.421875 35.03125 35.546875 
Q 34.578125 38.671875 33.546875 40.765625 
Q 32.421875 43.015625 30.46875 44.421875 
Q 28.515625 45.84375 25.4375 45.84375 
Q 20.3125 45.84375 16.921875 41.578125 
Q 13.53125 37.3125 13.234375 29.6875 
z
" id="Georgia-65"/>
    </defs>
    <g transform="translate(87.079375 25.2)scale(0.18 -0.18)">
     <use xlink:href="#Georgia-50"/>
     <use x="60.986328" xlink:href="#Georgia-61"/>
     <use x="111.376953" xlink:href="#Georgia-74"/>
     <use x="145.898438" xlink:href="#Georgia-68"/>
     <use x="204.101562" xlink:href="#Georgia-6f"/>
     <use x="258.007812" xlink:href="#Georgia-6c"/>
     <use x="286.621094" xlink:href="#Georgia-6f"/>
     <use x="340.527344" xlink:href="#Georgia-67"/>
     <use x="391.455078" xlink:href="#Georgia-69"/>
     <use x="420.751953" xlink:href="#Georgia-63"/>
     <use x="466.162109" xlink:href="#Georgia-61"/>
     <use x="516.552734" xlink:href="#Georgia-6c"/>
     <use x="545.166016" xlink:href="#Georgia-20"/>
     <use x="569.287109" xlink:href="#Georgia-64"/>
     <use x="626.708984" xlink:href="#Georgia-61"/>
     <use x="677.099609" xlink:href="#Georgia-74"/>
     <use x="711.621094" xlink:href="#Georgia-61"/>
     <use x="762.011719" xlink:href="#Georgia-73"/>
     <use x="805.224609" xlink:href="#Georgia-65"/>
     <use x="853.564453" xlink:href="#Georgia-74"/>
    </g>
   </g>
  </g>
  <g id="axes_2">
   <g id="patch_7">
    <path d="M 336.53 237.4 
L 566.28 237.4 
L 566.28 31.2 
L 336.53 31.2 
z
" style="fill:#ffffff;"/>
   </g>
   <g id="PathCollection_2">
    <defs>
     <path d="M 0 3 
C 0.795609 3 1.55874 2.683901 2.12132 2.12132 
C 2.683901 1.55874 3 0.795609 3 0 
C 3 -0.795609 2.683901 -1.55874 2.12132 -2.12132 
C 1.55874 -2.683901 0.795609 -3 0 -3 
C -0.795609 -3 -1.55874 -2.683901 -2.12132 -2.12132 
C -2.683901 -1.55874 -3 -0.795609 -3 0 
C -3 0.795609 -2.683901 1.55874 -2.12132 2.12132 
C -1.55874 2.683901 -0.795609 3 0 3 
z
" id="C0_0_dc0d8251cf"/>
    </defs>
    <g clip-path="url(#pe41851203e)">
     <use style="fill:#008000;stroke:#000000;" x="490.001122" xlink:href="#C0_0_dc0d8251cf" y="121.642556"/>
    </g>
    <g clip-path="url(#pe41851203e)">
     <use style="fill:#008000;stroke:#000000;" x="550.872734" xlink:href="#C0_0_dc0d8251cf" y="142.265568"/>
    </g>
    <g clip-path="url(#pe41851203e)">
     <use style="fill:#008000;stroke:#000000;" x="518.357915" xlink:href="#C0_0_dc0d8251cf" y="138.423284"/>
    </g>
    <g clip-path="url(#pe41851203e)">
     <use style="fill:#008000;stroke:#000000;" x="491.052405" xlink:href="#C0_0_dc0d8251cf" y="133.308255"/>
    </g>
    <g clip-path="url(#pe41851203e)">
     <use style="fill:#ff0000;stroke:#000000;" x="385.229033" xlink:href="#C0_0_dc0d8251cf" y="192.061788"/>
    </g>
    <g clip-path="url(#pe41851203e)">
     <use style="fill:#0000ff;stroke:#000000;" x="529.71558" xlink:href="#C0_0_dc0d8251cf" y="72.227345"/>
    </g>
    <g clip-path="url(#pe41851203e)">
     <use style="fill:#ff0000;stroke:#000000;" x="374.180812" xlink:href="#C0_0_dc0d8251cf" y="194.392689"/>
    </g>
    <g clip-path="url(#pe41851203e)">
     <use style="fill:#0000ff;stroke:#000000;" x="498.773819" xlink:href="#C0_0_dc0d8251cf" y="62.328284"/>
    </g>
    <g clip-path="url(#pe41851203e)">
     <use style="fill:#008000;stroke:#000000;" x="436.81843" xlink:href="#C0_0_dc0d8251cf" y="121.956544"/>
    </g>
    <g clip-path="url(#pe41851203e)">
     <use style="fill:#008000;stroke:#000000;" x="452.383218" xlink:href="#C0_0_dc0d8251cf" y="135.825693"/>
    </g>
    <g clip-path="url(#pe41851203e)">
     <use style="fill:#008000;stroke:#000000;" x="480.532129" xlink:href="#C0_0_dc0d8251cf" y="133.083374"/>
    </g>
    <g clip-path="url(#pe41851203e)">
     <use style="fill:#008000;stroke:#000000;" x="401.91426" xlink:href="#C0_0_dc0d8251cf" y="150.445018"/>
    </g>
    <g clip-path="url(#pe41851203e)">
     <use style="fill:#008000;stroke:#000000;" x="459.391125" xlink:href="#C0_0_dc0d8251cf" y="138.069777"/>
    </g>
    <g clip-path="url(#pe41851203e)">
     <use style="fill:#008000;stroke:#000000;" x="428.969904" xlink:href="#C0_0_dc0d8251cf" y="136.764"/>
    </g>
    <g clip-path="url(#pe41851203e)">
     <use style="fill:#008000;stroke:#000000;" x="503.739252" xlink:href="#C0_0_dc0d8251cf" y="150.057109"/>
    </g>
    <g clip-path="url(#pe41851203e)">
     <use style="fill:#008000;stroke:#000000;" x="422.35679" xlink:href="#C0_0_dc0d8251cf" y="137.870643"/>
    </g>
    <g clip-path="url(#pe41851203e)">
     <use style="fill:#008000;stroke:#000000;" x="437.694762" xlink:href="#C0_0_dc0d8251cf" y="147.786027"/>
    </g>
    <g clip-path="url(#pe41851203e)">
     <use style="fill:#ff0000;stroke:#000000;" x="374.67997" xlink:href="#C0_0_dc0d8251cf" y="194.277702"/>
    </g>
    <g clip-path="url(#pe41851203e)">
     <use style="fill:#ff0000;stroke:#000000;" x="390.086966" xlink:href="#C0_0_dc0d8251cf" y="204.01594"/>
    </g>
    <g clip-path="url(#pe41851203e)">
     <use style="fill:#ff0000;stroke:#000000;" x="381.31077" xlink:href="#C0_0_dc0d8251cf" y="193.800148"/>
    </g>
    <g clip-path="url(#pe41851203e)">
     <use style="fill:#0000ff;stroke:#000000;" x="529.577279" xlink:href="#C0_0_dc0d8251cf" y="62.407111"/>
    </g>
    <g clip-path="url(#pe41851203e)">
     <use style="fill:#ff0000;stroke:#000000;" x="376.676543" xlink:href="#C0_0_dc0d8251cf" y="202.918792"/>
    </g>
    <g clip-path="url(#pe41851203e)">
     <use style="fill:#008000;stroke:#000000;" x="430.791726" xlink:href="#C0_0_dc0d8251cf" y="140.337663"/>
    </g>
    <g clip-path="url(#pe41851203e)">
     <use style="fill:#008000;stroke:#000000;" x="459.50139" xlink:href="#C0_0_dc0d8251cf" y="137.574824"/>
    </g>
    <g clip-path="url(#pe41851203e)">
     <use style="fill:#008000;stroke:#000000;" x="459.154005" xlink:href="#C0_0_dc0d8251cf" y="148.365551"/>
    </g>
    <g clip-path="url(#pe41851203e)">
     <use style="fill:#ff0000;stroke:#000000;" x="387.10048" xlink:href="#C0_0_dc0d8251cf" y="197.250723"/>
    </g>
    <g clip-path="url(#pe41851203e)">
     <use style="fill:#008000;stroke:#000000;" x="404.587868" xlink:href="#C0_0_dc0d8251cf" y="131.193222"/>
    </g>
    <g clip-path="url(#pe41851203e)">
     <use style="fill:#008000;stroke:#000000;" x="402.832692" xlink:href="#C0_0_dc0d8251cf" y="139.018071"/>
    </g>
    <g clip-path="url(#pe41851203e)">
     <use style="fill:#008000;stroke:#000000;" x="499.930034" xlink:href="#C0_0_dc0d8251cf" y="141.674704"/>
    </g>
    <g clip-path="url(#pe41851203e)">
     <use style="fill:#0000ff;stroke:#000000;" x="521.852847" xlink:href="#C0_0_dc0d8251cf" y="87.570674"/>
    </g>
    <g clip-path="url(#pe41851203e)">
     <use style="fill:#008000;stroke:#000000;" x="371.761374" xlink:href="#C0_0_dc0d8251cf" y="131.22585"/>
    </g>
    <g clip-path="url(#pe41851203e)">
     <use style="fill:#0000ff;stroke:#000000;" x="527.304966" xlink:href="#C0_0_dc0d8251cf" y="71.936481"/>
    </g>
    <g clip-path="url(#pe41851203e)">
     <use style="fill:#008000;stroke:#000000;" x="498.97146" xlink:href="#C0_0_dc0d8251cf" y="139.074908"/>
    </g>
    <g clip-path="url(#pe41851203e)">
     <use style="fill:#008000;stroke:#000000;" x="461.169129" xlink:href="#C0_0_dc0d8251cf" y="126.339639"/>
    </g>
    <g clip-path="url(#pe41851203e)">
     <use style="fill:#0000ff;stroke:#000000;" x="526.699921" xlink:href="#C0_0_dc0d8251cf" y="59.028373"/>
    </g>
    <g clip-path="url(#pe41851203e)">
     <use style="fill:#008000;stroke:#000000;" x="456.770516" xlink:href="#C0_0_dc0d8251cf" y="131.023477"/>
    </g>
    <g clip-path="url(#pe41851203e)">
     <use style="fill:#008000;stroke:#000000;" x="436.876597" xlink:href="#C0_0_dc0d8251cf" y="133.865198"/>
    </g>
    <g clip-path="url(#pe41851203e)">
     <use style="fill:#008000;stroke:#000000;" x="381.2249" xlink:href="#C0_0_dc0d8251cf" y="126.39867"/>
    </g>
    <g clip-path="url(#pe41851203e)">
     <use style="fill:#008000;stroke:#000000;" x="392.05183" xlink:href="#C0_0_dc0d8251cf" y="136.004559"/>
    </g>
    <g clip-path="url(#pe41851203e)">
     <use style="fill:#008000;stroke:#000000;" x="553.866887" xlink:href="#C0_0_dc0d8251cf" y="122.232663"/>
    </g>
    <g clip-path="url(#pe41851203e)">
     <use style="fill:#008000;stroke:#000000;" x="519.723479" xlink:href="#C0_0_dc0d8251cf" y="123.698323"/>
    </g>
    <g clip-path="url(#pe41851203e)">
     <use style="fill:#008000;stroke:#000000;" x="435.420728" xlink:href="#C0_0_dc0d8251cf" y="127.759362"/>
    </g>
    <g clip-path="url(#pe41851203e)">
     <use style="fill:#008000;stroke:#000000;" x="454.760429" xlink:href="#C0_0_dc0d8251cf" y="133.363852"/>
    </g>
    <g clip-path="url(#pe41851203e)">
     <use style="fill:#008000;stroke:#000000;" x="470.259628" xlink:href="#C0_0_dc0d8251cf" y="143.260964"/>
    </g>
    <g clip-path="url(#pe41851203e)">
     <use style="fill:#ff0000;stroke:#000000;" x="384.281874" xlink:href="#C0_0_dc0d8251cf" y="194.032805"/>
    </g>
    <g clip-path="url(#pe41851203e)">
     <use style="fill:#008000;stroke:#000000;" x="412.359941" xlink:href="#C0_0_dc0d8251cf" y="135.519637"/>
    </g>
    <g clip-path="url(#pe41851203e)">
     <use style="fill:#008000;stroke:#000000;" x="543.990439" xlink:href="#C0_0_dc0d8251cf" y="137.267588"/>
    </g>
    <g clip-path="url(#pe41851203e)">
     <use style="fill:#0000ff;stroke:#000000;" x="512.406263" xlink:href="#C0_0_dc0d8251cf" y="63.646612"/>
    </g>
    <g clip-path="url(#pe41851203e)">
     <use style="fill:#008000;stroke:#000000;" x="414.16904" xlink:href="#C0_0_dc0d8251cf" y="143.919466"/>
    </g>
    <g clip-path="url(#pe41851203e)">
     <use style="fill:#0000ff;stroke:#000000;" x="521.320296" xlink:href="#C0_0_dc0d8251cf" y="82.462144"/>
    </g>
    <g clip-path="url(#pe41851203e)">
     <use style="fill:#008000;stroke:#000000;" x="488.521567" xlink:href="#C0_0_dc0d8251cf" y="115.680923"/>
    </g>
    <g clip-path="url(#pe41851203e)">
     <use style="fill:#008000;stroke:#000000;" x="400.560746" xlink:href="#C0_0_dc0d8251cf" y="125.195456"/>
    </g>
    <g clip-path="url(#pe41851203e)">
     <use style="fill:#008000;stroke:#000000;" x="418.463225" xlink:href="#C0_0_dc0d8251cf" y="138.683761"/>
    </g>
    <g clip-path="url(#pe41851203e)">
     <use style="fill:#0000ff;stroke:#000000;" x="517.770898" xlink:href="#C0_0_dc0d8251cf" y="50.112918"/>
    </g>
    <g clip-path="url(#pe41851203e)">
     <use style="fill:#ff0000;stroke:#000000;" x="367.678151" xlink:href="#C0_0_dc0d8251cf" y="206.013013"/>
    </g>
    <g clip-path="url(#pe41851203e)">
     <use style="fill:#008000;stroke:#000000;" x="387.875369" xlink:href="#C0_0_dc0d8251cf" y="137.868571"/>
    </g>
    <g clip-path="url(#pe41851203e)">
     <use style="fill:#ff0000;stroke:#000000;" x="383.020922" xlink:href="#C0_0_dc0d8251cf" y="204.17365"/>
    </g>
    <g clip-path="url(#pe41851203e)">
     <use style="fill:#008000;stroke:#000000;" x="501.236708" xlink:href="#C0_0_dc0d8251cf" y="133.58639"/>
    </g>
    <g clip-path="url(#pe41851203e)">
     <use style="fill:#0000ff;stroke:#000000;" x="523.271441" xlink:href="#C0_0_dc0d8251cf" y="82.893654"/>
    </g>
    <g clip-path="url(#pe41851203e)">
     <use style="fill:#008000;stroke:#000000;" x="395.836128" xlink:href="#C0_0_dc0d8251cf" y="146.891075"/>
    </g>
    <g clip-path="url(#pe41851203e)">
     <use style="fill:#008000;stroke:#000000;" x="472.853882" xlink:href="#C0_0_dc0d8251cf" y="125.421292"/>
    </g>
    <g clip-path="url(#pe41851203e)">
     <use style="fill:#0000ff;stroke:#000000;" x="524.843513" xlink:href="#C0_0_dc0d8251cf" y="77.366827"/>
    </g>
    <g clip-path="url(#pe41851203e)">
     <use style="fill:#ff0000;stroke:#000000;" x="382.35462" xlink:href="#C0_0_dc0d8251cf" y="195.721266"/>
    </g>
    <g clip-path="url(#pe41851203e)">
     <use style="fill:#ff0000;stroke:#000000;" x="375.383789" xlink:href="#C0_0_dc0d8251cf" y="206.685892"/>
    </g>
    <g clip-path="url(#pe41851203e)">
     <use style="fill:#008000;stroke:#000000;" x="347.160684" xlink:href="#C0_0_dc0d8251cf" y="143.572147"/>
    </g>
    <g clip-path="url(#pe41851203e)">
     <use style="fill:#008000;stroke:#000000;" x="483.710491" xlink:href="#C0_0_dc0d8251cf" y="147.358005"/>
    </g>
    <g clip-path="url(#pe41851203e)">
     <use style="fill:#0000ff;stroke:#000000;" x="518.651244" xlink:href="#C0_0_dc0d8251cf" y="81.761094"/>
    </g>
    <g clip-path="url(#pe41851203e)">
     <use style="fill:#ff0000;stroke:#000000;" x="375.871927" xlink:href="#C0_0_dc0d8251cf" y="180.951278"/>
    </g>
    <g clip-path="url(#pe41851203e)">
     <use style="fill:#008000;stroke:#000000;" x="431.95932" xlink:href="#C0_0_dc0d8251cf" y="136.713446"/>
    </g>
    <g clip-path="url(#pe41851203e)">
     <use style="fill:#008000;stroke:#000000;" x="478.198645" xlink:href="#C0_0_dc0d8251cf" y="135.698235"/>
    </g>
    <g clip-path="url(#pe41851203e)">
     <use style="fill:#0000ff;stroke:#000000;" x="521.292018" xlink:href="#C0_0_dc0d8251cf" y="67.077192"/>
    </g>
    <g clip-path="url(#pe41851203e)">
     <use style="fill:#ff0000;stroke:#000000;" x="398.065201" xlink:href="#C0_0_dc0d8251cf" y="183.331435"/>
    </g>
    <g clip-path="url(#pe41851203e)">
     <use style="fill:#0000ff;stroke:#000000;" x="510.66576" xlink:href="#C0_0_dc0d8251cf" y="79.084485"/>
    </g>
    <g clip-path="url(#pe41851203e)">
     <use style="fill:#ff0000;stroke:#000000;" x="389.933656" xlink:href="#C0_0_dc0d8251cf" y="191.184321"/>
    </g>
    <g clip-path="url(#pe41851203e)">
     <use style="fill:#008000;stroke:#000000;" x="413.53757" xlink:href="#C0_0_dc0d8251cf" y="133.213303"/>
    </g>
    <g clip-path="url(#pe41851203e)">
     <use style="fill:#008000;stroke:#000000;" x="465.042627" xlink:href="#C0_0_dc0d8251cf" y="135.100001"/>
    </g>
    <g clip-path="url(#pe41851203e)">
     <use style="fill:#ff0000;stroke:#000000;" x="385.51708" xlink:href="#C0_0_dc0d8251cf" y="184.936769"/>
    </g>
    <g clip-path="url(#pe41851203e)">
     <use style="fill:#0000ff;stroke:#000000;" x="524.304487" xlink:href="#C0_0_dc0d8251cf" y="75.23888"/>
    </g>
    <g clip-path="url(#pe41851203e)">
     <use style="fill:#008000;stroke:#000000;" x="426.9929" xlink:href="#C0_0_dc0d8251cf" y="162.948069"/>
    </g>
    <g clip-path="url(#pe41851203e)">
     <use style="fill:#008000;stroke:#000000;" x="398.229457" xlink:href="#C0_0_dc0d8251cf" y="137.120018"/>
    </g>
    <g clip-path="url(#pe41851203e)">
     <use style="fill:#0000ff;stroke:#000000;" x="518.677745" xlink:href="#C0_0_dc0d8251cf" y="85.772095"/>
    </g>
    <g clip-path="url(#pe41851203e)">
     <use style="fill:#ff0000;stroke:#000000;" x="382.722803" xlink:href="#C0_0_dc0d8251cf" y="196.061165"/>
    </g>
    <g clip-path="url(#pe41851203e)">
     <use style="fill:#008000;stroke:#000000;" x="440.764514" xlink:href="#C0_0_dc0d8251cf" y="140.526485"/>
    </g>
    <g clip-path="url(#pe41851203e)">
     <use style="fill:#ff0000;stroke:#000000;" x="377.375803" xlink:href="#C0_0_dc0d8251cf" y="193.94172"/>
    </g>
    <g clip-path="url(#pe41851203e)">
     <use style="fill:#ff0000;stroke:#000000;" x="383.544338" xlink:href="#C0_0_dc0d8251cf" y="205.995338"/>
    </g>
    <g clip-path="url(#pe41851203e)">
     <use style="fill:#ff0000;stroke:#000000;" x="392.95228" xlink:href="#C0_0_dc0d8251cf" y="222.598073"/>
    </g>
    <g clip-path="url(#pe41851203e)">
     <use style="fill:#0000ff;stroke:#000000;" x="511.103188" xlink:href="#C0_0_dc0d8251cf" y="59.147131"/>
    </g>
    <g clip-path="url(#pe41851203e)">
     <use style="fill:#ff0000;stroke:#000000;" x="380.510302" xlink:href="#C0_0_dc0d8251cf" y="202.170115"/>
    </g>
    <g clip-path="url(#pe41851203e)">
     <use style="fill:#008000;stroke:#000000;" x="553.780655" xlink:href="#C0_0_dc0d8251cf" y="138.047566"/>
    </g>
    <g clip-path="url(#pe41851203e)">
     <use style="fill:#008000;stroke:#000000;" x="405.937609" xlink:href="#C0_0_dc0d8251cf" y="146.252488"/>
    </g>
    <g clip-path="url(#pe41851203e)">
     <use style="fill:#ff0000;stroke:#000000;" x="389.24239" xlink:href="#C0_0_dc0d8251cf" y="190.514308"/>
    </g>
    <g clip-path="url(#pe41851203e)">
     <use style="fill:#0000ff;stroke:#000000;" x="512.745101" xlink:href="#C0_0_dc0d8251cf" y="85.80844"/>
    </g>
    <g clip-path="url(#pe41851203e)">
     <use style="fill:#008000;stroke:#000000;" x="406.866303" xlink:href="#C0_0_dc0d8251cf" y="145.715491"/>
    </g>
    <g clip-path="url(#pe41851203e)">
     <use style="fill:#ff0000;stroke:#000000;" x="376.967133" xlink:href="#C0_0_dc0d8251cf" y="199.34344"/>
    </g>
    <g clip-path="url(#pe41851203e)">
     <use style="fill:#0000ff;stroke:#000000;" x="518.56986" xlink:href="#C0_0_dc0d8251cf" y="79.250096"/>
    </g>
    <g clip-path="url(#pe41851203e)">
     <use style="fill:#008000;stroke:#000000;" x="478.231859" xlink:href="#C0_0_dc0d8251cf" y="133.579292"/>
    </g>
    <g clip-path="url(#pe41851203e)">
     <use style="fill:#008000;stroke:#000000;" x="445.913011" xlink:href="#C0_0_dc0d8251cf" y="138.322549"/>
    </g>
    <g clip-path="url(#pe41851203e)">
     <use style="fill:#008000;stroke:#000000;" x="555.649316" xlink:href="#C0_0_dc0d8251cf" y="131.120439"/>
    </g>
    <g clip-path="url(#pe41851203e)">
     <use style="fill:#008000;stroke:#000000;" x="434.656741" xlink:href="#C0_0_dc0d8251cf" y="142.252337"/>
    </g>
    <g clip-path="url(#pe41851203e)">
     <use style="fill:#0000ff;stroke:#000000;" x="502.767091" xlink:href="#C0_0_dc0d8251cf" y="46.065234"/>
    </g>
   </g>
   <g id="matplotlib.axis_3">
    <g id="xtick_6">
     <g id="line2d_11">
      <g>
       <use style="stroke:#000000;stroke-width:0.8;" x="347.334636" xlink:href="#m1d726b3be4" y="237.4"/>
      </g>
     </g>
     <g id="text_14">
      <!-- −6 -->
      <g transform="translate(340.080261 253.47125)scale(0.12 -0.12)">
       <use xlink:href="#Georgia-2212"/>
       <use x="64.306641" xlink:href="#Georgia-36"/>
      </g>
     </g>
    </g>
    <g id="xtick_7">
     <g id="line2d_12">
      <g>
       <use style="stroke:#000000;stroke-width:0.8;" x="398.622037" xlink:href="#m1d726b3be4" y="237.4"/>
      </g>
     </g>
     <g id="text_15">
      <!-- −3 -->
      <g transform="translate(391.452974 253.47125)scale(0.12 -0.12)">
       <use xlink:href="#Georgia-2212"/>
       <use x="64.306641" xlink:href="#Georgia-33"/>
      </g>
     </g>
    </g>
    <g id="xtick_8">
     <g id="line2d_13">
      <g>
       <use style="stroke:#000000;stroke-width:0.8;" x="449.909437" xlink:href="#m1d726b3be4" y="237.4"/>
      </g>
     </g>
     <g id="text_16">
      <!-- 0 -->
      <g transform="translate(446.226937 253.47125)scale(0.12 -0.12)">
       <use xlink:href="#Georgia-30"/>
      </g>
     </g>
    </g>
    <g id="xtick_9">
     <g id="line2d_14">
      <g>
       <use style="stroke:#000000;stroke-width:0.8;" x="501.196837" xlink:href="#m1d726b3be4" y="237.4"/>
      </g>
     </g>
     <g id="text_17">
      <!-- 3 -->
      <g transform="translate(497.886524 253.47125)scale(0.12 -0.12)">
       <use xlink:href="#Georgia-33"/>
      </g>
     </g>
    </g>
    <g id="xtick_10">
     <g id="line2d_15">
      <g>
       <use style="stroke:#000000;stroke-width:0.8;" x="552.484237" xlink:href="#m1d726b3be4" y="237.4"/>
      </g>
     </g>
     <g id="text_18">
      <!-- 6 -->
      <g transform="translate(549.088612 253.47125)scale(0.12 -0.12)">
       <use xlink:href="#Georgia-36"/>
      </g>
     </g>
    </g>
    <g id="text_19">
     <!-- $x_1$ -->
     <g transform="translate(444.685 272.16875)scale(0.16 -0.16)">
      <use transform="translate(0 0.90625)" xlink:href="#STIXGeneral-Italic-78"/>
      <use transform="translate(44.399994 -12.321875)scale(0.7)" xlink:href="#STIXGeneral-Regular-31"/>
     </g>
    </g>
   </g>
   <g id="matplotlib.axis_4">
    <g id="ytick_6">
     <g id="line2d_16">
      <g>
       <use style="stroke:#000000;stroke-width:0.8;" x="336.53" xlink:href="#m085a54932b" y="237.4"/>
      </g>
     </g>
     <g id="text_20">
      <!-- −4 -->
      <g transform="translate(315.0325 241.935625)scale(0.12 -0.12)">
       <use xlink:href="#Georgia-2212"/>
       <use x="64.306641" xlink:href="#Georgia-34"/>
      </g>
     </g>
    </g>
    <g id="ytick_7">
     <g id="line2d_17">
      <g>
       <use style="stroke:#000000;stroke-width:0.8;" x="336.53" xlink:href="#m085a54932b" y="185.85"/>
      </g>
     </g>
     <g id="text_21">
      <!-- −2 -->
      <g transform="translate(315.109375 190.385625)scale(0.12 -0.12)">
       <use xlink:href="#Georgia-2212"/>
       <use x="64.306641" xlink:href="#Georgia-32"/>
      </g>
     </g>
    </g>
    <g id="ytick_8">
     <g id="line2d_18">
      <g>
       <use style="stroke:#000000;stroke-width:0.8;" x="336.53" xlink:href="#m085a54932b" y="134.3"/>
      </g>
     </g>
     <g id="text_22">
      <!-- 0 -->
      <g transform="translate(322.165 138.835625)scale(0.12 -0.12)">
       <use xlink:href="#Georgia-30"/>
      </g>
     </g>
    </g>
    <g id="ytick_9">
     <g id="line2d_19">
      <g>
       <use style="stroke:#000000;stroke-width:0.8;" x="336.53" xlink:href="#m085a54932b" y="82.75"/>
      </g>
     </g>
     <g id="text_23">
      <!-- 2 -->
      <g transform="translate(322.826875 87.285625)scale(0.12 -0.12)">
       <use xlink:href="#Georgia-32"/>
      </g>
     </g>
    </g>
    <g id="ytick_10">
     <g id="line2d_20">
      <g>
       <use style="stroke:#000000;stroke-width:0.8;" x="336.53" xlink:href="#m085a54932b" y="31.2"/>
      </g>
     </g>
     <g id="text_24">
      <!-- 4 -->
      <g transform="translate(322.75 35.735625)scale(0.12 -0.12)">
       <use xlink:href="#Georgia-34"/>
      </g>
     </g>
    </g>
    <g id="text_25">
     <!-- $x_2$ -->
     <g transform="translate(307.5625 141.02)rotate(-90)scale(0.16 -0.16)">
      <use transform="translate(0 0.90625)" xlink:href="#STIXGeneral-Italic-78"/>
      <use transform="translate(44.399994 -12.321875)scale(0.7)" xlink:href="#STIXGeneral-Regular-32"/>
     </g>
    </g>
   </g>
   <g id="patch_8">
    <path d="M 336.53 237.4 
L 336.53 31.2 
" style="fill:none;stroke:#000000;stroke-linecap:square;stroke-linejoin:miter;stroke-width:0.8;"/>
   </g>
   <g id="patch_9">
    <path d="M 566.28 237.4 
L 566.28 31.2 
" style="fill:none;stroke:#000000;stroke-linecap:square;stroke-linejoin:miter;stroke-width:0.8;"/>
   </g>
   <g id="patch_10">
    <path d="M 336.53 237.4 
L 566.28 237.4 
" style="fill:none;stroke:#000000;stroke-linecap:square;stroke-linejoin:miter;stroke-width:0.8;"/>
   </g>
   <g id="patch_11">
    <path d="M 336.53 31.2 
L 566.28 31.2 
" style="fill:none;stroke:#000000;stroke-linecap:square;stroke-linejoin:miter;stroke-width:0.8;"/>
   </g>
   <g id="text_26">
    <!-- Good clustering -->
    <defs>
     <path d="M 71.828125 27.6875 
Q 70.65625 27.546875 68.671875 27.21875 
Q 66.703125 26.90625 65.484375 26.3125 
Q 64.015625 25.59375 63.40625 24.25 
Q 62.796875 22.90625 62.796875 21.09375 
L 62.796875 15.71875 
Q 62.796875 9.859375 62.859375 7.8125 
Q 62.9375 5.765625 63.03125 4.4375 
Q 56.546875 1.515625 50.09375 -0.046875 
Q 43.65625 -1.609375 37.453125 -1.609375 
Q 30.8125 -1.609375 24.65625 0.875 
Q 18.5 3.375 13.921875 7.953125 
Q 9.28125 12.59375 6.546875 19.234375 
Q 3.8125 25.875 3.8125 34.078125 
Q 3.8125 42 6.421875 48.75 
Q 9.03125 55.515625 13.8125 60.5 
Q 18.453125 65.375 24.875 68.078125 
Q 31.296875 70.796875 38.625 70.796875 
Q 44.484375 70.796875 48.828125 69.375 
Q 53.171875 67.96875 56.5 65.96875 
L 58.5 69.28125 
L 62.40625 69.28125 
L 62.84375 45.0625 
L 58.84375 45.0625 
Q 57.8125 49.078125 56.296875 52.953125 
Q 54.78125 56.84375 52.390625 59.90625 
Q 50 62.984375 46.546875 64.8125 
Q 43.109375 66.65625 38.328125 66.65625 
Q 33.109375 66.65625 29 64.53125 
Q 24.90625 62.40625 21.875 58.203125 
Q 18.890625 54.15625 17.28125 48.09375 
Q 15.671875 42.046875 15.671875 34.578125 
Q 15.671875 27.984375 17.25 22.140625 
Q 18.84375 16.3125 21.875 12.0625 
Q 24.90625 7.71875 29.4375 5.21875 
Q 33.984375 2.734375 39.75 2.734375 
Q 44.046875 2.734375 47.578125 4.046875 
Q 51.125 5.375 52.59375 6.84375 
Q 52.984375 9.375 53 11.953125 
Q 53.03125 14.546875 53.03125 16.359375 
L 53.03125 20.171875 
Q 53.03125 22.21875 52.46875 23.796875 
Q 51.90625 25.390625 50.140625 26.125 
Q 48.53125 26.859375 45.765625 27.21875 
Q 43.015625 27.59375 41.453125 27.6875 
L 41.453125 31.25 
L 71.828125 31.25 
z
" id="Georgia-47"/>
     <path d="M 55.125 0.875 
L 39.453125 -0.203125 
L 38.71875 0.484375 
L 38.71875 6.59375 
L 38.421875 6.59375 
Q 37.25 5.375 35.78125 3.984375 
Q 34.328125 2.59375 32.421875 1.46875 
Q 30.21875 0.140625 28.171875 -0.53125 
Q 26.125 -1.21875 22.359375 -1.21875 
Q 15.96875 -1.21875 12.625 2.953125 
Q 9.28125 7.125 9.28125 15.09375 
L 9.28125 38.140625 
Q 9.28125 39.890625 8.609375 41.078125 
Q 7.953125 42.28125 6.6875 43.171875 
Q 5.8125 43.75 4.484375 44.015625 
Q 3.171875 44.28125 1.703125 44.390625 
L 1.703125 47.5625 
L 17.78125 48.734375 
L 18.5 48.046875 
L 18.5 14.59375 
Q 18.5 9.375 20.84375 6.734375 
Q 23.1875 4.109375 26.46875 4.109375 
Q 29.15625 4.109375 31.25 4.9375 
Q 33.34375 5.765625 34.765625 6.890625 
Q 36.078125 7.90625 37.078125 9.046875 
Q 38.09375 10.203125 38.625 11.1875 
L 38.625 38.484375 
Q 38.625 40.09375 37.9375 41.328125 
Q 37.25 42.578125 36.03125 43.453125 
Q 35.15625 44.046875 33.421875 44.15625 
Q 31.6875 44.28125 29.546875 44.390625 
L 29.546875 47.5625 
L 47.015625 48.734375 
L 47.75 48.046875 
L 47.75 9.8125 
Q 47.75 8.15625 48.4375 6.984375 
Q 49.125 5.8125 50.34375 4.984375 
Q 51.21875 4.4375 52.4375 4.265625 
Q 53.65625 4.109375 55.125 4.046875 
z
" id="Georgia-75"/>
     <path d="M 40.375 41.9375 
Q 40.375 39.453125 39.15625 37.515625 
Q 37.9375 35.59375 35.40625 35.59375 
Q 32.671875 35.59375 31.21875 37 
Q 29.78125 38.421875 29.78125 40.140625 
Q 29.78125 41.21875 29.953125 42.09375 
Q 30.125 42.96875 30.28125 43.84375 
Q 27.984375 43.84375 24.90625 41.984375 
Q 21.828125 40.140625 19.671875 36.71875 
L 19.671875 8.6875 
Q 19.671875 6.984375 20.328125 5.90625 
Q 21 4.828125 22.40625 4.296875 
Q 23.640625 3.8125 25.5625 3.5625 
Q 27.484375 3.328125 28.90625 3.21875 
L 28.90625 0 
L 3.515625 0 
L 3.515625 3.21875 
Q 4.640625 3.328125 5.828125 3.421875 
Q 7.03125 3.515625 7.90625 3.8125 
Q 9.28125 4.25 9.9375 5.34375 
Q 10.59375 6.453125 10.59375 8.203125 
L 10.59375 37.9375 
Q 10.59375 39.453125 9.890625 40.921875 
Q 9.1875 42.390625 7.90625 43.265625 
Q 6.984375 43.84375 5.703125 44.109375 
Q 4.4375 44.390625 2.984375 44.484375 
L 2.984375 47.65625 
L 19 48.734375 
L 19.671875 48.046875 
L 19.671875 41.265625 
L 19.921875 41.265625 
Q 22.953125 45.21875 26.65625 47.265625 
Q 30.375 49.3125 33.453125 49.3125 
Q 36.53125 49.3125 38.453125 47.3125 
Q 40.375 45.3125 40.375 41.9375 
z
" id="Georgia-72"/>
     <path d="M 56.6875 0 
L 33.109375 0 
L 33.109375 3.21875 
Q 34.234375 3.328125 35.578125 3.421875 
Q 36.921875 3.515625 37.796875 3.8125 
Q 39.15625 4.25 39.8125 5.34375 
Q 40.484375 6.453125 40.484375 8.203125 
L 40.484375 32.953125 
Q 40.484375 38.09375 38.0625 40.875 
Q 35.640625 43.65625 32.171875 43.65625 
Q 29.59375 43.65625 27.4375 42.84375 
Q 25.296875 42.046875 23.640625 40.875 
Q 22.015625 39.75 21.0625 38.453125 
Q 20.125 37.15625 19.671875 36.375 
L 19.671875 8.6875 
Q 19.671875 7.03125 20.359375 5.953125 
Q 21.046875 4.890625 22.40625 4.296875 
Q 23.4375 3.8125 24.625 3.5625 
Q 25.828125 3.328125 27.09375 3.21875 
L 27.09375 0 
L 3.515625 0 
L 3.515625 3.21875 
Q 4.640625 3.328125 5.828125 3.421875 
Q 7.03125 3.515625 7.90625 3.8125 
Q 9.28125 4.25 9.9375 5.34375 
Q 10.59375 6.453125 10.59375 8.203125 
L 10.59375 37.9375 
Q 10.59375 39.59375 9.890625 40.984375 
Q 9.1875 42.390625 7.90625 43.265625 
Q 6.984375 43.84375 5.703125 44.109375 
Q 4.4375 44.390625 2.984375 44.484375 
L 2.984375 47.65625 
L 19 48.734375 
L 19.671875 48.046875 
L 19.671875 41.265625 
L 19.921875 41.265625 
Q 21.09375 42.4375 22.84375 44.0625 
Q 24.609375 45.703125 26.171875 46.734375 
Q 27.984375 47.90625 30.46875 48.6875 
Q 32.953125 49.46875 36.078125 49.46875 
Q 43.015625 49.46875 46.359375 45.140625 
Q 49.703125 40.828125 49.703125 33.640625 
L 49.703125 8.59375 
Q 49.703125 6.890625 50.28125 5.828125 
Q 50.875 4.78125 52.296875 4.203125 
Q 53.46875 3.71875 54.3125 3.515625 
Q 55.171875 3.328125 56.6875 3.21875 
z
" id="Georgia-6e"/>
    </defs>
    <g transform="translate(388.4275 25.2)scale(0.18 -0.18)">
     <use xlink:href="#Georgia-47"/>
     <use x="72.509766" xlink:href="#Georgia-6f"/>
     <use x="126.416016" xlink:href="#Georgia-6f"/>
     <use x="180.322266" xlink:href="#Georgia-64"/>
     <use x="237.744141" xlink:href="#Georgia-20"/>
     <use x="261.865234" xlink:href="#Georgia-63"/>
     <use x="307.275391" xlink:href="#Georgia-6c"/>
     <use x="335.888672" xlink:href="#Georgia-75"/>
     <use x="393.408203" xlink:href="#Georgia-73"/>
     <use x="436.621094" xlink:href="#Georgia-74"/>
     <use x="471.142578" xlink:href="#Georgia-65"/>
     <use x="519.482422" xlink:href="#Georgia-72"/>
     <use x="560.449219" xlink:href="#Georgia-69"/>
     <use x="589.746094" xlink:href="#Georgia-6e"/>
     <use x="648.828125" xlink:href="#Georgia-67"/>
    </g>
   </g>
  </g>
  <g id="axes_3">
   <g id="patch_12">
    <path d="M 620.93 237.4 
L 850.68 237.4 
L 850.68 31.2 
L 620.93 31.2 
z
" style="fill:#ffffff;"/>
   </g>
   <g id="PathCollection_3">
    <defs>
     <path d="M 0 3 
C 0.795609 3 1.55874 2.683901 2.12132 2.12132 
C 2.683901 1.55874 3 0.795609 3 0 
C 3 -0.795609 2.683901 -1.55874 2.12132 -2.12132 
C 1.55874 -2.683901 0.795609 -3 0 -3 
C -0.795609 -3 -1.55874 -2.683901 -2.12132 -2.12132 
C -2.683901 -1.55874 -3 -0.795609 -3 0 
C -3 0.795609 -2.683901 1.55874 -2.12132 2.12132 
C -1.55874 2.683901 -0.795609 3 0 3 
z
" id="m3af43a4085" style="stroke:#000000;"/>
    </defs>
    <g clip-path="url(#p1122db3748)">
     <use style="fill:#ff0000;stroke:#000000;" x="720.964694" xlink:href="#m3af43a4085" y="121.956544"/>
     <use style="fill:#ff0000;stroke:#000000;" x="736.31173" xlink:href="#m3af43a4085" y="135.825693"/>
     <use style="fill:#ff0000;stroke:#000000;" x="764.066834" xlink:href="#m3af43a4085" y="133.083374"/>
     <use style="fill:#ff0000;stroke:#000000;" x="743.221595" xlink:href="#m3af43a4085" y="138.069777"/>
     <use style="fill:#ff0000;stroke:#000000;" x="713.225969" xlink:href="#m3af43a4085" y="136.764"/>
     <use style="fill:#ff0000;stroke:#000000;" x="706.705374" xlink:href="#m3af43a4085" y="137.870643"/>
     <use style="fill:#ff0000;stroke:#000000;" x="721.828766" xlink:href="#m3af43a4085" y="147.786027"/>
     <use style="fill:#ff0000;stroke:#000000;" x="715.022303" xlink:href="#m3af43a4085" y="140.337663"/>
     <use style="fill:#ff0000;stroke:#000000;" x="743.330317" xlink:href="#m3af43a4085" y="137.574824"/>
     <use style="fill:#ff0000;stroke:#000000;" x="742.987793" xlink:href="#m3af43a4085" y="148.365551"/>
     <use style="fill:#ff0000;stroke:#000000;" x="744.974725" xlink:href="#m3af43a4085" y="126.339639"/>
     <use style="fill:#ff0000;stroke:#000000;" x="740.637648" xlink:href="#m3af43a4085" y="131.023477"/>
     <use style="fill:#ff0000;stroke:#000000;" x="721.022047" xlink:href="#m3af43a4085" y="133.865198"/>
     <use style="fill:#ff0000;stroke:#000000;" x="719.586546" xlink:href="#m3af43a4085" y="127.759362"/>
     <use style="fill:#ff0000;stroke:#000000;" x="738.655683" xlink:href="#m3af43a4085" y="133.363852"/>
     <use style="fill:#ff0000;stroke:#000000;" x="753.938047" xlink:href="#m3af43a4085" y="143.260964"/>
     <use style="fill:#ff0000;stroke:#000000;" x="696.848381" xlink:href="#m3af43a4085" y="135.519637"/>
     <use style="fill:#ff0000;stroke:#000000;" x="698.632171" xlink:href="#m3af43a4085" y="143.919466"/>
     <use style="fill:#ff0000;stroke:#000000;" x="702.86628" xlink:href="#m3af43a4085" y="138.683761"/>
     <use style="fill:#ff0000;stroke:#000000;" x="756.496006" xlink:href="#m3af43a4085" y="125.421292"/>
     <use style="fill:#ff0000;stroke:#000000;" x="767.200731" xlink:href="#m3af43a4085" y="147.358005"/>
     <use style="fill:#ff0000;stroke:#000000;" x="716.173563" xlink:href="#m3af43a4085" y="136.713446"/>
     <use style="fill:#ff0000;stroke:#000000;" x="761.765996" xlink:href="#m3af43a4085" y="135.698235"/>
     <use style="fill:#ff0000;stroke:#000000;" x="698.009535" xlink:href="#m3af43a4085" y="133.213303"/>
     <use style="fill:#ff0000;stroke:#000000;" x="748.794032" xlink:href="#m3af43a4085" y="135.100001"/>
     <use style="fill:#ff0000;stroke:#000000;" x="711.276624" xlink:href="#m3af43a4085" y="162.948069"/>
     <use style="fill:#ff0000;stroke:#000000;" x="724.855572" xlink:href="#m3af43a4085" y="140.526485"/>
     <use style="fill:#ff0000;stroke:#000000;" x="761.798745" xlink:href="#m3af43a4085" y="133.579292"/>
     <use style="fill:#ff0000;stroke:#000000;" x="729.932041" xlink:href="#m3af43a4085" y="138.322549"/>
     <use style="fill:#ff0000;stroke:#000000;" x="718.833247" xlink:href="#m3af43a4085" y="142.252337"/>
    </g>
   </g>
   <g id="PathCollection_4">
    <defs>
     <path d="M 0 3 
C 0.795609 3 1.55874 2.683901 2.12132 2.12132 
C 2.683901 1.55874 3 0.795609 3 0 
C 3 -0.795609 2.683901 -1.55874 2.12132 -2.12132 
C 1.55874 -2.683901 0.795609 -3 0 -3 
C -0.795609 -3 -1.55874 -2.683901 -2.12132 -2.12132 
C -2.683901 -1.55874 -3 -0.795609 -3 0 
C -3 0.795609 -2.683901 1.55874 -2.12132 2.12132 
C -1.55874 2.683901 -0.795609 3 0 3 
z
" id="mb4d175df33" style="stroke:#000000;"/>
    </defs>
    <g clip-path="url(#p1122db3748)">
     <use style="fill:#008000;stroke:#000000;" x="670.097037" xlink:href="#mb4d175df33" y="192.061788"/>
     <use style="fill:#008000;stroke:#000000;" x="659.203382" xlink:href="#mb4d175df33" y="194.392689"/>
     <use style="fill:#008000;stroke:#000000;" x="686.548836" xlink:href="#mb4d175df33" y="150.445018"/>
     <use style="fill:#008000;stroke:#000000;" x="659.695557" xlink:href="#mb4d175df33" y="194.277702"/>
     <use style="fill:#008000;stroke:#000000;" x="674.887007" xlink:href="#mb4d175df33" y="204.01594"/>
     <use style="fill:#008000;stroke:#000000;" x="666.233591" xlink:href="#mb4d175df33" y="193.800148"/>
     <use style="fill:#008000;stroke:#000000;" x="661.664198" xlink:href="#mb4d175df33" y="202.918792"/>
     <use style="fill:#008000;stroke:#000000;" x="671.942302" xlink:href="#mb4d175df33" y="197.250723"/>
     <use style="fill:#008000;stroke:#000000;" x="689.18504" xlink:href="#mb4d175df33" y="131.193222"/>
     <use style="fill:#008000;stroke:#000000;" x="687.454419" xlink:href="#mb4d175df33" y="139.018071"/>
     <use style="fill:#008000;stroke:#000000;" x="656.817792" xlink:href="#mb4d175df33" y="131.22585"/>
     <use style="fill:#008000;stroke:#000000;" x="666.148923" xlink:href="#mb4d175df33" y="126.39867"/>
     <use style="fill:#008000;stroke:#000000;" x="676.824383" xlink:href="#mb4d175df33" y="136.004559"/>
     <use style="fill:#008000;stroke:#000000;" x="669.163129" xlink:href="#mb4d175df33" y="194.032805"/>
     <use style="fill:#008000;stroke:#000000;" x="685.214258" xlink:href="#mb4d175df33" y="125.195456"/>
     <use style="fill:#008000;stroke:#000000;" x="652.791694" xlink:href="#mb4d175df33" y="206.013013"/>
     <use style="fill:#008000;stroke:#000000;" x="672.706351" xlink:href="#mb4d175df33" y="137.868571"/>
     <use style="fill:#008000;stroke:#000000;" x="667.919818" xlink:href="#mb4d175df33" y="204.17365"/>
     <use style="fill:#008000;stroke:#000000;" x="680.555738" xlink:href="#mb4d175df33" y="146.891075"/>
     <use style="fill:#008000;stroke:#000000;" x="667.262838" xlink:href="#mb4d175df33" y="195.721266"/>
     <use style="fill:#008000;stroke:#000000;" x="660.389529" xlink:href="#mb4d175df33" y="206.685892"/>
     <use style="fill:#008000;stroke:#000000;" x="632.561268" xlink:href="#mb4d175df33" y="143.572147"/>
     <use style="fill:#008000;stroke:#000000;" x="660.870838" xlink:href="#mb4d175df33" y="180.951278"/>
     <use style="fill:#008000;stroke:#000000;" x="682.753626" xlink:href="#mb4d175df33" y="183.331435"/>
     <use style="fill:#008000;stroke:#000000;" x="674.735842" xlink:href="#mb4d175df33" y="191.184321"/>
     <use style="fill:#008000;stroke:#000000;" x="670.381055" xlink:href="#mb4d175df33" y="184.936769"/>
     <use style="fill:#008000;stroke:#000000;" x="682.915584" xlink:href="#mb4d175df33" y="137.120018"/>
     <use style="fill:#008000;stroke:#000000;" x="667.62587" xlink:href="#mb4d175df33" y="196.061165"/>
     <use style="fill:#008000;stroke:#000000;" x="662.353675" xlink:href="#mb4d175df33" y="193.94172"/>
     <use style="fill:#008000;stroke:#000000;" x="668.435911" xlink:href="#mb4d175df33" y="205.995338"/>
     <use style="fill:#008000;stroke:#000000;" x="677.712235" xlink:href="#mb4d175df33" y="222.598073"/>
     <use style="fill:#008000;stroke:#000000;" x="665.444321" xlink:href="#mb4d175df33" y="202.170115"/>
     <use style="fill:#008000;stroke:#000000;" x="690.515899" xlink:href="#mb4d175df33" y="146.252488"/>
     <use style="fill:#008000;stroke:#000000;" x="674.054247" xlink:href="#mb4d175df33" y="190.514308"/>
     <use style="fill:#008000;stroke:#000000;" x="691.4316" xlink:href="#mb4d175df33" y="145.715491"/>
     <use style="fill:#008000;stroke:#000000;" x="661.950722" xlink:href="#mb4d175df33" y="199.34344"/>
    </g>
   </g>
   <g id="PathCollection_5">
    <defs>
     <path d="M 0 3 
C 0.795609 3 1.55874 2.683901 2.12132 2.12132 
C 2.683901 1.55874 3 0.795609 3 0 
C 3 -0.795609 2.683901 -1.55874 2.12132 -2.12132 
C 1.55874 -2.683901 0.795609 -3 0 -3 
C -0.795609 -3 -1.55874 -2.683901 -2.12132 -2.12132 
C -2.683901 -1.55874 -3 -0.795609 -3 0 
C -3 0.795609 -2.683901 1.55874 -2.12132 2.12132 
C -1.55874 2.683901 -0.795609 3 0 3 
z
" id="md94c60b451" style="stroke:#000000;"/>
    </defs>
    <g clip-path="url(#p1122db3748)">
     <use style="fill:#0000ff;stroke:#000000;" x="773.403355" xlink:href="#md94c60b451" y="121.642556"/>
     <use style="fill:#0000ff;stroke:#000000;" x="833.423368" xlink:href="#md94c60b451" y="142.265568"/>
     <use style="fill:#0000ff;stroke:#000000;" x="801.363434" xlink:href="#md94c60b451" y="138.423284"/>
     <use style="fill:#0000ff;stroke:#000000;" x="774.43993" xlink:href="#md94c60b451" y="133.308255"/>
     <use style="fill:#0000ff;stroke:#000000;" x="812.562204" xlink:href="#md94c60b451" y="72.227345"/>
     <use style="fill:#0000ff;stroke:#000000;" x="782.053322" xlink:href="#md94c60b451" y="62.328284"/>
     <use style="fill:#0000ff;stroke:#000000;" x="786.949287" xlink:href="#md94c60b451" y="150.057109"/>
     <use style="fill:#0000ff;stroke:#000000;" x="812.425838" xlink:href="#md94c60b451" y="62.407111"/>
     <use style="fill:#0000ff;stroke:#000000;" x="783.193361" xlink:href="#md94c60b451" y="141.674704"/>
     <use style="fill:#0000ff;stroke:#000000;" x="804.809472" xlink:href="#md94c60b451" y="87.570674"/>
     <use style="fill:#0000ff;stroke:#000000;" x="810.185315" xlink:href="#md94c60b451" y="71.936481"/>
     <use style="fill:#0000ff;stroke:#000000;" x="782.248197" xlink:href="#md94c60b451" y="139.074908"/>
     <use style="fill:#0000ff;stroke:#000000;" x="809.588735" xlink:href="#md94c60b451" y="59.028373"/>
     <use style="fill:#0000ff;stroke:#000000;" x="836.375633" xlink:href="#md94c60b451" y="122.232663"/>
     <use style="fill:#0000ff;stroke:#000000;" x="802.709894" xlink:href="#md94c60b451" y="123.698323"/>
     <use style="fill:#0000ff;stroke:#000000;" x="826.637357" xlink:href="#md94c60b451" y="137.267588"/>
     <use style="fill:#0000ff;stroke:#000000;" x="795.495047" xlink:href="#md94c60b451" y="63.646612"/>
     <use style="fill:#0000ff;stroke:#000000;" x="804.284371" xlink:href="#md94c60b451" y="82.462144"/>
     <use style="fill:#0000ff;stroke:#000000;" x="771.944499" xlink:href="#md94c60b451" y="115.680923"/>
     <use style="fill:#0000ff;stroke:#000000;" x="800.784629" xlink:href="#md94c60b451" y="50.112918"/>
     <use style="fill:#0000ff;stroke:#000000;" x="784.481754" xlink:href="#md94c60b451" y="133.58639"/>
     <use style="fill:#0000ff;stroke:#000000;" x="806.20822" xlink:href="#md94c60b451" y="82.893654"/>
     <use style="fill:#0000ff;stroke:#000000;" x="807.758298" xlink:href="#md94c60b451" y="77.366827"/>
     <use style="fill:#0000ff;stroke:#000000;" x="801.652659" xlink:href="#md94c60b451" y="81.761094"/>
     <use style="fill:#0000ff;stroke:#000000;" x="804.256489" xlink:href="#md94c60b451" y="67.077192"/>
     <use style="fill:#0000ff;stroke:#000000;" x="793.778893" xlink:href="#md94c60b451" y="79.084485"/>
     <use style="fill:#0000ff;stroke:#000000;" x="807.226813" xlink:href="#md94c60b451" y="75.23888"/>
     <use style="fill:#0000ff;stroke:#000000;" x="801.67879" xlink:href="#md94c60b451" y="85.772095"/>
     <use style="fill:#0000ff;stroke:#000000;" x="794.210202" xlink:href="#md94c60b451" y="59.147131"/>
     <use style="fill:#0000ff;stroke:#000000;" x="836.290607" xlink:href="#md94c60b451" y="138.047566"/>
     <use style="fill:#0000ff;stroke:#000000;" x="795.829144" xlink:href="#md94c60b451" y="85.80844"/>
     <use style="fill:#0000ff;stroke:#000000;" x="801.572414" xlink:href="#md94c60b451" y="79.250096"/>
     <use style="fill:#0000ff;stroke:#000000;" x="838.133125" xlink:href="#md94c60b451" y="131.120439"/>
     <use style="fill:#0000ff;stroke:#000000;" x="785.990727" xlink:href="#md94c60b451" y="46.065234"/>
    </g>
   </g>
   <g id="matplotlib.axis_5">
    <g id="xtick_11">
     <g id="line2d_21">
      <g>
       <use style="stroke:#000000;stroke-width:0.8;" x="632.732787" xlink:href="#m1d726b3be4" y="237.4"/>
      </g>
     </g>
     <g id="text_27">
      <!-- −6 -->
      <g transform="translate(625.478412 253.47125)scale(0.12 -0.12)">
       <use xlink:href="#Georgia-2212"/>
       <use x="64.306641" xlink:href="#Georgia-36"/>
      </g>
     </g>
    </g>
    <g id="xtick_12">
     <g id="line2d_22">
      <g>
       <use style="stroke:#000000;stroke-width:0.8;" x="683.302671" xlink:href="#m1d726b3be4" y="237.4"/>
      </g>
     </g>
     <g id="text_28">
      <!-- −3 -->
      <g transform="translate(676.133609 253.47125)scale(0.12 -0.12)">
       <use xlink:href="#Georgia-2212"/>
       <use x="64.306641" xlink:href="#Georgia-33"/>
      </g>
     </g>
    </g>
    <g id="xtick_13">
     <g id="line2d_23">
      <g>
       <use style="stroke:#000000;stroke-width:0.8;" x="733.872556" xlink:href="#m1d726b3be4" y="237.4"/>
      </g>
     </g>
     <g id="text_29">
      <!-- 0 -->
      <g transform="translate(730.190056 253.47125)scale(0.12 -0.12)">
       <use xlink:href="#Georgia-30"/>
      </g>
     </g>
    </g>
    <g id="xtick_14">
     <g id="line2d_24">
      <g>
       <use style="stroke:#000000;stroke-width:0.8;" x="784.442441" xlink:href="#m1d726b3be4" y="237.4"/>
      </g>
     </g>
     <g id="text_30">
      <!-- 3 -->
      <g transform="translate(781.132129 253.47125)scale(0.12 -0.12)">
       <use xlink:href="#Georgia-33"/>
      </g>
     </g>
    </g>
    <g id="xtick_15">
     <g id="line2d_25">
      <g>
       <use style="stroke:#000000;stroke-width:0.8;" x="835.012326" xlink:href="#m1d726b3be4" y="237.4"/>
      </g>
     </g>
     <g id="text_31">
      <!-- 6 -->
      <g transform="translate(831.616701 253.47125)scale(0.12 -0.12)">
       <use xlink:href="#Georgia-36"/>
      </g>
     </g>
    </g>
    <g id="text_32">
     <!-- $x_1$ -->
     <g transform="translate(729.085 272.16875)scale(0.16 -0.16)">
      <use transform="translate(0 0.90625)" xlink:href="#STIXGeneral-Italic-78"/>
      <use transform="translate(44.399994 -12.321875)scale(0.7)" xlink:href="#STIXGeneral-Regular-31"/>
     </g>
    </g>
   </g>
   <g id="matplotlib.axis_6">
    <g id="ytick_11">
     <g id="line2d_26">
      <g>
       <use style="stroke:#000000;stroke-width:0.8;" x="620.93" xlink:href="#m085a54932b" y="237.4"/>
      </g>
     </g>
     <g id="text_33">
      <!-- −4 -->
      <g transform="translate(599.4325 241.935625)scale(0.12 -0.12)">
       <use xlink:href="#Georgia-2212"/>
       <use x="64.306641" xlink:href="#Georgia-34"/>
      </g>
     </g>
    </g>
    <g id="ytick_12">
     <g id="line2d_27">
      <g>
       <use style="stroke:#000000;stroke-width:0.8;" x="620.93" xlink:href="#m085a54932b" y="185.85"/>
      </g>
     </g>
     <g id="text_34">
      <!-- −2 -->
      <g transform="translate(599.509375 190.385625)scale(0.12 -0.12)">
       <use xlink:href="#Georgia-2212"/>
       <use x="64.306641" xlink:href="#Georgia-32"/>
      </g>
     </g>
    </g>
    <g id="ytick_13">
     <g id="line2d_28">
      <g>
       <use style="stroke:#000000;stroke-width:0.8;" x="620.93" xlink:href="#m085a54932b" y="134.3"/>
      </g>
     </g>
     <g id="text_35">
      <!-- 0 -->
      <g transform="translate(606.565 138.835625)scale(0.12 -0.12)">
       <use xlink:href="#Georgia-30"/>
      </g>
     </g>
    </g>
    <g id="ytick_14">
     <g id="line2d_29">
      <g>
       <use style="stroke:#000000;stroke-width:0.8;" x="620.93" xlink:href="#m085a54932b" y="82.75"/>
      </g>
     </g>
     <g id="text_36">
      <!-- 2 -->
      <g transform="translate(607.226875 87.285625)scale(0.12 -0.12)">
       <use xlink:href="#Georgia-32"/>
      </g>
     </g>
    </g>
    <g id="ytick_15">
     <g id="line2d_30">
      <g>
       <use style="stroke:#000000;stroke-width:0.8;" x="620.93" xlink:href="#m085a54932b" y="31.2"/>
      </g>
     </g>
     <g id="text_37">
      <!-- 4 -->
      <g transform="translate(607.15 35.735625)scale(0.12 -0.12)">
       <use xlink:href="#Georgia-34"/>
      </g>
     </g>
    </g>
    <g id="text_38">
     <!-- $x_2$ -->
     <g transform="translate(591.9625 141.02)rotate(-90)scale(0.16 -0.16)">
      <use transform="translate(0 0.90625)" xlink:href="#STIXGeneral-Italic-78"/>
      <use transform="translate(44.399994 -12.321875)scale(0.7)" xlink:href="#STIXGeneral-Regular-32"/>
     </g>
    </g>
   </g>
   <g id="PathCollection_6">
    <defs>
     <path d="M 0 -7.071068 
L -7.071068 7.071068 
L 7.071068 7.071068 
z
" id="mc5e4b491b5" style="stroke:#000000;stroke-width:2;"/>
    </defs>
    <g clip-path="url(#p1122db3748)">
     <use style="fill:#ff0000;stroke:#000000;stroke-width:2;" x="730.665433" xlink:href="#mc5e4b491b5" y="137.416749"/>
    </g>
   </g>
   <g id="PathCollection_7">
    <defs>
     <path d="M 0 -7.071068 
L -7.071068 7.071068 
L 7.071068 7.071068 
z
" id="m3ce0973365" style="stroke:#000000;stroke-width:2;"/>
    </defs>
    <g clip-path="url(#p1122db3748)">
     <use style="fill:#008000;stroke:#000000;stroke-width:2;" x="670.734681" xlink:href="#m3ce0973365" y="175.92425"/>
    </g>
   </g>
   <g id="PathCollection_8">
    <defs>
     <path d="M 0 -7.071068 
L -7.071068 7.071068 
L 7.071068 7.071068 
z
" id="m13d33a117d" style="stroke:#000000;stroke-width:2;"/>
    </defs>
    <g clip-path="url(#p1122db3748)">
     <use style="fill:#0000ff;stroke:#000000;stroke-width:2;" x="801.880747" xlink:href="#m13d33a117d" y="97.037216"/>
    </g>
   </g>
   <g id="patch_13">
    <path d="M 620.93 237.4 
L 620.93 31.2 
" style="fill:none;stroke:#000000;stroke-linecap:square;stroke-linejoin:miter;stroke-width:0.8;"/>
   </g>
   <g id="patch_14">
    <path d="M 850.68 237.4 
L 850.68 31.2 
" style="fill:none;stroke:#000000;stroke-linecap:square;stroke-linejoin:miter;stroke-width:0.8;"/>
   </g>
   <g id="patch_15">
    <path d="M 620.93 237.4 
L 850.68 237.4 
" style="fill:none;stroke:#000000;stroke-linecap:square;stroke-linejoin:miter;stroke-width:0.8;"/>
   </g>
   <g id="patch_16">
    <path d="M 620.93 31.2 
L 850.68 31.2 
" style="fill:none;stroke:#000000;stroke-linecap:square;stroke-linejoin:miter;stroke-width:0.8;"/>
   </g>
   <g id="text_39">
    <!-- k-means result -->
    <defs>
     <path d="M 54.546875 0 
L 39.984375 0 
Q 36.1875 5.515625 31.828125 11.8125 
Q 27.484375 18.109375 22.796875 24.078125 
L 18.796875 20.3125 
L 18.796875 8.890625 
Q 18.796875 7.125 19.421875 5.96875 
Q 20.0625 4.828125 21.484375 4.296875 
Q 22.65625 3.8125 23.734375 3.5625 
Q 24.8125 3.328125 26.21875 3.21875 
L 26.21875 0 
L 2.59375 0 
L 2.59375 3.21875 
Q 3.71875 3.328125 4.9375 3.4375 
Q 6.15625 3.5625 6.984375 3.8125 
Q 8.34375 4.25 9.03125 5.34375 
Q 9.71875 6.453125 9.71875 8.203125 
L 9.71875 64.15625 
Q 9.71875 65.96875 8.953125 67.546875 
Q 8.203125 69.140625 6.984375 69.96875 
Q 5.953125 70.75 3.78125 70.984375 
Q 1.609375 71.234375 0.296875 71.34375 
L 0.296875 74.46875 
L 18.109375 75.59375 
L 18.796875 74.859375 
L 18.796875 23.921875 
Q 22.609375 27.734375 27.03125 32.09375 
Q 31.453125 36.46875 34.46875 39.890625 
Q 34.859375 40.328125 35.328125 41.03125 
Q 35.796875 41.75 35.796875 42.1875 
Q 35.796875 43.5 33.671875 44.140625 
Q 31.546875 44.78125 29.59375 45.015625 
L 29.59375 48.140625 
L 50.78125 48.140625 
L 50.78125 45.125 
Q 46.6875 43.890625 43.53125 42.0625 
Q 40.375 40.234375 38.71875 38.765625 
Q 37.546875 37.796875 35.390625 35.59375 
Q 33.25 33.40625 29.390625 29.828125 
Q 33.40625 24.90625 38.40625 18.015625 
Q 43.40625 11.140625 45.703125 8.0625 
Q 47.859375 5.171875 49.5625 4.296875 
Q 51.265625 3.421875 54.546875 3.21875 
z
" id="Georgia-6b"/>
     <path d="M 33.25 22.703125 
L 4.15625 22.703125 
L 4.15625 30.375 
L 33.25 30.375 
z
" id="Georgia-2d"/>
     <path d="M 85.984375 0 
L 62.5 0 
L 62.5 3.21875 
Q 63.625 3.328125 64.765625 3.421875 
Q 65.921875 3.515625 66.796875 3.8125 
Q 68.171875 4.25 68.828125 5.34375 
Q 69.484375 6.453125 69.484375 8.203125 
L 69.484375 33.0625 
Q 69.484375 38.140625 67.15625 40.890625 
Q 64.84375 43.65625 61.375 43.65625 
Q 58.984375 43.65625 56.875 42.921875 
Q 54.78125 42.1875 53.03125 40.875 
Q 51.609375 39.796875 50.65625 38.546875 
Q 49.703125 37.3125 49.21875 36.46875 
L 49.21875 8.6875 
Q 49.21875 6.984375 49.796875 5.875 
Q 50.390625 4.78125 51.8125 4.203125 
Q 52.9375 3.765625 53.828125 3.546875 
Q 54.734375 3.328125 56.203125 3.21875 
L 56.203125 0 
L 33.203125 0 
L 33.203125 3.21875 
Q 34.328125 3.328125 35.375 3.421875 
Q 36.421875 3.515625 37.3125 3.8125 
Q 38.671875 4.25 39.328125 5.34375 
Q 39.984375 6.453125 39.984375 8.203125 
L 39.984375 33.0625 
Q 39.984375 38.140625 37.671875 40.890625 
Q 35.359375 43.65625 31.890625 43.65625 
Q 29.5 43.65625 27.390625 42.890625 
Q 25.296875 42.140625 23.53125 40.828125 
Q 22.125 39.75 21.140625 38.40625 
Q 20.171875 37.0625 19.671875 36.375 
L 19.671875 8.796875 
Q 19.671875 7.125 20.359375 6 
Q 21.046875 4.890625 22.40625 4.296875 
Q 23.4375 3.8125 24.515625 3.5625 
Q 25.59375 3.328125 26.90625 3.21875 
L 26.90625 0 
L 3.515625 0 
L 3.515625 3.21875 
Q 4.640625 3.328125 5.828125 3.421875 
Q 7.03125 3.515625 7.90625 3.8125 
Q 9.28125 4.25 9.9375 5.34375 
Q 10.59375 6.453125 10.59375 8.203125 
L 10.59375 38.140625 
Q 10.59375 39.703125 9.890625 40.9375 
Q 9.1875 42.1875 7.90625 43.0625 
Q 6.984375 43.65625 5.609375 44.015625 
Q 4.25 44.390625 2.78125 44.484375 
L 2.78125 47.65625 
L 18.890625 48.734375 
L 19.578125 48.046875 
L 19.578125 41.15625 
L 19.921875 41.15625 
Q 21.140625 42.390625 22.890625 44.046875 
Q 24.65625 45.703125 26.171875 46.734375 
Q 27.875 47.90625 30.4375 48.6875 
Q 33.015625 49.46875 35.984375 49.46875 
Q 40.671875 49.46875 44.03125 46.953125 
Q 47.40625 44.4375 48.875 40.875 
Q 50.640625 42.578125 51.984375 43.875 
Q 53.328125 45.171875 55.515625 46.625 
Q 57.375 47.90625 59.890625 48.6875 
Q 62.40625 49.46875 65.484375 49.46875 
Q 71.578125 49.46875 75.140625 45.453125 
Q 78.71875 41.453125 78.71875 33.15625 
L 78.71875 8.6875 
Q 78.71875 6.984375 79.296875 5.875 
Q 79.890625 4.78125 81.296875 4.203125 
Q 82.421875 3.765625 83.515625 3.546875 
Q 84.625 3.328125 85.984375 3.21875 
z
" id="Georgia-6d"/>
    </defs>
    <g transform="translate(676.639844 25.2)scale(0.18 -0.18)">
     <use xlink:href="#Georgia-6b"/>
     <use x="53.564453" xlink:href="#Georgia-2d"/>
     <use x="90.966797" xlink:href="#Georgia-6d"/>
     <use x="179.052734" xlink:href="#Georgia-65"/>
     <use x="227.392578" xlink:href="#Georgia-61"/>
     <use x="277.783203" xlink:href="#Georgia-6e"/>
     <use x="336.865234" xlink:href="#Georgia-73"/>
     <use x="380.078125" xlink:href="#Georgia-20"/>
     <use x="404.199219" xlink:href="#Georgia-72"/>
     <use x="445.166016" xlink:href="#Georgia-65"/>
     <use x="493.505859" xlink:href="#Georgia-73"/>
     <use x="536.71875" xlink:href="#Georgia-75"/>
     <use x="594.238281" xlink:href="#Georgia-6c"/>
     <use x="622.851562" xlink:href="#Georgia-74"/>
    </g>
   </g>
  </g>
 </g>
 <defs>
  <clipPath id="p42ecf6629a">
   <rect height="206.2" width="229.75" x="52.13" y="31.2"/>
  </clipPath>
  <clipPath id="pe41851203e">
   <rect height="206.2" width="229.75" x="336.53" y="31.2"/>
  </clipPath>
  <clipPath id="p1122db3748">
   <rect height="206.2" width="229.75" x="620.93" y="31.2"/>
  </clipPath>
 </defs>
</svg>
