<?xml version="1.0" encoding="utf-8" standalone="no"?>
<!DOCTYPE svg PUBLIC "-//W3C//DTD SVG 1.1//EN"
  "http://www.w3.org/Graphics/SVG/1.1/DTD/svg11.dtd">
<!-- Created with matplotlib (http://matplotlib.org/) -->
<svg height="648pt" version="1.1" viewBox="0 0 648 648" width="648pt" xmlns="http://www.w3.org/2000/svg" xmlns:xlink="http://www.w3.org/1999/xlink">
 <defs>
  <style type="text/css">
*{stroke-linecap:butt;stroke-linejoin:round;}
  </style>
 </defs>
 <g id="figure_1">
  <g id="patch_1">
   <path d="M 0 648 
L 648 648 
L 648 0 
L 0 0 
z
" style="fill:#ffffff;"/>
  </g>
  <g id="axes_1">
   <g id="patch_2">
    <path d="M 30.8 203.733333 
L 205.65 203.733333 
L 205.65 14.3 
L 30.8 14.3 
z
" style="fill:#ffffff;"/>
   </g>
   <g id="PathCollection_1">
    <defs>
     <path d="M -3 3 
L 3 -3 
M -3 -3 
L 3 3 
" id="mcf241e3074" style="stroke:#ff0000;stroke-width:1.5;"/>
    </defs>
    <g clip-path="url(#paeac747af7)">
     <use style="fill:#ff0000;stroke:#ff0000;stroke-width:1.5;" x="194.944898" xlink:href="#mcf241e3074" y="140.557098"/>
     <use style="fill:#ff0000;stroke:#ff0000;stroke-width:1.5;" x="80.757143" xlink:href="#mcf241e3074" y="43.532288"/>
     <use style="fill:#ff0000;stroke:#ff0000;stroke-width:1.5;" x="202.081633" xlink:href="#mcf241e3074" y="126.480888"/>
     <use style="fill:#ff0000;stroke:#ff0000;stroke-width:1.5;" x="137.85102" xlink:href="#mcf241e3074" y="156.327556"/>
     <use style="fill:#ff0000;stroke:#ff0000;stroke-width:1.5;" x="123.577551" xlink:href="#mcf241e3074" y="126.296933"/>
     <use style="fill:#ff0000;stroke:#ff0000;stroke-width:1.5;" x="45.073469" xlink:href="#mcf241e3074" y="66.415943"/>
     <use style="fill:#ff0000;stroke:#ff0000;stroke-width:1.5;" x="155.692857" xlink:href="#mcf241e3074" y="157.619204"/>
     <use style="fill:#ff0000;stroke:#ff0000;stroke-width:1.5;" x="87.893878" xlink:href="#mcf241e3074" y="53.892364"/>
     <use style="fill:#ff0000;stroke:#ff0000;stroke-width:1.5;" x="184.239796" xlink:href="#mcf241e3074" y="134.460159"/>
     <use style="fill:#ff0000;stroke:#ff0000;stroke-width:1.5;" x="62.915306" xlink:href="#mcf241e3074" y="50.974397"/>
    </g>
   </g>
   <g id="matplotlib.axis_1">
    <g id="ytick_1">
     <g id="line2d_1">
      <defs>
       <path d="M 0 0 
L -3.5 0 
" id="m6f25e1c822" style="stroke:#000000;stroke-width:0.8;"/>
      </defs>
      <g>
       <use style="stroke:#000000;stroke-width:0.8;" x="30.8" xlink:href="#m6f25e1c822" y="203.733333"/>
      </g>
     </g>
     <g id="text_1">
      <!-- −1.5 -->
      <defs>
       <path d="M 57.03125 24.265625 
L 7.28125 24.265625 
L 7.28125 30.375 
L 57.03125 30.375 
z
" id="Georgia-2212"/>
       <path d="M 39.5 0 
L 6.59375 0 
L 6.59375 3.46875 
Q 8.0625 3.5625 11.15625 3.875 
Q 14.265625 4.203125 15.4375 4.546875 
Q 16.9375 5.03125 17.75 6.125 
Q 18.5625 7.234375 18.5625 9.421875 
L 18.5625 43.703125 
L 6.390625 43.703125 
L 6.390625 47.796875 
L 9.078125 47.796875 
Q 14.359375 47.796875 18.53125 49.75 
Q 22.703125 51.703125 24.515625 53.953125 
L 28.5625 53.953125 
Q 28.421875 50.78125 28.265625 46.53125 
Q 28.125 42.28125 28.125 38.921875 
L 28.125 9.96875 
Q 28.125 8.25 28.875 6.90625 
Q 29.640625 5.5625 31.0625 4.9375 
Q 32.328125 4.390625 35.203125 3.953125 
Q 38.09375 3.515625 39.5 3.46875 
z
" id="Georgia-31"/>
       <path d="M 20.265625 5.609375 
Q 20.265625 2.875 18.28125 0.9375 
Q 16.3125 -0.984375 13.578125 -0.984375 
Q 10.84375 -0.984375 8.859375 0.9375 
Q 6.890625 2.875 6.890625 5.609375 
Q 6.890625 8.34375 8.859375 10.328125 
Q 10.84375 12.3125 13.578125 12.3125 
Q 16.3125 12.3125 18.28125 10.328125 
Q 20.265625 8.34375 20.265625 5.609375 
z
" id="Georgia-2e"/>
       <path d="M 41.15625 22.90625 
Q 44.390625 20.359375 46.515625 16.359375 
Q 48.640625 12.359375 48.640625 6.34375 
Q 48.640625 -4.15625 41.453125 -10.984375 
Q 34.28125 -17.828125 23.25 -17.828125 
Q 14.703125 -17.828125 8.78125 -13.765625 
Q 2.875 -9.71875 2.875 -4.34375 
Q 2.875 -1.859375 4.09375 0 
Q 5.328125 1.859375 7.859375 1.859375 
Q 10.796875 1.859375 12.328125 0.3125 
Q 13.875 -1.21875 13.875 -3.03125 
Q 13.875 -4.59375 13.328125 -6.9375 
Q 12.796875 -9.28125 12.5 -10.40625 
Q 12.890625 -10.75 13.765625 -11.328125 
Q 14.65625 -11.921875 15.875 -12.453125 
Q 17.140625 -12.984375 18.96875 -13.390625 
Q 20.796875 -13.8125 23.25 -13.8125 
Q 26.375 -13.8125 29.15625 -12.546875 
Q 31.9375 -11.28125 33.84375 -8.796875 
Q 35.9375 -6.0625 36.984375 -2.5625 
Q 38.03125 0.921875 38.03125 6.296875 
Q 38.03125 13.1875 34.203125 17.703125 
Q 30.375 22.21875 24.125 22.21875 
Q 20.21875 22.21875 16.8125 20.75 
Q 13.421875 19.28125 10.75 15.875 
L 7.46875 17.140625 
L 11.625 52.390625 
L 46.578125 52.390625 
L 46.578125 43.703125 
L 15.578125 43.703125 
L 13.03125 23 
Q 15.234375 24.5625 18.8125 26.09375 
Q 22.40625 27.640625 26.703125 27.640625 
Q 30.28125 27.640625 34.109375 26.53125 
Q 37.9375 25.4375 41.15625 22.90625 
z
" id="Georgia-35"/>
      </defs>
      <g transform="translate(1.3525 208.268958)scale(0.12 -0.12)">
       <use xlink:href="#Georgia-2212"/>
       <use x="64.306641" xlink:href="#Georgia-31"/>
       <use x="107.275391" xlink:href="#Georgia-2e"/>
       <use x="134.228516" xlink:href="#Georgia-35"/>
      </g>
     </g>
    </g>
    <g id="ytick_2">
     <g id="line2d_2">
      <g>
       <use style="stroke:#000000;stroke-width:0.8;" x="30.8" xlink:href="#m6f25e1c822" y="172.161111"/>
      </g>
     </g>
     <g id="text_2">
      <!-- −1.0 -->
      <defs>
       <path d="M 50.140625 45.609375 
Q 53.265625 41.84375 54.796875 36.78125 
Q 56.34375 31.734375 56.34375 26.21875 
Q 56.34375 19.578125 54.4375 14.328125 
Q 52.546875 9.078125 49.21875 5.609375 
Q 45.796875 2.046875 41.109375 0.234375 
Q 36.421875 -1.5625 30.671875 -1.5625 
Q 24.359375 -1.5625 19.421875 0.53125 
Q 14.5 2.640625 11.421875 6.296875 
Q 8.203125 10.109375 6.609375 15.203125 
Q 5.03125 20.3125 5.03125 26.21875 
Q 5.03125 32.03125 6.5625 36.90625 
Q 8.109375 41.796875 11.375 45.75 
Q 14.5 49.5625 19.421875 51.75 
Q 24.359375 53.953125 30.71875 53.953125 
Q 37.40625 53.953125 42.1875 51.703125 
Q 46.96875 49.46875 50.140625 45.609375 
z
M 45.5625 26.21875 
Q 45.5625 37.84375 41.578125 44.234375 
Q 37.59375 50.640625 30.765625 50.640625 
Q 23.828125 50.640625 19.828125 44.234375 
Q 15.828125 37.84375 15.828125 26.21875 
Q 15.828125 15.1875 19.65625 8.46875 
Q 23.484375 1.765625 30.671875 1.765625 
Q 37.84375 1.765625 41.703125 8.46875 
Q 45.5625 15.1875 45.5625 26.21875 
z
" id="Georgia-30"/>
      </defs>
      <g transform="translate(0.326875 176.696736)scale(0.12 -0.12)">
       <use xlink:href="#Georgia-2212"/>
       <use x="64.306641" xlink:href="#Georgia-31"/>
       <use x="107.275391" xlink:href="#Georgia-2e"/>
       <use x="134.228516" xlink:href="#Georgia-30"/>
      </g>
     </g>
    </g>
    <g id="ytick_3">
     <g id="line2d_3">
      <g>
       <use style="stroke:#000000;stroke-width:0.8;" x="30.8" xlink:href="#m6f25e1c822" y="140.588889"/>
      </g>
     </g>
     <g id="text_3">
      <!-- −0.5 -->
      <g transform="translate(-0.85625 145.124514)scale(0.12 -0.12)">
       <use xlink:href="#Georgia-2212"/>
       <use x="64.306641" xlink:href="#Georgia-30"/>
       <use x="125.683594" xlink:href="#Georgia-2e"/>
       <use x="152.636719" xlink:href="#Georgia-35"/>
      </g>
     </g>
    </g>
    <g id="ytick_4">
     <g id="line2d_4">
      <g>
       <use style="stroke:#000000;stroke-width:0.8;" x="30.8" xlink:href="#m6f25e1c822" y="109.016667"/>
      </g>
     </g>
     <g id="text_4">
      <!-- 0.0 -->
      <g transform="translate(5.835625 113.552292)scale(0.12 -0.12)">
       <use xlink:href="#Georgia-30"/>
       <use x="61.376953" xlink:href="#Georgia-2e"/>
       <use x="88.330078" xlink:href="#Georgia-30"/>
      </g>
     </g>
    </g>
    <g id="ytick_5">
     <g id="line2d_5">
      <g>
       <use style="stroke:#000000;stroke-width:0.8;" x="30.8" xlink:href="#m6f25e1c822" y="77.444444"/>
      </g>
     </g>
     <g id="text_5">
      <!-- 0.5 -->
      <g transform="translate(6.86125 81.980069)scale(0.12 -0.12)">
       <use xlink:href="#Georgia-30"/>
       <use x="61.376953" xlink:href="#Georgia-2e"/>
       <use x="88.330078" xlink:href="#Georgia-35"/>
      </g>
     </g>
    </g>
    <g id="ytick_6">
     <g id="line2d_6">
      <g>
       <use style="stroke:#000000;stroke-width:0.8;" x="30.8" xlink:href="#m6f25e1c822" y="45.872222"/>
      </g>
     </g>
     <g id="text_6">
      <!-- 1.0 -->
      <g transform="translate(8.044375 50.407847)scale(0.12 -0.12)">
       <use xlink:href="#Georgia-31"/>
       <use x="42.96875" xlink:href="#Georgia-2e"/>
       <use x="69.921875" xlink:href="#Georgia-30"/>
      </g>
     </g>
    </g>
    <g id="ytick_7">
     <g id="line2d_7">
      <g>
       <use style="stroke:#000000;stroke-width:0.8;" x="30.8" xlink:href="#m6f25e1c822" y="14.3"/>
      </g>
     </g>
     <g id="text_7">
      <!-- 1.5 -->
      <g transform="translate(9.07 18.835625)scale(0.12 -0.12)">
       <use xlink:href="#Georgia-31"/>
       <use x="42.96875" xlink:href="#Georgia-2e"/>
       <use x="69.921875" xlink:href="#Georgia-35"/>
      </g>
     </g>
    </g>
   </g>
   <g id="line2d_8">
    <path clip-path="url(#paeac747af7)" d="M 30.8 41.659853 
L 32.566162 42.828662 
L 34.332323 43.997472 
L 36.098485 45.166281 
L 37.864646 46.335091 
L 39.630808 47.5039 
L 41.39697 48.67271 
L 43.163131 49.841519 
L 44.929293 51.010329 
L 46.695455 52.179138 
L 48.461616 53.347948 
L 50.227778 54.516757 
L 51.993939 55.685567 
L 53.760101 56.854376 
L 55.526263 58.023186 
L 57.292424 59.191995 
L 59.058586 60.360805 
L 60.824747 61.529614 
L 62.590909 62.698424 
L 64.357071 63.867233 
L 66.123232 65.036042 
L 67.889394 66.204852 
L 69.655556 67.373661 
L 71.421717 68.542471 
L 73.187879 69.71128 
L 74.95404 70.88009 
L 76.720202 72.048899 
L 78.486364 73.217709 
L 80.252525 74.386518 
L 82.018687 75.555328 
L 83.784848 76.724137 
L 85.55101 77.892947 
L 87.317172 79.061756 
L 89.083333 80.230566 
L 90.849495 81.399375 
L 92.615657 82.568185 
L 94.381818 83.736994 
L 96.14798 84.905804 
L 97.914141 86.074613 
L 99.680303 87.243423 
L 101.446465 88.412232 
L 103.212626 89.581042 
L 104.978788 90.749851 
L 106.744949 91.918661 
L 108.511111 93.08747 
L 110.277273 94.25628 
L 112.043434 95.425089 
L 113.809596 96.593899 
L 115.575758 97.762708 
L 117.341919 98.931518 
L 119.108081 100.100327 
L 120.874242 101.269137 
L 122.640404 102.437946 
L 124.406566 103.606756 
L 126.172727 104.775565 
L 127.938889 105.944375 
L 129.705051 107.113184 
L 131.471212 108.281994 
L 133.237374 109.450803 
L 135.003535 110.619613 
L 136.769697 111.788422 
L 138.535859 112.957232 
L 140.30202 114.126041 
L 142.068182 115.294851 
L 143.834343 116.46366 
L 145.600505 117.63247 
L 147.366667 118.801279 
L 149.132828 119.970089 
L 150.89899 121.138898 
L 152.665152 122.307708 
L 154.431313 123.476517 
L 156.197475 124.645327 
L 157.963636 125.814136 
L 159.729798 126.982946 
L 161.49596 128.151755 
L 163.262121 129.320565 
L 165.028283 130.489374 
L 166.794444 131.658184 
L 168.560606 132.826993 
L 170.326768 133.995803 
L 172.092929 135.164612 
L 173.859091 136.333422 
L 175.625253 137.502231 
L 177.391414 138.671041 
L 179.157576 139.83985 
L 180.923737 141.008659 
L 182.689899 142.177469 
L 184.456061 143.346278 
L 186.222222 144.515088 
L 187.988384 145.683897 
L 189.754545 146.852707 
L 191.520707 148.021516 
L 193.286869 149.190326 
L 195.05303 150.359135 
L 196.819192 151.527945 
L 198.585354 152.696754 
L 200.351515 153.865564 
L 202.117677 155.034373 
L 203.883838 156.203183 
L 205.65 157.371992 
" style="fill:none;stroke:#000000;stroke-linecap:square;stroke-width:1.5;"/>
   </g>
   <g id="patch_3">
    <path d="M 30.8 203.733333 
L 30.8 14.3 
" style="fill:none;stroke:#000000;stroke-linecap:square;stroke-linejoin:miter;stroke-width:0.8;"/>
   </g>
   <g id="patch_4">
    <path d="M 205.65 203.733333 
L 205.65 14.3 
" style="fill:none;stroke:#000000;stroke-linecap:square;stroke-linejoin:miter;stroke-width:0.8;"/>
   </g>
   <g id="patch_5">
    <path d="M 30.8 203.733333 
L 205.65 203.733333 
" style="fill:none;stroke:#000000;stroke-linecap:square;stroke-linejoin:miter;stroke-width:0.8;"/>
   </g>
   <g id="patch_6">
    <path d="M 30.8 14.3 
L 205.65 14.3 
" style="fill:none;stroke:#000000;stroke-linecap:square;stroke-linejoin:miter;stroke-width:0.8;"/>
   </g>
  </g>
  <g id="axes_2">
   <g id="patch_7">
    <path d="M 240.7625 203.733333 
L 415.6125 203.733333 
L 415.6125 14.3 
L 240.7625 14.3 
z
" style="fill:#ffffff;"/>
   </g>
   <g id="PathCollection_2">
    <g clip-path="url(#p326d352c0d)">
     <use style="fill:#ff0000;stroke:#ff0000;stroke-width:1.5;" x="404.907398" xlink:href="#mcf241e3074" y="140.557098"/>
     <use style="fill:#ff0000;stroke:#ff0000;stroke-width:1.5;" x="290.719643" xlink:href="#mcf241e3074" y="43.532288"/>
     <use style="fill:#ff0000;stroke:#ff0000;stroke-width:1.5;" x="412.044133" xlink:href="#mcf241e3074" y="126.480888"/>
     <use style="fill:#ff0000;stroke:#ff0000;stroke-width:1.5;" x="347.81352" xlink:href="#mcf241e3074" y="156.327556"/>
     <use style="fill:#ff0000;stroke:#ff0000;stroke-width:1.5;" x="333.540051" xlink:href="#mcf241e3074" y="126.296933"/>
     <use style="fill:#ff0000;stroke:#ff0000;stroke-width:1.5;" x="255.035969" xlink:href="#mcf241e3074" y="66.415943"/>
     <use style="fill:#ff0000;stroke:#ff0000;stroke-width:1.5;" x="365.655357" xlink:href="#mcf241e3074" y="157.619204"/>
     <use style="fill:#ff0000;stroke:#ff0000;stroke-width:1.5;" x="297.856378" xlink:href="#mcf241e3074" y="53.892364"/>
     <use style="fill:#ff0000;stroke:#ff0000;stroke-width:1.5;" x="394.202296" xlink:href="#mcf241e3074" y="134.460159"/>
     <use style="fill:#ff0000;stroke:#ff0000;stroke-width:1.5;" x="272.877806" xlink:href="#mcf241e3074" y="50.974397"/>
    </g>
   </g>
   <g id="line2d_9">
    <path clip-path="url(#p326d352c0d)" d="M 240.7625 9.664475 
L 242.528662 12.549784 
L 244.294823 15.403072 
L 246.060985 18.22434 
L 247.827146 21.013588 
L 249.593308 23.770815 
L 251.35947 26.496021 
L 253.125631 29.189206 
L 254.891793 31.850371 
L 256.657955 34.479516 
L 258.424116 37.07664 
L 260.190278 39.641743 
L 261.956439 42.174825 
L 263.722601 44.675887 
L 265.488763 47.144929 
L 267.254924 49.58195 
L 269.021086 51.98695 
L 270.787247 54.359929 
L 272.553409 56.700888 
L 274.319571 59.009827 
L 276.085732 61.286744 
L 277.851894 63.531642 
L 279.618056 65.744518 
L 281.384217 67.925374 
L 283.150379 70.074209 
L 284.91654 72.191024 
L 286.682702 74.275818 
L 288.448864 76.328592 
L 290.215025 78.349345 
L 291.981187 80.338077 
L 293.747348 82.294789 
L 295.51351 84.21948 
L 297.279672 86.112151 
L 299.045833 87.972801 
L 300.811995 89.80143 
L 302.578157 91.598039 
L 304.344318 93.362627 
L 306.11048 95.095194 
L 307.876641 96.795741 
L 309.642803 98.464267 
L 311.408965 100.100773 
L 313.175126 101.705258 
L 314.941288 103.277723 
L 316.707449 104.818167 
L 318.473611 106.32659 
L 320.239773 107.802993 
L 322.005934 109.247375 
L 323.772096 110.659736 
L 325.538258 112.040077 
L 327.304419 113.388398 
L 329.070581 114.704697 
L 330.836742 115.988976 
L 332.602904 117.241235 
L 334.369066 118.461473 
L 336.135227 119.64969 
L 337.901389 120.805887 
L 339.667551 121.930063 
L 341.433712 123.022218 
L 343.199874 124.082353 
L 344.966035 125.110467 
L 346.732197 126.106561 
L 348.498359 127.070634 
L 350.26452 128.002687 
L 352.030682 128.902718 
L 353.796843 129.77073 
L 355.563005 130.60672 
L 357.329167 131.41069 
L 359.095328 132.18264 
L 360.86149 132.922569 
L 362.627652 133.630477 
L 364.393813 134.306364 
L 366.159975 134.950232 
L 367.926136 135.562078 
L 369.692298 136.141904 
L 371.45846 136.689709 
L 373.224621 137.205494 
L 374.990783 137.689258 
L 376.756944 138.141001 
L 378.523106 138.560724 
L 380.289268 138.948426 
L 382.055429 139.304108 
L 383.821591 139.627769 
L 385.587753 139.919409 
L 387.353914 140.179029 
L 389.120076 140.406628 
L 390.886237 140.602207 
L 392.652399 140.765765 
L 394.418561 140.897302 
L 396.184722 140.996819 
L 397.950884 141.064315 
L 399.717045 141.099791 
L 401.483207 141.103246 
L 403.249369 141.07468 
L 405.01553 141.014094 
L 406.781692 140.921487 
L 408.547854 140.79686 
L 410.314015 140.640212 
L 412.080177 140.451543 
L 413.846338 140.230854 
L 415.6125 139.978144 
" style="fill:none;stroke:#000000;stroke-linecap:square;stroke-width:1.5;"/>
   </g>
   <g id="patch_8">
    <path d="M 240.7625 203.733333 
L 240.7625 14.3 
" style="fill:none;stroke:#000000;stroke-linecap:square;stroke-linejoin:miter;stroke-width:0.8;"/>
   </g>
   <g id="patch_9">
    <path d="M 415.6125 203.733333 
L 415.6125 14.3 
" style="fill:none;stroke:#000000;stroke-linecap:square;stroke-linejoin:miter;stroke-width:0.8;"/>
   </g>
   <g id="patch_10">
    <path d="M 240.7625 203.733333 
L 415.6125 203.733333 
" style="fill:none;stroke:#000000;stroke-linecap:square;stroke-linejoin:miter;stroke-width:0.8;"/>
   </g>
   <g id="patch_11">
    <path d="M 240.7625 14.3 
L 415.6125 14.3 
" style="fill:none;stroke:#000000;stroke-linecap:square;stroke-linejoin:miter;stroke-width:0.8;"/>
   </g>
  </g>
  <g id="axes_3">
   <g id="patch_12">
    <path d="M 450.725 203.733333 
L 625.575 203.733333 
L 625.575 14.3 
L 450.725 14.3 
z
" style="fill:#ffffff;"/>
   </g>
   <g id="PathCollection_3">
    <g clip-path="url(#p5db62831b7)">
     <use style="fill:#ff0000;stroke:#ff0000;stroke-width:1.5;" x="614.869898" xlink:href="#mcf241e3074" y="140.557098"/>
     <use style="fill:#ff0000;stroke:#ff0000;stroke-width:1.5;" x="500.682143" xlink:href="#mcf241e3074" y="43.532288"/>
     <use style="fill:#ff0000;stroke:#ff0000;stroke-width:1.5;" x="622.006633" xlink:href="#mcf241e3074" y="126.480888"/>
     <use style="fill:#ff0000;stroke:#ff0000;stroke-width:1.5;" x="557.77602" xlink:href="#mcf241e3074" y="156.327556"/>
     <use style="fill:#ff0000;stroke:#ff0000;stroke-width:1.5;" x="543.502551" xlink:href="#mcf241e3074" y="126.296933"/>
     <use style="fill:#ff0000;stroke:#ff0000;stroke-width:1.5;" x="464.998469" xlink:href="#mcf241e3074" y="66.415943"/>
     <use style="fill:#ff0000;stroke:#ff0000;stroke-width:1.5;" x="575.617857" xlink:href="#mcf241e3074" y="157.619204"/>
     <use style="fill:#ff0000;stroke:#ff0000;stroke-width:1.5;" x="507.818878" xlink:href="#mcf241e3074" y="53.892364"/>
     <use style="fill:#ff0000;stroke:#ff0000;stroke-width:1.5;" x="604.164796" xlink:href="#mcf241e3074" y="134.460159"/>
     <use style="fill:#ff0000;stroke:#ff0000;stroke-width:1.5;" x="482.840306" xlink:href="#mcf241e3074" y="50.974397"/>
    </g>
   </g>
   <g id="line2d_10">
    <path clip-path="url(#p5db62831b7)" d="M 450.725 98.289582 
L 452.491162 92.778067 
L 454.257323 87.620001 
L 456.023485 82.807977 
L 457.789646 78.334586 
L 459.555808 74.19242 
L 461.32197 70.374072 
L 463.088131 66.872134 
L 464.854293 63.679197 
L 466.620455 60.787854 
L 468.386616 58.190698 
L 470.152778 55.880319 
L 471.918939 53.84931 
L 473.685101 52.090263 
L 475.451263 50.595771 
L 477.217424 49.358424 
L 478.983586 48.370816 
L 480.749747 47.625539 
L 482.515909 47.115184 
L 484.282071 46.832344 
L 486.048232 46.76961 
L 487.814394 46.919575 
L 489.580556 47.274831 
L 491.346717 47.82797 
L 493.112879 48.571584 
L 494.87904 49.498265 
L 496.645202 50.600605 
L 498.411364 51.871196 
L 500.177525 53.302631 
L 501.943687 54.887501 
L 503.709848 56.618398 
L 505.47601 58.487915 
L 507.242172 60.488644 
L 509.008333 62.613176 
L 510.774495 64.854104 
L 512.540657 67.20402 
L 514.306818 69.655516 
L 516.07298 72.201184 
L 517.839141 74.833616 
L 519.605303 77.545404 
L 521.371465 80.329141 
L 523.137626 83.177418 
L 524.903788 86.082827 
L 526.669949 89.03796 
L 528.436111 92.035411 
L 530.202273 95.06777 
L 531.968434 98.127629 
L 533.734596 101.207582 
L 535.500758 104.300219 
L 537.266919 107.398133 
L 539.033081 110.493916 
L 540.799242 113.580161 
L 542.565404 116.649459 
L 544.331566 119.694401 
L 546.097727 122.707582 
L 547.863889 125.681591 
L 549.630051 128.609023 
L 551.396212 131.482467 
L 553.162374 134.294518 
L 554.928535 137.037766 
L 556.694697 139.704804 
L 558.460859 142.288224 
L 560.22702 144.780618 
L 561.993182 147.174578 
L 563.759343 149.462696 
L 565.525505 151.637564 
L 567.291667 153.691775 
L 569.057828 155.61792 
L 570.82399 157.408591 
L 572.590152 159.056381 
L 574.356313 160.553882 
L 576.122475 161.893685 
L 577.888636 163.068384 
L 579.654798 164.070569 
L 581.42096 164.892832 
L 583.187121 165.527767 
L 584.953283 165.967965 
L 586.719444 166.206018 
L 588.485606 166.234519 
L 590.251768 166.046059 
L 592.017929 165.63323 
L 593.784091 164.988624 
L 595.550253 164.104834 
L 597.316414 162.974452 
L 599.082576 161.59007 
L 600.848737 159.944279 
L 602.614899 158.029672 
L 604.381061 155.838841 
L 606.147222 153.364378 
L 607.913384 150.598876 
L 609.679545 147.534925 
L 611.445707 144.165119 
L 613.211869 140.482049 
L 614.97803 136.478308 
L 616.744192 132.146487 
L 618.510354 127.479178 
L 620.276515 122.468975 
L 622.042677 117.108468 
L 623.808838 111.390249 
L 625.575 105.306912 
" style="fill:none;stroke:#000000;stroke-linecap:square;stroke-width:1.5;"/>
   </g>
   <g id="patch_13">
    <path d="M 450.725 203.733333 
L 450.725 14.3 
" style="fill:none;stroke:#000000;stroke-linecap:square;stroke-linejoin:miter;stroke-width:0.8;"/>
   </g>
   <g id="patch_14">
    <path d="M 625.575 203.733333 
L 625.575 14.3 
" style="fill:none;stroke:#000000;stroke-linecap:square;stroke-linejoin:miter;stroke-width:0.8;"/>
   </g>
   <g id="patch_15">
    <path d="M 450.725 203.733333 
L 625.575 203.733333 
" style="fill:none;stroke:#000000;stroke-linecap:square;stroke-linejoin:miter;stroke-width:0.8;"/>
   </g>
   <g id="patch_16">
    <path d="M 450.725 14.3 
L 625.575 14.3 
" style="fill:none;stroke:#000000;stroke-linecap:square;stroke-linejoin:miter;stroke-width:0.8;"/>
   </g>
  </g>
  <g id="axes_4">
   <g id="patch_17">
    <path d="M 30.8 410.966667 
L 205.65 410.966667 
L 205.65 221.533333 
L 30.8 221.533333 
z
" style="fill:#ffffff;"/>
   </g>
   <g id="PathCollection_4">
    <g clip-path="url(#p3003531fce)">
     <use style="fill:#ff0000;stroke:#ff0000;stroke-width:1.5;" x="194.944898" xlink:href="#mcf241e3074" y="347.790431"/>
     <use style="fill:#ff0000;stroke:#ff0000;stroke-width:1.5;" x="80.757143" xlink:href="#mcf241e3074" y="250.765621"/>
     <use style="fill:#ff0000;stroke:#ff0000;stroke-width:1.5;" x="202.081633" xlink:href="#mcf241e3074" y="333.714221"/>
     <use style="fill:#ff0000;stroke:#ff0000;stroke-width:1.5;" x="137.85102" xlink:href="#mcf241e3074" y="363.560889"/>
     <use style="fill:#ff0000;stroke:#ff0000;stroke-width:1.5;" x="123.577551" xlink:href="#mcf241e3074" y="333.530266"/>
     <use style="fill:#ff0000;stroke:#ff0000;stroke-width:1.5;" x="45.073469" xlink:href="#mcf241e3074" y="273.649277"/>
     <use style="fill:#ff0000;stroke:#ff0000;stroke-width:1.5;" x="155.692857" xlink:href="#mcf241e3074" y="364.852538"/>
     <use style="fill:#ff0000;stroke:#ff0000;stroke-width:1.5;" x="87.893878" xlink:href="#mcf241e3074" y="261.125697"/>
     <use style="fill:#ff0000;stroke:#ff0000;stroke-width:1.5;" x="184.239796" xlink:href="#mcf241e3074" y="341.693492"/>
     <use style="fill:#ff0000;stroke:#ff0000;stroke-width:1.5;" x="62.915306" xlink:href="#mcf241e3074" y="258.20773"/>
    </g>
   </g>
   <g id="matplotlib.axis_2">
    <g id="ytick_8">
     <g id="line2d_11">
      <g>
       <use style="stroke:#000000;stroke-width:0.8;" x="30.8" xlink:href="#m6f25e1c822" y="410.966667"/>
      </g>
     </g>
     <g id="text_8">
      <!-- −1.5 -->
      <g transform="translate(1.3525 415.502292)scale(0.12 -0.12)">
       <use xlink:href="#Georgia-2212"/>
       <use x="64.306641" xlink:href="#Georgia-31"/>
       <use x="107.275391" xlink:href="#Georgia-2e"/>
       <use x="134.228516" xlink:href="#Georgia-35"/>
      </g>
     </g>
    </g>
    <g id="ytick_9">
     <g id="line2d_12">
      <g>
       <use style="stroke:#000000;stroke-width:0.8;" x="30.8" xlink:href="#m6f25e1c822" y="379.394444"/>
      </g>
     </g>
     <g id="text_9">
      <!-- −1.0 -->
      <g transform="translate(0.326875 383.930069)scale(0.12 -0.12)">
       <use xlink:href="#Georgia-2212"/>
       <use x="64.306641" xlink:href="#Georgia-31"/>
       <use x="107.275391" xlink:href="#Georgia-2e"/>
       <use x="134.228516" xlink:href="#Georgia-30"/>
      </g>
     </g>
    </g>
    <g id="ytick_10">
     <g id="line2d_13">
      <g>
       <use style="stroke:#000000;stroke-width:0.8;" x="30.8" xlink:href="#m6f25e1c822" y="347.822222"/>
      </g>
     </g>
     <g id="text_10">
      <!-- −0.5 -->
      <g transform="translate(-0.85625 352.357847)scale(0.12 -0.12)">
       <use xlink:href="#Georgia-2212"/>
       <use x="64.306641" xlink:href="#Georgia-30"/>
       <use x="125.683594" xlink:href="#Georgia-2e"/>
       <use x="152.636719" xlink:href="#Georgia-35"/>
      </g>
     </g>
    </g>
    <g id="ytick_11">
     <g id="line2d_14">
      <g>
       <use style="stroke:#000000;stroke-width:0.8;" x="30.8" xlink:href="#m6f25e1c822" y="316.25"/>
      </g>
     </g>
     <g id="text_11">
      <!-- 0.0 -->
      <g transform="translate(5.835625 320.785625)scale(0.12 -0.12)">
       <use xlink:href="#Georgia-30"/>
       <use x="61.376953" xlink:href="#Georgia-2e"/>
       <use x="88.330078" xlink:href="#Georgia-30"/>
      </g>
     </g>
    </g>
    <g id="ytick_12">
     <g id="line2d_15">
      <g>
       <use style="stroke:#000000;stroke-width:0.8;" x="30.8" xlink:href="#m6f25e1c822" y="284.677778"/>
      </g>
     </g>
     <g id="text_12">
      <!-- 0.5 -->
      <g transform="translate(6.86125 289.213403)scale(0.12 -0.12)">
       <use xlink:href="#Georgia-30"/>
       <use x="61.376953" xlink:href="#Georgia-2e"/>
       <use x="88.330078" xlink:href="#Georgia-35"/>
      </g>
     </g>
    </g>
    <g id="ytick_13">
     <g id="line2d_16">
      <g>
       <use style="stroke:#000000;stroke-width:0.8;" x="30.8" xlink:href="#m6f25e1c822" y="253.105556"/>
      </g>
     </g>
     <g id="text_13">
      <!-- 1.0 -->
      <g transform="translate(8.044375 257.641181)scale(0.12 -0.12)">
       <use xlink:href="#Georgia-31"/>
       <use x="42.96875" xlink:href="#Georgia-2e"/>
       <use x="69.921875" xlink:href="#Georgia-30"/>
      </g>
     </g>
    </g>
    <g id="ytick_14">
     <g id="line2d_17">
      <g>
       <use style="stroke:#000000;stroke-width:0.8;" x="30.8" xlink:href="#m6f25e1c822" y="221.533333"/>
      </g>
     </g>
     <g id="text_14">
      <!-- 1.5 -->
      <g transform="translate(9.07 226.068958)scale(0.12 -0.12)">
       <use xlink:href="#Georgia-31"/>
       <use x="42.96875" xlink:href="#Georgia-2e"/>
       <use x="69.921875" xlink:href="#Georgia-35"/>
      </g>
     </g>
    </g>
   </g>
   <g id="line2d_18">
    <path clip-path="url(#p3003531fce)" d="M 30.8 329.685252 
L 32.566162 320.632079 
L 34.332323 312.2281 
L 36.098485 304.452273 
L 37.864646 297.28383 
L 39.630808 290.702282 
L 41.39697 284.687416 
L 43.163131 279.219293 
L 44.929293 274.278256 
L 46.695455 269.844919 
L 48.461616 265.900178 
L 50.227778 262.425202 
L 51.993939 259.401438 
L 53.760101 256.81061 
L 55.526263 254.634718 
L 57.292424 252.856039 
L 59.058586 251.457127 
L 60.824747 250.420813 
L 62.590909 249.730203 
L 64.357071 249.368682 
L 66.123232 249.31991 
L 67.889394 249.567825 
L 69.655556 250.09664 
L 71.421717 250.890847 
L 73.187879 251.935213 
L 74.95404 253.214782 
L 76.720202 254.714875 
L 78.486364 256.421089 
L 80.252525 258.3193 
L 82.018687 260.395658 
L 83.784848 262.636591 
L 85.55101 265.028803 
L 87.317172 267.559275 
L 89.083333 270.215266 
L 90.849495 272.98431 
L 92.615657 275.854218 
L 94.381818 278.813079 
L 96.14798 281.849257 
L 97.914141 284.951394 
L 99.680303 288.108407 
L 101.446465 291.309492 
L 103.212626 294.544121 
L 104.978788 297.802041 
L 106.744949 301.073278 
L 108.511111 304.348134 
L 110.277273 307.617186 
L 112.043434 310.871291 
L 113.809596 314.101579 
L 115.575758 317.29946 
L 117.341919 320.456619 
L 119.108081 323.565018 
L 120.874242 326.616895 
L 122.640404 329.604767 
L 124.406566 332.521425 
L 126.172727 335.359938 
L 127.938889 338.113652 
L 129.705051 340.776189 
L 131.471212 343.341448 
L 133.237374 345.803604 
L 135.003535 348.157111 
L 136.769697 350.396698 
L 138.535859 352.51737 
L 140.30202 354.514409 
L 142.068182 356.383376 
L 143.834343 358.120106 
L 145.600505 359.720712 
L 147.366667 361.181583 
L 149.132828 362.499385 
L 150.89899 363.671062 
L 152.665152 364.693833 
L 154.431313 365.565194 
L 156.197475 366.282918 
L 157.963636 366.845055 
L 159.729798 367.249932 
L 161.49596 367.496151 
L 163.262121 367.582592 
L 165.028283 367.508412 
L 166.794444 367.273044 
L 168.560606 366.876198 
L 170.326768 366.317861 
L 172.092929 365.598297 
L 173.859091 364.718044 
L 175.625253 363.677921 
L 177.391414 362.479021 
L 179.157576 361.122714 
L 180.923737 359.610647 
L 182.689899 357.944743 
L 184.456061 356.127204 
L 186.222222 354.160506 
L 187.988384 352.047403 
L 189.754545 349.790926 
L 191.520707 347.394381 
L 193.286869 344.861353 
L 195.05303 342.195703 
L 196.819192 339.401568 
L 198.585354 336.483362 
L 200.351515 333.445776 
L 202.117677 330.293777 
L 203.883838 327.032609 
L 205.65 323.667795 
" style="fill:none;stroke:#000000;stroke-linecap:square;stroke-width:1.5;"/>
   </g>
   <g id="patch_18">
    <path d="M 30.8 410.966667 
L 30.8 221.533333 
" style="fill:none;stroke:#000000;stroke-linecap:square;stroke-linejoin:miter;stroke-width:0.8;"/>
   </g>
   <g id="patch_19">
    <path d="M 205.65 410.966667 
L 205.65 221.533333 
" style="fill:none;stroke:#000000;stroke-linecap:square;stroke-linejoin:miter;stroke-width:0.8;"/>
   </g>
   <g id="patch_20">
    <path d="M 30.8 410.966667 
L 205.65 410.966667 
" style="fill:none;stroke:#000000;stroke-linecap:square;stroke-linejoin:miter;stroke-width:0.8;"/>
   </g>
   <g id="patch_21">
    <path d="M 30.8 221.533333 
L 205.65 221.533333 
" style="fill:none;stroke:#000000;stroke-linecap:square;stroke-linejoin:miter;stroke-width:0.8;"/>
   </g>
  </g>
  <g id="axes_5">
   <g id="patch_22">
    <path d="M 240.7625 410.966667 
L 415.6125 410.966667 
L 415.6125 221.533333 
L 240.7625 221.533333 
z
" style="fill:#ffffff;"/>
   </g>
   <g id="PathCollection_5">
    <g clip-path="url(#pd786758ca8)">
     <use style="fill:#ff0000;stroke:#ff0000;stroke-width:1.5;" x="404.907398" xlink:href="#mcf241e3074" y="347.790431"/>
     <use style="fill:#ff0000;stroke:#ff0000;stroke-width:1.5;" x="290.719643" xlink:href="#mcf241e3074" y="250.765621"/>
     <use style="fill:#ff0000;stroke:#ff0000;stroke-width:1.5;" x="412.044133" xlink:href="#mcf241e3074" y="333.714221"/>
     <use style="fill:#ff0000;stroke:#ff0000;stroke-width:1.5;" x="347.81352" xlink:href="#mcf241e3074" y="363.560889"/>
     <use style="fill:#ff0000;stroke:#ff0000;stroke-width:1.5;" x="333.540051" xlink:href="#mcf241e3074" y="333.530266"/>
     <use style="fill:#ff0000;stroke:#ff0000;stroke-width:1.5;" x="255.035969" xlink:href="#mcf241e3074" y="273.649277"/>
     <use style="fill:#ff0000;stroke:#ff0000;stroke-width:1.5;" x="365.655357" xlink:href="#mcf241e3074" y="364.852538"/>
     <use style="fill:#ff0000;stroke:#ff0000;stroke-width:1.5;" x="297.856378" xlink:href="#mcf241e3074" y="261.125697"/>
     <use style="fill:#ff0000;stroke:#ff0000;stroke-width:1.5;" x="394.202296" xlink:href="#mcf241e3074" y="341.693492"/>
     <use style="fill:#ff0000;stroke:#ff0000;stroke-width:1.5;" x="272.877806" xlink:href="#mcf241e3074" y="258.20773"/>
    </g>
   </g>
   <g id="line2d_19">
    <path clip-path="url(#pd786758ca8)" d="M 240.7625 330.241209 
L 242.528662 321.750476 
L 244.294823 313.769203 
L 246.060985 306.29142 
L 247.827146 299.310595 
L 249.593308 292.819662 
L 251.35947 286.811031 
L 253.125631 281.276618 
L 254.891793 276.207854 
L 256.657955 271.595713 
L 258.424116 267.430729 
L 260.190278 263.703014 
L 261.956439 260.402281 
L 263.722601 257.517861 
L 265.488763 255.038724 
L 267.254924 252.953499 
L 269.021086 251.250493 
L 270.787247 249.91771 
L 272.553409 248.942873 
L 274.319571 248.313443 
L 276.085732 248.016637 
L 277.851894 248.039449 
L 279.618056 248.368671 
L 281.384217 248.990909 
L 283.150379 249.892609 
L 284.91654 251.060068 
L 286.682702 252.479464 
L 288.448864 254.136866 
L 290.215025 256.01826 
L 291.981187 258.109567 
L 293.747348 260.396664 
L 295.51351 262.865399 
L 297.279672 265.501616 
L 299.045833 268.291174 
L 300.811995 271.219963 
L 302.578157 274.273928 
L 304.344318 277.439087 
L 306.11048 280.701551 
L 307.876641 284.047543 
L 309.642803 287.463417 
L 311.408965 290.935683 
L 313.175126 294.451017 
L 314.941288 297.996292 
L 316.707449 301.55859 
L 318.473611 305.125222 
L 320.239773 308.683753 
L 322.005934 312.222017 
L 323.772096 315.728138 
L 325.538258 319.190551 
L 327.304419 322.598018 
L 329.070581 325.939655 
L 330.836742 329.204942 
L 332.602904 332.383752 
L 334.369066 335.466364 
L 336.135227 338.443487 
L 337.901389 341.306277 
L 339.667551 344.046359 
L 341.433712 346.655845 
L 343.199874 349.127353 
L 344.966035 351.454031 
L 346.732197 353.629571 
L 348.498359 355.648234 
L 350.26452 357.504864 
L 352.030682 359.194915 
L 353.796843 360.714464 
L 355.563005 362.060234 
L 357.329167 363.229615 
L 359.095328 364.220678 
L 360.86149 365.032204 
L 362.627652 365.663694 
L 364.393813 366.115396 
L 366.159975 366.38832 
L 367.926136 366.484261 
L 369.692298 366.405817 
L 371.45846 366.15641 
L 373.224621 365.740302 
L 374.990783 365.162622 
L 376.756944 364.429378 
L 378.523106 363.547482 
L 380.289268 362.524766 
L 382.055429 361.370005 
L 383.821591 360.092936 
L 385.587753 358.704275 
L 387.353914 357.21574 
L 389.120076 355.64007 
L 390.886237 353.991044 
L 392.652399 352.2835 
L 394.418561 350.533358 
L 396.184722 348.757635 
L 397.950884 346.974468 
L 399.717045 345.203134 
L 401.483207 343.464068 
L 403.249369 341.778884 
L 405.01553 340.170394 
L 406.781692 338.662627 
L 408.547854 337.28085 
L 410.314015 336.051589 
L 412.080177 335.002646 
L 413.846338 334.163119 
L 415.6125 333.563425 
" style="fill:none;stroke:#000000;stroke-linecap:square;stroke-width:1.5;"/>
   </g>
   <g id="patch_23">
    <path d="M 240.7625 410.966667 
L 240.7625 221.533333 
" style="fill:none;stroke:#000000;stroke-linecap:square;stroke-linejoin:miter;stroke-width:0.8;"/>
   </g>
   <g id="patch_24">
    <path d="M 415.6125 410.966667 
L 415.6125 221.533333 
" style="fill:none;stroke:#000000;stroke-linecap:square;stroke-linejoin:miter;stroke-width:0.8;"/>
   </g>
   <g id="patch_25">
    <path d="M 240.7625 410.966667 
L 415.6125 410.966667 
" style="fill:none;stroke:#000000;stroke-linecap:square;stroke-linejoin:miter;stroke-width:0.8;"/>
   </g>
   <g id="patch_26">
    <path d="M 240.7625 221.533333 
L 415.6125 221.533333 
" style="fill:none;stroke:#000000;stroke-linecap:square;stroke-linejoin:miter;stroke-width:0.8;"/>
   </g>
  </g>
  <g id="axes_6">
   <g id="patch_27">
    <path d="M 450.725 410.966667 
L 625.575 410.966667 
L 625.575 221.533333 
L 450.725 221.533333 
z
" style="fill:#ffffff;"/>
   </g>
   <g id="PathCollection_6">
    <g clip-path="url(#p838698652c)">
     <use style="fill:#ff0000;stroke:#ff0000;stroke-width:1.5;" x="614.869898" xlink:href="#mcf241e3074" y="347.790431"/>
     <use style="fill:#ff0000;stroke:#ff0000;stroke-width:1.5;" x="500.682143" xlink:href="#mcf241e3074" y="250.765621"/>
     <use style="fill:#ff0000;stroke:#ff0000;stroke-width:1.5;" x="622.006633" xlink:href="#mcf241e3074" y="333.714221"/>
     <use style="fill:#ff0000;stroke:#ff0000;stroke-width:1.5;" x="557.77602" xlink:href="#mcf241e3074" y="363.560889"/>
     <use style="fill:#ff0000;stroke:#ff0000;stroke-width:1.5;" x="543.502551" xlink:href="#mcf241e3074" y="333.530266"/>
     <use style="fill:#ff0000;stroke:#ff0000;stroke-width:1.5;" x="464.998469" xlink:href="#mcf241e3074" y="273.649277"/>
     <use style="fill:#ff0000;stroke:#ff0000;stroke-width:1.5;" x="575.617857" xlink:href="#mcf241e3074" y="364.852538"/>
     <use style="fill:#ff0000;stroke:#ff0000;stroke-width:1.5;" x="507.818878" xlink:href="#mcf241e3074" y="261.125697"/>
     <use style="fill:#ff0000;stroke:#ff0000;stroke-width:1.5;" x="604.164796" xlink:href="#mcf241e3074" y="341.693492"/>
     <use style="fill:#ff0000;stroke:#ff0000;stroke-width:1.5;" x="482.840306" xlink:href="#mcf241e3074" y="258.20773"/>
    </g>
   </g>
   <g id="line2d_20">
    <path clip-path="url(#p838698652c)" d="M 450.725 321.819412 
L 452.491162 314.848715 
L 454.257323 308.236589 
L 456.023485 301.983707 
L 457.789646 296.090329 
L 459.555808 290.556289 
L 461.32197 285.38099 
L 463.088131 280.56339 
L 464.854293 276.102001 
L 466.620455 271.994879 
L 468.386616 268.239618 
L 470.152778 264.83335 
L 471.918939 261.77274 
L 473.685101 259.053981 
L 475.451263 256.672798 
L 477.217424 254.624445 
L 478.983586 252.903706 
L 480.749747 251.5049 
L 482.515909 250.421879 
L 484.282071 249.648038 
L 486.048232 249.176316 
L 487.814394 248.999204 
L 489.580556 249.108752 
L 491.346717 249.496577 
L 493.112879 250.153872 
L 494.87904 251.071418 
L 496.645202 252.239595 
L 498.411364 253.648391 
L 500.177525 255.28742 
L 501.943687 257.145935 
L 503.709848 259.212843 
L 505.47601 261.47672 
L 507.242172 263.925833 
L 509.008333 266.548155 
L 510.774495 269.331384 
L 512.540657 272.262967 
L 514.306818 275.330119 
L 516.07298 278.519849 
L 517.839141 281.818978 
L 519.605303 285.21417 
L 521.371465 288.691953 
L 523.137626 292.238751 
L 524.903788 295.840905 
L 526.669949 299.484709 
L 528.436111 303.156436 
L 530.202273 306.842369 
L 531.968434 310.528835 
L 533.734596 314.202234 
L 535.500758 317.849081 
L 537.266919 321.456031 
L 539.033081 325.009924 
L 540.799242 328.497815 
L 542.565404 331.907019 
L 544.331566 335.225145 
L 546.097727 338.440138 
L 547.863889 341.540322 
L 549.630051 344.514439 
L 551.396212 347.351694 
L 553.162374 350.041803 
L 554.928535 352.57503 
L 556.694697 354.942242 
L 558.460859 357.134952 
L 560.22702 359.145369 
L 561.993182 360.966446 
L 563.759343 362.591933 
L 565.525505 364.016425 
L 567.291667 365.23542 
L 569.057828 366.245368 
L 570.82399 367.043727 
L 572.590152 367.62902 
L 574.356313 368.00089 
L 576.122475 368.160159 
L 577.888636 368.108889 
L 579.654798 367.850435 
L 581.42096 367.389513 
L 583.187121 366.732259 
L 584.953283 365.886293 
L 586.719444 364.860781 
L 588.485606 363.666501 
L 590.251768 362.315911 
L 592.017929 360.823213 
L 593.784091 359.204424 
L 595.550253 357.477442 
L 597.316414 355.662119 
L 599.082576 353.780332 
L 600.848737 351.856052 
L 602.614899 349.915423 
L 604.381061 347.986831 
L 606.147222 346.100981 
L 607.913384 344.290974 
L 609.679545 342.592387 
L 611.445707 341.043344 
L 613.211869 339.684604 
L 614.97803 338.559635 
L 616.744192 337.714701 
L 618.510354 337.198939 
L 620.276515 337.064446 
L 622.042677 337.366364 
L 623.808838 338.162965 
L 625.575 339.515735 
" style="fill:none;stroke:#000000;stroke-linecap:square;stroke-width:1.5;"/>
   </g>
   <g id="patch_28">
    <path d="M 450.725 410.966667 
L 450.725 221.533333 
" style="fill:none;stroke:#000000;stroke-linecap:square;stroke-linejoin:miter;stroke-width:0.8;"/>
   </g>
   <g id="patch_29">
    <path d="M 625.575 410.966667 
L 625.575 221.533333 
" style="fill:none;stroke:#000000;stroke-linecap:square;stroke-linejoin:miter;stroke-width:0.8;"/>
   </g>
   <g id="patch_30">
    <path d="M 450.725 410.966667 
L 625.575 410.966667 
" style="fill:none;stroke:#000000;stroke-linecap:square;stroke-linejoin:miter;stroke-width:0.8;"/>
   </g>
   <g id="patch_31">
    <path d="M 450.725 221.533333 
L 625.575 221.533333 
" style="fill:none;stroke:#000000;stroke-linecap:square;stroke-linejoin:miter;stroke-width:0.8;"/>
   </g>
  </g>
  <g id="axes_7">
   <g id="patch_32">
    <path d="M 30.8 618.2 
L 205.65 618.2 
L 205.65 428.766667 
L 30.8 428.766667 
z
" style="fill:#ffffff;"/>
   </g>
   <g id="PathCollection_7">
    <g clip-path="url(#pc35c8c0293)">
     <use style="fill:#ff0000;stroke:#ff0000;stroke-width:1.5;" x="194.944898" xlink:href="#mcf241e3074" y="555.023765"/>
     <use style="fill:#ff0000;stroke:#ff0000;stroke-width:1.5;" x="80.757143" xlink:href="#mcf241e3074" y="457.998955"/>
     <use style="fill:#ff0000;stroke:#ff0000;stroke-width:1.5;" x="202.081633" xlink:href="#mcf241e3074" y="540.947555"/>
     <use style="fill:#ff0000;stroke:#ff0000;stroke-width:1.5;" x="137.85102" xlink:href="#mcf241e3074" y="570.794222"/>
     <use style="fill:#ff0000;stroke:#ff0000;stroke-width:1.5;" x="123.577551" xlink:href="#mcf241e3074" y="540.763599"/>
     <use style="fill:#ff0000;stroke:#ff0000;stroke-width:1.5;" x="45.073469" xlink:href="#mcf241e3074" y="480.88261"/>
     <use style="fill:#ff0000;stroke:#ff0000;stroke-width:1.5;" x="155.692857" xlink:href="#mcf241e3074" y="572.085871"/>
     <use style="fill:#ff0000;stroke:#ff0000;stroke-width:1.5;" x="87.893878" xlink:href="#mcf241e3074" y="468.35903"/>
     <use style="fill:#ff0000;stroke:#ff0000;stroke-width:1.5;" x="184.239796" xlink:href="#mcf241e3074" y="548.926826"/>
     <use style="fill:#ff0000;stroke:#ff0000;stroke-width:1.5;" x="62.915306" xlink:href="#mcf241e3074" y="465.441064"/>
    </g>
   </g>
   <g id="matplotlib.axis_3">
    <g id="xtick_1">
     <g id="line2d_21">
      <defs>
       <path d="M 0 0 
L 0 3.5 
" id="m1063e0c779" style="stroke:#000000;stroke-width:0.8;"/>
      </defs>
      <g>
       <use style="stroke:#000000;stroke-width:0.8;" x="30.8" xlink:href="#m1063e0c779" y="618.2"/>
      </g>
     </g>
     <g id="text_15">
      <!-- 0.00 -->
      <g transform="translate(18.135313 634.27125)scale(0.12 -0.12)">
       <use xlink:href="#Georgia-30"/>
       <use x="61.376953" xlink:href="#Georgia-2e"/>
       <use x="88.330078" xlink:href="#Georgia-30"/>
       <use x="149.707031" xlink:href="#Georgia-30"/>
      </g>
     </g>
    </g>
    <g id="xtick_2">
     <g id="line2d_22">
      <g>
       <use style="stroke:#000000;stroke-width:0.8;" x="74.5125" xlink:href="#m1063e0c779" y="618.2"/>
      </g>
     </g>
     <g id="text_16">
      <!-- 0.25 -->
      <defs>
       <path d="M 51.125 0 
L 5.375 0 
L 5.375 6.640625 
Q 6.6875 8.15625 9.03125 10.03125 
Q 11.375 11.921875 14.59375 14.109375 
Q 16.546875 15.4375 19.28125 17 
Q 22.015625 18.5625 25.484375 20.40625 
Q 29.34375 22.46875 31.421875 24.03125 
Q 33.5 25.59375 35.203125 27.875 
Q 36.328125 29.390625 37.015625 31.65625 
Q 37.703125 33.9375 37.703125 38.140625 
Q 37.703125 44.234375 34.421875 47.09375 
Q 31.15625 49.953125 26.03125 49.953125 
Q 22.859375 49.953125 20.015625 48.703125 
Q 17.1875 47.46875 15.765625 45.265625 
Q 16.109375 43.703125 16.625 41.546875 
Q 17.140625 39.40625 17.140625 37.359375 
Q 17.140625 35.5 15.59375 34.0625 
Q 14.0625 32.625 11.03125 32.625 
Q 8.59375 32.625 7.265625 34.296875 
Q 5.953125 35.984375 5.953125 38.8125 
Q 5.953125 41.453125 7.421875 44.109375 
Q 8.890625 46.78125 11.625 49.03125 
Q 14.3125 51.21875 18.265625 52.578125 
Q 22.21875 53.953125 26.8125 53.953125 
Q 36.8125 53.953125 42.6875 49.484375 
Q 48.578125 45.015625 48.578125 37.546875 
Q 48.578125 33.984375 47.53125 31.046875 
Q 46.484375 28.125 44.140625 25.875 
Q 41.546875 23.390625 38.078125 21.609375 
Q 34.625 19.828125 27.484375 16.65625 
Q 23.25 14.75 19.578125 12.671875 
Q 15.921875 10.59375 13.578125 8.640625 
L 51.125 8.640625 
z
" id="Georgia-32"/>
      </defs>
      <g transform="translate(62.691563 634.27125)scale(0.12 -0.12)">
       <use xlink:href="#Georgia-30"/>
       <use x="61.376953" xlink:href="#Georgia-2e"/>
       <use x="88.330078" xlink:href="#Georgia-32"/>
       <use x="144.189453" xlink:href="#Georgia-35"/>
      </g>
     </g>
    </g>
    <g id="xtick_3">
     <g id="line2d_23">
      <g>
       <use style="stroke:#000000;stroke-width:0.8;" x="118.225" xlink:href="#m1063e0c779" y="618.2"/>
      </g>
     </g>
     <g id="text_17">
      <!-- 0.50 -->
      <g transform="translate(106.073125 634.27125)scale(0.12 -0.12)">
       <use xlink:href="#Georgia-30"/>
       <use x="61.376953" xlink:href="#Georgia-2e"/>
       <use x="88.330078" xlink:href="#Georgia-35"/>
       <use x="141.162109" xlink:href="#Georgia-30"/>
      </g>
     </g>
    </g>
    <g id="xtick_4">
     <g id="line2d_24">
      <g>
       <use style="stroke:#000000;stroke-width:0.8;" x="161.9375" xlink:href="#m1063e0c779" y="618.2"/>
      </g>
     </g>
     <g id="text_18">
      <!-- 0.75 -->
      <defs>
       <path d="M 50.25 49.21875 
L 15.4375 -17.828125 
L 9.328125 -17.828125 
L 42.09375 44.1875 
L 22.90625 44.1875 
Q 18.65625 44.1875 16.265625 44.09375 
Q 13.875 44 11.859375 43.171875 
Q 10.359375 42.53125 9.15625 39.921875 
Q 7.953125 37.3125 7.328125 33.25 
L 4.34375 33.25 
L 4.34375 52.390625 
L 50.25 52.390625 
z
" id="Georgia-37"/>
      </defs>
      <g transform="translate(150.453125 634.27125)scale(0.12 -0.12)">
       <use xlink:href="#Georgia-30"/>
       <use x="61.376953" xlink:href="#Georgia-2e"/>
       <use x="88.330078" xlink:href="#Georgia-37"/>
       <use x="138.574219" xlink:href="#Georgia-35"/>
      </g>
     </g>
    </g>
    <g id="xtick_5">
     <g id="line2d_25">
      <g>
       <use style="stroke:#000000;stroke-width:0.8;" x="205.65" xlink:href="#m1063e0c779" y="618.2"/>
      </g>
     </g>
     <g id="text_19">
      <!-- 1.00 -->
      <g transform="translate(194.089688 634.27125)scale(0.12 -0.12)">
       <use xlink:href="#Georgia-31"/>
       <use x="42.96875" xlink:href="#Georgia-2e"/>
       <use x="69.921875" xlink:href="#Georgia-30"/>
       <use x="131.298828" xlink:href="#Georgia-30"/>
      </g>
     </g>
    </g>
   </g>
   <g id="matplotlib.axis_4">
    <g id="ytick_15">
     <g id="line2d_26">
      <g>
       <use style="stroke:#000000;stroke-width:0.8;" x="30.8" xlink:href="#m6f25e1c822" y="618.2"/>
      </g>
     </g>
     <g id="text_20">
      <!-- −1.5 -->
      <g transform="translate(1.3525 622.735625)scale(0.12 -0.12)">
       <use xlink:href="#Georgia-2212"/>
       <use x="64.306641" xlink:href="#Georgia-31"/>
       <use x="107.275391" xlink:href="#Georgia-2e"/>
       <use x="134.228516" xlink:href="#Georgia-35"/>
      </g>
     </g>
    </g>
    <g id="ytick_16">
     <g id="line2d_27">
      <g>
       <use style="stroke:#000000;stroke-width:0.8;" x="30.8" xlink:href="#m6f25e1c822" y="586.627778"/>
      </g>
     </g>
     <g id="text_21">
      <!-- −1.0 -->
      <g transform="translate(0.326875 591.163403)scale(0.12 -0.12)">
       <use xlink:href="#Georgia-2212"/>
       <use x="64.306641" xlink:href="#Georgia-31"/>
       <use x="107.275391" xlink:href="#Georgia-2e"/>
       <use x="134.228516" xlink:href="#Georgia-30"/>
      </g>
     </g>
    </g>
    <g id="ytick_17">
     <g id="line2d_28">
      <g>
       <use style="stroke:#000000;stroke-width:0.8;" x="30.8" xlink:href="#m6f25e1c822" y="555.055556"/>
      </g>
     </g>
     <g id="text_22">
      <!-- −0.5 -->
      <g transform="translate(-0.85625 559.591181)scale(0.12 -0.12)">
       <use xlink:href="#Georgia-2212"/>
       <use x="64.306641" xlink:href="#Georgia-30"/>
       <use x="125.683594" xlink:href="#Georgia-2e"/>
       <use x="152.636719" xlink:href="#Georgia-35"/>
      </g>
     </g>
    </g>
    <g id="ytick_18">
     <g id="line2d_29">
      <g>
       <use style="stroke:#000000;stroke-width:0.8;" x="30.8" xlink:href="#m6f25e1c822" y="523.483333"/>
      </g>
     </g>
     <g id="text_23">
      <!-- 0.0 -->
      <g transform="translate(5.835625 528.018958)scale(0.12 -0.12)">
       <use xlink:href="#Georgia-30"/>
       <use x="61.376953" xlink:href="#Georgia-2e"/>
       <use x="88.330078" xlink:href="#Georgia-30"/>
      </g>
     </g>
    </g>
    <g id="ytick_19">
     <g id="line2d_30">
      <g>
       <use style="stroke:#000000;stroke-width:0.8;" x="30.8" xlink:href="#m6f25e1c822" y="491.911111"/>
      </g>
     </g>
     <g id="text_24">
      <!-- 0.5 -->
      <g transform="translate(6.86125 496.446736)scale(0.12 -0.12)">
       <use xlink:href="#Georgia-30"/>
       <use x="61.376953" xlink:href="#Georgia-2e"/>
       <use x="88.330078" xlink:href="#Georgia-35"/>
      </g>
     </g>
    </g>
    <g id="ytick_20">
     <g id="line2d_31">
      <g>
       <use style="stroke:#000000;stroke-width:0.8;" x="30.8" xlink:href="#m6f25e1c822" y="460.338889"/>
      </g>
     </g>
     <g id="text_25">
      <!-- 1.0 -->
      <g transform="translate(8.044375 464.874514)scale(0.12 -0.12)">
       <use xlink:href="#Georgia-31"/>
       <use x="42.96875" xlink:href="#Georgia-2e"/>
       <use x="69.921875" xlink:href="#Georgia-30"/>
      </g>
     </g>
    </g>
    <g id="ytick_21">
     <g id="line2d_32">
      <g>
       <use style="stroke:#000000;stroke-width:0.8;" x="30.8" xlink:href="#m6f25e1c822" y="428.766667"/>
      </g>
     </g>
     <g id="text_26">
      <!-- 1.5 -->
      <g transform="translate(9.07 433.302292)scale(0.12 -0.12)">
       <use xlink:href="#Georgia-31"/>
       <use x="42.96875" xlink:href="#Georgia-2e"/>
       <use x="69.921875" xlink:href="#Georgia-35"/>
      </g>
     </g>
    </g>
   </g>
   <g id="line2d_33">
    <path clip-path="url(#pc35c8c0293)" d="M 30.8 524.479745 
L 32.566162 518.210565 
L 34.332323 512.247291 
L 36.098485 506.591406 
L 37.864646 501.2441 
L 39.630808 496.206266 
L 41.39697 491.47848 
L 43.163131 487.061 
L 44.929293 482.953747 
L 46.695455 479.156297 
L 48.461616 475.667874 
L 50.227778 472.487335 
L 51.993939 469.613167 
L 53.760101 467.043473 
L 55.526263 464.775965 
L 57.292424 462.807959 
L 59.058586 461.136365 
L 60.824747 459.75768 
L 62.590909 458.667987 
L 64.357071 457.862944 
L 66.123232 457.337784 
L 67.889394 457.087309 
L 69.655556 457.10589 
L 71.421717 457.387463 
L 73.187879 457.925528 
L 74.95404 458.713154 
L 76.720202 459.742973 
L 78.486364 461.007188 
L 80.252525 462.497575 
L 82.018687 464.205487 
L 83.784848 466.121859 
L 85.55101 468.237218 
L 87.317172 470.541688 
L 89.083333 473.025004 
L 90.849495 475.676519 
L 92.615657 478.485216 
L 94.381818 481.439727 
L 96.14798 484.528344 
L 97.914141 487.739038 
L 99.680303 491.059476 
L 101.446465 494.477043 
L 103.212626 497.978864 
L 104.978788 501.551824 
L 106.744949 505.182598 
L 108.511111 508.857676 
L 110.277273 512.563392 
L 112.043434 516.285955 
L 113.809596 520.011482 
L 115.575758 523.726032 
L 117.341919 527.415643 
L 119.108081 531.066373 
L 120.874242 534.664338 
L 122.640404 538.195755 
L 124.406566 541.646991 
L 126.172727 545.004605 
L 127.938889 548.255403 
L 129.705051 551.386486 
L 131.471212 554.385307 
L 133.237374 557.239727 
L 135.003535 559.938072 
L 136.769697 562.469201 
L 138.535859 564.822561 
L 140.30202 566.988262 
L 142.068182 568.957142 
L 143.834343 570.720841 
L 145.600505 572.271875 
L 147.366667 573.603711 
L 149.132828 574.710853 
L 150.89899 575.58892 
L 152.665152 576.234734 
L 154.431313 576.646409 
L 156.197475 576.823442 
L 157.963636 576.766808 
L 159.729798 576.479058 
L 161.49596 575.96442 
L 163.262121 575.228904 
L 165.028283 574.280406 
L 166.794444 573.128821 
L 168.560606 571.786157 
L 170.326768 570.26665 
L 172.092929 568.586886 
L 173.859091 566.765923 
L 175.625253 564.82542 
L 177.391414 562.789766 
L 179.157576 560.686213 
L 180.923737 558.545017 
L 182.689899 556.399576 
L 184.456061 554.286576 
L 186.222222 552.246139 
L 187.988384 550.321977 
L 189.754545 548.561545 
L 191.520707 547.016201 
L 193.286869 545.741373 
L 195.05303 544.796723 
L 196.819192 544.246319 
L 198.585354 544.158812 
L 200.351515 544.607614 
L 202.117677 545.67108 
L 203.883838 547.432698 
L 205.65 549.981282 
" style="fill:none;stroke:#000000;stroke-linecap:square;stroke-width:1.5;"/>
   </g>
   <g id="patch_33">
    <path d="M 30.8 618.2 
L 30.8 428.766667 
" style="fill:none;stroke:#000000;stroke-linecap:square;stroke-linejoin:miter;stroke-width:0.8;"/>
   </g>
   <g id="patch_34">
    <path d="M 205.65 618.2 
L 205.65 428.766667 
" style="fill:none;stroke:#000000;stroke-linecap:square;stroke-linejoin:miter;stroke-width:0.8;"/>
   </g>
   <g id="patch_35">
    <path d="M 30.8 618.2 
L 205.65 618.2 
" style="fill:none;stroke:#000000;stroke-linecap:square;stroke-linejoin:miter;stroke-width:0.8;"/>
   </g>
   <g id="patch_36">
    <path d="M 30.8 428.766667 
L 205.65 428.766667 
" style="fill:none;stroke:#000000;stroke-linecap:square;stroke-linejoin:miter;stroke-width:0.8;"/>
   </g>
  </g>
  <g id="axes_8">
   <g id="patch_37">
    <path d="M 240.7625 618.2 
L 415.6125 618.2 
L 415.6125 428.766667 
L 240.7625 428.766667 
z
" style="fill:#ffffff;"/>
   </g>
   <g id="PathCollection_8">
    <g clip-path="url(#pb5c470d4f5)">
     <use style="fill:#ff0000;stroke:#ff0000;stroke-width:1.5;" x="404.907398" xlink:href="#mcf241e3074" y="555.023765"/>
     <use style="fill:#ff0000;stroke:#ff0000;stroke-width:1.5;" x="290.719643" xlink:href="#mcf241e3074" y="457.998955"/>
     <use style="fill:#ff0000;stroke:#ff0000;stroke-width:1.5;" x="412.044133" xlink:href="#mcf241e3074" y="540.947555"/>
     <use style="fill:#ff0000;stroke:#ff0000;stroke-width:1.5;" x="347.81352" xlink:href="#mcf241e3074" y="570.794222"/>
     <use style="fill:#ff0000;stroke:#ff0000;stroke-width:1.5;" x="333.540051" xlink:href="#mcf241e3074" y="540.763599"/>
     <use style="fill:#ff0000;stroke:#ff0000;stroke-width:1.5;" x="255.035969" xlink:href="#mcf241e3074" y="480.88261"/>
     <use style="fill:#ff0000;stroke:#ff0000;stroke-width:1.5;" x="365.655357" xlink:href="#mcf241e3074" y="572.085871"/>
     <use style="fill:#ff0000;stroke:#ff0000;stroke-width:1.5;" x="297.856378" xlink:href="#mcf241e3074" y="468.35903"/>
     <use style="fill:#ff0000;stroke:#ff0000;stroke-width:1.5;" x="394.202296" xlink:href="#mcf241e3074" y="548.926826"/>
     <use style="fill:#ff0000;stroke:#ff0000;stroke-width:1.5;" x="272.877806" xlink:href="#mcf241e3074" y="465.441064"/>
    </g>
   </g>
   <g id="matplotlib.axis_5">
    <g id="xtick_6">
     <g id="line2d_34">
      <g>
       <use style="stroke:#000000;stroke-width:0.8;" x="240.7625" xlink:href="#m1063e0c779" y="618.2"/>
      </g>
     </g>
     <g id="text_27">
      <!-- 0.00 -->
      <g transform="translate(228.097813 634.27125)scale(0.12 -0.12)">
       <use xlink:href="#Georgia-30"/>
       <use x="61.376953" xlink:href="#Georgia-2e"/>
       <use x="88.330078" xlink:href="#Georgia-30"/>
       <use x="149.707031" xlink:href="#Georgia-30"/>
      </g>
     </g>
    </g>
    <g id="xtick_7">
     <g id="line2d_35">
      <g>
       <use style="stroke:#000000;stroke-width:0.8;" x="284.475" xlink:href="#m1063e0c779" y="618.2"/>
      </g>
     </g>
     <g id="text_28">
      <!-- 0.25 -->
      <g transform="translate(272.654063 634.27125)scale(0.12 -0.12)">
       <use xlink:href="#Georgia-30"/>
       <use x="61.376953" xlink:href="#Georgia-2e"/>
       <use x="88.330078" xlink:href="#Georgia-32"/>
       <use x="144.189453" xlink:href="#Georgia-35"/>
      </g>
     </g>
    </g>
    <g id="xtick_8">
     <g id="line2d_36">
      <g>
       <use style="stroke:#000000;stroke-width:0.8;" x="328.1875" xlink:href="#m1063e0c779" y="618.2"/>
      </g>
     </g>
     <g id="text_29">
      <!-- 0.50 -->
      <g transform="translate(316.035625 634.27125)scale(0.12 -0.12)">
       <use xlink:href="#Georgia-30"/>
       <use x="61.376953" xlink:href="#Georgia-2e"/>
       <use x="88.330078" xlink:href="#Georgia-35"/>
       <use x="141.162109" xlink:href="#Georgia-30"/>
      </g>
     </g>
    </g>
    <g id="xtick_9">
     <g id="line2d_37">
      <g>
       <use style="stroke:#000000;stroke-width:0.8;" x="371.9" xlink:href="#m1063e0c779" y="618.2"/>
      </g>
     </g>
     <g id="text_30">
      <!-- 0.75 -->
      <g transform="translate(360.415625 634.27125)scale(0.12 -0.12)">
       <use xlink:href="#Georgia-30"/>
       <use x="61.376953" xlink:href="#Georgia-2e"/>
       <use x="88.330078" xlink:href="#Georgia-37"/>
       <use x="138.574219" xlink:href="#Georgia-35"/>
      </g>
     </g>
    </g>
    <g id="xtick_10">
     <g id="line2d_38">
      <g>
       <use style="stroke:#000000;stroke-width:0.8;" x="415.6125" xlink:href="#m1063e0c779" y="618.2"/>
      </g>
     </g>
     <g id="text_31">
      <!-- 1.00 -->
      <g transform="translate(404.052188 634.27125)scale(0.12 -0.12)">
       <use xlink:href="#Georgia-31"/>
       <use x="42.96875" xlink:href="#Georgia-2e"/>
       <use x="69.921875" xlink:href="#Georgia-30"/>
       <use x="131.298828" xlink:href="#Georgia-30"/>
      </g>
     </g>
    </g>
   </g>
   <g id="line2d_39">
    <path clip-path="url(#pb5c470d4f5)" d="M 240.7625 524.0911 
L 242.528662 517.872389 
L 244.294823 511.957205 
L 246.060985 506.346926 
L 247.827146 501.042649 
L 249.593308 496.04518 
L 251.35947 491.355025 
L 253.125631 486.972378 
L 254.891793 482.89711 
L 256.657955 479.128763 
L 258.424116 475.666536 
L 260.190278 472.509276 
L 261.956439 469.655474 
L 263.722601 467.103249 
L 265.488763 464.850346 
L 267.254924 462.894126 
L 269.021086 461.231558 
L 270.787247 459.859215 
L 272.553409 458.773263 
L 274.319571 457.969464 
L 276.085732 457.443162 
L 277.851894 457.189287 
L 279.618056 457.202348 
L 281.384217 457.476428 
L 283.150379 458.005191 
L 284.91654 458.781873 
L 286.682702 459.799285 
L 288.448864 461.049817 
L 290.215025 462.525438 
L 291.981187 464.217701 
L 293.747348 466.117744 
L 295.51351 468.216301 
L 297.279672 470.503706 
L 299.045833 472.969901 
L 300.811995 475.604448 
L 302.578157 478.396537 
L 304.344318 481.335003 
L 306.11048 484.408335 
L 307.876641 487.604692 
L 309.642803 490.911925 
L 311.408965 494.317589 
L 313.175126 497.80897 
L 314.941288 501.373101 
L 316.707449 504.996788 
L 318.473611 508.66664 
L 320.239773 512.369088 
L 322.005934 516.090424 
L 323.772096 519.816823 
L 325.538258 523.534386 
L 327.304419 527.229169 
L 329.070581 530.887224 
L 330.836742 534.494637 
L 332.602904 538.037573 
L 334.369066 541.502318 
L 336.135227 544.87533 
L 337.901389 548.143284 
L 339.667551 551.293128 
L 341.433712 554.312135 
L 343.199874 557.187961 
L 344.966035 559.908708 
L 346.732197 562.462983 
L 348.498359 564.839964 
L 350.26452 567.029471 
L 352.030682 569.022036 
L 353.796843 570.808979 
L 355.563005 572.382483 
L 357.329167 573.735675 
L 359.095328 574.862715 
L 360.86149 575.758875 
L 362.627652 576.420637 
L 364.393813 576.845784 
L 366.159975 577.033496 
L 367.926136 576.984454 
L 369.692298 576.700943 
L 371.45846 576.18696 
L 373.224621 575.448327 
L 374.990783 574.492807 
L 376.756944 573.330223 
L 378.523106 571.972584 
L 380.289268 570.434208 
L 382.055429 568.73186 
L 383.821591 566.884882 
L 385.587753 564.915339 
L 387.353914 562.848159 
L 389.120076 560.711285 
L 390.886237 558.535828 
L 392.652399 556.356224 
L 394.418561 554.210397 
L 396.184722 552.139927 
L 397.950884 550.190223 
L 399.717045 548.410697 
L 401.483207 546.854948 
L 403.249369 545.580949 
L 405.01553 544.65124 
L 406.781692 544.133122 
L 408.547854 544.098862 
L 410.314015 544.625899 
L 412.080177 545.797059 
L 413.846338 547.700773 
L 415.6125 550.431299 
" style="fill:none;stroke:#000000;stroke-linecap:square;stroke-width:1.5;"/>
   </g>
   <g id="patch_38">
    <path d="M 240.7625 618.2 
L 240.7625 428.766667 
" style="fill:none;stroke:#000000;stroke-linecap:square;stroke-linejoin:miter;stroke-width:0.8;"/>
   </g>
   <g id="patch_39">
    <path d="M 415.6125 618.2 
L 415.6125 428.766667 
" style="fill:none;stroke:#000000;stroke-linecap:square;stroke-linejoin:miter;stroke-width:0.8;"/>
   </g>
   <g id="patch_40">
    <path d="M 240.7625 618.2 
L 415.6125 618.2 
" style="fill:none;stroke:#000000;stroke-linecap:square;stroke-linejoin:miter;stroke-width:0.8;"/>
   </g>
   <g id="patch_41">
    <path d="M 240.7625 428.766667 
L 415.6125 428.766667 
" style="fill:none;stroke:#000000;stroke-linecap:square;stroke-linejoin:miter;stroke-width:0.8;"/>
   </g>
  </g>
  <g id="axes_9">
   <g id="patch_42">
    <path d="M 450.725 618.2 
L 625.575 618.2 
L 625.575 428.766667 
L 450.725 428.766667 
z
" style="fill:#ffffff;"/>
   </g>
   <g id="PathCollection_9">
    <g clip-path="url(#p2136af4185)">
     <use style="fill:#ff0000;stroke:#ff0000;stroke-width:1.5;" x="614.869898" xlink:href="#mcf241e3074" y="555.023765"/>
     <use style="fill:#ff0000;stroke:#ff0000;stroke-width:1.5;" x="500.682143" xlink:href="#mcf241e3074" y="457.998955"/>
     <use style="fill:#ff0000;stroke:#ff0000;stroke-width:1.5;" x="622.006633" xlink:href="#mcf241e3074" y="540.947555"/>
     <use style="fill:#ff0000;stroke:#ff0000;stroke-width:1.5;" x="557.77602" xlink:href="#mcf241e3074" y="570.794222"/>
     <use style="fill:#ff0000;stroke:#ff0000;stroke-width:1.5;" x="543.502551" xlink:href="#mcf241e3074" y="540.763599"/>
     <use style="fill:#ff0000;stroke:#ff0000;stroke-width:1.5;" x="464.998469" xlink:href="#mcf241e3074" y="480.88261"/>
     <use style="fill:#ff0000;stroke:#ff0000;stroke-width:1.5;" x="575.617857" xlink:href="#mcf241e3074" y="572.085871"/>
     <use style="fill:#ff0000;stroke:#ff0000;stroke-width:1.5;" x="507.818878" xlink:href="#mcf241e3074" y="468.35903"/>
     <use style="fill:#ff0000;stroke:#ff0000;stroke-width:1.5;" x="604.164796" xlink:href="#mcf241e3074" y="548.926826"/>
     <use style="fill:#ff0000;stroke:#ff0000;stroke-width:1.5;" x="482.840306" xlink:href="#mcf241e3074" y="465.441064"/>
    </g>
   </g>
   <g id="matplotlib.axis_6">
    <g id="xtick_11">
     <g id="line2d_40">
      <g>
       <use style="stroke:#000000;stroke-width:0.8;" x="450.725" xlink:href="#m1063e0c779" y="618.2"/>
      </g>
     </g>
     <g id="text_32">
      <!-- 0.00 -->
      <g transform="translate(438.060313 634.27125)scale(0.12 -0.12)">
       <use xlink:href="#Georgia-30"/>
       <use x="61.376953" xlink:href="#Georgia-2e"/>
       <use x="88.330078" xlink:href="#Georgia-30"/>
       <use x="149.707031" xlink:href="#Georgia-30"/>
      </g>
     </g>
    </g>
    <g id="xtick_12">
     <g id="line2d_41">
      <g>
       <use style="stroke:#000000;stroke-width:0.8;" x="494.4375" xlink:href="#m1063e0c779" y="618.2"/>
      </g>
     </g>
     <g id="text_33">
      <!-- 0.25 -->
      <g transform="translate(482.616563 634.27125)scale(0.12 -0.12)">
       <use xlink:href="#Georgia-30"/>
       <use x="61.376953" xlink:href="#Georgia-2e"/>
       <use x="88.330078" xlink:href="#Georgia-32"/>
       <use x="144.189453" xlink:href="#Georgia-35"/>
      </g>
     </g>
    </g>
    <g id="xtick_13">
     <g id="line2d_42">
      <g>
       <use style="stroke:#000000;stroke-width:0.8;" x="538.15" xlink:href="#m1063e0c779" y="618.2"/>
      </g>
     </g>
     <g id="text_34">
      <!-- 0.50 -->
      <g transform="translate(525.998125 634.27125)scale(0.12 -0.12)">
       <use xlink:href="#Georgia-30"/>
       <use x="61.376953" xlink:href="#Georgia-2e"/>
       <use x="88.330078" xlink:href="#Georgia-35"/>
       <use x="141.162109" xlink:href="#Georgia-30"/>
      </g>
     </g>
    </g>
    <g id="xtick_14">
     <g id="line2d_43">
      <g>
       <use style="stroke:#000000;stroke-width:0.8;" x="581.8625" xlink:href="#m1063e0c779" y="618.2"/>
      </g>
     </g>
     <g id="text_35">
      <!-- 0.75 -->
      <g transform="translate(570.378125 634.27125)scale(0.12 -0.12)">
       <use xlink:href="#Georgia-30"/>
       <use x="61.376953" xlink:href="#Georgia-2e"/>
       <use x="88.330078" xlink:href="#Georgia-37"/>
       <use x="138.574219" xlink:href="#Georgia-35"/>
      </g>
     </g>
    </g>
    <g id="xtick_15">
     <g id="line2d_44">
      <g>
       <use style="stroke:#000000;stroke-width:0.8;" x="625.575" xlink:href="#m1063e0c779" y="618.2"/>
      </g>
     </g>
     <g id="text_36">
      <!-- 1.00 -->
      <g transform="translate(614.014688 634.27125)scale(0.12 -0.12)">
       <use xlink:href="#Georgia-31"/>
       <use x="42.96875" xlink:href="#Georgia-2e"/>
       <use x="69.921875" xlink:href="#Georgia-30"/>
       <use x="131.298828" xlink:href="#Georgia-30"/>
      </g>
     </g>
    </g>
   </g>
   <g id="line2d_45">
    <path clip-path="url(#p2136af4185)" d="M 450.725 524.588897 
L 452.491162 518.338786 
L 454.257323 512.38788 
L 456.023485 506.738258 
L 457.789646 501.391711 
L 459.555808 496.349726 
L 461.32197 491.613477 
L 463.088131 487.183808 
L 464.854293 483.061223 
L 466.620455 479.24587 
L 468.386616 475.737534 
L 470.152778 472.535619 
L 471.918939 469.639138 
L 473.685101 467.046707 
L 475.451263 464.756524 
L 477.217424 462.766368 
L 478.983586 461.073586 
L 480.749747 459.675081 
L 482.515909 458.567311 
L 484.282071 457.746276 
L 486.048232 457.207512 
L 487.814394 456.946089 
L 489.580556 456.956604 
L 491.346717 457.233178 
L 493.112879 457.769455 
L 494.87904 458.5586 
L 496.645202 459.593301 
L 498.411364 460.865768 
L 500.177525 462.36774 
L 501.943687 464.090487 
L 503.709848 466.024817 
L 505.47601 468.161084 
L 507.242172 470.489199 
L 509.008333 472.998638 
L 510.774495 475.678458 
L 512.540657 478.51731 
L 514.306818 481.503459 
L 516.07298 484.624796 
L 517.839141 487.868866 
L 519.605303 491.222885 
L 521.371465 494.67377 
L 523.137626 498.208158 
L 524.903788 501.812441 
L 526.669949 505.472795 
L 528.436111 509.175213 
L 530.202273 512.905537 
L 531.968434 516.649501 
L 533.734596 520.392763 
L 535.500758 524.120952 
L 537.266919 527.81971 
L 539.033081 531.474736 
L 540.799242 535.071835 
L 542.565404 538.596968 
L 544.331566 542.036302 
L 546.097727 545.376266 
L 547.863889 548.603606 
L 549.630051 551.70544 
L 551.396212 554.669323 
L 553.162374 557.483304 
L 554.928535 560.13599 
L 556.694697 562.616611 
L 558.460859 564.915087 
L 560.22702 567.022095 
L 561.993182 568.929138 
L 563.759343 570.628617 
L 565.525505 572.1139 
L 567.291667 573.379398 
L 569.057828 574.420636 
L 570.82399 575.234329 
L 572.590152 575.818455 
L 574.356313 576.172336 
L 576.122475 576.296706 
L 577.888636 576.193793 
L 579.654798 575.867393 
L 581.42096 575.322946 
L 583.187121 574.567613 
L 584.953283 573.610346 
L 586.719444 572.461967 
L 588.485606 571.135238 
L 590.251768 569.644935 
L 592.017929 568.007913 
L 593.784091 566.243179 
L 595.550253 564.371956 
L 597.316414 562.417744 
L 599.082576 560.406386 
L 600.848737 558.366119 
L 602.614899 556.327633 
L 604.381061 554.324121 
L 606.147222 552.391323 
L 607.913384 550.567571 
L 609.679545 548.893824 
L 611.445707 547.4137 
L 613.211869 546.173505 
L 614.97803 545.222251 
L 616.744192 544.611672 
L 618.510354 544.396229 
L 620.276515 544.633112 
L 622.042677 545.382231 
L 623.808838 546.706201 
L 625.575 548.670316 
" style="fill:none;stroke:#000000;stroke-linecap:square;stroke-width:1.5;"/>
   </g>
   <g id="patch_43">
    <path d="M 450.725 618.2 
L 450.725 428.766667 
" style="fill:none;stroke:#000000;stroke-linecap:square;stroke-linejoin:miter;stroke-width:0.8;"/>
   </g>
   <g id="patch_44">
    <path d="M 625.575 618.2 
L 625.575 428.766667 
" style="fill:none;stroke:#000000;stroke-linecap:square;stroke-linejoin:miter;stroke-width:0.8;"/>
   </g>
   <g id="patch_45">
    <path d="M 450.725 618.2 
L 625.575 618.2 
" style="fill:none;stroke:#000000;stroke-linecap:square;stroke-linejoin:miter;stroke-width:0.8;"/>
   </g>
   <g id="patch_46">
    <path d="M 450.725 428.766667 
L 625.575 428.766667 
" style="fill:none;stroke:#000000;stroke-linecap:square;stroke-linejoin:miter;stroke-width:0.8;"/>
   </g>
  </g>
 </g>
 <defs>
  <clipPath id="paeac747af7">
   <rect height="189.433333" width="174.85" x="30.8" y="14.3"/>
  </clipPath>
  <clipPath id="p326d352c0d">
   <rect height="189.433333" width="174.85" x="240.7625" y="14.3"/>
  </clipPath>
  <clipPath id="p5db62831b7">
   <rect height="189.433333" width="174.85" x="450.725" y="14.3"/>
  </clipPath>
  <clipPath id="p3003531fce">
   <rect height="189.433333" width="174.85" x="30.8" y="221.533333"/>
  </clipPath>
  <clipPath id="pd786758ca8">
   <rect height="189.433333" width="174.85" x="240.7625" y="221.533333"/>
  </clipPath>
  <clipPath id="p838698652c">
   <rect height="189.433333" width="174.85" x="450.725" y="221.533333"/>
  </clipPath>
  <clipPath id="pc35c8c0293">
   <rect height="189.433333" width="174.85" x="30.8" y="428.766667"/>
  </clipPath>
  <clipPath id="pb5c470d4f5">
   <rect height="189.433333" width="174.85" x="240.7625" y="428.766667"/>
  </clipPath>
  <clipPath id="p2136af4185">
   <rect height="189.433333" width="174.85" x="450.725" y="428.766667"/>
  </clipPath>
 </defs>
</svg>
