<?xml version="1.0" encoding="utf-8" standalone="no"?>
<!DOCTYPE svg PUBLIC "-//W3C//DTD SVG 1.1//EN"
  "http://www.w3.org/Graphics/SVG/1.1/DTD/svg11.dtd">
<!-- Created with matplotlib (http://matplotlib.org/) -->
<svg height="288pt" version="1.1" viewBox="0 0 432 288" width="432pt" xmlns="http://www.w3.org/2000/svg" xmlns:xlink="http://www.w3.org/1999/xlink">
 <defs>
  <style type="text/css">
*{stroke-linecap:butt;stroke-linejoin:round;}
  </style>
 </defs>
 <g id="figure_1">
  <g id="patch_1">
   <path d="M 0 288 
L 432 288 
L 432 0 
L 0 0 
z
" style="fill:#ffffff;"/>
  </g>
  <g id="axes_1">
   <g id="patch_2">
    <path d="M 68.8 239.2 
L 417.7 239.2 
L 417.7 30.8 
L 68.8 30.8 
z
" style="fill:#ffffff;"/>
   </g>
   <g id="PathCollection_1">
    <defs>
     <path d="M -3 3 
L 3 -3 
M -3 -3 
L 3 3 
" id="m021f41eb87" style="stroke:#ff0000;stroke-width:1.5;"/>
    </defs>
    <g clip-path="url(#p7c01fcce33)">
     <use style="fill:#ff0000;stroke:#ff0000;stroke-width:1.5;" x="382.421614" xlink:href="#m021f41eb87" y="189.946637"/>
     <use style="fill:#ff0000;stroke:#ff0000;stroke-width:1.5;" x="175.282468" xlink:href="#m021f41eb87" y="41.604708"/>
     <use style="fill:#ff0000;stroke:#ff0000;stroke-width:1.5;" x="395.367811" xlink:href="#m021f41eb87" y="168.425419"/>
     <use style="fill:#ff0000;stroke:#ff0000;stroke-width:1.5;" x="278.852041" xlink:href="#m021f41eb87" y="214.058203"/>
     <use style="fill:#ff0000;stroke:#ff0000;stroke-width:1.5;" x="252.959647" xlink:href="#m021f41eb87" y="168.144168"/>
     <use style="fill:#ff0000;stroke:#ff0000;stroke-width:1.5;" x="110.551484" xlink:href="#m021f41eb87" y="76.591693"/>
     <use style="fill:#ff0000;stroke:#ff0000;stroke-width:1.5;" x="311.217532" xlink:href="#m021f41eb87" y="216.033014"/>
     <use style="fill:#ff0000;stroke:#ff0000;stroke-width:1.5;" x="188.228664" xlink:href="#m021f41eb87" y="57.444302"/>
     <use style="fill:#ff0000;stroke:#ff0000;stroke-width:1.5;" x="363.002319" xlink:href="#m021f41eb87" y="180.624984"/>
     <use style="fill:#ff0000;stroke:#ff0000;stroke-width:1.5;" x="142.916976" xlink:href="#m021f41eb87" y="52.983002"/>
    </g>
   </g>
   <g id="matplotlib.axis_1">
    <g id="xtick_1">
     <g id="line2d_1">
      <defs>
       <path d="M 0 0 
L 0 3.5 
" id="m7b2b8a2fa7" style="stroke:#000000;stroke-width:0.8;"/>
      </defs>
      <g>
       <use style="stroke:#000000;stroke-width:0.8;" x="84.659091" xlink:href="#m7b2b8a2fa7" y="239.2"/>
      </g>
     </g>
     <g id="text_1">
      <!-- 0.0 -->
      <defs>
       <path d="M 50.140625 45.609375 
Q 53.265625 41.84375 54.796875 36.78125 
Q 56.34375 31.734375 56.34375 26.21875 
Q 56.34375 19.578125 54.4375 14.328125 
Q 52.546875 9.078125 49.21875 5.609375 
Q 45.796875 2.046875 41.109375 0.234375 
Q 36.421875 -1.5625 30.671875 -1.5625 
Q 24.359375 -1.5625 19.421875 0.53125 
Q 14.5 2.640625 11.421875 6.296875 
Q 8.203125 10.109375 6.609375 15.203125 
Q 5.03125 20.3125 5.03125 26.21875 
Q 5.03125 32.03125 6.5625 36.90625 
Q 8.109375 41.796875 11.375 45.75 
Q 14.5 49.5625 19.421875 51.75 
Q 24.359375 53.953125 30.71875 53.953125 
Q 37.40625 53.953125 42.1875 51.703125 
Q 46.96875 49.46875 50.140625 45.609375 
z
M 45.5625 26.21875 
Q 45.5625 37.84375 41.578125 44.234375 
Q 37.59375 50.640625 30.765625 50.640625 
Q 23.828125 50.640625 19.828125 44.234375 
Q 15.828125 37.84375 15.828125 26.21875 
Q 15.828125 15.1875 19.65625 8.46875 
Q 23.484375 1.765625 30.671875 1.765625 
Q 37.84375 1.765625 41.703125 8.46875 
Q 45.5625 15.1875 45.5625 26.21875 
z
" id="Georgia-30"/>
       <path d="M 20.265625 5.609375 
Q 20.265625 2.875 18.28125 0.9375 
Q 16.3125 -0.984375 13.578125 -0.984375 
Q 10.84375 -0.984375 8.859375 0.9375 
Q 6.890625 2.875 6.890625 5.609375 
Q 6.890625 8.34375 8.859375 10.328125 
Q 10.84375 12.3125 13.578125 12.3125 
Q 16.3125 12.3125 18.28125 10.328125 
Q 20.265625 8.34375 20.265625 5.609375 
z
" id="Georgia-2e"/>
      </defs>
      <g transform="translate(75.676903 255.27125)scale(0.12 -0.12)">
       <use xlink:href="#Georgia-30"/>
       <use x="61.376953" xlink:href="#Georgia-2e"/>
       <use x="88.330078" xlink:href="#Georgia-30"/>
      </g>
     </g>
    </g>
    <g id="xtick_2">
     <g id="line2d_2">
      <g>
       <use style="stroke:#000000;stroke-width:0.8;" x="148.095455" xlink:href="#m7b2b8a2fa7" y="239.2"/>
      </g>
     </g>
     <g id="text_2">
      <!-- 0.2 -->
      <defs>
       <path d="M 51.125 0 
L 5.375 0 
L 5.375 6.640625 
Q 6.6875 8.15625 9.03125 10.03125 
Q 11.375 11.921875 14.59375 14.109375 
Q 16.546875 15.4375 19.28125 17 
Q 22.015625 18.5625 25.484375 20.40625 
Q 29.34375 22.46875 31.421875 24.03125 
Q 33.5 25.59375 35.203125 27.875 
Q 36.328125 29.390625 37.015625 31.65625 
Q 37.703125 33.9375 37.703125 38.140625 
Q 37.703125 44.234375 34.421875 47.09375 
Q 31.15625 49.953125 26.03125 49.953125 
Q 22.859375 49.953125 20.015625 48.703125 
Q 17.1875 47.46875 15.765625 45.265625 
Q 16.109375 43.703125 16.625 41.546875 
Q 17.140625 39.40625 17.140625 37.359375 
Q 17.140625 35.5 15.59375 34.0625 
Q 14.0625 32.625 11.03125 32.625 
Q 8.59375 32.625 7.265625 34.296875 
Q 5.953125 35.984375 5.953125 38.8125 
Q 5.953125 41.453125 7.421875 44.109375 
Q 8.890625 46.78125 11.625 49.03125 
Q 14.3125 51.21875 18.265625 52.578125 
Q 22.21875 53.953125 26.8125 53.953125 
Q 36.8125 53.953125 42.6875 49.484375 
Q 48.578125 45.015625 48.578125 37.546875 
Q 48.578125 33.984375 47.53125 31.046875 
Q 46.484375 28.125 44.140625 25.875 
Q 41.546875 23.390625 38.078125 21.609375 
Q 34.625 19.828125 27.484375 16.65625 
Q 23.25 14.75 19.578125 12.671875 
Q 15.921875 10.59375 13.578125 8.640625 
L 51.125 8.640625 
z
" id="Georgia-32"/>
      </defs>
      <g transform="translate(139.444205 255.27125)scale(0.12 -0.12)">
       <use xlink:href="#Georgia-30"/>
       <use x="61.376953" xlink:href="#Georgia-2e"/>
       <use x="88.330078" xlink:href="#Georgia-32"/>
      </g>
     </g>
    </g>
    <g id="xtick_3">
     <g id="line2d_3">
      <g>
       <use style="stroke:#000000;stroke-width:0.8;" x="211.531818" xlink:href="#m7b2b8a2fa7" y="239.2"/>
      </g>
     </g>
     <g id="text_3">
      <!-- 0.4 -->
      <defs>
       <path d="M 52.9375 4.390625 
L 43.015625 4.390625 
L 43.015625 -17.828125 
L 33.640625 -17.828125 
L 33.640625 4.390625 
L 2.390625 4.390625 
L 2.390625 11.921875 
L 36.625 53.65625 
L 43.015625 53.65625 
L 43.015625 10.796875 
L 52.9375 10.796875 
z
M 33.640625 10.796875 
L 33.640625 42.78125 
L 7.28125 10.796875 
z
" id="Georgia-34"/>
      </defs>
      <g transform="translate(202.842131 255.27125)scale(0.12 -0.12)">
       <use xlink:href="#Georgia-30"/>
       <use x="61.376953" xlink:href="#Georgia-2e"/>
       <use x="88.330078" xlink:href="#Georgia-34"/>
      </g>
     </g>
    </g>
    <g id="xtick_4">
     <g id="line2d_4">
      <g>
       <use style="stroke:#000000;stroke-width:0.8;" x="274.968182" xlink:href="#m7b2b8a2fa7" y="239.2"/>
      </g>
     </g>
     <g id="text_4">
      <!-- 0.6 -->
      <defs>
       <path d="M 52.484375 22.515625 
Q 52.484375 17.4375 50.65625 12.984375 
Q 48.828125 8.546875 45.75 5.421875 
Q 42.1875 1.859375 37.859375 0.140625 
Q 33.546875 -1.5625 28.859375 -1.5625 
Q 23.4375 -1.5625 19.046875 0.4375 
Q 14.65625 2.4375 11.578125 6.109375 
Q 8.453125 9.8125 6.734375 15.1875 
Q 5.03125 20.5625 5.03125 27.25 
Q 5.03125 44.671875 15.40625 56.640625 
Q 25.78125 68.609375 43.21875 71 
L 44.09375 66.609375 
L 39.703125 65.828125 
Q 29.109375 62.40625 23.3125 55.171875 
Q 17.53125 47.953125 15.828125 37.640625 
Q 20.015625 41.3125 24.109375 42.828125 
Q 28.21875 44.34375 32.765625 44.34375 
Q 40.921875 44.34375 46.703125 38.09375 
Q 52.484375 31.84375 52.484375 22.515625 
z
M 41.890625 21.1875 
Q 41.890625 29.109375 38.25 33.890625 
Q 34.625 38.671875 28.515625 38.671875 
Q 24.859375 38.671875 21.703125 37.296875 
Q 18.5625 35.9375 15.625 32.71875 
Q 15.578125 32.125 15.46875 30 
Q 15.375 27.875 15.375 26.65625 
Q 15.375 15.234375 19.109375 8.765625 
Q 22.859375 2.296875 28.953125 2.296875 
Q 34.765625 2.296875 38.328125 7.34375 
Q 41.890625 12.40625 41.890625 21.1875 
z
" id="Georgia-36"/>
      </defs>
      <g transform="translate(266.272869 255.27125)scale(0.12 -0.12)">
       <use xlink:href="#Georgia-30"/>
       <use x="61.376953" xlink:href="#Georgia-2e"/>
       <use x="88.330078" xlink:href="#Georgia-36"/>
      </g>
     </g>
    </g>
    <g id="xtick_5">
     <g id="line2d_5">
      <g>
       <use style="stroke:#000000;stroke-width:0.8;" x="338.404545" xlink:href="#m7b2b8a2fa7" y="239.2"/>
      </g>
     </g>
     <g id="text_5">
      <!-- 0.8 -->
      <defs>
       <path d="M 54.546875 18.359375 
Q 54.546875 10.15625 47.453125 4.25 
Q 40.375 -1.65625 28.859375 -1.65625 
Q 18.0625 -1.65625 11.5625 3.765625 
Q 5.078125 9.1875 5.078125 17.71875 
Q 5.078125 24.03125 8.90625 28.25 
Q 12.75 32.46875 20.265625 35.40625 
Q 14.0625 38.875 10.984375 43.015625 
Q 7.90625 47.171875 7.90625 52.390625 
Q 7.90625 60.359375 14.671875 65.71875 
Q 21.4375 71.09375 30.859375 71.09375 
Q 40.28125 71.09375 46.109375 66.015625 
Q 51.953125 60.9375 51.953125 53.265625 
Q 51.953125 48.34375 48.734375 43.921875 
Q 45.515625 39.5 39.265625 36.671875 
Q 47.359375 33.203125 50.953125 29 
Q 54.546875 24.8125 54.546875 18.359375 
z
M 42.71875 53.8125 
Q 42.71875 59.765625 39.171875 63.5 
Q 35.640625 67.234375 30.125 67.234375 
Q 24.609375 67.234375 21.09375 63.640625 
Q 17.578125 60.0625 17.578125 54.734375 
Q 17.578125 49.609375 21.578125 46.046875 
Q 25.59375 42.484375 35.84375 38.421875 
Q 39.5 40.765625 41.109375 44.625 
Q 42.71875 48.484375 42.71875 53.8125 
z
M 44.78125 16.0625 
Q 44.78125 19.140625 43.453125 21.453125 
Q 42.140625 23.78125 39.65625 25.6875 
Q 37.25 27.546875 32.984375 29.5625 
Q 28.71875 31.59375 23.734375 33.6875 
Q 19.046875 31.15625 16.84375 27.21875 
Q 14.65625 23.296875 14.65625 18.265625 
Q 14.65625 11.078125 18.875 6.65625 
Q 23.09375 2.25 30.125 2.25 
Q 36.859375 2.25 40.8125 6.15625 
Q 44.78125 10.0625 44.78125 16.0625 
z
" id="Georgia-38"/>
      </defs>
      <g transform="translate(329.527358 255.27125)scale(0.12 -0.12)">
       <use xlink:href="#Georgia-30"/>
       <use x="61.376953" xlink:href="#Georgia-2e"/>
       <use x="88.330078" xlink:href="#Georgia-38"/>
      </g>
     </g>
    </g>
    <g id="xtick_6">
     <g id="line2d_6">
      <g>
       <use style="stroke:#000000;stroke-width:0.8;" x="401.840909" xlink:href="#m7b2b8a2fa7" y="239.2"/>
      </g>
     </g>
     <g id="text_6">
      <!-- 1.0 -->
      <defs>
       <path d="M 39.5 0 
L 6.59375 0 
L 6.59375 3.46875 
Q 8.0625 3.5625 11.15625 3.875 
Q 14.265625 4.203125 15.4375 4.546875 
Q 16.9375 5.03125 17.75 6.125 
Q 18.5625 7.234375 18.5625 9.421875 
L 18.5625 43.703125 
L 6.390625 43.703125 
L 6.390625 47.796875 
L 9.078125 47.796875 
Q 14.359375 47.796875 18.53125 49.75 
Q 22.703125 51.703125 24.515625 53.953125 
L 28.5625 53.953125 
Q 28.421875 50.78125 28.265625 46.53125 
Q 28.125 42.28125 28.125 38.921875 
L 28.125 9.96875 
Q 28.125 8.25 28.875 6.90625 
Q 29.640625 5.5625 31.0625 4.9375 
Q 32.328125 4.390625 35.203125 3.953125 
Q 38.09375 3.515625 39.5 3.46875 
z
" id="Georgia-31"/>
      </defs>
      <g transform="translate(393.963097 255.27125)scale(0.12 -0.12)">
       <use xlink:href="#Georgia-31"/>
       <use x="42.96875" xlink:href="#Georgia-2e"/>
       <use x="69.921875" xlink:href="#Georgia-30"/>
      </g>
     </g>
    </g>
    <g id="text_7">
     <!-- x -->
     <defs>
      <path d="M 49.90625 0 
L 27.828125 0 
L 27.828125 3.21875 
Q 30.03125 3.46875 31.5625 3.703125 
Q 33.109375 3.953125 33.109375 4.984375 
Q 33.109375 5.421875 32.609375 6.34375 
Q 32.125 7.28125 31.640625 8.0625 
Q 30.421875 9.96875 28.296875 13.15625 
Q 26.171875 16.359375 23.09375 20.796875 
Q 20.5625 17.625 18.40625 14.625 
Q 16.265625 11.625 13.921875 8.25 
Q 13.578125 7.765625 13.203125 7.03125 
Q 12.84375 6.296875 12.84375 5.859375 
Q 12.84375 4.78125 14.234375 4.078125 
Q 15.625 3.375 18.40625 3.125 
L 18.40625 0 
L 0.59375 0 
L 0.59375 3.03125 
Q 3.90625 4 5.921875 5.390625 
Q 7.953125 6.78125 9.671875 8.84375 
Q 11.1875 10.796875 13.890625 14.203125 
Q 16.609375 17.625 20.90625 23.484375 
Q 18.40625 27.046875 14.8125 32.203125 
Q 11.234375 37.359375 8.890625 40.765625 
Q 7.625 42.625 5.984375 43.765625 
Q 4.34375 44.921875 1.375 44.921875 
L 1.375 48.140625 
L 22.3125 48.140625 
L 22.3125 44.921875 
Q 20.75 44.921875 19.234375 44.71875 
Q 17.71875 44.53125 17.71875 43.84375 
Q 17.71875 43.40625 18.015625 42.859375 
Q 18.3125 42.328125 18.75 41.703125 
Q 19.828125 40.046875 22.09375 36.578125 
Q 24.359375 33.109375 27 29.25 
Q 28.71875 31.59375 30.984375 34.71875 
Q 33.25 37.84375 35.15625 40.671875 
Q 35.359375 41.015625 35.546875 41.53125 
Q 35.75 42.046875 35.75 42.53125 
Q 35.75 43.5625 34.0625 44.171875 
Q 32.375 44.78125 30.859375 45.015625 
L 30.859375 48.140625 
L 48.640625 48.140625 
L 48.640625 45.125 
Q 44.875 44.140625 42.765625 42.796875 
Q 40.671875 41.453125 39.203125 39.703125 
Q 37.59375 37.703125 35.375 34.765625 
Q 33.15625 31.84375 29.15625 26.5625 
Q 33.59375 20.3125 36.375 16.3125 
Q 39.15625 12.3125 42 8.0625 
Q 43.40625 5.90625 45.140625 4.65625 
Q 46.875 3.421875 49.90625 3.21875 
z
" id="Georgia-78"/>
     </defs>
     <g transform="translate(239.21125 273.96875)scale(0.16 -0.16)">
      <use xlink:href="#Georgia-78"/>
     </g>
    </g>
   </g>
   <g id="matplotlib.axis_2">
    <g id="ytick_1">
     <g id="line2d_7">
      <defs>
       <path d="M 0 0 
L -3.5 0 
" id="mc4a2b88630" style="stroke:#000000;stroke-width:0.8;"/>
      </defs>
      <g>
       <use style="stroke:#000000;stroke-width:0.8;" x="68.8" xlink:href="#mc4a2b88630" y="238.26624"/>
      </g>
     </g>
     <g id="text_8">
      <!-- −1.0 -->
      <defs>
       <path d="M 57.03125 24.265625 
L 7.28125 24.265625 
L 7.28125 30.375 
L 57.03125 30.375 
z
" id="Georgia-2212"/>
      </defs>
      <g transform="translate(38.326875 242.801865)scale(0.12 -0.12)">
       <use xlink:href="#Georgia-2212"/>
       <use x="64.306641" xlink:href="#Georgia-31"/>
       <use x="107.275391" xlink:href="#Georgia-2e"/>
       <use x="134.228516" xlink:href="#Georgia-30"/>
      </g>
     </g>
    </g>
    <g id="ytick_2">
     <g id="line2d_8">
      <g>
       <use style="stroke:#000000;stroke-width:0.8;" x="68.8" xlink:href="#mc4a2b88630" y="189.995243"/>
      </g>
     </g>
     <g id="text_9">
      <!-- −0.5 -->
      <defs>
       <path d="M 41.15625 22.90625 
Q 44.390625 20.359375 46.515625 16.359375 
Q 48.640625 12.359375 48.640625 6.34375 
Q 48.640625 -4.15625 41.453125 -10.984375 
Q 34.28125 -17.828125 23.25 -17.828125 
Q 14.703125 -17.828125 8.78125 -13.765625 
Q 2.875 -9.71875 2.875 -4.34375 
Q 2.875 -1.859375 4.09375 0 
Q 5.328125 1.859375 7.859375 1.859375 
Q 10.796875 1.859375 12.328125 0.3125 
Q 13.875 -1.21875 13.875 -3.03125 
Q 13.875 -4.59375 13.328125 -6.9375 
Q 12.796875 -9.28125 12.5 -10.40625 
Q 12.890625 -10.75 13.765625 -11.328125 
Q 14.65625 -11.921875 15.875 -12.453125 
Q 17.140625 -12.984375 18.96875 -13.390625 
Q 20.796875 -13.8125 23.25 -13.8125 
Q 26.375 -13.8125 29.15625 -12.546875 
Q 31.9375 -11.28125 33.84375 -8.796875 
Q 35.9375 -6.0625 36.984375 -2.5625 
Q 38.03125 0.921875 38.03125 6.296875 
Q 38.03125 13.1875 34.203125 17.703125 
Q 30.375 22.21875 24.125 22.21875 
Q 20.21875 22.21875 16.8125 20.75 
Q 13.421875 19.28125 10.75 15.875 
L 7.46875 17.140625 
L 11.625 52.390625 
L 46.578125 52.390625 
L 46.578125 43.703125 
L 15.578125 43.703125 
L 13.03125 23 
Q 15.234375 24.5625 18.8125 26.09375 
Q 22.40625 27.640625 26.703125 27.640625 
Q 30.28125 27.640625 34.109375 26.53125 
Q 37.9375 25.4375 41.15625 22.90625 
z
" id="Georgia-35"/>
      </defs>
      <g transform="translate(37.14375 194.530868)scale(0.12 -0.12)">
       <use xlink:href="#Georgia-2212"/>
       <use x="64.306641" xlink:href="#Georgia-30"/>
       <use x="125.683594" xlink:href="#Georgia-2e"/>
       <use x="152.636719" xlink:href="#Georgia-35"/>
      </g>
     </g>
    </g>
    <g id="ytick_3">
     <g id="line2d_9">
      <g>
       <use style="stroke:#000000;stroke-width:0.8;" x="68.8" xlink:href="#mc4a2b88630" y="141.724245"/>
      </g>
     </g>
     <g id="text_10">
      <!-- 0.0 -->
      <g transform="translate(43.835625 146.25987)scale(0.12 -0.12)">
       <use xlink:href="#Georgia-30"/>
       <use x="61.376953" xlink:href="#Georgia-2e"/>
       <use x="88.330078" xlink:href="#Georgia-30"/>
      </g>
     </g>
    </g>
    <g id="ytick_4">
     <g id="line2d_10">
      <g>
       <use style="stroke:#000000;stroke-width:0.8;" x="68.8" xlink:href="#mc4a2b88630" y="93.453248"/>
      </g>
     </g>
     <g id="text_11">
      <!-- 0.5 -->
      <g transform="translate(44.86125 97.988873)scale(0.12 -0.12)">
       <use xlink:href="#Georgia-30"/>
       <use x="61.376953" xlink:href="#Georgia-2e"/>
       <use x="88.330078" xlink:href="#Georgia-35"/>
      </g>
     </g>
    </g>
    <g id="ytick_5">
     <g id="line2d_11">
      <g>
       <use style="stroke:#000000;stroke-width:0.8;" x="68.8" xlink:href="#mc4a2b88630" y="45.182251"/>
      </g>
     </g>
     <g id="text_12">
      <!-- 1.0 -->
      <g transform="translate(46.044375 49.717876)scale(0.12 -0.12)">
       <use xlink:href="#Georgia-31"/>
       <use x="42.96875" xlink:href="#Georgia-2e"/>
       <use x="69.921875" xlink:href="#Georgia-30"/>
      </g>
     </g>
    </g>
    <g id="text_13">
     <!-- y -->
     <defs>
      <path d="M -0.140625 -15.71875 
Q -0.140625 -13.28125 1.203125 -11.734375 
Q 2.546875 -10.203125 4.546875 -10.203125 
Q 6.109375 -10.203125 7.21875 -10.78125 
Q 8.34375 -11.375 9.234375 -12.3125 
Q 9.96875 -13.03125 10.796875 -14.296875 
Q 11.625 -15.578125 12.109375 -16.40625 
Q 14.546875 -15.09375 17.9375 -9.515625 
Q 21.34375 -3.953125 22.859375 0.25 
Q 18.21875 11.8125 14.453125 20.9375 
Q 10.6875 30.078125 6.59375 39.84375 
Q 5.671875 42.09375 3.46875 43.328125 
Q 1.265625 44.578125 -0.921875 44.921875 
L -0.921875 48.140625 
L 21.046875 48.140625 
L 21.046875 44.734375 
Q 19.578125 44.671875 17.53125 44.109375 
Q 15.484375 43.5625 15.484375 42.828125 
Q 15.484375 42.53125 15.703125 41.84375 
Q 15.921875 41.15625 16.21875 40.4375 
Q 18.0625 35.59375 21.875 26.484375 
Q 25.6875 17.390625 27.78125 11.921875 
Q 29.984375 17.140625 32.34375 22.734375 
Q 34.71875 28.328125 37.640625 35.9375 
Q 37.984375 36.859375 38.625 38.5 
Q 39.265625 40.140625 39.265625 41.3125 
Q 39.265625 42.578125 37.03125 43.671875 
Q 34.8125 44.78125 32.8125 45.015625 
L 32.8125 48.140625 
L 50.6875 48.140625 
L 50.6875 45.125 
Q 49.21875 44.875 46.828125 43.4375 
Q 44.4375 42 43.265625 39.359375 
Q 37.453125 25.875 32.9375 14.796875 
Q 28.421875 3.71875 26.078125 -1.515625 
Q 23 -8.34375 20.578125 -12.171875 
Q 18.171875 -16.015625 15.875 -18.21875 
Q 13.625 -20.265625 11.796875 -20.96875 
Q 9.96875 -21.6875 8.015625 -21.6875 
Q 4.203125 -21.6875 2.03125 -19.875 
Q -0.140625 -18.0625 -0.140625 -15.71875 
z
" id="Georgia-79"/>
     </defs>
     <g transform="translate(29.67375 138.9375)rotate(-90)scale(0.16 -0.16)">
      <use xlink:href="#Georgia-79"/>
     </g>
    </g>
   </g>
   <g id="line2d_12">
    <path clip-path="url(#p7c01fcce33)" d="M 84.659091 127.232747 
L 87.862948 118.631517 
L 91.066804 110.578482 
L 94.270661 103.06217 
L 97.474518 96.071105 
L 100.678375 89.593816 
L 103.882231 83.618829 
L 107.086088 78.134671 
L 110.289945 73.129868 
L 113.493802 68.592947 
L 116.697658 64.512435 
L 119.901515 60.876859 
L 123.105372 57.674746 
L 126.309229 54.894622 
L 129.513085 52.525013 
L 132.716942 50.554448 
L 135.920799 48.971452 
L 139.124656 47.764552 
L 142.328512 46.922275 
L 145.532369 46.433147 
L 148.736226 46.285697 
L 151.940083 46.468449 
L 155.143939 46.969932 
L 158.347796 47.778671 
L 161.551653 48.883193 
L 164.75551 50.272026 
L 167.959366 51.933695 
L 171.163223 53.856729 
L 174.36708 56.029653 
L 177.570937 58.440994 
L 180.774793 61.079278 
L 183.97865 63.933034 
L 187.182507 66.990787 
L 190.386364 70.241064 
L 193.59022 73.672392 
L 196.794077 77.273298 
L 199.997934 81.032308 
L 203.201791 84.93795 
L 206.405647 88.978749 
L 209.609504 93.143233 
L 212.813361 97.419928 
L 216.017218 101.797362 
L 219.221074 106.26406 
L 222.424931 110.80855 
L 225.628788 115.419359 
L 228.832645 120.085012 
L 232.036501 124.794038 
L 235.240358 129.534962 
L 238.444215 134.296311 
L 241.648072 139.066613 
L 244.851928 143.834394 
L 248.055785 148.58818 
L 251.259642 153.316498 
L 254.463499 158.007876 
L 257.667355 162.65084 
L 260.871212 167.233916 
L 264.075069 171.745631 
L 267.278926 176.174513 
L 270.482782 180.509088 
L 273.686639 184.737882 
L 276.890496 188.849422 
L 280.094353 192.832236 
L 283.298209 196.67485 
L 286.502066 200.36579 
L 289.705923 203.893583 
L 292.90978 207.246757 
L 296.113636 210.413837 
L 299.317493 213.383351 
L 302.52135 216.143826 
L 305.725207 218.683787 
L 308.929063 220.991762 
L 312.13292 223.056278 
L 315.336777 224.865861 
L 318.540634 226.409039 
L 321.74449 227.674337 
L 324.948347 228.650283 
L 328.152204 229.325403 
L 331.356061 229.688224 
L 334.559917 229.727273 
L 337.763774 229.431076 
L 340.967631 228.788161 
L 344.171488 227.787054 
L 347.375344 226.416282 
L 350.579201 224.664371 
L 353.783058 222.519848 
L 356.986915 219.971241 
L 360.190771 217.007075 
L 363.394628 213.615878 
L 366.598485 209.786177 
L 369.802342 205.506497 
L 373.006198 200.765366 
L 376.210055 195.551311 
L 379.413912 189.852858 
L 382.617769 183.658534 
L 385.821625 176.956866 
L 389.025482 169.73638 
L 392.229339 161.985603 
L 395.433196 153.693063 
L 398.637052 144.847285 
L 401.840909 135.436797 
" style="fill:none;stroke:#000000;stroke-linecap:square;stroke-width:1.5;"/>
   </g>
   <g id="patch_3">
    <path d="M 68.8 239.2 
L 68.8 30.8 
" style="fill:none;stroke:#000000;stroke-linecap:square;stroke-linejoin:miter;stroke-width:0.8;"/>
   </g>
   <g id="patch_4">
    <path d="M 417.7 239.2 
L 417.7 30.8 
" style="fill:none;stroke:#000000;stroke-linecap:square;stroke-linejoin:miter;stroke-width:0.8;"/>
   </g>
   <g id="patch_5">
    <path d="M 68.8 239.2 
L 417.7 239.2 
" style="fill:none;stroke:#000000;stroke-linecap:square;stroke-linejoin:miter;stroke-width:0.8;"/>
   </g>
   <g id="patch_6">
    <path d="M 68.8 30.8 
L 417.7 30.8 
" style="fill:none;stroke:#000000;stroke-linecap:square;stroke-linejoin:miter;stroke-width:0.8;"/>
   </g>
   <g id="text_14">
    <!-- Non-linear regression (D = 3) -->
    <defs>
     <path d="M 75.875 65.828125 
Q 74.515625 65.765625 71.671875 65.03125 
Q 68.84375 64.3125 67.625 63.53125 
Q 65.875 62.3125 65.265625 58.84375 
Q 64.65625 55.375 64.65625 50.046875 
L 64.65625 -0.6875 
L 60.40625 -0.6875 
L 18.40625 56 
L 18.40625 20.265625 
Q 18.40625 14.265625 19.15625 11.03125 
Q 19.921875 7.8125 21.484375 6.453125 
Q 22.609375 5.375 26.125 4.4375 
Q 29.640625 3.515625 30.765625 3.46875 
L 30.765625 0 
L 2.34375 0 
L 2.34375 3.46875 
Q 3.65625 3.5625 6.78125 4.421875 
Q 9.90625 5.28125 10.6875 5.953125 
Q 12.40625 7.328125 13.03125 10.125 
Q 13.671875 12.9375 13.671875 19.734375 
L 13.671875 53.859375 
Q 13.671875 56.109375 12.890625 58.34375 
Q 12.109375 60.59375 10.796875 61.8125 
Q 9.03125 63.421875 6.03125 64.5625 
Q 3.03125 65.71875 1.171875 65.828125 
L 1.171875 69.28125 
L 20.953125 69.28125 
L 59.90625 16.453125 
L 59.90625 49.421875 
Q 59.90625 55.46875 59.125 58.71875 
Q 58.34375 61.96875 56.890625 63.03125 
Q 55.515625 63.96875 52.40625 64.84375 
Q 49.3125 65.71875 47.703125 65.828125 
L 47.703125 69.28125 
L 75.875 69.28125 
z
" id="Georgia-4e"/>
     <path d="M 50.4375 24.5625 
Q 50.4375 19.484375 48.828125 14.578125 
Q 47.21875 9.671875 44.234375 6.25 
Q 40.875 2.34375 36.421875 0.4375 
Q 31.984375 -1.46875 26.46875 -1.46875 
Q 21.875 -1.46875 17.71875 0.265625 
Q 13.578125 2 10.359375 5.328125 
Q 7.171875 8.59375 5.296875 13.296875 
Q 3.421875 18.015625 3.421875 23.875 
Q 3.421875 35.15625 9.984375 42.328125 
Q 16.546875 49.515625 27.203125 49.515625 
Q 37.3125 49.515625 43.875 42.703125 
Q 50.4375 35.890625 50.4375 24.5625 
z
M 40.328125 24.46875 
Q 40.328125 28.125 39.59375 32.203125 
Q 38.875 36.28125 37.40625 39.109375 
Q 35.84375 42.140625 33.296875 43.96875 
Q 30.765625 45.796875 27.09375 45.796875 
Q 23.34375 45.796875 20.671875 43.9375 
Q 18.015625 42.09375 16.359375 38.875 
Q 14.796875 35.890625 14.15625 32.078125 
Q 13.53125 28.265625 13.53125 24.703125 
Q 13.53125 20.015625 14.28125 16.03125 
Q 15.046875 12.0625 16.703125 8.9375 
Q 18.359375 5.8125 20.875 4.03125 
Q 23.390625 2.25 27.09375 2.25 
Q 33.203125 2.25 36.765625 8.15625 
Q 40.328125 14.0625 40.328125 24.46875 
z
" id="Georgia-6f"/>
     <path d="M 56.6875 0 
L 33.109375 0 
L 33.109375 3.21875 
Q 34.234375 3.328125 35.578125 3.421875 
Q 36.921875 3.515625 37.796875 3.8125 
Q 39.15625 4.25 39.8125 5.34375 
Q 40.484375 6.453125 40.484375 8.203125 
L 40.484375 32.953125 
Q 40.484375 38.09375 38.0625 40.875 
Q 35.640625 43.65625 32.171875 43.65625 
Q 29.59375 43.65625 27.4375 42.84375 
Q 25.296875 42.046875 23.640625 40.875 
Q 22.015625 39.75 21.0625 38.453125 
Q 20.125 37.15625 19.671875 36.375 
L 19.671875 8.6875 
Q 19.671875 7.03125 20.359375 5.953125 
Q 21.046875 4.890625 22.40625 4.296875 
Q 23.4375 3.8125 24.625 3.5625 
Q 25.828125 3.328125 27.09375 3.21875 
L 27.09375 0 
L 3.515625 0 
L 3.515625 3.21875 
Q 4.640625 3.328125 5.828125 3.421875 
Q 7.03125 3.515625 7.90625 3.8125 
Q 9.28125 4.25 9.9375 5.34375 
Q 10.59375 6.453125 10.59375 8.203125 
L 10.59375 37.9375 
Q 10.59375 39.59375 9.890625 40.984375 
Q 9.1875 42.390625 7.90625 43.265625 
Q 6.984375 43.84375 5.703125 44.109375 
Q 4.4375 44.390625 2.984375 44.484375 
L 2.984375 47.65625 
L 19 48.734375 
L 19.671875 48.046875 
L 19.671875 41.265625 
L 19.921875 41.265625 
Q 21.09375 42.4375 22.84375 44.0625 
Q 24.609375 45.703125 26.171875 46.734375 
Q 27.984375 47.90625 30.46875 48.6875 
Q 32.953125 49.46875 36.078125 49.46875 
Q 43.015625 49.46875 46.359375 45.140625 
Q 49.703125 40.828125 49.703125 33.640625 
L 49.703125 8.59375 
Q 49.703125 6.890625 50.28125 5.828125 
Q 50.875 4.78125 52.296875 4.203125 
Q 53.46875 3.71875 54.3125 3.515625 
Q 55.171875 3.328125 56.6875 3.21875 
z
" id="Georgia-6e"/>
     <path d="M 33.25 22.703125 
L 4.15625 22.703125 
L 4.15625 30.375 
L 33.25 30.375 
z
" id="Georgia-2d"/>
     <path d="M 26.078125 0 
L 2.59375 0 
L 2.59375 3.21875 
Q 3.71875 3.328125 4.984375 3.4375 
Q 6.25 3.5625 7.078125 3.8125 
Q 8.453125 4.25 9.125 5.34375 
Q 9.8125 6.453125 9.8125 8.203125 
L 9.8125 63.96875 
Q 9.8125 65.71875 9.046875 67.25 
Q 8.296875 68.796875 7.078125 69.671875 
Q 6.203125 70.265625 3.859375 70.75 
Q 1.515625 71.234375 0.09375 71.34375 
L 0.09375 74.46875 
L 18.21875 75.59375 
L 18.890625 74.859375 
L 18.890625 8.796875 
Q 18.890625 7.078125 19.53125 5.984375 
Q 20.171875 4.890625 21.578125 4.296875 
Q 22.65625 3.8125 23.703125 3.5625 
Q 24.75 3.328125 26.078125 3.21875 
z
" id="Georgia-6c"/>
     <path d="M 26.90625 0 
L 3.609375 0 
L 3.609375 3.21875 
Q 4.734375 3.328125 5.921875 3.421875 
Q 7.125 3.515625 8.015625 3.8125 
Q 9.375 4.25 10.03125 5.34375 
Q 10.6875 6.453125 10.6875 8.203125 
L 10.6875 37.9375 
Q 10.6875 39.5 9.984375 40.796875 
Q 9.28125 42.09375 8.015625 42.96875 
Q 7.078125 43.5625 5.3125 43.96875 
Q 3.5625 44.390625 2.09375 44.484375 
L 2.09375 47.65625 
L 19.09375 48.734375 
L 19.78125 48.046875 
L 19.78125 8.796875 
Q 19.78125 7.078125 20.4375 5.953125 
Q 21.09375 4.828125 22.515625 4.296875 
Q 23.578125 3.859375 24.609375 3.59375 
Q 25.640625 3.328125 26.90625 3.21875 
z
M 20.75 67.71875 
Q 20.75 64.9375 18.921875 62.859375 
Q 17.09375 60.796875 14.40625 60.796875 
Q 11.921875 60.796875 10.078125 62.765625 
Q 8.25 64.75 8.25 67.28125 
Q 8.25 69.96875 10.078125 71.96875 
Q 11.921875 73.96875 14.40625 73.96875 
Q 17.1875 73.96875 18.96875 72.09375 
Q 20.75 70.21875 20.75 67.71875 
z
" id="Georgia-69"/>
     <path d="M 46.296875 11.328125 
Q 43.265625 5.5625 38.1875 2.140625 
Q 33.109375 -1.265625 26.515625 -1.265625 
Q 20.703125 -1.265625 16.328125 0.78125 
Q 11.96875 2.828125 9.125 6.34375 
Q 6.296875 9.859375 4.90625 14.546875 
Q 3.515625 19.234375 3.515625 24.46875 
Q 3.515625 29.15625 5 33.671875 
Q 6.5 38.1875 9.375 41.796875 
Q 12.15625 45.265625 16.28125 47.390625 
Q 20.40625 49.515625 25.53125 49.515625 
Q 30.8125 49.515625 34.5625 47.84375 
Q 38.328125 46.1875 40.671875 43.3125 
Q 42.921875 40.578125 44.015625 36.859375 
Q 45.125 33.15625 45.125 28.8125 
L 45.125 25.59375 
L 13.234375 25.59375 
Q 13.234375 20.84375 14.140625 16.984375 
Q 15.046875 13.140625 17 10.203125 
Q 18.890625 7.375 21.96875 5.734375 
Q 25.046875 4.109375 29.296875 4.109375 
Q 33.640625 4.109375 36.78125 6.125 
Q 39.9375 8.15625 42.875 13.421875 
z
M 35.5 29.6875 
Q 35.5 32.421875 35.03125 35.546875 
Q 34.578125 38.671875 33.546875 40.765625 
Q 32.421875 43.015625 30.46875 44.421875 
Q 28.515625 45.84375 25.4375 45.84375 
Q 20.3125 45.84375 16.921875 41.578125 
Q 13.53125 37.3125 13.234375 29.6875 
z
" id="Georgia-65"/>
     <path d="M 49.125 0.875 
Q 46.828125 0.046875 45.09375 -0.46875 
Q 43.359375 -0.984375 41.15625 -0.984375 
Q 37.359375 -0.984375 35.078125 0.796875 
Q 32.8125 2.59375 32.171875 6 
L 31.890625 6 
Q 28.71875 2.484375 25.078125 0.625 
Q 21.4375 -1.21875 16.3125 -1.21875 
Q 10.890625 -1.21875 7.390625 2.09375 
Q 3.90625 5.421875 3.90625 10.796875 
Q 3.90625 13.578125 4.6875 15.765625 
Q 5.46875 17.96875 7.03125 19.734375 
Q 8.25 21.1875 10.25 22.328125 
Q 12.25 23.484375 14.015625 24.171875 
Q 16.21875 25 22.921875 27.25 
Q 29.640625 29.5 31.984375 30.765625 
L 31.984375 35.59375 
Q 31.984375 36.234375 31.71875 38.03125 
Q 31.453125 39.84375 30.5625 41.453125 
Q 29.59375 43.265625 27.8125 44.609375 
Q 26.03125 45.953125 22.75 45.953125 
Q 20.515625 45.953125 18.578125 45.1875 
Q 16.65625 44.4375 15.875 43.609375 
Q 15.875 42.625 16.328125 40.71875 
Q 16.796875 38.8125 16.796875 37.203125 
Q 16.796875 35.5 15.25 34.078125 
Q 13.71875 32.671875 10.984375 32.671875 
Q 8.546875 32.671875 7.390625 34.40625 
Q 6.25 36.140625 6.25 38.28125 
Q 6.25 40.53125 7.828125 42.578125 
Q 9.421875 44.625 11.96875 46.234375 
Q 14.15625 47.609375 17.28125 48.5625 
Q 20.40625 49.515625 23.390625 49.515625 
Q 27.484375 49.515625 30.53125 48.953125 
Q 33.59375 48.390625 36.078125 46.53125 
Q 38.578125 44.734375 39.859375 41.625 
Q 41.15625 38.53125 41.15625 33.640625 
Q 41.15625 26.65625 41.015625 21.265625 
Q 40.875 15.875 40.875 9.46875 
Q 40.875 7.5625 41.53125 6.4375 
Q 42.1875 5.328125 43.5625 4.546875 
Q 44.28125 4.109375 45.875 4.046875 
Q 47.46875 4 49.125 4 
z
M 32.078125 26.65625 
Q 27.9375 25.4375 24.8125 24.265625 
Q 21.6875 23.09375 19 21.34375 
Q 16.546875 19.671875 15.125 17.40625 
Q 13.71875 15.140625 13.71875 12.015625 
Q 13.71875 7.953125 15.84375 6.046875 
Q 17.96875 4.15625 21.234375 4.15625 
Q 24.703125 4.15625 27.34375 5.828125 
Q 29.984375 7.515625 31.78125 9.8125 
z
" id="Georgia-61"/>
     <path d="M 40.375 41.9375 
Q 40.375 39.453125 39.15625 37.515625 
Q 37.9375 35.59375 35.40625 35.59375 
Q 32.671875 35.59375 31.21875 37 
Q 29.78125 38.421875 29.78125 40.140625 
Q 29.78125 41.21875 29.953125 42.09375 
Q 30.125 42.96875 30.28125 43.84375 
Q 27.984375 43.84375 24.90625 41.984375 
Q 21.828125 40.140625 19.671875 36.71875 
L 19.671875 8.6875 
Q 19.671875 6.984375 20.328125 5.90625 
Q 21 4.828125 22.40625 4.296875 
Q 23.640625 3.8125 25.5625 3.5625 
Q 27.484375 3.328125 28.90625 3.21875 
L 28.90625 0 
L 3.515625 0 
L 3.515625 3.21875 
Q 4.640625 3.328125 5.828125 3.421875 
Q 7.03125 3.515625 7.90625 3.8125 
Q 9.28125 4.25 9.9375 5.34375 
Q 10.59375 6.453125 10.59375 8.203125 
L 10.59375 37.9375 
Q 10.59375 39.453125 9.890625 40.921875 
Q 9.1875 42.390625 7.90625 43.265625 
Q 6.984375 43.84375 5.703125 44.109375 
Q 4.4375 44.390625 2.984375 44.484375 
L 2.984375 47.65625 
L 19 48.734375 
L 19.671875 48.046875 
L 19.671875 41.265625 
L 19.921875 41.265625 
Q 22.953125 45.21875 26.65625 47.265625 
Q 30.375 49.3125 33.453125 49.3125 
Q 36.53125 49.3125 38.453125 47.3125 
Q 40.375 45.3125 40.375 41.9375 
z
" id="Georgia-72"/>
     <path id="Georgia-20"/>
     <path d="M 44.78125 4.984375 
Q 46.734375 3.125 47.84375 0.78125 
Q 48.96875 -1.5625 48.96875 -5.03125 
Q 48.96875 -8.5 47.453125 -11.546875 
Q 45.953125 -14.59375 42.875 -16.84375 
Q 39.59375 -19.140625 35.046875 -20.40625 
Q 30.515625 -21.6875 23.828125 -21.6875 
Q 12.890625 -21.6875 7.46875 -18.484375 
Q 2.046875 -15.28125 2.046875 -9.125 
Q 2.046875 -4.15625 5.953125 -1.265625 
Q 9.859375 1.609375 15.921875 1.859375 
L 15.921875 2.546875 
Q 14.453125 2.984375 12.890625 3.640625 
Q 11.328125 4.296875 10.203125 5.171875 
Q 8.9375 6.203125 8.15625 7.59375 
Q 7.375 8.984375 7.375 11.03125 
Q 7.375 13.625 9.203125 15.796875 
Q 11.03125 17.96875 14.75 19.53125 
L 14.75 20.265625 
Q 10.0625 22.46875 7.46875 25.90625 
Q 4.890625 29.34375 4.890625 33.890625 
Q 4.890625 40.71875 9.984375 45.109375 
Q 15.09375 49.515625 23.046875 49.515625 
Q 25.25 49.515625 27.421875 49.078125 
Q 29.59375 48.640625 31.84375 47.953125 
L 48.640625 47.953125 
L 48.640625 43.265625 
L 37.3125 43.265625 
L 37.3125 42.96875 
Q 39.109375 40.875 39.984375 38.328125 
Q 40.875 35.796875 40.875 33.34375 
Q 40.875 27 35.71875 22.609375 
Q 30.5625 18.21875 23.734375 18.21875 
L 17.828125 18.21875 
Q 16.703125 17.828125 15.484375 16.796875 
Q 14.265625 15.765625 14.265625 14.015625 
Q 14.265625 12.203125 15.28125 11.25 
Q 16.3125 10.296875 17.78125 9.96875 
Q 19.1875 9.578125 21.0625 9.46875 
Q 22.953125 9.375 24.953125 9.328125 
Q 27.09375 9.28125 30.828125 9.03125 
Q 34.578125 8.796875 36.140625 8.734375 
Q 38.375 8.640625 40.640625 7.65625 
Q 42.921875 6.6875 44.78125 4.984375 
z
M 31.59375 33.546875 
Q 31.59375 39.265625 29.265625 42.65625 
Q 26.953125 46.046875 22.75 46.046875 
Q 20.453125 46.046875 18.8125 45.09375 
Q 17.1875 44.140625 16.15625 42.390625 
Q 15.1875 40.765625 14.765625 38.5 
Q 14.359375 36.234375 14.359375 33.84375 
Q 14.359375 28.421875 16.71875 25 
Q 19.09375 21.578125 22.859375 21.578125 
Q 27.046875 21.578125 29.3125 24.96875 
Q 31.59375 28.375 31.59375 33.546875 
z
M 40.96875 -6.84375 
Q 40.96875 -4.109375 39.6875 -2.34375 
Q 38.421875 -0.59375 35.84375 0.046875 
Q 34.46875 0.25 30.21875 0.484375 
Q 25.984375 0.734375 20.359375 0.734375 
Q 15.09375 -0.296875 12.859375 -2.703125 
Q 10.640625 -5.125 10.640625 -8.9375 
Q 10.640625 -10.640625 11.375 -12.203125 
Q 12.109375 -13.765625 13.921875 -15.09375 
Q 15.625 -16.359375 18.5 -17.15625 
Q 21.390625 -17.96875 25.53125 -17.96875 
Q 32.71875 -17.96875 36.84375 -15.203125 
Q 40.96875 -12.453125 40.96875 -6.84375 
z
" id="Georgia-67"/>
     <path d="M 35.296875 23.578125 
Q 37.3125 21.828125 38.375 19.53125 
Q 39.453125 17.234375 39.453125 13.921875 
Q 39.453125 7.234375 34.4375 2.984375 
Q 29.4375 -1.265625 21.484375 -1.265625 
Q 17.28125 -1.265625 13.734375 0.25 
Q 10.203125 1.765625 8.6875 3.03125 
L 7.71875 -0.140625 
L 4.046875 -0.140625 
L 3.5625 16.609375 
L 6.9375 16.609375 
Q 7.328125 14.703125 8.59375 12.15625 
Q 9.859375 9.625 11.671875 7.5625 
Q 13.578125 5.421875 16.234375 3.953125 
Q 18.890625 2.484375 22.21875 2.484375 
Q 26.90625 2.484375 29.4375 4.609375 
Q 31.984375 6.734375 31.984375 10.6875 
Q 31.984375 12.75 31.171875 14.234375 
Q 30.375 15.71875 28.8125 16.84375 
Q 27.203125 17.96875 24.859375 18.875 
Q 22.515625 19.78125 19.625 20.65625 
Q 17.328125 21.34375 14.515625 22.53125 
Q 11.71875 23.734375 9.71875 25.34375 
Q 7.5625 27.046875 6.1875 29.53125 
Q 4.828125 32.03125 4.828125 35.40625 
Q 4.828125 41.3125 9.21875 45.40625 
Q 13.625 49.515625 21 49.515625 
Q 23.828125 49.515625 26.78125 48.78125 
Q 29.734375 48.046875 31.59375 47.015625 
L 32.71875 49.5625 
L 36.234375 49.5625 
L 36.96875 34.078125 
L 33.59375 34.078125 
Q 32.5625 39.265625 29.171875 42.5 
Q 25.78125 45.75 20.90625 45.75 
Q 16.890625 45.75 14.59375 43.75 
Q 12.3125 41.75 12.3125 38.921875 
Q 12.3125 36.71875 13.0625 35.25 
Q 13.8125 33.796875 15.328125 32.765625 
Q 16.796875 31.78125 19.015625 30.921875 
Q 21.234375 30.078125 24.515625 29 
Q 27.734375 27.984375 30.59375 26.609375 
Q 33.453125 25.25 35.296875 23.578125 
z
" id="Georgia-73"/>
     <path d="M 34.234375 -16.015625 
Q 20.90625 -14.359375 13.3125 -2.578125 
Q 5.71875 9.1875 5.71875 29.109375 
Q 5.71875 49.359375 13.3125 61.203125 
Q 20.90625 73.046875 34.234375 74.8125 
L 34.234375 70.75 
Q 24.859375 69.046875 19.96875 58.78125 
Q 15.09375 48.53125 15.09375 29 
Q 15.09375 10.40625 19.875 0.078125 
Q 24.65625 -10.25 34.234375 -12.015625 
z
" id="Georgia-28"/>
     <path d="M 71.140625 34.234375 
Q 71.140625 25.390625 67.8125 18.890625 
Q 64.5 12.40625 59.1875 8.25 
Q 53.8125 4.109375 47.125 2.046875 
Q 40.4375 0 33.296875 0 
L 4.59375 0 
L 4.59375 3.46875 
Q 6 3.46875 8.265625 3.734375 
Q 10.546875 4 11.28125 4.34375 
Q 12.75 4.984375 13.40625 6.21875 
Q 14.0625 7.46875 14.0625 9.234375 
L 14.0625 59.234375 
Q 14.0625 60.890625 13.5 62.203125 
Q 12.9375 63.53125 11.28125 64.3125 
Q 9.765625 65.046875 8 65.375 
Q 6.25 65.71875 4.984375 65.828125 
L 4.984375 69.28125 
L 35.25 69.28125 
Q 41.5 69.28125 47.546875 67.359375 
Q 53.609375 65.4375 58.109375 62.15625 
Q 64.203125 57.8125 67.671875 50.78125 
Q 71.140625 43.75 71.140625 34.234375 
z
M 59.1875 34.28125 
Q 59.1875 41.265625 57.328125 46.90625 
Q 55.46875 52.546875 51.90625 56.734375 
Q 48.53125 60.75 43.625 63.03125 
Q 38.71875 65.328125 32.71875 65.328125 
Q 30.71875 65.328125 28.203125 65.25 
Q 25.6875 65.1875 24.46875 65.140625 
L 24.46875 11.859375 
Q 24.46875 7.421875 27.046875 5.703125 
Q 29.640625 4 35.015625 4 
Q 41.21875 4 45.84375 6.203125 
Q 50.484375 8.40625 53.375 12.3125 
Q 56.390625 16.40625 57.78125 21.796875 
Q 59.1875 27.203125 59.1875 34.28125 
z
" id="Georgia-44"/>
     <path d="M 56.78125 33.34375 
L 7.515625 33.34375 
L 7.515625 39.453125 
L 56.78125 39.453125 
z
M 56.78125 15.1875 
L 7.515625 15.1875 
L 7.515625 21.296875 
L 56.78125 21.296875 
z
" id="Georgia-3d"/>
     <path d="M 23.78125 -17.828125 
Q 19.1875 -17.828125 15.375 -16.671875 
Q 11.578125 -15.53125 8.84375 -13.578125 
Q 6.109375 -11.625 4.609375 -9.078125 
Q 3.125 -6.546875 3.125 -3.859375 
Q 3.125 -1.46875 4.296875 0.453125 
Q 5.46875 2.390625 8.0625 2.390625 
Q 10.984375 2.390625 12.515625 0.953125 
Q 14.0625 -0.484375 14.0625 -2.34375 
Q 14.0625 -3.90625 13.546875 -6.296875 
Q 13.03125 -8.6875 12.75 -9.71875 
Q 13.09375 -10.15625 13.984375 -10.890625 
Q 14.890625 -11.625 16.21875 -12.203125 
Q 17.78125 -12.9375 19.484375 -13.375 
Q 21.1875 -13.8125 24.3125 -13.8125 
Q 27.25 -13.8125 29.953125 -12.828125 
Q 32.671875 -11.859375 34.71875 -9.71875 
Q 36.859375 -7.46875 38.0625 -4.46875 
Q 39.265625 -1.46875 39.265625 3.421875 
Q 39.265625 6.0625 38.703125 8.640625 
Q 38.140625 11.234375 36.625 13.140625 
Q 35.109375 15.046875 32.5 16.09375 
Q 29.890625 17.140625 25.875 17.140625 
L 19.484375 17.140625 
L 19.484375 22.75 
L 23.734375 22.75 
Q 30.46875 22.75 33.4375 26.453125 
Q 36.421875 30.171875 36.421875 37.640625 
Q 36.421875 43.75 33.546875 46.84375 
Q 30.671875 49.953125 25.390625 49.953125 
Q 22.859375 49.953125 21.21875 49.34375 
Q 19.578125 48.734375 18.5625 48.140625 
Q 17.328125 47.46875 16.546875 46.625 
Q 15.765625 45.796875 15.375 45.40625 
Q 15.71875 43.84375 16.203125 41.578125 
Q 16.703125 39.3125 16.703125 37.25 
Q 16.703125 35.453125 15.15625 34 
Q 13.625 32.5625 10.640625 32.5625 
Q 8.0625 32.5625 6.859375 34.421875 
Q 5.671875 36.28125 5.671875 38.71875 
Q 5.671875 41.265625 7.078125 43.890625 
Q 8.5 46.53125 11.28125 48.828125 
Q 14.0625 51.125 18.0625 52.53125 
Q 22.078125 53.953125 27.296875 53.953125 
Q 33.296875 53.953125 37.21875 52.171875 
Q 41.15625 50.390625 43.40625 47.859375 
Q 45.609375 45.359375 46.4375 42.625 
Q 47.265625 39.890625 47.265625 37.9375 
Q 47.265625 35.5 46.578125 33.03125 
Q 45.90625 30.5625 44.34375 28.46875 
Q 42.625 26.171875 39.8125 24.28125 
Q 37.015625 22.40625 32.765625 21.234375 
L 32.765625 20.453125 
Q 35.5 20.21875 38.59375 19.234375 
Q 41.703125 18.265625 44.1875 16.359375 
Q 46.78125 14.359375 48.4375 11.203125 
Q 50.09375 8.0625 50.09375 3.21875 
Q 50.09375 -6.15625 42.578125 -11.984375 
Q 35.0625 -17.828125 23.78125 -17.828125 
z
" id="Georgia-33"/>
     <path d="M 31.78125 29.109375 
Q 31.78125 9.1875 24.1875 -2.578125 
Q 16.609375 -14.359375 3.265625 -16.015625 
L 3.265625 -12.015625 
Q 12.84375 -10.25 17.625 0.078125 
Q 22.40625 10.40625 22.40625 29 
Q 22.40625 48.53125 17.515625 58.78125 
Q 12.640625 69.046875 3.265625 70.75 
L 3.265625 74.8125 
Q 16.609375 73.046875 24.1875 61.203125 
Q 31.78125 49.359375 31.78125 29.109375 
z
" id="Georgia-29"/>
    </defs>
    <g transform="translate(125.535625 24.8)scale(0.18 -0.18)">
     <use xlink:href="#Georgia-4e"/>
     <use x="76.708984" xlink:href="#Georgia-6f"/>
     <use x="130.615234" xlink:href="#Georgia-6e"/>
     <use x="189.697266" xlink:href="#Georgia-2d"/>
     <use x="227.099609" xlink:href="#Georgia-6c"/>
     <use x="255.712891" xlink:href="#Georgia-69"/>
     <use x="285.009766" xlink:href="#Georgia-6e"/>
     <use x="344.091797" xlink:href="#Georgia-65"/>
     <use x="392.431641" xlink:href="#Georgia-61"/>
     <use x="442.822266" xlink:href="#Georgia-72"/>
     <use x="483.789062" xlink:href="#Georgia-20"/>
     <use x="507.910156" xlink:href="#Georgia-72"/>
     <use x="548.876953" xlink:href="#Georgia-65"/>
     <use x="597.216797" xlink:href="#Georgia-67"/>
     <use x="648.144531" xlink:href="#Georgia-72"/>
     <use x="689.111328" xlink:href="#Georgia-65"/>
     <use x="737.451172" xlink:href="#Georgia-73"/>
     <use x="780.664062" xlink:href="#Georgia-73"/>
     <use x="823.876953" xlink:href="#Georgia-69"/>
     <use x="853.173828" xlink:href="#Georgia-6f"/>
     <use x="907.080078" xlink:href="#Georgia-6e"/>
     <use x="966.162109" xlink:href="#Georgia-20"/>
     <use x="990.283203" xlink:href="#Georgia-28"/>
     <use x="1027.783203" xlink:href="#Georgia-44"/>
     <use x="1102.685547" xlink:href="#Georgia-20"/>
     <use x="1126.806641" xlink:href="#Georgia-3d"/>
     <use x="1191.113281" xlink:href="#Georgia-20"/>
     <use x="1215.234375" xlink:href="#Georgia-33"/>
     <use x="1270.410156" xlink:href="#Georgia-29"/>
    </g>
   </g>
  </g>
 </g>
 <defs>
  <clipPath id="p7c01fcce33">
   <rect height="208.4" width="348.9" x="68.8" y="30.8"/>
  </clipPath>
 </defs>
</svg>
