<?xml version="1.0" encoding="utf-8" standalone="no"?>
<!DOCTYPE svg PUBLIC "-//W3C//DTD SVG 1.1//EN"
  "http://www.w3.org/Graphics/SVG/1.1/DTD/svg11.dtd">
<!-- Created with matplotlib (http://matplotlib.org/) -->
<svg height="288pt" version="1.1" viewBox="0 0 432 288" width="432pt" xmlns="http://www.w3.org/2000/svg" xmlns:xlink="http://www.w3.org/1999/xlink">
 <defs>
  <style type="text/css">
*{stroke-linecap:butt;stroke-linejoin:round;}
  </style>
 </defs>
 <g id="figure_1">
  <g id="patch_1">
   <path d="M 0 288 
L 432 288 
L 432 0 
L 0 0 
z
" style="fill:#ffffff;"/>
  </g>
  <g id="axes_1">
   <g id="patch_2">
    <path d="M 61.425 239.2 
L 417.7 239.2 
L 417.7 30.8 
L 61.425 30.8 
z
" style="fill:#ffffff;"/>
   </g>
   <g id="PolyCollection_1">
    <path clip-path="url(#p393dd6d89a)" d="M 61.425 229.727273 
L 61.425 164.749424 
L 65.023737 156.703101 
L 68.622475 149.100546 
L 72.221212 141.930703 
L 75.819949 135.182356 
L 79.418687 128.844136 
L 83.017424 122.904518 
L 86.616162 117.351848 
L 90.214899 112.174376 
L 93.813636 107.360321 
L 97.412374 102.897972 
L 101.011111 98.775823 
L 104.609848 94.982753 
L 108.208586 91.508249 
L 111.807323 88.342643 
L 115.406061 85.477343 
L 119.004798 82.905027 
L 122.603535 80.619728 
L 126.202273 78.616804 
L 129.80101 76.892764 
L 133.399747 75.44496 
L 136.998485 74.271215 
L 140.597222 73.369413 
L 144.19596 72.737131 
L 147.794697 72.37134 
L 151.393434 72.268202 
L 154.992172 72.422952 
L 158.590909 72.829856 
L 162.189646 73.482229 
L 165.788384 74.372494 
L 169.387121 75.492257 
L 172.985859 76.832391 
L 176.584596 78.38313 
L 180.183333 80.134153 
L 183.782071 82.074658 
L 187.380808 84.193438 
L 190.979545 86.478943 
L 194.578283 88.919336 
L 198.17702 91.502542 
L 201.775758 94.216298 
L 205.374495 97.04819 
L 208.973232 99.985693 
L 212.57197 103.016207 
L 216.170707 106.127088 
L 219.769444 109.305687 
L 223.368182 112.539372 
L 226.966919 115.815565 
L 230.565657 119.121766 
L 234.164394 122.445581 
L 237.763131 125.774747 
L 241.361869 129.097148 
L 244.960606 132.400839 
L 248.559343 135.674053 
L 252.158081 138.905213 
L 255.756818 142.082937 
L 259.355556 145.196031 
L 262.954293 148.233488 
L 266.55303 151.184475 
L 270.151768 154.038318 
L 273.750505 156.784484 
L 277.349242 159.412557 
L 280.94798 161.912218 
L 284.546717 164.273215 
L 288.145455 166.485341 
L 291.744192 168.538401 
L 295.342929 170.422185 
L 298.941667 172.12644 
L 302.540404 173.640836 
L 306.139141 174.954933 
L 309.737879 176.058146 
L 313.336616 176.939707 
L 316.935354 177.588619 
L 320.534091 177.993608 
L 324.132828 178.14307 
L 327.731566 178.025001 
L 331.330303 177.626928 
L 334.92904 176.935826 
L 338.527778 175.938023 
L 342.126515 174.6191 
L 345.725253 172.963785 
L 349.32399 170.955852 
L 352.922727 168.578035 
L 356.521465 165.811974 
L 360.120202 162.63822 
L 363.718939 159.03632 
L 367.317677 154.985015 
L 370.916414 150.462548 
L 374.515152 145.447086 
L 378.113889 139.91721 
L 381.712626 133.852406 
L 385.311364 127.23347 
L 388.910101 120.042766 
L 392.508838 112.264304 
L 396.107576 103.883636 
L 399.706313 94.887629 
L 403.305051 85.264162 
L 406.903788 75.001829 
L 410.502525 64.089651 
L 414.101263 52.51686 
L 417.7 40.272727 
L 417.7 82.237693 
L 417.7 82.237693 
L 414.101263 91.593734 
L 410.502525 100.494443 
L 406.903788 108.952038 
L 403.305051 116.978695 
L 399.706313 124.586384 
L 396.107576 131.78664 
L 392.508838 138.590293 
L 388.910101 145.007154 
L 385.311364 151.04572 
L 381.712626 156.712947 
L 378.113889 162.014146 
L 374.515152 166.953059 
L 370.916414 171.532117 
L 367.317677 175.752846 
L 363.718939 179.616361 
L 360.120202 183.123851 
L 356.521465 186.277001 
L 352.922727 189.078305 
L 349.32399 191.53126 
L 345.725253 193.640452 
L 342.126515 195.41156 
L 338.527778 196.851304 
L 334.92904 197.967359 
L 331.330303 198.768252 
L 327.731566 199.263256 
L 324.132828 199.462292 
L 320.534091 199.375832 
L 316.935354 199.014821 
L 313.336616 198.390597 
L 309.737879 197.514835 
L 306.139141 196.399482 
L 302.540404 195.056717 
L 298.941667 193.4989 
L 295.342929 191.738538 
L 291.744192 189.788247 
L 288.145455 187.660718 
L 284.546717 185.368688 
L 280.94798 182.92491 
L 277.349242 180.342119 
L 273.750505 177.633012 
L 270.151768 174.810214 
L 266.55303 171.886257 
L 262.954293 168.873552 
L 259.355556 165.784372 
L 255.756818 162.630828 
L 252.158081 159.424861 
L 248.559343 156.178223 
L 244.960606 152.902477 
L 241.361869 149.608991 
L 237.763131 146.308947 
L 234.164394 143.013342 
L 230.565657 139.733009 
L 226.966919 136.47863 
L 223.368182 133.260756 
L 219.769444 130.089833 
L 216.170707 126.97623 
L 212.57197 123.930261 
L 208.973232 120.962222 
L 205.374495 118.082415 
L 201.775758 115.301186 
L 198.17702 112.628956 
L 194.578283 110.076258 
L 190.979545 107.653772 
L 187.380808 105.372372 
L 183.782071 103.243166 
L 180.183333 101.277549 
L 176.584596 99.48726 
L 172.985859 97.884444 
L 169.387121 96.481726 
L 165.788384 95.292283 
L 162.189646 94.329938 
L 158.590909 93.609242 
L 154.992172 93.145561 
L 151.393434 92.955158 
L 147.794697 93.055246 
L 144.19596 93.464004 
L 140.597222 94.20054 
L 136.998485 95.284772 
L 133.399747 96.737223 
L 129.80101 98.578722 
L 126.202273 100.830038 
L 122.603535 103.51147 
L 119.004798 106.642471 
L 115.406061 110.241346 
L 111.807323 114.325075 
L 108.208586 118.909279 
L 104.609848 124.008315 
L 101.011111 129.63546 
L 97.412374 135.803145 
L 93.813636 142.523198 
L 90.214899 149.807057 
L 86.616162 157.665956 
L 83.017424 166.111063 
L 79.418687 175.153571 
L 75.819949 184.804773 
L 72.221212 195.076091 
L 68.622475 205.979099 
L 65.023737 217.525531 
L 61.425 229.727273 
z
" style="fill:#808080;fill-opacity:0.5;"/>
   </g>
   <g id="PathCollection_1">
    <defs>
     <path d="M -3 3 
L 3 -3 
M -3 -3 
L 3 3 
" id="m1fa01bfcda" style="stroke:#ff0000;stroke-width:1.5;"/>
    </defs>
    <g clip-path="url(#p393dd6d89a)">
     <use style="fill:#ff0000;stroke:#ff0000;stroke-width:1.5;" x="369.833121" xlink:href="#m1fa01bfcda" y="165.768991"/>
     <use style="fill:#ff0000;stroke:#ff0000;stroke-width:1.5;" x="175.941964" xlink:href="#m1fa01bfcda" y="79.895569"/>
     <use style="fill:#ff0000;stroke:#ff0000;stroke-width:1.5;" x="381.951318" xlink:href="#m1fa01bfcda" y="153.310607"/>
     <use style="fill:#ff0000;stroke:#ff0000;stroke-width:1.5;" x="272.887543" xlink:href="#m1fa01bfcda" y="179.726897"/>
     <use style="fill:#ff0000;stroke:#ff0000;stroke-width:1.5;" x="248.651148" xlink:href="#m1fa01bfcda" y="153.147794"/>
     <use style="fill:#ff0000;stroke:#ff0000;stroke-width:1.5;" x="115.350978" xlink:href="#m1fa01bfcda" y="100.149129"/>
     <use style="fill:#ff0000;stroke:#ff0000;stroke-width:1.5;" x="303.183036" xlink:href="#m1fa01bfcda" y="180.870092"/>
     <use style="fill:#ff0000;stroke:#ff0000;stroke-width:1.5;" x="188.060162" xlink:href="#m1fa01bfcda" y="89.064926"/>
     <use style="fill:#ff0000;stroke:#ff0000;stroke-width:1.5;" x="351.655825" xlink:href="#m1fa01bfcda" y="160.372794"/>
     <use style="fill:#ff0000;stroke:#ff0000;stroke-width:1.5;" x="145.646471" xlink:href="#m1fa01bfcda" y="86.482331"/>
    </g>
   </g>
   <g id="matplotlib.axis_1">
    <g id="xtick_1">
     <g id="line2d_1">
      <defs>
       <path d="M 0 0 
L 0 3.5 
" id="mf0f51df383" style="stroke:#000000;stroke-width:0.8;"/>
      </defs>
      <g>
       <use style="stroke:#000000;stroke-width:0.8;" x="91.114583" xlink:href="#mf0f51df383" y="239.2"/>
      </g>
     </g>
     <g id="text_1">
      <!-- 0.0 -->
      <defs>
       <path d="M 50.140625 45.609375 
Q 53.265625 41.84375 54.796875 36.78125 
Q 56.34375 31.734375 56.34375 26.21875 
Q 56.34375 19.578125 54.4375 14.328125 
Q 52.546875 9.078125 49.21875 5.609375 
Q 45.796875 2.046875 41.109375 0.234375 
Q 36.421875 -1.5625 30.671875 -1.5625 
Q 24.359375 -1.5625 19.421875 0.53125 
Q 14.5 2.640625 11.421875 6.296875 
Q 8.203125 10.109375 6.609375 15.203125 
Q 5.03125 20.3125 5.03125 26.21875 
Q 5.03125 32.03125 6.5625 36.90625 
Q 8.109375 41.796875 11.375 45.75 
Q 14.5 49.5625 19.421875 51.75 
Q 24.359375 53.953125 30.71875 53.953125 
Q 37.40625 53.953125 42.1875 51.703125 
Q 46.96875 49.46875 50.140625 45.609375 
z
M 45.5625 26.21875 
Q 45.5625 37.84375 41.578125 44.234375 
Q 37.59375 50.640625 30.765625 50.640625 
Q 23.828125 50.640625 19.828125 44.234375 
Q 15.828125 37.84375 15.828125 26.21875 
Q 15.828125 15.1875 19.65625 8.46875 
Q 23.484375 1.765625 30.671875 1.765625 
Q 37.84375 1.765625 41.703125 8.46875 
Q 45.5625 15.1875 45.5625 26.21875 
z
" id="Georgia-30"/>
       <path d="M 20.265625 5.609375 
Q 20.265625 2.875 18.28125 0.9375 
Q 16.3125 -0.984375 13.578125 -0.984375 
Q 10.84375 -0.984375 8.859375 0.9375 
Q 6.890625 2.875 6.890625 5.609375 
Q 6.890625 8.34375 8.859375 10.328125 
Q 10.84375 12.3125 13.578125 12.3125 
Q 16.3125 12.3125 18.28125 10.328125 
Q 20.265625 8.34375 20.265625 5.609375 
z
" id="Georgia-2e"/>
      </defs>
      <g transform="translate(82.132396 255.27125)scale(0.12 -0.12)">
       <use xlink:href="#Georgia-30"/>
       <use x="61.376953" xlink:href="#Georgia-2e"/>
       <use x="88.330078" xlink:href="#Georgia-30"/>
      </g>
     </g>
    </g>
    <g id="xtick_2">
     <g id="line2d_2">
      <g>
       <use style="stroke:#000000;stroke-width:0.8;" x="150.49375" xlink:href="#mf0f51df383" y="239.2"/>
      </g>
     </g>
     <g id="text_2">
      <!-- 0.2 -->
      <defs>
       <path d="M 51.125 0 
L 5.375 0 
L 5.375 6.640625 
Q 6.6875 8.15625 9.03125 10.03125 
Q 11.375 11.921875 14.59375 14.109375 
Q 16.546875 15.4375 19.28125 17 
Q 22.015625 18.5625 25.484375 20.40625 
Q 29.34375 22.46875 31.421875 24.03125 
Q 33.5 25.59375 35.203125 27.875 
Q 36.328125 29.390625 37.015625 31.65625 
Q 37.703125 33.9375 37.703125 38.140625 
Q 37.703125 44.234375 34.421875 47.09375 
Q 31.15625 49.953125 26.03125 49.953125 
Q 22.859375 49.953125 20.015625 48.703125 
Q 17.1875 47.46875 15.765625 45.265625 
Q 16.109375 43.703125 16.625 41.546875 
Q 17.140625 39.40625 17.140625 37.359375 
Q 17.140625 35.5 15.59375 34.0625 
Q 14.0625 32.625 11.03125 32.625 
Q 8.59375 32.625 7.265625 34.296875 
Q 5.953125 35.984375 5.953125 38.8125 
Q 5.953125 41.453125 7.421875 44.109375 
Q 8.890625 46.78125 11.625 49.03125 
Q 14.3125 51.21875 18.265625 52.578125 
Q 22.21875 53.953125 26.8125 53.953125 
Q 36.8125 53.953125 42.6875 49.484375 
Q 48.578125 45.015625 48.578125 37.546875 
Q 48.578125 33.984375 47.53125 31.046875 
Q 46.484375 28.125 44.140625 25.875 
Q 41.546875 23.390625 38.078125 21.609375 
Q 34.625 19.828125 27.484375 16.65625 
Q 23.25 14.75 19.578125 12.671875 
Q 15.921875 10.59375 13.578125 8.640625 
L 51.125 8.640625 
z
" id="Georgia-32"/>
      </defs>
      <g transform="translate(141.8425 255.27125)scale(0.12 -0.12)">
       <use xlink:href="#Georgia-30"/>
       <use x="61.376953" xlink:href="#Georgia-2e"/>
       <use x="88.330078" xlink:href="#Georgia-32"/>
      </g>
     </g>
    </g>
    <g id="xtick_3">
     <g id="line2d_3">
      <g>
       <use style="stroke:#000000;stroke-width:0.8;" x="209.872917" xlink:href="#mf0f51df383" y="239.2"/>
      </g>
     </g>
     <g id="text_3">
      <!-- 0.4 -->
      <defs>
       <path d="M 52.9375 4.390625 
L 43.015625 4.390625 
L 43.015625 -17.828125 
L 33.640625 -17.828125 
L 33.640625 4.390625 
L 2.390625 4.390625 
L 2.390625 11.921875 
L 36.625 53.65625 
L 43.015625 53.65625 
L 43.015625 10.796875 
L 52.9375 10.796875 
z
M 33.640625 10.796875 
L 33.640625 42.78125 
L 7.28125 10.796875 
z
" id="Georgia-34"/>
      </defs>
      <g transform="translate(201.183229 255.27125)scale(0.12 -0.12)">
       <use xlink:href="#Georgia-30"/>
       <use x="61.376953" xlink:href="#Georgia-2e"/>
       <use x="88.330078" xlink:href="#Georgia-34"/>
      </g>
     </g>
    </g>
    <g id="xtick_4">
     <g id="line2d_4">
      <g>
       <use style="stroke:#000000;stroke-width:0.8;" x="269.252083" xlink:href="#mf0f51df383" y="239.2"/>
      </g>
     </g>
     <g id="text_4">
      <!-- 0.6 -->
      <defs>
       <path d="M 52.484375 22.515625 
Q 52.484375 17.4375 50.65625 12.984375 
Q 48.828125 8.546875 45.75 5.421875 
Q 42.1875 1.859375 37.859375 0.140625 
Q 33.546875 -1.5625 28.859375 -1.5625 
Q 23.4375 -1.5625 19.046875 0.4375 
Q 14.65625 2.4375 11.578125 6.109375 
Q 8.453125 9.8125 6.734375 15.1875 
Q 5.03125 20.5625 5.03125 27.25 
Q 5.03125 44.671875 15.40625 56.640625 
Q 25.78125 68.609375 43.21875 71 
L 44.09375 66.609375 
L 39.703125 65.828125 
Q 29.109375 62.40625 23.3125 55.171875 
Q 17.53125 47.953125 15.828125 37.640625 
Q 20.015625 41.3125 24.109375 42.828125 
Q 28.21875 44.34375 32.765625 44.34375 
Q 40.921875 44.34375 46.703125 38.09375 
Q 52.484375 31.84375 52.484375 22.515625 
z
M 41.890625 21.1875 
Q 41.890625 29.109375 38.25 33.890625 
Q 34.625 38.671875 28.515625 38.671875 
Q 24.859375 38.671875 21.703125 37.296875 
Q 18.5625 35.9375 15.625 32.71875 
Q 15.578125 32.125 15.46875 30 
Q 15.375 27.875 15.375 26.65625 
Q 15.375 15.234375 19.109375 8.765625 
Q 22.859375 2.296875 28.953125 2.296875 
Q 34.765625 2.296875 38.328125 7.34375 
Q 41.890625 12.40625 41.890625 21.1875 
z
" id="Georgia-36"/>
      </defs>
      <g transform="translate(260.556771 255.27125)scale(0.12 -0.12)">
       <use xlink:href="#Georgia-30"/>
       <use x="61.376953" xlink:href="#Georgia-2e"/>
       <use x="88.330078" xlink:href="#Georgia-36"/>
      </g>
     </g>
    </g>
    <g id="xtick_5">
     <g id="line2d_5">
      <g>
       <use style="stroke:#000000;stroke-width:0.8;" x="328.63125" xlink:href="#mf0f51df383" y="239.2"/>
      </g>
     </g>
     <g id="text_5">
      <!-- 0.8 -->
      <defs>
       <path d="M 54.546875 18.359375 
Q 54.546875 10.15625 47.453125 4.25 
Q 40.375 -1.65625 28.859375 -1.65625 
Q 18.0625 -1.65625 11.5625 3.765625 
Q 5.078125 9.1875 5.078125 17.71875 
Q 5.078125 24.03125 8.90625 28.25 
Q 12.75 32.46875 20.265625 35.40625 
Q 14.0625 38.875 10.984375 43.015625 
Q 7.90625 47.171875 7.90625 52.390625 
Q 7.90625 60.359375 14.671875 65.71875 
Q 21.4375 71.09375 30.859375 71.09375 
Q 40.28125 71.09375 46.109375 66.015625 
Q 51.953125 60.9375 51.953125 53.265625 
Q 51.953125 48.34375 48.734375 43.921875 
Q 45.515625 39.5 39.265625 36.671875 
Q 47.359375 33.203125 50.953125 29 
Q 54.546875 24.8125 54.546875 18.359375 
z
M 42.71875 53.8125 
Q 42.71875 59.765625 39.171875 63.5 
Q 35.640625 67.234375 30.125 67.234375 
Q 24.609375 67.234375 21.09375 63.640625 
Q 17.578125 60.0625 17.578125 54.734375 
Q 17.578125 49.609375 21.578125 46.046875 
Q 25.59375 42.484375 35.84375 38.421875 
Q 39.5 40.765625 41.109375 44.625 
Q 42.71875 48.484375 42.71875 53.8125 
z
M 44.78125 16.0625 
Q 44.78125 19.140625 43.453125 21.453125 
Q 42.140625 23.78125 39.65625 25.6875 
Q 37.25 27.546875 32.984375 29.5625 
Q 28.71875 31.59375 23.734375 33.6875 
Q 19.046875 31.15625 16.84375 27.21875 
Q 14.65625 23.296875 14.65625 18.265625 
Q 14.65625 11.078125 18.875 6.65625 
Q 23.09375 2.25 30.125 2.25 
Q 36.859375 2.25 40.8125 6.15625 
Q 44.78125 10.0625 44.78125 16.0625 
z
" id="Georgia-38"/>
      </defs>
      <g transform="translate(319.754062 255.27125)scale(0.12 -0.12)">
       <use xlink:href="#Georgia-30"/>
       <use x="61.376953" xlink:href="#Georgia-2e"/>
       <use x="88.330078" xlink:href="#Georgia-38"/>
      </g>
     </g>
    </g>
    <g id="xtick_6">
     <g id="line2d_6">
      <g>
       <use style="stroke:#000000;stroke-width:0.8;" x="388.010417" xlink:href="#mf0f51df383" y="239.2"/>
      </g>
     </g>
     <g id="text_6">
      <!-- 1.0 -->
      <defs>
       <path d="M 39.5 0 
L 6.59375 0 
L 6.59375 3.46875 
Q 8.0625 3.5625 11.15625 3.875 
Q 14.265625 4.203125 15.4375 4.546875 
Q 16.9375 5.03125 17.75 6.125 
Q 18.5625 7.234375 18.5625 9.421875 
L 18.5625 43.703125 
L 6.390625 43.703125 
L 6.390625 47.796875 
L 9.078125 47.796875 
Q 14.359375 47.796875 18.53125 49.75 
Q 22.703125 51.703125 24.515625 53.953125 
L 28.5625 53.953125 
Q 28.421875 50.78125 28.265625 46.53125 
Q 28.125 42.28125 28.125 38.921875 
L 28.125 9.96875 
Q 28.125 8.25 28.875 6.90625 
Q 29.640625 5.5625 31.0625 4.9375 
Q 32.328125 4.390625 35.203125 3.953125 
Q 38.09375 3.515625 39.5 3.46875 
z
" id="Georgia-31"/>
      </defs>
      <g transform="translate(380.132604 255.27125)scale(0.12 -0.12)">
       <use xlink:href="#Georgia-31"/>
       <use x="42.96875" xlink:href="#Georgia-2e"/>
       <use x="69.921875" xlink:href="#Georgia-30"/>
      </g>
     </g>
    </g>
    <g id="text_7">
     <!-- $x$ -->
     <defs>
      <path d="M 24.296875 35.5 
L 25.5 29.796875 
Q 30.796875 37.90625 34.046875 41 
Q 37.296875 44.09375 40.59375 44.09375 
Q 42.40625 44.09375 43.546875 43.046875 
Q 44.703125 42 44.703125 40.390625 
Q 44.703125 38.796875 43.75 37.796875 
Q 42.796875 36.796875 41.296875 36.796875 
Q 40.40625 36.796875 38.90625 37.640625 
Q 37.40625 38.5 36.09375 38.5 
Q 33.203125 38.5 26.296875 26.40625 
Q 26.296875 25.09375 27.09375 21.90625 
L 30.296875 8.5 
Q 31.296875 4.40625 33.296875 4.40625 
Q 34.90625 4.40625 38 8.40625 
Q 38.296875 8.796875 38.6875 9.34375 
Q 39.09375 9.90625 39.390625 10.34375 
Q 39.703125 10.796875 40.09375 11.203125 
L 41.59375 10.296875 
Q 37.296875 3.59375 34.796875 1.25 
Q 32.296875 -1.09375 29.40625 -1.09375 
Q 27 -1.09375 25.703125 0.40625 
Q 24.40625 1.90625 23.5 5.703125 
L 20.59375 17.59375 
L 11.796875 5.703125 
Q 8.703125 1.5 6.75 0.203125 
Q 4.796875 -1.09375 2.296875 -1.09375 
Q 0 -1.09375 -1.34375 0 
Q -2.703125 1.09375 -2.703125 3.09375 
Q -2.703125 4.59375 -1.75 5.640625 
Q -0.796875 6.703125 0.703125 6.703125 
Q 1.90625 6.703125 3.90625 5.59375 
Q 5.40625 4.703125 6.5 4.703125 
Q 8.203125 4.703125 11.59375 9.59375 
L 19.796875 21.203125 
L 17 33.59375 
Q 16 38 15.140625 39.203125 
Q 14.296875 40.40625 12.40625 40.40625 
Q 11.203125 40.40625 8.5 39.703125 
L 6.703125 39.203125 
L 6.40625 40.796875 
L 7.5 41.203125 
Q 15.5 44.09375 19.203125 44.09375 
Q 21.09375 44.09375 22.1875 42.296875 
Q 23.296875 40.5 24.296875 35.5 
z
" id="STIXGeneral-Italic-78"/>
     </defs>
     <g transform="translate(235.9625 273.96875)scale(0.16 -0.16)">
      <use transform="translate(0 0.90625)" xlink:href="#STIXGeneral-Italic-78"/>
     </g>
    </g>
   </g>
   <g id="matplotlib.axis_2">
    <g id="ytick_1">
     <g id="line2d_7">
      <defs>
       <path d="M 0 0 
L -3.5 0 
" id="m5e6da854cf" style="stroke:#000000;stroke-width:0.8;"/>
      </defs>
      <g>
       <use style="stroke:#000000;stroke-width:0.8;" x="61.425" xlink:href="#m5e6da854cf" y="221.684169"/>
      </g>
     </g>
     <g id="text_8">
      <!-- −1.5 -->
      <defs>
       <path d="M 57.03125 24.265625 
L 7.28125 24.265625 
L 7.28125 30.375 
L 57.03125 30.375 
z
" id="Georgia-2212"/>
       <path d="M 41.15625 22.90625 
Q 44.390625 20.359375 46.515625 16.359375 
Q 48.640625 12.359375 48.640625 6.34375 
Q 48.640625 -4.15625 41.453125 -10.984375 
Q 34.28125 -17.828125 23.25 -17.828125 
Q 14.703125 -17.828125 8.78125 -13.765625 
Q 2.875 -9.71875 2.875 -4.34375 
Q 2.875 -1.859375 4.09375 0 
Q 5.328125 1.859375 7.859375 1.859375 
Q 10.796875 1.859375 12.328125 0.3125 
Q 13.875 -1.21875 13.875 -3.03125 
Q 13.875 -4.59375 13.328125 -6.9375 
Q 12.796875 -9.28125 12.5 -10.40625 
Q 12.890625 -10.75 13.765625 -11.328125 
Q 14.65625 -11.921875 15.875 -12.453125 
Q 17.140625 -12.984375 18.96875 -13.390625 
Q 20.796875 -13.8125 23.25 -13.8125 
Q 26.375 -13.8125 29.15625 -12.546875 
Q 31.9375 -11.28125 33.84375 -8.796875 
Q 35.9375 -6.0625 36.984375 -2.5625 
Q 38.03125 0.921875 38.03125 6.296875 
Q 38.03125 13.1875 34.203125 17.703125 
Q 30.375 22.21875 24.125 22.21875 
Q 20.21875 22.21875 16.8125 20.75 
Q 13.421875 19.28125 10.75 15.875 
L 7.46875 17.140625 
L 11.625 52.390625 
L 46.578125 52.390625 
L 46.578125 43.703125 
L 15.578125 43.703125 
L 13.03125 23 
Q 15.234375 24.5625 18.8125 26.09375 
Q 22.40625 27.640625 26.703125 27.640625 
Q 30.28125 27.640625 34.109375 26.53125 
Q 37.9375 25.4375 41.15625 22.90625 
z
" id="Georgia-35"/>
      </defs>
      <g transform="translate(31.9775 226.219794)scale(0.12 -0.12)">
       <use xlink:href="#Georgia-2212"/>
       <use x="64.306641" xlink:href="#Georgia-31"/>
       <use x="107.275391" xlink:href="#Georgia-2e"/>
       <use x="134.228516" xlink:href="#Georgia-35"/>
      </g>
     </g>
    </g>
    <g id="ytick_2">
     <g id="line2d_8">
      <g>
       <use style="stroke:#000000;stroke-width:0.8;" x="61.425" xlink:href="#m5e6da854cf" y="193.740648"/>
      </g>
     </g>
     <g id="text_9">
      <!-- −1.0 -->
      <g transform="translate(30.951875 198.276273)scale(0.12 -0.12)">
       <use xlink:href="#Georgia-2212"/>
       <use x="64.306641" xlink:href="#Georgia-31"/>
       <use x="107.275391" xlink:href="#Georgia-2e"/>
       <use x="134.228516" xlink:href="#Georgia-30"/>
      </g>
     </g>
    </g>
    <g id="ytick_3">
     <g id="line2d_9">
      <g>
       <use style="stroke:#000000;stroke-width:0.8;" x="61.425" xlink:href="#m5e6da854cf" y="165.797128"/>
      </g>
     </g>
     <g id="text_10">
      <!-- −0.5 -->
      <g transform="translate(29.76875 170.332753)scale(0.12 -0.12)">
       <use xlink:href="#Georgia-2212"/>
       <use x="64.306641" xlink:href="#Georgia-30"/>
       <use x="125.683594" xlink:href="#Georgia-2e"/>
       <use x="152.636719" xlink:href="#Georgia-35"/>
      </g>
     </g>
    </g>
    <g id="ytick_4">
     <g id="line2d_10">
      <g>
       <use style="stroke:#000000;stroke-width:0.8;" x="61.425" xlink:href="#m5e6da854cf" y="137.853608"/>
      </g>
     </g>
     <g id="text_11">
      <!-- 0.0 -->
      <g transform="translate(36.460625 142.389233)scale(0.12 -0.12)">
       <use xlink:href="#Georgia-30"/>
       <use x="61.376953" xlink:href="#Georgia-2e"/>
       <use x="88.330078" xlink:href="#Georgia-30"/>
      </g>
     </g>
    </g>
    <g id="ytick_5">
     <g id="line2d_11">
      <g>
       <use style="stroke:#000000;stroke-width:0.8;" x="61.425" xlink:href="#m5e6da854cf" y="109.910087"/>
      </g>
     </g>
     <g id="text_12">
      <!-- 0.5 -->
      <g transform="translate(37.48625 114.445712)scale(0.12 -0.12)">
       <use xlink:href="#Georgia-30"/>
       <use x="61.376953" xlink:href="#Georgia-2e"/>
       <use x="88.330078" xlink:href="#Georgia-35"/>
      </g>
     </g>
    </g>
    <g id="ytick_6">
     <g id="line2d_12">
      <g>
       <use style="stroke:#000000;stroke-width:0.8;" x="61.425" xlink:href="#m5e6da854cf" y="81.966567"/>
      </g>
     </g>
     <g id="text_13">
      <!-- 1.0 -->
      <g transform="translate(38.669375 86.502192)scale(0.12 -0.12)">
       <use xlink:href="#Georgia-31"/>
       <use x="42.96875" xlink:href="#Georgia-2e"/>
       <use x="69.921875" xlink:href="#Georgia-30"/>
      </g>
     </g>
    </g>
    <g id="ytick_7">
     <g id="line2d_13">
      <g>
       <use style="stroke:#000000;stroke-width:0.8;" x="61.425" xlink:href="#m5e6da854cf" y="54.023046"/>
      </g>
     </g>
     <g id="text_14">
      <!-- 1.5 -->
      <g transform="translate(39.695 58.558671)scale(0.12 -0.12)">
       <use xlink:href="#Georgia-31"/>
       <use x="42.96875" xlink:href="#Georgia-2e"/>
       <use x="69.921875" xlink:href="#Georgia-35"/>
      </g>
     </g>
    </g>
    <g id="text_15">
     <!-- $y$ -->
     <defs>
      <path d="M 24.296875 18.59375 
L 26.40625 7.59375 
Q 33.09375 18.59375 35.84375 24.34375 
Q 38.59375 30.09375 38.59375 33.296875 
Q 38.59375 34.90625 36 36.5 
Q 33.40625 38.203125 33.40625 40.40625 
Q 33.40625 42 34.546875 43.046875 
Q 35.703125 44.09375 37.40625 44.09375 
Q 39.59375 44.09375 41.09375 42.5 
Q 42.59375 40.90625 42.59375 38.59375 
Q 42.59375 29.90625 29.5 8.09375 
Q 21.703125 -4.796875 14.34375 -12.6875 
Q 7 -20.59375 2.703125 -20.59375 
Q 0.40625 -20.59375 -1 -19.390625 
Q -2.40625 -18.203125 -2.40625 -16.296875 
Q -2.40625 -14.59375 -1.25 -13.4375 
Q -0.09375 -12.296875 1.5 -12.296875 
Q 3.40625 -12.296875 4.90625 -13.6875 
Q 6.40625 -15.09375 7.59375 -15.09375 
Q 9.40625 -15.09375 12.40625 -11.796875 
Q 13.703125 -10.5 16.25 -7.140625 
Q 18.796875 -3.796875 19.5 -2.703125 
Q 20.5 -0.703125 20.5 0.796875 
Q 20.5 3.796875 17.390625 16.34375 
Q 14.296875 28.90625 12.296875 34 
Q 10.90625 37.703125 9.25 39.046875 
Q 7.59375 40.40625 4.59375 40.40625 
Q 3 40.40625 1.5 40 
L 1.5 41.703125 
Q 3.703125 42.09375 4.703125 42.296875 
Q 8.796875 43.09375 15.40625 44.09375 
L 15.796875 44.09375 
Q 16.90625 44.09375 19.953125 34.796875 
Q 23 25.5 24.296875 18.59375 
z
" id="STIXGeneral-Italic-79"/>
     </defs>
     <g transform="translate(22.29875 138.6)rotate(-90)scale(0.16 -0.16)">
      <use transform="translate(0 0.90625)" xlink:href="#STIXGeneral-Italic-79"/>
     </g>
    </g>
   </g>
   <g id="line2d_14">
    <path clip-path="url(#p393dd6d89a)" d="M 61.425 197.238348 
L 65.023737 187.114316 
L 68.622475 177.539823 
L 72.221212 168.503397 
L 75.819949 159.993565 
L 79.418687 151.998853 
L 83.017424 144.50779 
L 86.616162 137.508902 
L 90.214899 130.990716 
L 93.813636 124.941759 
L 97.412374 119.350559 
L 101.011111 114.205641 
L 104.609848 109.495534 
L 108.208586 105.208764 
L 111.807323 101.333859 
L 115.406061 97.859345 
L 119.004798 94.773749 
L 122.603535 92.065599 
L 126.202273 89.723421 
L 129.80101 87.735743 
L 133.399747 86.091091 
L 136.998485 84.777994 
L 140.597222 83.784977 
L 144.19596 83.100567 
L 147.794697 82.713293 
L 151.393434 82.61168 
L 154.992172 82.784256 
L 158.590909 83.219549 
L 162.189646 83.906084 
L 165.788384 84.832389 
L 169.387121 85.986991 
L 172.985859 87.358418 
L 176.584596 88.935195 
L 180.183333 90.705851 
L 183.782071 92.658912 
L 187.380808 94.782905 
L 190.979545 97.066358 
L 194.578283 99.497797 
L 198.17702 102.065749 
L 201.775758 104.758742 
L 205.374495 107.565302 
L 208.973232 110.473957 
L 212.57197 113.473234 
L 216.170707 116.551659 
L 219.769444 119.69776 
L 223.368182 122.900064 
L 226.966919 126.147097 
L 230.565657 129.427388 
L 234.164394 132.729462 
L 237.763131 136.041847 
L 241.361869 139.35307 
L 244.960606 142.651658 
L 248.559343 145.926138 
L 252.158081 149.165037 
L 255.756818 152.356883 
L 259.355556 155.490201 
L 262.954293 158.55352 
L 266.55303 161.535366 
L 270.151768 164.424266 
L 273.750505 167.208748 
L 277.349242 169.877338 
L 280.94798 172.418564 
L 284.546717 174.820952 
L 288.145455 177.073029 
L 291.744192 179.163324 
L 295.342929 181.080362 
L 298.941667 182.81267 
L 302.540404 184.348776 
L 306.139141 185.677207 
L 309.737879 186.78649 
L 313.336616 187.665152 
L 316.935354 188.30172 
L 320.534091 188.68472 
L 324.132828 188.802681 
L 327.731566 188.644128 
L 331.330303 188.19759 
L 334.92904 187.451593 
L 338.527778 186.394664 
L 342.126515 185.01533 
L 345.725253 183.302118 
L 349.32399 181.243556 
L 352.922727 178.82817 
L 356.521465 176.044488 
L 360.120202 172.881035 
L 363.718939 169.326341 
L 367.317677 165.368931 
L 370.916414 160.997332 
L 374.515152 156.200072 
L 378.113889 150.965678 
L 381.712626 145.282677 
L 385.311364 139.139595 
L 388.910101 132.52496 
L 392.508838 125.427299 
L 396.107576 117.835138 
L 399.706313 109.737006 
L 403.305051 101.121429 
L 406.903788 91.976933 
L 410.502525 82.292047 
L 414.101263 72.055297 
L 417.7 61.25521 
" style="fill:none;stroke:#000000;stroke-linecap:square;stroke-width:1.5;"/>
   </g>
   <g id="patch_3">
    <path d="M 61.425 239.2 
L 61.425 30.8 
" style="fill:none;stroke:#000000;stroke-linecap:square;stroke-linejoin:miter;stroke-width:0.8;"/>
   </g>
   <g id="patch_4">
    <path d="M 417.7 239.2 
L 417.7 30.8 
" style="fill:none;stroke:#000000;stroke-linecap:square;stroke-linejoin:miter;stroke-width:0.8;"/>
   </g>
   <g id="patch_5">
    <path d="M 61.425 239.2 
L 417.7 239.2 
" style="fill:none;stroke:#000000;stroke-linecap:square;stroke-linejoin:miter;stroke-width:0.8;"/>
   </g>
   <g id="patch_6">
    <path d="M 61.425 30.8 
L 417.7 30.8 
" style="fill:none;stroke:#000000;stroke-linecap:square;stroke-linejoin:miter;stroke-width:0.8;"/>
   </g>
   <g id="text_16">
    <!-- Bayesian regression predictive -->
    <defs>
     <path d="M 53.90625 32.28125 
Q 56.9375 30.21875 58.9375 26.890625 
Q 60.9375 23.578125 60.9375 18.84375 
Q 60.9375 14.015625 58.828125 10.453125 
Q 56.734375 6.890625 53.375 4.59375 
Q 50.09375 2.34375 45.96875 1.171875 
Q 41.84375 0 37.453125 0 
L 4.640625 0 
L 4.640625 3.46875 
Q 5.8125 3.5625 8.046875 3.875 
Q 10.296875 4.203125 11.28125 4.640625 
Q 12.796875 5.328125 13.421875 6.46875 
Q 14.0625 7.625 14.0625 9.421875 
L 14.0625 59.234375 
Q 14.0625 60.890625 13.5 62.15625 
Q 12.9375 63.421875 11.28125 64.203125 
Q 9.8125 64.9375 8 65.328125 
Q 6.203125 65.71875 4.984375 65.828125 
L 4.984375 69.28125 
L 36.96875 69.28125 
Q 40.671875 69.28125 44.0625 68.546875 
Q 47.46875 67.828125 50.53125 65.96875 
Q 53.421875 64.265625 55.265625 61.328125 
Q 57.125 58.40625 57.125 54.203125 
Q 57.125 50.53125 55.8125 47.671875 
Q 54.5 44.828125 52.09375 42.78125 
Q 49.859375 40.828125 46.953125 39.484375 
Q 44.046875 38.140625 40.671875 37.40625 
L 40.671875 36.96875 
Q 43.65625 36.625 47.34375 35.46875 
Q 51.03125 34.328125 53.90625 32.28125 
z
M 42.140625 42.71875 
Q 43.953125 44.828125 44.65625 47.3125 
Q 45.359375 49.8125 45.359375 53.21875 
Q 45.359375 58.9375 42.234375 62.1875 
Q 39.109375 65.4375 32.375 65.4375 
Q 30.8125 65.4375 28.4375 65.359375 
Q 26.078125 65.28125 24.46875 65.234375 
L 24.46875 38.625 
L 30.671875 38.625 
Q 34.671875 38.625 37.515625 39.640625 
Q 40.375 40.671875 42.140625 42.71875 
z
M 48.875 20.609375 
Q 48.875 26.765625 44.75 30.71875 
Q 40.625 34.671875 32.953125 34.671875 
Q 29.828125 34.671875 27.671875 34.59375 
Q 25.53125 34.515625 24.46875 34.46875 
L 24.46875 10.0625 
Q 24.46875 6.984375 26.953125 5.421875 
Q 29.4375 3.859375 33.890625 3.859375 
Q 41.15625 3.859375 45.015625 8.109375 
Q 48.875 12.359375 48.875 20.609375 
z
" id="Georgia-42"/>
     <path d="M 49.125 0.875 
Q 46.828125 0.046875 45.09375 -0.46875 
Q 43.359375 -0.984375 41.15625 -0.984375 
Q 37.359375 -0.984375 35.078125 0.796875 
Q 32.8125 2.59375 32.171875 6 
L 31.890625 6 
Q 28.71875 2.484375 25.078125 0.625 
Q 21.4375 -1.21875 16.3125 -1.21875 
Q 10.890625 -1.21875 7.390625 2.09375 
Q 3.90625 5.421875 3.90625 10.796875 
Q 3.90625 13.578125 4.6875 15.765625 
Q 5.46875 17.96875 7.03125 19.734375 
Q 8.25 21.1875 10.25 22.328125 
Q 12.25 23.484375 14.015625 24.171875 
Q 16.21875 25 22.921875 27.25 
Q 29.640625 29.5 31.984375 30.765625 
L 31.984375 35.59375 
Q 31.984375 36.234375 31.71875 38.03125 
Q 31.453125 39.84375 30.5625 41.453125 
Q 29.59375 43.265625 27.8125 44.609375 
Q 26.03125 45.953125 22.75 45.953125 
Q 20.515625 45.953125 18.578125 45.1875 
Q 16.65625 44.4375 15.875 43.609375 
Q 15.875 42.625 16.328125 40.71875 
Q 16.796875 38.8125 16.796875 37.203125 
Q 16.796875 35.5 15.25 34.078125 
Q 13.71875 32.671875 10.984375 32.671875 
Q 8.546875 32.671875 7.390625 34.40625 
Q 6.25 36.140625 6.25 38.28125 
Q 6.25 40.53125 7.828125 42.578125 
Q 9.421875 44.625 11.96875 46.234375 
Q 14.15625 47.609375 17.28125 48.5625 
Q 20.40625 49.515625 23.390625 49.515625 
Q 27.484375 49.515625 30.53125 48.953125 
Q 33.59375 48.390625 36.078125 46.53125 
Q 38.578125 44.734375 39.859375 41.625 
Q 41.15625 38.53125 41.15625 33.640625 
Q 41.15625 26.65625 41.015625 21.265625 
Q 40.875 15.875 40.875 9.46875 
Q 40.875 7.5625 41.53125 6.4375 
Q 42.1875 5.328125 43.5625 4.546875 
Q 44.28125 4.109375 45.875 4.046875 
Q 47.46875 4 49.125 4 
z
M 32.078125 26.65625 
Q 27.9375 25.4375 24.8125 24.265625 
Q 21.6875 23.09375 19 21.34375 
Q 16.546875 19.671875 15.125 17.40625 
Q 13.71875 15.140625 13.71875 12.015625 
Q 13.71875 7.953125 15.84375 6.046875 
Q 17.96875 4.15625 21.234375 4.15625 
Q 24.703125 4.15625 27.34375 5.828125 
Q 29.984375 7.515625 31.78125 9.8125 
z
" id="Georgia-61"/>
     <path d="M -0.140625 -15.71875 
Q -0.140625 -13.28125 1.203125 -11.734375 
Q 2.546875 -10.203125 4.546875 -10.203125 
Q 6.109375 -10.203125 7.21875 -10.78125 
Q 8.34375 -11.375 9.234375 -12.3125 
Q 9.96875 -13.03125 10.796875 -14.296875 
Q 11.625 -15.578125 12.109375 -16.40625 
Q 14.546875 -15.09375 17.9375 -9.515625 
Q 21.34375 -3.953125 22.859375 0.25 
Q 18.21875 11.8125 14.453125 20.9375 
Q 10.6875 30.078125 6.59375 39.84375 
Q 5.671875 42.09375 3.46875 43.328125 
Q 1.265625 44.578125 -0.921875 44.921875 
L -0.921875 48.140625 
L 21.046875 48.140625 
L 21.046875 44.734375 
Q 19.578125 44.671875 17.53125 44.109375 
Q 15.484375 43.5625 15.484375 42.828125 
Q 15.484375 42.53125 15.703125 41.84375 
Q 15.921875 41.15625 16.21875 40.4375 
Q 18.0625 35.59375 21.875 26.484375 
Q 25.6875 17.390625 27.78125 11.921875 
Q 29.984375 17.140625 32.34375 22.734375 
Q 34.71875 28.328125 37.640625 35.9375 
Q 37.984375 36.859375 38.625 38.5 
Q 39.265625 40.140625 39.265625 41.3125 
Q 39.265625 42.578125 37.03125 43.671875 
Q 34.8125 44.78125 32.8125 45.015625 
L 32.8125 48.140625 
L 50.6875 48.140625 
L 50.6875 45.125 
Q 49.21875 44.875 46.828125 43.4375 
Q 44.4375 42 43.265625 39.359375 
Q 37.453125 25.875 32.9375 14.796875 
Q 28.421875 3.71875 26.078125 -1.515625 
Q 23 -8.34375 20.578125 -12.171875 
Q 18.171875 -16.015625 15.875 -18.21875 
Q 13.625 -20.265625 11.796875 -20.96875 
Q 9.96875 -21.6875 8.015625 -21.6875 
Q 4.203125 -21.6875 2.03125 -19.875 
Q -0.140625 -18.0625 -0.140625 -15.71875 
z
" id="Georgia-79"/>
     <path d="M 46.296875 11.328125 
Q 43.265625 5.5625 38.1875 2.140625 
Q 33.109375 -1.265625 26.515625 -1.265625 
Q 20.703125 -1.265625 16.328125 0.78125 
Q 11.96875 2.828125 9.125 6.34375 
Q 6.296875 9.859375 4.90625 14.546875 
Q 3.515625 19.234375 3.515625 24.46875 
Q 3.515625 29.15625 5 33.671875 
Q 6.5 38.1875 9.375 41.796875 
Q 12.15625 45.265625 16.28125 47.390625 
Q 20.40625 49.515625 25.53125 49.515625 
Q 30.8125 49.515625 34.5625 47.84375 
Q 38.328125 46.1875 40.671875 43.3125 
Q 42.921875 40.578125 44.015625 36.859375 
Q 45.125 33.15625 45.125 28.8125 
L 45.125 25.59375 
L 13.234375 25.59375 
Q 13.234375 20.84375 14.140625 16.984375 
Q 15.046875 13.140625 17 10.203125 
Q 18.890625 7.375 21.96875 5.734375 
Q 25.046875 4.109375 29.296875 4.109375 
Q 33.640625 4.109375 36.78125 6.125 
Q 39.9375 8.15625 42.875 13.421875 
z
M 35.5 29.6875 
Q 35.5 32.421875 35.03125 35.546875 
Q 34.578125 38.671875 33.546875 40.765625 
Q 32.421875 43.015625 30.46875 44.421875 
Q 28.515625 45.84375 25.4375 45.84375 
Q 20.3125 45.84375 16.921875 41.578125 
Q 13.53125 37.3125 13.234375 29.6875 
z
" id="Georgia-65"/>
     <path d="M 35.296875 23.578125 
Q 37.3125 21.828125 38.375 19.53125 
Q 39.453125 17.234375 39.453125 13.921875 
Q 39.453125 7.234375 34.4375 2.984375 
Q 29.4375 -1.265625 21.484375 -1.265625 
Q 17.28125 -1.265625 13.734375 0.25 
Q 10.203125 1.765625 8.6875 3.03125 
L 7.71875 -0.140625 
L 4.046875 -0.140625 
L 3.5625 16.609375 
L 6.9375 16.609375 
Q 7.328125 14.703125 8.59375 12.15625 
Q 9.859375 9.625 11.671875 7.5625 
Q 13.578125 5.421875 16.234375 3.953125 
Q 18.890625 2.484375 22.21875 2.484375 
Q 26.90625 2.484375 29.4375 4.609375 
Q 31.984375 6.734375 31.984375 10.6875 
Q 31.984375 12.75 31.171875 14.234375 
Q 30.375 15.71875 28.8125 16.84375 
Q 27.203125 17.96875 24.859375 18.875 
Q 22.515625 19.78125 19.625 20.65625 
Q 17.328125 21.34375 14.515625 22.53125 
Q 11.71875 23.734375 9.71875 25.34375 
Q 7.5625 27.046875 6.1875 29.53125 
Q 4.828125 32.03125 4.828125 35.40625 
Q 4.828125 41.3125 9.21875 45.40625 
Q 13.625 49.515625 21 49.515625 
Q 23.828125 49.515625 26.78125 48.78125 
Q 29.734375 48.046875 31.59375 47.015625 
L 32.71875 49.5625 
L 36.234375 49.5625 
L 36.96875 34.078125 
L 33.59375 34.078125 
Q 32.5625 39.265625 29.171875 42.5 
Q 25.78125 45.75 20.90625 45.75 
Q 16.890625 45.75 14.59375 43.75 
Q 12.3125 41.75 12.3125 38.921875 
Q 12.3125 36.71875 13.0625 35.25 
Q 13.8125 33.796875 15.328125 32.765625 
Q 16.796875 31.78125 19.015625 30.921875 
Q 21.234375 30.078125 24.515625 29 
Q 27.734375 27.984375 30.59375 26.609375 
Q 33.453125 25.25 35.296875 23.578125 
z
" id="Georgia-73"/>
     <path d="M 26.90625 0 
L 3.609375 0 
L 3.609375 3.21875 
Q 4.734375 3.328125 5.921875 3.421875 
Q 7.125 3.515625 8.015625 3.8125 
Q 9.375 4.25 10.03125 5.34375 
Q 10.6875 6.453125 10.6875 8.203125 
L 10.6875 37.9375 
Q 10.6875 39.5 9.984375 40.796875 
Q 9.28125 42.09375 8.015625 42.96875 
Q 7.078125 43.5625 5.3125 43.96875 
Q 3.5625 44.390625 2.09375 44.484375 
L 2.09375 47.65625 
L 19.09375 48.734375 
L 19.78125 48.046875 
L 19.78125 8.796875 
Q 19.78125 7.078125 20.4375 5.953125 
Q 21.09375 4.828125 22.515625 4.296875 
Q 23.578125 3.859375 24.609375 3.59375 
Q 25.640625 3.328125 26.90625 3.21875 
z
M 20.75 67.71875 
Q 20.75 64.9375 18.921875 62.859375 
Q 17.09375 60.796875 14.40625 60.796875 
Q 11.921875 60.796875 10.078125 62.765625 
Q 8.25 64.75 8.25 67.28125 
Q 8.25 69.96875 10.078125 71.96875 
Q 11.921875 73.96875 14.40625 73.96875 
Q 17.1875 73.96875 18.96875 72.09375 
Q 20.75 70.21875 20.75 67.71875 
z
" id="Georgia-69"/>
     <path d="M 56.6875 0 
L 33.109375 0 
L 33.109375 3.21875 
Q 34.234375 3.328125 35.578125 3.421875 
Q 36.921875 3.515625 37.796875 3.8125 
Q 39.15625 4.25 39.8125 5.34375 
Q 40.484375 6.453125 40.484375 8.203125 
L 40.484375 32.953125 
Q 40.484375 38.09375 38.0625 40.875 
Q 35.640625 43.65625 32.171875 43.65625 
Q 29.59375 43.65625 27.4375 42.84375 
Q 25.296875 42.046875 23.640625 40.875 
Q 22.015625 39.75 21.0625 38.453125 
Q 20.125 37.15625 19.671875 36.375 
L 19.671875 8.6875 
Q 19.671875 7.03125 20.359375 5.953125 
Q 21.046875 4.890625 22.40625 4.296875 
Q 23.4375 3.8125 24.625 3.5625 
Q 25.828125 3.328125 27.09375 3.21875 
L 27.09375 0 
L 3.515625 0 
L 3.515625 3.21875 
Q 4.640625 3.328125 5.828125 3.421875 
Q 7.03125 3.515625 7.90625 3.8125 
Q 9.28125 4.25 9.9375 5.34375 
Q 10.59375 6.453125 10.59375 8.203125 
L 10.59375 37.9375 
Q 10.59375 39.59375 9.890625 40.984375 
Q 9.1875 42.390625 7.90625 43.265625 
Q 6.984375 43.84375 5.703125 44.109375 
Q 4.4375 44.390625 2.984375 44.484375 
L 2.984375 47.65625 
L 19 48.734375 
L 19.671875 48.046875 
L 19.671875 41.265625 
L 19.921875 41.265625 
Q 21.09375 42.4375 22.84375 44.0625 
Q 24.609375 45.703125 26.171875 46.734375 
Q 27.984375 47.90625 30.46875 48.6875 
Q 32.953125 49.46875 36.078125 49.46875 
Q 43.015625 49.46875 46.359375 45.140625 
Q 49.703125 40.828125 49.703125 33.640625 
L 49.703125 8.59375 
Q 49.703125 6.890625 50.28125 5.828125 
Q 50.875 4.78125 52.296875 4.203125 
Q 53.46875 3.71875 54.3125 3.515625 
Q 55.171875 3.328125 56.6875 3.21875 
z
" id="Georgia-6e"/>
     <path id="Georgia-20"/>
     <path d="M 40.375 41.9375 
Q 40.375 39.453125 39.15625 37.515625 
Q 37.9375 35.59375 35.40625 35.59375 
Q 32.671875 35.59375 31.21875 37 
Q 29.78125 38.421875 29.78125 40.140625 
Q 29.78125 41.21875 29.953125 42.09375 
Q 30.125 42.96875 30.28125 43.84375 
Q 27.984375 43.84375 24.90625 41.984375 
Q 21.828125 40.140625 19.671875 36.71875 
L 19.671875 8.6875 
Q 19.671875 6.984375 20.328125 5.90625 
Q 21 4.828125 22.40625 4.296875 
Q 23.640625 3.8125 25.5625 3.5625 
Q 27.484375 3.328125 28.90625 3.21875 
L 28.90625 0 
L 3.515625 0 
L 3.515625 3.21875 
Q 4.640625 3.328125 5.828125 3.421875 
Q 7.03125 3.515625 7.90625 3.8125 
Q 9.28125 4.25 9.9375 5.34375 
Q 10.59375 6.453125 10.59375 8.203125 
L 10.59375 37.9375 
Q 10.59375 39.453125 9.890625 40.921875 
Q 9.1875 42.390625 7.90625 43.265625 
Q 6.984375 43.84375 5.703125 44.109375 
Q 4.4375 44.390625 2.984375 44.484375 
L 2.984375 47.65625 
L 19 48.734375 
L 19.671875 48.046875 
L 19.671875 41.265625 
L 19.921875 41.265625 
Q 22.953125 45.21875 26.65625 47.265625 
Q 30.375 49.3125 33.453125 49.3125 
Q 36.53125 49.3125 38.453125 47.3125 
Q 40.375 45.3125 40.375 41.9375 
z
" id="Georgia-72"/>
     <path d="M 44.78125 4.984375 
Q 46.734375 3.125 47.84375 0.78125 
Q 48.96875 -1.5625 48.96875 -5.03125 
Q 48.96875 -8.5 47.453125 -11.546875 
Q 45.953125 -14.59375 42.875 -16.84375 
Q 39.59375 -19.140625 35.046875 -20.40625 
Q 30.515625 -21.6875 23.828125 -21.6875 
Q 12.890625 -21.6875 7.46875 -18.484375 
Q 2.046875 -15.28125 2.046875 -9.125 
Q 2.046875 -4.15625 5.953125 -1.265625 
Q 9.859375 1.609375 15.921875 1.859375 
L 15.921875 2.546875 
Q 14.453125 2.984375 12.890625 3.640625 
Q 11.328125 4.296875 10.203125 5.171875 
Q 8.9375 6.203125 8.15625 7.59375 
Q 7.375 8.984375 7.375 11.03125 
Q 7.375 13.625 9.203125 15.796875 
Q 11.03125 17.96875 14.75 19.53125 
L 14.75 20.265625 
Q 10.0625 22.46875 7.46875 25.90625 
Q 4.890625 29.34375 4.890625 33.890625 
Q 4.890625 40.71875 9.984375 45.109375 
Q 15.09375 49.515625 23.046875 49.515625 
Q 25.25 49.515625 27.421875 49.078125 
Q 29.59375 48.640625 31.84375 47.953125 
L 48.640625 47.953125 
L 48.640625 43.265625 
L 37.3125 43.265625 
L 37.3125 42.96875 
Q 39.109375 40.875 39.984375 38.328125 
Q 40.875 35.796875 40.875 33.34375 
Q 40.875 27 35.71875 22.609375 
Q 30.5625 18.21875 23.734375 18.21875 
L 17.828125 18.21875 
Q 16.703125 17.828125 15.484375 16.796875 
Q 14.265625 15.765625 14.265625 14.015625 
Q 14.265625 12.203125 15.28125 11.25 
Q 16.3125 10.296875 17.78125 9.96875 
Q 19.1875 9.578125 21.0625 9.46875 
Q 22.953125 9.375 24.953125 9.328125 
Q 27.09375 9.28125 30.828125 9.03125 
Q 34.578125 8.796875 36.140625 8.734375 
Q 38.375 8.640625 40.640625 7.65625 
Q 42.921875 6.6875 44.78125 4.984375 
z
M 31.59375 33.546875 
Q 31.59375 39.265625 29.265625 42.65625 
Q 26.953125 46.046875 22.75 46.046875 
Q 20.453125 46.046875 18.8125 45.09375 
Q 17.1875 44.140625 16.15625 42.390625 
Q 15.1875 40.765625 14.765625 38.5 
Q 14.359375 36.234375 14.359375 33.84375 
Q 14.359375 28.421875 16.71875 25 
Q 19.09375 21.578125 22.859375 21.578125 
Q 27.046875 21.578125 29.3125 24.96875 
Q 31.59375 28.375 31.59375 33.546875 
z
M 40.96875 -6.84375 
Q 40.96875 -4.109375 39.6875 -2.34375 
Q 38.421875 -0.59375 35.84375 0.046875 
Q 34.46875 0.25 30.21875 0.484375 
Q 25.984375 0.734375 20.359375 0.734375 
Q 15.09375 -0.296875 12.859375 -2.703125 
Q 10.640625 -5.125 10.640625 -8.9375 
Q 10.640625 -10.640625 11.375 -12.203125 
Q 12.109375 -13.765625 13.921875 -15.09375 
Q 15.625 -16.359375 18.5 -17.15625 
Q 21.390625 -17.96875 25.53125 -17.96875 
Q 32.71875 -17.96875 36.84375 -15.203125 
Q 40.96875 -12.453125 40.96875 -6.84375 
z
" id="Georgia-67"/>
     <path d="M 50.4375 24.5625 
Q 50.4375 19.484375 48.828125 14.578125 
Q 47.21875 9.671875 44.234375 6.25 
Q 40.875 2.34375 36.421875 0.4375 
Q 31.984375 -1.46875 26.46875 -1.46875 
Q 21.875 -1.46875 17.71875 0.265625 
Q 13.578125 2 10.359375 5.328125 
Q 7.171875 8.59375 5.296875 13.296875 
Q 3.421875 18.015625 3.421875 23.875 
Q 3.421875 35.15625 9.984375 42.328125 
Q 16.546875 49.515625 27.203125 49.515625 
Q 37.3125 49.515625 43.875 42.703125 
Q 50.4375 35.890625 50.4375 24.5625 
z
M 40.328125 24.46875 
Q 40.328125 28.125 39.59375 32.203125 
Q 38.875 36.28125 37.40625 39.109375 
Q 35.84375 42.140625 33.296875 43.96875 
Q 30.765625 45.796875 27.09375 45.796875 
Q 23.34375 45.796875 20.671875 43.9375 
Q 18.015625 42.09375 16.359375 38.875 
Q 14.796875 35.890625 14.15625 32.078125 
Q 13.53125 28.265625 13.53125 24.703125 
Q 13.53125 20.015625 14.28125 16.03125 
Q 15.046875 12.0625 16.703125 8.9375 
Q 18.359375 5.8125 20.875 4.03125 
Q 23.390625 2.25 27.09375 2.25 
Q 33.203125 2.25 36.765625 8.15625 
Q 40.328125 14.0625 40.328125 24.46875 
z
" id="Georgia-6f"/>
     <path d="M 47.515625 42.4375 
Q 50.390625 39.015625 51.96875 34.5 
Q 53.5625 29.984375 53.5625 24.171875 
Q 53.5625 18.453125 51.65625 13.734375 
Q 49.75 9.03125 46.625 5.71875 
Q 43.359375 2.34375 39.359375 0.53125 
Q 35.359375 -1.265625 30.859375 -1.265625 
Q 26.515625 -1.265625 23.734375 -0.28125 
Q 20.953125 0.6875 19.1875 2 
L 18.796875 2 
L 18.796875 -12.453125 
Q 18.796875 -14.203125 19.484375 -15.375 
Q 20.171875 -16.546875 21.578125 -17.09375 
Q 22.75 -17.53125 24.921875 -17.9375 
Q 27.09375 -18.359375 28.515625 -18.40625 
L 28.515625 -21.6875 
L 1.609375 -21.6875 
L 1.609375 -18.40625 
Q 3.125 -18.3125 4.53125 -18.15625 
Q 5.953125 -18.015625 7.078125 -17.671875 
Q 8.546875 -17.1875 9.125 -15.96875 
Q 9.71875 -14.75 9.71875 -13.09375 
L 9.71875 38.140625 
Q 9.71875 39.59375 8.984375 40.953125 
Q 8.25 42.328125 7.078125 43.171875 
Q 6.203125 43.75 4.640625 44.0625 
Q 3.078125 44.390625 1.609375 44.484375 
L 1.609375 47.65625 
L 18.015625 48.734375 
L 18.703125 48.140625 
L 18.703125 42.71875 
L 19.09375 42.625 
Q 21.625 45.5625 25.390625 47.515625 
Q 29.15625 49.46875 32.859375 49.46875 
Q 37.359375 49.46875 41.09375 47.5625 
Q 44.828125 45.65625 47.515625 42.4375 
z
M 39.546875 7.8125 
Q 41.5 10.84375 42.421875 14.84375 
Q 43.359375 18.84375 43.359375 23.78125 
Q 43.359375 27.390625 42.578125 31.140625 
Q 41.796875 34.90625 40.140625 37.703125 
Q 38.484375 40.53125 35.796875 42.28125 
Q 33.109375 44.046875 29.34375 44.046875 
Q 25.734375 44.046875 23.1875 42.453125 
Q 20.65625 40.875 18.796875 38.671875 
L 18.796875 10.203125 
Q 19.234375 8.890625 20.234375 7.46875 
Q 21.234375 6.0625 22.46875 5.03125 
Q 23.96875 3.8125 25.71875 3.046875 
Q 27.484375 2.296875 30.03125 2.296875 
Q 32.765625 2.296875 35.296875 3.734375 
Q 37.84375 5.171875 39.546875 7.8125 
z
" id="Georgia-70"/>
     <path d="M 56.25 0.875 
L 39.453125 -0.203125 
L 38.71875 0.484375 
L 38.71875 4.984375 
L 38.328125 5.078125 
Q 35.796875 2.25 32.0625 0.4375 
Q 28.328125 -1.375 24.359375 -1.375 
Q 20.265625 -1.375 16.421875 0.453125 
Q 12.59375 2.296875 9.765625 5.609375 
Q 6.890625 8.984375 5.203125 13.71875 
Q 3.515625 18.453125 3.515625 24.171875 
Q 3.515625 29.390625 5.3125 34.078125 
Q 7.125 38.765625 10.296875 42.28125 
Q 13.28125 45.5625 17.59375 47.515625 
Q 21.921875 49.46875 26.421875 49.46875 
Q 29.78125 49.46875 33.03125 48.609375 
Q 36.28125 47.75 38.625 46.4375 
L 38.625 63.1875 
Q 38.625 65.234375 37.9375 66.921875 
Q 37.25 68.609375 36.03125 69.484375 
Q 34.671875 70.40625 32.34375 70.8125 
Q 30.03125 71.234375 27.34375 71.4375 
L 27.34375 74.46875 
L 47.015625 75.59375 
L 47.75 74.859375 
L 47.75 9.90625 
Q 47.75 8.203125 48.40625 7 
Q 49.078125 5.8125 50.34375 4.984375 
Q 51.265625 4.390625 53.015625 4.25 
Q 54.78125 4.109375 56.25 4.046875 
z
M 38.625 9.328125 
L 38.625 37.5 
Q 38.234375 38.765625 37.34375 40.234375 
Q 36.46875 41.703125 35.15625 42.921875 
Q 33.734375 44.140625 31.828125 44.9375 
Q 29.9375 45.75 27.390625 45.75 
Q 24.46875 45.75 22 44.234375 
Q 19.53125 42.71875 17.625 39.890625 
Q 15.828125 37.15625 14.765625 32.9375 
Q 13.71875 28.71875 13.71875 23.578125 
Q 13.71875 19.484375 14.5 16.140625 
Q 15.28125 12.796875 17.140625 9.90625 
Q 18.84375 7.171875 21.5 5.515625 
Q 24.171875 3.859375 27.828125 3.859375 
Q 31.734375 3.859375 34.296875 5.5625 
Q 36.859375 7.28125 38.625 9.328125 
z
" id="Georgia-64"/>
     <path d="M 25.78125 -1.265625 
Q 15.328125 -1.265625 9.421875 5.65625 
Q 3.515625 12.59375 3.515625 24.265625 
Q 3.515625 29.34375 5.09375 33.765625 
Q 6.6875 38.1875 9.71875 41.796875 
Q 12.59375 45.265625 16.9375 47.390625 
Q 21.296875 49.515625 26.421875 49.515625 
Q 33.5 49.515625 37.9375 46.109375 
Q 42.390625 42.71875 42.390625 36.859375 
Q 42.390625 34.421875 41.21875 32.546875 
Q 40.046875 30.671875 37.359375 30.671875 
Q 34.46875 30.671875 32.875 32.125 
Q 31.296875 33.59375 31.296875 35.40625 
Q 31.296875 37.59375 31.875 39.90625 
Q 32.46875 42.234375 32.5625 43.3125 
Q 31.6875 44.828125 29.953125 45.328125 
Q 28.21875 45.84375 26.21875 45.84375 
Q 23.875 45.84375 21.75 44.84375 
Q 19.625 43.84375 17.625 41.15625 
Q 15.828125 38.71875 14.703125 34.5625 
Q 13.578125 30.421875 13.578125 24.65625 
Q 13.578125 15.578125 17.59375 9.84375 
Q 21.625 4.109375 28.171875 4.109375 
Q 32.90625 4.109375 36.109375 6.390625 
Q 39.3125 8.6875 42.046875 13.28125 
L 45.171875 11.234375 
Q 41.9375 5.46875 36.65625 2.09375 
Q 31.390625 -1.265625 25.78125 -1.265625 
z
" id="Georgia-63"/>
     <path d="M 33.25 2.09375 
Q 30.078125 0.78125 27.25 -0.125 
Q 24.421875 -1.03125 20.3125 -1.03125 
Q 14.265625 -1.03125 11.796875 2.015625 
Q 9.328125 5.078125 9.328125 10.640625 
L 9.328125 43.265625 
L 0.640625 43.265625 
L 0.640625 47.953125 
L 9.515625 47.953125 
L 9.515625 62.9375 
L 18.40625 62.9375 
L 18.40625 47.953125 
L 32.234375 47.953125 
L 32.234375 43.265625 
L 18.5 43.265625 
L 18.5 16.359375 
Q 18.5 13.328125 18.71875 11.296875 
Q 18.953125 9.28125 19.78125 7.765625 
Q 20.5625 6.34375 22.125 5.609375 
Q 23.6875 4.890625 26.3125 4.890625 
Q 27.546875 4.890625 29.90625 5.109375 
Q 32.28125 5.328125 33.25 5.671875 
z
" id="Georgia-74"/>
     <path d="M 51.078125 45.171875 
Q 48.875 44.78125 46.890625 43.578125 
Q 44.921875 42.390625 43.5 39.359375 
Q 40.625 32.8125 37.546875 25.703125 
Q 34.46875 18.609375 31.15625 10.796875 
Q 30.171875 8.546875 29.078125 5.46875 
Q 27.984375 2.390625 27.046875 -0.4375 
L 23.25 -0.4375 
Q 18.609375 11.03125 14.703125 20.484375 
Q 10.796875 29.9375 6.59375 39.84375 
Q 5.609375 42.09375 3.4375 43.328125 
Q 1.265625 44.578125 -0.921875 44.921875 
L -0.921875 48.140625 
L 21.34375 48.140625 
L 21.34375 44.734375 
Q 19.875 44.671875 17.671875 44.109375 
Q 15.484375 43.5625 15.484375 42.578125 
Q 15.484375 42.4375 15.71875 41.828125 
Q 15.96875 41.21875 16.21875 40.4375 
Q 18.21875 35.453125 21.875 26.515625 
Q 25.53125 17.578125 27.828125 12.109375 
Q 29.59375 16.3125 32.25 22.5625 
Q 34.90625 28.8125 37.984375 36.53125 
Q 38.484375 37.84375 38.921875 38.984375 
Q 39.359375 40.140625 39.359375 41.3125 
Q 39.359375 42.140625 38.546875 42.796875 
Q 37.75 43.453125 36.625 43.953125 
Q 35.5 44.4375 34.421875 44.671875 
Q 33.34375 44.921875 32.671875 45.015625 
L 32.671875 48.140625 
L 51.078125 48.140625 
z
" id="Georgia-76"/>
    </defs>
    <g transform="translate(118.764219 24.8)scale(0.18 -0.18)">
     <use xlink:href="#Georgia-42"/>
     <use x="65.380859" xlink:href="#Georgia-61"/>
     <use x="115.771484" xlink:href="#Georgia-79"/>
     <use x="164.990234" xlink:href="#Georgia-65"/>
     <use x="213.330078" xlink:href="#Georgia-73"/>
     <use x="256.542969" xlink:href="#Georgia-69"/>
     <use x="285.839844" xlink:href="#Georgia-61"/>
     <use x="336.230469" xlink:href="#Georgia-6e"/>
     <use x="395.3125" xlink:href="#Georgia-20"/>
     <use x="419.433594" xlink:href="#Georgia-72"/>
     <use x="460.400391" xlink:href="#Georgia-65"/>
     <use x="508.740234" xlink:href="#Georgia-67"/>
     <use x="559.667969" xlink:href="#Georgia-72"/>
     <use x="600.634766" xlink:href="#Georgia-65"/>
     <use x="648.974609" xlink:href="#Georgia-73"/>
     <use x="692.1875" xlink:href="#Georgia-73"/>
     <use x="735.400391" xlink:href="#Georgia-69"/>
     <use x="764.697266" xlink:href="#Georgia-6f"/>
     <use x="818.603516" xlink:href="#Georgia-6e"/>
     <use x="877.685547" xlink:href="#Georgia-20"/>
     <use x="901.806641" xlink:href="#Georgia-70"/>
     <use x="958.935547" xlink:href="#Georgia-72"/>
     <use x="999.902344" xlink:href="#Georgia-65"/>
     <use x="1048.242188" xlink:href="#Georgia-64"/>
     <use x="1105.664062" xlink:href="#Georgia-69"/>
     <use x="1134.960938" xlink:href="#Georgia-63"/>
     <use x="1180.371094" xlink:href="#Georgia-74"/>
     <use x="1214.892578" xlink:href="#Georgia-69"/>
     <use x="1244.189453" xlink:href="#Georgia-76"/>
     <use x="1293.847656" xlink:href="#Georgia-65"/>
    </g>
   </g>
  </g>
 </g>
 <defs>
  <clipPath id="p393dd6d89a">
   <rect height="208.4" width="356.275" x="61.425" y="30.8"/>
  </clipPath>
 </defs>
</svg>
