<?xml version="1.0" encoding="utf-8" standalone="no"?>
<!DOCTYPE svg PUBLIC "-//W3C//DTD SVG 1.1//EN"
  "http://www.w3.org/Graphics/SVG/1.1/DTD/svg11.dtd">
<!-- Created with matplotlib (http://matplotlib.org/) -->
<svg height="288pt" version="1.1" viewBox="0 0 432 288" width="432pt" xmlns="http://www.w3.org/2000/svg" xmlns:xlink="http://www.w3.org/1999/xlink">
 <defs>
  <style type="text/css">
*{stroke-linecap:butt;stroke-linejoin:round;}
  </style>
 </defs>
 <g id="figure_1">
  <g id="patch_1">
   <path d="M 0 288 
L 432 288 
L 432 0 
L 0 0 
z
" style="fill:#ffffff;"/>
  </g>
  <g id="axes_1">
   <g id="patch_2">
    <path d="M 62.175 239.2 
L 417.7 239.2 
L 417.7 30.8 
L 62.175 30.8 
z
" style="fill:#ffffff;"/>
   </g>
   <g id="PolyCollection_1">
    <path clip-path="url(#p09b2f9a03b)" d="M 62.175 229.727273 
L 62.175 181.340542 
L 65.766162 180.029756 
L 69.357323 178.717165 
L 72.948485 177.402742 
L 76.539646 176.086462 
L 80.130808 174.768301 
L 83.72197 173.448231 
L 87.313131 172.126229 
L 90.904293 170.802267 
L 94.495455 169.476322 
L 98.086616 168.148367 
L 101.677778 166.818377 
L 105.268939 165.486327 
L 108.860101 164.152193 
L 112.451263 162.815948 
L 116.042424 161.477569 
L 119.633586 160.137032 
L 123.224747 158.794311 
L 126.815909 157.449383 
L 130.407071 156.102225 
L 133.998232 154.752813 
L 137.589394 153.401124 
L 141.180556 152.047137 
L 144.771717 150.690828 
L 148.362879 149.332176 
L 151.95404 147.971161 
L 155.545202 146.607761 
L 159.136364 145.241957 
L 162.727525 143.873729 
L 166.318687 142.503058 
L 169.909848 141.129927 
L 173.50101 139.754316 
L 177.092172 138.37621 
L 180.683333 136.995593 
L 184.274495 135.612448 
L 187.865657 134.226762 
L 191.456818 132.83852 
L 195.04798 131.44771 
L 198.639141 130.054319 
L 202.230303 128.658336 
L 205.821465 127.259751 
L 209.412626 125.858553 
L 213.003788 124.454735 
L 216.594949 123.048288 
L 220.186111 121.639207 
L 223.777273 120.227484 
L 227.368434 118.813116 
L 230.959596 117.396098 
L 234.550758 115.976429 
L 238.141919 114.554105 
L 241.733081 113.129126 
L 245.324242 111.701492 
L 248.915404 110.271204 
L 252.506566 108.838265 
L 256.097727 107.402678 
L 259.688889 105.964446 
L 263.280051 104.523575 
L 266.871212 103.080071 
L 270.462374 101.633941 
L 274.053535 100.185193 
L 277.644697 98.733836 
L 281.235859 97.279879 
L 284.82702 95.823334 
L 288.418182 94.364212 
L 292.009343 92.902525 
L 295.600505 91.438287 
L 299.191667 89.971512 
L 302.782828 88.502214 
L 306.37399 87.030409 
L 309.965152 85.556115 
L 313.556313 84.079347 
L 317.147475 82.600123 
L 320.738636 81.118463 
L 324.329798 79.634385 
L 327.92096 78.147908 
L 331.512121 76.659054 
L 335.103283 75.167841 
L 338.694444 73.674293 
L 342.285606 72.178431 
L 345.876768 70.680276 
L 349.467929 69.179852 
L 353.059091 67.677182 
L 356.650253 66.172288 
L 360.241414 64.665194 
L 363.832576 63.155925 
L 367.423737 61.644505 
L 371.014899 60.130958 
L 374.606061 58.615309 
L 378.197222 57.097582 
L 381.788384 55.577804 
L 385.379545 54.055998 
L 388.970707 52.532191 
L 392.561869 51.006407 
L 396.15303 49.478673 
L 399.744192 47.949013 
L 403.335354 46.417453 
L 406.926515 44.88402 
L 410.517677 43.348737 
L 414.108838 41.811631 
L 417.7 40.272727 
L 417.7 88.730715 
L 417.7 88.730715 
L 414.108838 90.040947 
L 410.517677 91.352976 
L 406.926515 92.666828 
L 403.335354 93.982529 
L 399.744192 95.300105 
L 396.15303 96.61958 
L 392.561869 97.940981 
L 388.970707 99.264333 
L 385.379545 100.58966 
L 381.788384 101.91699 
L 378.197222 103.246346 
L 374.606061 104.577755 
L 371.014899 105.911241 
L 367.423737 107.246828 
L 363.832576 108.584543 
L 360.241414 109.924409 
L 356.650253 111.266451 
L 353.059091 112.610692 
L 349.467929 113.957157 
L 345.876768 115.305868 
L 342.285606 116.656848 
L 338.694444 118.010121 
L 335.103283 119.365708 
L 331.512121 120.723631 
L 327.92096 122.083911 
L 324.329798 123.44657 
L 320.738636 124.811626 
L 317.147475 126.179101 
L 313.556313 127.549013 
L 309.965152 128.92138 
L 306.37399 130.29622 
L 302.782828 131.673551 
L 299.191667 133.053388 
L 295.600505 134.435748 
L 292.009343 135.820645 
L 288.418182 137.208093 
L 284.82702 138.598106 
L 281.235859 139.990696 
L 277.644697 141.385874 
L 274.053535 142.783652 
L 270.462374 144.184039 
L 266.871212 145.587044 
L 263.280051 146.992675 
L 259.688889 148.40094 
L 256.097727 149.811843 
L 252.506566 151.225391 
L 248.915404 152.641587 
L 245.324242 154.060434 
L 241.733081 155.481936 
L 238.141919 156.906092 
L 234.550758 158.332903 
L 230.959596 159.762368 
L 227.368434 161.194485 
L 223.777273 162.629252 
L 220.186111 164.066665 
L 216.594949 165.506718 
L 213.003788 166.949407 
L 209.412626 168.394724 
L 205.821465 169.842661 
L 202.230303 171.293211 
L 198.639141 172.746363 
L 195.04798 174.202107 
L 191.456818 175.660432 
L 187.865657 177.121325 
L 184.274495 178.584774 
L 180.683333 180.050765 
L 177.092172 181.519282 
L 173.50101 182.990311 
L 169.909848 184.463836 
L 166.318687 185.939839 
L 162.727525 187.418303 
L 159.136364 188.89921 
L 155.545202 190.382541 
L 151.95404 191.868277 
L 148.362879 193.356397 
L 144.771717 194.84688 
L 141.180556 196.339707 
L 137.589394 197.834854 
L 133.998232 199.332301 
L 130.407071 200.832024 
L 126.815909 202.334001 
L 123.224747 203.838208 
L 119.633586 205.344622 
L 116.042424 206.853219 
L 112.451263 208.363975 
L 108.860101 209.876866 
L 105.268939 211.391866 
L 101.677778 212.908952 
L 98.086616 214.428097 
L 94.495455 215.949277 
L 90.904293 217.472467 
L 87.313131 218.99764 
L 83.72197 220.524773 
L 80.130808 222.053839 
L 76.539646 223.584812 
L 72.948485 225.117668 
L 69.357323 226.65238 
L 65.766162 228.188923 
L 62.175 229.727273 
z
" style="fill:#808080;fill-opacity:0.5;"/>
   </g>
   <g id="PathCollection_1">
    <defs>
     <path d="M -3 3 
L 3 -3 
M -3 -3 
L 3 3 
" id="mad9db1a2d1" style="stroke:#ff0000;stroke-width:1.5;"/>
    </defs>
    <g clip-path="url(#p09b2f9a03b)">
     <use style="fill:#ff0000;stroke:#ff0000;stroke-width:1.5;" x="355.153935" xlink:href="#mad9db1a2d1" y="82.03492"/>
     <use style="fill:#ff0000;stroke:#ff0000;stroke-width:1.5;" x="190.559028" xlink:href="#mad9db1a2d1" y="165.836009"/>
     <use style="fill:#ff0000;stroke:#ff0000;stroke-width:1.5;" x="256.396991" xlink:href="#mad9db1a2d1" y="150.881433"/>
     <use style="fill:#ff0000;stroke:#ff0000;stroke-width:1.5;" x="388.072917" xlink:href="#mad9db1a2d1" y="74.080578"/>
     <use style="fill:#ff0000;stroke:#ff0000;stroke-width:1.5;" x="91.802083" xlink:href="#mad9db1a2d1" y="179.382469"/>
     <use style="fill:#ff0000;stroke:#ff0000;stroke-width:1.5;" x="289.315972" xlink:href="#mad9db1a2d1" y="94.938812"/>
     <use style="fill:#ff0000;stroke:#ff0000;stroke-width:1.5;" x="124.721065" xlink:href="#mad9db1a2d1" y="188.770238"/>
     <use style="fill:#ff0000;stroke:#ff0000;stroke-width:1.5;" x="322.234954" xlink:href="#mad9db1a2d1" y="107.133412"/>
     <use style="fill:#ff0000;stroke:#ff0000;stroke-width:1.5;" x="223.478009" xlink:href="#mad9db1a2d1" y="131.813934"/>
     <use style="fill:#ff0000;stroke:#ff0000;stroke-width:1.5;" x="157.640046" xlink:href="#mad9db1a2d1" y="174.035895"/>
    </g>
   </g>
   <g id="matplotlib.axis_1">
    <g id="xtick_1">
     <g id="line2d_1">
      <defs>
       <path d="M 0 0 
L 0 3.5 
" id="m60229e10d4" style="stroke:#000000;stroke-width:0.8;"/>
      </defs>
      <g>
       <use style="stroke:#000000;stroke-width:0.8;" x="91.802083" xlink:href="#m60229e10d4" y="239.2"/>
      </g>
     </g>
     <g id="text_1">
      <!-- 0.0 -->
      <defs>
       <path d="M 50.140625 45.609375 
Q 53.265625 41.84375 54.796875 36.78125 
Q 56.34375 31.734375 56.34375 26.21875 
Q 56.34375 19.578125 54.4375 14.328125 
Q 52.546875 9.078125 49.21875 5.609375 
Q 45.796875 2.046875 41.109375 0.234375 
Q 36.421875 -1.5625 30.671875 -1.5625 
Q 24.359375 -1.5625 19.421875 0.53125 
Q 14.5 2.640625 11.421875 6.296875 
Q 8.203125 10.109375 6.609375 15.203125 
Q 5.03125 20.3125 5.03125 26.21875 
Q 5.03125 32.03125 6.5625 36.90625 
Q 8.109375 41.796875 11.375 45.75 
Q 14.5 49.5625 19.421875 51.75 
Q 24.359375 53.953125 30.71875 53.953125 
Q 37.40625 53.953125 42.1875 51.703125 
Q 46.96875 49.46875 50.140625 45.609375 
z
M 45.5625 26.21875 
Q 45.5625 37.84375 41.578125 44.234375 
Q 37.59375 50.640625 30.765625 50.640625 
Q 23.828125 50.640625 19.828125 44.234375 
Q 15.828125 37.84375 15.828125 26.21875 
Q 15.828125 15.1875 19.65625 8.46875 
Q 23.484375 1.765625 30.671875 1.765625 
Q 37.84375 1.765625 41.703125 8.46875 
Q 45.5625 15.1875 45.5625 26.21875 
z
" id="Georgia-30"/>
       <path d="M 20.265625 5.609375 
Q 20.265625 2.875 18.28125 0.9375 
Q 16.3125 -0.984375 13.578125 -0.984375 
Q 10.84375 -0.984375 8.859375 0.9375 
Q 6.890625 2.875 6.890625 5.609375 
Q 6.890625 8.34375 8.859375 10.328125 
Q 10.84375 12.3125 13.578125 12.3125 
Q 16.3125 12.3125 18.28125 10.328125 
Q 20.265625 8.34375 20.265625 5.609375 
z
" id="Georgia-2e"/>
      </defs>
      <g transform="translate(82.819896 255.27125)scale(0.12 -0.12)">
       <use xlink:href="#Georgia-30"/>
       <use x="61.376953" xlink:href="#Georgia-2e"/>
       <use x="88.330078" xlink:href="#Georgia-30"/>
      </g>
     </g>
    </g>
    <g id="xtick_2">
     <g id="line2d_2">
      <g>
       <use style="stroke:#000000;stroke-width:0.8;" x="151.05625" xlink:href="#m60229e10d4" y="239.2"/>
      </g>
     </g>
     <g id="text_2">
      <!-- 0.2 -->
      <defs>
       <path d="M 51.125 0 
L 5.375 0 
L 5.375 6.640625 
Q 6.6875 8.15625 9.03125 10.03125 
Q 11.375 11.921875 14.59375 14.109375 
Q 16.546875 15.4375 19.28125 17 
Q 22.015625 18.5625 25.484375 20.40625 
Q 29.34375 22.46875 31.421875 24.03125 
Q 33.5 25.59375 35.203125 27.875 
Q 36.328125 29.390625 37.015625 31.65625 
Q 37.703125 33.9375 37.703125 38.140625 
Q 37.703125 44.234375 34.421875 47.09375 
Q 31.15625 49.953125 26.03125 49.953125 
Q 22.859375 49.953125 20.015625 48.703125 
Q 17.1875 47.46875 15.765625 45.265625 
Q 16.109375 43.703125 16.625 41.546875 
Q 17.140625 39.40625 17.140625 37.359375 
Q 17.140625 35.5 15.59375 34.0625 
Q 14.0625 32.625 11.03125 32.625 
Q 8.59375 32.625 7.265625 34.296875 
Q 5.953125 35.984375 5.953125 38.8125 
Q 5.953125 41.453125 7.421875 44.109375 
Q 8.890625 46.78125 11.625 49.03125 
Q 14.3125 51.21875 18.265625 52.578125 
Q 22.21875 53.953125 26.8125 53.953125 
Q 36.8125 53.953125 42.6875 49.484375 
Q 48.578125 45.015625 48.578125 37.546875 
Q 48.578125 33.984375 47.53125 31.046875 
Q 46.484375 28.125 44.140625 25.875 
Q 41.546875 23.390625 38.078125 21.609375 
Q 34.625 19.828125 27.484375 16.65625 
Q 23.25 14.75 19.578125 12.671875 
Q 15.921875 10.59375 13.578125 8.640625 
L 51.125 8.640625 
z
" id="Georgia-32"/>
      </defs>
      <g transform="translate(142.405 255.27125)scale(0.12 -0.12)">
       <use xlink:href="#Georgia-30"/>
       <use x="61.376953" xlink:href="#Georgia-2e"/>
       <use x="88.330078" xlink:href="#Georgia-32"/>
      </g>
     </g>
    </g>
    <g id="xtick_3">
     <g id="line2d_3">
      <g>
       <use style="stroke:#000000;stroke-width:0.8;" x="210.310417" xlink:href="#m60229e10d4" y="239.2"/>
      </g>
     </g>
     <g id="text_3">
      <!-- 0.4 -->
      <defs>
       <path d="M 52.9375 4.390625 
L 43.015625 4.390625 
L 43.015625 -17.828125 
L 33.640625 -17.828125 
L 33.640625 4.390625 
L 2.390625 4.390625 
L 2.390625 11.921875 
L 36.625 53.65625 
L 43.015625 53.65625 
L 43.015625 10.796875 
L 52.9375 10.796875 
z
M 33.640625 10.796875 
L 33.640625 42.78125 
L 7.28125 10.796875 
z
" id="Georgia-34"/>
      </defs>
      <g transform="translate(201.620729 255.27125)scale(0.12 -0.12)">
       <use xlink:href="#Georgia-30"/>
       <use x="61.376953" xlink:href="#Georgia-2e"/>
       <use x="88.330078" xlink:href="#Georgia-34"/>
      </g>
     </g>
    </g>
    <g id="xtick_4">
     <g id="line2d_4">
      <g>
       <use style="stroke:#000000;stroke-width:0.8;" x="269.564583" xlink:href="#m60229e10d4" y="239.2"/>
      </g>
     </g>
     <g id="text_4">
      <!-- 0.6 -->
      <defs>
       <path d="M 52.484375 22.515625 
Q 52.484375 17.4375 50.65625 12.984375 
Q 48.828125 8.546875 45.75 5.421875 
Q 42.1875 1.859375 37.859375 0.140625 
Q 33.546875 -1.5625 28.859375 -1.5625 
Q 23.4375 -1.5625 19.046875 0.4375 
Q 14.65625 2.4375 11.578125 6.109375 
Q 8.453125 9.8125 6.734375 15.1875 
Q 5.03125 20.5625 5.03125 27.25 
Q 5.03125 44.671875 15.40625 56.640625 
Q 25.78125 68.609375 43.21875 71 
L 44.09375 66.609375 
L 39.703125 65.828125 
Q 29.109375 62.40625 23.3125 55.171875 
Q 17.53125 47.953125 15.828125 37.640625 
Q 20.015625 41.3125 24.109375 42.828125 
Q 28.21875 44.34375 32.765625 44.34375 
Q 40.921875 44.34375 46.703125 38.09375 
Q 52.484375 31.84375 52.484375 22.515625 
z
M 41.890625 21.1875 
Q 41.890625 29.109375 38.25 33.890625 
Q 34.625 38.671875 28.515625 38.671875 
Q 24.859375 38.671875 21.703125 37.296875 
Q 18.5625 35.9375 15.625 32.71875 
Q 15.578125 32.125 15.46875 30 
Q 15.375 27.875 15.375 26.65625 
Q 15.375 15.234375 19.109375 8.765625 
Q 22.859375 2.296875 28.953125 2.296875 
Q 34.765625 2.296875 38.328125 7.34375 
Q 41.890625 12.40625 41.890625 21.1875 
z
" id="Georgia-36"/>
      </defs>
      <g transform="translate(260.869271 255.27125)scale(0.12 -0.12)">
       <use xlink:href="#Georgia-30"/>
       <use x="61.376953" xlink:href="#Georgia-2e"/>
       <use x="88.330078" xlink:href="#Georgia-36"/>
      </g>
     </g>
    </g>
    <g id="xtick_5">
     <g id="line2d_5">
      <g>
       <use style="stroke:#000000;stroke-width:0.8;" x="328.81875" xlink:href="#m60229e10d4" y="239.2"/>
      </g>
     </g>
     <g id="text_5">
      <!-- 0.8 -->
      <defs>
       <path d="M 54.546875 18.359375 
Q 54.546875 10.15625 47.453125 4.25 
Q 40.375 -1.65625 28.859375 -1.65625 
Q 18.0625 -1.65625 11.5625 3.765625 
Q 5.078125 9.1875 5.078125 17.71875 
Q 5.078125 24.03125 8.90625 28.25 
Q 12.75 32.46875 20.265625 35.40625 
Q 14.0625 38.875 10.984375 43.015625 
Q 7.90625 47.171875 7.90625 52.390625 
Q 7.90625 60.359375 14.671875 65.71875 
Q 21.4375 71.09375 30.859375 71.09375 
Q 40.28125 71.09375 46.109375 66.015625 
Q 51.953125 60.9375 51.953125 53.265625 
Q 51.953125 48.34375 48.734375 43.921875 
Q 45.515625 39.5 39.265625 36.671875 
Q 47.359375 33.203125 50.953125 29 
Q 54.546875 24.8125 54.546875 18.359375 
z
M 42.71875 53.8125 
Q 42.71875 59.765625 39.171875 63.5 
Q 35.640625 67.234375 30.125 67.234375 
Q 24.609375 67.234375 21.09375 63.640625 
Q 17.578125 60.0625 17.578125 54.734375 
Q 17.578125 49.609375 21.578125 46.046875 
Q 25.59375 42.484375 35.84375 38.421875 
Q 39.5 40.765625 41.109375 44.625 
Q 42.71875 48.484375 42.71875 53.8125 
z
M 44.78125 16.0625 
Q 44.78125 19.140625 43.453125 21.453125 
Q 42.140625 23.78125 39.65625 25.6875 
Q 37.25 27.546875 32.984375 29.5625 
Q 28.71875 31.59375 23.734375 33.6875 
Q 19.046875 31.15625 16.84375 27.21875 
Q 14.65625 23.296875 14.65625 18.265625 
Q 14.65625 11.078125 18.875 6.65625 
Q 23.09375 2.25 30.125 2.25 
Q 36.859375 2.25 40.8125 6.15625 
Q 44.78125 10.0625 44.78125 16.0625 
z
" id="Georgia-38"/>
      </defs>
      <g transform="translate(319.941562 255.27125)scale(0.12 -0.12)">
       <use xlink:href="#Georgia-30"/>
       <use x="61.376953" xlink:href="#Georgia-2e"/>
       <use x="88.330078" xlink:href="#Georgia-38"/>
      </g>
     </g>
    </g>
    <g id="xtick_6">
     <g id="line2d_6">
      <g>
       <use style="stroke:#000000;stroke-width:0.8;" x="388.072917" xlink:href="#m60229e10d4" y="239.2"/>
      </g>
     </g>
     <g id="text_6">
      <!-- 1.0 -->
      <defs>
       <path d="M 39.5 0 
L 6.59375 0 
L 6.59375 3.46875 
Q 8.0625 3.5625 11.15625 3.875 
Q 14.265625 4.203125 15.4375 4.546875 
Q 16.9375 5.03125 17.75 6.125 
Q 18.5625 7.234375 18.5625 9.421875 
L 18.5625 43.703125 
L 6.390625 43.703125 
L 6.390625 47.796875 
L 9.078125 47.796875 
Q 14.359375 47.796875 18.53125 49.75 
Q 22.703125 51.703125 24.515625 53.953125 
L 28.5625 53.953125 
Q 28.421875 50.78125 28.265625 46.53125 
Q 28.125 42.28125 28.125 38.921875 
L 28.125 9.96875 
Q 28.125 8.25 28.875 6.90625 
Q 29.640625 5.5625 31.0625 4.9375 
Q 32.328125 4.390625 35.203125 3.953125 
Q 38.09375 3.515625 39.5 3.46875 
z
" id="Georgia-31"/>
      </defs>
      <g transform="translate(380.195104 255.27125)scale(0.12 -0.12)">
       <use xlink:href="#Georgia-31"/>
       <use x="42.96875" xlink:href="#Georgia-2e"/>
       <use x="69.921875" xlink:href="#Georgia-30"/>
      </g>
     </g>
    </g>
    <g id="text_7">
     <!-- $x$ -->
     <defs>
      <path d="M 24.296875 35.5 
L 25.5 29.796875 
Q 30.796875 37.90625 34.046875 41 
Q 37.296875 44.09375 40.59375 44.09375 
Q 42.40625 44.09375 43.546875 43.046875 
Q 44.703125 42 44.703125 40.390625 
Q 44.703125 38.796875 43.75 37.796875 
Q 42.796875 36.796875 41.296875 36.796875 
Q 40.40625 36.796875 38.90625 37.640625 
Q 37.40625 38.5 36.09375 38.5 
Q 33.203125 38.5 26.296875 26.40625 
Q 26.296875 25.09375 27.09375 21.90625 
L 30.296875 8.5 
Q 31.296875 4.40625 33.296875 4.40625 
Q 34.90625 4.40625 38 8.40625 
Q 38.296875 8.796875 38.6875 9.34375 
Q 39.09375 9.90625 39.390625 10.34375 
Q 39.703125 10.796875 40.09375 11.203125 
L 41.59375 10.296875 
Q 37.296875 3.59375 34.796875 1.25 
Q 32.296875 -1.09375 29.40625 -1.09375 
Q 27 -1.09375 25.703125 0.40625 
Q 24.40625 1.90625 23.5 5.703125 
L 20.59375 17.59375 
L 11.796875 5.703125 
Q 8.703125 1.5 6.75 0.203125 
Q 4.796875 -1.09375 2.296875 -1.09375 
Q 0 -1.09375 -1.34375 0 
Q -2.703125 1.09375 -2.703125 3.09375 
Q -2.703125 4.59375 -1.75 5.640625 
Q -0.796875 6.703125 0.703125 6.703125 
Q 1.90625 6.703125 3.90625 5.59375 
Q 5.40625 4.703125 6.5 4.703125 
Q 8.203125 4.703125 11.59375 9.59375 
L 19.796875 21.203125 
L 17 33.59375 
Q 16 38 15.140625 39.203125 
Q 14.296875 40.40625 12.40625 40.40625 
Q 11.203125 40.40625 8.5 39.703125 
L 6.703125 39.203125 
L 6.40625 40.796875 
L 7.5 41.203125 
Q 15.5 44.09375 19.203125 44.09375 
Q 21.09375 44.09375 22.1875 42.296875 
Q 23.296875 40.5 24.296875 35.5 
z
" id="STIXGeneral-Italic-78"/>
     </defs>
     <g transform="translate(236.3375 273.96875)scale(0.16 -0.16)">
      <use transform="translate(0 0.90625)" xlink:href="#STIXGeneral-Italic-78"/>
     </g>
    </g>
   </g>
   <g id="matplotlib.axis_2">
    <g id="ytick_1">
     <g id="line2d_7">
      <defs>
       <path d="M 0 0 
L -3.5 0 
" id="m0697e04af3" style="stroke:#000000;stroke-width:0.8;"/>
      </defs>
      <g>
       <use style="stroke:#000000;stroke-width:0.8;" x="62.175" xlink:href="#m0697e04af3" y="227.470425"/>
      </g>
     </g>
     <g id="text_8">
      <!-- 0.0 -->
      <g transform="translate(37.210625 232.00605)scale(0.12 -0.12)">
       <use xlink:href="#Georgia-30"/>
       <use x="61.376953" xlink:href="#Georgia-2e"/>
       <use x="88.330078" xlink:href="#Georgia-30"/>
      </g>
     </g>
    </g>
    <g id="ytick_2">
     <g id="line2d_8">
      <g>
       <use style="stroke:#000000;stroke-width:0.8;" x="62.175" xlink:href="#m0697e04af3" y="175.476086"/>
      </g>
     </g>
     <g id="text_9">
      <!-- 0.5 -->
      <defs>
       <path d="M 41.15625 22.90625 
Q 44.390625 20.359375 46.515625 16.359375 
Q 48.640625 12.359375 48.640625 6.34375 
Q 48.640625 -4.15625 41.453125 -10.984375 
Q 34.28125 -17.828125 23.25 -17.828125 
Q 14.703125 -17.828125 8.78125 -13.765625 
Q 2.875 -9.71875 2.875 -4.34375 
Q 2.875 -1.859375 4.09375 0 
Q 5.328125 1.859375 7.859375 1.859375 
Q 10.796875 1.859375 12.328125 0.3125 
Q 13.875 -1.21875 13.875 -3.03125 
Q 13.875 -4.59375 13.328125 -6.9375 
Q 12.796875 -9.28125 12.5 -10.40625 
Q 12.890625 -10.75 13.765625 -11.328125 
Q 14.65625 -11.921875 15.875 -12.453125 
Q 17.140625 -12.984375 18.96875 -13.390625 
Q 20.796875 -13.8125 23.25 -13.8125 
Q 26.375 -13.8125 29.15625 -12.546875 
Q 31.9375 -11.28125 33.84375 -8.796875 
Q 35.9375 -6.0625 36.984375 -2.5625 
Q 38.03125 0.921875 38.03125 6.296875 
Q 38.03125 13.1875 34.203125 17.703125 
Q 30.375 22.21875 24.125 22.21875 
Q 20.21875 22.21875 16.8125 20.75 
Q 13.421875 19.28125 10.75 15.875 
L 7.46875 17.140625 
L 11.625 52.390625 
L 46.578125 52.390625 
L 46.578125 43.703125 
L 15.578125 43.703125 
L 13.03125 23 
Q 15.234375 24.5625 18.8125 26.09375 
Q 22.40625 27.640625 26.703125 27.640625 
Q 30.28125 27.640625 34.109375 26.53125 
Q 37.9375 25.4375 41.15625 22.90625 
z
" id="Georgia-35"/>
      </defs>
      <g transform="translate(38.23625 180.011711)scale(0.12 -0.12)">
       <use xlink:href="#Georgia-30"/>
       <use x="61.376953" xlink:href="#Georgia-2e"/>
       <use x="88.330078" xlink:href="#Georgia-35"/>
      </g>
     </g>
    </g>
    <g id="ytick_3">
     <g id="line2d_9">
      <g>
       <use style="stroke:#000000;stroke-width:0.8;" x="62.175" xlink:href="#m0697e04af3" y="123.481747"/>
      </g>
     </g>
     <g id="text_10">
      <!-- 1.0 -->
      <g transform="translate(39.419375 128.017372)scale(0.12 -0.12)">
       <use xlink:href="#Georgia-31"/>
       <use x="42.96875" xlink:href="#Georgia-2e"/>
       <use x="69.921875" xlink:href="#Georgia-30"/>
      </g>
     </g>
    </g>
    <g id="ytick_4">
     <g id="line2d_10">
      <g>
       <use style="stroke:#000000;stroke-width:0.8;" x="62.175" xlink:href="#m0697e04af3" y="71.487408"/>
      </g>
     </g>
     <g id="text_11">
      <!-- 1.5 -->
      <g transform="translate(40.445 76.023033)scale(0.12 -0.12)">
       <use xlink:href="#Georgia-31"/>
       <use x="42.96875" xlink:href="#Georgia-2e"/>
       <use x="69.921875" xlink:href="#Georgia-35"/>
      </g>
     </g>
    </g>
    <g id="text_12">
     <!-- $y$ -->
     <defs>
      <path d="M 24.296875 18.59375 
L 26.40625 7.59375 
Q 33.09375 18.59375 35.84375 24.34375 
Q 38.59375 30.09375 38.59375 33.296875 
Q 38.59375 34.90625 36 36.5 
Q 33.40625 38.203125 33.40625 40.40625 
Q 33.40625 42 34.546875 43.046875 
Q 35.703125 44.09375 37.40625 44.09375 
Q 39.59375 44.09375 41.09375 42.5 
Q 42.59375 40.90625 42.59375 38.59375 
Q 42.59375 29.90625 29.5 8.09375 
Q 21.703125 -4.796875 14.34375 -12.6875 
Q 7 -20.59375 2.703125 -20.59375 
Q 0.40625 -20.59375 -1 -19.390625 
Q -2.40625 -18.203125 -2.40625 -16.296875 
Q -2.40625 -14.59375 -1.25 -13.4375 
Q -0.09375 -12.296875 1.5 -12.296875 
Q 3.40625 -12.296875 4.90625 -13.6875 
Q 6.40625 -15.09375 7.59375 -15.09375 
Q 9.40625 -15.09375 12.40625 -11.796875 
Q 13.703125 -10.5 16.25 -7.140625 
Q 18.796875 -3.796875 19.5 -2.703125 
Q 20.5 -0.703125 20.5 0.796875 
Q 20.5 3.796875 17.390625 16.34375 
Q 14.296875 28.90625 12.296875 34 
Q 10.90625 37.703125 9.25 39.046875 
Q 7.59375 40.40625 4.59375 40.40625 
Q 3 40.40625 1.5 40 
L 1.5 41.703125 
Q 3.703125 42.09375 4.703125 42.296875 
Q 8.796875 43.09375 15.40625 44.09375 
L 15.796875 44.09375 
Q 16.90625 44.09375 19.953125 34.796875 
Q 23 25.5 24.296875 18.59375 
z
" id="STIXGeneral-Italic-79"/>
     </defs>
     <g transform="translate(29.740625 138.6)rotate(-90)scale(0.16 -0.16)">
      <use transform="translate(0 0.90625)" xlink:href="#STIXGeneral-Italic-79"/>
     </g>
    </g>
   </g>
   <g id="line2d_11">
    <path clip-path="url(#p09b2f9a03b)" d="M 62.175 205.533907 
L 65.766162 204.10934 
L 69.357323 202.684772 
L 72.948485 201.260205 
L 76.539646 199.835637 
L 80.130808 198.41107 
L 83.72197 196.986502 
L 87.313131 195.561935 
L 90.904293 194.137367 
L 94.495455 192.7128 
L 98.086616 191.288232 
L 101.677778 189.863664 
L 105.268939 188.439097 
L 108.860101 187.014529 
L 112.451263 185.589962 
L 116.042424 184.165394 
L 119.633586 182.740827 
L 123.224747 181.316259 
L 126.815909 179.891692 
L 130.407071 178.467124 
L 133.998232 177.042557 
L 137.589394 175.617989 
L 141.180556 174.193422 
L 144.771717 172.768854 
L 148.362879 171.344286 
L 151.95404 169.919719 
L 155.545202 168.495151 
L 159.136364 167.070584 
L 162.727525 165.646016 
L 166.318687 164.221449 
L 169.909848 162.796881 
L 173.50101 161.372314 
L 177.092172 159.947746 
L 180.683333 158.523179 
L 184.274495 157.098611 
L 187.865657 155.674044 
L 191.456818 154.249476 
L 195.04798 152.824909 
L 198.639141 151.400341 
L 202.230303 149.975773 
L 205.821465 148.551206 
L 209.412626 147.126638 
L 213.003788 145.702071 
L 216.594949 144.277503 
L 220.186111 142.852936 
L 223.777273 141.428368 
L 227.368434 140.003801 
L 230.959596 138.579233 
L 234.550758 137.154666 
L 238.141919 135.730098 
L 241.733081 134.305531 
L 245.324242 132.880963 
L 248.915404 131.456395 
L 252.506566 130.031828 
L 256.097727 128.60726 
L 259.688889 127.182693 
L 263.280051 125.758125 
L 266.871212 124.333558 
L 270.462374 122.90899 
L 274.053535 121.484423 
L 277.644697 120.059855 
L 281.235859 118.635288 
L 284.82702 117.21072 
L 288.418182 115.786153 
L 292.009343 114.361585 
L 295.600505 112.937017 
L 299.191667 111.51245 
L 302.782828 110.087882 
L 306.37399 108.663315 
L 309.965152 107.238747 
L 313.556313 105.81418 
L 317.147475 104.389612 
L 320.738636 102.965045 
L 324.329798 101.540477 
L 327.92096 100.11591 
L 331.512121 98.691342 
L 335.103283 97.266775 
L 338.694444 95.842207 
L 342.285606 94.41764 
L 345.876768 92.993072 
L 349.467929 91.568504 
L 353.059091 90.143937 
L 356.650253 88.719369 
L 360.241414 87.294802 
L 363.832576 85.870234 
L 367.423737 84.445667 
L 371.014899 83.021099 
L 374.606061 81.596532 
L 378.197222 80.171964 
L 381.788384 78.747397 
L 385.379545 77.322829 
L 388.970707 75.898262 
L 392.561869 74.473694 
L 396.15303 73.049126 
L 399.744192 71.624559 
L 403.335354 70.199991 
L 406.926515 68.775424 
L 410.517677 67.350856 
L 414.108838 65.926289 
L 417.7 64.501721 
" style="fill:none;stroke:#000000;stroke-linecap:square;stroke-width:1.5;"/>
   </g>
   <g id="patch_3">
    <path d="M 62.175 239.2 
L 62.175 30.8 
" style="fill:none;stroke:#000000;stroke-linecap:square;stroke-linejoin:miter;stroke-width:0.8;"/>
   </g>
   <g id="patch_4">
    <path d="M 417.7 239.2 
L 417.7 30.8 
" style="fill:none;stroke:#000000;stroke-linecap:square;stroke-linejoin:miter;stroke-width:0.8;"/>
   </g>
   <g id="patch_5">
    <path d="M 62.175 239.2 
L 417.7 239.2 
" style="fill:none;stroke:#000000;stroke-linecap:square;stroke-linejoin:miter;stroke-width:0.8;"/>
   </g>
   <g id="patch_6">
    <path d="M 62.175 30.8 
L 417.7 30.8 
" style="fill:none;stroke:#000000;stroke-linecap:square;stroke-linejoin:miter;stroke-width:0.8;"/>
   </g>
   <g id="text_13">
    <!-- Bayesian regression predictive -->
    <defs>
     <path d="M 53.90625 32.28125 
Q 56.9375 30.21875 58.9375 26.890625 
Q 60.9375 23.578125 60.9375 18.84375 
Q 60.9375 14.015625 58.828125 10.453125 
Q 56.734375 6.890625 53.375 4.59375 
Q 50.09375 2.34375 45.96875 1.171875 
Q 41.84375 0 37.453125 0 
L 4.640625 0 
L 4.640625 3.46875 
Q 5.8125 3.5625 8.046875 3.875 
Q 10.296875 4.203125 11.28125 4.640625 
Q 12.796875 5.328125 13.421875 6.46875 
Q 14.0625 7.625 14.0625 9.421875 
L 14.0625 59.234375 
Q 14.0625 60.890625 13.5 62.15625 
Q 12.9375 63.421875 11.28125 64.203125 
Q 9.8125 64.9375 8 65.328125 
Q 6.203125 65.71875 4.984375 65.828125 
L 4.984375 69.28125 
L 36.96875 69.28125 
Q 40.671875 69.28125 44.0625 68.546875 
Q 47.46875 67.828125 50.53125 65.96875 
Q 53.421875 64.265625 55.265625 61.328125 
Q 57.125 58.40625 57.125 54.203125 
Q 57.125 50.53125 55.8125 47.671875 
Q 54.5 44.828125 52.09375 42.78125 
Q 49.859375 40.828125 46.953125 39.484375 
Q 44.046875 38.140625 40.671875 37.40625 
L 40.671875 36.96875 
Q 43.65625 36.625 47.34375 35.46875 
Q 51.03125 34.328125 53.90625 32.28125 
z
M 42.140625 42.71875 
Q 43.953125 44.828125 44.65625 47.3125 
Q 45.359375 49.8125 45.359375 53.21875 
Q 45.359375 58.9375 42.234375 62.1875 
Q 39.109375 65.4375 32.375 65.4375 
Q 30.8125 65.4375 28.4375 65.359375 
Q 26.078125 65.28125 24.46875 65.234375 
L 24.46875 38.625 
L 30.671875 38.625 
Q 34.671875 38.625 37.515625 39.640625 
Q 40.375 40.671875 42.140625 42.71875 
z
M 48.875 20.609375 
Q 48.875 26.765625 44.75 30.71875 
Q 40.625 34.671875 32.953125 34.671875 
Q 29.828125 34.671875 27.671875 34.59375 
Q 25.53125 34.515625 24.46875 34.46875 
L 24.46875 10.0625 
Q 24.46875 6.984375 26.953125 5.421875 
Q 29.4375 3.859375 33.890625 3.859375 
Q 41.15625 3.859375 45.015625 8.109375 
Q 48.875 12.359375 48.875 20.609375 
z
" id="Georgia-42"/>
     <path d="M 49.125 0.875 
Q 46.828125 0.046875 45.09375 -0.46875 
Q 43.359375 -0.984375 41.15625 -0.984375 
Q 37.359375 -0.984375 35.078125 0.796875 
Q 32.8125 2.59375 32.171875 6 
L 31.890625 6 
Q 28.71875 2.484375 25.078125 0.625 
Q 21.4375 -1.21875 16.3125 -1.21875 
Q 10.890625 -1.21875 7.390625 2.09375 
Q 3.90625 5.421875 3.90625 10.796875 
Q 3.90625 13.578125 4.6875 15.765625 
Q 5.46875 17.96875 7.03125 19.734375 
Q 8.25 21.1875 10.25 22.328125 
Q 12.25 23.484375 14.015625 24.171875 
Q 16.21875 25 22.921875 27.25 
Q 29.640625 29.5 31.984375 30.765625 
L 31.984375 35.59375 
Q 31.984375 36.234375 31.71875 38.03125 
Q 31.453125 39.84375 30.5625 41.453125 
Q 29.59375 43.265625 27.8125 44.609375 
Q 26.03125 45.953125 22.75 45.953125 
Q 20.515625 45.953125 18.578125 45.1875 
Q 16.65625 44.4375 15.875 43.609375 
Q 15.875 42.625 16.328125 40.71875 
Q 16.796875 38.8125 16.796875 37.203125 
Q 16.796875 35.5 15.25 34.078125 
Q 13.71875 32.671875 10.984375 32.671875 
Q 8.546875 32.671875 7.390625 34.40625 
Q 6.25 36.140625 6.25 38.28125 
Q 6.25 40.53125 7.828125 42.578125 
Q 9.421875 44.625 11.96875 46.234375 
Q 14.15625 47.609375 17.28125 48.5625 
Q 20.40625 49.515625 23.390625 49.515625 
Q 27.484375 49.515625 30.53125 48.953125 
Q 33.59375 48.390625 36.078125 46.53125 
Q 38.578125 44.734375 39.859375 41.625 
Q 41.15625 38.53125 41.15625 33.640625 
Q 41.15625 26.65625 41.015625 21.265625 
Q 40.875 15.875 40.875 9.46875 
Q 40.875 7.5625 41.53125 6.4375 
Q 42.1875 5.328125 43.5625 4.546875 
Q 44.28125 4.109375 45.875 4.046875 
Q 47.46875 4 49.125 4 
z
M 32.078125 26.65625 
Q 27.9375 25.4375 24.8125 24.265625 
Q 21.6875 23.09375 19 21.34375 
Q 16.546875 19.671875 15.125 17.40625 
Q 13.71875 15.140625 13.71875 12.015625 
Q 13.71875 7.953125 15.84375 6.046875 
Q 17.96875 4.15625 21.234375 4.15625 
Q 24.703125 4.15625 27.34375 5.828125 
Q 29.984375 7.515625 31.78125 9.8125 
z
" id="Georgia-61"/>
     <path d="M -0.140625 -15.71875 
Q -0.140625 -13.28125 1.203125 -11.734375 
Q 2.546875 -10.203125 4.546875 -10.203125 
Q 6.109375 -10.203125 7.21875 -10.78125 
Q 8.34375 -11.375 9.234375 -12.3125 
Q 9.96875 -13.03125 10.796875 -14.296875 
Q 11.625 -15.578125 12.109375 -16.40625 
Q 14.546875 -15.09375 17.9375 -9.515625 
Q 21.34375 -3.953125 22.859375 0.25 
Q 18.21875 11.8125 14.453125 20.9375 
Q 10.6875 30.078125 6.59375 39.84375 
Q 5.671875 42.09375 3.46875 43.328125 
Q 1.265625 44.578125 -0.921875 44.921875 
L -0.921875 48.140625 
L 21.046875 48.140625 
L 21.046875 44.734375 
Q 19.578125 44.671875 17.53125 44.109375 
Q 15.484375 43.5625 15.484375 42.828125 
Q 15.484375 42.53125 15.703125 41.84375 
Q 15.921875 41.15625 16.21875 40.4375 
Q 18.0625 35.59375 21.875 26.484375 
Q 25.6875 17.390625 27.78125 11.921875 
Q 29.984375 17.140625 32.34375 22.734375 
Q 34.71875 28.328125 37.640625 35.9375 
Q 37.984375 36.859375 38.625 38.5 
Q 39.265625 40.140625 39.265625 41.3125 
Q 39.265625 42.578125 37.03125 43.671875 
Q 34.8125 44.78125 32.8125 45.015625 
L 32.8125 48.140625 
L 50.6875 48.140625 
L 50.6875 45.125 
Q 49.21875 44.875 46.828125 43.4375 
Q 44.4375 42 43.265625 39.359375 
Q 37.453125 25.875 32.9375 14.796875 
Q 28.421875 3.71875 26.078125 -1.515625 
Q 23 -8.34375 20.578125 -12.171875 
Q 18.171875 -16.015625 15.875 -18.21875 
Q 13.625 -20.265625 11.796875 -20.96875 
Q 9.96875 -21.6875 8.015625 -21.6875 
Q 4.203125 -21.6875 2.03125 -19.875 
Q -0.140625 -18.0625 -0.140625 -15.71875 
z
" id="Georgia-79"/>
     <path d="M 46.296875 11.328125 
Q 43.265625 5.5625 38.1875 2.140625 
Q 33.109375 -1.265625 26.515625 -1.265625 
Q 20.703125 -1.265625 16.328125 0.78125 
Q 11.96875 2.828125 9.125 6.34375 
Q 6.296875 9.859375 4.90625 14.546875 
Q 3.515625 19.234375 3.515625 24.46875 
Q 3.515625 29.15625 5 33.671875 
Q 6.5 38.1875 9.375 41.796875 
Q 12.15625 45.265625 16.28125 47.390625 
Q 20.40625 49.515625 25.53125 49.515625 
Q 30.8125 49.515625 34.5625 47.84375 
Q 38.328125 46.1875 40.671875 43.3125 
Q 42.921875 40.578125 44.015625 36.859375 
Q 45.125 33.15625 45.125 28.8125 
L 45.125 25.59375 
L 13.234375 25.59375 
Q 13.234375 20.84375 14.140625 16.984375 
Q 15.046875 13.140625 17 10.203125 
Q 18.890625 7.375 21.96875 5.734375 
Q 25.046875 4.109375 29.296875 4.109375 
Q 33.640625 4.109375 36.78125 6.125 
Q 39.9375 8.15625 42.875 13.421875 
z
M 35.5 29.6875 
Q 35.5 32.421875 35.03125 35.546875 
Q 34.578125 38.671875 33.546875 40.765625 
Q 32.421875 43.015625 30.46875 44.421875 
Q 28.515625 45.84375 25.4375 45.84375 
Q 20.3125 45.84375 16.921875 41.578125 
Q 13.53125 37.3125 13.234375 29.6875 
z
" id="Georgia-65"/>
     <path d="M 35.296875 23.578125 
Q 37.3125 21.828125 38.375 19.53125 
Q 39.453125 17.234375 39.453125 13.921875 
Q 39.453125 7.234375 34.4375 2.984375 
Q 29.4375 -1.265625 21.484375 -1.265625 
Q 17.28125 -1.265625 13.734375 0.25 
Q 10.203125 1.765625 8.6875 3.03125 
L 7.71875 -0.140625 
L 4.046875 -0.140625 
L 3.5625 16.609375 
L 6.9375 16.609375 
Q 7.328125 14.703125 8.59375 12.15625 
Q 9.859375 9.625 11.671875 7.5625 
Q 13.578125 5.421875 16.234375 3.953125 
Q 18.890625 2.484375 22.21875 2.484375 
Q 26.90625 2.484375 29.4375 4.609375 
Q 31.984375 6.734375 31.984375 10.6875 
Q 31.984375 12.75 31.171875 14.234375 
Q 30.375 15.71875 28.8125 16.84375 
Q 27.203125 17.96875 24.859375 18.875 
Q 22.515625 19.78125 19.625 20.65625 
Q 17.328125 21.34375 14.515625 22.53125 
Q 11.71875 23.734375 9.71875 25.34375 
Q 7.5625 27.046875 6.1875 29.53125 
Q 4.828125 32.03125 4.828125 35.40625 
Q 4.828125 41.3125 9.21875 45.40625 
Q 13.625 49.515625 21 49.515625 
Q 23.828125 49.515625 26.78125 48.78125 
Q 29.734375 48.046875 31.59375 47.015625 
L 32.71875 49.5625 
L 36.234375 49.5625 
L 36.96875 34.078125 
L 33.59375 34.078125 
Q 32.5625 39.265625 29.171875 42.5 
Q 25.78125 45.75 20.90625 45.75 
Q 16.890625 45.75 14.59375 43.75 
Q 12.3125 41.75 12.3125 38.921875 
Q 12.3125 36.71875 13.0625 35.25 
Q 13.8125 33.796875 15.328125 32.765625 
Q 16.796875 31.78125 19.015625 30.921875 
Q 21.234375 30.078125 24.515625 29 
Q 27.734375 27.984375 30.59375 26.609375 
Q 33.453125 25.25 35.296875 23.578125 
z
" id="Georgia-73"/>
     <path d="M 26.90625 0 
L 3.609375 0 
L 3.609375 3.21875 
Q 4.734375 3.328125 5.921875 3.421875 
Q 7.125 3.515625 8.015625 3.8125 
Q 9.375 4.25 10.03125 5.34375 
Q 10.6875 6.453125 10.6875 8.203125 
L 10.6875 37.9375 
Q 10.6875 39.5 9.984375 40.796875 
Q 9.28125 42.09375 8.015625 42.96875 
Q 7.078125 43.5625 5.3125 43.96875 
Q 3.5625 44.390625 2.09375 44.484375 
L 2.09375 47.65625 
L 19.09375 48.734375 
L 19.78125 48.046875 
L 19.78125 8.796875 
Q 19.78125 7.078125 20.4375 5.953125 
Q 21.09375 4.828125 22.515625 4.296875 
Q 23.578125 3.859375 24.609375 3.59375 
Q 25.640625 3.328125 26.90625 3.21875 
z
M 20.75 67.71875 
Q 20.75 64.9375 18.921875 62.859375 
Q 17.09375 60.796875 14.40625 60.796875 
Q 11.921875 60.796875 10.078125 62.765625 
Q 8.25 64.75 8.25 67.28125 
Q 8.25 69.96875 10.078125 71.96875 
Q 11.921875 73.96875 14.40625 73.96875 
Q 17.1875 73.96875 18.96875 72.09375 
Q 20.75 70.21875 20.75 67.71875 
z
" id="Georgia-69"/>
     <path d="M 56.6875 0 
L 33.109375 0 
L 33.109375 3.21875 
Q 34.234375 3.328125 35.578125 3.421875 
Q 36.921875 3.515625 37.796875 3.8125 
Q 39.15625 4.25 39.8125 5.34375 
Q 40.484375 6.453125 40.484375 8.203125 
L 40.484375 32.953125 
Q 40.484375 38.09375 38.0625 40.875 
Q 35.640625 43.65625 32.171875 43.65625 
Q 29.59375 43.65625 27.4375 42.84375 
Q 25.296875 42.046875 23.640625 40.875 
Q 22.015625 39.75 21.0625 38.453125 
Q 20.125 37.15625 19.671875 36.375 
L 19.671875 8.6875 
Q 19.671875 7.03125 20.359375 5.953125 
Q 21.046875 4.890625 22.40625 4.296875 
Q 23.4375 3.8125 24.625 3.5625 
Q 25.828125 3.328125 27.09375 3.21875 
L 27.09375 0 
L 3.515625 0 
L 3.515625 3.21875 
Q 4.640625 3.328125 5.828125 3.421875 
Q 7.03125 3.515625 7.90625 3.8125 
Q 9.28125 4.25 9.9375 5.34375 
Q 10.59375 6.453125 10.59375 8.203125 
L 10.59375 37.9375 
Q 10.59375 39.59375 9.890625 40.984375 
Q 9.1875 42.390625 7.90625 43.265625 
Q 6.984375 43.84375 5.703125 44.109375 
Q 4.4375 44.390625 2.984375 44.484375 
L 2.984375 47.65625 
L 19 48.734375 
L 19.671875 48.046875 
L 19.671875 41.265625 
L 19.921875 41.265625 
Q 21.09375 42.4375 22.84375 44.0625 
Q 24.609375 45.703125 26.171875 46.734375 
Q 27.984375 47.90625 30.46875 48.6875 
Q 32.953125 49.46875 36.078125 49.46875 
Q 43.015625 49.46875 46.359375 45.140625 
Q 49.703125 40.828125 49.703125 33.640625 
L 49.703125 8.59375 
Q 49.703125 6.890625 50.28125 5.828125 
Q 50.875 4.78125 52.296875 4.203125 
Q 53.46875 3.71875 54.3125 3.515625 
Q 55.171875 3.328125 56.6875 3.21875 
z
" id="Georgia-6e"/>
     <path id="Georgia-20"/>
     <path d="M 40.375 41.9375 
Q 40.375 39.453125 39.15625 37.515625 
Q 37.9375 35.59375 35.40625 35.59375 
Q 32.671875 35.59375 31.21875 37 
Q 29.78125 38.421875 29.78125 40.140625 
Q 29.78125 41.21875 29.953125 42.09375 
Q 30.125 42.96875 30.28125 43.84375 
Q 27.984375 43.84375 24.90625 41.984375 
Q 21.828125 40.140625 19.671875 36.71875 
L 19.671875 8.6875 
Q 19.671875 6.984375 20.328125 5.90625 
Q 21 4.828125 22.40625 4.296875 
Q 23.640625 3.8125 25.5625 3.5625 
Q 27.484375 3.328125 28.90625 3.21875 
L 28.90625 0 
L 3.515625 0 
L 3.515625 3.21875 
Q 4.640625 3.328125 5.828125 3.421875 
Q 7.03125 3.515625 7.90625 3.8125 
Q 9.28125 4.25 9.9375 5.34375 
Q 10.59375 6.453125 10.59375 8.203125 
L 10.59375 37.9375 
Q 10.59375 39.453125 9.890625 40.921875 
Q 9.1875 42.390625 7.90625 43.265625 
Q 6.984375 43.84375 5.703125 44.109375 
Q 4.4375 44.390625 2.984375 44.484375 
L 2.984375 47.65625 
L 19 48.734375 
L 19.671875 48.046875 
L 19.671875 41.265625 
L 19.921875 41.265625 
Q 22.953125 45.21875 26.65625 47.265625 
Q 30.375 49.3125 33.453125 49.3125 
Q 36.53125 49.3125 38.453125 47.3125 
Q 40.375 45.3125 40.375 41.9375 
z
" id="Georgia-72"/>
     <path d="M 44.78125 4.984375 
Q 46.734375 3.125 47.84375 0.78125 
Q 48.96875 -1.5625 48.96875 -5.03125 
Q 48.96875 -8.5 47.453125 -11.546875 
Q 45.953125 -14.59375 42.875 -16.84375 
Q 39.59375 -19.140625 35.046875 -20.40625 
Q 30.515625 -21.6875 23.828125 -21.6875 
Q 12.890625 -21.6875 7.46875 -18.484375 
Q 2.046875 -15.28125 2.046875 -9.125 
Q 2.046875 -4.15625 5.953125 -1.265625 
Q 9.859375 1.609375 15.921875 1.859375 
L 15.921875 2.546875 
Q 14.453125 2.984375 12.890625 3.640625 
Q 11.328125 4.296875 10.203125 5.171875 
Q 8.9375 6.203125 8.15625 7.59375 
Q 7.375 8.984375 7.375 11.03125 
Q 7.375 13.625 9.203125 15.796875 
Q 11.03125 17.96875 14.75 19.53125 
L 14.75 20.265625 
Q 10.0625 22.46875 7.46875 25.90625 
Q 4.890625 29.34375 4.890625 33.890625 
Q 4.890625 40.71875 9.984375 45.109375 
Q 15.09375 49.515625 23.046875 49.515625 
Q 25.25 49.515625 27.421875 49.078125 
Q 29.59375 48.640625 31.84375 47.953125 
L 48.640625 47.953125 
L 48.640625 43.265625 
L 37.3125 43.265625 
L 37.3125 42.96875 
Q 39.109375 40.875 39.984375 38.328125 
Q 40.875 35.796875 40.875 33.34375 
Q 40.875 27 35.71875 22.609375 
Q 30.5625 18.21875 23.734375 18.21875 
L 17.828125 18.21875 
Q 16.703125 17.828125 15.484375 16.796875 
Q 14.265625 15.765625 14.265625 14.015625 
Q 14.265625 12.203125 15.28125 11.25 
Q 16.3125 10.296875 17.78125 9.96875 
Q 19.1875 9.578125 21.0625 9.46875 
Q 22.953125 9.375 24.953125 9.328125 
Q 27.09375 9.28125 30.828125 9.03125 
Q 34.578125 8.796875 36.140625 8.734375 
Q 38.375 8.640625 40.640625 7.65625 
Q 42.921875 6.6875 44.78125 4.984375 
z
M 31.59375 33.546875 
Q 31.59375 39.265625 29.265625 42.65625 
Q 26.953125 46.046875 22.75 46.046875 
Q 20.453125 46.046875 18.8125 45.09375 
Q 17.1875 44.140625 16.15625 42.390625 
Q 15.1875 40.765625 14.765625 38.5 
Q 14.359375 36.234375 14.359375 33.84375 
Q 14.359375 28.421875 16.71875 25 
Q 19.09375 21.578125 22.859375 21.578125 
Q 27.046875 21.578125 29.3125 24.96875 
Q 31.59375 28.375 31.59375 33.546875 
z
M 40.96875 -6.84375 
Q 40.96875 -4.109375 39.6875 -2.34375 
Q 38.421875 -0.59375 35.84375 0.046875 
Q 34.46875 0.25 30.21875 0.484375 
Q 25.984375 0.734375 20.359375 0.734375 
Q 15.09375 -0.296875 12.859375 -2.703125 
Q 10.640625 -5.125 10.640625 -8.9375 
Q 10.640625 -10.640625 11.375 -12.203125 
Q 12.109375 -13.765625 13.921875 -15.09375 
Q 15.625 -16.359375 18.5 -17.15625 
Q 21.390625 -17.96875 25.53125 -17.96875 
Q 32.71875 -17.96875 36.84375 -15.203125 
Q 40.96875 -12.453125 40.96875 -6.84375 
z
" id="Georgia-67"/>
     <path d="M 50.4375 24.5625 
Q 50.4375 19.484375 48.828125 14.578125 
Q 47.21875 9.671875 44.234375 6.25 
Q 40.875 2.34375 36.421875 0.4375 
Q 31.984375 -1.46875 26.46875 -1.46875 
Q 21.875 -1.46875 17.71875 0.265625 
Q 13.578125 2 10.359375 5.328125 
Q 7.171875 8.59375 5.296875 13.296875 
Q 3.421875 18.015625 3.421875 23.875 
Q 3.421875 35.15625 9.984375 42.328125 
Q 16.546875 49.515625 27.203125 49.515625 
Q 37.3125 49.515625 43.875 42.703125 
Q 50.4375 35.890625 50.4375 24.5625 
z
M 40.328125 24.46875 
Q 40.328125 28.125 39.59375 32.203125 
Q 38.875 36.28125 37.40625 39.109375 
Q 35.84375 42.140625 33.296875 43.96875 
Q 30.765625 45.796875 27.09375 45.796875 
Q 23.34375 45.796875 20.671875 43.9375 
Q 18.015625 42.09375 16.359375 38.875 
Q 14.796875 35.890625 14.15625 32.078125 
Q 13.53125 28.265625 13.53125 24.703125 
Q 13.53125 20.015625 14.28125 16.03125 
Q 15.046875 12.0625 16.703125 8.9375 
Q 18.359375 5.8125 20.875 4.03125 
Q 23.390625 2.25 27.09375 2.25 
Q 33.203125 2.25 36.765625 8.15625 
Q 40.328125 14.0625 40.328125 24.46875 
z
" id="Georgia-6f"/>
     <path d="M 47.515625 42.4375 
Q 50.390625 39.015625 51.96875 34.5 
Q 53.5625 29.984375 53.5625 24.171875 
Q 53.5625 18.453125 51.65625 13.734375 
Q 49.75 9.03125 46.625 5.71875 
Q 43.359375 2.34375 39.359375 0.53125 
Q 35.359375 -1.265625 30.859375 -1.265625 
Q 26.515625 -1.265625 23.734375 -0.28125 
Q 20.953125 0.6875 19.1875 2 
L 18.796875 2 
L 18.796875 -12.453125 
Q 18.796875 -14.203125 19.484375 -15.375 
Q 20.171875 -16.546875 21.578125 -17.09375 
Q 22.75 -17.53125 24.921875 -17.9375 
Q 27.09375 -18.359375 28.515625 -18.40625 
L 28.515625 -21.6875 
L 1.609375 -21.6875 
L 1.609375 -18.40625 
Q 3.125 -18.3125 4.53125 -18.15625 
Q 5.953125 -18.015625 7.078125 -17.671875 
Q 8.546875 -17.1875 9.125 -15.96875 
Q 9.71875 -14.75 9.71875 -13.09375 
L 9.71875 38.140625 
Q 9.71875 39.59375 8.984375 40.953125 
Q 8.25 42.328125 7.078125 43.171875 
Q 6.203125 43.75 4.640625 44.0625 
Q 3.078125 44.390625 1.609375 44.484375 
L 1.609375 47.65625 
L 18.015625 48.734375 
L 18.703125 48.140625 
L 18.703125 42.71875 
L 19.09375 42.625 
Q 21.625 45.5625 25.390625 47.515625 
Q 29.15625 49.46875 32.859375 49.46875 
Q 37.359375 49.46875 41.09375 47.5625 
Q 44.828125 45.65625 47.515625 42.4375 
z
M 39.546875 7.8125 
Q 41.5 10.84375 42.421875 14.84375 
Q 43.359375 18.84375 43.359375 23.78125 
Q 43.359375 27.390625 42.578125 31.140625 
Q 41.796875 34.90625 40.140625 37.703125 
Q 38.484375 40.53125 35.796875 42.28125 
Q 33.109375 44.046875 29.34375 44.046875 
Q 25.734375 44.046875 23.1875 42.453125 
Q 20.65625 40.875 18.796875 38.671875 
L 18.796875 10.203125 
Q 19.234375 8.890625 20.234375 7.46875 
Q 21.234375 6.0625 22.46875 5.03125 
Q 23.96875 3.8125 25.71875 3.046875 
Q 27.484375 2.296875 30.03125 2.296875 
Q 32.765625 2.296875 35.296875 3.734375 
Q 37.84375 5.171875 39.546875 7.8125 
z
" id="Georgia-70"/>
     <path d="M 56.25 0.875 
L 39.453125 -0.203125 
L 38.71875 0.484375 
L 38.71875 4.984375 
L 38.328125 5.078125 
Q 35.796875 2.25 32.0625 0.4375 
Q 28.328125 -1.375 24.359375 -1.375 
Q 20.265625 -1.375 16.421875 0.453125 
Q 12.59375 2.296875 9.765625 5.609375 
Q 6.890625 8.984375 5.203125 13.71875 
Q 3.515625 18.453125 3.515625 24.171875 
Q 3.515625 29.390625 5.3125 34.078125 
Q 7.125 38.765625 10.296875 42.28125 
Q 13.28125 45.5625 17.59375 47.515625 
Q 21.921875 49.46875 26.421875 49.46875 
Q 29.78125 49.46875 33.03125 48.609375 
Q 36.28125 47.75 38.625 46.4375 
L 38.625 63.1875 
Q 38.625 65.234375 37.9375 66.921875 
Q 37.25 68.609375 36.03125 69.484375 
Q 34.671875 70.40625 32.34375 70.8125 
Q 30.03125 71.234375 27.34375 71.4375 
L 27.34375 74.46875 
L 47.015625 75.59375 
L 47.75 74.859375 
L 47.75 9.90625 
Q 47.75 8.203125 48.40625 7 
Q 49.078125 5.8125 50.34375 4.984375 
Q 51.265625 4.390625 53.015625 4.25 
Q 54.78125 4.109375 56.25 4.046875 
z
M 38.625 9.328125 
L 38.625 37.5 
Q 38.234375 38.765625 37.34375 40.234375 
Q 36.46875 41.703125 35.15625 42.921875 
Q 33.734375 44.140625 31.828125 44.9375 
Q 29.9375 45.75 27.390625 45.75 
Q 24.46875 45.75 22 44.234375 
Q 19.53125 42.71875 17.625 39.890625 
Q 15.828125 37.15625 14.765625 32.9375 
Q 13.71875 28.71875 13.71875 23.578125 
Q 13.71875 19.484375 14.5 16.140625 
Q 15.28125 12.796875 17.140625 9.90625 
Q 18.84375 7.171875 21.5 5.515625 
Q 24.171875 3.859375 27.828125 3.859375 
Q 31.734375 3.859375 34.296875 5.5625 
Q 36.859375 7.28125 38.625 9.328125 
z
" id="Georgia-64"/>
     <path d="M 25.78125 -1.265625 
Q 15.328125 -1.265625 9.421875 5.65625 
Q 3.515625 12.59375 3.515625 24.265625 
Q 3.515625 29.34375 5.09375 33.765625 
Q 6.6875 38.1875 9.71875 41.796875 
Q 12.59375 45.265625 16.9375 47.390625 
Q 21.296875 49.515625 26.421875 49.515625 
Q 33.5 49.515625 37.9375 46.109375 
Q 42.390625 42.71875 42.390625 36.859375 
Q 42.390625 34.421875 41.21875 32.546875 
Q 40.046875 30.671875 37.359375 30.671875 
Q 34.46875 30.671875 32.875 32.125 
Q 31.296875 33.59375 31.296875 35.40625 
Q 31.296875 37.59375 31.875 39.90625 
Q 32.46875 42.234375 32.5625 43.3125 
Q 31.6875 44.828125 29.953125 45.328125 
Q 28.21875 45.84375 26.21875 45.84375 
Q 23.875 45.84375 21.75 44.84375 
Q 19.625 43.84375 17.625 41.15625 
Q 15.828125 38.71875 14.703125 34.5625 
Q 13.578125 30.421875 13.578125 24.65625 
Q 13.578125 15.578125 17.59375 9.84375 
Q 21.625 4.109375 28.171875 4.109375 
Q 32.90625 4.109375 36.109375 6.390625 
Q 39.3125 8.6875 42.046875 13.28125 
L 45.171875 11.234375 
Q 41.9375 5.46875 36.65625 2.09375 
Q 31.390625 -1.265625 25.78125 -1.265625 
z
" id="Georgia-63"/>
     <path d="M 33.25 2.09375 
Q 30.078125 0.78125 27.25 -0.125 
Q 24.421875 -1.03125 20.3125 -1.03125 
Q 14.265625 -1.03125 11.796875 2.015625 
Q 9.328125 5.078125 9.328125 10.640625 
L 9.328125 43.265625 
L 0.640625 43.265625 
L 0.640625 47.953125 
L 9.515625 47.953125 
L 9.515625 62.9375 
L 18.40625 62.9375 
L 18.40625 47.953125 
L 32.234375 47.953125 
L 32.234375 43.265625 
L 18.5 43.265625 
L 18.5 16.359375 
Q 18.5 13.328125 18.71875 11.296875 
Q 18.953125 9.28125 19.78125 7.765625 
Q 20.5625 6.34375 22.125 5.609375 
Q 23.6875 4.890625 26.3125 4.890625 
Q 27.546875 4.890625 29.90625 5.109375 
Q 32.28125 5.328125 33.25 5.671875 
z
" id="Georgia-74"/>
     <path d="M 51.078125 45.171875 
Q 48.875 44.78125 46.890625 43.578125 
Q 44.921875 42.390625 43.5 39.359375 
Q 40.625 32.8125 37.546875 25.703125 
Q 34.46875 18.609375 31.15625 10.796875 
Q 30.171875 8.546875 29.078125 5.46875 
Q 27.984375 2.390625 27.046875 -0.4375 
L 23.25 -0.4375 
Q 18.609375 11.03125 14.703125 20.484375 
Q 10.796875 29.9375 6.59375 39.84375 
Q 5.609375 42.09375 3.4375 43.328125 
Q 1.265625 44.578125 -0.921875 44.921875 
L -0.921875 48.140625 
L 21.34375 48.140625 
L 21.34375 44.734375 
Q 19.875 44.671875 17.671875 44.109375 
Q 15.484375 43.5625 15.484375 42.578125 
Q 15.484375 42.4375 15.71875 41.828125 
Q 15.96875 41.21875 16.21875 40.4375 
Q 18.21875 35.453125 21.875 26.515625 
Q 25.53125 17.578125 27.828125 12.109375 
Q 29.59375 16.3125 32.25 22.5625 
Q 34.90625 28.8125 37.984375 36.53125 
Q 38.484375 37.84375 38.921875 38.984375 
Q 39.359375 40.140625 39.359375 41.3125 
Q 39.359375 42.140625 38.546875 42.796875 
Q 37.75 43.453125 36.625 43.953125 
Q 35.5 44.4375 34.421875 44.671875 
Q 33.34375 44.921875 32.671875 45.015625 
L 32.671875 48.140625 
L 51.078125 48.140625 
z
" id="Georgia-76"/>
    </defs>
    <g transform="translate(119.139219 24.8)scale(0.18 -0.18)">
     <use xlink:href="#Georgia-42"/>
     <use x="65.380859" xlink:href="#Georgia-61"/>
     <use x="115.771484" xlink:href="#Georgia-79"/>
     <use x="164.990234" xlink:href="#Georgia-65"/>
     <use x="213.330078" xlink:href="#Georgia-73"/>
     <use x="256.542969" xlink:href="#Georgia-69"/>
     <use x="285.839844" xlink:href="#Georgia-61"/>
     <use x="336.230469" xlink:href="#Georgia-6e"/>
     <use x="395.3125" xlink:href="#Georgia-20"/>
     <use x="419.433594" xlink:href="#Georgia-72"/>
     <use x="460.400391" xlink:href="#Georgia-65"/>
     <use x="508.740234" xlink:href="#Georgia-67"/>
     <use x="559.667969" xlink:href="#Georgia-72"/>
     <use x="600.634766" xlink:href="#Georgia-65"/>
     <use x="648.974609" xlink:href="#Georgia-73"/>
     <use x="692.1875" xlink:href="#Georgia-73"/>
     <use x="735.400391" xlink:href="#Georgia-69"/>
     <use x="764.697266" xlink:href="#Georgia-6f"/>
     <use x="818.603516" xlink:href="#Georgia-6e"/>
     <use x="877.685547" xlink:href="#Georgia-20"/>
     <use x="901.806641" xlink:href="#Georgia-70"/>
     <use x="958.935547" xlink:href="#Georgia-72"/>
     <use x="999.902344" xlink:href="#Georgia-65"/>
     <use x="1048.242188" xlink:href="#Georgia-64"/>
     <use x="1105.664062" xlink:href="#Georgia-69"/>
     <use x="1134.960938" xlink:href="#Georgia-63"/>
     <use x="1180.371094" xlink:href="#Georgia-74"/>
     <use x="1214.892578" xlink:href="#Georgia-69"/>
     <use x="1244.189453" xlink:href="#Georgia-76"/>
     <use x="1293.847656" xlink:href="#Georgia-65"/>
    </g>
   </g>
  </g>
 </g>
 <defs>
  <clipPath id="p09b2f9a03b">
   <rect height="208.4" width="355.525" x="62.175" y="30.8"/>
  </clipPath>
 </defs>
</svg>
