<?xml version="1.0" encoding="utf-8" standalone="no"?>
<!DOCTYPE svg PUBLIC "-//W3C//DTD SVG 1.1//EN"
  "http://www.w3.org/Graphics/SVG/1.1/DTD/svg11.dtd">
<!-- Created with matplotlib (http://matplotlib.org/) -->
<svg height="648pt" version="1.1" viewBox="0 0 648 648" width="648pt" xmlns="http://www.w3.org/2000/svg" xmlns:xlink="http://www.w3.org/1999/xlink">
 <defs>
  <style type="text/css">
*{stroke-linecap:butt;stroke-linejoin:round;}
  </style>
 </defs>
 <g id="figure_1">
  <g id="patch_1">
   <path d="M 0 648 
L 648 648 
L 648 0 
L 0 0 
z
" style="fill:#ffffff;"/>
  </g>
  <g id="axes_1">
   <g id="patch_2">
    <path d="M 30.8 203.733333 
L 205.65 203.733333 
L 205.65 14.3 
L 30.8 14.3 
z
" style="fill:#ffffff;"/>
   </g>
   <g id="PathCollection_1">
    <defs>
     <path d="M -3 3 
L 3 -3 
M -3 -3 
L 3 3 
" id="mcb34ef46f0" style="stroke:#ff0000;stroke-width:1.5;"/>
    </defs>
    <g clip-path="url(#pa57f9865eb)">
     <use style="fill:#ff0000;stroke:#ff0000;stroke-width:1.5;" x="194.944898" xlink:href="#mcb34ef46f0" y="140.557098"/>
     <use style="fill:#ff0000;stroke:#ff0000;stroke-width:1.5;" x="80.757143" xlink:href="#mcb34ef46f0" y="43.532288"/>
     <use style="fill:#ff0000;stroke:#ff0000;stroke-width:1.5;" x="202.081633" xlink:href="#mcb34ef46f0" y="126.480888"/>
     <use style="fill:#ff0000;stroke:#ff0000;stroke-width:1.5;" x="137.85102" xlink:href="#mcb34ef46f0" y="156.327556"/>
     <use style="fill:#ff0000;stroke:#ff0000;stroke-width:1.5;" x="123.577551" xlink:href="#mcb34ef46f0" y="126.296933"/>
     <use style="fill:#ff0000;stroke:#ff0000;stroke-width:1.5;" x="45.073469" xlink:href="#mcb34ef46f0" y="66.415943"/>
     <use style="fill:#ff0000;stroke:#ff0000;stroke-width:1.5;" x="155.692857" xlink:href="#mcb34ef46f0" y="157.619204"/>
     <use style="fill:#ff0000;stroke:#ff0000;stroke-width:1.5;" x="87.893878" xlink:href="#mcb34ef46f0" y="53.892364"/>
     <use style="fill:#ff0000;stroke:#ff0000;stroke-width:1.5;" x="184.239796" xlink:href="#mcb34ef46f0" y="134.460159"/>
     <use style="fill:#ff0000;stroke:#ff0000;stroke-width:1.5;" x="62.915306" xlink:href="#mcb34ef46f0" y="50.974397"/>
    </g>
   </g>
   <g id="matplotlib.axis_1">
    <g id="ytick_1">
     <g id="line2d_1">
      <defs>
       <path d="M 0 0 
L -3.5 0 
" id="mfabf56297a" style="stroke:#000000;stroke-width:0.8;"/>
      </defs>
      <g>
       <use style="stroke:#000000;stroke-width:0.8;" x="30.8" xlink:href="#mfabf56297a" y="203.733333"/>
      </g>
     </g>
     <g id="text_1">
      <!-- −1.5 -->
      <defs>
       <path d="M 57.03125 24.265625 
L 7.28125 24.265625 
L 7.28125 30.375 
L 57.03125 30.375 
z
" id="Georgia-2212"/>
       <path d="M 39.5 0 
L 6.59375 0 
L 6.59375 3.46875 
Q 8.0625 3.5625 11.15625 3.875 
Q 14.265625 4.203125 15.4375 4.546875 
Q 16.9375 5.03125 17.75 6.125 
Q 18.5625 7.234375 18.5625 9.421875 
L 18.5625 43.703125 
L 6.390625 43.703125 
L 6.390625 47.796875 
L 9.078125 47.796875 
Q 14.359375 47.796875 18.53125 49.75 
Q 22.703125 51.703125 24.515625 53.953125 
L 28.5625 53.953125 
Q 28.421875 50.78125 28.265625 46.53125 
Q 28.125 42.28125 28.125 38.921875 
L 28.125 9.96875 
Q 28.125 8.25 28.875 6.90625 
Q 29.640625 5.5625 31.0625 4.9375 
Q 32.328125 4.390625 35.203125 3.953125 
Q 38.09375 3.515625 39.5 3.46875 
z
" id="Georgia-31"/>
       <path d="M 20.265625 5.609375 
Q 20.265625 2.875 18.28125 0.9375 
Q 16.3125 -0.984375 13.578125 -0.984375 
Q 10.84375 -0.984375 8.859375 0.9375 
Q 6.890625 2.875 6.890625 5.609375 
Q 6.890625 8.34375 8.859375 10.328125 
Q 10.84375 12.3125 13.578125 12.3125 
Q 16.3125 12.3125 18.28125 10.328125 
Q 20.265625 8.34375 20.265625 5.609375 
z
" id="Georgia-2e"/>
       <path d="M 41.15625 22.90625 
Q 44.390625 20.359375 46.515625 16.359375 
Q 48.640625 12.359375 48.640625 6.34375 
Q 48.640625 -4.15625 41.453125 -10.984375 
Q 34.28125 -17.828125 23.25 -17.828125 
Q 14.703125 -17.828125 8.78125 -13.765625 
Q 2.875 -9.71875 2.875 -4.34375 
Q 2.875 -1.859375 4.09375 0 
Q 5.328125 1.859375 7.859375 1.859375 
Q 10.796875 1.859375 12.328125 0.3125 
Q 13.875 -1.21875 13.875 -3.03125 
Q 13.875 -4.59375 13.328125 -6.9375 
Q 12.796875 -9.28125 12.5 -10.40625 
Q 12.890625 -10.75 13.765625 -11.328125 
Q 14.65625 -11.921875 15.875 -12.453125 
Q 17.140625 -12.984375 18.96875 -13.390625 
Q 20.796875 -13.8125 23.25 -13.8125 
Q 26.375 -13.8125 29.15625 -12.546875 
Q 31.9375 -11.28125 33.84375 -8.796875 
Q 35.9375 -6.0625 36.984375 -2.5625 
Q 38.03125 0.921875 38.03125 6.296875 
Q 38.03125 13.1875 34.203125 17.703125 
Q 30.375 22.21875 24.125 22.21875 
Q 20.21875 22.21875 16.8125 20.75 
Q 13.421875 19.28125 10.75 15.875 
L 7.46875 17.140625 
L 11.625 52.390625 
L 46.578125 52.390625 
L 46.578125 43.703125 
L 15.578125 43.703125 
L 13.03125 23 
Q 15.234375 24.5625 18.8125 26.09375 
Q 22.40625 27.640625 26.703125 27.640625 
Q 30.28125 27.640625 34.109375 26.53125 
Q 37.9375 25.4375 41.15625 22.90625 
z
" id="Georgia-35"/>
      </defs>
      <g transform="translate(1.3525 208.268958)scale(0.12 -0.12)">
       <use xlink:href="#Georgia-2212"/>
       <use x="64.306641" xlink:href="#Georgia-31"/>
       <use x="107.275391" xlink:href="#Georgia-2e"/>
       <use x="134.228516" xlink:href="#Georgia-35"/>
      </g>
     </g>
    </g>
    <g id="ytick_2">
     <g id="line2d_2">
      <g>
       <use style="stroke:#000000;stroke-width:0.8;" x="30.8" xlink:href="#mfabf56297a" y="172.161111"/>
      </g>
     </g>
     <g id="text_2">
      <!-- −1.0 -->
      <defs>
       <path d="M 50.140625 45.609375 
Q 53.265625 41.84375 54.796875 36.78125 
Q 56.34375 31.734375 56.34375 26.21875 
Q 56.34375 19.578125 54.4375 14.328125 
Q 52.546875 9.078125 49.21875 5.609375 
Q 45.796875 2.046875 41.109375 0.234375 
Q 36.421875 -1.5625 30.671875 -1.5625 
Q 24.359375 -1.5625 19.421875 0.53125 
Q 14.5 2.640625 11.421875 6.296875 
Q 8.203125 10.109375 6.609375 15.203125 
Q 5.03125 20.3125 5.03125 26.21875 
Q 5.03125 32.03125 6.5625 36.90625 
Q 8.109375 41.796875 11.375 45.75 
Q 14.5 49.5625 19.421875 51.75 
Q 24.359375 53.953125 30.71875 53.953125 
Q 37.40625 53.953125 42.1875 51.703125 
Q 46.96875 49.46875 50.140625 45.609375 
z
M 45.5625 26.21875 
Q 45.5625 37.84375 41.578125 44.234375 
Q 37.59375 50.640625 30.765625 50.640625 
Q 23.828125 50.640625 19.828125 44.234375 
Q 15.828125 37.84375 15.828125 26.21875 
Q 15.828125 15.1875 19.65625 8.46875 
Q 23.484375 1.765625 30.671875 1.765625 
Q 37.84375 1.765625 41.703125 8.46875 
Q 45.5625 15.1875 45.5625 26.21875 
z
" id="Georgia-30"/>
      </defs>
      <g transform="translate(0.326875 176.696736)scale(0.12 -0.12)">
       <use xlink:href="#Georgia-2212"/>
       <use x="64.306641" xlink:href="#Georgia-31"/>
       <use x="107.275391" xlink:href="#Georgia-2e"/>
       <use x="134.228516" xlink:href="#Georgia-30"/>
      </g>
     </g>
    </g>
    <g id="ytick_3">
     <g id="line2d_3">
      <g>
       <use style="stroke:#000000;stroke-width:0.8;" x="30.8" xlink:href="#mfabf56297a" y="140.588889"/>
      </g>
     </g>
     <g id="text_3">
      <!-- −0.5 -->
      <g transform="translate(-0.85625 145.124514)scale(0.12 -0.12)">
       <use xlink:href="#Georgia-2212"/>
       <use x="64.306641" xlink:href="#Georgia-30"/>
       <use x="125.683594" xlink:href="#Georgia-2e"/>
       <use x="152.636719" xlink:href="#Georgia-35"/>
      </g>
     </g>
    </g>
    <g id="ytick_4">
     <g id="line2d_4">
      <g>
       <use style="stroke:#000000;stroke-width:0.8;" x="30.8" xlink:href="#mfabf56297a" y="109.016667"/>
      </g>
     </g>
     <g id="text_4">
      <!-- 0.0 -->
      <g transform="translate(5.835625 113.552292)scale(0.12 -0.12)">
       <use xlink:href="#Georgia-30"/>
       <use x="61.376953" xlink:href="#Georgia-2e"/>
       <use x="88.330078" xlink:href="#Georgia-30"/>
      </g>
     </g>
    </g>
    <g id="ytick_5">
     <g id="line2d_5">
      <g>
       <use style="stroke:#000000;stroke-width:0.8;" x="30.8" xlink:href="#mfabf56297a" y="77.444444"/>
      </g>
     </g>
     <g id="text_5">
      <!-- 0.5 -->
      <g transform="translate(6.86125 81.980069)scale(0.12 -0.12)">
       <use xlink:href="#Georgia-30"/>
       <use x="61.376953" xlink:href="#Georgia-2e"/>
       <use x="88.330078" xlink:href="#Georgia-35"/>
      </g>
     </g>
    </g>
    <g id="ytick_6">
     <g id="line2d_6">
      <g>
       <use style="stroke:#000000;stroke-width:0.8;" x="30.8" xlink:href="#mfabf56297a" y="45.872222"/>
      </g>
     </g>
     <g id="text_6">
      <!-- 1.0 -->
      <g transform="translate(8.044375 50.407847)scale(0.12 -0.12)">
       <use xlink:href="#Georgia-31"/>
       <use x="42.96875" xlink:href="#Georgia-2e"/>
       <use x="69.921875" xlink:href="#Georgia-30"/>
      </g>
     </g>
    </g>
    <g id="ytick_7">
     <g id="line2d_7">
      <g>
       <use style="stroke:#000000;stroke-width:0.8;" x="30.8" xlink:href="#mfabf56297a" y="14.3"/>
      </g>
     </g>
     <g id="text_7">
      <!-- 1.5 -->
      <g transform="translate(9.07 18.835625)scale(0.12 -0.12)">
       <use xlink:href="#Georgia-31"/>
       <use x="42.96875" xlink:href="#Georgia-2e"/>
       <use x="69.921875" xlink:href="#Georgia-35"/>
      </g>
     </g>
    </g>
   </g>
   <g id="line2d_8">
    <path clip-path="url(#pa57f9865eb)" d="M 30.8 41.658892 
L 32.566162 42.827718 
L 34.332323 43.996544 
L 36.098485 45.16537 
L 37.864646 46.334196 
L 39.630808 47.503021 
L 41.39697 48.671847 
L 43.163131 49.840673 
L 44.929293 51.009499 
L 46.695455 52.178325 
L 48.461616 53.34715 
L 50.227778 54.515976 
L 51.993939 55.684802 
L 53.760101 56.853628 
L 55.526263 58.022454 
L 57.292424 59.191279 
L 59.058586 60.360105 
L 60.824747 61.528931 
L 62.590909 62.697757 
L 64.357071 63.866583 
L 66.123232 65.035408 
L 67.889394 66.204234 
L 69.655556 67.37306 
L 71.421717 68.541886 
L 73.187879 69.710712 
L 74.95404 70.879537 
L 76.720202 72.048363 
L 78.486364 73.217189 
L 80.252525 74.386015 
L 82.018687 75.554841 
L 83.784848 76.723666 
L 85.55101 77.892492 
L 87.317172 79.061318 
L 89.083333 80.230144 
L 90.849495 81.39897 
L 92.615657 82.567795 
L 94.381818 83.736621 
L 96.14798 84.905447 
L 97.914141 86.074273 
L 99.680303 87.243099 
L 101.446465 88.411924 
L 103.212626 89.58075 
L 104.978788 90.749576 
L 106.744949 91.918402 
L 108.511111 93.087228 
L 110.277273 94.256053 
L 112.043434 95.424879 
L 113.809596 96.593705 
L 115.575758 97.762531 
L 117.341919 98.931357 
L 119.108081 100.100182 
L 120.874242 101.269008 
L 122.640404 102.437834 
L 124.406566 103.60666 
L 126.172727 104.775486 
L 127.938889 105.944311 
L 129.705051 107.113137 
L 131.471212 108.281963 
L 133.237374 109.450789 
L 135.003535 110.619615 
L 136.769697 111.78844 
L 138.535859 112.957266 
L 140.30202 114.126092 
L 142.068182 115.294918 
L 143.834343 116.463744 
L 145.600505 117.632569 
L 147.366667 118.801395 
L 149.132828 119.970221 
L 150.89899 121.139047 
L 152.665152 122.307873 
L 154.431313 123.476698 
L 156.197475 124.645524 
L 157.963636 125.81435 
L 159.729798 126.983176 
L 161.49596 128.152002 
L 163.262121 129.320827 
L 165.028283 130.489653 
L 166.794444 131.658479 
L 168.560606 132.827305 
L 170.326768 133.996131 
L 172.092929 135.164956 
L 173.859091 136.333782 
L 175.625253 137.502608 
L 177.391414 138.671434 
L 179.157576 139.84026 
L 180.923737 141.009085 
L 182.689899 142.177911 
L 184.456061 143.346737 
L 186.222222 144.515563 
L 187.988384 145.684389 
L 189.754545 146.853214 
L 191.520707 148.02204 
L 193.286869 149.190866 
L 195.05303 150.359692 
L 196.819192 151.528518 
L 198.585354 152.697343 
L 200.351515 153.866169 
L 202.117677 155.034995 
L 203.883838 156.203821 
L 205.65 157.372647 
" style="fill:none;stroke:#000000;stroke-linecap:square;stroke-width:1.5;"/>
   </g>
   <g id="patch_3">
    <path d="M 30.8 203.733333 
L 30.8 14.3 
" style="fill:none;stroke:#000000;stroke-linecap:square;stroke-linejoin:miter;stroke-width:0.8;"/>
   </g>
   <g id="patch_4">
    <path d="M 205.65 203.733333 
L 205.65 14.3 
" style="fill:none;stroke:#000000;stroke-linecap:square;stroke-linejoin:miter;stroke-width:0.8;"/>
   </g>
   <g id="patch_5">
    <path d="M 30.8 203.733333 
L 205.65 203.733333 
" style="fill:none;stroke:#000000;stroke-linecap:square;stroke-linejoin:miter;stroke-width:0.8;"/>
   </g>
   <g id="patch_6">
    <path d="M 30.8 14.3 
L 205.65 14.3 
" style="fill:none;stroke:#000000;stroke-linecap:square;stroke-linejoin:miter;stroke-width:0.8;"/>
   </g>
  </g>
  <g id="axes_2">
   <g id="patch_7">
    <path d="M 240.7625 203.733333 
L 415.6125 203.733333 
L 415.6125 14.3 
L 240.7625 14.3 
z
" style="fill:#ffffff;"/>
   </g>
   <g id="PathCollection_2">
    <g clip-path="url(#p95aae62e0e)">
     <use style="fill:#ff0000;stroke:#ff0000;stroke-width:1.5;" x="404.907398" xlink:href="#mcb34ef46f0" y="140.557098"/>
     <use style="fill:#ff0000;stroke:#ff0000;stroke-width:1.5;" x="290.719643" xlink:href="#mcb34ef46f0" y="43.532288"/>
     <use style="fill:#ff0000;stroke:#ff0000;stroke-width:1.5;" x="412.044133" xlink:href="#mcb34ef46f0" y="126.480888"/>
     <use style="fill:#ff0000;stroke:#ff0000;stroke-width:1.5;" x="347.81352" xlink:href="#mcb34ef46f0" y="156.327556"/>
     <use style="fill:#ff0000;stroke:#ff0000;stroke-width:1.5;" x="333.540051" xlink:href="#mcb34ef46f0" y="126.296933"/>
     <use style="fill:#ff0000;stroke:#ff0000;stroke-width:1.5;" x="255.035969" xlink:href="#mcb34ef46f0" y="66.415943"/>
     <use style="fill:#ff0000;stroke:#ff0000;stroke-width:1.5;" x="365.655357" xlink:href="#mcb34ef46f0" y="157.619204"/>
     <use style="fill:#ff0000;stroke:#ff0000;stroke-width:1.5;" x="297.856378" xlink:href="#mcb34ef46f0" y="53.892364"/>
     <use style="fill:#ff0000;stroke:#ff0000;stroke-width:1.5;" x="394.202296" xlink:href="#mcb34ef46f0" y="134.460159"/>
     <use style="fill:#ff0000;stroke:#ff0000;stroke-width:1.5;" x="272.877806" xlink:href="#mcb34ef46f0" y="50.974397"/>
    </g>
   </g>
   <g id="line2d_9">
    <path clip-path="url(#p95aae62e0e)" d="M 240.7625 9.64342 
L 242.528662 12.529783 
L 244.294823 15.384106 
L 246.060985 18.20639 
L 247.827146 20.996634 
L 249.593308 23.754838 
L 251.35947 26.481003 
L 253.125631 29.175128 
L 254.891793 31.837214 
L 256.657955 34.46726 
L 258.424116 37.065267 
L 260.190278 39.631233 
L 261.956439 42.165161 
L 263.722601 44.667049 
L 265.488763 47.136897 
L 267.254924 49.574706 
L 269.021086 51.980475 
L 270.787247 54.354204 
L 272.553409 56.695894 
L 274.319571 59.005545 
L 276.085732 61.283155 
L 277.851894 63.528727 
L 279.618056 65.742258 
L 281.384217 67.92375 
L 283.150379 70.073203 
L 284.91654 72.190616 
L 286.682702 74.275989 
L 288.448864 76.329323 
L 290.215025 78.350617 
L 291.981187 80.339872 
L 293.747348 82.297087 
L 295.51351 84.222262 
L 297.279672 86.115398 
L 299.045833 87.976495 
L 300.811995 89.805551 
L 302.578157 91.602569 
L 304.344318 93.367546 
L 306.11048 95.100484 
L 307.876641 96.801383 
L 309.642803 98.470242 
L 311.408965 100.107061 
L 313.175126 101.711841 
L 314.941288 103.284581 
L 316.707449 104.825281 
L 318.473611 106.333942 
L 320.239773 107.810564 
L 322.005934 109.255146 
L 323.772096 110.667688 
L 325.538258 112.048191 
L 327.304419 113.396654 
L 329.070581 114.713077 
L 330.836742 115.997461 
L 332.602904 117.249806 
L 334.369066 118.470111 
L 336.135227 119.658376 
L 337.901389 120.814602 
L 339.667551 121.938788 
L 341.433712 123.030934 
L 343.199874 124.091041 
L 344.966035 125.119109 
L 346.732197 126.115136 
L 348.498359 127.079125 
L 350.26452 128.011073 
L 352.030682 128.910983 
L 353.796843 129.778852 
L 355.563005 130.614682 
L 357.329167 131.418472 
L 359.095328 132.190223 
L 360.86149 132.929934 
L 362.627652 133.637606 
L 364.393813 134.313238 
L 366.159975 134.956831 
L 367.926136 135.568384 
L 369.692298 136.147897 
L 371.45846 136.695371 
L 373.224621 137.210805 
L 374.990783 137.6942 
L 376.756944 138.145555 
L 378.523106 138.56487 
L 380.289268 138.952146 
L 382.055429 139.307382 
L 383.821591 139.630579 
L 385.587753 139.921736 
L 387.353914 140.180854 
L 389.120076 140.407932 
L 390.886237 140.60297 
L 392.652399 140.765969 
L 394.418561 140.896929 
L 396.184722 140.995848 
L 397.950884 141.062728 
L 399.717045 141.097569 
L 401.483207 141.10037 
L 403.249369 141.071131 
L 405.01553 141.009853 
L 406.781692 140.916536 
L 408.547854 140.791178 
L 410.314015 140.633781 
L 412.080177 140.444345 
L 413.846338 140.222869 
L 415.6125 139.969353 
" style="fill:none;stroke:#000000;stroke-linecap:square;stroke-width:1.5;"/>
   </g>
   <g id="patch_8">
    <path d="M 240.7625 203.733333 
L 240.7625 14.3 
" style="fill:none;stroke:#000000;stroke-linecap:square;stroke-linejoin:miter;stroke-width:0.8;"/>
   </g>
   <g id="patch_9">
    <path d="M 415.6125 203.733333 
L 415.6125 14.3 
" style="fill:none;stroke:#000000;stroke-linecap:square;stroke-linejoin:miter;stroke-width:0.8;"/>
   </g>
   <g id="patch_10">
    <path d="M 240.7625 203.733333 
L 415.6125 203.733333 
" style="fill:none;stroke:#000000;stroke-linecap:square;stroke-linejoin:miter;stroke-width:0.8;"/>
   </g>
   <g id="patch_11">
    <path d="M 240.7625 14.3 
L 415.6125 14.3 
" style="fill:none;stroke:#000000;stroke-linecap:square;stroke-linejoin:miter;stroke-width:0.8;"/>
   </g>
  </g>
  <g id="axes_3">
   <g id="patch_12">
    <path d="M 450.725 203.733333 
L 625.575 203.733333 
L 625.575 14.3 
L 450.725 14.3 
z
" style="fill:#ffffff;"/>
   </g>
   <g id="PathCollection_3">
    <g clip-path="url(#p86254a52f2)">
     <use style="fill:#ff0000;stroke:#ff0000;stroke-width:1.5;" x="614.869898" xlink:href="#mcb34ef46f0" y="140.557098"/>
     <use style="fill:#ff0000;stroke:#ff0000;stroke-width:1.5;" x="500.682143" xlink:href="#mcb34ef46f0" y="43.532288"/>
     <use style="fill:#ff0000;stroke:#ff0000;stroke-width:1.5;" x="622.006633" xlink:href="#mcb34ef46f0" y="126.480888"/>
     <use style="fill:#ff0000;stroke:#ff0000;stroke-width:1.5;" x="557.77602" xlink:href="#mcb34ef46f0" y="156.327556"/>
     <use style="fill:#ff0000;stroke:#ff0000;stroke-width:1.5;" x="543.502551" xlink:href="#mcb34ef46f0" y="126.296933"/>
     <use style="fill:#ff0000;stroke:#ff0000;stroke-width:1.5;" x="464.998469" xlink:href="#mcb34ef46f0" y="66.415943"/>
     <use style="fill:#ff0000;stroke:#ff0000;stroke-width:1.5;" x="575.617857" xlink:href="#mcb34ef46f0" y="157.619204"/>
     <use style="fill:#ff0000;stroke:#ff0000;stroke-width:1.5;" x="507.818878" xlink:href="#mcb34ef46f0" y="53.892364"/>
     <use style="fill:#ff0000;stroke:#ff0000;stroke-width:1.5;" x="604.164796" xlink:href="#mcb34ef46f0" y="134.460159"/>
     <use style="fill:#ff0000;stroke:#ff0000;stroke-width:1.5;" x="482.840306" xlink:href="#mcb34ef46f0" y="50.974397"/>
    </g>
   </g>
   <g id="line2d_10">
    <path clip-path="url(#p86254a52f2)" d="M 450.725 99.538329 
L 452.491162 93.912592 
L 454.257323 88.645409 
L 456.023485 83.729274 
L 457.789646 79.156685 
L 459.555808 74.920137 
L 461.32197 71.012125 
L 463.088131 67.425146 
L 464.854293 64.151695 
L 466.620455 61.184268 
L 468.386616 58.51536 
L 470.152778 56.137468 
L 471.918939 54.043088 
L 473.685101 52.224714 
L 475.451263 50.674844 
L 477.217424 49.385972 
L 478.983586 48.350594 
L 480.749747 47.561207 
L 482.515909 47.010306 
L 484.282071 46.690386 
L 486.048232 46.593944 
L 487.814394 46.713476 
L 489.580556 47.041476 
L 491.346717 47.570442 
L 493.112879 48.292868 
L 494.87904 49.20125 
L 496.645202 50.288085 
L 498.411364 51.545868 
L 500.177525 52.967095 
L 501.943687 54.544261 
L 503.709848 56.269863 
L 505.47601 58.136396 
L 507.242172 60.136356 
L 509.008333 62.262238 
L 510.774495 64.50654 
L 512.540657 66.861755 
L 514.306818 69.320381 
L 516.07298 71.874912 
L 517.839141 74.517845 
L 519.605303 77.241675 
L 521.371465 80.038899 
L 523.137626 82.902012 
L 524.903788 85.823509 
L 526.669949 88.795887 
L 528.436111 91.811641 
L 530.202273 94.863268 
L 531.968434 97.943262 
L 533.734596 101.04412 
L 535.500758 104.158338 
L 537.266919 107.278411 
L 539.033081 110.396834 
L 540.799242 113.506105 
L 542.565404 116.598718 
L 544.331566 119.66717 
L 546.097727 122.703956 
L 547.863889 125.701571 
L 549.630051 128.652513 
L 551.396212 131.549276 
L 553.162374 134.384356 
L 554.928535 137.150249 
L 556.694697 139.839452 
L 558.460859 142.444458 
L 560.22702 144.957766 
L 561.993182 147.371869 
L 563.759343 149.679265 
L 565.525505 151.872448 
L 567.291667 153.943915 
L 569.057828 155.886161 
L 570.82399 157.691682 
L 572.590152 159.352974 
L 574.356313 160.862533 
L 576.122475 162.212854 
L 577.888636 163.396434 
L 579.654798 164.405767 
L 581.42096 165.23335 
L 583.187121 165.871679 
L 584.953283 166.31325 
L 586.719444 166.550557 
L 588.485606 166.576098 
L 590.251768 166.382367 
L 592.017929 165.96186 
L 593.784091 165.307074 
L 595.550253 164.410504 
L 597.316414 163.264646 
L 599.082576 161.861996 
L 600.848737 160.195049 
L 602.614899 158.256301 
L 604.381061 156.038248 
L 606.147222 153.533386 
L 607.913384 150.73421 
L 609.679545 147.633217 
L 611.445707 144.222902 
L 613.211869 140.49576 
L 614.97803 136.444289 
L 616.744192 132.060983 
L 618.510354 127.338338 
L 620.276515 122.26885 
L 622.042677 116.845015 
L 623.808838 111.059328 
L 625.575 104.904286 
" style="fill:none;stroke:#000000;stroke-linecap:square;stroke-width:1.5;"/>
   </g>
   <g id="patch_13">
    <path d="M 450.725 203.733333 
L 450.725 14.3 
" style="fill:none;stroke:#000000;stroke-linecap:square;stroke-linejoin:miter;stroke-width:0.8;"/>
   </g>
   <g id="patch_14">
    <path d="M 625.575 203.733333 
L 625.575 14.3 
" style="fill:none;stroke:#000000;stroke-linecap:square;stroke-linejoin:miter;stroke-width:0.8;"/>
   </g>
   <g id="patch_15">
    <path d="M 450.725 203.733333 
L 625.575 203.733333 
" style="fill:none;stroke:#000000;stroke-linecap:square;stroke-linejoin:miter;stroke-width:0.8;"/>
   </g>
   <g id="patch_16">
    <path d="M 450.725 14.3 
L 625.575 14.3 
" style="fill:none;stroke:#000000;stroke-linecap:square;stroke-linejoin:miter;stroke-width:0.8;"/>
   </g>
  </g>
  <g id="axes_4">
   <g id="patch_17">
    <path d="M 30.8 410.966667 
L 205.65 410.966667 
L 205.65 221.533333 
L 30.8 221.533333 
z
" style="fill:#ffffff;"/>
   </g>
   <g id="PathCollection_4">
    <g clip-path="url(#p6ec867f0e1)">
     <use style="fill:#ff0000;stroke:#ff0000;stroke-width:1.5;" x="194.944898" xlink:href="#mcb34ef46f0" y="347.790431"/>
     <use style="fill:#ff0000;stroke:#ff0000;stroke-width:1.5;" x="80.757143" xlink:href="#mcb34ef46f0" y="250.765621"/>
     <use style="fill:#ff0000;stroke:#ff0000;stroke-width:1.5;" x="202.081633" xlink:href="#mcb34ef46f0" y="333.714221"/>
     <use style="fill:#ff0000;stroke:#ff0000;stroke-width:1.5;" x="137.85102" xlink:href="#mcb34ef46f0" y="363.560889"/>
     <use style="fill:#ff0000;stroke:#ff0000;stroke-width:1.5;" x="123.577551" xlink:href="#mcb34ef46f0" y="333.530266"/>
     <use style="fill:#ff0000;stroke:#ff0000;stroke-width:1.5;" x="45.073469" xlink:href="#mcb34ef46f0" y="273.649277"/>
     <use style="fill:#ff0000;stroke:#ff0000;stroke-width:1.5;" x="155.692857" xlink:href="#mcb34ef46f0" y="364.852538"/>
     <use style="fill:#ff0000;stroke:#ff0000;stroke-width:1.5;" x="87.893878" xlink:href="#mcb34ef46f0" y="261.125697"/>
     <use style="fill:#ff0000;stroke:#ff0000;stroke-width:1.5;" x="184.239796" xlink:href="#mcb34ef46f0" y="341.693492"/>
     <use style="fill:#ff0000;stroke:#ff0000;stroke-width:1.5;" x="62.915306" xlink:href="#mcb34ef46f0" y="258.20773"/>
    </g>
   </g>
   <g id="matplotlib.axis_2">
    <g id="ytick_8">
     <g id="line2d_11">
      <g>
       <use style="stroke:#000000;stroke-width:0.8;" x="30.8" xlink:href="#mfabf56297a" y="410.966667"/>
      </g>
     </g>
     <g id="text_8">
      <!-- −1.5 -->
      <g transform="translate(1.3525 415.502292)scale(0.12 -0.12)">
       <use xlink:href="#Georgia-2212"/>
       <use x="64.306641" xlink:href="#Georgia-31"/>
       <use x="107.275391" xlink:href="#Georgia-2e"/>
       <use x="134.228516" xlink:href="#Georgia-35"/>
      </g>
     </g>
    </g>
    <g id="ytick_9">
     <g id="line2d_12">
      <g>
       <use style="stroke:#000000;stroke-width:0.8;" x="30.8" xlink:href="#mfabf56297a" y="379.394444"/>
      </g>
     </g>
     <g id="text_9">
      <!-- −1.0 -->
      <g transform="translate(0.326875 383.930069)scale(0.12 -0.12)">
       <use xlink:href="#Georgia-2212"/>
       <use x="64.306641" xlink:href="#Georgia-31"/>
       <use x="107.275391" xlink:href="#Georgia-2e"/>
       <use x="134.228516" xlink:href="#Georgia-30"/>
      </g>
     </g>
    </g>
    <g id="ytick_10">
     <g id="line2d_13">
      <g>
       <use style="stroke:#000000;stroke-width:0.8;" x="30.8" xlink:href="#mfabf56297a" y="347.822222"/>
      </g>
     </g>
     <g id="text_10">
      <!-- −0.5 -->
      <g transform="translate(-0.85625 352.357847)scale(0.12 -0.12)">
       <use xlink:href="#Georgia-2212"/>
       <use x="64.306641" xlink:href="#Georgia-30"/>
       <use x="125.683594" xlink:href="#Georgia-2e"/>
       <use x="152.636719" xlink:href="#Georgia-35"/>
      </g>
     </g>
    </g>
    <g id="ytick_11">
     <g id="line2d_14">
      <g>
       <use style="stroke:#000000;stroke-width:0.8;" x="30.8" xlink:href="#mfabf56297a" y="316.25"/>
      </g>
     </g>
     <g id="text_11">
      <!-- 0.0 -->
      <g transform="translate(5.835625 320.785625)scale(0.12 -0.12)">
       <use xlink:href="#Georgia-30"/>
       <use x="61.376953" xlink:href="#Georgia-2e"/>
       <use x="88.330078" xlink:href="#Georgia-30"/>
      </g>
     </g>
    </g>
    <g id="ytick_12">
     <g id="line2d_15">
      <g>
       <use style="stroke:#000000;stroke-width:0.8;" x="30.8" xlink:href="#mfabf56297a" y="284.677778"/>
      </g>
     </g>
     <g id="text_12">
      <!-- 0.5 -->
      <g transform="translate(6.86125 289.213403)scale(0.12 -0.12)">
       <use xlink:href="#Georgia-30"/>
       <use x="61.376953" xlink:href="#Georgia-2e"/>
       <use x="88.330078" xlink:href="#Georgia-35"/>
      </g>
     </g>
    </g>
    <g id="ytick_13">
     <g id="line2d_16">
      <g>
       <use style="stroke:#000000;stroke-width:0.8;" x="30.8" xlink:href="#mfabf56297a" y="253.105556"/>
      </g>
     </g>
     <g id="text_13">
      <!-- 1.0 -->
      <g transform="translate(8.044375 257.641181)scale(0.12 -0.12)">
       <use xlink:href="#Georgia-31"/>
       <use x="42.96875" xlink:href="#Georgia-2e"/>
       <use x="69.921875" xlink:href="#Georgia-30"/>
      </g>
     </g>
    </g>
    <g id="ytick_14">
     <g id="line2d_17">
      <g>
       <use style="stroke:#000000;stroke-width:0.8;" x="30.8" xlink:href="#mfabf56297a" y="221.533333"/>
      </g>
     </g>
     <g id="text_14">
      <!-- 1.5 -->
      <g transform="translate(9.07 226.068958)scale(0.12 -0.12)">
       <use xlink:href="#Georgia-31"/>
       <use x="42.96875" xlink:href="#Georgia-2e"/>
       <use x="69.921875" xlink:href="#Georgia-35"/>
      </g>
     </g>
    </g>
   </g>
   <g id="line2d_18">
    <path clip-path="url(#p6ec867f0e1)" d="M 30.8 354.095342 
L 32.566162 341.670587 
L 34.332323 330.163122 
L 36.098485 319.539967 
L 37.864646 309.768656 
L 39.630808 300.817236 
L 41.39697 292.654268 
L 43.163131 285.248822 
L 44.929293 278.570486 
L 46.695455 272.589358 
L 48.461616 267.276049 
L 50.227778 262.601684 
L 51.993939 258.537899 
L 53.760101 255.056846 
L 55.526263 252.131186 
L 57.292424 249.734097 
L 59.058586 247.839268 
L 60.824747 246.420899 
L 62.590909 245.453706 
L 64.357071 244.912916 
L 66.123232 244.774271 
L 67.889394 245.014023 
L 69.655556 245.608939 
L 71.421717 246.536298 
L 73.187879 247.773893 
L 74.95404 249.300029 
L 76.720202 251.093523 
L 78.486364 253.133708 
L 80.252525 255.400426 
L 82.018687 257.874034 
L 83.784848 260.535403 
L 85.55101 263.365915 
L 87.317172 266.347465 
L 89.083333 269.462462 
L 90.849495 272.693828 
L 92.615657 276.024996 
L 94.381818 279.439914 
L 96.14798 282.923041 
L 97.914141 286.459352 
L 99.680303 290.034332 
L 101.446465 293.63398 
L 103.212626 297.244807 
L 104.978788 300.853839 
L 106.744949 304.448612 
L 108.511111 308.017178 
L 110.277273 311.5481 
L 112.043434 315.030454 
L 113.809596 318.45383 
L 115.575758 321.808329 
L 117.341919 325.084567 
L 119.108081 328.273672 
L 120.874242 331.367285 
L 122.640404 334.357559 
L 124.406566 337.237161 
L 126.172727 339.999271 
L 127.938889 342.637582 
L 129.705051 345.146299 
L 131.471212 347.52014 
L 133.237374 349.754337 
L 135.003535 351.844634 
L 136.769697 353.787288 
L 138.535859 355.57907 
L 140.30202 357.217261 
L 142.068182 358.699658 
L 143.834343 360.024571 
L 145.600505 361.190819 
L 147.366667 362.197739 
L 149.132828 363.045178 
L 150.89899 363.733496 
L 152.665152 364.263566 
L 154.431313 364.636775 
L 156.197475 364.855022 
L 157.963636 364.920719 
L 159.729798 364.836791 
L 161.49596 364.606677 
L 163.262121 364.234326 
L 165.028283 363.724203 
L 166.794444 363.081284 
L 168.560606 362.31106 
L 170.326768 361.419531 
L 172.092929 360.413215 
L 173.859091 359.299139 
L 175.625253 358.084844 
L 177.391414 356.778385 
L 179.157576 355.388328 
L 180.923737 353.923754 
L 182.689899 352.394256 
L 184.456061 350.809939 
L 186.222222 349.181423 
L 187.988384 347.519838 
L 189.754545 345.836829 
L 191.520707 344.144554 
L 193.286869 342.455684 
L 195.05303 340.783401 
L 196.819192 339.141401 
L 198.585354 337.543894 
L 200.351515 336.005603 
L 202.117677 334.541761 
L 203.883838 333.168116 
L 205.65 331.90093 
" style="fill:none;stroke:#000000;stroke-linecap:square;stroke-width:1.5;"/>
   </g>
   <g id="patch_18">
    <path d="M 30.8 410.966667 
L 30.8 221.533333 
" style="fill:none;stroke:#000000;stroke-linecap:square;stroke-linejoin:miter;stroke-width:0.8;"/>
   </g>
   <g id="patch_19">
    <path d="M 205.65 410.966667 
L 205.65 221.533333 
" style="fill:none;stroke:#000000;stroke-linecap:square;stroke-linejoin:miter;stroke-width:0.8;"/>
   </g>
   <g id="patch_20">
    <path d="M 30.8 410.966667 
L 205.65 410.966667 
" style="fill:none;stroke:#000000;stroke-linecap:square;stroke-linejoin:miter;stroke-width:0.8;"/>
   </g>
   <g id="patch_21">
    <path d="M 30.8 221.533333 
L 205.65 221.533333 
" style="fill:none;stroke:#000000;stroke-linecap:square;stroke-linejoin:miter;stroke-width:0.8;"/>
   </g>
  </g>
  <g id="axes_5">
   <g id="patch_22">
    <path d="M 240.7625 410.966667 
L 415.6125 410.966667 
L 415.6125 221.533333 
L 240.7625 221.533333 
z
" style="fill:#ffffff;"/>
   </g>
   <g id="PathCollection_5">
    <g clip-path="url(#padfabc1507)">
     <use style="fill:#ff0000;stroke:#ff0000;stroke-width:1.5;" x="404.907398" xlink:href="#mcb34ef46f0" y="347.790431"/>
     <use style="fill:#ff0000;stroke:#ff0000;stroke-width:1.5;" x="290.719643" xlink:href="#mcb34ef46f0" y="250.765621"/>
     <use style="fill:#ff0000;stroke:#ff0000;stroke-width:1.5;" x="412.044133" xlink:href="#mcb34ef46f0" y="333.714221"/>
     <use style="fill:#ff0000;stroke:#ff0000;stroke-width:1.5;" x="347.81352" xlink:href="#mcb34ef46f0" y="363.560889"/>
     <use style="fill:#ff0000;stroke:#ff0000;stroke-width:1.5;" x="333.540051" xlink:href="#mcb34ef46f0" y="333.530266"/>
     <use style="fill:#ff0000;stroke:#ff0000;stroke-width:1.5;" x="255.035969" xlink:href="#mcb34ef46f0" y="273.649277"/>
     <use style="fill:#ff0000;stroke:#ff0000;stroke-width:1.5;" x="365.655357" xlink:href="#mcb34ef46f0" y="364.852538"/>
     <use style="fill:#ff0000;stroke:#ff0000;stroke-width:1.5;" x="297.856378" xlink:href="#mcb34ef46f0" y="261.125697"/>
     <use style="fill:#ff0000;stroke:#ff0000;stroke-width:1.5;" x="394.202296" xlink:href="#mcb34ef46f0" y="341.693492"/>
     <use style="fill:#ff0000;stroke:#ff0000;stroke-width:1.5;" x="272.877806" xlink:href="#mcb34ef46f0" y="258.20773"/>
    </g>
   </g>
   <g id="line2d_19">
    <path clip-path="url(#padfabc1507)" d="M 240.7625 292.396501 
L 242.528662 290.961274 
L 244.294823 289.216126 
L 246.060985 287.214971 
L 247.827146 285.008578 
L 249.593308 282.644639 
L 251.35947 280.167839 
L 253.125631 277.619931 
L 254.891793 275.039803 
L 256.657955 272.463552 
L 258.424116 269.924555 
L 260.190278 267.453538 
L 261.956439 265.07865 
L 263.722601 262.825531 
L 265.488763 260.717387 
L 267.254924 258.775057 
L 269.021086 257.017089 
L 270.787247 255.459806 
L 272.553409 254.117379 
L 274.319571 253.001902 
L 276.085732 252.123456 
L 277.851894 251.490187 
L 279.618056 251.108372 
L 281.384217 250.982494 
L 283.150379 251.11531 
L 284.91654 251.507926 
L 286.682702 252.159863 
L 288.448864 253.069133 
L 290.215025 254.232307 
L 291.981187 255.644587 
L 293.747348 257.299879 
L 295.51351 259.190861 
L 297.279672 261.309056 
L 299.045833 263.644905 
L 300.811995 266.187833 
L 302.578157 268.926325 
L 304.344318 271.847995 
L 306.11048 274.939657 
L 307.876641 278.187398 
L 309.642803 281.576647 
L 311.408965 285.092246 
L 313.175126 288.718524 
L 314.941288 292.439366 
L 316.707449 296.238283 
L 318.473611 300.098487 
L 320.239773 304.002958 
L 322.005934 307.934516 
L 323.772096 311.875896 
L 325.538258 315.809815 
L 327.304419 319.719044 
L 329.070581 323.586479 
L 330.836742 327.395214 
L 332.602904 331.128611 
L 334.369066 334.77037 
L 336.135227 338.304602 
L 337.901389 341.7159 
L 339.667551 344.989406 
L 341.433712 348.110891 
L 343.199874 351.066817 
L 344.966035 353.844413 
L 346.732197 356.431746 
L 348.498359 358.81779 
L 350.26452 360.992499 
L 352.030682 362.946879 
L 353.796843 364.673056 
L 355.563005 366.164348 
L 357.329167 367.415341 
L 359.095328 368.421952 
L 360.86149 369.181508 
L 362.627652 369.69281 
L 364.393813 369.95621 
L 366.159975 369.973681 
L 367.926136 369.748884 
L 369.692298 369.287244 
L 371.45846 368.596019 
L 373.224621 367.684373 
L 374.990783 366.563443 
L 376.756944 365.246414 
L 378.523106 363.748589 
L 380.289268 362.087461 
L 382.055429 360.282783 
L 383.821591 358.356638 
L 385.587753 356.333514 
L 387.353914 354.24037 
L 389.120076 352.106712 
L 390.886237 349.964662 
L 392.652399 347.849028 
L 394.418561 345.797377 
L 396.184722 343.850107 
L 397.950884 342.050514 
L 399.717045 340.444869 
L 401.483207 339.082483 
L 403.249369 338.015783 
L 405.01553 337.300381 
L 406.781692 336.995146 
L 408.547854 337.162273 
L 410.314015 337.867358 
L 412.080177 339.179465 
L 413.846338 341.171201 
L 415.6125 343.918784 
" style="fill:none;stroke:#000000;stroke-linecap:square;stroke-width:1.5;"/>
   </g>
   <g id="patch_23">
    <path d="M 240.7625 410.966667 
L 240.7625 221.533333 
" style="fill:none;stroke:#000000;stroke-linecap:square;stroke-linejoin:miter;stroke-width:0.8;"/>
   </g>
   <g id="patch_24">
    <path d="M 415.6125 410.966667 
L 415.6125 221.533333 
" style="fill:none;stroke:#000000;stroke-linecap:square;stroke-linejoin:miter;stroke-width:0.8;"/>
   </g>
   <g id="patch_25">
    <path d="M 240.7625 410.966667 
L 415.6125 410.966667 
" style="fill:none;stroke:#000000;stroke-linecap:square;stroke-linejoin:miter;stroke-width:0.8;"/>
   </g>
   <g id="patch_26">
    <path d="M 240.7625 221.533333 
L 415.6125 221.533333 
" style="fill:none;stroke:#000000;stroke-linecap:square;stroke-linejoin:miter;stroke-width:0.8;"/>
   </g>
  </g>
  <g id="axes_6">
   <g id="patch_27">
    <path d="M 450.725 410.966667 
L 625.575 410.966667 
L 625.575 221.533333 
L 450.725 221.533333 
z
" style="fill:#ffffff;"/>
   </g>
   <g id="PathCollection_6">
    <g clip-path="url(#p541c09675f)">
     <use style="fill:#ff0000;stroke:#ff0000;stroke-width:1.5;" x="614.869898" xlink:href="#mcb34ef46f0" y="347.790431"/>
     <use style="fill:#ff0000;stroke:#ff0000;stroke-width:1.5;" x="500.682143" xlink:href="#mcb34ef46f0" y="250.765621"/>
     <use style="fill:#ff0000;stroke:#ff0000;stroke-width:1.5;" x="622.006633" xlink:href="#mcb34ef46f0" y="333.714221"/>
     <use style="fill:#ff0000;stroke:#ff0000;stroke-width:1.5;" x="557.77602" xlink:href="#mcb34ef46f0" y="363.560889"/>
     <use style="fill:#ff0000;stroke:#ff0000;stroke-width:1.5;" x="543.502551" xlink:href="#mcb34ef46f0" y="333.530266"/>
     <use style="fill:#ff0000;stroke:#ff0000;stroke-width:1.5;" x="464.998469" xlink:href="#mcb34ef46f0" y="273.649277"/>
     <use style="fill:#ff0000;stroke:#ff0000;stroke-width:1.5;" x="575.617857" xlink:href="#mcb34ef46f0" y="364.852538"/>
     <use style="fill:#ff0000;stroke:#ff0000;stroke-width:1.5;" x="507.818878" xlink:href="#mcb34ef46f0" y="261.125697"/>
     <use style="fill:#ff0000;stroke:#ff0000;stroke-width:1.5;" x="604.164796" xlink:href="#mcb34ef46f0" y="341.693492"/>
     <use style="fill:#ff0000;stroke:#ff0000;stroke-width:1.5;" x="482.840306" xlink:href="#mcb34ef46f0" y="258.20773"/>
    </g>
   </g>
   <g id="line2d_20">
    <path clip-path="url(#p541c09675f)" d="M 450.725 210.989486 
L 452.491162 226.510811 
L 454.257323 239.267514 
L 456.023485 249.562901 
L 457.789646 257.67996 
L 459.555808 263.882158 
L 461.32197 268.414226 
L 463.088131 271.502932 
L 464.854293 273.357832 
L 466.620455 274.172016 
L 468.386616 274.122829 
L 470.152778 273.372589 
L 471.918939 272.069283 
L 473.685101 270.347248 
L 475.451263 268.32784 
L 477.217424 266.120092 
L 478.983586 263.821348 
L 480.749747 261.517893 
L 482.515909 259.285563 
L 484.282071 257.190337 
L 486.048232 255.288923 
L 487.814394 253.629324 
L 489.580556 252.251392 
L 491.346717 251.187362 
L 493.112879 250.46238 
L 494.87904 250.09501 
L 496.645202 250.09773 
L 498.411364 250.47741 
L 500.177525 251.235781 
L 501.943687 252.369883 
L 503.709848 253.872504 
L 505.47601 255.732599 
L 507.242172 257.935701 
L 509.008333 260.464314 
L 510.774495 263.29829 
L 512.540657 266.415193 
L 514.306818 269.790649 
L 516.07298 273.398684 
L 517.839141 277.212039 
L 519.605303 281.202484 
L 521.371465 285.3411 
L 523.137626 289.598565 
L 524.903788 293.94541 
L 526.669949 298.352273 
L 528.436111 302.790129 
L 530.202273 307.230508 
L 531.968434 311.645703 
L 533.734596 316.008958 
L 535.500758 320.294647 
L 537.266919 324.478429 
L 539.033081 328.537399 
L 540.799242 332.450222 
L 542.565404 336.197245 
L 544.331566 339.760603 
L 546.097727 343.124311 
L 547.863889 346.274331 
L 549.630051 349.198639 
L 551.396212 351.887264 
L 553.162374 354.332323 
L 554.928535 356.528035 
L 556.694697 358.470723 
L 558.460859 360.158802 
L 560.22702 361.59275 
L 561.993182 362.775068 
L 563.759343 363.710222 
L 565.525505 364.404573 
L 567.291667 364.866292 
L 569.057828 365.10526 
L 570.82399 365.132952 
L 572.590152 364.96231 
L 574.356313 364.607599 
L 576.122475 364.08425 
L 577.888636 363.408686 
L 579.654798 362.598136 
L 581.42096 361.670433 
L 583.187121 360.643801 
L 584.953283 359.53662 
L 586.719444 358.367184 
L 588.485606 357.153442 
L 590.251768 355.912722 
L 592.017929 354.661445 
L 593.784091 353.414821 
L 595.550253 352.18653 
L 597.316414 350.988394 
L 599.082576 349.830027 
L 600.848737 348.718475 
L 602.614899 347.657843 
L 604.381061 346.648901 
L 606.147222 345.688684 
L 607.913384 344.770069 
L 609.679545 343.881346 
L 611.445707 343.005764 
L 613.211869 342.121076 
L 614.97803 341.199057 
L 616.744192 340.205014 
L 618.510354 339.097279 
L 620.276515 337.826692 
L 622.042677 336.336063 
L 623.808838 334.559622 
L 625.575 332.42246 
" style="fill:none;stroke:#000000;stroke-linecap:square;stroke-width:1.5;"/>
   </g>
   <g id="patch_28">
    <path d="M 450.725 410.966667 
L 450.725 221.533333 
" style="fill:none;stroke:#000000;stroke-linecap:square;stroke-linejoin:miter;stroke-width:0.8;"/>
   </g>
   <g id="patch_29">
    <path d="M 625.575 410.966667 
L 625.575 221.533333 
" style="fill:none;stroke:#000000;stroke-linecap:square;stroke-linejoin:miter;stroke-width:0.8;"/>
   </g>
   <g id="patch_30">
    <path d="M 450.725 410.966667 
L 625.575 410.966667 
" style="fill:none;stroke:#000000;stroke-linecap:square;stroke-linejoin:miter;stroke-width:0.8;"/>
   </g>
   <g id="patch_31">
    <path d="M 450.725 221.533333 
L 625.575 221.533333 
" style="fill:none;stroke:#000000;stroke-linecap:square;stroke-linejoin:miter;stroke-width:0.8;"/>
   </g>
  </g>
  <g id="axes_7">
   <g id="patch_32">
    <path d="M 30.8 618.2 
L 205.65 618.2 
L 205.65 428.766667 
L 30.8 428.766667 
z
" style="fill:#ffffff;"/>
   </g>
   <g id="PathCollection_7">
    <g clip-path="url(#p71e1d7419d)">
     <use style="fill:#ff0000;stroke:#ff0000;stroke-width:1.5;" x="194.944898" xlink:href="#mcb34ef46f0" y="555.023765"/>
     <use style="fill:#ff0000;stroke:#ff0000;stroke-width:1.5;" x="80.757143" xlink:href="#mcb34ef46f0" y="457.998955"/>
     <use style="fill:#ff0000;stroke:#ff0000;stroke-width:1.5;" x="202.081633" xlink:href="#mcb34ef46f0" y="540.947555"/>
     <use style="fill:#ff0000;stroke:#ff0000;stroke-width:1.5;" x="137.85102" xlink:href="#mcb34ef46f0" y="570.794222"/>
     <use style="fill:#ff0000;stroke:#ff0000;stroke-width:1.5;" x="123.577551" xlink:href="#mcb34ef46f0" y="540.763599"/>
     <use style="fill:#ff0000;stroke:#ff0000;stroke-width:1.5;" x="45.073469" xlink:href="#mcb34ef46f0" y="480.88261"/>
     <use style="fill:#ff0000;stroke:#ff0000;stroke-width:1.5;" x="155.692857" xlink:href="#mcb34ef46f0" y="572.085871"/>
     <use style="fill:#ff0000;stroke:#ff0000;stroke-width:1.5;" x="87.893878" xlink:href="#mcb34ef46f0" y="468.35903"/>
     <use style="fill:#ff0000;stroke:#ff0000;stroke-width:1.5;" x="184.239796" xlink:href="#mcb34ef46f0" y="548.926826"/>
     <use style="fill:#ff0000;stroke:#ff0000;stroke-width:1.5;" x="62.915306" xlink:href="#mcb34ef46f0" y="465.441064"/>
    </g>
   </g>
   <g id="matplotlib.axis_3">
    <g id="xtick_1">
     <g id="line2d_21">
      <defs>
       <path d="M 0 0 
L 0 3.5 
" id="m387df20636" style="stroke:#000000;stroke-width:0.8;"/>
      </defs>
      <g>
       <use style="stroke:#000000;stroke-width:0.8;" x="30.8" xlink:href="#m387df20636" y="618.2"/>
      </g>
     </g>
     <g id="text_15">
      <!-- 0.00 -->
      <g transform="translate(18.135313 634.27125)scale(0.12 -0.12)">
       <use xlink:href="#Georgia-30"/>
       <use x="61.376953" xlink:href="#Georgia-2e"/>
       <use x="88.330078" xlink:href="#Georgia-30"/>
       <use x="149.707031" xlink:href="#Georgia-30"/>
      </g>
     </g>
    </g>
    <g id="xtick_2">
     <g id="line2d_22">
      <g>
       <use style="stroke:#000000;stroke-width:0.8;" x="74.5125" xlink:href="#m387df20636" y="618.2"/>
      </g>
     </g>
     <g id="text_16">
      <!-- 0.25 -->
      <defs>
       <path d="M 51.125 0 
L 5.375 0 
L 5.375 6.640625 
Q 6.6875 8.15625 9.03125 10.03125 
Q 11.375 11.921875 14.59375 14.109375 
Q 16.546875 15.4375 19.28125 17 
Q 22.015625 18.5625 25.484375 20.40625 
Q 29.34375 22.46875 31.421875 24.03125 
Q 33.5 25.59375 35.203125 27.875 
Q 36.328125 29.390625 37.015625 31.65625 
Q 37.703125 33.9375 37.703125 38.140625 
Q 37.703125 44.234375 34.421875 47.09375 
Q 31.15625 49.953125 26.03125 49.953125 
Q 22.859375 49.953125 20.015625 48.703125 
Q 17.1875 47.46875 15.765625 45.265625 
Q 16.109375 43.703125 16.625 41.546875 
Q 17.140625 39.40625 17.140625 37.359375 
Q 17.140625 35.5 15.59375 34.0625 
Q 14.0625 32.625 11.03125 32.625 
Q 8.59375 32.625 7.265625 34.296875 
Q 5.953125 35.984375 5.953125 38.8125 
Q 5.953125 41.453125 7.421875 44.109375 
Q 8.890625 46.78125 11.625 49.03125 
Q 14.3125 51.21875 18.265625 52.578125 
Q 22.21875 53.953125 26.8125 53.953125 
Q 36.8125 53.953125 42.6875 49.484375 
Q 48.578125 45.015625 48.578125 37.546875 
Q 48.578125 33.984375 47.53125 31.046875 
Q 46.484375 28.125 44.140625 25.875 
Q 41.546875 23.390625 38.078125 21.609375 
Q 34.625 19.828125 27.484375 16.65625 
Q 23.25 14.75 19.578125 12.671875 
Q 15.921875 10.59375 13.578125 8.640625 
L 51.125 8.640625 
z
" id="Georgia-32"/>
      </defs>
      <g transform="translate(62.691563 634.27125)scale(0.12 -0.12)">
       <use xlink:href="#Georgia-30"/>
       <use x="61.376953" xlink:href="#Georgia-2e"/>
       <use x="88.330078" xlink:href="#Georgia-32"/>
       <use x="144.189453" xlink:href="#Georgia-35"/>
      </g>
     </g>
    </g>
    <g id="xtick_3">
     <g id="line2d_23">
      <g>
       <use style="stroke:#000000;stroke-width:0.8;" x="118.225" xlink:href="#m387df20636" y="618.2"/>
      </g>
     </g>
     <g id="text_17">
      <!-- 0.50 -->
      <g transform="translate(106.073125 634.27125)scale(0.12 -0.12)">
       <use xlink:href="#Georgia-30"/>
       <use x="61.376953" xlink:href="#Georgia-2e"/>
       <use x="88.330078" xlink:href="#Georgia-35"/>
       <use x="141.162109" xlink:href="#Georgia-30"/>
      </g>
     </g>
    </g>
    <g id="xtick_4">
     <g id="line2d_24">
      <g>
       <use style="stroke:#000000;stroke-width:0.8;" x="161.9375" xlink:href="#m387df20636" y="618.2"/>
      </g>
     </g>
     <g id="text_18">
      <!-- 0.75 -->
      <defs>
       <path d="M 50.25 49.21875 
L 15.4375 -17.828125 
L 9.328125 -17.828125 
L 42.09375 44.1875 
L 22.90625 44.1875 
Q 18.65625 44.1875 16.265625 44.09375 
Q 13.875 44 11.859375 43.171875 
Q 10.359375 42.53125 9.15625 39.921875 
Q 7.953125 37.3125 7.328125 33.25 
L 4.34375 33.25 
L 4.34375 52.390625 
L 50.25 52.390625 
z
" id="Georgia-37"/>
      </defs>
      <g transform="translate(150.453125 634.27125)scale(0.12 -0.12)">
       <use xlink:href="#Georgia-30"/>
       <use x="61.376953" xlink:href="#Georgia-2e"/>
       <use x="88.330078" xlink:href="#Georgia-37"/>
       <use x="138.574219" xlink:href="#Georgia-35"/>
      </g>
     </g>
    </g>
    <g id="xtick_5">
     <g id="line2d_25">
      <g>
       <use style="stroke:#000000;stroke-width:0.8;" x="205.65" xlink:href="#m387df20636" y="618.2"/>
      </g>
     </g>
     <g id="text_19">
      <!-- 1.00 -->
      <g transform="translate(194.089688 634.27125)scale(0.12 -0.12)">
       <use xlink:href="#Georgia-31"/>
       <use x="42.96875" xlink:href="#Georgia-2e"/>
       <use x="69.921875" xlink:href="#Georgia-30"/>
       <use x="131.298828" xlink:href="#Georgia-30"/>
      </g>
     </g>
    </g>
   </g>
   <g id="matplotlib.axis_4">
    <g id="ytick_15">
     <g id="line2d_26">
      <g>
       <use style="stroke:#000000;stroke-width:0.8;" x="30.8" xlink:href="#mfabf56297a" y="618.2"/>
      </g>
     </g>
     <g id="text_20">
      <!-- −1.5 -->
      <g transform="translate(1.3525 622.735625)scale(0.12 -0.12)">
       <use xlink:href="#Georgia-2212"/>
       <use x="64.306641" xlink:href="#Georgia-31"/>
       <use x="107.275391" xlink:href="#Georgia-2e"/>
       <use x="134.228516" xlink:href="#Georgia-35"/>
      </g>
     </g>
    </g>
    <g id="ytick_16">
     <g id="line2d_27">
      <g>
       <use style="stroke:#000000;stroke-width:0.8;" x="30.8" xlink:href="#mfabf56297a" y="586.627778"/>
      </g>
     </g>
     <g id="text_21">
      <!-- −1.0 -->
      <g transform="translate(0.326875 591.163403)scale(0.12 -0.12)">
       <use xlink:href="#Georgia-2212"/>
       <use x="64.306641" xlink:href="#Georgia-31"/>
       <use x="107.275391" xlink:href="#Georgia-2e"/>
       <use x="134.228516" xlink:href="#Georgia-30"/>
      </g>
     </g>
    </g>
    <g id="ytick_17">
     <g id="line2d_28">
      <g>
       <use style="stroke:#000000;stroke-width:0.8;" x="30.8" xlink:href="#mfabf56297a" y="555.055556"/>
      </g>
     </g>
     <g id="text_22">
      <!-- −0.5 -->
      <g transform="translate(-0.85625 559.591181)scale(0.12 -0.12)">
       <use xlink:href="#Georgia-2212"/>
       <use x="64.306641" xlink:href="#Georgia-30"/>
       <use x="125.683594" xlink:href="#Georgia-2e"/>
       <use x="152.636719" xlink:href="#Georgia-35"/>
      </g>
     </g>
    </g>
    <g id="ytick_18">
     <g id="line2d_29">
      <g>
       <use style="stroke:#000000;stroke-width:0.8;" x="30.8" xlink:href="#mfabf56297a" y="523.483333"/>
      </g>
     </g>
     <g id="text_23">
      <!-- 0.0 -->
      <g transform="translate(5.835625 528.018958)scale(0.12 -0.12)">
       <use xlink:href="#Georgia-30"/>
       <use x="61.376953" xlink:href="#Georgia-2e"/>
       <use x="88.330078" xlink:href="#Georgia-30"/>
      </g>
     </g>
    </g>
    <g id="ytick_19">
     <g id="line2d_30">
      <g>
       <use style="stroke:#000000;stroke-width:0.8;" x="30.8" xlink:href="#mfabf56297a" y="491.911111"/>
      </g>
     </g>
     <g id="text_24">
      <!-- 0.5 -->
      <g transform="translate(6.86125 496.446736)scale(0.12 -0.12)">
       <use xlink:href="#Georgia-30"/>
       <use x="61.376953" xlink:href="#Georgia-2e"/>
       <use x="88.330078" xlink:href="#Georgia-35"/>
      </g>
     </g>
    </g>
    <g id="ytick_20">
     <g id="line2d_31">
      <g>
       <use style="stroke:#000000;stroke-width:0.8;" x="30.8" xlink:href="#mfabf56297a" y="460.338889"/>
      </g>
     </g>
     <g id="text_25">
      <!-- 1.0 -->
      <g transform="translate(8.044375 464.874514)scale(0.12 -0.12)">
       <use xlink:href="#Georgia-31"/>
       <use x="42.96875" xlink:href="#Georgia-2e"/>
       <use x="69.921875" xlink:href="#Georgia-30"/>
      </g>
     </g>
    </g>
    <g id="ytick_21">
     <g id="line2d_32">
      <g>
       <use style="stroke:#000000;stroke-width:0.8;" x="30.8" xlink:href="#mfabf56297a" y="428.766667"/>
      </g>
     </g>
     <g id="text_26">
      <!-- 1.5 -->
      <g transform="translate(9.07 433.302292)scale(0.12 -0.12)">
       <use xlink:href="#Georgia-31"/>
       <use x="42.96875" xlink:href="#Georgia-2e"/>
       <use x="69.921875" xlink:href="#Georgia-35"/>
      </g>
     </g>
    </g>
   </g>
   <g id="line2d_33">
    <path clip-path="url(#p71e1d7419d)" d="M 30.8 609.644844 
L 32.566162 579.610863 
L 34.332323 554.928407 
L 36.098485 534.823791 
L 37.864646 518.607068 
L 39.630808 505.66584 
L 41.39697 495.459349 
L 43.163131 487.512848 
L 44.929293 481.412233 
L 46.695455 476.798938 
L 48.461616 473.36509 
L 50.227778 470.848907 
L 51.993939 469.030351 
L 53.760101 467.727005 
L 55.526263 466.790197 
L 57.292424 466.101341 
L 59.058586 465.568502 
L 60.824747 465.123174 
L 62.590909 464.71727 
L 64.357071 464.320312 
L 66.123232 463.916822 
L 67.889394 463.503897 
L 69.655556 463.088976 
L 71.421717 462.687785 
L 73.187879 462.322455 
L 74.95404 462.019803 
L 76.720202 461.809786 
L 78.486364 461.724098 
L 80.252525 461.794925 
L 82.018687 462.053845 
L 83.784848 462.530855 
L 85.55101 463.253549 
L 87.317172 464.246403 
L 89.083333 465.530193 
L 90.849495 467.121524 
L 92.615657 469.032466 
L 94.381818 471.270297 
L 96.14798 473.837336 
L 97.914141 476.730875 
L 99.680303 479.943193 
L 101.446465 483.461644 
L 103.212626 487.268828 
L 104.978788 491.342822 
L 106.744949 495.657474 
L 108.511111 500.182758 
L 110.277273 504.885169 
L 112.043434 509.728172 
L 113.809596 514.672681 
L 115.575758 519.677576 
L 117.341919 524.700243 
L 119.108081 529.697133 
L 120.874242 534.62434 
L 122.640404 539.438184 
L 124.406566 544.095797 
L 126.172727 548.555708 
L 127.938889 552.778416 
L 129.705051 556.726948 
L 131.471212 560.3674 
L 133.237374 563.669446 
L 135.003535 566.606818 
L 136.769697 569.157745 
L 138.535859 571.305351 
L 140.30202 573.037996 
L 142.068182 574.349569 
L 143.834343 575.239712 
L 145.600505 575.713981 
L 147.366667 575.783929 
L 149.132828 575.467109 
L 150.89899 574.786999 
L 152.665152 573.772823 
L 154.431313 572.459283 
L 156.197475 570.886189 
L 157.963636 569.097971 
L 159.729798 567.143083 
L 161.49596 565.073285 
L 163.262121 562.942795 
L 165.028283 560.807312 
L 166.794444 558.722896 
L 168.560606 556.744705 
L 170.326768 554.925587 
L 172.092929 553.314502 
L 173.859091 551.9548 
L 175.625253 550.882312 
L 177.391414 550.123281 
L 179.157576 549.692106 
L 180.923737 549.588902 
L 182.689899 549.796869 
L 184.456061 550.279458 
L 186.222222 550.977345 
L 187.988384 551.805182 
L 189.754545 552.64814 
L 191.520707 553.358231 
L 193.286869 553.750403 
L 195.05303 553.598395 
L 196.819192 552.630361 
L 198.585354 550.524249 
L 200.351515 546.902924 
L 202.117677 541.329036 
L 203.883838 533.299629 
L 205.65 522.240479 
" style="fill:none;stroke:#000000;stroke-linecap:square;stroke-width:1.5;"/>
   </g>
   <g id="patch_33">
    <path d="M 30.8 618.2 
L 30.8 428.766667 
" style="fill:none;stroke:#000000;stroke-linecap:square;stroke-linejoin:miter;stroke-width:0.8;"/>
   </g>
   <g id="patch_34">
    <path d="M 205.65 618.2 
L 205.65 428.766667 
" style="fill:none;stroke:#000000;stroke-linecap:square;stroke-linejoin:miter;stroke-width:0.8;"/>
   </g>
   <g id="patch_35">
    <path d="M 30.8 618.2 
L 205.65 618.2 
" style="fill:none;stroke:#000000;stroke-linecap:square;stroke-linejoin:miter;stroke-width:0.8;"/>
   </g>
   <g id="patch_36">
    <path d="M 30.8 428.766667 
L 205.65 428.766667 
" style="fill:none;stroke:#000000;stroke-linecap:square;stroke-linejoin:miter;stroke-width:0.8;"/>
   </g>
  </g>
  <g id="axes_8">
   <g id="patch_37">
    <path d="M 240.7625 618.2 
L 415.6125 618.2 
L 415.6125 428.766667 
L 240.7625 428.766667 
z
" style="fill:#ffffff;"/>
   </g>
   <g id="PathCollection_8">
    <g clip-path="url(#pb071410824)">
     <use style="fill:#ff0000;stroke:#ff0000;stroke-width:1.5;" x="404.907398" xlink:href="#mcb34ef46f0" y="555.023765"/>
     <use style="fill:#ff0000;stroke:#ff0000;stroke-width:1.5;" x="290.719643" xlink:href="#mcb34ef46f0" y="457.998955"/>
     <use style="fill:#ff0000;stroke:#ff0000;stroke-width:1.5;" x="412.044133" xlink:href="#mcb34ef46f0" y="540.947555"/>
     <use style="fill:#ff0000;stroke:#ff0000;stroke-width:1.5;" x="347.81352" xlink:href="#mcb34ef46f0" y="570.794222"/>
     <use style="fill:#ff0000;stroke:#ff0000;stroke-width:1.5;" x="333.540051" xlink:href="#mcb34ef46f0" y="540.763599"/>
     <use style="fill:#ff0000;stroke:#ff0000;stroke-width:1.5;" x="255.035969" xlink:href="#mcb34ef46f0" y="480.88261"/>
     <use style="fill:#ff0000;stroke:#ff0000;stroke-width:1.5;" x="365.655357" xlink:href="#mcb34ef46f0" y="572.085871"/>
     <use style="fill:#ff0000;stroke:#ff0000;stroke-width:1.5;" x="297.856378" xlink:href="#mcb34ef46f0" y="468.35903"/>
     <use style="fill:#ff0000;stroke:#ff0000;stroke-width:1.5;" x="394.202296" xlink:href="#mcb34ef46f0" y="548.926826"/>
     <use style="fill:#ff0000;stroke:#ff0000;stroke-width:1.5;" x="272.877806" xlink:href="#mcb34ef46f0" y="465.441064"/>
    </g>
   </g>
   <g id="matplotlib.axis_5">
    <g id="xtick_6">
     <g id="line2d_34">
      <g>
       <use style="stroke:#000000;stroke-width:0.8;" x="240.7625" xlink:href="#m387df20636" y="618.2"/>
      </g>
     </g>
     <g id="text_27">
      <!-- 0.00 -->
      <g transform="translate(228.097813 634.27125)scale(0.12 -0.12)">
       <use xlink:href="#Georgia-30"/>
       <use x="61.376953" xlink:href="#Georgia-2e"/>
       <use x="88.330078" xlink:href="#Georgia-30"/>
       <use x="149.707031" xlink:href="#Georgia-30"/>
      </g>
     </g>
    </g>
    <g id="xtick_7">
     <g id="line2d_35">
      <g>
       <use style="stroke:#000000;stroke-width:0.8;" x="284.475" xlink:href="#m387df20636" y="618.2"/>
      </g>
     </g>
     <g id="text_28">
      <!-- 0.25 -->
      <g transform="translate(272.654063 634.27125)scale(0.12 -0.12)">
       <use xlink:href="#Georgia-30"/>
       <use x="61.376953" xlink:href="#Georgia-2e"/>
       <use x="88.330078" xlink:href="#Georgia-32"/>
       <use x="144.189453" xlink:href="#Georgia-35"/>
      </g>
     </g>
    </g>
    <g id="xtick_8">
     <g id="line2d_36">
      <g>
       <use style="stroke:#000000;stroke-width:0.8;" x="328.1875" xlink:href="#m387df20636" y="618.2"/>
      </g>
     </g>
     <g id="text_29">
      <!-- 0.50 -->
      <g transform="translate(316.035625 634.27125)scale(0.12 -0.12)">
       <use xlink:href="#Georgia-30"/>
       <use x="61.376953" xlink:href="#Georgia-2e"/>
       <use x="88.330078" xlink:href="#Georgia-35"/>
       <use x="141.162109" xlink:href="#Georgia-30"/>
      </g>
     </g>
    </g>
    <g id="xtick_9">
     <g id="line2d_37">
      <g>
       <use style="stroke:#000000;stroke-width:0.8;" x="371.9" xlink:href="#m387df20636" y="618.2"/>
      </g>
     </g>
     <g id="text_30">
      <!-- 0.75 -->
      <g transform="translate(360.415625 634.27125)scale(0.12 -0.12)">
       <use xlink:href="#Georgia-30"/>
       <use x="61.376953" xlink:href="#Georgia-2e"/>
       <use x="88.330078" xlink:href="#Georgia-37"/>
       <use x="138.574219" xlink:href="#Georgia-35"/>
      </g>
     </g>
    </g>
    <g id="xtick_10">
     <g id="line2d_38">
      <g>
       <use style="stroke:#000000;stroke-width:0.8;" x="415.6125" xlink:href="#m387df20636" y="618.2"/>
      </g>
     </g>
     <g id="text_31">
      <!-- 1.00 -->
      <g transform="translate(404.052188 634.27125)scale(0.12 -0.12)">
       <use xlink:href="#Georgia-31"/>
       <use x="42.96875" xlink:href="#Georgia-2e"/>
       <use x="69.921875" xlink:href="#Georgia-30"/>
       <use x="131.298828" xlink:href="#Georgia-30"/>
      </g>
     </g>
    </g>
   </g>
   <g id="line2d_39">
    <path clip-path="url(#pb071410824)" d="M 240.7625 272.417913 
L 242.528662 327.250997 
L 244.294823 370.84164 
L 246.060985 404.939533 
L 247.827146 431.082771 
L 249.593308 450.617612 
L 251.35947 464.716886 
L 253.125631 474.397121 
L 254.891793 480.53444 
L 256.657955 483.879291 
L 258.424116 485.070057 
L 260.190278 484.645607 
L 261.956439 483.056841 
L 263.722601 480.677276 
L 265.488763 477.812723 
L 267.254924 474.710111 
L 269.021086 471.565501 
L 270.787247 468.531334 
L 272.553409 465.722964 
L 274.319571 463.224517 
L 276.085732 461.094117 
L 277.851894 459.368524 
L 279.618056 458.067228 
L 281.384217 457.19602 
L 283.150379 456.750104 
L 284.91654 456.716767 
L 286.682702 457.077647 
L 288.448864 457.810636 
L 290.215025 458.89145 
L 291.981187 460.294895 
L 293.747348 461.995861 
L 295.51351 463.970069 
L 297.279672 466.19461 
L 299.045833 468.648285 
L 300.811995 471.311789 
L 302.578157 474.167746 
L 304.344318 477.200635 
L 306.11048 480.396611 
L 307.876641 483.743258 
L 309.642803 487.229274 
L 311.408965 490.844127 
L 313.175126 494.577677 
L 314.941288 498.419798 
L 316.707449 502.359999 
L 318.473611 506.387065 
L 320.239773 510.488725 
L 322.005934 514.651364 
L 323.772096 518.859773 
L 325.538258 523.096967 
L 327.304419 527.344051 
L 329.070581 531.580162 
L 330.836742 535.782475 
L 332.602904 539.926288 
L 334.369066 543.985173 
L 336.135227 547.931203 
L 337.901389 551.735256 
L 339.667551 555.367385 
L 341.433712 558.797249 
L 343.199874 561.994615 
L 344.966035 564.929906 
L 346.732197 567.574797 
L 348.498359 569.902856 
L 350.26452 571.8902 
L 352.030682 573.516178 
L 353.796843 574.764054 
L 355.563005 575.621678 
L 357.329167 576.082132 
L 359.095328 576.144339 
L 360.86149 575.813603 
L 362.627652 575.102078 
L 364.393813 574.029139 
L 366.159975 572.62162 
L 367.926136 570.913929 
L 369.692298 568.947978 
L 371.45846 566.772928 
L 373.224621 564.444719 
L 374.990783 562.025345 
L 376.756944 559.581857 
L 378.523106 557.185062 
L 380.289268 554.907884 
L 382.055429 552.823348 
L 383.821591 551.002169 
L 385.587753 549.509894 
L 387.353914 548.403573 
L 389.120076 547.727908 
L 390.886237 547.510858 
L 392.652399 547.758642 
L 394.418561 548.450113 
L 396.184722 549.530445 
L 397.950884 550.90411 
L 399.717045 552.427074 
L 401.483207 553.898186 
L 403.249369 555.049703 
L 405.01553 555.536902 
L 406.781692 554.926728 
L 408.547854 552.685437 
L 410.314015 548.165154 
L 412.080177 540.589333 
L 413.846338 529.037019 
L 415.6125 512.42589 
" style="fill:none;stroke:#000000;stroke-linecap:square;stroke-width:1.5;"/>
   </g>
   <g id="patch_38">
    <path d="M 240.7625 618.2 
L 240.7625 428.766667 
" style="fill:none;stroke:#000000;stroke-linecap:square;stroke-linejoin:miter;stroke-width:0.8;"/>
   </g>
   <g id="patch_39">
    <path d="M 415.6125 618.2 
L 415.6125 428.766667 
" style="fill:none;stroke:#000000;stroke-linecap:square;stroke-linejoin:miter;stroke-width:0.8;"/>
   </g>
   <g id="patch_40">
    <path d="M 240.7625 618.2 
L 415.6125 618.2 
" style="fill:none;stroke:#000000;stroke-linecap:square;stroke-linejoin:miter;stroke-width:0.8;"/>
   </g>
   <g id="patch_41">
    <path d="M 240.7625 428.766667 
L 415.6125 428.766667 
" style="fill:none;stroke:#000000;stroke-linecap:square;stroke-linejoin:miter;stroke-width:0.8;"/>
   </g>
  </g>
  <g id="axes_9">
   <g id="patch_42">
    <path d="M 450.725 618.2 
L 625.575 618.2 
L 625.575 428.766667 
L 450.725 428.766667 
z
" style="fill:#ffffff;"/>
   </g>
   <g id="PathCollection_9">
    <g clip-path="url(#p75d60df44f)">
     <use style="fill:#ff0000;stroke:#ff0000;stroke-width:1.5;" x="614.869898" xlink:href="#mcb34ef46f0" y="555.023765"/>
     <use style="fill:#ff0000;stroke:#ff0000;stroke-width:1.5;" x="500.682143" xlink:href="#mcb34ef46f0" y="457.998955"/>
     <use style="fill:#ff0000;stroke:#ff0000;stroke-width:1.5;" x="622.006633" xlink:href="#mcb34ef46f0" y="540.947555"/>
     <use style="fill:#ff0000;stroke:#ff0000;stroke-width:1.5;" x="557.77602" xlink:href="#mcb34ef46f0" y="570.794222"/>
     <use style="fill:#ff0000;stroke:#ff0000;stroke-width:1.5;" x="543.502551" xlink:href="#mcb34ef46f0" y="540.763599"/>
     <use style="fill:#ff0000;stroke:#ff0000;stroke-width:1.5;" x="464.998469" xlink:href="#mcb34ef46f0" y="480.88261"/>
     <use style="fill:#ff0000;stroke:#ff0000;stroke-width:1.5;" x="575.617857" xlink:href="#mcb34ef46f0" y="572.085871"/>
     <use style="fill:#ff0000;stroke:#ff0000;stroke-width:1.5;" x="507.818878" xlink:href="#mcb34ef46f0" y="468.35903"/>
     <use style="fill:#ff0000;stroke:#ff0000;stroke-width:1.5;" x="604.164796" xlink:href="#mcb34ef46f0" y="548.926826"/>
     <use style="fill:#ff0000;stroke:#ff0000;stroke-width:1.5;" x="482.840306" xlink:href="#mcb34ef46f0" y="465.441064"/>
    </g>
   </g>
   <g id="matplotlib.axis_6">
    <g id="xtick_11">
     <g id="line2d_40">
      <g>
       <use style="stroke:#000000;stroke-width:0.8;" x="450.725" xlink:href="#m387df20636" y="618.2"/>
      </g>
     </g>
     <g id="text_32">
      <!-- 0.00 -->
      <g transform="translate(438.060313 634.27125)scale(0.12 -0.12)">
       <use xlink:href="#Georgia-30"/>
       <use x="61.376953" xlink:href="#Georgia-2e"/>
       <use x="88.330078" xlink:href="#Georgia-30"/>
       <use x="149.707031" xlink:href="#Georgia-30"/>
      </g>
     </g>
    </g>
    <g id="xtick_12">
     <g id="line2d_41">
      <g>
       <use style="stroke:#000000;stroke-width:0.8;" x="494.4375" xlink:href="#m387df20636" y="618.2"/>
      </g>
     </g>
     <g id="text_33">
      <!-- 0.25 -->
      <g transform="translate(482.616563 634.27125)scale(0.12 -0.12)">
       <use xlink:href="#Georgia-30"/>
       <use x="61.376953" xlink:href="#Georgia-2e"/>
       <use x="88.330078" xlink:href="#Georgia-32"/>
       <use x="144.189453" xlink:href="#Georgia-35"/>
      </g>
     </g>
    </g>
    <g id="xtick_13">
     <g id="line2d_42">
      <g>
       <use style="stroke:#000000;stroke-width:0.8;" x="538.15" xlink:href="#m387df20636" y="618.2"/>
      </g>
     </g>
     <g id="text_34">
      <!-- 0.50 -->
      <g transform="translate(525.998125 634.27125)scale(0.12 -0.12)">
       <use xlink:href="#Georgia-30"/>
       <use x="61.376953" xlink:href="#Georgia-2e"/>
       <use x="88.330078" xlink:href="#Georgia-35"/>
       <use x="141.162109" xlink:href="#Georgia-30"/>
      </g>
     </g>
    </g>
    <g id="xtick_14">
     <g id="line2d_43">
      <g>
       <use style="stroke:#000000;stroke-width:0.8;" x="581.8625" xlink:href="#m387df20636" y="618.2"/>
      </g>
     </g>
     <g id="text_35">
      <!-- 0.75 -->
      <g transform="translate(570.378125 634.27125)scale(0.12 -0.12)">
       <use xlink:href="#Georgia-30"/>
       <use x="61.376953" xlink:href="#Georgia-2e"/>
       <use x="88.330078" xlink:href="#Georgia-37"/>
       <use x="138.574219" xlink:href="#Georgia-35"/>
      </g>
     </g>
    </g>
    <g id="xtick_15">
     <g id="line2d_44">
      <g>
       <use style="stroke:#000000;stroke-width:0.8;" x="625.575" xlink:href="#m387df20636" y="618.2"/>
      </g>
     </g>
     <g id="text_36">
      <!-- 1.00 -->
      <g transform="translate(614.014688 634.27125)scale(0.12 -0.12)">
       <use xlink:href="#Georgia-31"/>
       <use x="42.96875" xlink:href="#Georgia-2e"/>
       <use x="69.921875" xlink:href="#Georgia-30"/>
       <use x="131.298828" xlink:href="#Georgia-30"/>
      </g>
     </g>
    </g>
   </g>
   <g id="line2d_45">
    <path clip-path="url(#p75d60df44f)" d="M 453.584932 -1 
L 454.257323 62.944765 
L 456.023485 192.994994 
L 457.789646 291.883225 
L 459.555808 365.403473 
L 461.32197 418.499837 
L 463.088131 455.364209 
L 464.854293 479.525463 
L 466.620455 493.930649 
L 468.386616 501.018694 
L 470.152778 502.787128 
L 471.918939 500.852271 
L 473.685101 496.503351 
L 475.451263 490.750981 
L 477.217424 484.370397 
L 478.983586 477.93986 
L 480.749747 471.874589 
L 482.515909 466.456579 
L 484.282071 461.860652 
L 486.048232 458.177054 
L 487.814394 455.4309 
L 489.580556 453.598766 
L 491.346717 452.622693 
L 493.112879 452.421858 
L 494.87904 452.902155 
L 496.645202 453.963925 
L 498.411364 455.508022 
L 500.177525 457.440443 
L 501.943687 459.675681 
L 503.709848 462.139 
L 505.47601 464.76776 
L 507.242172 467.511974 
L 509.008333 470.334202 
L 510.774495 473.208925 
L 512.540657 476.121505 
L 514.306818 479.066837 
L 516.07298 482.047778 
L 517.839141 485.073444 
L 519.605303 488.157441 
L 521.371465 491.316098 
L 523.137626 494.566756 
L 524.903788 497.926162 
L 526.669949 501.408997 
L 528.436111 505.026592 
L 530.202273 508.785827 
L 531.968434 512.688262 
L 533.734596 516.729483 
L 535.500758 520.898695 
L 537.266919 525.178545 
L 539.033081 529.545182 
L 540.799242 533.968533 
L 542.565404 538.412797 
L 544.331566 542.83713 
L 546.097727 547.196509 
L 547.863889 551.442739 
L 549.630051 555.525594 
L 551.396212 559.394055 
L 553.162374 562.997614 
L 554.928535 566.287623 
L 556.694697 569.218645 
L 558.460859 571.749785 
L 560.22702 573.845963 
L 561.993182 575.479094 
L 563.759343 576.62916 
L 565.525505 577.285121 
L 567.291667 577.445657 
L 569.057828 577.119698 
L 570.82399 576.326734 
L 572.590152 575.096867 
L 574.356313 573.470603 
L 576.122475 571.498354 
L 577.888636 569.239649 
L 579.654798 566.762044 
L 581.42096 564.139734 
L 583.187121 561.451857 
L 584.953283 558.78052 
L 586.719444 556.20854 
L 588.485606 553.816938 
L 590.251768 551.682206 
L 592.017929 549.873381 
L 593.784091 548.448976 
L 595.550253 547.453816 
L 597.316414 546.915828 
L 599.082576 546.842873 
L 600.848737 547.219681 
L 602.614899 548.004981 
L 604.381061 549.128925 
L 606.147222 550.49091 
L 607.913384 551.95792 
L 609.679545 553.363514 
L 611.445707 554.507601 
L 613.211869 555.15716 
L 614.97803 555.048064 
L 616.744192 553.888188 
L 618.510354 551.362001 
L 620.276515 547.136834 
L 622.042677 540.871051 
L 623.808838 532.224361 
L 625.575 520.870505 
" style="fill:none;stroke:#000000;stroke-linecap:square;stroke-width:1.5;"/>
   </g>
   <g id="patch_43">
    <path d="M 450.725 618.2 
L 450.725 428.766667 
" style="fill:none;stroke:#000000;stroke-linecap:square;stroke-linejoin:miter;stroke-width:0.8;"/>
   </g>
   <g id="patch_44">
    <path d="M 625.575 618.2 
L 625.575 428.766667 
" style="fill:none;stroke:#000000;stroke-linecap:square;stroke-linejoin:miter;stroke-width:0.8;"/>
   </g>
   <g id="patch_45">
    <path d="M 450.725 618.2 
L 625.575 618.2 
" style="fill:none;stroke:#000000;stroke-linecap:square;stroke-linejoin:miter;stroke-width:0.8;"/>
   </g>
   <g id="patch_46">
    <path d="M 450.725 428.766667 
L 625.575 428.766667 
" style="fill:none;stroke:#000000;stroke-linecap:square;stroke-linejoin:miter;stroke-width:0.8;"/>
   </g>
  </g>
 </g>
 <defs>
  <clipPath id="pa57f9865eb">
   <rect height="189.433333" width="174.85" x="30.8" y="14.3"/>
  </clipPath>
  <clipPath id="p95aae62e0e">
   <rect height="189.433333" width="174.85" x="240.7625" y="14.3"/>
  </clipPath>
  <clipPath id="p86254a52f2">
   <rect height="189.433333" width="174.85" x="450.725" y="14.3"/>
  </clipPath>
  <clipPath id="p6ec867f0e1">
   <rect height="189.433333" width="174.85" x="30.8" y="221.533333"/>
  </clipPath>
  <clipPath id="padfabc1507">
   <rect height="189.433333" width="174.85" x="240.7625" y="221.533333"/>
  </clipPath>
  <clipPath id="p541c09675f">
   <rect height="189.433333" width="174.85" x="450.725" y="221.533333"/>
  </clipPath>
  <clipPath id="p71e1d7419d">
   <rect height="189.433333" width="174.85" x="30.8" y="428.766667"/>
  </clipPath>
  <clipPath id="pb071410824">
   <rect height="189.433333" width="174.85" x="240.7625" y="428.766667"/>
  </clipPath>
  <clipPath id="p75d60df44f">
   <rect height="189.433333" width="174.85" x="450.725" y="428.766667"/>
  </clipPath>
 </defs>
</svg>
