<?xml version="1.0" encoding="utf-8" standalone="no"?>
<!DOCTYPE svg PUBLIC "-//W3C//DTD SVG 1.1//EN"
  "http://www.w3.org/Graphics/SVG/1.1/DTD/svg11.dtd">
<!-- Created with matplotlib (http://matplotlib.org/) -->
<svg height="288pt" version="1.1" viewBox="0 0 432 288" width="432pt" xmlns="http://www.w3.org/2000/svg" xmlns:xlink="http://www.w3.org/1999/xlink">
 <defs>
  <style type="text/css">
*{stroke-linecap:butt;stroke-linejoin:round;}
  </style>
 </defs>
 <g id="figure_1">
  <g id="patch_1">
   <path d="M 0 288 
L 432 288 
L 432 0 
L 0 0 
z
" style="fill:#ffffff;"/>
  </g>
  <g id="axes_1">
   <g id="patch_2">
    <path d="M 54.675 239.2 
L 417.7 239.2 
L 417.7 30.8 
L 54.675 30.8 
z
" style="fill:#ffffff;"/>
   </g>
   <g id="PathCollection_1">
    <defs>
     <path d="M -3 3 
L 3 -3 
M -3 -3 
L 3 3 
" id="m82f5918560" style="stroke:#ff0000;stroke-width:1.5;"/>
    </defs>
    <g clip-path="url(#pa774560ec7)">
     <use style="fill:#ff0000;stroke:#ff0000;stroke-width:1.5;" x="362.04854" xlink:href="#m82f5918560" y="55.325136"/>
     <use style="fill:#ff0000;stroke:#ff0000;stroke-width:1.5;" x="182.247054" xlink:href="#m82f5918560" y="184.111567"/>
     <use style="fill:#ff0000;stroke:#ff0000;stroke-width:1.5;" x="254.167649" xlink:href="#m82f5918560" y="161.129211"/>
     <use style="fill:#ff0000;stroke:#ff0000;stroke-width:1.5;" x="398.008837" xlink:href="#m82f5918560" y="43.100817"/>
     <use style="fill:#ff0000;stroke:#ff0000;stroke-width:1.5;" x="74.366163" xlink:href="#m82f5918560" y="204.929914"/>
     <use style="fill:#ff0000;stroke:#ff0000;stroke-width:1.5;" x="290.127946" xlink:href="#m82f5918560" y="75.15598"/>
     <use style="fill:#ff0000;stroke:#ff0000;stroke-width:1.5;" x="110.32646" xlink:href="#m82f5918560" y="219.357141"/>
     <use style="fill:#ff0000;stroke:#ff0000;stroke-width:1.5;" x="326.088243" xlink:href="#m82f5918560" y="93.896774"/>
     <use style="fill:#ff0000;stroke:#ff0000;stroke-width:1.5;" x="218.207351" xlink:href="#m82f5918560" y="131.82607"/>
     <use style="fill:#ff0000;stroke:#ff0000;stroke-width:1.5;" x="146.286757" xlink:href="#m82f5918560" y="196.713242"/>
    </g>
   </g>
   <g id="matplotlib.axis_1">
    <g id="xtick_1">
     <g id="line2d_1">
      <defs>
       <path d="M 0 0 
L 0 3.5 
" id="mb2d038c90a" style="stroke:#000000;stroke-width:0.8;"/>
      </defs>
      <g>
       <use style="stroke:#000000;stroke-width:0.8;" x="74.366163" xlink:href="#mb2d038c90a" y="239.2"/>
      </g>
     </g>
     <g id="text_1">
      <!-- 0.0 -->
      <defs>
       <path d="M 50.140625 45.609375 
Q 53.265625 41.84375 54.796875 36.78125 
Q 56.34375 31.734375 56.34375 26.21875 
Q 56.34375 19.578125 54.4375 14.328125 
Q 52.546875 9.078125 49.21875 5.609375 
Q 45.796875 2.046875 41.109375 0.234375 
Q 36.421875 -1.5625 30.671875 -1.5625 
Q 24.359375 -1.5625 19.421875 0.53125 
Q 14.5 2.640625 11.421875 6.296875 
Q 8.203125 10.109375 6.609375 15.203125 
Q 5.03125 20.3125 5.03125 26.21875 
Q 5.03125 32.03125 6.5625 36.90625 
Q 8.109375 41.796875 11.375 45.75 
Q 14.5 49.5625 19.421875 51.75 
Q 24.359375 53.953125 30.71875 53.953125 
Q 37.40625 53.953125 42.1875 51.703125 
Q 46.96875 49.46875 50.140625 45.609375 
z
M 45.5625 26.21875 
Q 45.5625 37.84375 41.578125 44.234375 
Q 37.59375 50.640625 30.765625 50.640625 
Q 23.828125 50.640625 19.828125 44.234375 
Q 15.828125 37.84375 15.828125 26.21875 
Q 15.828125 15.1875 19.65625 8.46875 
Q 23.484375 1.765625 30.671875 1.765625 
Q 37.84375 1.765625 41.703125 8.46875 
Q 45.5625 15.1875 45.5625 26.21875 
z
" id="Georgia-30"/>
       <path d="M 20.265625 5.609375 
Q 20.265625 2.875 18.28125 0.9375 
Q 16.3125 -0.984375 13.578125 -0.984375 
Q 10.84375 -0.984375 8.859375 0.9375 
Q 6.890625 2.875 6.890625 5.609375 
Q 6.890625 8.34375 8.859375 10.328125 
Q 10.84375 12.3125 13.578125 12.3125 
Q 16.3125 12.3125 18.28125 10.328125 
Q 20.265625 8.34375 20.265625 5.609375 
z
" id="Georgia-2e"/>
      </defs>
      <g transform="translate(65.383975 255.27125)scale(0.12 -0.12)">
       <use xlink:href="#Georgia-30"/>
       <use x="61.376953" xlink:href="#Georgia-2e"/>
       <use x="88.330078" xlink:href="#Georgia-30"/>
      </g>
     </g>
    </g>
    <g id="xtick_2">
     <g id="line2d_2">
      <g>
       <use style="stroke:#000000;stroke-width:0.8;" x="139.094698" xlink:href="#mb2d038c90a" y="239.2"/>
      </g>
     </g>
     <g id="text_2">
      <!-- 0.2 -->
      <defs>
       <path d="M 51.125 0 
L 5.375 0 
L 5.375 6.640625 
Q 6.6875 8.15625 9.03125 10.03125 
Q 11.375 11.921875 14.59375 14.109375 
Q 16.546875 15.4375 19.28125 17 
Q 22.015625 18.5625 25.484375 20.40625 
Q 29.34375 22.46875 31.421875 24.03125 
Q 33.5 25.59375 35.203125 27.875 
Q 36.328125 29.390625 37.015625 31.65625 
Q 37.703125 33.9375 37.703125 38.140625 
Q 37.703125 44.234375 34.421875 47.09375 
Q 31.15625 49.953125 26.03125 49.953125 
Q 22.859375 49.953125 20.015625 48.703125 
Q 17.1875 47.46875 15.765625 45.265625 
Q 16.109375 43.703125 16.625 41.546875 
Q 17.140625 39.40625 17.140625 37.359375 
Q 17.140625 35.5 15.59375 34.0625 
Q 14.0625 32.625 11.03125 32.625 
Q 8.59375 32.625 7.265625 34.296875 
Q 5.953125 35.984375 5.953125 38.8125 
Q 5.953125 41.453125 7.421875 44.109375 
Q 8.890625 46.78125 11.625 49.03125 
Q 14.3125 51.21875 18.265625 52.578125 
Q 22.21875 53.953125 26.8125 53.953125 
Q 36.8125 53.953125 42.6875 49.484375 
Q 48.578125 45.015625 48.578125 37.546875 
Q 48.578125 33.984375 47.53125 31.046875 
Q 46.484375 28.125 44.140625 25.875 
Q 41.546875 23.390625 38.078125 21.609375 
Q 34.625 19.828125 27.484375 16.65625 
Q 23.25 14.75 19.578125 12.671875 
Q 15.921875 10.59375 13.578125 8.640625 
L 51.125 8.640625 
z
" id="Georgia-32"/>
      </defs>
      <g transform="translate(130.443448 255.27125)scale(0.12 -0.12)">
       <use xlink:href="#Georgia-30"/>
       <use x="61.376953" xlink:href="#Georgia-2e"/>
       <use x="88.330078" xlink:href="#Georgia-32"/>
      </g>
     </g>
    </g>
    <g id="xtick_3">
     <g id="line2d_3">
      <g>
       <use style="stroke:#000000;stroke-width:0.8;" x="203.823233" xlink:href="#mb2d038c90a" y="239.2"/>
      </g>
     </g>
     <g id="text_3">
      <!-- 0.4 -->
      <defs>
       <path d="M 52.9375 4.390625 
L 43.015625 4.390625 
L 43.015625 -17.828125 
L 33.640625 -17.828125 
L 33.640625 4.390625 
L 2.390625 4.390625 
L 2.390625 11.921875 
L 36.625 53.65625 
L 43.015625 53.65625 
L 43.015625 10.796875 
L 52.9375 10.796875 
z
M 33.640625 10.796875 
L 33.640625 42.78125 
L 7.28125 10.796875 
z
" id="Georgia-34"/>
      </defs>
      <g transform="translate(195.133545 255.27125)scale(0.12 -0.12)">
       <use xlink:href="#Georgia-30"/>
       <use x="61.376953" xlink:href="#Georgia-2e"/>
       <use x="88.330078" xlink:href="#Georgia-34"/>
      </g>
     </g>
    </g>
    <g id="xtick_4">
     <g id="line2d_4">
      <g>
       <use style="stroke:#000000;stroke-width:0.8;" x="268.551767" xlink:href="#mb2d038c90a" y="239.2"/>
      </g>
     </g>
     <g id="text_4">
      <!-- 0.6 -->
      <defs>
       <path d="M 52.484375 22.515625 
Q 52.484375 17.4375 50.65625 12.984375 
Q 48.828125 8.546875 45.75 5.421875 
Q 42.1875 1.859375 37.859375 0.140625 
Q 33.546875 -1.5625 28.859375 -1.5625 
Q 23.4375 -1.5625 19.046875 0.4375 
Q 14.65625 2.4375 11.578125 6.109375 
Q 8.453125 9.8125 6.734375 15.1875 
Q 5.03125 20.5625 5.03125 27.25 
Q 5.03125 44.671875 15.40625 56.640625 
Q 25.78125 68.609375 43.21875 71 
L 44.09375 66.609375 
L 39.703125 65.828125 
Q 29.109375 62.40625 23.3125 55.171875 
Q 17.53125 47.953125 15.828125 37.640625 
Q 20.015625 41.3125 24.109375 42.828125 
Q 28.21875 44.34375 32.765625 44.34375 
Q 40.921875 44.34375 46.703125 38.09375 
Q 52.484375 31.84375 52.484375 22.515625 
z
M 41.890625 21.1875 
Q 41.890625 29.109375 38.25 33.890625 
Q 34.625 38.671875 28.515625 38.671875 
Q 24.859375 38.671875 21.703125 37.296875 
Q 18.5625 35.9375 15.625 32.71875 
Q 15.578125 32.125 15.46875 30 
Q 15.375 27.875 15.375 26.65625 
Q 15.375 15.234375 19.109375 8.765625 
Q 22.859375 2.296875 28.953125 2.296875 
Q 34.765625 2.296875 38.328125 7.34375 
Q 41.890625 12.40625 41.890625 21.1875 
z
" id="Georgia-36"/>
      </defs>
      <g transform="translate(259.856455 255.27125)scale(0.12 -0.12)">
       <use xlink:href="#Georgia-30"/>
       <use x="61.376953" xlink:href="#Georgia-2e"/>
       <use x="88.330078" xlink:href="#Georgia-36"/>
      </g>
     </g>
    </g>
    <g id="xtick_5">
     <g id="line2d_5">
      <g>
       <use style="stroke:#000000;stroke-width:0.8;" x="333.280302" xlink:href="#mb2d038c90a" y="239.2"/>
      </g>
     </g>
     <g id="text_5">
      <!-- 0.8 -->
      <defs>
       <path d="M 54.546875 18.359375 
Q 54.546875 10.15625 47.453125 4.25 
Q 40.375 -1.65625 28.859375 -1.65625 
Q 18.0625 -1.65625 11.5625 3.765625 
Q 5.078125 9.1875 5.078125 17.71875 
Q 5.078125 24.03125 8.90625 28.25 
Q 12.75 32.46875 20.265625 35.40625 
Q 14.0625 38.875 10.984375 43.015625 
Q 7.90625 47.171875 7.90625 52.390625 
Q 7.90625 60.359375 14.671875 65.71875 
Q 21.4375 71.09375 30.859375 71.09375 
Q 40.28125 71.09375 46.109375 66.015625 
Q 51.953125 60.9375 51.953125 53.265625 
Q 51.953125 48.34375 48.734375 43.921875 
Q 45.515625 39.5 39.265625 36.671875 
Q 47.359375 33.203125 50.953125 29 
Q 54.546875 24.8125 54.546875 18.359375 
z
M 42.71875 53.8125 
Q 42.71875 59.765625 39.171875 63.5 
Q 35.640625 67.234375 30.125 67.234375 
Q 24.609375 67.234375 21.09375 63.640625 
Q 17.578125 60.0625 17.578125 54.734375 
Q 17.578125 49.609375 21.578125 46.046875 
Q 25.59375 42.484375 35.84375 38.421875 
Q 39.5 40.765625 41.109375 44.625 
Q 42.71875 48.484375 42.71875 53.8125 
z
M 44.78125 16.0625 
Q 44.78125 19.140625 43.453125 21.453125 
Q 42.140625 23.78125 39.65625 25.6875 
Q 37.25 27.546875 32.984375 29.5625 
Q 28.71875 31.59375 23.734375 33.6875 
Q 19.046875 31.15625 16.84375 27.21875 
Q 14.65625 23.296875 14.65625 18.265625 
Q 14.65625 11.078125 18.875 6.65625 
Q 23.09375 2.25 30.125 2.25 
Q 36.859375 2.25 40.8125 6.15625 
Q 44.78125 10.0625 44.78125 16.0625 
z
" id="Georgia-38"/>
      </defs>
      <g transform="translate(324.403115 255.27125)scale(0.12 -0.12)">
       <use xlink:href="#Georgia-30"/>
       <use x="61.376953" xlink:href="#Georgia-2e"/>
       <use x="88.330078" xlink:href="#Georgia-38"/>
      </g>
     </g>
    </g>
    <g id="xtick_6">
     <g id="line2d_6">
      <g>
       <use style="stroke:#000000;stroke-width:0.8;" x="398.008837" xlink:href="#mb2d038c90a" y="239.2"/>
      </g>
     </g>
     <g id="text_6">
      <!-- 1.0 -->
      <defs>
       <path d="M 39.5 0 
L 6.59375 0 
L 6.59375 3.46875 
Q 8.0625 3.5625 11.15625 3.875 
Q 14.265625 4.203125 15.4375 4.546875 
Q 16.9375 5.03125 17.75 6.125 
Q 18.5625 7.234375 18.5625 9.421875 
L 18.5625 43.703125 
L 6.390625 43.703125 
L 6.390625 47.796875 
L 9.078125 47.796875 
Q 14.359375 47.796875 18.53125 49.75 
Q 22.703125 51.703125 24.515625 53.953125 
L 28.5625 53.953125 
Q 28.421875 50.78125 28.265625 46.53125 
Q 28.125 42.28125 28.125 38.921875 
L 28.125 9.96875 
Q 28.125 8.25 28.875 6.90625 
Q 29.640625 5.5625 31.0625 4.9375 
Q 32.328125 4.390625 35.203125 3.953125 
Q 38.09375 3.515625 39.5 3.46875 
z
" id="Georgia-31"/>
      </defs>
      <g transform="translate(390.131025 255.27125)scale(0.12 -0.12)">
       <use xlink:href="#Georgia-31"/>
       <use x="42.96875" xlink:href="#Georgia-2e"/>
       <use x="69.921875" xlink:href="#Georgia-30"/>
      </g>
     </g>
    </g>
    <g id="text_7">
     <!-- $x$ -->
     <defs>
      <path d="M 24.296875 35.5 
L 25.5 29.796875 
Q 30.796875 37.90625 34.046875 41 
Q 37.296875 44.09375 40.59375 44.09375 
Q 42.40625 44.09375 43.546875 43.046875 
Q 44.703125 42 44.703125 40.390625 
Q 44.703125 38.796875 43.75 37.796875 
Q 42.796875 36.796875 41.296875 36.796875 
Q 40.40625 36.796875 38.90625 37.640625 
Q 37.40625 38.5 36.09375 38.5 
Q 33.203125 38.5 26.296875 26.40625 
Q 26.296875 25.09375 27.09375 21.90625 
L 30.296875 8.5 
Q 31.296875 4.40625 33.296875 4.40625 
Q 34.90625 4.40625 38 8.40625 
Q 38.296875 8.796875 38.6875 9.34375 
Q 39.09375 9.90625 39.390625 10.34375 
Q 39.703125 10.796875 40.09375 11.203125 
L 41.59375 10.296875 
Q 37.296875 3.59375 34.796875 1.25 
Q 32.296875 -1.09375 29.40625 -1.09375 
Q 27 -1.09375 25.703125 0.40625 
Q 24.40625 1.90625 23.5 5.703125 
L 20.59375 17.59375 
L 11.796875 5.703125 
Q 8.703125 1.5 6.75 0.203125 
Q 4.796875 -1.09375 2.296875 -1.09375 
Q 0 -1.09375 -1.34375 0 
Q -2.703125 1.09375 -2.703125 3.09375 
Q -2.703125 4.59375 -1.75 5.640625 
Q -0.796875 6.703125 0.703125 6.703125 
Q 1.90625 6.703125 3.90625 5.59375 
Q 5.40625 4.703125 6.5 4.703125 
Q 8.203125 4.703125 11.59375 9.59375 
L 19.796875 21.203125 
L 17 33.59375 
Q 16 38 15.140625 39.203125 
Q 14.296875 40.40625 12.40625 40.40625 
Q 11.203125 40.40625 8.5 39.703125 
L 6.703125 39.203125 
L 6.40625 40.796875 
L 7.5 41.203125 
Q 15.5 44.09375 19.203125 44.09375 
Q 21.09375 44.09375 22.1875 42.296875 
Q 23.296875 40.5 24.296875 35.5 
z
" id="STIXGeneral-Italic-78"/>
     </defs>
     <g transform="translate(232.5875 273.96875)scale(0.16 -0.16)">
      <use transform="translate(0 0.90625)" xlink:href="#STIXGeneral-Italic-78"/>
     </g>
    </g>
   </g>
   <g id="matplotlib.axis_2">
    <g id="ytick_1">
     <g id="line2d_7">
      <defs>
       <path d="M 0 0 
L -3.5 0 
" id="ma6ec079531" style="stroke:#000000;stroke-width:0.8;"/>
      </defs>
      <g>
       <use style="stroke:#000000;stroke-width:0.8;" x="54.675" xlink:href="#ma6ec079531" y="214.907636"/>
      </g>
     </g>
     <g id="text_8">
      <!-- 0.4 -->
      <g transform="translate(30.295625 219.443261)scale(0.12 -0.12)">
       <use xlink:href="#Georgia-30"/>
       <use x="61.376953" xlink:href="#Georgia-2e"/>
       <use x="88.330078" xlink:href="#Georgia-34"/>
      </g>
     </g>
    </g>
    <g id="ytick_2">
     <g id="line2d_8">
      <g>
       <use style="stroke:#000000;stroke-width:0.8;" x="54.675" xlink:href="#ma6ec079531" y="182.945449"/>
      </g>
     </g>
     <g id="text_9">
      <!-- 0.6 -->
      <g transform="translate(30.284375 187.481074)scale(0.12 -0.12)">
       <use xlink:href="#Georgia-30"/>
       <use x="61.376953" xlink:href="#Georgia-2e"/>
       <use x="88.330078" xlink:href="#Georgia-36"/>
      </g>
     </g>
    </g>
    <g id="ytick_3">
     <g id="line2d_9">
      <g>
       <use style="stroke:#000000;stroke-width:0.8;" x="54.675" xlink:href="#ma6ec079531" y="150.983261"/>
      </g>
     </g>
     <g id="text_10">
      <!-- 0.8 -->
      <g transform="translate(29.920625 155.518886)scale(0.12 -0.12)">
       <use xlink:href="#Georgia-30"/>
       <use x="61.376953" xlink:href="#Georgia-2e"/>
       <use x="88.330078" xlink:href="#Georgia-38"/>
      </g>
     </g>
    </g>
    <g id="ytick_4">
     <g id="line2d_10">
      <g>
       <use style="stroke:#000000;stroke-width:0.8;" x="54.675" xlink:href="#ma6ec079531" y="119.021074"/>
      </g>
     </g>
     <g id="text_11">
      <!-- 1.0 -->
      <g transform="translate(31.919375 123.556699)scale(0.12 -0.12)">
       <use xlink:href="#Georgia-31"/>
       <use x="42.96875" xlink:href="#Georgia-2e"/>
       <use x="69.921875" xlink:href="#Georgia-30"/>
      </g>
     </g>
    </g>
    <g id="ytick_5">
     <g id="line2d_11">
      <g>
       <use style="stroke:#000000;stroke-width:0.8;" x="54.675" xlink:href="#ma6ec079531" y="87.058886"/>
      </g>
     </g>
     <g id="text_12">
      <!-- 1.2 -->
      <g transform="translate(32.58125 91.594511)scale(0.12 -0.12)">
       <use xlink:href="#Georgia-31"/>
       <use x="42.96875" xlink:href="#Georgia-2e"/>
       <use x="69.921875" xlink:href="#Georgia-32"/>
      </g>
     </g>
    </g>
    <g id="ytick_6">
     <g id="line2d_12">
      <g>
       <use style="stroke:#000000;stroke-width:0.8;" x="54.675" xlink:href="#ma6ec079531" y="55.096699"/>
      </g>
     </g>
     <g id="text_13">
      <!-- 1.4 -->
      <g transform="translate(32.504375 59.632324)scale(0.12 -0.12)">
       <use xlink:href="#Georgia-31"/>
       <use x="42.96875" xlink:href="#Georgia-2e"/>
       <use x="69.921875" xlink:href="#Georgia-34"/>
      </g>
     </g>
    </g>
    <g id="text_14">
     <!-- $y$ -->
     <defs>
      <path d="M 24.296875 18.59375 
L 26.40625 7.59375 
Q 33.09375 18.59375 35.84375 24.34375 
Q 38.59375 30.09375 38.59375 33.296875 
Q 38.59375 34.90625 36 36.5 
Q 33.40625 38.203125 33.40625 40.40625 
Q 33.40625 42 34.546875 43.046875 
Q 35.703125 44.09375 37.40625 44.09375 
Q 39.59375 44.09375 41.09375 42.5 
Q 42.59375 40.90625 42.59375 38.59375 
Q 42.59375 29.90625 29.5 8.09375 
Q 21.703125 -4.796875 14.34375 -12.6875 
Q 7 -20.59375 2.703125 -20.59375 
Q 0.40625 -20.59375 -1 -19.390625 
Q -2.40625 -18.203125 -2.40625 -16.296875 
Q -2.40625 -14.59375 -1.25 -13.4375 
Q -0.09375 -12.296875 1.5 -12.296875 
Q 3.40625 -12.296875 4.90625 -13.6875 
Q 6.40625 -15.09375 7.59375 -15.09375 
Q 9.40625 -15.09375 12.40625 -11.796875 
Q 13.703125 -10.5 16.25 -7.140625 
Q 18.796875 -3.796875 19.5 -2.703125 
Q 20.5 -0.703125 20.5 0.796875 
Q 20.5 3.796875 17.390625 16.34375 
Q 14.296875 28.90625 12.296875 34 
Q 10.90625 37.703125 9.25 39.046875 
Q 7.59375 40.40625 4.59375 40.40625 
Q 3 40.40625 1.5 40 
L 1.5 41.703125 
Q 3.703125 42.09375 4.703125 42.296875 
Q 8.796875 43.09375 15.40625 44.09375 
L 15.796875 44.09375 
Q 16.90625 44.09375 19.953125 34.796875 
Q 23 25.5 24.296875 18.59375 
z
" id="STIXGeneral-Italic-79"/>
     </defs>
     <g transform="translate(22.450625 138.6)rotate(-90)scale(0.16 -0.16)">
      <use transform="translate(0 0.90625)" xlink:href="#STIXGeneral-Italic-79"/>
     </g>
    </g>
   </g>
   <g id="line2d_13">
    <path clip-path="url(#pa774560ec7)" d="M 74.366163 229.727273 
L 77.635281 227.844996 
L 80.904399 225.96272 
L 84.173516 224.080443 
L 87.442634 222.198167 
L 90.711752 220.31589 
L 93.98087 218.433614 
L 97.249988 216.551337 
L 100.519106 214.669061 
L 103.788224 212.786784 
L 107.057342 210.904508 
L 110.32646 209.022231 
L 113.595578 207.139955 
L 116.864696 205.257678 
L 120.133814 203.375402 
L 123.402932 201.493125 
L 126.67205 199.610848 
L 129.941167 197.728572 
L 133.210285 195.846295 
L 136.479403 193.964019 
L 139.748521 192.081742 
L 143.017639 190.199466 
L 146.286757 188.317189 
L 149.555875 186.434913 
L 152.824993 184.552636 
L 156.094111 182.67036 
L 159.363229 180.788083 
L 162.632347 178.905807 
L 165.901465 177.02353 
L 169.170583 175.141254 
L 172.4397 173.258977 
L 175.708818 171.376701 
L 178.977936 169.494424 
L 182.247054 167.612148 
L 185.516172 165.729871 
L 188.78529 163.847595 
L 192.054408 161.965318 
L 195.323526 160.083042 
L 198.592644 158.200765 
L 201.861762 156.318489 
L 205.13088 154.436212 
L 208.399998 152.553936 
L 211.669116 150.671659 
L 214.938233 148.789383 
L 218.207351 146.907106 
L 221.476469 145.02483 
L 224.745587 143.142553 
L 228.014705 141.260276 
L 231.283823 139.378 
L 234.552941 137.495723 
L 237.822059 135.613447 
L 241.091177 133.73117 
L 244.360295 131.848894 
L 247.629413 129.966617 
L 250.898531 128.084341 
L 254.167649 126.202064 
L 257.436767 124.319788 
L 260.705884 122.437511 
L 263.975002 120.555235 
L 267.24412 118.672958 
L 270.513238 116.790682 
L 273.782356 114.908405 
L 277.051474 113.026129 
L 280.320592 111.143852 
L 283.58971 109.261576 
L 286.858828 107.379299 
L 290.127946 105.497023 
L 293.397064 103.614746 
L 296.666182 101.73247 
L 299.9353 99.850193 
L 303.204417 97.967917 
L 306.473535 96.08564 
L 309.742653 94.203364 
L 313.011771 92.321087 
L 316.280889 90.438811 
L 319.550007 88.556534 
L 322.819125 86.674258 
L 326.088243 84.791981 
L 329.357361 82.909704 
L 332.626479 81.027428 
L 335.895597 79.145151 
L 339.164715 77.262875 
L 342.433833 75.380598 
L 345.70295 73.498322 
L 348.972068 71.616045 
L 352.241186 69.733769 
L 355.510304 67.851492 
L 358.779422 65.969216 
L 362.04854 64.086939 
L 365.317658 62.204663 
L 368.586776 60.322386 
L 371.855894 58.44011 
L 375.125012 56.557833 
L 378.39413 54.675557 
L 381.663248 52.79328 
L 384.932366 50.911004 
L 388.201484 49.028727 
L 391.470601 47.146451 
L 394.739719 45.264174 
L 398.008837 43.381898 
" style="fill:none;stroke:#000000;stroke-linecap:square;stroke-width:1.5;"/>
   </g>
   <g id="patch_3">
    <path d="M 54.675 239.2 
L 54.675 30.8 
" style="fill:none;stroke:#000000;stroke-linecap:square;stroke-linejoin:miter;stroke-width:0.8;"/>
   </g>
   <g id="patch_4">
    <path d="M 417.7 239.2 
L 417.7 30.8 
" style="fill:none;stroke:#000000;stroke-linecap:square;stroke-linejoin:miter;stroke-width:0.8;"/>
   </g>
   <g id="patch_5">
    <path d="M 54.675 239.2 
L 417.7 239.2 
" style="fill:none;stroke:#000000;stroke-linecap:square;stroke-linejoin:miter;stroke-width:0.8;"/>
   </g>
   <g id="patch_6">
    <path d="M 54.675 30.8 
L 417.7 30.8 
" style="fill:none;stroke:#000000;stroke-linecap:square;stroke-linejoin:miter;stroke-width:0.8;"/>
   </g>
   <g id="text_15">
    <!-- Least squares regression -->
    <defs>
     <path d="M 60.40625 20.609375 
L 58.9375 0 
L 4.78125 0 
L 4.78125 3.46875 
Q 5.953125 3.5625 8.171875 3.796875 
Q 10.40625 4.046875 11.28125 4.4375 
Q 12.75 5.078125 13.40625 6.296875 
Q 14.0625 7.515625 14.0625 9.421875 
L 14.0625 59.03125 
Q 14.0625 60.6875 13.5 61.953125 
Q 12.9375 63.234375 11.28125 64.015625 
Q 10.15625 64.59375 8.125 65.15625 
Q 6.109375 65.71875 4.78125 65.828125 
L 4.78125 69.28125 
L 34.03125 69.28125 
L 34.03125 65.828125 
Q 32.671875 65.765625 30.5 65.328125 
Q 28.328125 64.890625 27.34375 64.546875 
Q 25.6875 63.96875 25.078125 62.546875 
Q 24.46875 61.140625 24.46875 59.515625 
L 24.46875 12.984375 
Q 24.46875 9.765625 24.78125 7.984375 
Q 25.09375 6.203125 26.265625 5.21875 
Q 27.390625 4.34375 29.609375 4.078125 
Q 31.84375 3.8125 35.84375 3.8125 
Q 37.640625 3.8125 39.59375 3.90625 
Q 41.546875 4 43.3125 4.296875 
Q 45.015625 4.59375 46.453125 5.09375 
Q 47.90625 5.609375 48.578125 6.390625 
Q 50.59375 8.640625 53.25 13.203125 
Q 55.90625 17.78125 56.9375 20.609375 
z
" id="Georgia-4c"/>
     <path d="M 46.296875 11.328125 
Q 43.265625 5.5625 38.1875 2.140625 
Q 33.109375 -1.265625 26.515625 -1.265625 
Q 20.703125 -1.265625 16.328125 0.78125 
Q 11.96875 2.828125 9.125 6.34375 
Q 6.296875 9.859375 4.90625 14.546875 
Q 3.515625 19.234375 3.515625 24.46875 
Q 3.515625 29.15625 5 33.671875 
Q 6.5 38.1875 9.375 41.796875 
Q 12.15625 45.265625 16.28125 47.390625 
Q 20.40625 49.515625 25.53125 49.515625 
Q 30.8125 49.515625 34.5625 47.84375 
Q 38.328125 46.1875 40.671875 43.3125 
Q 42.921875 40.578125 44.015625 36.859375 
Q 45.125 33.15625 45.125 28.8125 
L 45.125 25.59375 
L 13.234375 25.59375 
Q 13.234375 20.84375 14.140625 16.984375 
Q 15.046875 13.140625 17 10.203125 
Q 18.890625 7.375 21.96875 5.734375 
Q 25.046875 4.109375 29.296875 4.109375 
Q 33.640625 4.109375 36.78125 6.125 
Q 39.9375 8.15625 42.875 13.421875 
z
M 35.5 29.6875 
Q 35.5 32.421875 35.03125 35.546875 
Q 34.578125 38.671875 33.546875 40.765625 
Q 32.421875 43.015625 30.46875 44.421875 
Q 28.515625 45.84375 25.4375 45.84375 
Q 20.3125 45.84375 16.921875 41.578125 
Q 13.53125 37.3125 13.234375 29.6875 
z
" id="Georgia-65"/>
     <path d="M 49.125 0.875 
Q 46.828125 0.046875 45.09375 -0.46875 
Q 43.359375 -0.984375 41.15625 -0.984375 
Q 37.359375 -0.984375 35.078125 0.796875 
Q 32.8125 2.59375 32.171875 6 
L 31.890625 6 
Q 28.71875 2.484375 25.078125 0.625 
Q 21.4375 -1.21875 16.3125 -1.21875 
Q 10.890625 -1.21875 7.390625 2.09375 
Q 3.90625 5.421875 3.90625 10.796875 
Q 3.90625 13.578125 4.6875 15.765625 
Q 5.46875 17.96875 7.03125 19.734375 
Q 8.25 21.1875 10.25 22.328125 
Q 12.25 23.484375 14.015625 24.171875 
Q 16.21875 25 22.921875 27.25 
Q 29.640625 29.5 31.984375 30.765625 
L 31.984375 35.59375 
Q 31.984375 36.234375 31.71875 38.03125 
Q 31.453125 39.84375 30.5625 41.453125 
Q 29.59375 43.265625 27.8125 44.609375 
Q 26.03125 45.953125 22.75 45.953125 
Q 20.515625 45.953125 18.578125 45.1875 
Q 16.65625 44.4375 15.875 43.609375 
Q 15.875 42.625 16.328125 40.71875 
Q 16.796875 38.8125 16.796875 37.203125 
Q 16.796875 35.5 15.25 34.078125 
Q 13.71875 32.671875 10.984375 32.671875 
Q 8.546875 32.671875 7.390625 34.40625 
Q 6.25 36.140625 6.25 38.28125 
Q 6.25 40.53125 7.828125 42.578125 
Q 9.421875 44.625 11.96875 46.234375 
Q 14.15625 47.609375 17.28125 48.5625 
Q 20.40625 49.515625 23.390625 49.515625 
Q 27.484375 49.515625 30.53125 48.953125 
Q 33.59375 48.390625 36.078125 46.53125 
Q 38.578125 44.734375 39.859375 41.625 
Q 41.15625 38.53125 41.15625 33.640625 
Q 41.15625 26.65625 41.015625 21.265625 
Q 40.875 15.875 40.875 9.46875 
Q 40.875 7.5625 41.53125 6.4375 
Q 42.1875 5.328125 43.5625 4.546875 
Q 44.28125 4.109375 45.875 4.046875 
Q 47.46875 4 49.125 4 
z
M 32.078125 26.65625 
Q 27.9375 25.4375 24.8125 24.265625 
Q 21.6875 23.09375 19 21.34375 
Q 16.546875 19.671875 15.125 17.40625 
Q 13.71875 15.140625 13.71875 12.015625 
Q 13.71875 7.953125 15.84375 6.046875 
Q 17.96875 4.15625 21.234375 4.15625 
Q 24.703125 4.15625 27.34375 5.828125 
Q 29.984375 7.515625 31.78125 9.8125 
z
" id="Georgia-61"/>
     <path d="M 35.296875 23.578125 
Q 37.3125 21.828125 38.375 19.53125 
Q 39.453125 17.234375 39.453125 13.921875 
Q 39.453125 7.234375 34.4375 2.984375 
Q 29.4375 -1.265625 21.484375 -1.265625 
Q 17.28125 -1.265625 13.734375 0.25 
Q 10.203125 1.765625 8.6875 3.03125 
L 7.71875 -0.140625 
L 4.046875 -0.140625 
L 3.5625 16.609375 
L 6.9375 16.609375 
Q 7.328125 14.703125 8.59375 12.15625 
Q 9.859375 9.625 11.671875 7.5625 
Q 13.578125 5.421875 16.234375 3.953125 
Q 18.890625 2.484375 22.21875 2.484375 
Q 26.90625 2.484375 29.4375 4.609375 
Q 31.984375 6.734375 31.984375 10.6875 
Q 31.984375 12.75 31.171875 14.234375 
Q 30.375 15.71875 28.8125 16.84375 
Q 27.203125 17.96875 24.859375 18.875 
Q 22.515625 19.78125 19.625 20.65625 
Q 17.328125 21.34375 14.515625 22.53125 
Q 11.71875 23.734375 9.71875 25.34375 
Q 7.5625 27.046875 6.1875 29.53125 
Q 4.828125 32.03125 4.828125 35.40625 
Q 4.828125 41.3125 9.21875 45.40625 
Q 13.625 49.515625 21 49.515625 
Q 23.828125 49.515625 26.78125 48.78125 
Q 29.734375 48.046875 31.59375 47.015625 
L 32.71875 49.5625 
L 36.234375 49.5625 
L 36.96875 34.078125 
L 33.59375 34.078125 
Q 32.5625 39.265625 29.171875 42.5 
Q 25.78125 45.75 20.90625 45.75 
Q 16.890625 45.75 14.59375 43.75 
Q 12.3125 41.75 12.3125 38.921875 
Q 12.3125 36.71875 13.0625 35.25 
Q 13.8125 33.796875 15.328125 32.765625 
Q 16.796875 31.78125 19.015625 30.921875 
Q 21.234375 30.078125 24.515625 29 
Q 27.734375 27.984375 30.59375 26.609375 
Q 33.453125 25.25 35.296875 23.578125 
z
" id="Georgia-73"/>
     <path d="M 33.25 2.09375 
Q 30.078125 0.78125 27.25 -0.125 
Q 24.421875 -1.03125 20.3125 -1.03125 
Q 14.265625 -1.03125 11.796875 2.015625 
Q 9.328125 5.078125 9.328125 10.640625 
L 9.328125 43.265625 
L 0.640625 43.265625 
L 0.640625 47.953125 
L 9.515625 47.953125 
L 9.515625 62.9375 
L 18.40625 62.9375 
L 18.40625 47.953125 
L 32.234375 47.953125 
L 32.234375 43.265625 
L 18.5 43.265625 
L 18.5 16.359375 
Q 18.5 13.328125 18.71875 11.296875 
Q 18.953125 9.28125 19.78125 7.765625 
Q 20.5625 6.34375 22.125 5.609375 
Q 23.6875 4.890625 26.3125 4.890625 
Q 27.546875 4.890625 29.90625 5.109375 
Q 32.28125 5.328125 33.25 5.671875 
z
" id="Georgia-74"/>
     <path id="Georgia-20"/>
     <path d="M 56.34375 -21.6875 
L 30.328125 -21.6875 
L 30.328125 -18.40625 
Q 31.84375 -18.3125 33.296875 -18.15625 
Q 34.765625 -18.015625 35.9375 -17.671875 
Q 37.453125 -17.1875 38.03125 -15.96875 
Q 38.625 -14.75 38.625 -13.09375 
L 38.625 4.6875 
L 38.328125 4.78125 
Q 37.546875 3.90625 36.109375 2.75 
Q 34.671875 1.609375 33.109375 0.875 
Q 31.15625 -0.140625 29.34375 -0.703125 
Q 27.546875 -1.265625 24.8125 -1.265625 
Q 20.40625 -1.265625 16.515625 0.5625 
Q 12.640625 2.390625 9.765625 5.765625 
Q 6.890625 9.078125 5.203125 13.9375 
Q 3.515625 18.796875 3.515625 24.609375 
Q 3.515625 30.125 5.46875 34.640625 
Q 7.421875 39.15625 10.640625 42.53125 
Q 13.71875 45.703125 18.03125 47.578125 
Q 22.359375 49.46875 26.609375 49.46875 
Q 29.78125 49.46875 32.25 48.859375 
Q 34.71875 48.25 36.46875 47.40625 
Q 37.984375 46.78125 39.5 45.78125 
Q 41.015625 44.78125 41.65625 44.4375 
L 45.796875 50.78125 
L 48.578125 50.390625 
Q 48.390625 46.78125 48.0625 41.5 
Q 47.75 36.234375 47.75 32.28125 
L 47.75 -12.25 
Q 47.75 -13.96875 48.390625 -15.203125 
Q 49.03125 -16.453125 50.4375 -17.09375 
Q 51.609375 -17.578125 53.40625 -17.9375 
Q 55.21875 -18.3125 56.34375 -18.40625 
z
M 38.625 8.9375 
L 38.625 37.703125 
Q 38.234375 38.921875 37.296875 40.40625 
Q 36.375 41.890625 35.109375 43.015625 
Q 33.734375 44.1875 31.75 44.96875 
Q 29.78125 45.75 27.203125 45.75 
Q 21.484375 45.75 17.59375 39.84375 
Q 13.71875 33.9375 13.71875 23.578125 
Q 13.71875 19.484375 14.46875 16.15625 
Q 15.234375 12.84375 17.09375 9.96875 
Q 18.84375 7.234375 21.53125 5.59375 
Q 24.21875 3.953125 28.328125 3.953125 
Q 31.84375 3.953125 34.328125 5.4375 
Q 36.8125 6.9375 38.625 8.9375 
z
" id="Georgia-71"/>
     <path d="M 55.125 0.875 
L 39.453125 -0.203125 
L 38.71875 0.484375 
L 38.71875 6.59375 
L 38.421875 6.59375 
Q 37.25 5.375 35.78125 3.984375 
Q 34.328125 2.59375 32.421875 1.46875 
Q 30.21875 0.140625 28.171875 -0.53125 
Q 26.125 -1.21875 22.359375 -1.21875 
Q 15.96875 -1.21875 12.625 2.953125 
Q 9.28125 7.125 9.28125 15.09375 
L 9.28125 38.140625 
Q 9.28125 39.890625 8.609375 41.078125 
Q 7.953125 42.28125 6.6875 43.171875 
Q 5.8125 43.75 4.484375 44.015625 
Q 3.171875 44.28125 1.703125 44.390625 
L 1.703125 47.5625 
L 17.78125 48.734375 
L 18.5 48.046875 
L 18.5 14.59375 
Q 18.5 9.375 20.84375 6.734375 
Q 23.1875 4.109375 26.46875 4.109375 
Q 29.15625 4.109375 31.25 4.9375 
Q 33.34375 5.765625 34.765625 6.890625 
Q 36.078125 7.90625 37.078125 9.046875 
Q 38.09375 10.203125 38.625 11.1875 
L 38.625 38.484375 
Q 38.625 40.09375 37.9375 41.328125 
Q 37.25 42.578125 36.03125 43.453125 
Q 35.15625 44.046875 33.421875 44.15625 
Q 31.6875 44.28125 29.546875 44.390625 
L 29.546875 47.5625 
L 47.015625 48.734375 
L 47.75 48.046875 
L 47.75 9.8125 
Q 47.75 8.15625 48.4375 6.984375 
Q 49.125 5.8125 50.34375 4.984375 
Q 51.21875 4.4375 52.4375 4.265625 
Q 53.65625 4.109375 55.125 4.046875 
z
" id="Georgia-75"/>
     <path d="M 40.375 41.9375 
Q 40.375 39.453125 39.15625 37.515625 
Q 37.9375 35.59375 35.40625 35.59375 
Q 32.671875 35.59375 31.21875 37 
Q 29.78125 38.421875 29.78125 40.140625 
Q 29.78125 41.21875 29.953125 42.09375 
Q 30.125 42.96875 30.28125 43.84375 
Q 27.984375 43.84375 24.90625 41.984375 
Q 21.828125 40.140625 19.671875 36.71875 
L 19.671875 8.6875 
Q 19.671875 6.984375 20.328125 5.90625 
Q 21 4.828125 22.40625 4.296875 
Q 23.640625 3.8125 25.5625 3.5625 
Q 27.484375 3.328125 28.90625 3.21875 
L 28.90625 0 
L 3.515625 0 
L 3.515625 3.21875 
Q 4.640625 3.328125 5.828125 3.421875 
Q 7.03125 3.515625 7.90625 3.8125 
Q 9.28125 4.25 9.9375 5.34375 
Q 10.59375 6.453125 10.59375 8.203125 
L 10.59375 37.9375 
Q 10.59375 39.453125 9.890625 40.921875 
Q 9.1875 42.390625 7.90625 43.265625 
Q 6.984375 43.84375 5.703125 44.109375 
Q 4.4375 44.390625 2.984375 44.484375 
L 2.984375 47.65625 
L 19 48.734375 
L 19.671875 48.046875 
L 19.671875 41.265625 
L 19.921875 41.265625 
Q 22.953125 45.21875 26.65625 47.265625 
Q 30.375 49.3125 33.453125 49.3125 
Q 36.53125 49.3125 38.453125 47.3125 
Q 40.375 45.3125 40.375 41.9375 
z
" id="Georgia-72"/>
     <path d="M 44.78125 4.984375 
Q 46.734375 3.125 47.84375 0.78125 
Q 48.96875 -1.5625 48.96875 -5.03125 
Q 48.96875 -8.5 47.453125 -11.546875 
Q 45.953125 -14.59375 42.875 -16.84375 
Q 39.59375 -19.140625 35.046875 -20.40625 
Q 30.515625 -21.6875 23.828125 -21.6875 
Q 12.890625 -21.6875 7.46875 -18.484375 
Q 2.046875 -15.28125 2.046875 -9.125 
Q 2.046875 -4.15625 5.953125 -1.265625 
Q 9.859375 1.609375 15.921875 1.859375 
L 15.921875 2.546875 
Q 14.453125 2.984375 12.890625 3.640625 
Q 11.328125 4.296875 10.203125 5.171875 
Q 8.9375 6.203125 8.15625 7.59375 
Q 7.375 8.984375 7.375 11.03125 
Q 7.375 13.625 9.203125 15.796875 
Q 11.03125 17.96875 14.75 19.53125 
L 14.75 20.265625 
Q 10.0625 22.46875 7.46875 25.90625 
Q 4.890625 29.34375 4.890625 33.890625 
Q 4.890625 40.71875 9.984375 45.109375 
Q 15.09375 49.515625 23.046875 49.515625 
Q 25.25 49.515625 27.421875 49.078125 
Q 29.59375 48.640625 31.84375 47.953125 
L 48.640625 47.953125 
L 48.640625 43.265625 
L 37.3125 43.265625 
L 37.3125 42.96875 
Q 39.109375 40.875 39.984375 38.328125 
Q 40.875 35.796875 40.875 33.34375 
Q 40.875 27 35.71875 22.609375 
Q 30.5625 18.21875 23.734375 18.21875 
L 17.828125 18.21875 
Q 16.703125 17.828125 15.484375 16.796875 
Q 14.265625 15.765625 14.265625 14.015625 
Q 14.265625 12.203125 15.28125 11.25 
Q 16.3125 10.296875 17.78125 9.96875 
Q 19.1875 9.578125 21.0625 9.46875 
Q 22.953125 9.375 24.953125 9.328125 
Q 27.09375 9.28125 30.828125 9.03125 
Q 34.578125 8.796875 36.140625 8.734375 
Q 38.375 8.640625 40.640625 7.65625 
Q 42.921875 6.6875 44.78125 4.984375 
z
M 31.59375 33.546875 
Q 31.59375 39.265625 29.265625 42.65625 
Q 26.953125 46.046875 22.75 46.046875 
Q 20.453125 46.046875 18.8125 45.09375 
Q 17.1875 44.140625 16.15625 42.390625 
Q 15.1875 40.765625 14.765625 38.5 
Q 14.359375 36.234375 14.359375 33.84375 
Q 14.359375 28.421875 16.71875 25 
Q 19.09375 21.578125 22.859375 21.578125 
Q 27.046875 21.578125 29.3125 24.96875 
Q 31.59375 28.375 31.59375 33.546875 
z
M 40.96875 -6.84375 
Q 40.96875 -4.109375 39.6875 -2.34375 
Q 38.421875 -0.59375 35.84375 0.046875 
Q 34.46875 0.25 30.21875 0.484375 
Q 25.984375 0.734375 20.359375 0.734375 
Q 15.09375 -0.296875 12.859375 -2.703125 
Q 10.640625 -5.125 10.640625 -8.9375 
Q 10.640625 -10.640625 11.375 -12.203125 
Q 12.109375 -13.765625 13.921875 -15.09375 
Q 15.625 -16.359375 18.5 -17.15625 
Q 21.390625 -17.96875 25.53125 -17.96875 
Q 32.71875 -17.96875 36.84375 -15.203125 
Q 40.96875 -12.453125 40.96875 -6.84375 
z
" id="Georgia-67"/>
     <path d="M 26.90625 0 
L 3.609375 0 
L 3.609375 3.21875 
Q 4.734375 3.328125 5.921875 3.421875 
Q 7.125 3.515625 8.015625 3.8125 
Q 9.375 4.25 10.03125 5.34375 
Q 10.6875 6.453125 10.6875 8.203125 
L 10.6875 37.9375 
Q 10.6875 39.5 9.984375 40.796875 
Q 9.28125 42.09375 8.015625 42.96875 
Q 7.078125 43.5625 5.3125 43.96875 
Q 3.5625 44.390625 2.09375 44.484375 
L 2.09375 47.65625 
L 19.09375 48.734375 
L 19.78125 48.046875 
L 19.78125 8.796875 
Q 19.78125 7.078125 20.4375 5.953125 
Q 21.09375 4.828125 22.515625 4.296875 
Q 23.578125 3.859375 24.609375 3.59375 
Q 25.640625 3.328125 26.90625 3.21875 
z
M 20.75 67.71875 
Q 20.75 64.9375 18.921875 62.859375 
Q 17.09375 60.796875 14.40625 60.796875 
Q 11.921875 60.796875 10.078125 62.765625 
Q 8.25 64.75 8.25 67.28125 
Q 8.25 69.96875 10.078125 71.96875 
Q 11.921875 73.96875 14.40625 73.96875 
Q 17.1875 73.96875 18.96875 72.09375 
Q 20.75 70.21875 20.75 67.71875 
z
" id="Georgia-69"/>
     <path d="M 50.4375 24.5625 
Q 50.4375 19.484375 48.828125 14.578125 
Q 47.21875 9.671875 44.234375 6.25 
Q 40.875 2.34375 36.421875 0.4375 
Q 31.984375 -1.46875 26.46875 -1.46875 
Q 21.875 -1.46875 17.71875 0.265625 
Q 13.578125 2 10.359375 5.328125 
Q 7.171875 8.59375 5.296875 13.296875 
Q 3.421875 18.015625 3.421875 23.875 
Q 3.421875 35.15625 9.984375 42.328125 
Q 16.546875 49.515625 27.203125 49.515625 
Q 37.3125 49.515625 43.875 42.703125 
Q 50.4375 35.890625 50.4375 24.5625 
z
M 40.328125 24.46875 
Q 40.328125 28.125 39.59375 32.203125 
Q 38.875 36.28125 37.40625 39.109375 
Q 35.84375 42.140625 33.296875 43.96875 
Q 30.765625 45.796875 27.09375 45.796875 
Q 23.34375 45.796875 20.671875 43.9375 
Q 18.015625 42.09375 16.359375 38.875 
Q 14.796875 35.890625 14.15625 32.078125 
Q 13.53125 28.265625 13.53125 24.703125 
Q 13.53125 20.015625 14.28125 16.03125 
Q 15.046875 12.0625 16.703125 8.9375 
Q 18.359375 5.8125 20.875 4.03125 
Q 23.390625 2.25 27.09375 2.25 
Q 33.203125 2.25 36.765625 8.15625 
Q 40.328125 14.0625 40.328125 24.46875 
z
" id="Georgia-6f"/>
     <path d="M 56.6875 0 
L 33.109375 0 
L 33.109375 3.21875 
Q 34.234375 3.328125 35.578125 3.421875 
Q 36.921875 3.515625 37.796875 3.8125 
Q 39.15625 4.25 39.8125 5.34375 
Q 40.484375 6.453125 40.484375 8.203125 
L 40.484375 32.953125 
Q 40.484375 38.09375 38.0625 40.875 
Q 35.640625 43.65625 32.171875 43.65625 
Q 29.59375 43.65625 27.4375 42.84375 
Q 25.296875 42.046875 23.640625 40.875 
Q 22.015625 39.75 21.0625 38.453125 
Q 20.125 37.15625 19.671875 36.375 
L 19.671875 8.6875 
Q 19.671875 7.03125 20.359375 5.953125 
Q 21.046875 4.890625 22.40625 4.296875 
Q 23.4375 3.8125 24.625 3.5625 
Q 25.828125 3.328125 27.09375 3.21875 
L 27.09375 0 
L 3.515625 0 
L 3.515625 3.21875 
Q 4.640625 3.328125 5.828125 3.421875 
Q 7.03125 3.515625 7.90625 3.8125 
Q 9.28125 4.25 9.9375 5.34375 
Q 10.59375 6.453125 10.59375 8.203125 
L 10.59375 37.9375 
Q 10.59375 39.59375 9.890625 40.984375 
Q 9.1875 42.390625 7.90625 43.265625 
Q 6.984375 43.84375 5.703125 44.109375 
Q 4.4375 44.390625 2.984375 44.484375 
L 2.984375 47.65625 
L 19 48.734375 
L 19.671875 48.046875 
L 19.671875 41.265625 
L 19.921875 41.265625 
Q 21.09375 42.4375 22.84375 44.0625 
Q 24.609375 45.703125 26.171875 46.734375 
Q 27.984375 47.90625 30.46875 48.6875 
Q 32.953125 49.46875 36.078125 49.46875 
Q 43.015625 49.46875 46.359375 45.140625 
Q 49.703125 40.828125 49.703125 33.640625 
L 49.703125 8.59375 
Q 49.703125 6.890625 50.28125 5.828125 
Q 50.875 4.78125 52.296875 4.203125 
Q 53.46875 3.71875 54.3125 3.515625 
Q 55.171875 3.328125 56.6875 3.21875 
z
" id="Georgia-6e"/>
    </defs>
    <g transform="translate(138.721719 24.8)scale(0.18 -0.18)">
     <use xlink:href="#Georgia-4c"/>
     <use x="60.351562" xlink:href="#Georgia-65"/>
     <use x="108.691406" xlink:href="#Georgia-61"/>
     <use x="159.082031" xlink:href="#Georgia-73"/>
     <use x="202.294922" xlink:href="#Georgia-74"/>
     <use x="236.816406" xlink:href="#Georgia-20"/>
     <use x="260.9375" xlink:href="#Georgia-73"/>
     <use x="304.150391" xlink:href="#Georgia-71"/>
     <use x="360.107422" xlink:href="#Georgia-75"/>
     <use x="417.626953" xlink:href="#Georgia-61"/>
     <use x="468.017578" xlink:href="#Georgia-72"/>
     <use x="508.984375" xlink:href="#Georgia-65"/>
     <use x="557.324219" xlink:href="#Georgia-73"/>
     <use x="600.537109" xlink:href="#Georgia-20"/>
     <use x="624.658203" xlink:href="#Georgia-72"/>
     <use x="665.625" xlink:href="#Georgia-65"/>
     <use x="713.964844" xlink:href="#Georgia-67"/>
     <use x="764.892578" xlink:href="#Georgia-72"/>
     <use x="805.859375" xlink:href="#Georgia-65"/>
     <use x="854.199219" xlink:href="#Georgia-73"/>
     <use x="897.412109" xlink:href="#Georgia-73"/>
     <use x="940.625" xlink:href="#Georgia-69"/>
     <use x="969.921875" xlink:href="#Georgia-6f"/>
     <use x="1023.828125" xlink:href="#Georgia-6e"/>
    </g>
   </g>
  </g>
 </g>
 <defs>
  <clipPath id="pa774560ec7">
   <rect height="208.4" width="363.025" x="54.675" y="30.8"/>
  </clipPath>
 </defs>
</svg>
